<svg xmlns="http://www.w3.org/2000/svg" xmlns:xlink="http://www.w3.org/1999/xlink" width="93" height="96" viewBox="0 0 93 96">
  <defs>
    <rect id="rect-2" width="69.22" height="80.81" x="12" y="0"/>
    <mask id="mask-3" maskContentUnits="userSpaceOnUse" maskUnits="userSpaceOnUse">
      <rect width="93" height="96" x="0" y="0" fill="black"/>
      <use fill="white" xlink:href="#rect-2"/>
    </mask>
    <radialGradient id="radialGradient-16" cx="27.229" cy="17.201" r="37.118" gradientUnits="userSpaceOnUse">
      <stop offset="0" stop-color="rgb(166,206,57)"/>
      <stop offset="1" stop-color="rgb(0,166,81)"/>
    </radialGradient>
    <radialGradient id="radialGradient-18" cx="27.225" cy="17.205" r="37.118" gradientUnits="userSpaceOnUse">
      <stop offset="0" stop-color="rgb(166,206,57)"/>
      <stop offset="1" stop-color="rgb(0,166,81)"/>
    </radialGradient>
    <radialGradient id="radialGradient-24" cx="27.225" cy="17.197" r="37.121" gradientUnits="userSpaceOnUse">
      <stop offset="0" stop-color="rgb(166,206,57)"/>
      <stop offset="1" stop-color="rgb(0,166,81)"/>
    </radialGradient>
    <radialGradient id="radialGradient-26" cx="27.229" cy="17.201" r="37.118" gradientUnits="userSpaceOnUse">
      <stop offset="0" stop-color="rgb(166,206,57)"/>
      <stop offset="1" stop-color="rgb(0,166,81)"/>
    </radialGradient>
    <radialGradient id="radialGradient-29" cx="27.229" cy="17.197" r="37.118" gradientUnits="userSpaceOnUse">
      <stop offset="0" stop-color="rgb(166,206,57)"/>
      <stop offset="1" stop-color="rgb(0,166,81)"/>
    </radialGradient>
    <radialGradient id="radialGradient-31" cx="27.229" cy="17.197" r="37.118" gradientUnits="userSpaceOnUse">
      <stop offset="0" stop-color="rgb(166,206,57)"/>
      <stop offset="1" stop-color="rgb(0,166,81)"/>
    </radialGradient>
    <radialGradient id="radialGradient-33" cx="27.24" cy="17.19" r="37.118" gradientUnits="userSpaceOnUse">
      <stop offset="0" stop-color="rgb(166,206,57)"/>
      <stop offset="1" stop-color="rgb(0,166,81)"/>
    </radialGradient>
    <radialGradient id="radialGradient-36" cx="27.236" cy="17.201" r="37.11" gradientUnits="userSpaceOnUse">
      <stop offset="0" stop-color="rgb(166,206,57)"/>
      <stop offset="1" stop-color="rgb(0,166,81)"/>
    </radialGradient>
    <radialGradient id="radialGradient-54" cx="49.749" cy="30.971" r="9.551" gradientUnits="userSpaceOnUse">
      <stop offset="0" stop-color="rgb(255,255,255)"/>
      <stop offset="1" stop-color="rgb(255,242,0)"/>
    </radialGradient>
  </defs>
  <g>
    <ellipse cx="46.5" cy="49.5" fill="rgb(213,227,220)" rx="46.5" ry="46.5"/>
    <use fill="none" xlink:href="#rect-2"/>
    <g mask="url(#mask-3)">
      <g opacity=".4">
        <path fill="rgb(32,162,106)" fill-rule="evenodd" d="M42.10296404 42.3155822C23.16294893 43.5582978 9.8174884 53.15027627 12.29523702 63.74312446c2.47774862 10.5928482 19.85562358 18.17564575 38.7956387 16.93293016 18.94001511-1.2427156 32.28547565-10.83097334 29.80398985-21.42382154-2.4814858-10.5928482-19.85562359-18.17564575-38.79190153-16.93665086z"/>
      </g>
      <path fill="rgb(59,122,224)" fill-rule="evenodd" d="M46.61 68.91862563c14.00028983.00150492 26.62286137-8.39373615 31.98158776-21.27087482 5.35872639-12.87713867 2.3982445-27.70011385-7.50092097-37.5567118C61.19150132.23444103 46.30322268-2.71459268 33.36849675 2.6191241 20.43377082 7.95284086 12.00000008 20.51887043 12 34.45745246 12.03495843 53.4739459 27.509322 68.881768 46.61 68.91862563z"/>
      <path fill="rgb(112,237,177)" fill-rule="evenodd" d="M26.11905626 12.08113035c-.231705.16371103-.47835871.37207053-.69137782.51717804-.34382033.26789079-.60542274.4836917-.60542274.4836917-.17191016.17859386-.34382033.37207054-.4970446.5543851-.40361516.4874124-.69885218.93389705-.60168556.95622128.18685887.05208988-.31018573.56926793-.49330742.88552788-.1831217.31625996.37371774.14882822.8259162.05208988.08945377-.00920925.17962301-.00920925.26907678 0 .23917935.03348635.37371774.16743174 0 .37207053-.10201887.057411-.20820068.10715867-.31766008.14882822-.35333946.13888617-.69890633.29662464-1.03519814.47252958-.25786524.15626963-.39240363.32370137-.37371774.58415075.07100637.46136746-.5306792 1.67803812.37371774 1.26876053l.08595508-.04464847c.42230105-.2046388.86328798-.44276394 1.26690314-.65856485.36051978-.20476811.73517819-.3838115 1.12115322-.53578157.05167689-.02015447.10564879-.03390038.16069863-.04092776.34382032-.05208988 1.12115323.40183618 1.46871072-.79995166.3475575-1.20178783.07100638-1.30968829.44098694-2.13196417.01868589-.03348635.0336346-.0706934.05232048-.10790046.25786524-.4911331.99035202-1.61850684 1.44255048-2.40729638.39240363-.6883305.57178815-1.1162116.03737178-.67344767l-.03737178.03348635c-.5942112.52461946-1.12115322 1.11621161-1.49487096 1.48828215-.37371774.37207054-.52694202.45020535-.5792625.26044937-.1158525-.45764676-.21675629-1.10132879-.81844185-.67716837z"/>
      <path fill="rgb(112,237,177)" fill-rule="evenodd" d="M31.80704028 9.78917584c-.17833446.04281821-.34289163.12985389-.47835871.25300796-.2802883.2120802-.5792625.50229523-.74743548.61391639-.0698585.03783854-.13298792.08686245-.18685887.1451075-.0737819.07627177-.1321448.1659566-.17191017.26417009-.0717111.34097245-.28850514.634187-.5942112.80367236-.54189073.3497463-.40735234.33858419-.56805097 1.11621161-.02989742.18231457-.0672692.37207054-.09716661.51717805-.05979484.32370137-.08969226.56182651 0 .59531286.08969225.03348635.17564734-.04836917.37371774-.23812514.31766008-.30509785.74743548-.71437544 1.06135838-1.11621162.3139229-.40183618.58299968-.7627446.54189073-.9748248.06752907-.29069742.19477148-.56432963.37371774-.80367237.37371774-.54694369.7922816-1.1757429.49330742-1.1757429z"/>
      <path fill="rgb(112,237,177)" fill-rule="evenodd" d="M22.46409675 15.27721626c.1831217-.16371103.37371774-.33486348.51946766-.50601593.53815355-.5581058.9754033-1.11621161 1.35285822-1.48828215.1136878-.12287565.237441-.2361272.36998057-.33858419.15696145-.08557622.41856387-.24184585.70632653-.43160182.74743548-.50601593 1.7041529-1.25387771 1.2071083-1.56269626-.38253743-.15857692-.80716722-.18606275-1.2071083-.07813481l-.27281395.05953129c-.31614705.1584543-.59213077.38615498-.80723032.66600626-.02616025.02604494-.04858331.05581058-.07100638.08185552-.35503185.44276394-.8595508 1.05668032-1.28185185 1.61106542-.30248034.35536864-.55979543.7465132-.76612137 1.16458078-.20554475.58043004-.77359572 1.74129012.25039089.8222759z"/>
      <path fill="rgb(112,237,177)" fill-rule="evenodd" d="M33.59714826 33.31891662c-.05279635-.05825261-.12170487-.09967438-.1980704-.11906258-.33058769-.05753596-.65916398.11135341-.80349315.4129983-.21075335.20007866-.38969507.43092481-.5306792.68460979-.06906882.11994473-.13023819.24422995-.18312169.37207054-.0345694.09656532-.05960228.19625548-.07474354.29765643 0 .1451075.12332685.19719738.25786524.22324232.13453838.02604494.231705.02232423.33260879.04092776.28402548.05208987.47088435.30509784.68016629.51717805.08878997.09766233.19868136.17399281.32139725.22324232.14795259.05925198.31453678.05109543.45593565-.02232423.08462088-.31257519.10996843-.63811739.07474355-.959942 0-.19347667-.02616025-.37207053-.02616025-.59159214-.02242306-.4055569-.05979483-.84832083-.30644854-1.07900456z"/>
      <path fill="rgb(112,237,177)" fill-rule="evenodd" d="M29.42645827 20.33365486l-.08595508.03348635c-.11628095.05667185-.21457269.14422946-.28402549.25300797-.02242306.03348635-.04110895.0669727-.06353201.09673834-.40735234.63251991-1.00156355 1.14225655-1.06135839 1.65571389-.05979484.51345734.43351258.95994199.74743548.54694369.07422008-.10883436.17609234-.19613538.29523702-.25300797.16074616-.04430413.32965547-.050674.49330742-.01860352.1980704 0 .5942112-.09673834.56805096-.94133846 0-.56926792-.48209588-.17859386-.3961408-1.2464363.04484613-.15626963-.07474355-.17859386-.21301911-.12650399z"/>
      <path fill="rgb(112,237,177)" fill-rule="evenodd" d="M21.17103337 52.2833519c.11128264-.09218066.21385979-.19430569.30644854-.30509784.03737178-.40927759-.78854443-.89669-1.01277507-.770186-.55310226.37207053-1.36780694-.74414108-1.08378145-1.26503984.28402548-.52089875.49330741-1.27992264-.23544218-1.43619227-.7287496-.15626963-1.38275564-.23440444-1.12115322-.74414107.26160241-.50973664 1.3715441-1.36177817.81470467-1.48828215-.55683943-.12650399-.74743548-.11534187-1.36780693.2753322-.62037145.39067406-2.18624879.47625028-2.22362056-.85576224-.03737177-1.33201253.43351258-2.80541185.96419177-2.80541185.5306792 0 1.05014685-.3497463 1.77515927-.04464847.72501242.30509784.66895476-.14882821 1.00156355-.18975597.33260879-.04092776 1.56587733-.1376661 1.70041572.59159215.13453839.72925826.05232048 1.95337032.33634597 2.0054602.28402548.05208987.94924306-.74414108.55310225-1.95337032-.07848706-.28819875.00099736-.59625644.20928194-.81111377.34409874-.35571957.7506722-.64574989 1.19963395-.85576224.58299967-.31625996 1.14731346-.56554722 1.2556916-.77018601.03602941-.05749547.06847932-.11713895.09716662-.17859386.20180758-.44276394.2466537-.97854551.85581363-1.55153414.07784912-.07326936.16022806-.1416159.2466537-.2046388.69885218-.50601593 1.49487097-.65112344 1.64062089-.91529352.12656345-.20286263.27034745-.3945595.4297754-.57298863.37371774-.43904323.88571105-.94133845 1.0763071-.92645563.26907677.03720705.20928193.8371587.41856387.91529352.03547733.0167542.07663798.0167542.11211532 0 .1644358-.08185552.74743548-.37207054 1.31922362-.69949261.31886462-.17540248.6248348-.37309567.91560847-.59159216.1494871-.12278327.23544218-.22696302.20928193-.29021501-.03639096-.0899063-.11447434-.15653991-.20928193-.17859386-.22796782-.07813482-.5792625-.05953129-.85207645-.15999033l-.06353202-.02976565c-.32139725-.19719738-.20180758-.77762742 0-1.1162116v-.02232424c.21172217-.38556429.5242139-.70696344.90439694-.93017634.0460884-.0195473.09565382-.02966975.14574992-.02976565.19346664.0201568.38890822.01011395.5792625-.02976564.1975629-.0427168.3852284-.12224934.55310225-.23440444.12706403-.07813481.4484613-.21952162.7773329-.4129983.22884548-.12697275.43993527-.28334135.6278458-.46508817.15112409-.13823129.24784347-.32554112.27281396-.52834016 0-.70693402.16069863-.91901423-.1980704-1.40270593l-.07474355-.11906257c-.33634597-.63251991-.61663427-2.37753073-.47835871-3.44909388.12706403-.91529352.11958968-1.48828215-.1494871-1.19062572-.0969005.11373207-.17971283.23865227-.2466537.37207054-.32513444.58415074-.8109675 1.09016667-1.08751863 1.08644597-.15322428 0-.24291653-.15626963-.20928194-.53950228.1009038-1.11621161.26160242-1.86035269-.0485833-2.23242322-.23544218-.26044938-.22796783-.46880888-.46714718-.59531286-.07402371-.0386336-.1533539-.0662141-.23544218-.08185552-.2802883-.0669727-.48209588-.28277361-.68016629-.26044938-.14201274 0-.2802883.14510751-.4447241.53578158-.27994362.76463643-.6095099 1.51034934-.98661484 2.23242322-.06216219.11166675-.1360756.21643557-.22049347.31253925-.37371774.37207054.15696145 1.48828215-.40735234 2.13940559-.26547044.25519033-.5559261.48328991-.86702516.68088908-.40735234.28277361-.74743548.52461946-.83712774.81111377-.11211532.47252959-.08595508 2.17289194-.86328798 1.75989365-.7773329-.4129983.30644855-1.78221788.22049347-2.10963995-.0336346-.15254892-.2989742-.21952162-.59047403-.29393572-.29149984-.07441411-.74743549-.18231457-.81470468-.43532253-.06725537-.21316008-.16143881-.41694989-.2802883-.60647498-.24665371-.416719-.56057662-.84832082-.74743549-1.19062572-.19433322-.40927759-.06353201-1.11621161.72501242-2.12452277.24053196-.28859574.49757807-.56314335.76985855-.82227588.1158525-.11906258.23544217-.24184585.37371774-.37207054.65774322-.63624062 1.40891588-1.25387771 2.07039628-1.8045421.52892039-.41407355 1.02840542-.86411511 1.49487097-1.34689535.06189954-.07079151.1193139-.14534973.17191016-.22324233.33669993-.3994476.77017278-.70679165 1.25942879-.89296928.32937576-.1331997.63098923-.32623947.88944822-.56926793.04206727-.04827057.07498926-.10373913.09716661-.16371103.1158525-.29765643.37371774-.8297173.6278458-1.32457112.2204279-.36180724.38543247-.75431712.48957025-1.16458078-.0485833-.12278328-.02989742-.95622128-.47088436-.68460979-.17928624.12892812-.33373848.2890017-.45593564.47252959 0 0-.13453839.17859385-.26907677.37207053-.3475575.44648465-.67269194.90785211-.93429436 1.26503983-.39987798.53578157-.67269193.8259966-.65400604.46508817.05232048-.52834016.61663427-1.7338487.65400604-2.2919545v-.11162117c.00039167-.055487-.0210749-.1089169-.05979483-.14882821-.19059605-.15626963-.12706404-.74414108.05979483-1.33573323.10494313-.34037742.24653245-.66846469.42230105-.97854552.13947643-.24850344.304822-.48171056.49330742-.6957719.22796782-.26417008.4783587-.51717805.72501242-.77390672.21598559-.22584782.41815688-.46440214.60542274-.71437543.26309055-.32377806.50644379-.66297095.7287496-1.01575257.0822179-.16371103.09342943-.29393572 0-.39067406-.03551274-.03483732-.07736823-.06261799-.12332686-.08185552-.37371774-.1413868-.74743548.18975597-1.21084548.81111377-.15322428.2083595-.3139229.45020535-.47835871.71809614-.08969226.13022469-.16817298.25300796-.24665371.37207054-.37371774.5543851-.62037145 1.02691468-.91560847 1.48828215-.15696145.24928726-.32139725.49857452-.51573048.74414107-.37991214.56891452-.68746377 1.18255643-.91560846 1.82686634-.18279123.53204946-.44482612 1.03374164-.7773329 1.48828215-.21853164.27274951-.4584645.5277987-.71753807.7627446-.27903424.24840948-.65272877.36382565-1.0239866.31625996-.4484613-.03720706-.7474355-.37207054-1.04640968-.58043004-.27229808-.2053066-.65407137-.18322664-.90065976.05208987l-.19433322.18603527c-.37371775.24556656-.87076234.57670933-1.35285823.84832083-.36830065.23828706-.77364726.41429454-1.19963395.52089875-.1644358 0-.23544217-.05581058-.16069862-.25672867.06848893-.17890835.1222327-.36307159.16069862-.5506644.0695747-.28482385.0695747-.5821005 0-.86692435-.04924037-.23574958-.26289091-.4011898-.50451895-.39067406-.68016629.05581058-1.53224274.44648464-1.54345427.19347668-.01121153-.25300797.5306792-1.05668033-.1980704-.57298863-.7287496.4836917-2.73935104 2.05010866-3.15791491 2.1542884-.20360367.015679-.40619793-.0410083-.57178815-.15999032-4.59742904 8.95613703-5.04098847 19.46360388-1.21458265 28.77221465.18227189.1405176.38521859.25221105.60168556.33114278.99782637.32742207 3.12054314 1.43619227 3.17286362 1.8045421.05232048.36834984 1.43133895 2.09847783 1.77515927 2.23242323.34382032.1339454.3961408-.32742208.64279452-.29393573.2466537.03348635.33634596.54322299.38866645.65856485z"/>
      <path fill="rgb(112,237,177)" fill-rule="evenodd" d="M27.7335169 9.25339426c.63158298-.08557622.49330742.25300797.32139726.58043004-.17191016.32742207.37371774-.01860353.93803153-.33858419.15322427-.08185552.30644854-.16743174.45593564-.24184585.37371774-.2120802.66895476-.31625995.9754033-.50973663.3294713-.21018146.6150027-.48182.84086492-.79995166l.07474355-.11162116c.35439515-.47105112.60177068-1.01313244.72501242-1.5887412 0-.08185551.0336346-.16371103.05232048-.25300796.02616024-.15254892 0-.23068373-.05232048-.24928726-.11958968-.04464846-.37371774.15626963-.72501242.46508817-.1831217.16743174-.37371774.37207054-.5942112.57670934-.09953388.10248704-.20699652.19703545-.32139727.2827736-.50451895.37207054-.58299967.03348635-.45593564-.24184585s-.40361516.02232424-.40361516.02232424c-.18685887.20091809-.37371774.40927759-.56805097.61019568-.92682 1.00086974-1.7863708 1.89383903-1.26316596 1.7971007z"/>
      <path fill="rgb(112,237,177)" fill-rule="evenodd" d="M34.02692366 7.16979925l-.0336346.03348635c-.21216504.19726354-.41068833.4085856-.5942112.63251992-.27655114.3460256-.42230105.6287992-.37371775.74414107.0485833.11534187.14201274.416719.37371774.24184585.2190552-.23551217.39036486-.51092624.50451895-.81111377 0 0 .07474355-.15626963.12332686-.2790529.34008314-.79623095.10090379-.64368203 0-.56182652z"/>
      <path fill="rgb(112,237,177)" fill-rule="evenodd" d="M31.9191556 4.61739537c.05178034-.01964372.10077458-.04590895.14574992-.07813481.49833175-.37180965.94671302-.80571028 1.33417233-1.29108477.08969226-.12278328.12706404-.21580091.08595508-.24556655-.02574897-.01628197-.05546111-.02528494-.08595508-.02604494-.29897419-.04464847-.8446021.43904323-.8446021.43904323-.1897644.17887026-.35218728.38445124-.48209588.61019568-.20928193.32742208-.34382032.64368203-.15322427.59159216z"/>
      <path fill="url(#radialGradient-16)" fill-rule="evenodd" d="M64.72036173 6.920512c.04556208.1130063.11726571.2137138.20928194.29393572.11211532.16743174.32139725.04092776.37371774-.22324232.07848072-.45764676.15696145-.91901423.23917935-1.3803817-.46341-.30509784-.93803153-.59531286-1.41639024-.87808647.07848073.37207054.15322428.74414108.23917936 1.11621162.07102579.37104147.19037724.73127005.35503185 1.07156314z"/>
      <path fill="url(#radialGradient-18)" fill-rule="evenodd" d="M53.52751539 42.27837516c-.10320444.27870775-.1661192.57059829-.18685887.86692435 0 .18603527.17564733.37207053.3288716.08185552 0-.01860353 0-.04092776.02989743-.063252.55683943-1.22411206.17191016-1.1162116.17191016-1.1162116-.07275129.00348213-.142895.02805354-.20180758.0706934-.0612124.03931611-.11035077.09467497-.14201274.15999033z"/>
      <path fill="rgb(112,237,177)" fill-rule="evenodd" d="M36.49346075 2.51891754c.2989742-.05208988.91560846-.79995166 1.08751863-1.33201253l-.72501242.2046388c-.13453839.24928726-.27655113.52089875-.37371774.74414107-.09716662.22324233-.1158525.39811548.01121153.38323266z"/>
      <path fill="rgb(112,237,177)" fill-rule="evenodd" d="M35.68249325 2.9095916c.231705-.33486348.56057661-.8371587.8109675-1.27992265l.08969226-.1413868h-.08969226c-.43724976.1339454-.87076234.2753322-1.30427492.42416041-.0255957.0884054-.0075702.18365742.0485833.25672867.30644856.3497463.02616025 1.28736406.44472412.74042037z"/>
      <path fill="rgb(112,237,177)" fill-rule="evenodd" d="M25.42767844 48.77844744c-.09594711-.0066871-.192301.00467293-.28402549.03348635-.02616024 0-.03737177.03348635-.07474354.04092776 0 .0744141.0485833.12650398.08595508.17115245.08319732.05972851.17524105.10617519.27281395.1376661.05276104.01307676.10793758.01307676.16069863 0 .16069862-.05208988.26907677-.29765643.14574991-.4129983 0 .05208987 0 .09673834-.02242306.12650398-.08620273-.05301802-.18326778-.08607812-.28402548-.09673834z"/>
      <path fill="rgb(112,237,177)" fill-rule="evenodd" d="M33.05525753 5.9531286c.03737178-.14882822-.16069863-.15999033-.16069863-.15999033-.16069863.37207053-.6614804 1.18690501-.82965338 1.5999033-.07100637.16371104-.0822179.2678908 0 .25672868.32139726-.05208988.23544217.10790045.18685887.44276394-.0485833.33486348.3961408.45020535 1.14731346-.79251025l.06353202-.10417975c.231705-.37207054.42230105-.6994926.56431379-.9673834.37371774-.71065472.43724976-1.03435609.1494871-.85576223l-.1494871.08557622c-.1980704.12278328-.43724976.2716115-.6278458.37207054-.19059605.10045904-.36998057.19719738-.34382033.12278328z"/>
      <path fill="url(#radialGradient-24)" fill-rule="evenodd" d="M75.8758363 18.08634882c-.1359415-.61157582-.09446646-1.24902462.11958968-1.83802846-.22796782-.37207053-.46341-.74414107-.70258935-1.07900455-.74743549 2.23242322-.70258936 3.09190616-.10837815 3.6760569.59421121.58415075 1.22205702 1.2464363.69137782-.7590239z"/>
      <path fill="url(#radialGradient-26)" fill-rule="evenodd" d="M48.31789008 23.09069755c-.08595508.1376661.4970446.08185551.68016629.15626962.18312169.0744141.32139725.3497463.49330741.4874124.08969226.0595313.31018573-.0669727.56805097-.24556655.31766008-.22324232.69885218-.52834016.96419177-.66972697l.0485833-.02604493c.15751298-.06921032.2968995-.17360772.40735235-.30509784.16307312-.21338994.28936833-.45229318.37371774-.70693403.00409606-.34215533-.01713877-.68414604-.06353202-1.02319397-.06558296-.18700095-.16999977-.35814898-.30644855-.50229523l-.02616024-.04836917c-.10837814-.16743174-.35503185.2120802-.4297754.4836917-.08595508.26417008-.18685887.02976564-.28402548-.1376661-.09716662-.16743174-.26160242-.14882821-.5456279.2009181l-.1345384.15999032c-.05979483.0669727-.02242306 0 0-.11162116.00404437-.04455768.00404437-.0893877 0-.1339454.00564185-.02699608.00564185-.05485942 0-.08185551-.04484612-.08185552-.20180757.17115245-.34382031.52461946-.14201275.353467-.22423065-.28277361-.16069863-.59159216.06353201-.30881854-.20928194-.40927759-.31018573-.37207053-.2684887.22846726-.49816609.49859355-.68016629.79995165-.31766008.44648465-.05979484.37207054.02616025.37207054.08595508 0 .45593564-.0706934.47088435.10790045.0149487.17859386-.31018573.26417009-.65400605.29393573-.34382032.02976564.05979484.28649431.29523702.30509784.23544217.01860353.08595508.37207054.0485833.57298863-.03737177.20091809-.3625062.3423049-.43724975.4911331z"/>
      <path fill="rgb(112,237,177)" fill-rule="evenodd" d="M43.60530936 21.34940743c.99782637-.86692435 2.35815895-2.89470878 3.73717741-3.24073438 1.01322442-.19144343 1.95575583-.65163385 2.72813951-1.33201252.38475635-.37127082.70994578-.79918104.96419177-1.26876053.17330921-.3207308.32197559-.65406675.44472412-.99714904v-.02604494c.50825612-1.46223721 1.37901846-3.69466044 2.18998596-6.11311893.12332685-.37207054.2466537-.74414107.37371774-1.11621161.62426792-1.8688524 1.123649-3.77678067 1.49487096-5.71128275 0 0 .0336346-.18603527.07848073-.37207054-.52320484-.1376661-1.05014685-.26789078-1.58082605-.37207053l-.37371774-.07441411C52.94077853.57670933 52.21202894.44648465 51.47206781.353467l-.44846129-.0744141c-.32139726-.04092777-.64279451-.07813482-.96419177-.10790046C48.92331282.05953129 47.77599935 0 46.61 0c0 0-1.66304395 0-3.28871612.15626963-.6128971.56926792-.96792895 1.07528385-.74743548 1.51804779.37371774.74414107.02616024 1.40270592-.34382033 1.95337032-.36998056.5506644-.7773329 1.65571389-.49330741 1.89755974.28402548.24184585.46714717.15999033.46714717.15999033 1.12115323-.2120802 1.98817839-1.60734472 1.12115323 2.12080206-.74743549 3.72070538-.41856387 4.52809844-1.12115323 6.25822644-.39286504.8815033-.83838617 1.7387992-1.33417233 2.5672867-.65400605 1.16086008-1.29306339 2.33288228-1.45376202 3.22957227-.26907677 1.60362402-.32139725 6.87958424.5792625 6.40705465.350682-.2619217.6454287-.59078535.86702516-.9673834.8931854-1.2575984 2.00686427-3.34863483 2.74308822-3.9513891z"/>
      <path fill="url(#radialGradient-29)" fill-rule="evenodd" d="M49.4054087 34.2788586c.23179324-.02823262.45480963-.10562713.65400605-.22696302.1441372-.10253194.30843393-.1735402.48209589-.2083595.12706403.01860352.34008314-.23812515.48209588-.58415075.04767417-.1203965.08395757-.24496021.10837815-.37207054.08652348-.27479531.20307351-.53930822.3475575-.78878954.06514675-.12478012.06514675-.27333534 0-.39811547-.09478692-.15492299-.27803767-.2326856-.45593565-.19347668-.04705669.0067583-.09335835.01797122-.13827556.03348635-.13238536.04107472-.21902822.16738543-.20928194.30509784 0 .1376661-.0485833.25300796-.28402548.24556655-.12706403 0-.23917935-.02604493-.33260879-.03720705-.1831217-.02232423-.29149984-.02604494-.28402548.10045904.03664088.34524162.02025864.6940254-.04858331 1.0343561-.08595508.25672867-.7287496 1.10132879-.32139726 1.09016667z"/>
      <path fill="url(#radialGradient-31)" fill-rule="evenodd" d="M53.2434899 34.53186657c.17191016-.2009181.50451895-.81483448.25786525-.833438-.24665371-.01860353-.37371775-.46508818-.3326088-.63624062.04110896-.17115245-.16069862-.70693402-.10837814-1.0417975.05232048-.3348635.12332686-.59159216-.05232048-.8259966-.17564734-.23440444-.02242307-.4204397.18685887-.78134813.20928193-.36090842.41856387-.74414107 0-.78878954-.41856387-.04464846-.32139726-.24556655-.06353202-.53950228.25786524-.29393572.26160242-.52834016-.05979484-.49485381-.32139725.03348635-.70258935.46136746-.78854443.64368203-.0425894.14370292-.1151794.27683196-.21301911.39067406-.10837815.063252-.34382032.4092776-.231705.4204397.11211532.01116212.12332685.17859387 0 .31625997-.12332686.1376661-.16069863.37207053-.12332686.37207053.03737178 0 .22049347.30509784.02242307.28277361-.08998977-.01628495-.18278813.00379969-.25786524.05581058-.01740744.01413205-.02750853.03530872-.02750853.05767093 0 .02236222.01010109.04353889.02750853.05767094.01705393.0174015.0373685.03130621.05979483.04092776.10954355.08096048.2383111.13224048.37371775.14882821.13540664.01658773.20928193.08185552.03737177.21952162s-.42230105.59159215-.18685887.60275427c.23544218.01116212.37371774.20091809.31018572.33858419-.08437771.11157214-.11575855.25420104-.08595508.39067406.06353202.16743174 0 .0706934-.23544217.15626963-.23544218.08557622-.14201274.31253925-.26907678.6213578v.03348634c-.13827556.32742208-.23544217.18975598-.37371774.37207054l-.08595508.1339454c-.0485833.0669727-.06353201.10417975 0 .15626962.03922053.02668888.08045198.05032357.12332686.0706934.10826338.03519579.2196295.06011158.33260879.07441411.02989742 0 .0336346.02604494 0 .063252-.07928433.0772584-.16561082.14701166-.25786525.2083595l-.1980704.1413868c-.40735234.29765643-.58673685.4911331-.47088435.61019568.1158525.11906257.29149984-.11534187.47088435-.14882822.01975609-.00372437.04003875-.00372437.05979484 0 .13453839 0 .25786524-.17115244.3961408-.26789078.05758345-.04929456.13577492-.06736614.20928194-.04836917.33058107.10530885.67719043.15190746 1.02398661.1376661.1980704-.08557623.64279452-.43532253.43351258-.45392606-.20928193-.01860353-.07474355-.0669727.09716661-.25672867z"/>
      <path fill="url(#radialGradient-33)" fill-rule="evenodd" d="M51.4907537 42.8588052c.18685887.02232423.22423064-.3460256.11211532-.40183619-.03955218-.01592912-.08377467-.01592912-.12332685 0-.04812288.02154818-.09332536.04905017-.1345384.08185552-.0971666.08185552-.04110894.26789079.1345384.30509784l.01121153.01488282z"/>
      <path fill="rgb(112,237,177)" fill-rule="evenodd" d="M71.07730103 57.94250488c-.05047608.32543946-.08291626.65332032-.09716797.9822998 9.55252075-9.43115234 12.75793457-23.51489257 8.22180175-36.12438964-.2486267-.34545899-.45324707-.72045899-.60916137-1.11621094-.29522705-.64367676-.88571167-.85571289-1.2930603-1.21289062-.40734864-.35717774-.66897584-.13769532-.4821167.05212402.18685913.18969727.26907348.94128418-.12332154 1.04553223-.37606811.08825683-.76586914.10205078-1.14730835.04089355-.1090393-.00793457-.19613647-.00024414-.2739563.00671387-.2128601.01904297-.35638427.03173828-.69024658-.30065918-.2204895-.2232666-.5680542-.14880371-.9380188.07446289-.412323.27661133-.7888794.6027832-1.12115478.97106934-.14788819.16271972-.25753784.28979492-.34106446.38659667-.16638183.1928711-.22915649.265625-.28396606.26013184-.04354858-.0045166-.08206177-.0583496-.16351318-.14074707-.23544312-.23815918.07473755-.74414062.37371826-.88549805.29898071-.14135742-.16070557-.90783691-.26159668-1.04553222-.10092163-.13769532-.46716309.37207031-.62783814.91906738-.0954895.32495117-.09466552.65783691-.0939331.9432373.00048828.19482422.00091553.36755372-.02941895.50036622-.07473755.32739257-.26159668.234375-.53067016-.06323243-.20114136-.22265625-.63201905.22436524-.93530274.5390625-.1022644.1060791-.18997192.19714356-.24938965.2421875-.17129516.12988282-.13882446.25-.07531738.48498536.0237732.08789062.0519104.1920166.07531738.31872558.04858399.2232666-.11584472.2307129-.32138061.1451416-.19784546-.08764648-.37582398-.21411133-.52322388-.37207031l-.03363037-.04467773c-.10464477-.13769532-.19433594-.15625-.25784302-.10791016-.08795166.11157227-.11584472.258667-.07476806.39440918.01760864.07910156.04263305.15625.07476806.23071289.08450318.15246582.13546753.321167.1494751.49487305 0 .13012695-.05606079.17858886-.1494751.18603515-.08358764-.00073242-.1666565-.0131836-.24667358-.03723144-.25662231-.20410156-.41418457-.50708008-.4335022-.8334961.03985596-.4991455.10598755-.99597168.19805908-1.48828125v-.02978515c-.01348877-.0847168-.09771728-.26940918-.19274902-.4777832-.16812134-.36877442-.36984253-.81115723-.27438354-.90625.04647827-.04052735.21490478.15515136.43188476.40710449.06195069.07202148.12783814.14855957.19595337.22546386.09967041.13012696.20700073.25439454.32141113.37207032.09146119.0928955.18884278.17980957.2914734.26037597.08209228.0621338.17111205.11462403.26535033.15625.0831604.03039551.1697693.05041504.25787354.05957032.19644165.02355957.39535522-.01550293.5680542-.11157227.57925415-.34985352.6539917-1.11621094.5045166-1.63720703-.1194458-.33740235-.28549194-.65673828-.49331665-.94873047-.19058228-.27905273-.37371826-.55444336-.57925415-.79992676 0 0-.11212158-.1340332-.23544312-.25671386-.08984375-.05786133-.17596435-.12121583-.25787353-.18981934l-.02990723-.01855469c-.0934143-.0706787-.19430542-.13769531-.29147339-.20092773-.4236145-.22509766-.77764892-.56079102-1.02398681-.97106934.00588989-.06079101.01843261-.12060547.03735351-.17871094.07797241-.09912109.17440796-.18249511.2840271-.2454834.07870484-.0583496.10916138-.16149902.07473755-.25305175-.08630371-.21325684-.2220459-.40319824-.39611816-.5543213-.22305298-.201416-.50704956-.3231201-.80725098-.34606933-.57272339.00048828-1.1381836.12756348-1.6555481.37207031-.38900756.11218262-.75039672.30358887-1.06137084.56176758-.15142823.11010742-.29162598.23474121-.41854859.37207032-.28710937.32312011-.54708862.66906738-.77734375 1.03442382-.58300781.91894532-1.12115478 1.90869141-1.73406982 2.85009766-.16442871.25671387-.32885742.50964355-.50076294.74414063-.4491272.66796874-.96228028 1.29101562-1.53225708 1.86035156 0 0-.17938233.17480469-.37371826.3236084-.2840271.23449707-1.49487305.84460449-1.49487305 1.39526367-.16531372.83679199-.37612915 1.6640625-.63156128 2.47802734-.2840271 1.04553223.55682373 1.05664063.77731323.91906738.35061646-.24267578.67721558-.5180664.97540283-.82226562.31045533-.2664795.24719239.06433105.18621827.38293457-.0241394.1262207-.04794312.25061035-.04794312.335083.04354858.5374756.04354858 1.07739259 0 1.61486817-.0859375.59155274-.13827515 1.06408692.134552 1.11621094.16070557 0 .28775025-.16003418.46713257-.31262207.09591675-.08984375.21084595-.15722656.33636475-.19714356.41854858-.13391113.63903808-1.16833496.7250061-1.5180664.1663208-.39001465.48059082-.69897461.87451172-.85949707.03894043-.01855469.07434082-.04382324.10461426-.0744629.2840271-.27526855.25039673-.9934082.1420288-1.22399902-.0585327-.11950683-.10604858-.24414062-.1420288-.3720703-.03756714-.15539552-.03756714-.31726075 0-.47253419 0-.04846191.02243042-.10046387.0411377-.15637207.301239-.69799805.75286864-1.32165527 1.322937-1.82678223.39550782-.335083.70007325-.76367187.88571167-1.24645996.0682068-.2001953.15582276-.39343261.2616272-.57666015.1131897-.2121582.25393677-.40856934.41854859-.58422852.24664306-.28271484.55685424.16003418.7885437.52832031.21170044.33666993-.18814087.67944336-.42977906.88647461-.02279663.01953125-.04418945.03796387-.0635376.05493164-.25033569.23596192-.48858642.48425293-.71377563.74414063-.1822815.20043945-.37698364.38928223-.58300781.56555176-.27175903.20666504-.27905274.47058105-.28692627.75500488-.0017395.0637207-.00354004.12841797-.0083313.19372559-.07577515.5114746-.19073486 1.01660156-.34381103 1.51062011-.03741456.35510254.11245727.70422364.39614868.9227295.12069702.1171875.32949829.0012207.60461425-.15148926.07409668-.0411377.15298462-.08496094.23623658-.12756348.14901733-.07763672.30551147-.13989258.46716308-.18603516.57318116-.14794921.62713623.10766602.65029908.21740723l.00369262.01696777c.02243042.09680176.31018067.18981934.37371826.29394532.0635376.10424804-.16070556.09680175-.32138061.07446289-.06286621-.00878906-.13372803.05419922-.21640015.12780761-.1286621.11437989-.2859497.2541504-.48620605.18847657-.1482544-.04614258-.30114746-.07617188-.45593262-.08935547-.2008667-.02722168-.40454102-.02722168-.60540771 0-.23544312.03344726-.37371827.30883789-.44473267.64746094-.04248047.20239257.04071045.29577636.10964966.37316894.04632568.05200195.08621216.09680176.07720947.16259766-.06948853.29125976-.18692017.5690918-.3475647.82226562-.11212158.03344727-.18310547-.0706787-.25787353-.37207031-.07473755-.3013916-.37371826-.16748047-.49328613-.05212402-.27416993.36669922-.46191407.79016113-.54937745 1.23901367v.02600098c-.12374878.50354003-.10806274.62731933-.15368652.65710449-.01473999.00964355-.03588867.00939941-.07019043.0090332l-.02276611-.00012207c-.17190552 0-.31018067.14880371-.44473267.37207031s-.32138061.11535645-.45593262-.1488037c-.0666809-.13085938-.0883789-.19421388-.12835693-.2093506-.03323364-.01257324-.07910156.00817872-.17404175.0510254-.0211792.00952148-.04483032.02026367-.07131958.03186035-.16830444.05566406-.33306885.12145996-.49331665.19714355-.20385742.1069336-.42538452.17614746-.6539917.20471192-.25787353 0-.20928955-.28283692-.34381103-.41308594-.08734131-.08459473-.24398804.03479004-.39041138.1463623-.07891846.06018067-.15478516.11791993-.21502685.14013672-.17190552.06323242-.04858399-.13769531.03738403-.26416015.0859375-.12646485-.07476807-.12646485-.23544312-.12646485-.16070556 0-.16070556-.15625-.08596801-.46508789.0513916-.21240234.14349365-.16259765.23245239-.11437988.04074096.02209473.08026123.04345703.1151123.039917.0579834-.00573731.03601074-.07019044.00436402-.16308595-.02957154-.08679199-.06750489-.19799804-.05670166-.30944824.02243042-.23059082.12335205.04101563.1980896.25305176.04193115.18981934.14102172.36242676.2840271.49487305.08227539.06860351.12750244-.1459961.17428588-.36791993.03179932-.15100097.06433106-.30541992.10974122-.3762207.11209106-.17492676.12332153-.49865723-.09716797-.4576416-.13156128.03430176-.26733399-.03894043-.31018067-.16748047-.09216308-.23059082-.09216308-.48754883 0-.71813965.14572144-.52832031-.0635376-.34594726-.16070556-.21948242-.09716797.12646484-.2840271.16748047-.71755982.58789063-.4335022.42041015-.39611816.71813964-.27279663.9934082.08026123.17919922.03549194.45605469-.008667.72912598-.02368163.14648437-.04721069.29187011-.05111694.42053222-.00994873.32617188-.38012695.30822754-.71386718.29199219-.04324341-.0020752-.08584595-.0041504-.12701416-.00549316-.2965088-.00915528-.33010865.05529785-.38134766.15356445-.01074219.02062988-.02227783.0427246-.03720093.06604004-.08596801.13391113-.24667358.20092773-.24667358.13769531 0-.0633545-.16070557.04455566-.2204895.2454834-.11950684.30187988-.30453491.57385254-.54190064.79626465-.09945678.09448242-.21975708.16467285-.35128784.20458984-.15280151.04504395-.29684448.11547852-.42602539.20837402-.2204895.20092774-.39614868.48376465-.61663818.64367676-.06188965.04492188-.10760498.0904541-.14950562.13220215-.10742187.1069336-.1899414.18896484-.45593262.17297363-.23449707-.01416015-.23626709-.10302734-.23754882-.16625976-.00073243-.03649903-.00128174-.06445313-.04644776-.06445313-.12335205 0-.09716797.2418213-.134552.5357666-.00357056.07458496-.0524292.1394043-.12332153.1636963-.15264893.00866699-.30270386-.04211426-.4185791-.14135743h-.03735352c-.2083435-.04699707-.42654419.01147461-.58300781.15625-.1569519.10412598-.03363037.44274902.19805908.58044434.18496704.12329101.31796265.3100586.37371826.5246582.02618408.08557129.0560608.18225098.08596802.29760742.13452148.55810547.02243042.74414063.02243042.74414063-.02243042.08190918-.05981445.19348144-.10839844.31994629-.16442871.42053222-.4335022.97485351-.60540771 1.00830078-.12719727-.00061035-.25344849-.02197266-.37371827-.06323242-.17565918-.04833985-.42977905-.11901856-.86328125-.21203614-.64282226-.12646484-.77734375-.1451416-1.02398681-.07446289-.23504639.11108399-.34793091.3807373-.2616272.62512207.08642578.23303223-.1185913.81152344-.27758789 1.26000977l-.01763916.04968262c-.16070557.45385742-.46713257.64367675-.5680542 1.23522949-.10089111.5916748-.0859375.62133789.24667358.65112304.33258057.02978516.60540772.17114258.5829773.56188965-.0201416.35144043.29846191.18188477.61837769.01159668.03567504-.01904297.07138061-.03796386.10662841-.05627441.15264893-.07922363.2989502-.07348633.44900513-.06750488.1953125.00769043.39697266.015625.62731934-.16320801.14651489-.09997559.27322387-.2261963.37371826-.37207031.12850952-.21240235.23614502-.43664551.32138061-.66967774.17056275-.33447266.38690186-.64379883.64282227-.91906738.12670898-.13391113.28271484-.23706055.45593262-.3013916.17633056-.04760743.33728027-.13989258.46713256-.26782227.18685914-.23071289.26159668-.81115723.51947022-.86328125.12887573-.02600098.28015137.04736328.4286499.11950684.14907837.07226562.2946167.14282226.41220093.11120605.13131714-.0411377.25689697-.09863281.37371826-.17114258.11587525-.0670166.24291992-.14135742.37371826-.20458984.1361084-.09118652.29272461-.14746094.45596314-.16369629.24664306.03344727.2840271 1.0789795.37371826 1.44726563.08969116.3684082.96417236 1.23535156.98660278 1.78222656.04324341.34790039-.15264892.68164062-.47836303.81481933-.11212159.0855713-.5680542-.04089355-.66894532-.13757324-.10092163-.09680176-.31765747.09667969-.26907348.23059082.04858398.1340332.33261108.28649903.5045166.62512207.17190552.33862305.37371826-.11535644.4335022-.37207031.0385437-.16552734.10354614-.14379883.1850891-.11657715.0447693.01513672.09451295.03173828.14752198.01989746.1494751-.03356933.2840271-.37207031.44473267-.61022949.08224487-.12194824.08029174-.2380371.07833862-.3536377-.00186157-.11035156-.00372315-.2203369.06741333-.3347168.14575195-.234375.20925903-.16748046.37371826.05578614.15393066.20898438.1932373-.0222168.21603394-.15637207l.00445556-.0258789c.0107727-.06079102-.11636352-.23486329-.25308227-.42199708-.14797974-.20251464-.30718994-.42041015-.31497193-.52685546-.01239013-.16967774-.14041137-.17297364-.23916626-.17565918-.02035522-.00048829-.03945923-.00097657-.05606079-.0029297-.09716797-.01110839-.20928955-.45385741-.23544311-.71801757-.0069275-.06994629-.03631592-.16870117-.07092285-.2849121-.09622193-.3232422-.2326355-.78149415-.0374756-1.12902833.26535035-.47253418.60168458-.21203613.67642213.09301758.10211181.44580078.24728393.88061523.43353271 1.29858398.03686524.06396485.11273194.11791992.20010376.18017578.2579956.18359375.61642456.4387207.36795044 1.23364258-.33261108 1.06408692-.27282715 1.41394043 0 1.4584961.13974.02282714.12356568.15515136.09613037.37927246-.02612304.21350097-.0623474.51000976.01599121.87463379.16067505.7479248.5045166-.13391114.5904541-.46130371.05029297-.19152833.10949708-.13110352.18515015-.05383301.05368042.05493164.11566162.11816406.18856812.10583496.1208496-.02050781.07540893-.36486817.02798462-.72460938-.02148438-.16308593-.04342652-.32922363-.05041504-.46972656-.03890991-.11645508-.02661133-.24389648.03387451-.35095215.06048584-.1069336.16357422-.18359375.28378296-.21081543.08972168-.03356933.2055664-.05957031.33636474-.09301758.5045166-.1451416.47836304.45385743.42977906.66601563-.103302.40917969-.17330933.82592773-.20928955 1.24633789-.0635376.56933594.64279174 1.1385498.97540283 1.02319336.23544311-.09667969.37371826-.10046387.50079346.02612305.0475769.04626464.09014892.0974121.12704467.15246582.20822144.24536132.2972107.18273925.50634766.03540039l.0505066-.0354004c.09835815-.06481933.21469115-.09729003.33261108-.09301757.15731811-.00720215.30404663.0789795.37371826.2196045.08026123.18115233-.35870362.93652343-.66937256 1.47106933-.12319946.21203613-.2262268.38928222-.26867676.4822998-.0385437.10375977-.08737183.20349121-.14575195.29760742-.07937622.13684082-.18624878.25585938-.31390381.34973145-.11102295.08190918-.26272583.08190918-.37371826 0-.38482666-.2565918-.91778565-.07434082-1.20828247.02502441l-.0249939.00854492c-.14904785.02197266-.30081177-.01550293-.42230225-.10424804-.53588867-.3293457-1.03677368-.71203614-1.49487304-1.14221192-.9380188-.81481933-1.18469239.50598145-1.18469239.50598145-.11212158.46508789-.32138061.6138916-.51571655.49487305-.19433594-.11901856-.13827514-.31628418-.45968628-.37207032-.31176758-.08728027-.51422119-.3864746-.47836303-.70690918 0-.18981933-.2840271-.34606933-.57925416-.49121093l-.37371826-.17858887c-.09338379-.04467774-.17913818-.1036377-.25411987-.17480469-.18753052-.18408203-.08847046-.46838379.06002808-.89465332.05569458-.15979004.11831665-.3395996.17541504-.54162598v-.06689453c.11959838-.43908691.0859375-.63623047 0-.74414062-.04605103-.04492188-.10470582-.07470703-.16818238-.0855713-.67318725-.04467773-1.3486023-.04467773-2.02182007 0l-.33258056.02600099h-.12335205c-.32766724.03466796-.65081787.10314941-.96417237.20471191-.41867065.17993164-.86450195.28930664-1.31924438.3236084-.54562378-.07434082-.64279175-.5357666-.82965088-.5357666-.18685913 0-.14575195.83349609-.74743652 1.04187011-.98660279.37207032-1.18466187 1.52172852-1.33041382 1.91235352-.14575196.39074707-1.40893555.93762207-1.55841065 1.18322754-.14950561.24560547-1.36779785 1.67797851-1.61447143 2.02404785-.24664307.34606934-.25787354.4650879-.23544312 1.741333.03005982.69836427-.22311401 1.37939454-.70257568 1.89013673 0 .00744629-.0008545.0222168-.0020752.04321289-.01278686.21923828-.06561279 1.12597656.39822388 1.67944336.31948853.40881347.48834229.91455078.47833252 1.43249511.02618408.27526856 1.21084595 2.48168946 1.79013062 2.12451172.57925415-.35717773 1.81625366.26416016 1.81625366.26416016 1.02398681-.4539795 1.775177-.26416016 2.04797363.01855469.0989685.10266113.10498047.2380371.11083984.36938476.0102234.23095703.0199585.4494629.5319519.45666504 1.16973878 0 .42977906 1.7598877.42977906 1.7598877-.07073974.19616699-.14575195.33117675-.20742798.44213867-.12078857.21728515-.19039917.3425293-.07659912.6553955.49990845 1.2199707.75387573 2.52600098.74743652 3.84350587.0076294.52575683-.09286499 1.04736328-.29522705 1.53295898l.55310059-.04833984s.48208618-.05212403.96417236-.11169434l.45596314-.05944824s1.12115478-.15625 2.18997192-.37207031l.37371826-.078125c.79229737-.17114258 1.5770874-.37207032 2.34695435-.5991211.45965576-.13391113.91558838-.27526855 1.36779785-.42785644.03363037-.18225098.07473755-.37207032.11959839-.546875.20773315-.4465332.50097656-.84851075.86328125-1.18322754.61288452-.65112305 1.4276123-1.3803711 2.03302002-1.90124512l.58673096-.50610352c.61663818-.52453613 1.34164428-1.78222656 1.79013061-2.64904785.04483032-.10791015.0934143-.20092773.13452149-.28649902.04946899-.09436035.09072876-.19262695.12332153-.29394531q.12124634-.30175782.04077148-.37194825-.01626587-.01416015-.04077148-.01879882c-.04415894-.01098633-.09036255-.01098633-.13452149 0-.22424316.04846191-.62039184.26049804-1.01278686.3720703-.74743652.22326661-1.2220459.0744629-1.29678345-.85205077-.01757812-.30419922-.08578491-.60339356-.20181274-.88549805-.17834473-.33654785-.32110596-.69067383-.42605591-1.05664062-.14950562-.8046875-.18722534-1.62597657-.11209106-2.4407959.04840087-.8079834-.00177002-1.61877442-.14950562-2.41479492 0-.12646485-.03363037-.2454834-.04858398-.33850098-.11981202-.51281738-.18615723-1.03649902-.19805909-1.56274414-.02243042-.74414063.19805909-.05212402.2130127.2232666.01495361.27526855.134552.30505371.40362549.29394531.02615356 0 .05230713 0 .08969116.02233887.10836792 0 .17562866.1673584.2279663.45019531.1195984.68457031.12332154 2.03149414.26531983 3.18115235.04660034.43762207.10144043.82250976.1519165 1.17700195.13580323.95349121.24023438 1.68640137.06860352 2.63305664-.19433594 1.0008545 1.02398682.49853516 2.02554321 0l.54187012-.26416016c.09716797-.04101562.18685913-.0706787.24667359-.10424804.9529724-.43151856 2.24230957-1.51062012 3.13549804-2.43701172l.05978394-.06323242c.90438843-.95996094.62036133-1.19433594.2840271-1.29858399-.18328858-.07104492-.31442261-.23425293-.34381104-.42785644-.03146362-.14038086-.04403686-.2841797-.03738403-.42785645 0-.33862305 0-.40185547-.134552-.37207031-.03964234.00878906-.11727906.07385254-.22122193.16088867-.24908447.2084961-.6482544.54272461-1.038208.53479004-.29522705 0-.37371827-.27526856-.4335022-.64367676-.02243042-.28649902-.04858399-.6956787-.0859375-1.05664062-.01608276-.17041016-.0401001-.32653809-.06210327-.46948243-.0803833-.52246093-.13397217-.87072753.32369995-1.10437011.47836304-.2307129.42977905.4465332.37371826.78137207 0 .06323242 0 .11901855-.02615356.17114258-.027771.17126464.2782898.54772949.45761108.76818847.06219482.07653809.10913086.13427735.12164307.15820313.04858398.09301758.48583984.11169433.76611328.28649902.12594604.06140137.20675659.18786621.20928955.32751465 0 .25292969.37371826.39807129.81469726.47619629l.29150391.04089355c.17565918 0 .37371826.02978516.52319336.03356934h.33261108c.10131836 0 .20404053-.00793457.30480957-.01574707.51257325-.03955078.9746399-.07519531.94342041.95703125-.06155395 1.71911621.53961182 1.53222656.76760865 1.46130371l.02093505-.00646973c.1074524-.0324707.20309449-.14245605.26364136-.21203613.05740357-.06591797.0831604-.09558105.05773926.0111084-.25369263.83935547-.46325684 1.69128418-.62783813 2.55236816zm-7.66494751-14.45117187c-.0458374-.00671387-.09091187-.01794434-.134552-.03344727-.37371827-.11535644-.46713257-.34606933-.64279175-.54699707-.12460328-.13171387-.29077149-.21704101-.47088623-.24182129-.29748536-.04174804-.51208497.06469727-.71536255.16540528-.21270752.10559082-.41281128.20483398-.68234253.12109375-.06719971-.02270508-.13223267-.0513916-.19430542-.0855713-.4185791-.23071288-.13830567-.79992675.19430542-1.3059082.18313598-.27905273.37371826-.53955078.48583984-.71069336.29525757-.47619628.76611328-1.20178222 1.22207642-1.1496582.22824096.02600098.2157898.30566406.20220947.61071777-.01351929.30456543-.02816773.6340332.1939087.76220704.1024475.03710937.2171936.01245117.29525756-.06323243.0399475-.02368164.07748413-.05102539.11209106-.08190918.14550782-.1171875.24151612-.2845459.269104-.46875.16067506-.44274902.55682374-.3720703.84085084-.20092773.11099243.06689453.10327148.22692871.09170532.46655273-.01803589.37329102-.04537964.9395752.35302734 1.64672852.6539917 1.16088867-.66522216 1.26513672-1.4201355 1.11621094zm5.63189697-2.05749512c.03985596-.03295898.08547973-.05810547.134552-.07446289.134552-.02978516.8595581-.72924805.4111023-.93762207-.17871094-.07141113-.37817383-.07141113-.55685425 0-.07565308.02148437-.14663697.0567627-.20928955.10412598-.10836792.0559082-.2130127.10046386-.31390381.1451416l-.2915039.12646484c-.39239503.19726563-.65026856.43164063-.72875977 1.31347656-.03723145.56262207-.02816773.96459961-.02084351 1.29003907.00961304.42565918.01623535.72045898-.08752441 1.07263183-.04782105.14489746-.11044312.2845459-.18685913.41662598-.05160523.0895996-.10729981.17944336-.1621399.26782226-.25497436.41113282-.4914856.79260254-.21157837.98242188.10836792.06323242.22421265.1599121.37371827.25292969l.07473754.04467773c.32513428.17114258.70632935.32373047.94924927.14135742.10324097-.08825683.1730957-.20898437.19805908-.34228515.03363037-.11901856.0635376-.2454834.09344483-.37207032.18069458-.66601562.29830932-1.3474121.35128784-2.03515625-.06292725-.37268066-.18133545-.73376464-.35128784-1.07165527-.03363037-.09301758-.0635376-.18225098-.08221436-.25671387-.0102539-.08398437-.0102539-.1689453 0-.25292968.02416992-.06762696.05551148-.1324463.0934143-.19348145l.10464478-.15625c.11517334-.1751709.25628663-.33203125.41854859-.46508789z"/>
      <path fill="url(#radialGradient-36)" fill-rule="evenodd" d="M54.03577151 41.750035c.08448132-.13803875.15819566-.28232983.22049347-.43160183.03737178-.11534187-.10090379-.23068373-.10090379-.23068373-.04335046.01005632-.08409422.02907078-.11958968.05581058-.12850751.09300069-.21028331.2368345-.22423064.39439477 0 .25672867.02616024.33858419.11211532.32742207.02989742-.0037207.07100637-.05208988.11211532-.11534187z"/>
      <path fill="rgb(112,237,177)" fill-rule="evenodd" d="M24.33268546 48.78216815c.1980704 0 .3961408.02232423.5942112 0 .02224993-.01799137.047567-.03185439.07474355-.04092776-.0216839-.03890455-.0344466-.08210649-.03737177-.12650398-.19588853-.16618693-.40739177-.31321285-.63158298-.43904324-.2818649-.17207133-.58978323-.29771114-.9118713-.37207054.02616025 0 .02616025-.02976564.0523205-.04092775-.03595648-.0260329-.08250906-.03269988-.12437786-.01781264-.0418688.01488723-.073647.04940619-.08490408.09222674-.02952576.0853205.00671055.17943333.08595508.22324233.0684133.039305.14293428.06697.22049346.08185551.06353202.10790046-.07474354.2009181-.16069863.22324233-.08595508.02232423-.1980704-.063252-.30644854-.07441411-.04294903-.01038385-.08831067-.0008041-.12332686.02604494-.04986727.03116769-.08285228.08316376-.08969226.1413868l.08969226.02976564c.43777537.15059751.8918655.24925775 1.35285823.29393573z"/>
      <path fill="rgb(112,237,177)" fill-rule="evenodd" d="M22.74812223 47.81850546c.06353202.02232423.17191016.03348634.20928194 0 .0641352-.03315406.09901233-.10411057.08595508-.17487316-.02616024-.02976564-.02616024-.05208987-.0485833-.0744141l-.03737178-.03348635c-.24291653-.25300797-.45593565-.49485382-.69137782-.74414108-.14442462-.17589758-.31597778-.3278567-.50825613-.45020535-.07138204-.0408304-.1500933-.06737315-.231705-.07813481-.12332685-.03348635-.26160242 0-.3475575-.0744141-.16069863-.07441411-.2466537-.34974631-.44472411-.37207054-.1980704-.02232424-.30644855.12650398-.49330742.16743174-.11211532.03348635-.23544218-.02232424-.34382032 0-.10837815.02232423-.22423065.12650398-.18685887.22324232.03737177.15626963.27281395.09301763.41856387.063252.22634867-.00968227.44489208.08337088.5942112.25300796.15941965.15535504.3488585.27687163.55683944.35718771.17564734.07813481.4148267.09301764.49330742.26789079v.03720705c.03101316.09541705.0510726.19402397.05979484.29393573.05561878.07350055.13469177.12598353.22423064.14882821.22455367.08291574.45586943.1464028.69137782.18975598z"/>
      <path fill="rgb(112,237,177)" fill-rule="evenodd" d="M21.77271893 47.99709931c-.09983773-.01770264-.20174185.01752478-.26907677.09301764-.02616025 0-.02616025.02976564 0 .05208987.06669456.10754377.1662313.19099472.28402548.23812515.08901453.0397242.18704786.05513492.28402548.04464846.02867906-.1557524-.04479935-.31251214-.1831217-.39067406-.03501954-.0215636-.07477761-.03433225-.1158525-.03720706z"/>
      <path fill="rgb(112,237,177)" fill-rule="evenodd" d="M34.50901954 60.07450896c-.15381717-.11885999-.31481864-.22820636-.48209588-.32742208l-.6278458-.37207053c-.4484613-.2716115-.9455059-.56926793-1.33417234-.8259966-.14574992-.09673834-.27281395-.18603527-.37371774-.26417008-.12744478-.0921087-.24293181-.19958815-.34382033-.31998066-.37371774-.44648465-.43351257-.97854551-.58299967-1.57013767-.06425962-.2242399-.17788028-.43141448-.3326088-.60647497-.4160917-.48871802-.89771698-.91814189-1.43133894-1.27620195-.1187051-.08156459-.24366199-.15372014-.37371774-.2158009-.27655113-.14138681-.67269193-.6883305-1.12115322-1.1645808-.37371774-.37207053-.78107008-.74414107-1.18468524-.74414107-.31505022.001565-.62341754-.0904079-.88571105-.26417008-.23917935-.16371103-.3961408-.37207053-.60542274-.52834016-.1553044-.10218778-.3221293-.18585697-.4970446-.24928726-.12214852-.04583926-.24694443-.08435547-.37371774-.11534187-.35483451-.07098045-.72226183.03294223-.98661483.2790529l-.22423065.17487316c-.23544217.18975597-.94924306.54694369-.88944822 1.23527418.01031623.19723833-.01890313.39454828-.08595508.58043004-.11168989.34461404-.36208173.62758985-.69137782.78134813-.34382032.10417975-.44098694.94877987-.41856387 1.21294995.02242306.26417008 0 1.11621161.29523701 1.48828215.25981915.44923816.49680573.91118782.71006371 1.3841024l.10464097.10417975s.58299967.60275427 1.19963395 1.1757429c.44098693.40927759.88944822.80739306 1.35285822 1.19434642.37371774.30137714.74743548.59903357 1.12115322.88924859 0 0 1.0090379.77762742 2.07039629 1.48828215.48957024.31998066.99035201.6325199 1.49487096.93017634.50451895.29765643.94924307.54694369 1.43133895.79995165.30271137.15999034.60915992.31625996.91560847.46880888l.72501241.3423049c.44098694.2046388.88571105.39811547 1.33417234.58415074l.6278458.24928726.25412807.09673834c.02616024-.24928726.0485833-.54322299.0822179-.88552788.19433323-1.41386804.37371774-1.55153414 1.19589677-2.87238455.82217903-1.3208504-.67269193-2.51891754-1.06883274-2.85750172z"/>
      <path fill="rgb(112,237,177)" fill-rule="evenodd" d="M40.86222114 2.06127078c.05008367-.05680836.10510942-.10910144.1644358-.15626963.52448782-.52043091 1.01387745-1.07478228 1.46497355-1.6594346-.54936508.063252-1.0912558.1413868-1.62940935.23068374-.94550588.15626962-1.8685887.37207054-2.80288306.58415074-.0109393.12519244.05360839.24495567.16443581.30509784.50825613.24556656.65400605.79251025 0 1.56269626-.52078356.67752427-1.09973346 1.30869887-1.73031314 1.88639762-.17564734.1339454-.32513444.2083595-.4297754.18231457-.37371774-.09301764-.37371774-1.14969796-.74743548-.52834017-.37371775.6213578-.28402549.79251025-.3475575 1.5961826 0 .5469437-.61663428 1.34689535-.93803153 1.89755975-.1494871.25672867-.22796783.45764676-.14574992.5506644.0429717.03896084.09224915.07040972.14574992.09301763.783159.30723664 1.63135532.4134336 2.46653709.30881854.17190612-.02541698.327261-.11608568.43351258-.25300796.37371774-.63624062 1.80505669-2.47054837.74743548-2.31427874-.40847656.10701074-.80925945.24125924-1.19963395.40183618-.59047403.22324232-.9940892.3497463-.74743548-.14510751.1943347-.40569294.44603591-.78158065.74743548-1.11621161.34008314-.37207054.70258935-.59159216.96419177-.45392606.4970446.2753322 1.56961451.14882821 1.93959508-.49485381.35503185-.56554722.88197387-1.84174916 1.47992225-2.47798978z"/>
      <path fill="rgb(112,237,177)" fill-rule="evenodd" d="M33.06646906 18.84537272c.13017745-.0770617.24332308-.17958306.3326088-.30137714.1365645-.1647872.26143904-.338841.37371773-.52089875.12332686-.23068374.26907678-.52834017.20928194-.66600626-.05979484-.1376661-.34008314-.0706934-.56805097.13022468-.05356161.04841983-.10352195.10064696-.1494871.15626963-.19808895.269647-.34384678.57375839-.4297754.89669 0 .10417974.04858331.17859385.05979484.25300796.01508057.03036693.04209277.0531815.07464439.06304486.03255161.00986334.06775001.00589897.09726577-.01095498z"/>
      <path fill="rgb(112,237,177)" fill-rule="evenodd" d="M37.12504373 14.45494037c-.25603815-.93849165-.46187233-1.88984944-.61663427-2.85006031v-.16371104c-.03737178-.4836917 0-.3423049-.34382032-1.09016667-.3326088-.8259966-.97166613-.59159216-1.25569161-.1376661-.28402549.45392605-.2989742-.05208988-.40735234-.12650398-.07882072-.04633916-.17063072-.06592602-.26160242-.05581058l-.1980704.23812514c-.17938452.21952162-.3961408.49857452-.6278458.80367236-.48583307.6213578-1.00156355 1.35433676-1.34912105 1.94964962-.19840474.27760218-.33708533.59300827-.40735234.92645563 0 .4874124-.1308012 1.16086008.40735234 1.36549888.11140386.0401541.22908021.06031025.3475575.05953128.33143718-.01461551.66126852-.05441885.98661483-.11906257.20678737-.05348424.4246193-.04702972.6278458.01860353.08094927.04526537.13921095.12215556.16069864.2120802.12706403.4762503.93055717 2.16545053-.16069863 3.43421106-.0713792.08482241-.14881543.16440427-.231705.23812515-.12332686.11534186-.25786524.23440443-.3961408.353467-.42603823.37207054-.90439694.77018602-1.33417234 1.13853585-.26907678.22696303-.51573048.44276394-.72501242.63624062-.6278458.58043004-.87449951.94505916-.10090379.74414107l.10090379-.02604493c.23732062-.0645621.4876918-.0645621.72501242 0 1.0090379.32742207.92682 2.03894654 1.33417233 2.1542884.04010184.01281209.08322502.01281209.12332686 0 .19163047-.0771023.36387507-.1952367.50451895-.3460256.55639036-.64259692.8754895-1.45520752.90439693-2.30311662.0485833-1.21294995.74743548-2.60449376.84833927-1.81570422.06428841.3300418.3805824.54931763.71380089.49485381.37371774-.0781348.74743548-.58787144.48583306-1.8045421-.38492927-2.17661264.3811921-3.24445509.14574992-3.92906488z"/>
      <path fill="rgb(65,64,66)" fill-rule="evenodd" d="M81.22 34.45745246c-6.45784257 12.56482205-34.0980067 13.5061605-47.0510636 11.26629587C31.84067487 35.19415213 31.23151496 5.66663428 46.58757694 0H46.61c11.21118472-.00441276 21.72815687 5.404967 28.21195227 14.51075096l.15322428.2158009.22423064.32370137C79.0978163 20.78039403 81.19376842 27.53663242 81.22 34.45745246z"/>
      <path fill="rgb(88,89,91)" fill-rule="evenodd" d="M46.60252565 0c11.2138231-.00682712 21.73410587 5.40282224 28.21942662 14.51075096l.15322428.2158009.22423064.32370137C79.04743676 20.70585763 81.1410539 27.36270608 81.22 34.19328238H46.60252565V0z"/>
      <path fill="rgb(109,110,113)" fill-rule="evenodd" d="M80.86123097 35.11601731c-7.65747652 12.24112068-31.82954 13.05223445-46.69229457 10.60773102l12.43732642-11.53418666H81.22c-.04883476.33155549-.17140596.64807326-.35876903.92645564z"/>
      <path fill="rgb(198,62,40)" fill-rule="evenodd" d="M78.89547565 36.2099047c-7.77332901 10.41797504-32.06871936 10.83097333-43.9230461 8.78086467-1.64809524-10.15752567-2.31705-38.45349003 11.61514739-43.78526083H46.61c10.81054928-.0064438 20.95330857 5.20554447 27.21038873 13.9824108l.14574992.2083595.22049346.31625995c3.70971094 5.45359566 5.72793032 11.872305 5.80383652 18.45841936-.2514939.734283-.6213242 1.42293053-1.09499298 2.03894654z"/>
      <path fill="rgb(240,82,35)" fill-rule="evenodd" d="M46.59878847 1.20550854c10.81054928-.0064438 20.95330856 5.20554447 27.21038872 13.9824108l.14574992.2083595.22049347.31625995c3.7104095 5.45464955 5.72866095 11.87475471 5.80383652 18.46214006H46.59878847V1.20550855z"/>
      <path fill="rgb(244,153,30)" fill-rule="evenodd" d="M78.7870975 36.34385009c-7.88170715 10.27658824-32.03134758 10.68958653-43.82214231 8.64691928l11.63757046-10.81609052h33.38794298c-.10464097.59531286-.78854443 1.62594825-1.20337112 2.16917124z"/>
      <path fill="rgb(198,128,42)" fill-rule="evenodd" d="M66.99630278 34.31978636c-3.79697225 7.40048299-19.86683512 7.76139141-27.50936292 6.440541-1.00156355-6.20241585-1.40891589-23.48881302 7.10063708-26.74443022 6.60345862-.00366704 12.79920934 3.17901617 16.62296512 8.53901883.02989742.04464847.05979484.08557623.08595508.13022469l.13453839.18975597c2.3052841 3.37702934 3.54660612 7.36180597 3.56526725 11.44488973z"/>
      <path fill="rgb(244,154,31)" fill-rule="evenodd" d="M46.59505129 14.01589714c6.60345862-.00366704 12.79920934 3.17901617 16.62296512 8.53901883.02989742.04464847.05979484.08557623.08595508.13022469l.13453839.18975597c2.26617846 3.3321536 3.49941095 7.2535997 3.54658136 11.27745799H46.5950513V14.01589714z"/>
      <path fill="rgb(245,198,26)" fill-rule="evenodd" d="M66.99630278 34.31978636c-3.79697225 7.40048299-19.86683512 7.76139141-27.50936292 6.440541l7.10063708-6.60797274h20.39377713c.01121153.05581058.01121153.11162116.0149487.16743174z"/>
      <path fill="url(#radialGradient-54)" fill-rule="evenodd" d="M56.67048159 34.23048943c-1.8685887 3.65745339-9.81382788 3.83604724-13.58463989 3.1812031-.49330742-3.06214052-.69885217-11.60115936 3.50547241-13.20850408 3.26572973-.0043803 6.33072312 1.56852103 8.2217903 4.2192799l.04110896.06325199.0672692.09301763c1.13438028 1.66891852 1.7433078 3.63661947 1.74899902 5.65175146z"/>
    </g>
  </g>
</svg>
