<svg xmlns="http://www.w3.org/2000/svg" xmlns:xlink="http://www.w3.org/1999/xlink" width="107.02" height="93" viewBox="0 0 107.02 93">
  <defs>
    <rect id="rect-2" width="107.02" height="73.98" x="0" y="4"/>
    <mask id="mask-3" maskContentUnits="userSpaceOnUse" maskUnits="userSpaceOnUse">
      <rect width="107.02" height="93" x="0" y="0" fill="black"/>
      <use fill="white" xlink:href="#rect-2"/>
    </mask>
    <path id="path-59" fill-rule="evenodd" d="M51.33288574 25.6595459l9.20385742 5.2508545 11.19116211 6.3811035 11.51269532 6.5687256-24.14819336 13.77819823-10.7800293-6.1520996-10.34777832-5.90185547-10.7800293-6.15197754L51.33288574 25.6595459z"/>
    <mask id="mask-60" maskContentUnits="userSpaceOnUse" maskUnits="userSpaceOnUse">
      <rect width="107.02" height="93" x="0" y="0" fill="black"/>
      <use fill="white" xlink:href="#path-59"/>
    </mask>
  </defs>
  <g>
    <ellipse cx="50.5" cy="46.5" fill="rgb(213,227,220)" rx="46.5" ry="46.5"/>
    <use fill="none" xlink:href="#rect-2"/>
    <g mask="url(#mask-3)">
      <g opacity=".4">
        <path fill="rgb(32,162,106)" fill-rule="evenodd" d="M104.00475815 53.79403042l-.06852822.041673L47.70091518 21.7474905l1.87661905-1.07828897c1.54452074-.8803422 1.58142055-3.77140684.09488524-6.52703422-.84191884-1.56609853-2.1502115-2.83893333-3.7479667-3.64638783-.7879469-.42085109-1.73387054-.43639784-2.53554429-.041673L1.46017831 34.21292775l-.07907103.041673-.07379963.04688213c-.06741713.03978665-.13253252.08326376-.19504186.13022814-.97520934.76053232-1.34947887 2.32847908-1.00156635 4.16730038.5693114 2.58893536 2.40375923 5.26642585 4.47542015 6.55307984l57.56897942 32.8174905 41.98671559-23.96197719-.13705645-.21357414z"/>
      </g>
      <path fill="rgb(242,242,242)" fill-rule="evenodd" d="M10.61660329 31.8688213c-.8394233-1.56793636-2.14839144-2.84142689-3.7479667-3.64638784-2.63570092-1.15642586-4.36999212.89076046-3.7426953 4.16730038.58939544 2.62776418 2.16636165 4.93641213 4.41216333 6.45931559l57.49517979 32.8174905 41.91818737-23.90988594-56.3776426-32.18197718L11.6105261 34.61143627c-.15608094-.87493513-.48606542-1.81609908-.99392282-2.74261498z"/>
      <path fill="rgb(242,242,242)" fill-rule="evenodd" d="M10.61660329 31.8688213c-.8394233-1.56793636-2.14839144-2.84142689-3.7479667-3.64638784-2.63570092-1.15642586-4.36999212.89076046-3.7426953 4.16730038.58939544 2.62776418 2.16636165 4.93641213 4.41216333 6.45931559l57.49517979 32.8174905 41.91818737-23.90988594-95.5061725-10.46262749c.53953853-1.32141448.2770069-3.40802867-.82869599-5.4252052z"/>
      <path fill="rgb(240,248,255)" fill-rule="evenodd" d="M65.0332844 71.81239544L107.02 47.85041825l-.13705645-.23441065-41.84965914 23.87863118L7.60136144 38.73444867c-2.19316253-1.50259697-3.73720835-3.76249736-4.3278209-6.33429658-.33209832-1.75026616 0-3.21923954.90140971-3.92247148.67473944-.52091255 1.61832036-.56779468 2.63570092-.11460076 1.57273209.797397 2.86050665 2.05177836 3.68998128 3.59429658 1.10699438 2.0055133 1.39692149 4.16730038.74326766 5.48-.2600204.577666-.79709406.98697335-1.4285499 1.08870722-1.27567924.1823194-2.78330017-.6146768-4.0062654-2.13053232-1.20516602-1.48394673-1.84671124-3.3379287-1.81336222-5.24038023.09488523-1.19288973.61148261-1.9221673 1.4601783-2.05239543 1.4232785-.21357415 3.64253867 1.29707224 4.69154764 3.89642585.72218205 1.78152091.63783962 3.4953232-.20031327 4.16730038-.62202542.52091255-1.60777756.33859316-2.77802877-.43756654l-.15287065.21878327c1.27567924.85429658 2.37740223 1.00536122 3.09958428.42714829.93303812-.73969582 1.05428036-2.60456274.2846557-4.46942966-1.1333514-2.8025095-3.47912521-4.28190114-4.98147474-4.05790874-.5745828.083346-1.55506354.52091254-1.69211998 2.29722433-.03584764 1.96975081.63029362 3.88924828 1.88189045 5.42269962 1.28622205 1.5939924 2.872914 2.42745247 4.25929268 2.2295057.72141795-.11451812 1.3358277-.58065349 1.63413457-1.23977186.69055364-1.39604563.39535514-3.64638783-.75381046-5.73003802-.85484097-1.59192302-2.18323206-2.8864391-3.80595213-3.70889734-1.1438942-.49486692-2.19817456-.44277566-2.93617082.15106464-.97520934.76574144-1.34947887 2.32847909-1.00156635 4.16730038.60953927 2.64549104 2.20083963 4.96892592 4.45960595 6.51140684l57.56897942 32.86437263z"/>
      <g>
        <path fill="rgb(77,77,77)" fill-rule="evenodd" d="M90.72609694 44.25091255L59.77242538 61.9098479 41.88128756 51.7051711l1.28095064-.72927757 3.93246577 2.24513308 2.97834204-1.6981749.76435326.43756653-2.97834203 1.6981749 11.91336814 6.79790875 11.05412964-6.30825095-8.76634125-5.00076046-.41116934-.23441064-2.73585755-1.56273764-3.4685824 1.97946768-.76435327-.43756654 3.4685824-1.97425856-3.48966801-1.99509506.76435327-.43756654 6.98987882 3.99019012.41644075.23441064 8.76106984 5.00076046 4.76534726-2.71395437-11.15428628-6.37076046.76435327-.43235741 11.15955768 6.36555133 11.04885824-6.30825095L63.3253502 30.07688213l-11.04885824 6.30304182 9.14061078 5.2143346-.76962467.43756655L47.764172 34.68174905l.76435327-.43756654 2.98361344 1.6981749 11.04885824-6.30304182-11.91336814-6.79790875-11.04885825 6.30304183 4.3278209 2.4743346-.76435326.43235741-4.3330923-2.46912547-4.76534726 2.7191635 16.16738942 9.22536121-.76435327.43756654-3.489668-1.98988593-3.30516896 1.88570342-.76435326-.43756654 3.30516895-1.88570342-11.91336815-6.79790874-11.05412964 6.30825095 11.91863955 6.79269962 2.96779923-1.69296578.76962466.43756654-2.97307063 1.69296578 3.77959511 2.15657794-1.27567924.72927757L19.69395725 39.0469962 50.6476288 21.3828517l40.07846813 22.86806084z"/>
        <path fill="rgb(255,255,255)" fill-rule="evenodd" d="M67.69007093 55.94019011l1.27567924.72927757-4.68100482 2.66707224-1.27567925-.72406844 4.68100483-2.67228137z"/>
        <path fill="rgb(77,77,77)" fill-rule="evenodd" d="M63.0090332 58.61242676l4.68103028-2.67224121 1.27563476.72924804-4.68103027 2.66711426-1.27563477-.7241211zm5.57189942-1.93249512l-.89086914-.52087402v-.00524903L63.3885498 58.6072998l.89611817.52087403 4.29626465-2.44824219z"/>
        <path fill="rgb(255,255,255)" fill-rule="evenodd" d="M84.99081174 46.06889734l1.27567925.72927756-4.68100483 2.66707225-1.27567924-.72406844 4.68100482-2.67228137z"/>
        <path fill="rgb(77,77,77)" fill-rule="evenodd" d="M80.30981445 48.74108887l4.68103028-2.67224121 1.27563476.72924804-4.68103027 2.66711426-1.27563477-.7241211zm5.57177735-1.93249512l-.89086914-.52087402-4.29614258 2.4534912.89086914.52087403 4.29614258-2.45349121z"/>
        <path fill="rgb(255,255,255)" fill-rule="evenodd" d="M24.58581815 41.83387833l1.27567924-.72406844 4.68100483 2.66707224-1.27567925.72927757-4.68100482-2.67228137z"/>
        <path fill="rgb(77,77,77)" fill-rule="evenodd" d="M24.58581543 41.83398438l1.28100586-.7241211 4.67565918 2.66711426-1.27563477.72924805-4.68103027-2.67224121zm5.57714844 1.94287109l-4.29626465-2.44824219v-.00524902l-.89611817.52087402 4.29614258 2.45349121.89624024-.52087402z"/>
        <path fill="rgb(255,255,255)" fill-rule="evenodd" d="M50.19955965 56.45068441l1.28095064-.72927757 4.67573343 2.67228137-1.27567924.72406844-4.68100483-2.66707224z"/>
        <path fill="rgb(77,77,77)" fill-rule="evenodd" d="M50.19958496 56.4506836l1.28100586-.72924805 4.67565918 2.6722412-1.27563477.7241211-4.68103027-2.66711426zm4.68103027 2.46398925l.89611817-.52087402-4.29455567-2.45263672-.87670898.50964355 4.27514648 2.4638672z"/>
        <path fill="rgb(255,255,255)" fill-rule="evenodd" d="M54.26381046 24.90422053l1.27567925-.72927756 4.68100482 2.67228136-1.27567924.72927757-4.68100483-2.67228137z"/>
        <path fill="rgb(77,77,77)" fill-rule="evenodd" d="M54.26379395 24.9041748l1.27563476-.72924804 4.68103027 2.6722412-1.27563476.72937013-4.68103027-2.67236329zm5.5772705 1.94299317l-4.30151367-2.45349121-.89086914.52087402 4.29614258 2.45349121.89624023-.52087402z"/>
        <path fill="rgb(255,255,255)" fill-rule="evenodd" d="M69.84607428 33.79619772l1.28095064-.72927757 9.14588218 5.21954373-1.27567924.72927756-9.15115358-5.21954372z"/>
        <path fill="rgb(77,77,77)" fill-rule="evenodd" d="M69.84606934 33.79614258l1.27563476-.72924805 9.15124512 5.20910645-1.27575684.72924804-9.15112304-5.20910644zm10.04199218 4.49023437l-8.76635742-5.00073242-.89086914.52087402 8.76635742 5.0008545.89086914-.5209961z"/>
        <path fill="rgb(255,255,255)" fill-rule="evenodd" d="M46.18802285 23.93011407l1.27567925.72927756-4.68100483 2.66707225-1.27567924-.72406844 4.68100482-2.67228137z"/>
        <path fill="rgb(77,77,77)" fill-rule="evenodd" d="M46.16699219 23.93005371l.01049804.00598145-4.67053222 2.66638183 1.27563476.7241211 4.65991211-2.66711426-1.26513672-.7232666.0107422-.00610352h-.02111817zm.02111816.21887207l.89086914.52087402-4.29626465 2.4482422-.89611816-.52087403 4.30151367-2.45349121v.00524902z"/>
        <path fill="rgb(255,255,255)" fill-rule="evenodd" d="M28.88728204 33.80140684l1.27567924.72927757-4.68100482 2.66707224-1.27567925-.72406844 4.68100483-2.67228137z"/>
        <path fill="rgb(77,77,77)" fill-rule="evenodd" d="M24.20629883 36.47363281l4.68103027-2.6722412 1.27563477.72924804-4.68103028 2.66711426-1.27563476-.7241211zm5.57189941-1.93249511l-.89086914-.52087403v-.00524902l-4.30151367 2.4534912.89611816.52087403 4.29626465-2.44824218z"/>
        <path fill="rgb(255,255,255)" fill-rule="evenodd" d="M75.18600433 50.20494297l1.27567925.72927756-4.97620333 2.83897339-1.27567925-.72927757 4.97620333-2.83897338z"/>
        <path fill="rgb(77,77,77)" fill-rule="evenodd" d="M70.20983887 53.04394531l4.97619629-2.83898926 1.27563476.72924805-4.97619629 2.83898926-1.27563476-.72924805zm5.87231445-2.09936523l-.89611816-.52087403-4.59143067 2.60461426.89086914.52087403 4.59667969-2.60461426z"/>
        <path fill="rgb(255,255,255)" fill-rule="evenodd" d="M74.10009556 49.58505703l1.28095064.72927757-4.98147473 2.83897338-1.27567924-.72927756 4.97620333-2.83897339z"/>
        <path fill="rgb(77,77,77)" fill-rule="evenodd" d="M69.12390137 52.44494629l4.97619629-2.85986328 1.28100586.72924804-4.98156739 2.85986329-1.27563476-.72924805zm5.87231445-2.12023926l-.89611816-.52087402-4.59143067 2.60461426.89086914.52087402 4.59667969-2.60461426z"/>
        <path fill="rgb(255,255,255)" fill-rule="evenodd" d="M73.01945818 48.9651711l1.27567924.72927757-4.98147473 2.83897338-1.27567924-.72406844 4.98147473-2.8441825z"/>
        <path fill="rgb(77,77,77)" fill-rule="evenodd" d="M68.03796387 51.80944824l4.98144531-2.84423828 1.27575684.72924805-4.98156739 2.83898926-1.27563476-.72399903zm5.87243652-2.10461426l-.89086914-.52087402-4.59667969 2.60461426.89086914.52087402 4.5966797-2.60461426z"/>
        <path fill="rgb(255,255,255)" fill-rule="evenodd" d="M71.9335494 48.3504943l1.27567925.72406844-4.97620333 2.8441825-1.27567925-.72927756 4.97620333-2.83897338z"/>
        <path fill="rgb(77,77,77)" fill-rule="evenodd" d="M68.2277832 51.91882324l-1.28100586-.72924804 4.98413086-2.83752442 1.2730713.72253418-4.9761963 2.84423828zm3.70043946-3.56835937l.00268554.00146484.00256348-.00146484h-.00524902zm.00537109.21362304l.89086914.52087403-4.59143066 2.60461426-.89611817-.52087403 4.59667969-2.60461426z"/>
        <path fill="rgb(255,255,255)" fill-rule="evenodd" d="M70.84764063 47.73060837l1.27567924.72406844-4.97620333 2.8441825-1.27567924-.72927756 4.97620333-2.83897338z"/>
        <path fill="rgb(77,77,77)" fill-rule="evenodd" d="M65.89257813 50.56958008l4.95507812-2.83898926v.02600098l1.29675293.69812011-4.97619629 2.84411621-1.27563476-.72924804zm5.85119628-2.09936524l-.89611816-.52087402-4.59667969 2.60461426.89611817.52087402 4.59667968-2.60461426z"/>
        <path fill="rgb(255,255,255)" fill-rule="evenodd" d="M69.76173185 47.11072243L71.03741109 47.84l-4.97620333 2.83897338-1.27567924-.72927756 4.97620333-2.83897339z"/>
        <path fill="rgb(77,77,77)" fill-rule="evenodd" d="M64.78552246 49.94970703l4.97619629-2.83898926 1.27563477.72924805-4.9761963 2.83898926-1.27563476-.72924805zm5.87231445-2.09936523l-.89611816-.52087403-4.59667969 2.60461426.89611817.52087402 4.59667968-2.60461425z"/>
        <path fill="rgb(255,255,255)" fill-rule="evenodd" d="M68.67582307 46.4908365l1.28095065.72927757-4.98147473 2.83897338-1.27567925-.72927756 4.97620333-2.83897339z"/>
        <path fill="rgb(77,77,77)" fill-rule="evenodd" d="M63.69958496 49.319458l4.97619629-2.82336425v.01037598l1.27563477.72937011-4.9761963 2.81286621-1.27563476-.72924804zm5.87243652-2.08374023l-.89611816-.52087402-4.59143066 2.60461426.89086914.52087402 4.59667968-2.60461426z"/>
        <path fill="rgb(255,255,255)" fill-rule="evenodd" d="M67.5899143 45.87095057l1.28095064.72927757-4.98147473 2.83897338-1.27567925-.72927757 4.97620333-2.83897338z"/>
        <path fill="rgb(77,77,77)" fill-rule="evenodd" d="M62.61376953 48.70996094l4.98144531-2.83898926 1.27575684.72924805-4.98156738 2.83898925-1.27563477-.72924804zm5.87231445-2.09936524l-.89086914-.52087402-4.59667968 2.60461426.89086914.52087402 4.59667968-2.60461426z"/>
        <path fill="rgb(77,77,77)" fill-rule="evenodd" d="M65.0069274 44.51657795l.38481233.21878327 4.67046202-2.66186312-.38481233-.21878327-4.67046202 2.66186312z"/>
        <path fill="rgb(77,77,77)" fill-rule="evenodd" d="M60.53150724 41.96410646l.12651364.07292776c2.50391588-1.42730038 6.5787095-1.42730038 9.08262536 0l.12651365-.07292776c-2.5724441-1.46897338-6.76320856-1.46897338-9.33565265 0z"/>
        <path fill="rgb(77,77,77)" fill-rule="evenodd" d="M49.88327554 51.63224335l4.67046202 2.66186311.37954093-.21878327-4.66519062-2.66186311-.38481233.21878327z"/>
        <path fill="rgb(77,77,77)" fill-rule="evenodd" d="M54.61699438 54.11178707l.12651365.07292776c2.5724441-1.46897339 2.5724441-3.85996198 0-5.32893536l-.12651365.07292775c2.50391588 1.43250951 2.50391588 3.75577947 0 5.18307985z"/>
        <path fill="rgb(77,77,77)" fill-rule="evenodd" d="M37.62726628 39.38558935l4.67046202 2.66186312.38481234-.21878327-4.67046203-2.66186312-.38481233.21878327z"/>
        <path fill="rgb(77,77,77)" fill-rule="evenodd" d="M37.82230815 44.6311787l.12651364-.07292775c-2.50391587-1.4325095-2.50391587-3.75577947 0-5.20912547l-.12651364-.07292776c-2.5777155 1.46897338-2.5777155 3.85996198 0 5.35498099z"/>
        <path fill="rgb(77,77,77)" fill-rule="evenodd" d="M42.93556792 51.05923954l.38481234.21878327 4.67046202-2.66186311-.38481233-.21878327-4.67046203 2.66186311z"/>
        <path fill="rgb(77,77,77)" fill-rule="evenodd" d="M38.48123338 48.50676806l.12651364.07292776c2.50391587-1.4325095 6.57870949-1.4325095 9.08262536 0l.12651364-.07292776c-2.5935297-1.46897338-6.78429416-1.46897338-9.33565264 0z"/>
        <path fill="rgb(77,77,77)" fill-rule="evenodd" d="M47.58494434 34.56714829l.38481233.21878327 4.66519063-2.66707224-.37954094-.21878327-4.67046202 2.66707224z"/>
        <path fill="rgb(77,77,77)" fill-rule="evenodd" d="M43.10425278 32.00946768l.13178505.07292776c2.50391587-1.42730038 6.57870949-1.42730038 9.08262536 0l.12651364-.07292776c-2.5724441-1.44292776-6.76320855-1.44292776-9.34092405 0z"/>
        <path fill="rgb(77,77,77)" fill-rule="evenodd" d="M72.37634277 38.79699707c-.6895752-.34362793-1.5032959-.34362793-2.19287109 0-.26953125.09228516-.45031738.34313965-.45031738.62512207 0 .28186035.18078613.53271484.45031738.625.6895752.34362793 1.5032959.34362793 2.1928711 0 .26953124-.09228516.45031738-.34313965.45031738-.625 0-.28198242-.18078614-.53283691-.45031739-.62512207zm-2.46618652.62512207c0-.24963379.16064453-.47155762.39978027-.55212402.60864258-.30200196 1.32592774-.30200196 1.93457032 0 .23901367.0805664.39978027.30249023.39978027.55212402 0 .24963379-.1607666.47155762-.39978027.55212402-.60681153.30957032-1.3277588.30957032-1.93457032 0-.23913574-.0805664-.39978027-.30249023-.39978027-.55212402z"/>
        <path fill="rgb(77,77,77)" fill-rule="evenodd" d="M61.02172852 53.55444336c-.6895752-.34362793-1.5032959-.34362793-2.1928711 0-.26953125.09228516-.45031738.34313965-.45031738.62512207 0 .28186035.18078613.53271484.45031738.625.6895752.34362793 1.5032959.34362793 2.1928711 0 .26953125-.09228516.45031738-.34313965.45031738-.625 0-.28198242-.18078613-.53283691-.45031738-.62512207zm-2.46606446.62512207c0-.24963379.16064453-.47155762.39978028-.55212402.60864257-.30200196 1.32592773-.30200196 1.9345703 0 .23901368.0805664.39978028.30249023.39978028.55212402 0 .24963379-.1607666.47155762-.39978027.55212402-.60681152.30957032-1.3277588.30957032-1.93457031 0-.23913575-.0805664-.39978028-.30249023-.39978028-.55212402z"/>
        <path fill="rgb(77,77,77)" fill-rule="evenodd" d="M53.48364258 28.0192871c-.6895752-.34362792-1.5032959-.34362792-2.1928711 0-.26953125.09228517-.45031738.34313966-.45031738.62512208 0 .28186035.18078613.53271484.45031738.625.6895752.34362793 1.5032959.34362793 2.1928711 0 .26953125-.09228516.45031738-.34313965.45031738-.625 0-.28198242-.18078613-.53283691-.45031738-.62512207zm-2.46618653.62512208c0-.24963379.16064454-.47155762.39978028-.5522461.61047363-.30200195 1.3293457-.30200195 1.93981933 0 .23913575.08068848.39978028.30261231.39978028.5522461 0 .24963379-.16064453.47155762-.39978028.55212402-.6081543.31140137-1.33166503.31140137-1.93981933 0-.23913574-.0805664-.39978028-.30249023-.39978028-.55212402z"/>
        <path fill="rgb(77,77,77)" fill-rule="evenodd" d="M48.7130127 45.3552246c-.6895752-.34362792-1.5032959-.34362792-2.1928711 0-.26953125.09228517-.45031738.34313966-.45031738.62512208 0 .28186035.18078613.53271484.45031738.625.6895752.34362793 1.5032959.34362793 2.1928711 0 .26953125-.09228516.45031738-.34313965.45031738-.625 0-.28198242-.18078613-.53283691-.45031738-.62512207zm-2.46618653.62512208c0-.24963379.16064453-.47155762.39978028-.5522461.61047363-.30200195 1.3293457-.30200195 1.93981933 0 .23913574.08068848.39978027.30261231.39978027.5522461 0 .24963379-.16064453.47155762-.39978027.55212402-.6081543.31140137-1.33166504.31140137-1.93981933 0-.23913575-.0805664-.39978028-.30249023-.39978028-.55212402z"/>
        <path fill="rgb(77,77,77)" fill-rule="evenodd" d="M49.73571777 37.27075195c-.6895752-.34362793-1.5032959-.34362793-2.19287109 0-.26953125.09228516-.45031738.34313965-.45031738.62512207 0 .28186035.18078613.53271485.45031738.625.6895752.34362793 1.5032959.34362793 2.1928711 0 .26953124-.09228515.45031738-.34313965.45031738-.625 0-.28198242-.18078614-.53283691-.45031739-.62512207zm-2.46618652.625c0-.24963379.16064453-.47155761.39978027-.55212402v-.00524902c.60949707-.30029297 1.32678223-.29833985 1.93457032.00524902.23901367.0805664.39978027.30249023.39978027.55212402 0 .2496338-.1607666.47155762-.39978027.5522461-.60681153.3095703-1.3277588.3095703-1.93457032 0-.23913574-.08068848-.39978027-.3026123-.39978027-.5522461z"/>
        <path fill="rgb(77,77,77)" fill-rule="evenodd" d="M33.515625 38.234375c-.68786621-.34350586-1.49987793-.34350586-2.18762207 0-.26953125.09228516-.45031738.34326172-.45031738.62512207s.18078613.53283691.45031738.62512207c.68774414.34350586 1.49975586.34350586 2.18762207 0 .26953125-.09228516.45019531-.34326172.45019531-.62512207s-.18066406-.53283691-.45019531-.62512207zm-2.4609375.62512207c0-.24963379.16064453-.47155762.39978027-.55212402.60864258-.30200196 1.32592774-.30200196 1.93457032 0 .23901367.0805664.39978027.30249023.39978027.55212402 0 .24963379-.1607666.47155762-.39978027.55212402-.60864258.30200196-1.32592774.30200196-1.93457032 0-.23913574-.0805664-.39978027-.30249023-.39978027-.55212402z"/>
      </g>
      <path fill="rgb(255,255,255)" fill-rule="evenodd" d="M4.18549305 28.14429658L46.26709388 4.2865019c.80105947-.39739464 1.74830116-.38182623 2.53554428.041673 1.5995755.80495998 2.90854353 2.07845186 3.7479667 3.64638784 1.51289233 2.75562737 1.44963551 5.64669201-.09488523 6.52703422L10.59551768 38.5156654c3.66362428-3.19319392-2.3141454-11.78304183-6.41002463-10.37136882z"/>
      <path fill="rgb(255,255,255)" fill-rule="evenodd" d="M50.6476288 22.84140684L22.24531574 39.0469962l37.52710965 21.4095057 28.40231307-16.20558935-37.52710964-21.4095057z"/>
      <g>
        <use fill="none" xlink:href="#path-59"/>
        <g mask="url(#mask-60)">
          <path fill="rgb(69,196,138)" fill-rule="evenodd" d="M34.92303714 35.20787072l2.74112895-.72406844 1.744834 3.0265019c-.55316178-.14209214-1.08490253-.3557787-1.58142054-.6355133l-2.90454241-1.66692016"/>
          <path fill="rgb(69,196,138)" fill-rule="evenodd" d="M56.63594129 53.67422053l2.96779923-1.69296578 2.11910353 1.21372624-2.96779923 1.69296578"/>
          <path fill="rgb(69,196,138)" fill-rule="evenodd" d="M62.80875283 47.57954373l4.74953305-1.81277567 1.07009458 2.75562738-3.02051325.66155893"/>
          <path fill="rgb(69,196,138)" fill-rule="evenodd" d="M75.87128657 39.40642586l2.5777155.15627376-1.03319476 2.698327-2.72004335-.08855514"/>
          <path fill="rgb(69,196,138)" fill-rule="evenodd" d="M59.33489902 38.61463878v.03125476l4.17495026-1.27623575L65.61841 39.453308l-2.49337307 2.29722433-1.64467737-.05730038c-1.05155558-.03674599-2.10360127.05776463-3.13121269.28129277l.95412373-3.38593155"/>
          <path fill="rgb(69,196,138)" fill-rule="evenodd" d="M50.71615703 32.92627376l4.8707753 1.60441065-.2846557 1.82840304-6.93716482-.44798479"/>
          <path fill="rgb(69,196,138)" fill-rule="evenodd" d="M55.46041868 25.28969582L58.64961678 27.29l-1.90824746 1.46897338-2.20871736-1.09912547"/>
          <path fill="rgb(69,196,138)" fill-rule="evenodd" d="M65.00158691 33.30651855c-.65063476-1.0895996-1.55407714-2.01086425-2.63562011-2.6878662l-3.96398926 1.94824218 5.64025879 1.26062012.95935058-.5209961z"/>
          <path fill="rgb(69,196,138)" fill-rule="evenodd" d="M67.6215427 42.86528517l.65892523-.37505703 7.01623584.22920152-1.54452073 1.56273764c-.19207123.2051945-.41418018.38078247-.65892523.52091255-.3329999.18458414-.68687187.32970605-1.05428037.43235741L67.6109999 42.8704943"/>
          <path fill="rgb(69,196,138)" fill-rule="evenodd" d="M56.72028372 46.83463878l2.8781854.01041825 4.6124766 2.64623575-3.55819624.78657794-2.3141454 1.31790875"/>
          <path fill="rgb(69,196,138)" fill-rule="evenodd" d="M45.1495567 47.34513308l5.02891734-2.86501901 3.55292484.05209125-5.30303025 4.3339924"/>
          <path fill="rgb(69,196,138)" fill-rule="evenodd" d="M40.8428214 41.6046768l1.63940597.36984791.026357-.01562737 7.437948-5.35498099-.01581421-.00520913 2.3246882.15106464-10.43210422 9.16806084-.0158142.00520913-3.4158684.98973384"/>
          <path fill="rgb(255,255,255)" fill-rule="evenodd" d="M51.42248535 26.24291992l.05273438-.03125-.00524903.01049805 2.6357422 1.30749512.92773437-2.36499024h.18444824l.16345215.09899903-.95935059 2.4378662 2.26135254 1.1303711-.22143555.171875-5.10266113-2.57324219.06323242-.18762207zm9.34094238.3178711l.21618653-.16674805.06848144.00524902 3.29992676 2.67749024 1.38110352-1.22937012.31103515.11462402-2.8413086 2.42224121-.23730468-.16149902 1.12280274-1.0053711-3.32092286-2.6566162zM43.61035156 28.6652832l2.10852051 1.19799805.2635498-.15100098-2.1085205-1.19812011-.2635498.15112304zm12.89648438 1.2520752l.00256347-.00195313h-.00524902l.00268555.00195313zm0 0l-.2241211.16992187 2.05053711 1.48461914.27941895-.13537597-2.10583496-1.51916504zm-10.17126465.31066894l1.78173828 1.04174805-5.58239746 3.16711426c.04821777.06774902.10107422.13220215.15808105.19274902l2.95202637-1.68774414 2.77282715 1.59399414h.02636719l.147583-.1875-2.68322753-1.56274414 2.72009277-1.56274414-2.02954102-1.1459961-.2635498.15112305zm-3.90075684 1.5209961c.08532715-.0513916.17321778-.09838867.2635498-.14074707l-2.10864257-1.20324707-.24780273.13928222-.01574707-.0090332-.00524903.02087402.0209961-.01184082 2.0928955 1.20471192zm20.95898438 5.34985351l-3.9798584 1.21374512-.0579834.19787598.04748535.046875 4.16967774-1.2709961 2.18762207 2.1826172-2.47229004 2.2816162h.40063476l5.21337891-4.8079834 3.03637695.5625-1.59729004 4.52160645h.37426758l1.5814209-4.41223145v-.02600097l2.70947266.52087402.0895996-.203125-6.04101562-1.14074707 1.42858887-3.78186035-1.75012207-1.0053711-.2635498.15112305 1.5814209.92199707-1.38110352 3.76611328-2.68310547 2.48474121-3.64782715-3.6463623-.24780273.1459961 1.30200195 1.29699706zm-12.48266602-4.4173584l-.15283203.19274903 4.81811524 1.56274414v-.03125l.0316162-.19799805-4.74426269-1.56274414.04736328.03649902zm7.10058594.09362793v.02087403l2.21398926.48962402-1.18603516 3.3182373h.13171387l.30578613-.171875 1.0543213-3.07861328 3.10485839.69274903.24243164-.140625-5.60876465-1.2553711-.25830078.125zm-23.16247559 2.40148926l-.24780273-.140625v-.02539062l6.69470215-1.76135254.0316162.03649902v.19274902l-3.26306151.85949708 1.88720703 3.28173828h-.08959961l-.33740235-.078125-1.80273437-3.12548828-2.8729248.76049804zm42.52966309.74487305l.0789795-.19274902-.03161622-.02087403.06323242-.03125 3.02050782 1.73461914.76965332 2.08361817 4.2487793 2.44311523-.26354981.15112305-4.24353028-2.43786621-2.0769043-.12512207-1.05432128 2.71923828h-.37426758l1.05432129-2.75048828-2.67260742-.16662598.08435058-.20837402 4.89709473.30212402-.69580078-1.89086914-2.80432129-1.60961914zm-15.28723145-.1196289l-.02624511.01538085v-.04162597l.02624511.02624511zm-23.3363037 5.27148437l.2055664-.1875.02111816-.015625 3.37365723.76574707 7.07421875-5.05285645h.34265137l.06335449.03125-7.38000488 5.29248047-1.67626953-.37512207-2.50390625 5.41760254-.44812012.13012695 2.60412598-5.63098144-1.6763916-.37512207zM27.37438964 37.953125l.19506836-.17712402.01574707-.01037598 3.1628418 1.13549805 5.45593261-2.13049317.2635498.15112305-5.4189453 2.13049316 5.61401367 2.98999024-.08435059.078125h-.26879883l-3.91662597-2.08361817h-.03173829c-.60583496.14624024-1.18920898.37219239-1.73425293.67199707-.76965332.44799805-1.46020507 1.1147461-1.34423828 2.08361817l-.36889648.03125c-.15820313-1.04699707.59033203-1.77111817 1.42321777-2.24511719.53625489-.29345703 1.1060791-.52246094 1.6973877-.68237305h.0579834l-1.44958496-.77099609-3.26831055-1.17199707zm22.70922851 1.63562012l.42687989-.375h.01062011l7.6381836.33337402-.0579834.21362305-7.62768555-.33862305v.03125l-.10009765 2.24511719 7.36938476-.61462403-.0579834.20837403-3.31567382.28649902-.10546875 2.53674317-.4428711.36474609-3.6583252-.05737305-5.0657959 2.89111328-.28991698-.13549804 5.0657959-2.90148926.2109375-4.68823242zm3.7689209 4.67773437l-3.60559082-.05200195.10546875-2.29724121 3.61083985-.30737305-.11071778 2.65661621zm13.43701172-1.19812012l4.36462402 2.33374024h-.07373046c-.55212403.10424805-1.1151123.14099121-1.6763916.109375l-2.20336915-.11975098-5.22924804 1.98986817.26879883.15625 4.88659667-1.86486817 1.09118653 2.82861328.34790039-.07824707-1.06481934-2.80249023 1.88195801.10424805c1.23046875.08776855 2.46118164-.16662598 3.55285645-.73449707.27331543-.15209961.52355957-.34143067.74328613-.56262207l.47973633-.48962403 4.21704101 1.82312012.22668457-.16662598-4.24865722-1.84399414.98571777-1.01062012h-.40063477l-1.5814209 1.60437012c-.20031738.20495606-.42932128.3803711-.6800537.5209961-.34631348.19519043-.71655274.34570312-1.10168458.44799804h-.0316162l-4.47546387-2.3909912-.2635498.15100097-.01574708-.00524902zm-17.56970215 7.43347168l.1159668.203125 7.29040527-1.27612304.80114746 2.36486816h.0579834l.25305176-.14587402-1.62878418-4.8079834h-.37963867l.80651855 2.38061523-7.31665039 1.28137207zm-12.335083-2.39086914l.04211425-.04174804.31628418-.09375 5.7142334 1.80761718-2.79382324-2.65148925.33740234-.09375 3.06262207 2.90673828 3.86401367-.62512207.20556641.07287597.04736328.08337403-3.90075683.65637207 3.35791015 3.19836426-.27416992.15625-3.5423584-3.33898926-6.43640136-2.03674317zm14.53857421 8.2512207v.046875l4.18017579.38024903 2.6673584-1.5209961 1.7080078.97924805.26354981-.15100097-1.70275879-.97937012 3.1998291-1.82312012 4.84960938-.66687011-.08435059-.203125-4.8022461.65112304-2.24023437-1.2866211-.26367187.15112306 2.18237305 1.25537109-3.1048584 1.77111816L56.59375 53.71069336l-.2635498.15112305 2.18237304 1.25537109-2.53027344 1.44299316-3.79541015-.34387207-.25305176.14587403h-.01049805z"/>
          <path fill="rgb(165,183,198)" fill-rule="evenodd" d="M51.42248535 26.227417l.04211426-.11462403v.04162598l2.58300781 1.28674316.89086914-2.30249024h.10021973l-.92785645 2.36499024-2.63562011-1.30749512-.05273438.03125zm3.9798584-.96899415l-.95935059 2.43786621 2.26147461 1.1303711.0579834-.046875-2.20874023-1.0991211.92773437-2.37011719-.07910156-.05212402zm5.73242188 1.12329102l-.0234375-.0189209.0579834-.01037598-.03442383.0291748 3.21838378 2.58569337 1.35473633-1.2084961.4744873.171875-2.85180663 2.54724121-.07385254-.05200195 2.83081054-2.48474121-.31103515-.11462402-1.38110352 1.22937011-3.29992676-2.64111328.03918458-.03308105zm-9.7755127.03320312v.078125l5.04467773 2.51086426.0579834-.04174805-5.10266113-2.5472412zm9.49902344.17700196l-.06323242.046875 3.26831054 2.60461425-1.05432129.95324707.06848145.046875 1.12280273-1.00537109-3.32092285-2.65661621-.02111816.01037598zm-15.22375489 3.32348632l-2.16125488-1.23974609v-.015625l.39538574-.22924805 2.16650391 1.26062012-.06848145.03649902-2.10864257-1.19812011-.2635498.15100097 2.10864257 1.19812012-.06860352.03649902zm10.87487793 0l.06323243-.05212402.01062011-.02600098 2.10852051 1.56274414-.07385254.03649903-2.1085205-1.52111817zm-10.58496093 2.9013672l2.72009277-1.56274415-2.0192871-1.16210937-.02075196.01098632-.00524903-.02600097.02600098.01489258.0477295-.02539063 2.1085205 1.21374512-2.71472168 1.56274414 2.58300781 1.48461914-.04223632.05200195-2.68310547-1.56274414zm10.35827636-2.7294922l-.0579834.046875 2.02954102 1.47424317.0789795-.03649903-2.05053712-1.48461914zm-10.01037597.20324707l1.6973877.96362305-5.48754884 3.12548828c.01049805.01855469.02282715.03601074.03686524.05212403l5.58239746-3.18273926-1.78173828-1.04187012-.06848145.03649902.02111817.046875zm-6.08312989.24475098l2.18762207 1.2553711.06323243-.04174805-2.10852051-1.21362305.26879883-.15112305 2.09802246 1.2241211.06323242-.04162598-2.17175293-1.26062012-.40063477.22924805zm28.52355957 1.4272461l1.75012208 1.00537109-1.4074707 3.79748535 6.05151366 1.12512207v-.05725098l-5.95666504-1.10437011 1.41809083-3.76611329L68.78125 31.92089844l-.06848145.04162597zm-2.75170898 7.29284667l-3.64782715-3.6463623.08959961.015625.06848145-.03649902 3.5793457 3.57861328 2.58825684-2.39099121 1.40222168-3.7088623-1.5814209-.90112306.06848144-.03649902 1.5814209.92199707-1.43908691 3.76623535-2.70947266 2.43786621zm-2.04003906-5.34448242l-5.65100098-1.26062012.03686524-.02612304.0895996-.04162598 5.64050293 1.26062012-.1159668.06774902zm-12.9729004-1.22949219l.04211427-.05200195.01062011-.00524902 4.69152832 1.56274414v.05725098l-4.7442627-1.56274415zm6.95825196.140625l2.21398926.49487305-1.1385498 3.27648926h.0579834l1.15966796-3.31811524-2.21398926-.48974609v-.04162598l-.14233398.07287598.06323242.00524902zm-7.1217041.02612305l-.04211426.05212402 4.87072754 1.60437012v-.06774902l-4.81799316-1.56274414-.01062012-.02600098zm-8.02294922 1.84411621l2.90979004-1.6566162 2.73583984 1.56274413.0579834-.07287597h-.02636719l-2.77270507-1.59399415-2.96118164 1.70471192-.00671387-.0065918v.01037598l.00671387-.00378418.05664062.05603027zm-8.265625.28125l.10546875.0625v-.02612304l6.73156738-1.77111817.03161621.03649902v-.109375l-6.8527832 1.81274415-.01586914-.00512696zm26.08105469-1.60412597l-.02453614-.00549317h.0263672l-.00195313.0053711zm-.00012207-.00012207l3.08044433.68737792-.07910156.046875-2.95727539-.66162109-.9699707 2.9276123-.12646485.07287598 1.05249024-3.07299804zm-20.625 4.22961425l-1.88720703-3.28173828 3.27880859-.8959961v.0625l-3.1628418.82824708 1.89245606 3.2869873h-.12121582zm-2.2878418-3.11499023l-2.74108887.72399902-.0612793-.03466797 2.86035157-.75708007 1.80285644 3.12548828-.1159668-.03125-1.74487304-3.02648926zm-2.80236816.68933105l-.01257325.0032959v-.01037597l.01257325.00708007zm42.65075683.43798828l-.02294922-.0126953.0263672.00524902-.00341798.00744628zm-.04406738.09680176l.06323242-.03125 3.00476074 1.72937012.76953125 2.08374023 4.2487793 2.44299317-.2635498.15112304-4.24353028-2.4378662-2.0769043-.125-1.05419921 2.7191162h.10009765l1.0543213-2.6878662 1.9609375.11975097 4.28564452 2.46398926.40063477-.23449707-4.29089356-2.46386719-.77490234-2.08361816-3.13989258-1.74279785-.04406738.09667968zm-15.41357422.11450196l1.26513672 1.26586914-3.82177734 1.16674804v.06774903l3.9798584-1.21374512-1.41271973-1.3334961-.07373047.03649903.06323242.01037598zm15.30810547.09375v.0625l2.74108887 1.56274414.67480468 1.83361816-4.7442627-.29174805-.02636718.05737305 4.89709473.30212402-.71154785-1.93261718-2.80444336-1.60961914-.0263672.015625zM38.9609375 40.88586426l.04748535-.046875 3.29455567.74487304 6.96887207-5.00598144h.1159668l-7.05322266 5.07373047-3.37365723-.76574707zm-.68530273 6.06335449l2.50390625-5.41748047v.02075195l1.67626953.37512207 7.38000488-5.29248046-.06323242-.03125h.17919922l-7.4696045 5.37060546-1.6394043-.36987304-2.45117187 5.30810547-.1159668.03649902zm-11.03833008-8.97521973l.30041504-.27612304h.00537109l3.20495606 1.14599609 5.36108398-2.08886719.06848144.04162598-5.45593261 2.14099121-3.1628418-1.13562012-.19506836.17712403 3.26831055 1.17211914 1.44958496.77087402h-.0579834c-.59118652.15991211-1.16101074.38903809-1.6973877.68237305-.83288574.4741211-1.56030273 1.20336914-1.42321777 2.24523926h-.09484863c-.12658691-1.07312012.60095215-1.8076172 1.45483398-2.29724122.52148438-.28710937 1.07519532-.5126953 1.65002442-.67199707l-1.33898926-.71362304-3.29467773-1.1928711h-.04211426zm36.47290039 3.79736328l5.2133789-4.8079834.00524903-.046875 3.03637695.56262208-1.61828613 4.4954834h-.10021973l1.5814209-4.4486084-2.87817383-.5209961-5.16589355 4.76635742h-.07385254zm-27.04760742.25524903l-5.61401368-2.97436524 5.41894532-2.12011718.07385254.04162597-5.33996582 2.08374024 5.51391601 2.9222412-.05273437.046875zm22.67749023-3.38586426v-.125l.0369873.03637695 4.16967774-1.27099609 2.18762207 2.18261719-2.47229004 2.2816162h-.13183594l2.4934082-2.2972412-2.1085205-2.08361817-4.17504883 1.27624512zm12.97302246-1.0209961v-.02612304l.02636719-.02600098 2.70947266.52087403v.05737304l-2.6357422-.48449707-1.5814209 4.3704834h-.10009765l1.5814209-4.41210937zm-21.73400879 1.53137208l-.0579834.05725097 7.63830567.33337403v-.05200196l-7.55395508-.33337402-.02636719-.00524902zm25.32910157.25524902v-.05725098l2.67785644.16149903-1.05432129 2.7503662h-.10009765l1.05432128-2.69824218-2.57775878-.15637207zm-25.43457032.046875v-.03125l7.59082032.33337402v.05212403l-7.51171875-.32824707-.10534668 2.15136718 7.27453613-.61987304v.06774902l-7.34838867.61987305.10009765-2.24511719zm-.69042968 4.79248047l.21081542-4.5736084.09985352-.08312988-.21057129 4.68286133-5.0974121 2.9066162-.07910157-.03649902 5.07641602-2.89624023zm-20.50061036-1.42736816c-.1159668-.97924805.57458496-1.6459961 1.34423828-2.08361817v.02087402c.54504395-.29980468 1.1282959-.52575683 1.73425293-.67199707h.03161622l3.91662597 2.08361817h-.1159668l-3.81640624-2.02636719c-.58618165.14086914-1.15014649.35998535-1.6763916.65124512-.75378419.43225097-1.4338379 1.0834961-1.32312012 2.02624512h-.09484864zm9.47277832-1.7241211l-.04748535.046875 1.5814209.36462402-2.59875488 5.6258545.11071777-.03125 2.6303711-5.65197754-1.67626954-.375v.02087402zm15.61376954.48950195l-.12646485 2.52648926.10009766-.078125.10021972-2.41186523 3.20495606-.27087403v-.0625l-3.31567383.28649903.03686524.01037597zm-4.01135254.3334961l-.10546875 2.2972412 3.60559082.05200196.11071777-2.6566162-3.61083984.30737304zm-.0053711 2.23986816l3.41589356.05212403.10009765-2.53686524-3.41589355.29174805-.10009766 2.19299316zm17.22143555-1.24975586l4.46520996 2.38549805h.03161621c.38500977-.10229492.75524902-.25280762 1.10168457-.44799805.25073242-.140625.47973633-.31604004.68005371-.5209961l1.5814209-1.6043701h-.10546875l-1.54455566 1.56274413c-.1920166.2052002-.41418457.3807373-.65893555.52087403-.33300781.1845703-.68676758.32971191-1.05419922.43237304l-4.42797851-2.36486816-.06884766.03674316zm1.48156738 5.51599121l-1.05432129-2.80249023 1.90820313.10424805c1.23046875.08776855 2.4613037-.16662598 3.55297851-.73449707.27331543-.15209961.52355957-.34143067.74328614-.56262207l.47961425-.48962403 4.21716309 1.82312012.22668457-.16662598-4.27514648-1.84399414.94360351-1.01062012h.11071778l-.97521973 1.01574708 4.29089355 1.84924316-.34265136.26049805-4.21704102-1.8232422-.42700195.43762208c-.22436524.22546387-.47998047.41845703-.75915528.57299805-1.1159668.57983398-2.37451171.83789062-3.631958.74487304l-1.75012207-.09375 1.05432128 2.71911621h-.09484863zm2.43530274-3.05761718l-4.2487793-2.26599121-.0209961.01037597.06848145-.04162597 4.3647461 2.33374023h-.07385254c-.55212403.10424805-1.1151123.14099121-1.67626954.109375l-2.2034912-.11987305-5.22912598 1.98986817-.07385254-.04162598 5.2713623-2.00036621 2.24035645.11987305c.52905273.0336914 1.06030273.00219726 1.5814209-.09375zM45.1706543 47.34521484l-.07385254-.03125 5.0657959-2.89111328 3.6583252.05725098-.06848145.05212402-3.55297852-.05212402-5.0288086 2.8651123zm17.55908203.19262696l.06848144.04162597 4.7442627-1.81274414 1.05432129 2.75048828h.0895996l-1.0595703-2.84423828-4.89709473 1.86486817zm-13.0415039 2.91186523l.0316162.05212402 7.33251953-1.28662109-.80651855-2.38061523h-.10009766l.79064942 2.3441162-7.24816895 1.2709961zm8.56604003 1.1928711l-1.62890625-4.8079834h.09484863l1.6184082 4.7611084-.08435058.046875zM44.0637207 49.944458l3.8638916-.625-.0895996-.04174805-3.73217774.61987305-3.02050781-2.86499024-.06774902.02087403-.01660157-.015625v.02087402l.01660157-.00512695L44.0637207 49.944458zm-6.32043457-1.94824219v-.02087402l.11071778-.03125 5.36096191 1.68774414-2.63562012-2.47949219h.08435059l2.79382324 2.65148926-5.7142334-1.80761719zm-.45874023.11462402l6.50500488 2.08374024 3.52648926 3.35461426.06860351-.04162598-3.5213623-3.35473633-6.46801758-2.04199219.03161621-.04162597-.15283203.04162597h.01049805zm12.55126953 2.59423829l.03161621.05212402 7.1796875-1.26062012.80651856 2.36486817.12121582-.06762696h-.07385254l-.80114746-2.36499023-7.26403809 1.27624512zm-5.55603027-.57312012l3.37902832 3.21411133.07373047-.04174805-3.30517579-3.12536621 3.8059082-.64074707-.0316162-.05212403-3.921875.64587403zm7.5012207 6.29785156l4.32250977.39074707 2.63574218-1.50024414 1.70788574.98449707.4058838-.234375-1.70788575-.97937012 3.11010742-1.77624511 4.9182129-.67199707-.12646485-.31774903-4.84448242.6928711-2.20336914-1.26586914-.06860352.03649902 2.27197266 1.2866211 4.78125-.63024903.08435058.203125-4.86560058.64587402-3.1628418 1.82324219 1.68688965.9741211-.2635498.15100097-1.70788575-.97924805-2.6673584 1.5209961-4.18029785-.38024903v-.046875l-.12121582.06774903-.00524902.00512695zm6.97399902-1.46374512l-2.18237304-1.2553711-.00524903-.015625.06848145-.03649901 2.10864258 1.21374511 2.96777343-1.69299316-2.1085205-1.21374512.07373046-.04162597 2.18237305 1.27099609-3.1048584 1.77111816zm-2.78320312 1.59399414l-3.78491211-.34387207h-.03161621l.08435058-.046875 3.68994141.33337403 2.42492676-1.38562012-2.10864258-1.21374512.07385254-.04162597 2.18237305 1.25537109-2.53027344 1.44299316z"/>
          <path fill="rgb(77,77,77)" fill-rule="evenodd" d="M50.15734863 27.47753906l1.20715332-3.4432373h.01586914l.6114502.06774902-.33215332.9584961 3.80065918-.36987305 3.73217773 2.33361816 2.15600586-1.6616211.52722168.20837403-3.57409668 2.75561524.10546875.03125c1.4197998.37133789 2.77929688.9395752 4.0378418 1.68774414 1.2611084.73461914 2.32299805 1.76062011 3.09436035 2.98999023l.05273438.08337402 4.66516113-2.6566162.4375.25-11.12792969 6.34997558-1.44433594 5.1204834.16345215-.03637696c1.04968262-.24291992 2.12756348-.3461914 3.20495606-.30737304l11.96606445.40625 3.33154297-7.84484863.95410156.13012695-3.29455566 7.74597168 9.65185547.33337402-.03161622.28649902-15.87219238-.52087402-7.37988281 4.2142334 4.7442627 2.72949219 10.51635742-2.31799317.34802246.52087403-15.10266114 3.32861328-10.32141113 5.89160156-.68518066-.39587402 2.15600586-1.22937012-3.44750977-1.97949219-2.2034912 1.21887207-.35839845-.20825195 3.46325684-1.97436523-1.64465332-2.85461426-5.98303223-2.76599121-6.17285156 1.78674316-.4375-.52087402 6.28881836-1.82324219 10.63232422-9.31396484-4.79162598-.3125-1.51293945.86474609c-1.43652344.7380371-3.04174805 1.09692383-4.65991211 1.04174805h-.07910156l-4.55444336 4.1986084-9.5201416.91162109-.07910157-.29174805 9.32507325-.91674804 4.26464843-3.94335938h-.14233398c-1.26269531-.08337402-2.49169922-.43896484-3.60046387-1.04187012l-4.25390625-2.44824218.44274902-.25 4.25927735 2.44299316c1.16149902.62109375 2.45910644.9519043 3.77954101.96374512 1.41809082.05419922 2.82836914-.2298584 4.11169434-.82824707l.07385254-.03649903-2.75170899-1.56274414c-1.87133789-1.0678711-1.86071777-2.82336426 0-3.8651123l7.2376709-4.13085938zm4.4597168 3.08911133c-.60473633.30969238-1.29125977.42785645-1.9663086.33850098l-.82751464-.09887696c-1.16503906-.13549804-1.91357422-.78662109-1.68688965-1.45336914l1.39685059-3.9954834 3.7532959-.34375 3.61621093 2.26599122-4.08007812 3.12548828-.20556641.140625v.02087402zm-8.59240723 6.27685547l1.50231934-.85949707.02636719-.015625 3.84814453-4.87573242h-.0949707c-1.26513672-.24487305-2.02416993-1.04699707-1.7553711-1.80761719l.41125488-1.2709961-6.69995117 3.81823731c-1.64477539.94812012-1.65527344 2.50048828 0 3.44848633l2.76220703 1.56274414zm8.99816895-6.0477295c.09484863-.05358886.18640137-.1126709.27416992-.17712402l2.6619873-2.08361816h.07385254c1.24975586.32080078 2.4539795.79504394 3.58459473 1.4116211l.07373047.04174804-5.66674805 2.77648926-.585083 3.6463623-7.38000489-.48449707 3.8059082-4.8236084.64318848.078125c.86889649.11767579 1.75341797-.03527832 2.53027344-.43762207l-.01586914.05212403zm1.43383789 5.7039795l2.79907226.1875 5.90930176-3.37231445v-.0291748c-.66516113-1.13562013-1.59838867-2.09521485-2.72009277-2.79736329l-.06848145-.046875-5.3927002 2.64624023-.5270996 3.4119873zm1.10705566 5.82385254h-.03686523c-.55053711.1727295-1.08068848.40332031-1.5814209.68762207-.29003906.16955566-.56506348.3630371-.8223877.578125l-6.62609863 5.4383545-6.07800293-2.80249024-.06848144-.03125 10.80114746-9.50146485 5.90393066.390625-1.48132324 5.20922852-.01049805.03125zm2.1402588 4.12036133l7.24291991-4.1361084-.01586914-.015625-5.46118164-.1875c-1.20080566-.04394531-2.40075683.10559082-3.55285644.44274902-.5543213.178833-1.08508301.421875-1.5814209.7241211-.26940918.14916992-.52355957.3236084-.75915527.52087402l-3.25244141 2.65148926h7.38000488zm1.05419921 3.91723632l3.8059082-.82824707v-.015625l-4.88134765-2.80249023h-7.74890137l-3.13122559 2.53686523 1.72900391 3.00048829-1.164917.66674804 3.44750977 1.97949219 7.94396973-4.53723145z"/>
          <path fill="rgb(77,77,77)" fill-rule="evenodd" d="M49.97814941 27.44104004l1.24401856-3.52661133-.03686524-.01037598 1.00146485.11462403-.36889649.9116211 3.68994141-.33337403 3.63720703 2.28149414 2.14025879-1.65124512.81176758.34899903-1.0543213.80224609-.07373046.0625-.21618652.16662598-.06323242.046875-2.15075684 1.65649414c1.40393066.37451171 2.74731445.94262695 3.99047852 1.6878662l.3531494.22399903.06860352.046875.23718262.16137695.07385254.05212403c.94396973.64611816 1.74853516 1.47131347 2.36682129 2.42749023l4.57556152-2.60461426.71691895.41149903-2.171875 1.23986816-.06848145.04162598-.2635498.15112304-.06848145.03637696-5.99890136 3.42248535-.06848145.03637695-.27416992.16149903-.07385254.03649902-2.22973633 1.27624512-.32678222 1.15637207V38.34375l-.0579834.19799805v.09375l-.95422364 3.38586425c1.02770997-.22351074 2.07971192-.31799316 3.13122559-.28125l1.64465332.05725098h.64318848l6.45739746.22924805h.57458496l2.53564453.11975097 1.6920166-3.96936035v-.05725097l.08972168-.203125v-.05737305l1.44958496-3.64111328 1.33361817.1875-.4954834 1.1616211-.04748535.10424804-.0789795.19274902v.0625l-1.3284912 3.12548828-.02624512.05725098-.08435059.20837402v.05725098l-1.1755371 2.76086426 2.7199707.09375h.57458495l6.3256836.21875-.0579834.5209961-8.33410645-.27087403H75.3125l-7.01623535-.22924805-.65893555.37512207-.06860351.03637696-.2635498.15112304-.06848145.04162598-6.13061524 3.49536133 1.30725098.75012207.07385254.04162597.26879883.15625.06848144.04174805 2.79919434 1.60437012 3.0205078-.66674805h.08959962l.34790039-.078125h.09484863l7.0057373-1.56274414.48498536.72924805-15.23962403 3.3651123-1.40222167.8022461-.06848145.03637695-.2635498.15112305-.07385254.04162597-2.96252442 1.69299317-.06848144.03649902-.26367188.15100098-.07373047.04174804-3.97460937 2.26599121-.08435059.046875-.25305176.14575196-.12121582.06774902-.81713867.46887207-.96984863-.55737305 2.15588379-1.22412109-3.16271973-1.82324219-2.14025879 1.2553711-.63256836-.36462403 1.0543213-.61462402.06848144-.04174805.27416992-.15625.07373047-.04162597 2.01367187-1.15124512-1.51281738-2.60461426-.03161621-.05200195-.04748535-.08337403-.2055664-.09375-.08959962-.04174804-5.57714844-2.60449219-1.1755371.33850098-.0843506.02612304-.33740233.09375h-.08435059l-2.7463379.7866211-.11071776.03125-.30578614.09375-.14233398.02075195-1.2598877.3647461-.61669922-.69812012 2.32470704-.64587403.11071777-.03125.44799805-.13024902.1159668-.03649902 3.41589355-.9897461 10.41101074-9.22009277-2.32470703-.15625h-.63781738l-1.43908692-.09375-1.44433594.82824707c-1.45922851.76416016-3.09338378 1.14282227-4.7442627 1.0991211l-2.63574218 2.47424316-.04736328.046875-.20568848.18762207-.04736328.046875-1.5814209 1.43774414-9.79956054.93237305-.14233399-.52087403 1.63415528-.15625h.09484863l.36901855-.03125h.09484864l6.83703613-.69812012h.38476562l.08435059-.078125.05273438-.046875 3.94824218-3.6463623c-1.24707031-.09545898-2.45959472-.45056152-3.55810547-1.04187012l-.56408691-.32287597-.07373047-.04174805-.26367187-.15100098-.06848145-.04174804-3.4263916-1.96899414.72216797-.41149903 1.05432129.61462403.10534668.0625.24780273.140625.07373047.04174804 2.90466309 1.66687012c.49645996.27978516 1.02819824.4934082 1.58129882.63549805l.11608887.03125.39526367.11987304h.14758301c.48535156.09118653.97705078.1451416 1.4708252.16149903 1.34130859.05078125 2.67590332-.21154785 3.8955078-.76574707l-2.63574218-1.49499512c-.96984863-.55749512-1.43908691-1.29187012-1.43908691-2.02636719v-.36462402c.16625976-.55761719.52661133-1.03918457 1.01745605-1.35961914l.06323242-.04174805c.07971192-.0579834.16235352-.1118164.24780274-.16137695l.0526123-.06774903h.0369873l2.84655762-1.62524414.06848145-.03649902.2635498-.15100098.06860352-.03649902 3.94299316-2.25036621zm11.3914795-2.08361817l.5270996.20837403-3.5739746 2.75561523.10546875.03125c1.4128418.37475586 2.76513672.94470215 4.01672363 1.6928711 1.26135254.7244873 2.32653809 1.73962402 3.1048584 2.9588623l.05273437.08337402 4.66516114-2.65673828.43762207.25012207-11.1385498 6.36547852-1.44433595 5.11535644.16345215-.03649902c1.04968262-.24279785 2.12756348-.34606933 3.20495606-.30725098l11.96606445.40625 3.33154297-7.84484863.95410156.13012696-3.29455566 7.74597167 9.65185547.33337403-.03161622.28649902-15.87219238-.52087402-7.37988281 4.2142334 4.7442627 2.72949218 10.49536132-2.31799316.3479004.52087402-15.10253907 3.32861328-10.32141113 5.91235352-.68530274-.39587402 2.15600586-1.22937012-3.4263916-1.97937012-2.15600586 1.22924805-.3585205-.20837402 3.4633789-1.97424317-1.66577148-2.86499023-6.02526856-2.78161621-6.17285156 1.78674316-.4375-.5209961 6.28881836-1.82312011 10.62182617-9.32434082-4.79162598-.31262207-1.51293945.8647461c-1.43652344.73815917-3.04174805 1.0970459-4.6599121 1.04187011h-.05273438l-4.55444336 4.19848633-9.5201416.93762207-.07910157-.29162598 9.28820801-.8803711 4.26452637-3.94335937h-.14233399c-1.2626953-.08325195-2.49157714-.43884277-3.6003418-1.04174804l-4.25402831-2.44836426.44287109-.25 4.25927734 2.44311523c1.16149903.62097168 2.45898438.95178223 3.77954102.96362305 1.41796875.05432129 2.82836914-.2298584 4.11169434-.82824707l.07385253-.03637695-2.75170898-1.56274414c-1.85546875-1.04187012-1.8449707-2.8026123 0-3.86523438l7.2376709-4.12561035 1.20715332-3.4432373.6114502.06774902-.27941895.91674804 3.83764648-.35424804 3.7196045 2.32592773-.0032959.00256348.01586914.00524902-.01257324-.0078125 2.15270996-1.67468261zm-9.83642578 0l-1.3968506 3.99023438c-.22668456.66674805.52709962 1.3178711 1.68688966 1.45336914l.82751465.09899902c.67504882.08935547 1.36157226-.02893066 1.96630859-.33862304l.2055664-.140625 4.08007813-3.12548828-3.61621094-2.26599121-3.7532959.328125zm3.68469238-.19274902h-.28466797l-.0209961-.015625-3.23669433.296875-.2319336.66687012-.04211425.11450195-.0633545.18762207v.0625l-1.00683593 2.88586426c-.21081543.60424805.4744873 1.1928711 1.52868652 1.3178711l.82763672.09899902c.61572266.07897949 1.24121094-.0300293 1.7923584-.31262207.06469726-.03686524.12634277-.07861328.18444824-.125l1.73962402-1.33874512h.0579834l.22131348-.171875.0579834-.046875 1.9083252-1.46899414-3.189209-2.00024414-.07910155-.05212403-.16345215-.09899902zm-11.93444824 6.66247559c-1.66052247.94812011-1.67102051 2.5003662 0 3.44848633l2.76220703 1.56274414 1.50231933-.85949707 3.82714844-4.89135743h-.0949707c-1.26513672-.27087402-2.02416992-1.04187011-1.7553711-1.80761718l.45336914-1.29187012-6.69995117 3.82348633.00524903.015625zm3.05224609-1.5991211l-.06848145.03637696h.00524903l-2.84655762 1.62524414c-1.18078613.67199707-1.48657227 1.6566162-.92248535 2.49523926.01049805.01855468.02282715.03601074.03686523.05212402.04821778.06774902.10095215.13208008.15808106.19274902l.02636719.06762696c.1932373.19091796.41125488.35559082.6484375.48974609l2.63574218 1.5053711 1.33886719-.76574708 1.05432129-1.3178711.0579834-.07299804.147583-.1875.04211426-.05212402 2.46704102-3.12536621c-1.30200195-.3022461-2.06115723-1.11486817-1.78173828-1.90661621l.3269043-.93762207-2.9942627 1.71374511-.06848145.03649903-.2635498.15112304zm1.73950195 5.77160645l7.38000489.48449707.585083-3.6463623 5.6826172-2.79211426-.07385255-.04174805c-1.13049316-.61657715-2.3347168-1.09082031-3.58459472-1.4116211h-.07373047l-2.66210938 2.08361817c-.08764648.06445313-.17919922.12353516-.27404785.17712402-.77685547.40234375-1.66137695.55529786-2.53027344.43762207l-.63671875-.07739257.04626465-.05810547-.05273437.05725097.00646972.0008545-3.81237793 4.78637695zm7.20593262-5.04760742c.10095215-.0559082.1977539-.11853028.289917-.18762207l.74328612-.57299805.0579834-.046875.22668457-.171875.06323243-.05212402 1.48132324-1.14074707c1.14221191.29504394 2.24597168.71972656 3.28930664 1.26586914l-2.74645996 1.3491211-.07373047.03649901-.27941895.13537598-.07910156.03649902-2.37731934 1.1772461-.21618652 1.37524414v.05725098l-.03161621.19799804v.09887696l-.28466797 1.8284912-6.93713379-.44799804 2.35107422-2.98486328.04211426-.05212403.1529541-.19262695.04211426-.05212402 1.05432129-1.32312012.49023437.05725098c.92871094.12341308 1.87341309-.04040528 2.70422364-.46875l.03686523.078125zm1.2335205 5.65185547l.52709962-3.4119873.04223633-.02600099 5.39257812-2.64624023.06860352.046875c1.12158203.70214844 2.05480957 1.66174316 2.7199707 2.79736328v.03125l-5.95141602 3.39624024-2.79907226-.1875zm1.36535645-3.68811036l.14233399-.07287597.25830078-.125.0895996-.04174805 4.0062256-1.96899414c1.08166503.67700195 1.98510742 1.5982666 2.63574218 2.68786621l-.95935058.5209961-.1159668.06762695-.24255371.14074707-.0789795.046875-3.97473144 2.26586914-.12646484.07299805-.30578614.171875h-.22668457l-2.2824707-.14587403.5270996-3.28686523.69055177-.33862305-.03686524.00512695zM42.35046387 46.19384766l10.79577636-9.49621582-.01049804.08337402 5.90393066.390625-1.48120117 5.20910644h-.03686523c-.55053711.17285157-1.08068848.40332032-1.5814209.68762208-.28613282.15161132-.55944825.32580566-.81713867.52099609l-6.62609864 5.43823242-6.07800293-2.80249023-.06848144-.03125zm15.84057617-6.69885254v.05212402l-.0579834.21350098v.05212402l-.34265137 1.20336914v.06762695l-.0579834.20837403v.0625l-.25830078.91687012c-.54968261.17712402-1.07958984.40930175-1.5814209.69274902-.29162597.1685791-.56994628.35839844-.83288574.5678711l-.61682129.52087402-.10009765.078125-.4428711.36462402-.06848144.05212402-5.40319824 4.31835938-3.2788086-1.52111817-.07385254-.03125-.26879882-.13537597-.07910157-.03649903-2.1085205-.97412109 7.38000488-6.49572754.10009765-.08337402.42700196-.375.0579834-.05737305 2.65673828-2.33886719 5.58251953.36462403-.65368652 2.31811523.02111816-.00524902zm-2.65161133 4.27148437c.2355957-.19726562.4897461-.3717041.75915527-.5209961h.01574707c.51000977-.29040526 1.05322266-.51953124 1.61828614-.68237304 1.15222168-.3371582 2.35217285-.48669433 3.55297851-.44274902l5.46118164.1875-7.27978515 4.10998535H52.2869873l3.25244141-2.65136719zm4.06433106 2.56799317h-6.94775391l3.03637695-2.4794922c.23291016-.19335937.48156739-.3675537.74316407-.52087401.49963378-.2800293 1.03027343-.5020752 1.5814209-.6616211 1.1175537-.3289795 2.2824707-.4732666 3.44750976-.42712402l5.015625.1661377-6.87634277 3.92297363zm-10.80639649 2.9119873l3.13122559-2.55249023.00524902.02087402h7.74902344l4.88122558 2.80773926-3.8059082.83862304-7.94921875 4.53198243-3.44750976-1.9794922 1.16491699-.66674804-1.7290039-3.00048828zm10.80114746-2.41186523h-3.45275879v-.015625h-4.11706543l-3.00463867 2.46386718.66418457 1.16687012.03161621.05212402.1159668.203125.03161621.05212403.89086914 1.52624512-1.11218262.63549804 3.1628418 1.82324219 5.07104492-2.89624023.12121582-.06774903.25305176-.14587402.08435059-.046875 2.31408691-1.3178711 3.55822754-.78662109-4.61242676-2.64624023z"/>
          <path fill="rgb(165,183,198)" fill-rule="evenodd" d="M53.83155551 28.20159696l1.59723476.7553232-.88559551.6146768-1.59723476-.75011407"/>
          <path fill="rgb(165,183,198)" fill-rule="evenodd" d="M51.52795291 27.32125475l.5851256.09376426-.38481233.80741445-.5851256-.08855513"/>
          <path fill="rgb(165,183,198)" fill-rule="evenodd" d="M51.94439366 28.88920152l1.4390927.67197719-.63256822.43756654-1.4390927-.67197719"/>
          <path fill="rgb(165,183,198)" fill-rule="evenodd" d="M55.86631662 30.8686692l.49024037-.21357414.91195252.69802281-.49551178.20836502"/>
          <path fill="rgb(165,183,198)" fill-rule="evenodd" d="M52.0656359 32.66060837l1.50234952-.8595057.95412373.5521673-1.26513644.7188593"/>
          <path fill="rgb(165,183,198)" fill-rule="evenodd" d="M53.72612748 33.17631179l1.12280859-.63551331.53768298.3073384-1.01738055.58342206"/>
          <path fill="rgb(165,183,198)" fill-rule="evenodd" d="M54.3850527 31.68129278l.8592385-.4896578 1.07009457.6146768-.8592385.4896578"/>
          <path fill="rgb(165,183,198)" fill-rule="evenodd" d="M47.01036154 32.74395437l.8803241-.50007604 1.1438942.6563498-.8803241.50007605"/>
          <path fill="rgb(165,183,198)" fill-rule="evenodd" d="M43.87914885 34.45254753l1.58142055-.9011787.40062654.22920151-1.57614915.90638783"/>
          <path fill="rgb(165,183,198)" fill-rule="evenodd" d="M44.300861 35.17140684l.98048074-.55737642.79598168.45840304-.98048074.55737643"/>
          <path fill="rgb(165,183,198)" fill-rule="evenodd" d="M46.56229238 35.1609886l.68528224-.39068442.43225495.2448289-.68528223.39068441"/>
          <path fill="rgb(165,183,198)" fill-rule="evenodd" d="M45.28661314 31.25414449l.65892523-.37505704 1.02792336.5938403-.65365383.37505704"/>
          <path fill="rgb(165,183,198)" fill-rule="evenodd" d="M42.8406827 32.86897338l2.0136755-1.15121673.65365382.37505704-2.0136755 1.15121673"/>
          <path fill="rgb(165,183,198)" fill-rule="evenodd" d="M39.15597281 34.45775665l.62729682-.13022813.76962467 1.1876806-.63256822.13543727"/>
          <path fill="rgb(165,183,198)" fill-rule="evenodd" d="M41.01677766 36.40076046l1.18606541-.67197719 1.36002167.7761597-1.18606541.6771863"/>
          <path fill="rgb(165,183,198)" fill-rule="evenodd" d="M40.11536794 36.91646388l.45861196-.26045628.5587686.32296578-.45334056.26045628"/>
          <path fill="rgb(165,183,198)" fill-rule="evenodd" d="M34.64892424 38.21353612l1.38637869-.79178707.79071027.45319392-1.38637868.79178707"/>
          <path fill="rgb(165,183,198)" fill-rule="evenodd" d="M33.48921584 38.86988593l.75381046-.42714829 1.77646242 1.0209886-.75381046.42714828"/>
          <path fill="rgb(165,183,198)" fill-rule="evenodd" d="M36.76275638 39.60958175l1.60777756-.91680608.74326766.42714828-1.60777756.91680609"/>
          <path fill="rgb(165,183,198)" fill-rule="evenodd" d="M35.58723377 40.80247148l.37426953-.21878327.8645099.50007605-.37426953.21357414"/>
          <path fill="rgb(165,183,198)" fill-rule="evenodd" d="M30.97475717 41.2139924l.68528223-.39068442.88032411.50528518-.68528224.3906844"/>
          <path fill="rgb(165,183,198)" fill-rule="evenodd" d="M33.0885893 41.64114068l.47969757-.27608365.64311102.36984791-.48496897.27608365"/>
          <path fill="rgb(165,183,198)" fill-rule="evenodd" d="M37.73269432 42.56836502l1.1702512-.66676806.70636785.40631179-1.1702512.66676806"/>
          <path fill="rgb(165,183,198)" fill-rule="evenodd" d="M34.56985322 43.27680608l1.94514727-.21878327 1.56033494.89596959-1.1702512.66676806"/>
          <path fill="rgb(165,183,198)" fill-rule="evenodd" d="M34.67528125 45.26669202l1.4232785-.8178327.55349719.31775665-1.4285499.81262357"/>
          <path fill="rgb(165,183,198)" fill-rule="evenodd" d="M32.32423604 44.42281369l1.26513644-.72406844.98575214.56779467-1.26513644.71885932"/>
          <path fill="rgb(165,183,198)" fill-rule="evenodd" d="M35.90351788 46.36581749l.64311102-.36463878.76435327.43756654-.64311102.3698479"/>
          <path fill="rgb(165,183,198)" fill-rule="evenodd" d="M41.04840607 40.01068441l1.23350803-.70323194.67473943.38547529-1.23350803.70323194"/>
          <path fill="rgb(165,183,198)" fill-rule="evenodd" d="M55.66073195 38.26562738l1.31257905-.75011407.59566841.34380228-1.31257906.74490494"/>
          <path fill="rgb(165,183,198)" fill-rule="evenodd" d="M52.90378879 37.89577947l.54822579-.31254753.8750527.50528517-.54295438.31254753"/>
          <path fill="rgb(165,183,198)" fill-rule="evenodd" d="M52.14997833 38.59380228l.41116934-.23441065.48496897.27608366-.41644075.23441064"/>
          <path fill="rgb(165,183,198)" fill-rule="evenodd" d="M55.85577382 40.3544867l1.10172298-.08334602.07907103.36984791-1.09645159.07813689"/>
          <path fill="rgb(165,183,198)" fill-rule="evenodd" d="M52.84580337 40.32323194l1.50234952-.10939164.13705645.5938403-1.50234952.10939164"/>
          <path fill="rgb(165,183,198)" fill-rule="evenodd" d="M64.1529603 35.98923954l1.1649798-.66155893 1.25986504.72406844-1.1597084.66155893"/>
          <path fill="rgb(165,183,198)" fill-rule="evenodd" d="M65.10708403 37.61969582l.5956684-.34380228.99629495.5730038-.5956684.34380228"/>
          <path fill="rgb(165,183,198)" fill-rule="evenodd" d="M65.66058122 34.3848289l2.41430204-1.37520913.65365383.37505704-2.41430204 1.37520912"/>
          <path fill="rgb(165,183,198)" fill-rule="evenodd" d="M69.0500926 38.5365019l.98048074-.56258555.64311103.3698479-.98048074.56258556"/>
          <path fill="rgb(165,183,198)" fill-rule="evenodd" d="M67.900927 39.18764259l.73799626-.41673004 1.30730765.75011407-.73799625.41673003"/>
          <path fill="rgb(165,183,198)" fill-rule="evenodd" d="M66.21407842 41.5421673l2.10856073-1.20330798 1.30730765.75011406-.95412373.54695818"/>
          <path fill="rgb(165,183,198)" fill-rule="evenodd" d="M66.92571766 39.536654l1.03846616.59904942-1.34947886.77095057-.75908187-.43756654"/>
          <path fill="rgb(165,183,198)" fill-rule="evenodd" d="M71.84920697 35.07243346l1.57614915-.9011787 1.82390504 1.04703421-.76435327 1.37"/>
          <path fill="rgb(165,183,198)" fill-rule="evenodd" d="M70.80546941 34.9369962l1.89243326 1.08870722-1.05428037.59904943-1.25459363-.71885931"/>
          <path fill="rgb(165,183,198)" fill-rule="evenodd" d="M71.48020885 33.0565019l1.53397793.8803422-1.25986504.71885932-.72218205-.41673004"/>
          <path fill="rgb(165,183,198)" fill-rule="evenodd" d="M59.62482613 44.8551711l2.11910353-1.2085171.75908187.43756653-2.11910354 1.20851711"/>
          <path fill="rgb(165,183,198)" fill-rule="evenodd" d="M62.08657078 43.44870722l.92249532-.52612167.75908187.43756654-.91722392.52612167"/>
          <path fill="rgb(165,183,198)" fill-rule="evenodd" d="M57.32649493 44.0581749l1.78700522-1.01577946 1.32839326.76053232-1.78173382 1.02098859"/>
          <path fill="rgb(165,183,198)" fill-rule="evenodd" d="M55.34971924 45.18855513l1.23877943-.70844106 2.40375924 1.38041825-2.41430204.03646388"/>
          <path fill="rgb(165,183,198)" fill-rule="evenodd" d="M46.9102049 43.3601521l1.16497981.46361216-1.76064821 1.44292776-1.1702512-.46361217"/>
          <path fill="rgb(165,183,198)" fill-rule="evenodd" d="M46.0562378 51.03840304l1.1333514-.64593156.70636785.40631179-1.1333514.64593156"/>
          <path fill="rgb(165,183,198)" fill-rule="evenodd" d="M46.92074771 52.09585551l1.59723475-.91159695.45861196.75011406-1.41800709.80220533"/>
          <path fill="rgb(165,183,198)" fill-rule="evenodd" d="M53.7893843 50.54353612l1.68157718-.35422053.98575214.56779468-1.1491656.6563498"/>
          <path fill="rgb(165,183,198)" fill-rule="evenodd" d="M51.53849571 51.69996198l1.4496355-.82825095.64311103.3698479-1.4496355.82825096"/>
          <path fill="rgb(165,183,198)" fill-rule="evenodd" d="M52.82998916 53.32520913l2.10856074-1.20330799.81706728.4688213-2.10856073 1.20330798"/>
          <path fill="rgb(165,183,198)" fill-rule="evenodd" d="M51.1958546 53.09079848l1.39165008-.79178707.48496897.28129277-1.38637868.79178707"/>
          <path fill="rgb(165,183,198)" fill-rule="evenodd" d="M64.05807507 50.8039924l2.45647325-.5730038.93303812.53653992-1.7342912.98973384"/>
          <path fill="rgb(165,183,198)" fill-rule="evenodd" d="M62.32378386 51.25718631l.88032411-.22920152 1.25986504.72406844-.64311103.36463879"/>
          <path fill="rgb(165,183,198)" fill-rule="evenodd" d="M61.2958605 51.991673l.60621122-.3490114.90668111.52091254-.6062112.34901141"/>
          <path fill="rgb(165,183,198)" fill-rule="evenodd" d="M53.15681608 48.09524715l1.37583588-.78657795.95412373.5521673-1.37056448.78136882"/>
          <path fill="rgb(165,183,198)" fill-rule="evenodd" d="M51.05352675 48.3088213l1.11753718.64593155-1.03846616.58863118-.96466653-.5521673"/>
          <path fill="rgb(165,183,198)" fill-rule="evenodd" d="M54.70660822 48.8818251l.71163924-.4063118.93303813.53653993L55.2759196 49.21"/>
          <path fill="rgb(165,183,198)" fill-rule="evenodd" d="M69.54033297 47.28262357l1.31257906-.74490494.90668111.52091255-1.31257905.74490494"/>
          <path fill="rgb(165,183,198)" fill-rule="evenodd" d="M73.86815388 45.74593156l1.31257905-.74490494.93830953.53653992-1.31257906.75011407"/>
          <path fill="rgb(165,183,198)" fill-rule="evenodd" d="M71.88083539 46.33977186l.8855955-.50528517 1.33366467.76574145-.88559551.50528517"/>
          <path fill="rgb(165,183,198)" fill-rule="evenodd" d="M80.68407645 40.6826616l.75381046-.43235742 1.32839326.76574145-.75381046.42714829"/>
          <path fill="rgb(165,183,198)" fill-rule="evenodd" d="M79.0973845 41.2348289l.62729681-.35942966 1.08590878.62509506-.62729682.35422053"/>
          <path fill="rgb(165,183,198)" fill-rule="evenodd" d="M77.90604768 43.78730038l1.07536597-.6146768.80125308.46361216-1.07536597.6146768"/>
          <path fill="rgb(165,183,198)" fill-rule="evenodd" d="M75.71841592 43.85501901l.70109644-.39589353 1.4338213.82304182-.50078317.28129278"/>
          <path fill="rgb(165,183,198)" fill-rule="evenodd" d="M77.34727909 37.19775665l.74853906-.42714828 1.20187961.69281368-.74853906.4271483"/>
          <path fill="rgb(165,183,198)" fill-rule="evenodd" d="M78.05364693 38.7396578l.82761009-.47403042 1.11753719.64072243-1.718477-.03646388"/>
          <path fill="rgb(165,183,198)" fill-rule="evenodd" d="M76.95719535 38.291673l.99102354-.56258555.48496897.27608365-.98575214.56779468"/>
        </g>
      </g>
    </g>
  </g>
</svg>
