<svg xmlns="http://www.w3.org/2000/svg" width="93" height="104.984" viewBox="0 0 93 104.984">
  <g>
    <ellipse cx="46.5" cy="54.847" fill="rgb(213,227,220)" rx="46.5" ry="46.5"/>
    <g>
      <g opacity=".4">
        <path fill="rgb(32,162,106)" fill-rule="evenodd" d="M57.38004483 84.11905917c8.76625326.57923375 14.9451102 5.08944713 13.79301083 10.06825412-1.50609638 10.69304558-33.81636907 10.7971775-31.75031378-2.1086712 1.14566305-4.97880698 9.19104968-8.54532492 17.95730295-7.95958292z"/>
      </g>
      <g opacity=".4">
        <path fill="rgb(32,162,106)" fill-rule="evenodd" d="M58.82821442 46.091387l-15.88481136 8.7470805c-.52134105-4.21734238-6.19816585-7.74481086-13.92173702-8.25245392-8.74050803-.585742-16.77945834 2.98077594-17.9251214 7.95958293-1.02980949 6.417129 6.4363093 9.61267701 14.3980239 9.89903977L20.8861711 66.9828516l17.55825177 10.34810863 37.9162981-20.91749757L58.82821442 46.091387z"/>
      </g>
      <path fill="rgb(3,4,3)" fill-rule="evenodd" d="M37.4982854 49.32598448c-.0026023.35653658.20813899.67931165.53340377.81697063.32526478.13765897.70055096.0629032.94988064-.1892131.24932968-.2521163.32325918-.63159686.18712174-.96049694-.13613744-.32890009-.4553449-.54199672-.80794071-.53936534-.22874006 0-.44811152.0918822-.60985517.25543357-.16174364.16355136-.25261028.38537462-.25261028.61667118z"/>
      <path fill="rgb(3,4,3)" fill-rule="evenodd" d="M39.53215913 58.1771969c-.00785228.3576264.1994979.6843628.52428268.82614945.32478479.14178666.7021542.07031295.9541745-.1807205.2520203-.25103346.32837043-.63150265.19305049-.96201226-.13531995-.3305096-.45529054-.54506656-.80904222-.54250496-.4713444-.00005309-.85543046.382529-.86246545.85908827z"/>
      <path fill="rgb(3,4,3)" fill-rule="evenodd" d="M25.6039858 62.23834142c-.00246936.35828378.21045901.68219313.5381136.81858525.3276546.13639212.70439063.05794119.95208911-.19826157.24769848-.25620275.31673364-.63882775.17446598-.96697172-.14226766-.32814397-.46733518-.53606409-.82151217-.52545672-.46731057.01399565-.83989837.39937557-.84315651.87210476z"/>
      <path fill="rgb(3,4,3)" fill-rule="evenodd" d="M15.16429212 55.9643938c.03877317.45427219.41476236.80306407.8656836.80306407s.82691043-.34879188.8656836-.80306408c.02823075-.33075566-.13031738-.64935754-.40981987-.82353147-.27950248-.17417392-.63222498-.17417392-.91172747 0-.27950248.17417393-.43805061.4927758-.40981986.82353147z"/>
      <path fill="rgb(3,4,3)" fill-rule="evenodd" d="M21.56841987 47.45161009c-.00260756.35594617.20743228.67831239.53190345.81635799.32447118.1380456.69925206.06449016.94909253-.18627128.24984046-.25076145.32536732-.6291737.1912637-.9582886-.13410363-.32911489-.45133633-.5438931-.80335792-.54390287-.47737885-.00001324-.86536562.38940375-.86890176.87210476z"/>
      <path fill="rgb(109,110,113)" fill-rule="evenodd" d="M21.51049309 46.77475267v-1.20402522l1.60264102.72241513 6.0243855 5.67518914 8.74050803-4.30845781 1.26795294-.46208536v1.20402522L31.7635338 53.5042774l9.71882704 2.31042677v1.20402522l-.81741128.9371872-10.5877288-2.52519884-2.72255883 6.48221144-1.77642137-.1627061v-1.20402522l.8367202-5.45390883-11.40514008.48811833-.2831976-1.03481086v-1.20402522l11.10906985-.39049467-4.32519985-6.17632395z"/>
      <path fill="rgb(188,190,192)" fill-rule="evenodd" d="M21.51049309 45.57072745l1.60264102-.47510184 6.0243855 5.66868089 8.74050803-4.3084578 1.26795294.74193985-7.38244677 5.10246363 9.71882704 3.514452-.81741128.93718719-10.5877288-2.52519884-2.72255883 6.4887197-1.77642137-.16921436.8367202-6.65793405-11.40514008.48811833-.2831976-1.03481086 11.10906985-1.59451988-4.32519985-6.17632396z"/>
      <path fill="rgb(34,34,34)" fill-rule="evenodd" d="M27.48338812 51.8772163c-.29188989.10070337-.48808926.378015-.48808926.6898739 0 .31185891.19619937.58917054.48808926.68987391.74091618.38679666 1.62120934.38679666 2.36212551 0 .2918899-.10070337.48808927-.378015.48808927-.6898739 0-.31185892-.19619938-.58917054-.48808927-.68987392-.7431792-.37725857-1.6189463-.37725857-2.3621255 0z"/>
      <rect width="3.34" height="10.875" x="26.994" y="41.692" fill="rgb(34,34,34)" rx="0" ry="0"/>
      <path fill="rgb(132,157,170)" fill-rule="evenodd" d="M28.7899589 31.48037827l13.2073067 7.71226964c.60501307.3514452 1.10060889.06508245 1.10060889-.65082444-.09039576-1.8347372-1.04857622-3.5133383-2.57452372-4.51021338L28.7899589 27.17192047c-.61144938-.35795345-1.1070452-.06508245-1.1070452.65082444v1.73119301c.04585405.78337977.45666805 1.49826355 1.1070452 1.92644035z"/>
      <path fill="rgb(132,157,170)" fill-rule="evenodd" d="M24.17512514 2.96125121l.67581248 4.5557711 2.69037728 18.06688652c.03122503.18483212.08753808.3644198.16734405.53367604.15543283.34784918.40829128.6419995.72730295.84607177l1.82791184 1.06735209c.18497206.14135613.43083622.17118957.64363093.07809893.25526037-.18606916.366272-.51499464.2767613-.8200388l-.30894285-2.03057225L27.8824393 5.79884578l-.23170714-1.5099127c-.09146342-.62350505-.47498176-1.16400787-1.02980949-1.45133851l-1.69274934-.65082444c-.16460107-.09026832-.3631763-.09026832-.52777736 0-.21273427.19504586-.2996993.49403163-.22527083.77448108z"/>
      <path fill="rgb(132,157,170)" fill-rule="evenodd" d="M30.77234217 46.2801261l12.1066978-7.09398643L28.05621965 27.0742968l-12.15818827 7.1070029 14.8743108 12.0988264z"/>
      <path fill="rgb(132,157,170)" fill-rule="evenodd" d="M12.47391483 9.1570999l11.92648114-6.98334626 6.513545 25.92233753-11.99084422 7.002871L12.47391483 9.1570999z"/>
      <path fill="rgb(100,120,131)" fill-rule="evenodd" d="M16.7411879 38.5157905l13.20730668 7.73830261c.61144939.35795345 1.1070452.0715907 1.1070452-.65082444-.09032882-1.8330234-1.04877948-3.50967495-2.57452372-4.50370514l-11.73982816-6.8857226c-.64363093-.35795344-1.1006089-.06508244-1.1006089.65082444v1.73119302c.0412768.7813813.45057295 1.49536864 1.1006089 1.9199321z"/>
      <path fill="rgb(100,120,131)" fill-rule="evenodd" d="M19.11618603 34.33098933L15.60839746 11.3243453c-.0993166-.61863188-.4808318-1.15390052-1.02980949-1.44483027l-1.69274934-.65082444c-.51490475-.20826382-.85602914.15619787-.7594845.80702231l3.37906238 22.5901164c.09243886.56691482.41734466 1.06799298.894647 1.37974781l1.82791184 1.07386033c.56639521.33192046.99762794-.02603298.88821068-.7484481z"/>
      <path fill="rgb(255,255,255)" fill-rule="evenodd" d="M44.66189765 19.40107662l-2.47154278-8.94232783c-.60501307-2.9742677-1.48678744-4.24988361-4.1578558-3.83986421l-1.81503923 1.3927643 1.0362458 1.95247333 1.78929399 6.35204656 1.4546059 5.12198836c.23104338.36559858.48246552.71761233.75304819 1.0543356l4.37025401-2.19327838c-.31537915-.31890397-.63719462-.62479146-.95901008-.89813773z"/>
      <path fill="rgb(34,34,34)" fill-rule="evenodd" d="M33.52708256 59.56345296v1.41879728c.3779625.73152224.96577137 1.33043798 1.68631303 1.71817653 1.14566306 2.25836081 2.74186776 3.41682832 4.72425103 3.6185839 1.75711244.15619787 2.85128502-.45557711 2.9800112-1.54896217-.17378035-2.43408342-3.36618976-3.25412221-3.745932-5.20659554h-5.64464326z"/>
      <path fill="rgb(34,34,34)" fill-rule="evenodd" d="M42.31264475 54.97514064v1.2300582c.74661188.70939864 1.48678745 1.37323957 2.08536422 1.30164888 1.0362458 2.31042677 2.48441539 3.54699321 4.28014568 3.90494665 1.9308928.0585742 2.7032499-.72892337 2.7032499-1.86786614-.15447142-1.77024249-2.767613-3.07839962-3.21815464-4.99833172l-5.85060516.42954413z"/>
      <path fill="rgb(74,74,73)" fill-rule="evenodd" d="M44.82280538 56.66728419c-.53714501-.11250822-1.05530277-.3032344-1.53827792-.56621726-1.002562-.54520105-1.68326674-1.54616269-1.82791185-2.68790495-.6886851-6.11774976-.79810235-8.68199806.0643631-12.15740058-4.0806201-3.82684772-11.29572283-3.67064986-12.65378409-9.1115422 0-.14318137-.05149047-.2798545-.0643631-.40351115-.0830418-.627007-.02809714-1.26482145.16090774-1.86786615.12872619-.50113482.31537916-1.09338506.53421367-1.95247333l5.4708629-.19524733 1.39024282-.05206595c2.65175943 1.08687681 4.09992902 2.04358874 10.06638775 8.07673132.30894284.3058875.64363093.65082445.94613746.96322018.90751961 1.1584675.64363093 2.08914646.64363093 2.87664403 0 0-.16734404 5.62963143 0 8.75358875.16734404 3.12395733.4119238 6.0787003.4119238 6.0787003.2123982 1.91342385-1.60907733 2.28439379-3.60433321 2.24534432z"/>
      <g opacity=".3">
        <path fill="rgb(63,102,138)" fill-rule="evenodd" d="M43.28452746 56.11408341c-1.0059703-.54779-1.68720473-1.55438158-1.82791185-2.70092143-.6886851-6.11774976-.79810235-8.68199806.0643631-12.15740058-4.0806201-3.82684772-11.29572283-3.67064986-12.65378409-9.1115422 0-.14318137-.05149047-.2798545-.0643631-.40351115-.0830418-.627007-.02809714-1.26482145.16090774-1.86786615.95436265 1.2098179 2.0774182 2.2730796 3.33400822 3.15649855.36043332.2798545 2.4264886.05206595 3.3275719-1.50991271-.12872618 1.75071775-.18021665 2.9742677.48915951 3.40381183 2.88990288 1.8613579 5.43868136 3.80081475 7.96815092 4.2629001-2.32350766 4.1457517-2.09823683 10.61494665-.79810235 16.92794374z"/>
      </g>
      <path fill="rgb(74,74,73)" fill-rule="evenodd" d="M36.6744378 61.87387973c-.4231283-.09222701-.83221604-.24105702-1.21646245-.44256062-1.24412015-.57074743-2.15510403-1.69394395-2.46510647-3.03935015-.6886851-6.11774976-1.02337318-10.82971872-.16090773-14.31813773-4.0870564-3.82033947-9.36483003-5.13500485-10.7228913-10.5628807-.17128384-1.42309499-.06855936-2.86626079.30250654-4.2498836.10941726-.52065956.23814345-1.04782736.37330594-1.57499516l1.25508031.04555772 6.9125962.29937924h.15447142l1.06199103.90464597-.16734404 2.82457808 2.87703026 3.39079535 3.86178558 5.07643065c.40734945.66253115.60910876 1.43325167.57926784 2.2128031-.02984092.77955143-.16734405 5.62963143 0 8.75358875.16734404 3.12395732.79166604 7.97910766.79166604 7.97910766.21883452 1.89389913-1.43529697 2.70092144-3.43698917 2.70092144z"/>
      <g opacity=".3">
        <path fill="rgb(63,102,138)" fill-rule="evenodd" d="M35.12972357 61.11892338h-.23170713c-1.00678482-.58000458-1.7122614-1.57633253-1.9308928-2.72695442-.68868509-6.11774976-1.02337317-10.82971872-.16090773-14.31813773-4.0870564-3.82033947-9.36483003-5.13500485-10.7228913-10.5628807-.17128384-1.42309499-.06855935-2.86626079.30250654-4.2498836.10941726-.52065956.23814345-1.04782736.37330594-1.57499516l1.25508032.04555772c-.60290675 2.40398528-.13234161 4.95440399 1.28726186 6.97683802 1.93089279 3.41682832 5.87635039 6.09171678 9.49999253 8.46071775-.85680829 5.96147392-.74593444 12.02437057.32825177 17.94973812z"/>
      </g>
      <path fill="rgb(255,255,255)" fill-rule="evenodd" d="M40.4139335 11.58467507c0 6.96382154-3.90040343 13.86256062-4.05487485 16.10790495-3.63007845 2.84410281-9.2682854 5.63613967-12.30622339 3.69668283-.7600264-.50842249-1.33252198-1.25663733-1.62838625-2.12819592-.03861786-5.85741999 1.08129996-11.76039768 2.06605529-13.90811834.80453866-1.76373424 1.53827792-2.65536372 2.11110945-3.90494665 2.37499813-1.6986518 5.22628315-2.64885548 7.72357116-3.57302619 3.23102727-.67034917 2.4200523-.93067895 4.28014568-.67034917 1.20526744 1.12376753 1.86574118 2.7232933 1.80860292 4.3800485z"/>
      <path fill="rgb(67,82,90)" fill-rule="evenodd" d="M20.92478943 68.46671343l16.29029846 9.50854492c.3714447.23461914.79800415.36486817 1.23576355.37756348 1.02981567 0 1.71850586-.84606934 1.71850586-2.09570313V54.33084917c-.08268738-1.7467041-.99645996-3.3449707-2.45223999-4.28894043l-16.28385925-9.50854492c-.3722229-.23205566-.79864502-.35998535-1.23577881-.37097168-1.02980042 0-1.7184906.84606934-1.7184906 2.09570313V64.1843648c.08221435 1.7434082.99346924 3.33898926 2.44580078 4.28234863zm-1.44172669-4.2824707V42.2579732c0-.32543946.07080079-1.07385254.71443177-1.07385254.25846862.01281738.50915527.09350586.72729492.23425293l16.29029846 9.50854492c1.1338501.76757812 1.84805298 2.02661133 1.9309082 3.4038086v21.92626952c0 .31896973-.07080078 1.07385254-.71444702 1.07385254-.2578888-.01586914-.50782776-.09631347-.72729492-.23425293l-16.29029846-9.50854492c-1.13233948-.7689209-1.84609986-2.02722168-1.93089295-3.4038086z"/>
      <path fill="rgb(67,82,90)" fill-rule="evenodd" d="M58.2425232 46.63150835l16.2902832 9.50854493c.37185669.23291015.79852295.3609619 1.2357788.37097167 1.02981568 0 1.71850586-.83947753 1.71850586-2.09558105V32.4956441c-.081604-1.74707032-.9956665-3.34570313-2.45223999-4.28894043l-16.2838745-9.50854493c-.37219239-.23199462-.79864503-.36004638-1.2357483-.37097168-1.02981567 0-1.71850586.83953858-1.71850586 2.0956421v21.92633056c.08221436 1.7434082.99346924 3.33898926 2.44580078 4.28234863zm-1.43530274-4.28234863V20.42282915c0-.32537841.06436157-1.07385253.70800781-1.08685302.25845337.01275634.50915527.09350586.72729492.23431396l16.30316162 9.52154541c1.13534546.76611328 1.85003663 2.02600098 1.9309082 3.4038086v21.9197998c0 .32543945-.07080077 1.08032227-.71444701 1.08032227-.25790406-.01586914-.50784302-.09643555-.72729493-.23425293l-16.29675293-9.5020752c-1.1333313-.7709961-1.84707641-2.03161621-1.93087768-3.41027832z"/>
      <path fill="rgb(100,120,131)" fill-rule="evenodd" d="M17.0887486 41.17766246l21.77403437 12.70409312L77.9891072 31.01829292v-1.11941804L56.21507284 18.30769156 17.0887486 40.05173618v1.12592628z"/>
      <path fill="rgb(132,157,170)" fill-rule="evenodd" d="M17.0887486 40.05173618l21.77403437 12.71060136L77.9891072 29.89887488l-21.77403437-12.7171096-39.12632424 22.8699709z"/>
      <g opacity=".15">
        <path fill="rgb(29,29,27)" fill-rule="evenodd" d="M24.05283526 31.38926285c-.7600264-.50842249-1.33252198-1.25663733-1.62838625-2.12819592-.03861786-5.85741999 1.08129996-11.76039768 2.06605529-13.90811834h3.96476653c-.72086665.91115422 1.15209936.88512125 1.85365707 2.03057226 1.08773628 1.71817653 3.16666418 9.1115422 6.02438551 10.30905917-1.42886066 2.635839-10.33027643 5.81837051-12.28047815 3.69668283z"/>
      </g>
      <path fill="rgb(255,255,255)" fill-rule="evenodd" d="M26.60161375 11.44800194c-1.82147554 1.53594568-2.31063504 3.06538312-1.97594696 6.31950533.38366964 4.29423853 1.6625251 8.4576001 3.75236832 12.21597479 3.58150646 2.06358327 7.50919477 3.44039973 11.58535675 4.06114452-.05792679-.94369545.05149047-2.96125122.88821068-3.25412222-4.24152783-2.05009699-6.82892417-4.5557711-9.01083302-4.97229873-.35470528-3.23375658-.94850759-6.43609746-1.77642137-9.5801358-.61144938-2.36900096-1.9437654-4.04161978-3.4627344-4.79006789z"/>
      <path fill="rgb(218,218,218)" fill-rule="evenodd" d="M35.00099739 7.71877789c-1.02337318-.05206596-1.7313672.36446168-2.8384124.90464597-1.48035115 1.36673133 0 7.23065955 3.5399701 7.23065955l1.39667913-1.82881668 1.1842809.86559651c.73373927-2.87664404-.41192379-5.20659554-3.28251773-7.17208535z"/>
      <path fill="rgb(252,199,170)" fill-rule="evenodd" d="M35.25201345 7.41939864c-.09010833 0-1.5254053 1.08036858-1.5254053 1.08036858-2.09823684 1.20402521.30250653 6.97683802 3.37262607 5.52549951l2.86415764-2.01104753-4.71137841-4.59482056z"/>
      <g opacity=".15">
        <path fill="rgb(29,29,27)" fill-rule="evenodd" d="M40.67782219 12.07930165c0 2.13470417 0 4.59482056-2.36212551 4.69895247-2.96070228-.83305528-3.21815466-5.90297769-2.9027755-7.55607177l5.264901 2.8571193z"/>
      </g>
      <path fill="rgb(252,199,170)" fill-rule="evenodd" d="M38.79841987 1.47737148c-2.57452372 0-4.02912962 1.24307469-4.13211057 3.95701261.07723571 2.85061106.21883452 4.5557711 1.57689578 6.50824443.75431286 1.09684082 1.98712118 1.75651318 3.30826298 1.77024248 1.56402316-.08460718 3.86178558-3.86589719 4.09349272-6.61237633.37974225-2.74647915-1.95663803-4.86816683-4.8465409-5.62312319z"/>
      <path fill="rgb(34,34,34)" fill-rule="evenodd" d="M43.32314531 9.1570999c-.57926784 1.37974782-3.98407546 1.13243453-5.48373552-.56621726l-.16734404 1.01528613-1.37093389-1.1584675-1.20358984 1.57499514-.43123272-.61828322c-1.08773627-2.2128031-1.0362458-5.85741998 2.0724916-7.68623666C40.8902204 0 46.03926784 4.88769156 43.3231453 9.1570999z"/>
      <path fill="rgb(252,199,170)" fill-rule="evenodd" d="M35.9149533 9.60616877c-.17873724-.27219029-.2952674-.58122284-.34112439-.90464598-.0339828-.31415223.07770409-.62652604.30250654-.84607177.23847596-.22256312.59534206-.25463908.86890176-.07809893.16572503.15648925.25909003.375989.25745237.60526673-.00513878.2222604-.04645534.44214636-.12228988.65082444-.05149047.19524733-.10941726.39049466-.16734404.585742-.0237047.13854901-.0999006.26229199-.2123982.34493695-.12242794.05238462-.2634328.03237328-.36686964-.05206595-.0941575-.08458254-.16885234-.18899118-.21883451-.3058875z"/>
      <path fill="rgb(255,255,255)" fill-rule="evenodd" d="M40.38818827 34.7084675l8.34145686-4.86816682 11.88142697 6.93778855-8.34145686 4.86816683-11.88142697-6.93778855z"/>
      <path fill="rgb(29,29,27)" fill-rule="evenodd" d="M52.21168846 40.21444229l6.0243855-3.52096023.36043332.21477206-6.0243855 3.52096023-.36043332-.21477206z"/>
      <path fill="rgb(29,29,27)" fill-rule="evenodd" d="M51.22049682 39.64171678l6.03082182-3.52096023.22527083.13016489-6.03082182 3.52096023-.22527083-.13016489z"/>
      <path fill="rgb(29,29,27)" fill-rule="evenodd" d="M50.62835637 39.29027158l6.03082181-3.52096023.21883452.13016489-6.03082181 3.52096023-.21883452-.13016489z"/>
      <path fill="rgb(29,29,27)" fill-rule="evenodd" d="M50.0297796 38.94533463l6.03082182-3.52096024.21883452.1301649-6.02438551 3.52096023-.22527083-.1301649z"/>
      <path fill="rgb(29,29,27)" fill-rule="evenodd" d="M48.83906238 38.24895247l6.03082182-3.52096023.21883451.13016489-6.03082181 3.52096023-.21883452-.13016489z"/>
      <path fill="rgb(29,29,27)" fill-rule="evenodd" d="M48.24048562 37.89750727l6.03082181-3.51445198.22527083.12365664-6.03082182 3.52096023-.22527082-.13016489z"/>
      <path fill="rgb(29,29,27)" fill-rule="evenodd" d="M51.36853194 35.37881668l2.30419873-1.3472066.22527082.1301649-2.31063504 1.3472066-.21883451-.1301649z"/>
      <path fill="rgb(29,29,27)" fill-rule="evenodd" d="M47.0497684 37.20112512l6.03082181-3.51445199.21883452.12365665L47.2686029 37.33129l-.21883451-.13016489z"/>
      <path fill="rgb(29,29,27)" fill-rule="evenodd" d="M46.45119163 36.85618817l6.03082182-3.52096024.22527082.1301649-6.03082181 3.52096023-.22527083-.1301649z"/>
      <path fill="rgb(29,29,27)" fill-rule="evenodd" d="M47.26860291 35.68470417l4.62127008-2.69441319.21883452.12365664-4.61483377 2.70092144-.22527083-.13016489z"/>
      <path fill="rgb(29,29,27)" fill-rule="evenodd" d="M47.41020172 33.51095053l2.69037729-1.5684869.21883451.13016489-2.69037729 1.5684869-.21883451-.13016489z"/>
      <path fill="rgb(29,29,27)" fill-rule="evenodd" d="M46.81162495 33.16601358l2.6903773-1.5684869.22527082.13016488-2.6903773 1.5684869-.22527082-.13016488z"/>
      <path fill="rgb(29,113,184)" fill-rule="evenodd" d="M47.40376282 34.29190874c-.00349427.04125977-.00349427.08251954 0 .12365723.00759887.11535645.04295349.22705078.10298156.32543945.03862.078125.07724.21484375.23170472.25390625.03868103-.04968261.03868103-.1196289 0-.16931152l-.12228394-.2602539c-.0486145-.09753419-.10456848-.19104005-.16734314-.27990723.02792359-.08251953.0730133-.15637207.13096619-.21765137.07243347-.07287598.16184997-.12817383.26164245-.15979004-.10112.02929688-.19094848.085083-.26164245.15979004-.05766297.05810547-.10458374.12731934-.1374054.20471191-.0307312-.04626464-.06518554-.08972168-.10298156-.13024902-.30421448-.24829101-.55592347-.5559082-.74017334-.90466309-.04177857-.1517334-.01338196-.31445312.07723999-.44250488.13627624-.17211914.34944152-.26269531.56639099-.24084472.10116577.00219726.19456482.05529785.2488861.14160156.0543213.0863037.06236268.194458.0214386.28796387-.07395935.15673828-.1843872.29296875-.32180786.39697265h.03860474c.23814392-.21472168.51490784-.5270996.23171997-.77441406-.14500427-.0958252-.32603455-.11755371-.48916626-.05859375-.15924072.04101562-.29444885.14709473-.37330627.29284668-.16734314.29284668 0 .6052246.2703247.86560058.14160156.15625.3025055.3059082.44410706.4621582l.09010315.12353516zm.26011657.4621582c-.01026916-.0180664-.02020263-.03552245-.02841186-.05212402-.06436157-.12365722-.12228394-.24731445-.20596314-.37097168-.00292968.02807618-.00292968.05651856 0 .08459473.00991822.0979004.03831482.1928711.0836792.27990723.02113343.04467773.0447693.08813476.07080079.13012695.02349853.06311035.0727539.11291504.13516235.13671875.02534485-.06665039-.0171814-.14135742-.05526734-.20825195z"/>
      <path fill="rgb(29,113,184)" fill-rule="evenodd" d="M46.95321655 34.32450152c.1442566.03015136.13858032-.10681153.11964417-.18859864.01480102-.00671386.03118896-.01318359.04127502-.01318359.03218079 0 .04504395-.07800293 0-.12365723-.05909729-.08618164-.125885-.16687011-.19952392-.24072265-.09664917-.13110352-.2688141-.1793213-.41836548-.1171875-.04145813.01965332-.07014466.05908203-.07652283.10461426-.00683594.00341796-.01351929.00756836-.02001953.01245117l.00065613.0081787c.00576782-.00537109.01200866-.0102539.01864624-.01464843l.00071716-.00610351c.02236939-.01147461.04634094-.01611329.07115173-.01538086.02017212-.03747559.05467225-.06494141.09547425-.0760498.0705719-.02600099.1494751-.01098634.20596313.0390625.07536316.05249023.14260864.11621093.19952393.1887207.00694275.00793456.01539612.0168457.02461242.02661132.05917359.06262207.14900208.15783692.06550599.21411133l-.01052857.00720215c-.00524902-.02124024-.0112152-.03808594-.01522827-.04614258-.07745361-.1505127-.1987915-.27319336-.34754944-.3515625-.06759643-.03417969-.1469574-.03479004-.21499634-.00183105.13938904.00610351.30342102.17712402.3501587.22973632.04266357.04711915.07550048.102417.09654235.16259766.00624085.03222656.00624085.06542969 0 .09765625.0035553.01501465.0035553.03063965 0 .04553223 0 .03125-.0208435.0415039-.04699707.0402832.0194397.00756836.03944397.01367188.05986023.01831055zm-1.01049804.1171875c.08050537.0637207.18875122.07861328.28320312.0390625.07724-.05859375.03862-.16271973 0-.2277832.23675537.2281494.49797058.42907714.77879334.59875488h.03862c-.04112245-.11499024-.10966493-.21777344-.19952393-.29943848-.11006165-.11865234-.20916749-.24707031-.29608155-.3840332-.0381012-.05847168-.0724945-.1192627-.10298157-.1821289l-.00726318-.01452638c-.02355957-.04675293-.0482788-.09594726-.02767944-.14587402-.00453186-.01940918-.00769043-.03918457-.00946045-.0592041-.01831055.01708984-.03192139.03894043-.03927612.0633545 0 .05859374 0 .13012694.05793762.1887207.0475006.09057617.10125732.17749023.16090393.26037597.06539917.0970459.13859558.18847656.21884155.27331543.07995606.07775879.1472931.16784668.19952393.2668457-.31715393-.18884277-.60369873-.42590332-.84959412-.70288086l-.10942078-.13671875h-.03862l.11586.13671875c.05104064.06872559.08422851.149292.09654235.23425293.0093689.02966309.0093689.06152344 0 .09118653-.02870178.07263183-.13922119.03710937-.21121216.01391601-.0238037-.00769043-.04293823-.01391601-.05267334-.01391601h-.0064392zm0 .07019043c-.01013184-.02258301-.0230713-.04406739-.03862-.0637207-.06829834-.04492188-.12554932-.10498047-.16734314-.17578126.06794739.04492188.1269226.10229493.17378235.16931153h.03218079v.07019043zm-.0590973.13891601c.04281617.0168457.08483887.00805664.08483887-.03344726-.00215149-.0366211-.0109558-.0723877-.02574157-.10546875v.09899902c-.01553345.0197754-.0363617.0333252-.0590973.039917zm-.30963134-.10986328c-.001297-.0114746-.00282288-.02282715-.00457764-.03417969h.03218079l.2317047.1105957c.0149994.0152588.03273011.02648926.0503235.03344727-.02671814.00769043-.05607605.00561524-.08250428-.00732422-.07929992-.0255127-.15548706-.05993652-.22712707-.10253906zm.07362366.28479004c-.00398255-.01086426-.0085907-.02185059-.01382447-.03271484l-.08547973.00012207c.01286316-.00390625.0211029-.01367188.0211029-.03259278.01127625-.0727539.01280213-.14660644.00457764-.21960449-.00802612-.00476074-.01597595-.00964355-.02388-.01464844v.15625c.01426696.04003907.00123596.0847168-.0321808.1105957-.02456664-.00207519-.05369567-.01257324-.0775299-.02111816-.01750183-.00634765-.03172302-.0114746-.03833008-.0114746-.01654053-.0065918-.03492737-.0065918-.05148315 0 .08886718.05603027.1939392.07885742.29702759.06518554zm-.00001526 0c.0125885-.00158691.02516174-.00378418.03765869-.0065918.1017456.23144532-.0980835.46936036-.48776245.56286621.34642028-.1060791.5323944-.33081054.45010376-.5562744zm.80360412-.89172363c-.01872253-.03417969-.03260803-.07055664-.0413971-.10839844.00656129-.01586914.0177002-.03186035.0349579-.04785156.0144348.08361816.04989623.16210937.10298156.2277832.05230713.078125.11764526.1463623.19308472.20178223.04374695.04333496.09571838.0769043.15254211.09875488-.03379822-.00146484-.07647705-.02185059-.09461975-.04016113-.1457367-.07348633-.26669311-.18896485-.34754944-.33190918zm-1.33876037 1.4708252c.02433777-.00561524.0480194-.01184083.0710144-.0185547-.12893677-.00097656-.12249756.0185547-.0710144.0185547z"/>
      <path fill="rgb(252,199,170)" fill-rule="evenodd" d="M43.82517744 31.21354025c-.16396493.41432803-.18883893.87163727-.0707994 1.30164889l-.14159881.37747817-.10941726.34493696-.1415988.60526673c-.12820108.12995791-.30122878.20460817-.4827232.20826382l-.270325.42303589c-.05792677.11064015-.19952558.13667313-.40548748.09111542l-.33468808.34493695c-.2059619.16921436-.74661188.0585742-1.3773702 0h-.04505416l-1.07486365-.5271678s-.33468808-.14968962-.40548749-.39049466c-.09010833-.34493695 0-.4100194 0-.56621726 0-.15619787-.29607022-.27985451-.29607022-.65082445 0-.37096993.29607022-.46208535.32181546-.65082444.02574524-.18873909-.14803511-.21477206 0-.6898739.10941726-.3644617.52134106-.37096994.64363093-.56621727.06698542-.31548107.19138886-.61562071.36686963-.88512124.28319761-.292871.9654464 0 .9654464 0l.74661188.42303588 1.61551363-.18873908.16734404.07809893c.33057494.17142494.47388614.5720665.32825178.91766246z"/>
      <g opacity=".5">
        <path fill="rgb(252,175,117)" fill-rule="evenodd" d="M41.89428465 30.5171581l1.20358984.14968962v1.19100873c-.23957885-.32639973-.5066065-.63125206-.79810236-.91115422l-.40548748-.42954413z"/>
      </g>
      <path fill="rgb(29,29,27)" fill-rule="evenodd" d="M44.5589167 34.63687682l-4.67919686-6.0787003c-.05636229-.07008544-.0820405-.16037217-.07110939-.25002655.01093111-.08965437.05752718-.17093099.12903617-.22507529.14464534-.1106868.3501644-.0847098.46341427.0585742l4.7113784 6.0787003c.10941727.14968962.39905118.77448108.25745238.89162948-.1415988.1171484-.6951214-.33192046-.81097497-.47510184z"/>
      <g opacity=".5">
        <path fill="rgb(252,175,117)" fill-rule="evenodd" d="M43.63852447 32.9187003l-.1351625.31890397-.1415988.60526673c-.12820108.12995791-.30122878.20460817-.4827232.20826382l-.270325.42303589c-.05792677.11064015-.19952558.13667313-.40548748.09111542l-.33468808.34493695c-.2059619.16921436-.74661188.0585742-1.3773702 0 .44857122-.71136843.70999693-1.52681333.7594845-2.36900097l-.64363092-1.02830261 2.67750467.91766246.353997.48811833z"/>
      </g>
      <path fill="rgb(252,199,170)" fill-rule="evenodd" d="M40.23371685 31.19401552l1.19071722 1.00877788 1.5962047.50113483c.64363093.20175557.87533807-.55970903.2767613-.86559651-.0707994-.03904947-1.28726186-.54018429-1.28726186-.54018429l-.98475532-1.23656644c-.28441801-.03511293-.56493252.09053238-.73032788.3271213-.16539536.23658891-.18895497.54590484-.06133816.80531323z"/>
      <g opacity=".5">
        <path fill="rgb(252,175,117)" fill-rule="evenodd" d="M41.4501793 30.41302619l-.6951214-.08460718 1.26795293.96972842-.3475607-.88512124h-.22527082z"/>
      </g>
      <path fill="rgb(178,178,178)" fill-rule="evenodd" d="M45.40207322 35.24214355c-.009957.00581293-.02222455.00581293-.03218155 0l-.09010833-.1171484s.05149047-.09762367.07723571-.0585742l.09010833.1171484c.00864894.0085689.01352282.02029738.01352282.03254122 0 .01224384-.00487388.02397232-.01352282.03254122l-.04505416-.00650824z"/>
      <path fill="rgb(252,199,170)" fill-rule="evenodd" d="M53.3509152 30.01602328c.24457976.4100194-.19952558.87210475-.52134105.5727255l-.14803511-.07809893c.14803511.28636276-.2767613.79400582-.64363093.47510185l-.36043332-.3514452c-.03861786.40351115-.17378036.61177497-.57283153.34493695l-1.15209937-1.42530553-1.37093388-1.03481086v.79400582l.43123272.77448109c.24457976.50113482-.19308927.91766246-.52134105.4685936l-.37974225-.57272551-.22527082-.31239574-.28963392-.89813773c.01922496-.6848869.13185053-1.36381263.33468808-2.01755577l-.46985058-.38398642 1.3773702-.94369544.7015577.4100194c.98285698.27029331 1.87342062.8083522 2.57452373 1.55547042l1.09417258 1.6400776c.3475607.44906886.36686963.88512123 0 .73543161l.1415988.24731329z"/>
      <path fill="rgb(255,255,255)" fill-rule="evenodd" d="M45.62734404 20.29921435c-1.73837368-.09584038-3.39927909.73648442-4.37669032 2.19327838 1.853148 2.10617852 4.02570916 3.900999 6.4363093 5.31723569-.09654464-.83956353 1.2422077-2.32344326 2.0016922-1.95247333-1.64769519-2.82457808-2.32994398-3.82684772-4.06131118-5.55804074z"/>
      <rect width="2.952" height=".973" x="63.629" y="35.248" fill="rgb(51,51,50)" rx="0" ry="0" transform="rotate(-29.886538 65.10487107 35.73432953)"/>
      <path fill="rgb(51,51,50)" fill-rule="evenodd" d="M54.20694434 30.58224054l9.86042585 5.7272551c0 .44906886-.30894285.65082444-.6886851.40351115l-8.48949196-4.92674103c-.4045397-.26509306-.65839164-.7106666-.68224879-1.19751697v-.00650825z"/>
      <path fill="rgb(87,87,86)" fill-rule="evenodd" d="M76.65679118 28.89660524l-9.8346806-5.68169738-12.61516624 7.36733268 9.86042585 5.7272551 12.589421-7.4128904z"/>
      <path fill="rgb(218,218,218)" fill-rule="evenodd" d="M62.8251625 33.97303589l.5599589.32541222-.6951214.4100194-.5599589-.33192047.6951214-.40351115z"/>
      <path fill="rgb(218,218,218)" fill-rule="evenodd" d="M65.0456892 33.33522793l-.6951214.40351116-.5599589-.33192047.68868509-.40351115.56639521.33192046z"/>
      <path fill="rgb(218,218,218)" fill-rule="evenodd" d="M65.30957789 32.52169738l.5599589.32541222-.68868509.40351116-.55995891-.32541222.6886851-.40351116z"/>
      <path fill="rgb(218,218,218)" fill-rule="evenodd" d="M66.13986179 32.03357905l.56639521.33192047-.6951214.40351115-.55995891-.33192047.6886851-.40351115z"/>
      <path fill="rgb(218,218,218)" fill-rule="evenodd" d="M66.97014569 31.55196896l.5599589.32541222-.6886851.40351116-.5599589-.32541222.6886851-.40351116z"/>
      <path fill="rgb(218,218,218)" fill-rule="evenodd" d="M69.1971087 30.90765276l-.6951214.40351116-.55995891-.32541222.6886851-.40351116.56639521.32541222z"/>
      <path fill="rgb(218,218,218)" fill-rule="evenodd" d="M69.46099739 30.09412221l.5599589.33192047-.6886851.40351115-.5599589-.32541222.6886851-.4100194z"/>
      <path fill="rgb(218,218,218)" fill-rule="evenodd" d="M70.29128129 29.61251212l.5599589.32541223-.6886851.40351115-.5599589-.32541222.6886851-.40351116z"/>
      <path fill="rgb(218,218,218)" fill-rule="evenodd" d="M68.0128278 27.15239573l-.55995892-.32541222.6951214-.40351115.55995892.32541222-.6951214.40351115z"/>
      <path fill="rgb(218,218,218)" fill-rule="evenodd" d="M68.8431117 26.67078565l-.55995892-.33192047.6951214-.40351115.55995892.32541222-.6951214.4100194z"/>
      <path fill="rgb(218,218,218)" fill-rule="evenodd" d="M69.11343668 25.8572551l.6951214-.40351116.55995892.32541222-.6951214.40351115-.55995892-.32541222z"/>
      <path fill="rgb(218,218,218)" fill-rule="evenodd" d="M59.17577512 32.52169738l-.5599589-.32541222.6951214-.40351115.5599589.32541222-.6951214.40351115z"/>
      <path fill="rgb(218,218,218)" fill-rule="evenodd" d="M60.00605902 32.0400873l-.5599589-.33192047.6951214-.40351116.5599589.32541223-.6951214.4100194z"/>
      <path fill="rgb(218,218,218)" fill-rule="evenodd" d="M64.85259993 29.20900097l-1.25508032.73543162-.27032499.15619787-.1351625.07809893-.3475607.20175558-.4827232.28636275-.6951214.40351115-.8302839.4816101-.5599589-.32541223 2.27201718-1.32768186.08367202-.04555771 1.6605678-.96972842.5599589.32541222z"/>
      <path fill="rgb(218,218,218)" fill-rule="evenodd" d="M64.98776242 29.13090204l-.5599589-.32541222.6951214-.4100194.5599589.33192046-.6951214.40351116z"/>
      <path fill="rgb(218,218,218)" fill-rule="evenodd" d="M65.81804632 28.64929195l-.5599589-.33192047.6951214-.40351115.5599589.32541222-.6951214.4100194z"/>
      <path fill="rgb(218,218,218)" fill-rule="evenodd" d="M66.08837131 27.8357614l.6951214-.40351116.55995891.32541222-.6951214.40351116-.5599589-.32541222z"/>
      <path fill="rgb(218,218,218)" fill-rule="evenodd" d="M68.1544266 27.23049467l.6886851-.40351116.5599589.32541222-.6886851.4100194-.5599589-.33192046z"/>
      <path fill="rgb(218,218,218)" fill-rule="evenodd" d="M68.97827419 26.74888458l.6951214-.40351116.55995891.32541223-.6886851.40351115-.56639521-.32541222z"/>
      <path fill="rgb(218,218,218)" fill-rule="evenodd" d="M69.8149944 26.26076625l.6886851-.40351116.5599589.32541222-.6886851.4100194-.5599589-.33192046z"/>
      <path fill="rgb(218,218,218)" fill-rule="evenodd" d="M59.31737393 32.59979631l.6886851-.40351115.56639521.33192047-.6951214.40351115-.55995891-.33192047z"/>
      <path fill="rgb(218,218,218)" fill-rule="evenodd" d="M61.40273814 32.0400873l-.6951214.40351115-.55995891-.32541222.6886851-.40351116.56639521.32541222z"/>
      <path fill="rgb(218,218,218)" fill-rule="evenodd" d="M62.22658573 31.5584772l-.6886851.40351116-.5599589-.33192046.6886851-.40351116.5599589.33192047z"/>
      <path fill="rgb(218,218,218)" fill-rule="evenodd" d="M63.05686963 31.07035887l-.6886851.40351116-.5599589-.32541222.6886851-.40351116.5599589.32541222z"/>
      <path fill="rgb(218,218,218)" fill-rule="evenodd" d="M63.88715353 30.58874879l-.6886851.40351115-.56639521-.32541222.6951214-.4100194.55995891.33192047z"/>
      <path fill="rgb(218,218,218)" fill-rule="evenodd" d="M64.71743743 30.10063046l-.6886851.40351115-.5599589-.32541222.6886851-.40351116.5599589.32541223z"/>
      <path fill="rgb(218,218,218)" fill-rule="evenodd" d="M65.54772133 29.61902037l-.6886851.40351115-.5599589-.32541222.6886851-.4100194.5599589.33192047z"/>
      <path fill="rgb(218,218,218)" fill-rule="evenodd" d="M66.37800523 29.13090204l-.6886851.40351115-.56639521-.32541222.6951214-.40351115.55995891.32541222z"/>
      <path fill="rgb(218,218,218)" fill-rule="evenodd" d="M67.20828913 28.64929195l-.6886851.40351115-.56639521-.32541222.6951214-.40351115.55995891.32541222z"/>
      <path fill="rgb(218,218,218)" fill-rule="evenodd" d="M68.849548 27.64051406l.6951214-.40351115.55995892.32541222-.6951214.40351116-.55995892-.32541223z"/>
      <path fill="rgb(218,218,218)" fill-rule="evenodd" d="M70.93491222 27.0742968l-.6951214.4100194-.55995892-.33192047.6951214-.40351115.55995892.32541222z"/>
      <path fill="rgb(218,218,218)" fill-rule="evenodd" d="M70.5101158 26.67078565l.6951214-.40351116.55995892.32541222-.69512141.40351116-.5599589-.32541222z"/>
      <path fill="rgb(218,218,218)" fill-rule="evenodd" d="M60.01249533 33.00981571l.6951214-.40351115.55995891.32541222-.6951214.40351115-.5599589-.32541222z"/>
      <path fill="rgb(218,218,218)" fill-rule="evenodd" d="M62.09785954 32.4501067l-.6951214.40351115-.55995891-.32541222.6951214-.4100194.55995891.33192046z"/>
      <path fill="rgb(218,218,218)" fill-rule="evenodd" d="M61.67306313 32.0400873l.6951214-.40351116.55995891.32541222-.6951214.40351116-.55995891-.32541223z"/>
      <path fill="rgb(218,218,218)" fill-rule="evenodd" d="M62.50334703 31.5584772l.6951214-.4100194.55995891.33192047-.6951214.40351116-.55995891-.32541222z"/>
      <path fill="rgb(218,218,218)" fill-rule="evenodd" d="M63.33363093 31.07035887l.6951214-.40351115.55995891.32541222-.6951214.40351116-.55995891-.32541223z"/>
      <path fill="rgb(218,218,218)" fill-rule="evenodd" d="M64.16391483 30.58874879l.6951214-.4100194.55995891.33192046-.6951214.40351116-.55995891-.32541222z"/>
      <path fill="rgb(218,218,218)" fill-rule="evenodd" d="M66.24927904 30.02253152l-.6951214.4100194-.55995891-.33192046.6951214-.40351116.55995891.32541222z"/>
      <path fill="rgb(218,218,218)" fill-rule="evenodd" d="M65.82448263 29.61902037l.6951214-.4100194.55995891.33192047-.6951214.40351115-.55995891-.32541222z"/>
      <path fill="rgb(218,218,218)" fill-rule="evenodd" d="M68.04500934 28.97470417l-.8302839.48811833-.55995891-.33192046.8302839-.48161009-.70155771-.4100194.6951214-.40351115.6951214.4100194.23170714.13016488.33468808.19524734-.46341427.26683802-.23170713.13667313z"/>
      <path fill="rgb(218,218,218)" fill-rule="evenodd" d="M70.10462832 28.37594568l-.55995891-.33192046.6951214-.40351116.55995891.33192047-.6951214.40351115z"/>
      <path fill="rgb(218,218,218)" fill-rule="evenodd" d="M71.07007471 27.15890398l.55995891.32541222-.6951214.40351115-.55995891-.32541222.6951214-.40351115z"/>
      <path fill="rgb(218,218,218)" fill-rule="evenodd" d="M71.2052372 27.0742968l.69512141-.40351115.55995891.33192046-.6951214.40351115-.55995891-.33192046z"/>
      <path fill="rgb(218,218,218)" fill-rule="evenodd" d="M60.70761674 33.41983511l.6951214-.4100194.5599589.33192047-.6951214.40351115-.5599589-.32541222z"/>
      <path fill="rgb(218,218,218)" fill-rule="evenodd" d="M62.09785954 33.257129l-.5599589-.32541222.6951214-.40351115.5599589.32541222-.6951214.40351115z"/>
      <path fill="rgb(218,218,218)" fill-rule="evenodd" d="M62.36818453 32.4501067l.6951214-.4100194.55995892.33192046-.6951214.40351115-.55995892-.32541222z"/>
      <path fill="rgb(218,218,218)" fill-rule="evenodd" d="M63.89358984 31.5584772l.5599589.32541223-.6951214.4100194-.5599589-.33192047.6951214-.40351115z"/>
      <path fill="rgb(218,218,218)" fill-rule="evenodd" d="M64.02875233 31.48037827l.6951214-.4100194.55995892.33192047-.6951214.40351115-.55995892-.32541222z"/>
      <path fill="rgb(218,218,218)" fill-rule="evenodd" d="M64.85903623 30.99225994l.6951214-.40351115.55995892.32541222-.6951214.40351115-.55995892-.32541222z"/>
      <path fill="rgb(218,218,218)" fill-rule="evenodd" d="M66.24927904 30.83606208l-.5599589-.32541223.6951214-.40351115.5599589.32541222-.6951214.40351116z"/>
      <path fill="rgb(218,218,218)" fill-rule="evenodd" d="M66.51960403 30.02253152l.6951214-.40351115.55995892.32541222-.6951214.4100194-.55995892-.33192047z"/>
      <path fill="rgb(218,218,218)" fill-rule="evenodd" d="M68.18017183 29.0528031l.25101607-.14318137.44410534-.26032978.5599589.32541222-.43766902.26032978-.25745238.14968962-.8302839.48161009-.5599589-.32541222.8302839-.48811834z"/>
      <path fill="rgb(218,218,218)" fill-rule="evenodd" d="M72.19642884 28.78596508l-.6951214.40351116-.55995892-.32541222.6951214-.4100194.55995892.33192046z"/>
      <path fill="rgb(218,218,218)" fill-rule="evenodd" d="M72.46675383 27.97243453l.5599589.32541222-.6951214.40351115-.5599589-.32541222.6951214-.40351115z"/>
      <path fill="rgb(218,218,218)" fill-rule="evenodd" d="M73.29703773 27.4843162l.5599589.33192046-.6951214.40351116-.5599589-.32541222.6951214-.4100194z"/>
      <path fill="rgb(135,135,135)" fill-rule="evenodd" d="M60.21202092 27.9398933l1.63482256.97623667c.0882756.0387428.1884857.0387428.2767613 0l2.51016063-1.47086324c.0707994-.03904947.0707994-.11064015 0-.15619786l-1.66700411-.96972842c-.08458225-.0451282-.18574274-.0451282-.270325 0l-2.51016062 1.464355c-.05149047.03904946-.05149047.11064015.02574524.15619786z"/>
      <path fill="rgb(74,74,73)" fill-rule="evenodd" d="M76.69540904 29.05931135l2.70968622-10.02920466c.36434853.31250047.54828463.78971642.4891595 1.26910766l-2.3556892 8.7015228c-.09654464.36446169-.47628689.3970029-.83672021.06508244l-.00643631-.00650824z"/>
      <path fill="rgb(74,74,73)" fill-rule="evenodd" d="M66.79636533 26.39093113l-2.05961897 10.23096024 12.60872992-7.36082444 2.05961898-10.23096024-12.60872993 7.36082444z"/>
      <path fill="rgb(51,51,50)" fill-rule="evenodd" d="M64.0738065 36.42664403l2.71612253-10.02920465c.36496925.31171412.54705635.79043182.4827232 1.26910766l-2.3492529 8.7015228c-.10298095.36446168-.4762869.3970029-.84315652.06508244l-.00643631-.00650825z"/>
      <path fill="rgb(218,218,218)" fill-rule="evenodd" d="M72.14493836 28.2457808c-.0707994.43605237.19308928.60526673.59214046.39049466.43034176-.25893944.73728336-.68452544.84959283-1.17799224.0707994-.42954413-.19308928-.60526673-.59214046-.39049467-.43034176.25893944-.73728335.68452544-.84959283 1.17799225z"/>
      <path fill="rgb(237,237,237)" fill-rule="evenodd" d="M36.98981696 46.94396702l9.21679492-4.25639185-3.8102951-15.2813579-9.21035862 4.25639185 3.8038588 15.2813579z"/>
      <path fill="rgb(29,29,27)" fill-rule="evenodd" d="M34.91088905 32.671387l6.65514382-3.0783996-.11585356-.46208536-6.65514382 3.07189136.11585356.4685936z"/>
      <path fill="rgb(29,29,27)" fill-rule="evenodd" d="M35.22626821 33.94049467l6.65514382-3.07839962-.0707994-.28636275-6.65514382 3.07839961.0707994.28636276z"/>
      <path fill="rgb(29,29,27)" fill-rule="evenodd" d="M35.41292118 34.70195926l6.66158013-3.07189136-.0707994-.28636276-6.66158013 3.07189137.0707994.28636275z"/>
      <path fill="rgb(29,29,27)" fill-rule="evenodd" d="M35.60601046 35.4699321l6.66158013-3.07189136-.0707994-.28636276-6.66158013 3.07189137.0707994.28636275z"/>
      <path fill="rgb(29,29,27)" fill-rule="evenodd" d="M35.9857527 36.99936954l6.66158014-3.07189136-.0707994-.28636276-6.66158013 3.07839961.0707994.27985451z"/>
      <path fill="rgb(29,29,27)" fill-rule="evenodd" d="M36.17884199 37.76734239l6.66158012-3.07189137-.0772357-.28636276-6.65514383 3.07189137.0707994.28636276z"/>
      <path fill="rgb(29,29,27)" fill-rule="evenodd" d="M40.4782966 36.63490786l2.54877848-1.171484-.0707994-.28636275-2.54877848 1.17799224.0707994.2798545z"/>
      <path fill="rgb(29,29,27)" fill-rule="evenodd" d="M36.55858424 39.30328807l6.66158012-3.07839961-.0707994-.27985451-6.66158013 3.07189137.0707994.28636275z"/>
      <path fill="rgb(29,29,27)" fill-rule="evenodd" d="M36.75167352 40.06475267l6.65514381-3.07189137-.0707994-.28636275-6.65514382 3.0783996.0707994.27985452z"/>
      <path fill="rgb(29,29,27)" fill-rule="evenodd" d="M38.50234965 40.11031038l5.09755696-2.34947624-.0707994-.28636275-5.09755697 2.35598448.0707994.2798545z"/>
      <path fill="rgb(29,29,27)" fill-rule="evenodd" d="M41.20559955 41.431484l2.96713859-1.37323958-.0707994-.28636275-2.9671386 1.37323957.07079941.28636276z"/>
      <path fill="rgb(29,29,27)" fill-rule="evenodd" d="M41.39225252 42.1929486l2.9735749-1.36673134-.0707994-.28636275-2.9735749 1.37323957.0707994.27985451z"/>
      <path fill="rgb(29,113,184)" fill-rule="evenodd" d="M38.14190674 41.69828081c-.82147217.44482422-1.24214173 1.39453125-1.0233612 2.3104248.0569458.41784669.3049774.7841797.66955566.98901368.36457824.20471191.80322265.2241211 1.18409729.05236816.83366394-.4498291 1.256073-1.41687011 1.02337646-2.34301757-.05003357-.42041016-.2992096-.79003907-.66799927-.99072266-.36877441-.2006836-.81106567-.20739746-1.18566894-.0180664zm-.29223633 3.17651368c-.34034729-.1842041-.57533264-.51940918-.63458252-.90515137-.2121582-.86328125.1795044-1.7623291.95257568-2.18676758.3514557-.16125488.75723267-.1472168 1.0969696.03796387.33973695.18518066.57440186.52026367.63438416.90576172.20890809.86108398-.18228149 1.75646972-.95256042 2.18017578-.35029602.1640625-.75645447.15222168-1.0967865-.03198242z"/>
      <path fill="rgb(29,113,184)" fill-rule="evenodd" d="M38.19984436 41.91312456c-.7095337.38476563-1.06808472 1.20922852-.86889648 1.99804688.05270385.35375976.26679992.6619873.57809448.83215332.31129455.17016602.68357849.18261719 1.00523376.03344727.70845032-.3861084 1.068573-1.20812989.8753357-1.99804688-.05703736-.35290527-.27287293-.65893555-.584198-.82849121s-.68284607-.18322754-1.00556946-.03710938zm-.25456238 2.78161622c-.29379272-.16064454-.49702453-.45019532-.5499878-.78369141l-.0064392-.02600098c-.17419434-.7409668.16662598-1.50769043.83029175-1.86791992.30560303-.14025879.65847778-.12817383.95399475.03271484.2955017.16088868.49972534.45214844.5520935.78735352.18003846.74865723-.16078186 1.52612305-.83027648 1.8939209-.3049469.13769531-.65589905.12426758-.94967652-.03637695z"/>
      <path fill="rgb(29,113,184)" fill-rule="evenodd" d="M38.34788513 42.4923482c-.42271423.22973633-.6374054.72021484-.52134704 1.19104004.01629638.2265625.14822387.42810058.3480835.53186035.19985961.1036377.4387207.09448242.63023376-.02416992.42384338-.22839356.63694763-.72143555.51490783-1.19104004-.01745605-.2244873-.14840698-.4239502-.3462677-.52722168-.19784546-.10339356-.43447876-.09594727-.62561035.01953125zm-.13259888 1.62646484c-.16592407-.09020996-.2844696-.24926758-.32437133-.4354248v-.03259278c-.0938263-.4197998.10107422-.85119629.47627258-1.05432129.17477417-.06677246.3696289-.0534668.53393555.03649903.16430664.08996582.28184509.2475586.32209778.4321289.10873413.42834473-.08503724.87658692-.46984864 1.086792-.17552185.0690918-.37217712.05700683-.53808594-.03308106z"/>
      <path fill="rgb(29,113,184)" fill-rule="evenodd" d="M38.03249907 42.53788555s-.11585357-.24080505-.09654464-.25382153l.09654464.18873908c-.00907692-.09088428-.00907692-.18246198 0-.27334626.00907691-.09088428.12228987.2342968.09654464.24731329l-.09654464-.1887391v.27985452z"/>
      <path fill="rgb(29,113,184)" fill-rule="evenodd" d="M37.98744202 42.6420064v-.12365723l-.07722473-.09106445-.03829957.04553223h-.06469726v.04553222c-.00370789.01123047-.00460816.0230713-.0027008.03466797l-.00372315.00439453.00593567.00695801-.00219727-.01135254.06738281-.0802002h.01255799l.07078552.09118653c.00608826.01452637.00608826.03100586 0 .04553223.00442505.01257324.00442505.02636718 0 .0390625-.00108337.00183105-.00228882.00354004-.00360107.00512695.02264404-.00146484.02804565-.0078125.03578186-.01171875zm-.10942078.00646973c.0359497.00524902.05859375.00622558.07362366.00524902-.00848389.01049805-.02131653.0168457-.03500366.0168457-.01582337 0-.0304718-.00842285-.03862-.02209472z"/>
      <path fill="rgb(29,113,184)" fill-rule="evenodd" d="M37.72355622 42.58344326l-.03861786.0585742s.18021666.14318138.16734405.1627061l-.18021666-.13667312s-.03861786.0585742-.05149048.0455577c-.01287262-.01301648.08367202-.14968961.10298095-.13016488z"/>
      <path fill="rgb(29,113,184)" fill-rule="evenodd" d="M37.7557373 42.88932085h.05793763l-.01931763-.00646972c-.0820465-.02209473-.16619873-.03515625-.25100708-.0390625-.01287842.03259277.12872314.23425293.16734314.21472168.03862-.01953125 0-.05847168 0-.05847168l.04504394-.11071778zm-.16734313 0h.14804077l-.03862.1105957-.10942077-.1105957z"/>
      <path fill="rgb(29,113,184)" fill-rule="evenodd" d="M37.4854126 43.0585103c0-.00500488.0361023-.00134277.08021545.00646973h-.08021545v-.00646972zm0 .04125977l-.01287842-.03466797h.01287842v.03466797zm.0064392.04602051v-.02868652l-.0064392-.01733399v.04333496l.0064392.00268555zm.04586793.0213623c-.00469971-.00085449-.00930786-.00231933-.01368714-.0045166-.01055908.00280762-.0216217.00280762-.03218078 0v-.0168457c.01556396.0065918.03086853.01367187.04586792.0213623zm0 0c.01054382.00183106.02153015.00036622.0313568-.00439453v-.0970459c.07015992.01269532.15838624.03564454.15447999.0513916h-.10298157v.05212403s.09010315.08459473.07724.1105957c-.04794312-.04504394-.10185243-.08288574-.16009522-.1126709z"/>
      <path fill="rgb(29,113,184)" fill-rule="evenodd" d="M37.68493836 43.39697381h-.09654464s-.1415988.09762367-.14803511.07159069l.12872619-.08460718s-.12228988-.07159069-.10941726-.09762366l.1351625.08460717s.09010832-.00650824.09010832.02603298z"/>
      <path fill="rgb(29,113,184)" fill-rule="evenodd" d="M37.60127258 43.68326617l.09010315-.0324707c0-.05212403-.21884155.09106445-.21884155.09106445l-.00157166.01550293-.0112915.00402832.0104065.01049804c-.00083924.02038574-.00001526.04077149.00245666.06103516h.1287384c.01126099-.04919434.01126099-.1003418 0-.1496582zm-.13119507.08862304l.00090027-.01452636.09811402-.03503418v.05859375c.00354004.01501464.00354004.03051757 0 .04553222-.01257325.00402832-.02606201.00402832-.03862 0h-.0450592c-.00689697-.01208496-.00689697-.02697754 0-.0390625l-.01533509-.01550293z"/>
      <path fill="rgb(29,113,184)" fill-rule="evenodd" d="M37.51115417 43.95670367c.01287842.02600097.17378235-.078125.17378235-.078125l.00398255-.00158692.0333252.0480957c.00822448-.01525878.00822448-.03210449.00131225-.04650878-.0109253-.00512696-.02339173-.0057373-.03463745-.00158692l-.01686096-.02441406-.16090394.10412598zm.21240235.00646972v-.03625488l.03862.05578613s-.16090394.10412598-.17378235.078125l.13516235-.09765625z"/>
      <path fill="rgb(29,113,184)" fill-rule="evenodd" d="M37.82653809 43.99576617c.02629089.04382324.04379272.0925293.05148315.14318847l-.10298157.09106446c-.03797912.03356933-.04782104.0423584-.05111694.0402832-.00123596-.00073242-.0015564-.00305176-.00198364-.00610352-.00161743-.01135254-.00483704-.03417968-.06274414-.03417968-.016922-.0213623-.02998352-.04553223-.03862-.0715332.0649414-.0588379.13375855-.11328126.20596314-.16271973zm0 0l-.09010315.08459472v.0246582l-.0836792.06652833c.02217102.02746582.05499267.04406738.09010315.04553222.00442505-.01269531.00442505-.02648926 0-.0390625.00502014-.01257324.00502014-.02648926 0-.0390625v-.01013183c.00849914.00268554.01785278.00170898.02575683-.0029297h.04504395c.00608825-.01452636.00608825-.03100585 0-.04553222.00579834-.0123291.00579834-.0267334 0-.0390625l.01287842-.04553222zm-.08366394.13305664c-.00221253-.00073243-.00437928-.00170899-.00643921-.0029297v-.02087401l.0064392-.00512696v.02893067z"/>
      <path fill="rgb(29,113,184)" fill-rule="evenodd" d="M38.03249907 44.24955383l-.07723572-.07159069s-.1480351.22128031-.16734404.20175558c-.01930893-.01952473.16090774-.22778856.17378035-.2342968.01287262-.00650824.0707994.08460718.0707994.10413191z"/>
      <path fill="rgb(29,113,184)" fill-rule="evenodd" d="M38.07111692 44.30161979s-.1351625.25382153-.15447142.24080504c-.01930893-.01301649.11585357-.28636275.15447142-.24080504z"/>
      <path fill="rgb(29,113,184)" fill-rule="evenodd" d="M38.12904358 44.37320757c.01194763-.006958.02667236-.006958.03862 0h-.03862zm-.04769898.17211914c.00068665-.00317383.00157166-.00634765.00265503-.00939941l.04504395-.12365723v-.0390625h-.05148316l-.0450592.12365723c-.00279236.01281738-.00279236.02624512 0 .0390625.01625061.00292969.03277588.00610351.04884338.00939941zm0 0c-.00305175.01416016-.00216674.02893067.00263977.04260254h.09010315c.07673645 0-.00054931-.02355957-.09274292-.04260254z"/>
      <path fill="rgb(29,113,184)" fill-rule="evenodd" d="M39.01081808 44.19748788s.10298095.24731328.08367202.26032977l-.08367202-.20175557c.00057264.09426134-.01023445.188241-.03218155.2798545-.0219471.0916135-.10298095-.24731328-.08367202-.26032977l.09010833.20175558v-.27985451c0-.01952474.01287262-.00650825.02574524 0z"/>
      <path fill="rgb(29,113,184)" fill-rule="evenodd" d="M39.08161926 44.22354937l.07080078.09106445.03845215-.04101562.00660706.00842285c.02964783-.00512695.0528717-.02856445.05792236-.05859375.00265503-.00756836.00411987-.01550293.00437927-.0234375l.0084839-.0090332-.01132203-.01452637c.00213623.00769043.00308227.01574707.00282287.02368164l-.06889343.07348633-.06419372-.0826416c-.00491333-.01477051-.00491333-.03076172 0-.04553223-.00608826-.01452637-.00608826-.03100586 0-.04553223.01248169-.0045166.02612304-.0045166.03862 0h.03218078c-.0375061-.0081787-.06385803-.03320312-.08183289-.05029297-.0252533-.02392578-.0340271-.03222656-.0340271.04370118v.13024902z"/>
      <path fill="rgb(29,113,184)" fill-rule="evenodd" d="M39.35194247 44.17796314l.03218155-.0585742s-.16734404-.15619786-.15447142-.18223084l.17378035.15619787s.03861785-.0585742.05149047-.03904947c.01287262.01952473-.09010833.13667313-.10298095.12365664z"/>
      <path fill="rgb(29,113,184)" fill-rule="evenodd" d="M39.33262634 43.85904742h-.05148315c.0815277.0279541.1656189.04760742.25102234.05859375.01286316-.03259278-.11585999-.26037598-.15447998-.234375-.03862.02612304 0 .07165527 0 .07165527l-.0450592.10412598zm.1609192 0h-.14160157l.03862-.12365723.10298156.12365723z"/>
      <path fill="rgb(29,113,184)" fill-rule="evenodd" d="M39.47424316 43.65079546h-.10298156c-.0046692 0 .12275695.03417969.19308471.05053711v-.0505371c-.00332641-.01501466-.00332641-.03063966 0-.0456543-.05833435-.0366211-.11248779-.08032227-.16090393-.13012696-.01287842.02600098.07080078.12365723.07080078.12365723v.05212402zm.09046936-.04553222c.01420594.00891113.02867127.01733398.04338074.02526855.00041199-.00854492-.001297-.01733398-.00512695-.02526855h-.03825379zm.04467774.05126953v-.02526856c-.00164795.00622559-.00335693.01306153-.00643921.01953125l.0064392.0057373zm0 .04626465h.05148315l-.05148315-.04626465v.04626465zm0 .00012207h-.03855896c.02307129.00524902.03855896.0081787.03855896.00646972v-.00646972z"/>
      <path fill="rgb(29,113,184)" fill-rule="evenodd" d="M39.42917818 43.36443259h.09010833s.14803512-.08460718.15447143-.0585742l-.1351625.07159069s.11585357.08460718.10941726.11064015l-.1351625-.09762366s-.09010832 0-.08367202-.02603298z"/>
      <path fill="rgb(29,113,184)" fill-rule="evenodd" d="M39.5514679 42.96097613c-.00239563.01000976-.00317383.02038574-.00234986.03051757l-.02983093-.0111084c-.01005554.04943848-.01005554.1003418 0 .14965821h-.09010315c0 .03259277.21240234-.01293945.21240234-.01293945.0028534-.0263672.00323487-.05285645.00112915-.07922364l.01815796-.00537109-.01930237-.03259277c.00500489-.01245118.00500489-.02648926 0-.03894043-.01655578-.0065918-.03494262-.0065918-.0514984 0h-.03860474zm.09124755.0769043l-.09124755.0270996v-.05859375c-.00115967-.0048828-.00193787-.0098877-.00234986-.01489258l.092453.0345459.00112916.01184082z"/>
      <path fill="rgb(29,113,184)" fill-rule="evenodd" d="M39.41630554 42.78519488c-.00300598.01281738-.00300598.02624511 0 .0390625-.00201416.00415039-.00343323.00854492-.00427246.01306152l-.02790832-.0456543s.16090393-.09106445.16734314-.06506347l-.13516236.05859375zm.03804016.12121582l-.04231262-.0690918c-.00205994.01086426-.00064087.02233887.00427246.0324707-.00396728.01049805-.00396728.02209473 0 .03259278.01124573.0081787.02572632.00952148.03804016.00402832zm-.00001526 0c.00244141-.00109864.00479126-.0024414.00701905-.0041504 0 0 .16090393-.09106445.16734314-.0715332l-.16090393.09765625-.01345826-.02197265z"/>
      <path fill="rgb(29,113,184)" fill-rule="evenodd" d="M39.28114319 42.59647417c-.00062561.05249024.01271057.10424805.03862.1496582.06336974-.05029296.12356567-.10461425.18022155-.16259765.00109863-.00756836.00183106-.01525879.00222778-.02282715l-.07946777.06176758v.01306152l-.0450592.0423584v-.08789062h.0450592v-.01306153c-.00579834-.0123291-.00579834-.02661132 0-.0390625-.00440979-.01257324-.00440979-.02636718 0-.0390625.03213501.00732422.06047058.02612305.07977295.05297852l-.00030518.00878906.00419617-.00317383-.00389099-.0057373c.00022888-.0131836-.00062561-.02661133-.00253296-.03979492-.0730896 0-.05908203-.0336914-.06465149-.03723145-.00325012-.00219726-.01319885.00598145-.0512085.03723145l-.10298156.08459472z"/>
      <path fill="rgb(29,113,184)" fill-rule="evenodd" d="M39.14598058 42.47931135l.0707994.07809893s.16090773-.20826382.18021666-.18873909c-.05854066.07477445-.12084037.14645955-.18665297.21477207-.0658126.06831252-.08367202-.08460718-.0643631-.10413191z"/>
      <path fill="rgb(29,113,184)" fill-rule="evenodd" d="M39.0880538 42.45327837s.1480351-.24080504.16734403-.22778855c.01930893.01301648-.14803511.24080504-.16734404.22778855z"/>
      <path fill="rgb(29,113,184)" fill-rule="evenodd" d="M39.03012085 42.1798482l.09010315.00964355.00001526.03601074-.05793762.12365723c-.00604248.00317383-.01255799.0053711-.01930237.00646973h.05148315l.05793762-.12365723c.00279236-.01281738.00279236-.02624512 0-.0390625l-.03218078-.00341797-.00001526-.00964355c0-.01330567 0-.01879883-.00224304-.02001953-.00546265-.00280762-.02409363.02001953-.08786011.02001953z"/>
      <path fill="rgb(29,113,184)" fill-rule="evenodd" d="M38.38005066 42.66812945c-.3458252.1920166-.52027893.59558105-.42478943.98266601.026474.17370606.13204956.32470703.28511047.40783692.15307618.08312988.33587647.08874511.49368287.01525879.34584045-.19213868.52027893-.59570313.42478942-.98278809-.02890014-.17224121-.13484191-.32141113-.28707885-.40405273-.15223694-.08276368-.33369446-.08972168-.49171448-.0189209zm-.1076355 1.34997558c-.13667297-.07543945-.2303009-.21154785-.25279236-.36730957l.01286316-.05859375c-.06048584-.3223877.08650208-.64831543.36688233-.81359863.1408844-.0649414.30369567-.05957031.44010925.01452637.13642883.07409668.23075867.20837402.25500488.3630371.08703613.34619141-.06933594.70800782-.37974548.87854005-.14183045.06506347-.3056488.05895996-.44232178-.01660157z"/>
      <path fill="rgb(29,113,184)" fill-rule="evenodd" d="M38.54740381 42.1929486s-.10298095 0-.09654464-.03904947h.10298095s-.03218155-.1171484 0-.13667314v.1171484s.08367202-.07809893.10941726-.03904946l-.08367202.07159069s.08367202.07159068.05792678.11064015l-.08367202-.07159069s0 .12365665-.07723571.1171484l.0707994-.13016489z"/>
      <path fill="rgb(29,113,184)" fill-rule="evenodd" d="M38.50878595 44.54242483s-.10298094 0-.09654464-.03904947h.10298095v-.01301649s.08367202-.08460717.10941726-.0455577l-.08367202.07809893s.08367202.06508244.05792678.11064015l-.08367202-.07159069s0 .12365665-.0707994.11064016l.0643631-.13016489z"/>
      <path fill="rgb(252,199,170)" fill-rule="evenodd" d="M39.89902876 45.25833172l-.79810235 2.01104752-.05149047.1301649-.25101607-.07809894c-.18021666-.09762367-3.03150168-1.71817653-3.08299215-1.78325897-.58279184-.75449043-1.01952261-1.61342552-1.28726186-2.53170708l.2059619-2.01104753s.32181546-.93067895.74017556-.65082444l.29607023.95020368 1.12635413.54018429.6951214.19524733-.40548748-.76797284c-.57283153-1.20402522.0707994-1.77024248.38617856-1.30164888l.5599589 1.12592628 1.22933508 1.50340446.63719462 2.66838022z"/>
      <g opacity=".3">
        <path fill="rgb(252,175,117)" fill-rule="evenodd" d="M34.40242062 42.9999709l1.47391483 1.36673133c1.13279044 1.08036858 2.2140904 1.54896217 3.21815465 1.23656644V47.262871l-.05149047.13016489-.25101607-.07809894c-.18021666-.09762366-3.03150168-1.71817652-3.08299215-1.78325897-.57267094-.76395448-1.01434173-1.6197681-1.30657079-2.53170708z"/>
      </g>
      <path fill="rgb(252,199,170)" fill-rule="evenodd" d="M67.98064625 55.41119302l-.1415988 1.77675072-.34756071 1.04782736-.7659208 1.39927255c-.22527083.39049466-.64363094.31890397-.60501308-.04555771l-.37330594.65082444c-.33468809.52065955-.81741128.07809893-.55995891-.46208536l.5599589-1.38625606-.93326484 1.73119302c-.37330594.50764306-.85602914.18873909-.64363093-.50113482l.74661188-1.95247333-.8238476 1.5099127c-.25101606.34493696-.81741127.1301649-.64363092-.50113481l.84315652-2.5056741c.06754649-.3201773.0383956-.65349065-.08367202-.95671194-.16734405-.33192046-1.43529698.35795345-1.43529698.35795345l-1.15853567.65082444c-.42479642.06508244-.64363093-.04555771-.5535226-.33192047l.88177437-.9241707.98475532-.87210476.43123273-.38398642c.579872-.4247113 1.2355626-.73191006 1.93089279-.90464597l.05149047-.18223085.10298095-.36446168.95901009.14968962 1.42242435.2212803-.0707994 1.09989332.08367202.5141513.1415988 1.16497576z"/>
      <g opacity=".3">
        <path fill="rgb(252,175,117)" fill-rule="evenodd" d="M64.05449757 55.09879728l1.9308928-.4555771 1.01050055 1.76373423-.89464699 3.18253153c0-.84607178.0707994-1.8613579-.4827232-2.06311349l-.95901008-.13667313.78522973-.53367604-.11585357-.79400582-1.67344041-.26683802.39905117-.69638216z"/>
      </g>
      <path fill="rgb(255,255,255)" fill-rule="evenodd" d="M63.63613747 31.66260912l.57283153 6.95731329.46985057 5.77932104c.4183601 3.35825413.894647 6.05266732.59214046 7.80989331-.02089095.16364993-.0077373.32990822.03861786.48811833.19452961.47954287.56964566.8611928 1.0426821 1.06084384.46010898.2435743.94886366.42726565 1.4546059.54669253.8238476-3.4428613 1.46747853-6.76206595 1.19071723-9.44346265l-.5535226-6.8271484c-.16090774-3.9114549-1.06842735-6.86619787-4.80792305-6.3715713z"/>
      <g opacity=".3">
        <path fill="rgb(252,175,117)" fill-rule="evenodd" d="M62.90883452 54.16161009l3.44342547-.40351116c-.47426738-.2011714-.84956822-.5853519-1.0426821-1.06735208l-.05792679.18873909c-.69480302.17091194-1.3504341.47587295-1.93089279.89813773l-.4119238.38398642z"/>
      </g>
      <g opacity=".3">
        <path fill="rgb(60,60,59)" fill-rule="evenodd" d="M64.67881957 44.39924345c.4183601 3.35825413.894647 6.05266732.59214046 7.80989331-.02089095.16364993-.0077373.32990822.03861786.48811833.19452961.47954287.56964566.8611928 1.0426821 1.06084384v-1.30164888c.21883452-6.50824442 2.1497273-11.90357905-.04505416-14.89086324l-2.11754576 1.03481086.4891595 5.79884578z"/>
      </g>
      <path fill="rgb(34,34,34)" fill-rule="evenodd" d="M47.48100112 94.90972842c0-1.24958293.95257378-1.73119302 2.36856182-1.88088264 1.23577139 0 2.89633919.55320078 5.07824804 1.06084384l2.4844154 1.37974782c.42932258 1.11525559.49250621 2.3405707.18021665 3.49492725-.62806624.6372911-1.52446893.924041-2.40074337.76797285l-2.79979454-1.19751698-.1995256-.4100194c-2.226963-.24080504-4.7113784-1.26910766-4.7113784-3.21507274z"/>
      <path fill="rgb(34,34,34)" fill-rule="evenodd" d="M56.56263355 89.89838021c0-1.01528613.9010833-1.19100873 2.25270825-1.30164888 2.43292492 0 2.53590587 1.23656644 4.7757415 1.18450048l2.20121778 1.37974782c.38618808 1.21228058.41969966 2.51124855.09654464 3.74224054-.69680241.5363687-1.58278542.7556248-2.44579753.60526674l-2.23983564-1.37323958-.19308928-.41652764c-2.1497273-.31890398-4.44748972-1.90691562-4.44748972-3.82033948z"/>
      <path fill="rgb(34,34,34)" fill-rule="evenodd" d="M56.5883789 62.36844683c-.1428833-1.27453613-.1987915-2.55749512-.16732787-3.83984375l8.11526489-3.42944336c-.11358643.05004883-.04959107.7932129.01342773 1.52514648.0607605.70568848.12060547 1.40100098.01965332 1.4552002.06304932 1.20080566.16668701 2.39428711.26898194 3.57263184.2842102 3.27319336.55828857 6.42944336-.0758667 9.30065918 1.82791137 4.99182128 1.82791137 12.52844238 1.18426513 20.28625488-2.15615844 2.1607666-5.52233886.15625-5.56097412-2.13476563-.25744629-6.3519287-.6951294-12.38513183-1.78286743-17.24023437 0 0-1.506073-5.7142334-2.01455688-9.49560547z"/>
      <path fill="rgb(53,53,53)" fill-rule="evenodd" d="M58.4677811 63.2471193c0 4.5557711.04505416 8.19387973-1.0362458 12.1313676 1.53184161 4.97880699 1.11991782 12.39820563.0707994 20.17555772-1.0908026 1.31452776-2.99051421 1.57647462-4.38956294.60526673-.8087762-.59738712-1.21682332-1.6037472-1.05555473-2.60329777l-.8302839-17.2728807s-1.19071722-5.70773036-1.49322375-9.48251212c-.30250654-3.77478177 1.01050056-12.41122212 1.01050056-12.41122212.71405438.19715795 1.44103462.34287409 2.17547254.43605238 4.83366829.61177497 9.2747217-1.13243453 10.6520919-3.90494666.0707994.20175558.13516249.4100194.2059619.61177498.5226805 1.68836212.82347582 3.43890688.89464698 5.20659554.16090774 4.00907856-3.70731415 5.4799418-6.20460216 6.50824442z"/>
      <path fill="rgb(255,255,255)" fill-rule="evenodd" d="M49.68865521 39.95411251c.32309667 2.40894507.46724438 4.83898314.43123272 7.26970902 0 .878613 0 1.73119302.05149048 2.60329777.03920477 1.53418529.23111704 3.06047763.57283153 4.5557711.6799553.30914353 1.37862604.57434502 2.09180052.79400582 4.17072843 1.3341901 7.9617146.68336566 10.94172581-3.65763337 1.67026113-4.57685477 2.75184011-9.35180578 3.21815465-14.20749757 0-2.89616877-.94613746-4.9657905-3.37906238-5.64915616-4.34450878 1.0543356-8.74050803 3.78129-13.22661562 7.67972842l-.7015577.61177497z"/>
      <path fill="rgb(252,199,170)" fill-rule="evenodd" d="M54.32923422 31.97500485l.43766903 3.95050436c2.52946956 0 6.48779978-1.78976721 5.98576765-3.1499903l-1.32587972-2.60329777-5.09755696 1.80278371z"/>
      <path fill="rgb(252,199,170)" fill-rule="evenodd" d="M53.12564438 32.47613967c1.00406425 1.15195926 2.51659693.9957614 4.05487486.585742 2.25270825-1.0543356 3.86178558-2.60329777 3.65582368-5.57105723.17378035-2.1542289-.78522973-4.40608147-4.41530818-4.28893307-2.31063504.07159069-4.27370938.9241707-4.41530818 3.41682832 0 0-.12228988 4.70546072 1.11991782 5.85741998z"/>
      <path fill="rgb(198,198,198)" fill-rule="evenodd" d="M54.5995592 34.57830262l-.92039222 2.1086712c4.30589092-.49462658 8.19985805-2.14772067 7.23441165-4.15225995l-.78522973-.93067895c.59857676 1.45784675-3.66226 3.195548-5.5287897 2.9742677z"/>
      <path fill="rgb(34,34,34)" fill-rule="evenodd" d="M52.01859918 26.00043647c.21156574.85488521.73302855 1.5982028 1.46104221 2.08263821-.0746782.64790305-.09835242 1.30077992-.0707994 1.95247333.10298095 0 1.10060889.90464598 1.10060889.90464598l.52134105 1.464355c1.7249309 1.25609117 4.286582.29937924 5.06537542-.83956354.46341427-.585742.95257378-2.95474297.8302839-5.20659554-.2767613-1.90040737-1.62838625-3.74224054-4.50541651-3.86589718-2.87703026-.12365665-4.640579 1.55547041-4.40243556 3.50794374z"/>
      <path fill="rgb(252,199,170)" fill-rule="evenodd" d="M53.73065745 30.33492726c-.27032499-.31239574.15447143-1.03481087.46341427-1.13894278.43123273-.14318138.64363093.49462658.71443033.83956353.07641942.41999937-.0162669.85346468-.25745237 1.20402522-.28963392.44256062-.75304819 0-.9010833-.34493695-.10298095-.26032978.16090773-.35795345-.01930893-.55970902z"/>
      <path fill="rgb(255,255,255)" fill-rule="evenodd" d="M52.92611879 45.9156644c-.10065851.52306374-.22957784 1.04015914-.38617856 1.54896218-.6970521.86508103-1.48956633 1.64680059-2.36212551 2.3299515-1.49176736 1.17262217-3.22152271 1.99716042-5.06537542 2.41455868-2.98644752-1.17799224-3.92614868-2.050097-6.4363093-4.97229874-.39261487-.78098933-.16734405-1.61404462 1.01050056-2.51218235 2.52946955.92417071 3.3983713.8200388 5.09755696 1.62706111 1.8600934-3.06538312 3.72662309-6.27394762 5.62533433-7.00937924 2.36856183 1.21053346 3.12161001 3.46889427 2.51659694 6.57332686z"/>
      <g opacity=".25">
        <path fill="rgb(0,0,0)" fill-rule="evenodd" d="M49.73370938 66.80062076c.33808881 3.18443814.83647663 6.34938145 1.49322375 9.48251212l.8302839 17.22081474c-.16984258 1.01271855.24452881 2.03498392 1.06842735 2.635839-.74017557-7.2501843-1.06842735-14.04479147 0-19.30345296-1.60264102-5.9615519-2.32994397-12.20946654-.4891595-16.8173036 0-1.84183316-.21883453-3.5014355.16734403-4.84213384-.70210264-.21882928-1.38998474-.48184175-2.05961897-.78749758-.66963424-.30565582-1.3130071 8.63644035-1.01050056 12.41122212z"/>
      </g>
      <g opacity=".3">
        <path fill="rgb(60,60,59)" fill-rule="evenodd" d="M38.67613 47.23683802c2.29776242 2.49916586 3.26964512 3.66414161 6.4363093 4.9657905 1.84667592-.41354031 3.58053902-1.23349738 5.07824804-2.4015422.03920476 1.5341853.23111703 3.06047763.57283152 4.5557711.6730542.31722639 1.3652647.59111868 2.0724916.8200388.02889293-.12020014.06764497-.23775558.11585357-.3514452.39261486-1.02179438 1.20358984-1.8158002 2.80623085-2.31042677-1.76354875-1.01528613-2.34281658-3.41682832-2.79979454-6.59935985 0 0-.14803512-1.04782735-.28963392-2.18677012-.6452888 1.29563227-1.4953222 2.47611726-2.51659694 3.49492725-1.33231602 1.30164889-2.94782966 2.13470417-5.3936272 3.41682832-.978319.49462658-3.12804631-2.43408341-6.08231228-3.40381183z"/>
      </g>
    </g>
  </g>
</svg>
