<svg xmlns="http://www.w3.org/2000/svg" width="107.25" height="93" viewBox="0 0 107.25 93">
  <g>
    <ellipse cx="60.75" cy="46.5" fill="rgb(213,227,220)" rx="46.5" ry="46.5"/>
    <g>
      <g opacity=".4">
        <path fill="rgb(32,162,106)" fill-rule="evenodd" d="M.25085647 29.05369878c0-4.12606806 2.84304004-9.50973906 6.35503067-12.01081457 1.97897884-1.413037 3.7419424-1.61086218 4.91260594-.77717035l15.41373665 9.51680425c.43963724.2066721.80668675.54432384 1.05220354.96793035l2.53643767 1.413037c.22327572.1715881.3709641.42539008.41112589.7065185l1.81870943 1.03151702c2.68290912.2789503 5.39086396.18386352 8.04831186-.2826074 1.00232428-.2285417 2.05233404.03303535 2.8360718.7065185 1.58691122 1.6374344 3.56510283 2.83015288 5.74182595 3.46194068L55.745883 29.6118484l45.39108524 29.20747495-34.84117688 18.3694811-45.23081582-24.78466912 7.8810742-5.18584582-.3762847-.3249985-.2160153-.17662963c-.20207882-.18369482-.39718941-.38152-.58533177-.58641036l-.16723765-.16956444c-.18814235-.20489037-.35538-.4239111-.52958589-.64999703-.04180941-.06358666-.0975553-.12010814-.1393647-.1836948-.16723765-.22608593-.32053883-.46630222-.47384001-.70651851-.04180941-.07771704-.09058706-.1413037-.1393647-.21902074-.13936472-.24021629-.27872942-.49456295-.4111259-.74890961l-.1602694-.2826074c-.11846001-.22608593-.23692001-.48043259-.34841178-.7065185l-.22995176-.4309763c-.16723765-.3744548-.34144354-.76303998-.52261766-1.1798859-.67465511.4799412-1.524205.63255626-2.32042238.41684592l-1.17066354-.58641036c-.70667859.24779603-1.48037172.2098384-2.16015297-.10597777L2.32042238 33.08085425c-1.26821884-.45923703-2.0695659-1.8440133-2.0695659-4.02715547z"/>
      </g>
      <path fill="rgb(69,196,138)" fill-rule="evenodd" d="M0 18.09559679c0 4.1543288 2.8569765 5.80051691 6.3829036 3.73748288 3.5259271-2.06303403 6.3829036-7.06518504 6.3829036-11.21244866 0-4.14726361-2.8569765-5.80051691-6.3829036-3.73748288C2.8569765 8.94618216 0 13.96952873 0 18.09559679z"/>
      <path fill="rgb(20,57,41)" fill-rule="evenodd" d="M17.2951602 28.39663657c0-3.60324437 2.5015965-7.99072428 5.5745883-9.79234646 1.53301178-.8972785 2.91969062-.98206072 3.92311652-.40271555 1.0034259.57934517 1.65147178 1.85814367 1.65147178 3.66683104-.21034438 3.97910652-2.28152147 7.61734535-5.5745883 9.79234646-1.5957259.93260442-3.03118239.9891259-4.04854475.3320637-1.01736237-.65706221-1.52604355-1.85107848-1.52604355-3.59617919z"/>
      <path fill="rgb(218,218,218)" fill-rule="evenodd" d="M22.1798932 33.11618018c2.25770826.98206072 4.48754358-1.61792738 5.97177772-3.8717214 1.39364707-3.15813772 3.69316474-7.02279393 2.25770826-8.20974502-1.63753532-1.1798859-6.02055537.05652148-8.97508717 1.25053775-.48777647 3.91411251-2.17408943 8.9233287.74560119 10.83092867z"/>
      <path fill="rgb(252,199,170)" fill-rule="evenodd" d="M46.8822876 32.84770315h-.06271411c-.43771932.56722877-.9947833 1.02825254-1.63056708 1.34945034-.75953766.35325925-.18814236.93260442-1.14975884 1.413037l-1.39364707.65706221c-2.0644023.99259999-4.0514248 2.14282668-5.94390478 3.44074512-.9267753.7065185-2.92665886.58641036-3.6443871 1.28586367-.34540427.33355258-.67115155.6874234-.97555295 1.05977776-.73156553-.37873312-1.43906025-.80347282-2.11834356-1.2717333-2.78729415-1.9429259-3.95795769-4.2037851-5.44916006-7.84942058l-3.27507063-2.96737772c-1.39364707-4.12606806 4.06944946-10.31517016 7.60931303-9.50973906l6.27141184 4.31682806 9.75552953 6.66246949 1.6932812 1.15869034.31357058.25434667z"/>
      <g opacity=".5">
        <path fill="rgb(252,175,117)" fill-rule="evenodd" d="M25.371345 32.07759798c1.42848825 3.8717214 3.44230828 4.98802063 6.17385654 5.65214803 2.5991518.62173628 8.87056364-1.34945035 11.54636602-4.64889176.30660236-.17662962 1.89536002.46630221 1.9302012.58641036 0 0-4.59206711 3.12281179-5.5745883 3.97769918l-7.73474127 4.23911102c-.11149176-.05652148-.22298353-.11304296-.32750706-.17662963l-.18117412-.10597777-.47384-.27554222-.2160153-.1413037-.39022118-.25434666c-2.89878592-1.97825181-4.11822711-4.23911102-5.63730242-7.9765939l-3.27507063-2.96737773-.22995177-2.23966365 4.3899883 4.33095843z"/>
      </g>
      <path fill="rgb(255,255,255)" fill-rule="evenodd" d="M66.29579136 77.21L101.13 58.81932335 55.745883 25.69773589 20.91167436 44.08841254 66.29579136 77.21z"/>
      <path fill="rgb(132,157,170)" fill-rule="evenodd" d="M30.70204506 44.95036512l25.17623441-13.28961306-1.37274237-1.00325628-25.1762344 13.28961306 1.37274236 1.00325628z"/>
      <path fill="rgb(132,157,170)" fill-rule="evenodd" d="M34.4718604 47.70578728l25.17623441-13.29667824-.84315648-.6146711L33.6217357 47.084051l.85012471.62173628z"/>
      <path fill="rgb(132,157,170)" fill-rule="evenodd" d="M36.75047337 49.36610576l25.1762344-13.29667824-.8501247-.6146711-25.17623442 13.29667825.85012472.6146711z"/>
      <path fill="rgb(132,157,170)" fill-rule="evenodd" d="M39.0221181 51.02642425l25.17623441-13.28961306-.84315648-.62173628-25.1762344 13.29667824.84315647.6146711z"/>
      <path fill="rgb(132,157,170)" fill-rule="evenodd" d="M43.5723758 54.34706122l25.18320265-13.28961306-.85012472-.62173628-25.1762344 13.29667824.84315647.6146711z"/>
      <path fill="rgb(132,157,170)" fill-rule="evenodd" d="M45.85098877 56.01444489l25.1762344-13.29667825-.84315647-.6146711L45.00783229 55.3927086l.84315648.62173629z"/>
      <path fill="rgb(132,157,170)" fill-rule="evenodd" d="M63.66179839 49.47208354l9.64403776-5.09399841-.85012472-.6146711-9.63706952 5.08693323.84315648.62173628z"/>
      <path fill="rgb(132,157,170)" fill-rule="evenodd" d="M50.40124647 59.33508185L75.5844491 46.03840361l-.85012471-.6146711-25.17623441 13.28961306.84315648.62173628z"/>
      <path fill="rgb(132,157,170)" fill-rule="evenodd" d="M52.67985944 60.99540034l25.1762344-13.29667824-.84315647-.6146711-25.17623441 13.29667824.84315648.6146711z"/>
      <path fill="rgb(132,157,170)" fill-rule="evenodd" d="M60.85359953 59.53997222l19.28110728-10.17386646-.85012471-.62173628-19.28110728 10.18093164.85012471.6146711z"/>
      <path fill="rgb(132,157,170)" fill-rule="evenodd" d="M75.73078206 60.27475146l11.23279542-5.92769024-.85012471-.6146711-11.2258272 5.92769025.84315649.6146711z"/>
      <path fill="rgb(132,157,170)" fill-rule="evenodd" d="M78.00939503 61.93506995L89.2352222 56.0073797l-.84315648-.6146711-11.23279542 5.92769025.85012472.6146711z"/>
      <path fill="rgb(29,113,184)" fill-rule="evenodd" d="M71.98187256 65.02966309c-1.07305908-.44519043-2.0834961-.93969727-3.16357422-1.37072754-.27172852-.10595703-.52960205-.21191407-.82922363-.3885498-.29003907.01757812-.58093262.01757812-.87103272 0-.76300049-.07275391-1.51837158-.21228028-2.25769043-.41687013-.56445312-.12719726-1.51904297-.29675292-1.73510742-.70654296-.01391601-.06359864.02789307-.06359864.06274414-.06359864.37615967-.02539062.75372315.0177002 1.1149292.12719727l1.77685547.45214844c.66894531.16967773 1.3100586.35327148 1.94415283.56530761.9663086.0477295 1.92199707-.2224121 2.72460938-.7701416.0626831-.04943847.2020874.00708008.13934326.06359863-.77288819.55688477-1.6998291.8511963-2.64794922.84069825.29968262.1060791.5923462.21203613.88500976.33215332 1.99291993.81958008 3.86035157 1.85107422 6.17382813 2.27490234 1.02801514.18359375 2.07977295.18359375 3.10784912 0 .89886475-.16955566 1.94415283-.61462402 1.76293945-1.321167-.2090454-.80541991-1.97198486-.9678955-2.9545288-.91137694-.95159913.08032226-1.88873291.2869873-2.78729248.61462402-.07666016.02832031-.16723633-.09179688-.07666016-.09179688 1.53302002-.50866699 3.78375244-1.05273437 5.4421997-.20495605.67590333.3461914.73168946.86901855.34143067 1.29296875-.5993042.4786377-1.32885742.75976562-2.0904541.80541992-2.08197022.1517334-4.16790772-.2347412-6.06237793-1.12329101zM67.125 63.22790527h.56445313c-.79437256-.2331543-1.6862793-.45214843-2.543396-.6640625-.58862305-.20629882-1.20355225-.32531738-1.8256836-.35327148.16723633.22607422.62017823.32495117.95465088.4239502l.89190674.24719238c.64300537.16625976 1.29760742.28198242 1.95806885.3461914z"/>
      <path fill="rgb(29,113,184)" fill-rule="evenodd" d="M64.00323486 67.76391602c-1.64453125-.3885498-3.37957763.02124023-4.07641601.98913574-.04180908.05651855-.2020874.02111816-.2020874-.0777588.74560546-1.02441405 2.61309814-1.46948241 4.36907959-1.02441405.00952148.00317382.02026367.0048828.0303955.00634765.03424073.00512696.06140137.00915528.01141358.07128907-.0647583.0805664-.1036377.17907714-.11151123.28271484.26153564-.05981445.53289795-.05981445.79437256 0l1.0661621.12011719c-.28631591-.20410157-.54821777-.44116211-.78045654-.70654297-.12542724-.16955567.01397705-.29675293.26483154-.33911133.39489747-.01672363.78942872.04077148 1.1636963.16955566-.27874756-.1907959-.61322022-.51574707-.1951294-.70654297.52191162-.1126709 1.0633545-.0908203 1.5748291.06359864l.17419434.0423584c-1.46990967-.63317871-2.87103272-1.41931153-4.1809082-2.34558106-.04882813-.03540039-.01397706-.08483887.0626831-.08483887.72137451.13232422 1.42358398.35546875 2.0904541.66418457.85662842.36328125 1.73114014.68164063 2.62005615.95373536.41113282.12719726.82922364.24023437 1.25427246.35327148.46655274.15698242.95947266.21704102 1.44940186.17663574-.53546143-.07751465-1.06262207-.2052002-1.5748291-.3815918-.48059082-.15930175-.94683838-.36022949-1.39361572-.60046386-.30999756-.12304688-.58013917-.33093262-.78045655-.60058594-.23693847-.508667 1.42852783-.21191406 1.73510742-.14831543.85748291.2006836 1.67199707.55737305 2.40405274 1.05273438.29266357.20483398.2578125.40979004.06964111.55810546.21173096-.00256347.41796875-.06896972.5923462-.1907959.23687743-.19067382-.00701905-.41687011-.23693848-.55810546-.41668702-.23547364-.85266114-.43408203-1.30303955-.59350586-.05078125-.02075195-.10839844-.0456543-.17126465-.07263184-.42852783-.18457031-1.09918213-.47338867-1.49414063-.29467773-.11151123.03527832-.1951294-.04248047-.11151123-.0777588.29473877-.10913085.618042-.10913085.9128418 0 .55230713.17211915 1.09240723.38220216 1.61663818.62878419.59228516.26135254 1.45635987.70654297.75952149 1.12341308-.24163819.1135254-.5079956.16210938-.77349854.14123536-.1807251.06872558-.37139892.10693359-.56439209.1130371-.45483398-.02661132-.90447998-.11206054-1.33789062-.25427246-.61322022-.15551757-1.15673828-.31091308-1.79785157-.5369873-.64105224-.22607422-1.26123046-.45922852-1.86749267-.70654297-.5933838-.27661133-1.211792-.4942627-1.84655762-.65002441 1.50006104 1.02783203 3.11083985 1.87878418 4.80114746 2.53637695.3204956.1060791.62713623.21911621.9197998.34631348.09057618.03527832.00695801.07763672-.0906372.07763672-.3135376-.11303711-.62713623-.22607422-.93371582-.35327149-.53314209-.17614746-1.0814209-.30151367-1.6375122-.37438965-.20391846-.02124023-.4093628-.02124023-.61322022 0-.6887207.06286621-.05004883.58117676.09942627.70239258l.00506592.0041504.12542724.09179687c.42315674.1282959.8283081.31115722 1.20550537.54406738.05578614.03527832-.01391601.07763672-.09057617.07763672-.4116211-.1138916-.80395508-.29016113-1.16369629-.52282715-.22906494-.071167-.46166992-.13012695-.69683838-.17663574-.16564941-.03393555-.33319092-.05749512-.50170898-.07055664-.44592285-.05664063-.4598999.11999511-.22296143.33911133.23693848.21899414.49475098.42382812.73864746.63586425.04180909.03527832.01391602.0847168-.06274414.0847168-.5793457-.09265137-1.163208-.15393066-1.74902343-.18371582-.56671143.00671387-.10638428.36291504-.01062012.43688965l.01062012.00830078c.04180908.03295898.02789306.05957031.01397705.08630371-.00701905.01330566-.01397705.0267334-.01397705.04089355-.03936768.02941895-.09301758.02941895-.13238526 0-.1461792-.0880127-.25134277-.23193359-.29199219-.39929199-.04058838-.1673584-.01324463-.34423828.07598877-.4909668zm3.95098877-2.8260498c.69012451.491333 1.46557617.84606933 2.2855835 1.04565429.421875.12121582.85308838.20629883 1.28912353.25427246h.13934327c.6550293-.33911133-1.01037598-1.06677246-1.47027588-1.25756836-.35852051-.1430664-.7294922-.25195313-1.1079712-.32495117-.22991943-.0456543-.46282958-.07397461-.69683837-.08483887h-.33447266c-.46685791.01416016-.22296143.26843262-.10449219.36743164z"/>
      <path fill="rgb(255,255,255)" fill-rule="evenodd" d="M30.40937918 21.03471376c-4.87776477-2.11955551-11.31641425 9.07876278-8.22948598 12.08146642l-5.61639771-3.53259252c-1.85355061-4.14019843 2.19499414-12.10972716 7.66505891-12.71733307l6.18082478 4.16845917z"/>
      <path fill="rgb(69,196,138)" fill-rule="evenodd" d="M1.84658237 22.24992559L11.32338248 6.7065185l15.47645077 11.49505606c-1.0034259-.57934517-2.39010473-.49456295-3.92311651.40271555-3.07996004 1.80162218-5.5745883 6.1891021-5.5745883 9.79234646 0 1.7451007.58533177 2.98150809 1.53301178 3.59617919L1.84658237 22.24992559z"/>
      <g opacity=".5">
        <path fill="rgb(252,175,117)" fill-rule="evenodd" d="M50.1712947 33.73085127c-3.48411769.62880147-5.06590712.21902074-8.29916833-1.34945034-6.02055536 1.25053775-12.9609178-.81249628-10.01335423-8.17441909 1.07373763.24846758 2.16008476.43715479 3.25416592.5652148l9.93670364 6.45757913 5.121653 2.5010755z"/>
      </g>
      <path fill="rgb(252,199,170)" fill-rule="evenodd" d="M32.62527803 23.06242187c2.64930974.6141497 5.36813857.8636746 8.08315303.74184443 1.0595571-.08014482 2.09997274.31802484 2.84304003 1.0880385 2.57122987 3.03712675 6.21858776 4.92552023 10.15271895 5.25649766 1.1427906 2.05596885-1.06614002 3.57498363-3.53289534 3.58204881-3.83949769 0-4.13913181-.57934517-7.53963067-2.49401031-6.02055537 1.24347256-16.92584373 1.78749181-10.006386-8.1744191z"/>
    </g>
  </g>
</svg>
