<svg xmlns="http://www.w3.org/2000/svg" width="101.891" height="103.955" viewBox="0 0 101.891 103.955">
  <g>
    <ellipse cx="46.5" cy="57.455" fill="rgb(213,227,220)" rx="46.5" ry="46.5"/>
    <g>
      <path fill="rgb(255,255,255)" fill-rule="evenodd" d="M54.87553132 39.17681856l35.00068513 20.4027054-49.87553132 29.08509019L5 68.25591675l49.87553132-29.0790982z"/>
      <path fill="rgb(132,157,170)" fill-rule="evenodd" d="M15.28838583 68.10611715l25.2996985 14.74627255-1.51299792.88681363L13.7753879 68.9869388l1.51299792-.88082165z"/>
      <path fill="rgb(132,157,170)" fill-rule="evenodd" d="M19.4298468 65.69134762l25.29969849 14.74627254-.93153205.54527054-25.2996985-14.75226453.93153205-.53927855z"/>
      <path fill="rgb(132,157,170)" fill-rule="evenodd" d="M21.93371001 64.22930353l25.29376517 14.75226453-.93153205.54527054-25.29376517-14.75226453.93153205-.54527054z"/>
      <path fill="rgb(132,157,170)" fill-rule="evenodd" d="M24.4316399 62.77325142l25.2996985 14.75226453-.93153205.53927856-25.2996985-14.74627255.93153206-.54527054z"/>
      <path fill="rgb(132,157,170)" fill-rule="evenodd" d="M29.43343302 59.85515523l25.2996985 14.75226453-.93153206.53927856-25.2996985-14.74627255.93153206-.54527054z"/>
      <path fill="rgb(132,157,170)" fill-rule="evenodd" d="M31.93729624 58.39910313L57.2310614 73.14537567l-.92559872.54527054-25.2996985-14.75226453.93153206-.53927855z"/>
      <path fill="rgb(132,157,170)" fill-rule="evenodd" d="M50.04580463 66.03888269l9.68912 5.65044088-.93153206.54527054-9.68318666-5.65044088.92559872-.54527054z"/>
      <path fill="rgb(132,157,170)" fill-rule="evenodd" d="M36.93908935 55.48100693l25.2996985 14.75226453-.93153206.53927856-25.2996985-14.75226453.93153206-.53927856z"/>
      <path fill="rgb(132,157,170)" fill-rule="evenodd" d="M39.44295257 54.02495483l25.29376517 14.74627255-.93153206.54527054-25.29376516-14.75226453.93153205-.53927856z"/>
      <path fill="rgb(132,157,170)" fill-rule="evenodd" d="M47.8682743 56.0202855l19.37230665 11.29488977-.93153205.53927856-19.37230665-11.29488978.93153205-.53927856z"/>
      <path fill="rgb(132,157,170)" fill-rule="evenodd" d="M63.46105283 56.36182858l11.27925113 6.5791984-.93153205.53927855-11.27925114-6.5791984.93153206-.53927855z"/>
      <path fill="rgb(132,157,170)" fill-rule="evenodd" d="M65.96491604 54.89978449l11.27925114 6.5791984-.93153205.54527054-11.27925114-6.5791984.93153205-.54527054z"/>
      <g opacity=".4">
        <path fill="rgb(32,162,106)" fill-rule="evenodd" d="M101.82 19.8406863c-.08306655-2.64845692-2.664063-5.74032065-5.76719206-6.90276554-1.23515216-.5538271-2.63780803-.58832894-3.89819463-.09587174-.09415.04605439-.18530961.09808878-.27293296.15579158l-.13053315.0778958-1.77999755 1.0845491-.0474666-.04793588-1.77999755 1.15046092-9.21445398 5.65044088c-.3582957.17191602-.66681081.43396345-.8959321.76098197l-2.17753033 1.1983968c-.18692941.11892889-.3143891.31309913-.35006619.53328656-1.84773832.10133044-3.67756986.41903742-5.45272582.94673347 0 0-12.34724966 3.59519038-12.37098296 3.59519038-1.08171638.01728688-2.05266351.67411018-2.48012992 1.67775551l-.20766638.68308617-1.05613188 2.29492986-.04153328.08987976c-.21473297.44758922-.17861088.97656157.0949332 1.39014028l.1186665.1857515c-.13959927.42919983.01740245.89998402.38566614 1.15645291-.24919965.76098197.1186665 1.3841483.88406545 1.9054509l3.34046207 2.17509019c.48875766.30118108 1.05337882.45309585 1.6257311.43741483h.64673244l1.2993982.09587174c-.26989509.49860497-.6051873.9581422-.99679862 1.36617234-1.934264.08987976-3.35826204.5213026-3.6074617 1.1983968-.1142165.09566801-.1986774.22257823-.24326633.36551102l-.39159946 1.56390781c-.237333.9766934 2.37333006 2.04925852 5.7790587 2.3967936 3.40572865.34753506 6.2715247-.14380762 6.61565756-1.07855712v-.0359519l.39753279-1.58787576c.03769441-.25044695-.05678192-.50259563-.24919966-.66511022-.14833313-.41943888-.7535323-.83887775-1.6731977-1.1983968.33948114-.04811562.67086328-.14286687.98493198-.28162324.88967245-.39884443 1.71397744-.93226282 2.44452997-1.58188377 2.42079667-2.03128256 2.9251293-2.7623046 2.9251293-2.7623046l2.85986273-2.53460922 2.37333007-2.07921844c1.0383319-.95871743 1.18666503-2.15711423 1.47146464-2.9121042.72168814.28943679 1.52290657.30434484 2.25466356.04194388l1.00866528-.52729459c.6462993.06743379 1.29830648-.05096782 1.88086408-.34154309l13.64664787-6.59118236c.31763463-.09473327.61813381-.2403924.88999877-.43142285.79100125-.58280433 1.22838225-1.53642857 1.15699841-2.52262525z"/>
      </g>
      <path fill="rgb(29,113,184)" fill-rule="evenodd" d="M51.44006348 53.03029774c2.69372558 1.58190918 7.1081543 1.58190918 9.8137207 0 2.7055664-1.57580566 2.69372559-4.14648437 0-5.72229004-2.69372559-1.57592773-7.1081543-1.58190918-9.8137207 0-2.70556641 1.58190918-2.69372559 4.14038086 0 5.72229004zm.33227539-.20373535c-2.52160645-1.46813965-2.52160645-3.86486816 0-5.33288574 2.87438965-1.47717285 6.27490234-1.47717285 9.14929199 0 2.52758789 1.46801758 2.52758789 3.8647461 0 5.33288574-2.87438965 1.47705078-6.27490234 1.47705078-9.149292 0z"/>
      <path fill="rgb(29,113,184)" fill-rule="evenodd" d="M52.15808105 52.6168456c2.63305665 1.34838867 5.74487305 1.34838867 8.3779297 0 2.31396484-1.3482666 2.31396484-3.54125977 0-4.88952637-2.63305665-1.34838868-5.74487305-1.34838868-8.3779297 0-2.31396484 1.3482666-2.31396484 3.54125976 0 4.88952636zm.2196045-.13183594c-2.18945313-1.2763672-2.18945313-3.34960938 0-4.6258545 2.49536132-1.27600097 5.4432373-1.27600097 7.9387207 0 2.18945313 1.27624512 2.18945313 3.3494873 0 4.6258545-2.4954834 1.27600097-5.44335938 1.27600097-7.9387207 0z"/>
      <path fill="rgb(29,113,184)" fill-rule="evenodd" d="M58.84484863 51.62807606c-1.5703125.80297852-3.42541504.80297852-4.9958496 0-1.3824463-.80285644-1.3824463-2.10913086 0-2.93603515 1.57043456-.80297852 3.4255371-.80297852 4.9958496 0 1.37658692.8269043 1.37658692 2.1331787 0 2.93603515zm-4.74658203-.13183593c1.430542.7314453 3.12036133.7314453 4.55090332 0 1.25195313-.73095704 1.25195313-1.9173584 0-2.6484375-1.4276123-.74133301-3.12036133-.7331543-4.55090332 0-1.2578125.7310791-1.2578125 1.91748046 0 2.6484375z"/>
      <path fill="rgb(29,113,184)" fill-rule="evenodd" d="M54.4957985 48.0928907c-.01526141.00601635-.03220518.00601635-.0474666 0h-.0474666l-.8484655-.29360721.47466602.44340681c-.0949332.0359519-.67639907-.51531062-.67639907-.51531062s.05933325-.04194389.07713323-.04194389h.05933325l.83066552.29360722-.47466601-.4493988c.08899987 0 .67639907.5213026.67639907.5213026s-.01186665.0419439-.0237333.0419439z"/>
      <path fill="rgb(29,113,184)" fill-rule="evenodd" d="M54.75683594 47.99111317h.25512695l.11865234-.03601074c.03027344-.01367188.05822754-.03186035.08312989-.05395508.01721191-.0201416.02758789-.04528808.02966308-.07189941.00305176-.03466797-.00769043-.0690918-.02966308-.0958252l-.1661377-.2816162c-.02172851-.03186036-.05004883-.05847169-.08300781-.07788087-.03063965-.02197265-.06469727-.038208-.10095215-.04797363h-.25512695c-.04138184.00476074-.08154297.01696777-.11865235.03601074-.0324707.0090332-.06140136.02783203-.0830078.053833-.00817872.02331544-.00817872.04870606 0 .07189942-.00964356.03125-.00964356.06469727 0 .09594727l.16613769.27563476c.0213623.03356934.04968261.0621338.0830078.0838623l.10083009.04797364zm.06530761-.58728027c.05126954.00939941.09521485.0427246.11865235.08984375l.17199707.27563476c.02575683.0357666.02575683.08410645 0 .11987305-.038208.03479004-.08557129.05761719-.13647461.06591797-.06066895.01208496-.12316895.01208496-.1838379 0-.05212401-.01171875-.09606933-.04711914-.11865234-.09594727l-.17211914-.27563476v-.11376953c.03808594-.03845215.08862305-.06188965.14245606-.06591797.0579834-.0180664.11999512-.0180664.17797851 0z"/>
      <path fill="rgb(29,113,184)" fill-rule="evenodd" d="M55.87232994 47.16413319c0 .05392785-.24919965.07789579-.24919965.07789579l.16019977.5991984c-.10679985 0-.26699963-.5991984-.26699963-.5991984h-.27293295c-.01779998-.02396794.62893246-.0778958.62893246-.0778958z"/>
      <path fill="rgb(29,113,184)" fill-rule="evenodd" d="M56.02661133 47.84731434h.04748535c.00646973-.00305175.01257324-.00708007.01782227-.01208496l.07714843-.14379883h.45092774l.08898926.14990235h.10681152s-.3322754-.66516113-.34423828-.66516113h-.10668946c-.12573242.21679687-.23864746.44091796-.33825683.67114257zm.40942383-.59924316l.18395996.38952637-.39758301-.00598145.21362305-.38354492z"/>
      <path fill="rgb(29,113,184)" fill-rule="evenodd" d="M57.20141602 47.206079h-.04748536s-.24328613.63513183-.13049316.62915038l.10668945-.2816162h.20178223c.05236816.1204834.1138916.23669433.18395996.34753417.01782227.00598145.02966309 0 .071167-.03601074l-.142334-.305542h.10668946c.03137207.00610352.06359863.00610352.0949707 0l.071167-.04199218c.01794433-.02246094.03381347-.04650879.04748535-.07189941.008667-.03137207.008667-.06445313 0-.0958252-.01245117-.0258789-.03076172-.04846191-.05334473-.06591797l-.10095215-.04187012h-.12451172l-.28479003-.03601074zm-.0534668.3116455l.0949707-.26367187.24914551.01196289c.05651855.00683593.11096191.02526855.16015625.05395507.02600098.03112793.02600098.07666016 0 .10791016-.01660156.04736328-.05761719.08178711-.10668945.08984375-.0604248.01513672-.12365723.01513672-.18395996 0h-.21362305z"/>
      <path fill="rgb(29,113,184)" fill-rule="evenodd" d="M58.09732688 47.7932915l-.04153328-.43142284s.06526658-.0359519.07713323 0c.02757928.13634667.04542518.27451783.05339993.4134469l.52213261-.24567135c.01535644-.005483.03211016-.005483.0474666 0 0 .05392785-.55179924.31757515-.55179924.31757515l-.17799975.22769539c-.10086653-.05991984.0711999-.28162325.0711999-.28162325z"/>
      <path fill="rgb(29,113,184)" fill-rule="evenodd" d="M59.43823242 47.74538563c-.0192871-.00598144-.04003906-.00598144-.05932617 0 0 0-.70605469.5032959-.62304688.55126953l.27893067-.20373535.19580078.07189942.1126709.04199218h.12463379c.04138183.00561524.08325195.00561524.12463379 0 .04675293-.01452636.09094238-.03686523.13049316-.06591796.0321045-.02319336.0600586-.05151368.08312988-.0838623.00817871-.02539063.00817871-.05261231 0-.07788087-.0111084-.02514648-.02734375-.04760742-.04748535-.06591797l-.08898926-.05395508-.2314453-.1138916zm-.3441162.29956055l.32629394-.22766113.18395996.0838623c.05932617.0300293.08898926.05395508.0949707.08996582.00585938.03588867-.01782227.07189942-.08312988.11376953-.04821778.03710938-.1057129.05993653-.1661377.06591797-.0592041.00024414-.11779785-.01208496-.17199707-.03588867l-.18395996-.08996582z"/>
      <path fill="rgb(29,113,184)" fill-rule="evenodd" d="M60.51812354 48.41645784c.06526658.04793587-.59333251.34753507-.59333251.34753507l-.1423998.04793587h-.13053316c-.03931863.00618242-.07934787.00618242-.1186665 0l-.0949332-.05392786c-.02661334-.02087136-.05053286-.04502737-.0711999-.0719038-.00602906-.02358126-.00602906-.04832256 0-.07190381.0016036-.0278832.01447391-.05387832.03559994-.07190381.0329033-.02926716.0712172-.05166819.11273318-.06591182l.66453242-.32356714c.0711999.04793587-.59333252.34753507-.59333252.34753507s-.10086652.05991984-.10679985.09587175c-.00593332.0359519 0 .06591182.05933325.10186372.04555906.03190884.09892328.0505637.15426646.05392786.06738826-.00286297.13285473-.0235235.1898664-.05991984l.6348658-.27563126z"/>
      <path fill="rgb(29,113,184)" fill-rule="evenodd" d="M60.77319336 48.6920409c.06750488.04162598.12768555.09423829.17797851.15576173l.04748536.0718994c.00830078.02124024.00830078.04479981 0 .06591798-.00793457.02514648-.02490235.04650879-.04748535.05993652-.03369141.02392578-.07214356.0402832-.1126709.04797363-.05493164.0107422-.11132813.0107422-.1661377 0-.04492187.01000977-.09155273.01000977-.1364746 0 .00634765.0131836.00634765.02868653 0 .04187012.00415038.01367188.00415038.02832031 0 .04199219-.01379395.01843262-.03222657.03295898-.0534668.04199219l-.08898926.03588867c-.05810547.01733398-.11767578.02929687-.17797852.03601074-.04125976.00646973-.08325195.00646973-.12451172 0-.03405761-.00463867-.06640625-.0168457-.0949707-.03601074l-.07714844-.05993653-.1364746-.16174316c.02368163-.07788086.99084472-.34155273.99084472-.34155273zm-.2668457.28771973l-.0949707-.10791015.36193847-.13781739.0949707.18579102c.00195313.01782227.00195313.03601074 0 .053833.00891114.01257325.00891114.02941895 0 .0419922.00500489.0135498.00500489.02844238 0 .04199218-.0255127.00524903-.05175781.00524903-.07714843 0-.05456543.01367188-.11157227.01367188-.1661377 0-.04699707-.01208496-.08874512-.0394287-.11865234-.07788086zm-.52233887.16772461c.03393555.03857422.08007812.06408692.13061523.07189942.06225586.01660156.12756348.01660156.18981934 0 .10083008 0 .14245605-.05383301.15429687-.0838623.0078125-.0197754.0053711-.04211427.00268555-.0654297-.00134277-.01196289-.00268555-.02416992-.00268555-.03637695l-.10681152-.11987305-.45092773.13183594.0830078.10180664z"/>
      <path fill="rgb(29,113,184)" fill-rule="evenodd" d="M60.12059076 49.42311114c0-.0359519 1.09766515-.20971944 1.09766515-.20971944-.32036887.10744633-.65018215.18369216-.98493197.2276954l.13053315.2576553c-.0949332.01797596-.24326633-.27563126-.24326633-.27563126z"/>
      <path fill="rgb(29,113,184)" fill-rule="evenodd" d="M61.41998897 49.69275042c-.35690642.0840177-.72007318.1381294-1.0857985.16178357.35635231-.08693126.71977048-.14108043 1.0857985-.16178357z"/>
      <path fill="rgb(29,113,184)" fill-rule="evenodd" d="M61.23012256 50.29194882h.12459983c.01841814-.01066662.034553-.02492419.0474666-.04194389.00923703-.02306029.00923703-.04884352 0-.0719038-.00407063-.0426484-.02841173-.08063837-.06526657-.10186373-.06267467-.01259214-.12719175-.01259214-.1898664 0h-.50433265c-.0652532-.00396367-.13046733.00838486-.1898664.0359519-.03789719.02160655-.05902221.0642743-.05339993.10785571-.00771349.02128014-.00771349.04463169 0 .06591182.0137292.0172294.0323711.0297802.05339993.0359519.02132788.00616069.0439387.00616069.06526657 0h.06526658s.04153328 0 .04153328.03595191c-.02084432.00899283-.04442226.00899283-.06526658 0h-.10679985c-.03169398-.00909251-.06174121-.02325318-.08899988-.04194389-.02395524-.01525458-.044228-.03572777-.05933325-.05991984-.00863178-.02728321-.00863178-.05660455 0-.08388777-.00545163-.02567343-.00545163-.05222237 0-.0778958.0133695-.02553818.03404507-.04641815.05933325-.05991983.031429-.02303658.06821711-.03748451.10679985-.04194389.05315438-.00731374.1070454-.00731374.16019978 0h.50433264c.05315438-.00731374.1070454-.00731374.16019978 0 .03941568.00830671.07740233.02244015.11273318.04194389.02395524.01525458.044228.03572777.05933325.05991984.00545163.02567342.00545163.05222236 0 .07789579.0047551.05913151-.02549273.11552572-.07713323.14380761l-.08306655.0419439h-.16019978c.05933325-.06591183.0711999-.06591183.08306655-.06591183z"/>
      <path fill="rgb(29,113,184)" fill-rule="evenodd" d="M58.39992646 52.16144782h.08899988l.86626547.27563126-.50433264-.43741483c.08899988-.0359519.7060657.50332665.7060657.50332665s-.05933325.04194389-.07713323.04194389h-.05933325l-.81286555-.25765531.49839932.43741483c-.08306656.0359519-.7060657-.50332665-.7060657-.50332665v-.05991984z"/>
      <path fill="rgb(29,113,184)" fill-rule="evenodd" d="M58.05578613 52.28737782h-.13049316l-.10681152.03588867c-.03015137.01330567-.05664063.03393555-.07714844.05993653-.01086426.02478027-.01086426.05310058 0 .07788086-.01135254.03100585-.01135254.0649414 0 .09594726l.18395996.27563477c.01745605.0345459.04418945.06359863.07714844.0838623.03234863.02111817.06872558.0354004.10681152.04187012.03930664.00622558.0793457.00622558.11865234 0h.12451172c.04077149-.00769043.0805664-.0197754.11877442-.03588867.02734375-.01513672.05151367-.0354004.07116699-.05993653.01831055-.02185058.0288086-.0493164.02966308-.07788086-.0020752-.0349121-.01452636-.0682373-.03564453-.09594726l-.17797851-.27563477c-.01989746-.03479004-.04846192-.0637207-.08300782-.0838623-.02954101-.02258301-.06420898-.0369873-.10095214-.04187012-.03930664-.00622559-.0793457-.00622559-.11865235 0zm.08898926.6171875c-.0522461-.01098633-.0974121-.0435791-.12463379-.08996582l-.17797851-.28161621c-.02685547-.03308106-.02685547-.08068848 0-.11376953.03051757-.04272461.0784912-.06921387.13049316-.07189942.05847168-.0147705.1196289-.0147705.17797852 0 .0513916.01281739.09594726.04492188.12463378.08984375l.17797852.28161621c.02685547.03308106.02685547.08068848 0 .1138916-.03747559.03686524-.08496094.06188965-.1364746.07189942-.0563965.01464844-.1156006.01464844-.17199708 0z"/>
      <path fill="rgb(29,113,184)" fill-rule="evenodd" d="M57.11832823 53.1800851c0-.05991985.24326633-.09587175.24326633-.09587175l-.17799976-.5991984c.10679986 0 .28479961.5991984.28479961.5991984l.25513298-.0359519c.01779998.04793587-.60519916.13182364-.60519916.13182364z"/>
      <path fill="rgb(29,113,184)" fill-rule="evenodd" d="M56.6258545 53.1920409s.33227538-.67700195.27294921-.71301269c-.01184082 0-.0415039.01794434-.0415039.01794434l-.07128907.15588379h-.43896484l-.07128906-.14990235c-.01330567-.00500488-.02807618-.00500488-.04150391 0-.01184082 0-.05932617.03601074-.05932617.03601074s.32629394.65307618.45092773.65307618zm-.06530763-.0838623l-.18981933-.38952637.38562012-.01196289-.19580079.40148926z"/>
      <path fill="rgb(29,113,184)" fill-rule="evenodd" d="M55.42138672 53.18605946h.44506836s.21948242-.66516113.1126709-.68908691l-.0949707.29956054h-.19580079c-.05236816-.12158203-.11584472-.23791504-.18981933-.34753418-.01184082-.00598144-.02368164 0-.06530762.03601075l.14245605.35351562h-.10083007c-.02954102-.00512695-.05957032-.00512695-.08898926 0l-.07128906.04785156c-.02160645.0308838-.03759766.0654297-.04748536.10192871-.00854492.03137208-.00854492.06445313 0 .0958252.01257325.0258789.0308838.04846191.0534668.06591797.03076172.01904297.06506348.03137207.10083008.03601074zm.44506836-.31750488l-.0949707.27563476-.2373047-.01794433c-.05651855-.0024414-.11157226-.0189209-.16027831-.04797363-.02368164-.03198243-.02368164-.07592774 0-.10791016.01745605-.04699707.05432129-.08422852.10095215-.10180664.05859375-.0131836.11938476-.0131836.17797851 0h.21362305z"/>
      <path fill="rgb(29,113,184)" fill-rule="evenodd" d="M54.93486457 52.64080653l.05339992.43741483c-.10086652 0-.1423998-.38348697-.1423998-.38348697l-.49839931.28761523c-.01738038.00551991-.03601956.00551991-.05339993 0 0-.05392786.53399926-.36551102.53399926-.36551102l.1661331-.24567135c.09493321.0359519-.05933324.26963928-.05933324.26963928z"/>
      <path fill="rgb(29,113,184)" fill-rule="evenodd" d="M53.59399414 52.77858876c.01794434.01220703.04125977.01220703.05932617 0 0 0 .68225098-.56323242.5814209-.64111328l-.26696777.22766113-.18395996-.07189941c-.03735352-.0053711-.07531739-.0053711-.11279297 0-.04101563-.00891114-.0834961-.00891114-.12451172 0l-.11865234.03601074c-.04577637.01843261-.08789063.0447998-.1246338.07788086-.03112792.02661133-.05895995.0567627-.08312988.08984375-.00854492.02526855-.00854492.05273437 0 .07788086.00976563.0258789.02612305.04858398.04748535.06591797l.08898926.04797363.23742676.08984375zm.32629395-.3236084l-.31445313.26367187-.18395996-.04785156c-.05932617-.02404785-.08312988-.04797363-.0949707-.08398437-.01184082-.03588867.01184082-.07189942.07714843-.12573242.04614258-.0390625.1011963-.0657959.16015625-.07800293.05651856-.0144043.11560059-.0144043.17211915 0l.18395996.07189941z"/>
      <path fill="rgb(29,113,184)" fill-rule="evenodd" d="M52.52000123 52.23335162c-.0711999-.04194388.53399926-.39547094.53399926-.39547094.04382446-.02924132.0918569-.05147383.1423998-.06591182.0433183-.00584934.08721486-.00584934.13053316 0 .03732225-.00625808.07541092-.00625808.11273318 0l.10679985.04194389c.02610279.01691307.05001988.03704103.0711999.05991984.00923703.02306028.00923703.04884352 0 .0719038.00692528.02345775.00692528.04844606 0 .07190381-.0308203.03366991-.06689887.06200844-.10679985.08388778l-.59333252.35951903c-.0711999-.04194388.5399326-.40146292.5399326-.40146292s.0949332-.0719038.10086652-.10785571c-.00588443-.04076192-.0331132-.07513436-.0711999-.08987976-.0471094-.03200296-.1036277-.04680072-.16019978-.04194389-.06577718.00147999-.12969863.02230367-.18393308.05991984l-.62299914.35352705z"/>
      <path fill="rgb(29,113,184)" fill-rule="evenodd" d="M52.19958496 52.01760243c-.07312012-.03393555-.14111328-.07836914-.20178223-.13183594l-.05932617-.06591797c-.00524902-.01965332-.00524902-.0402832 0-.05993652.00183106-.02612305.01477051-.0501709.03564453-.06591797.03259278-.02502441.06860352-.04516601.10681153-.05993652.0550537-.0234375.11291504-.03955078.17211914-.04785156.04516601-.00646973.09118652-.00646973.13635254 0-.00280762-.01391602-.00280762-.02819825 0-.0419922-.00317383-.01379394-.00317383-.02807616 0-.0418701.01501465-.0189209.03308105-.03515626.0534668-.04797364l.08898925-.04199219c.05395508-.02746582.11218262-.0456543.17211914-.053833.04101563-.00878907.0834961-.00878907.12451172 0 .0354004-.0062256.0715332-.0062256.10681152 0 .0291748.01220702.05541993.03063964.07714844.053833l.16015625.13781738c-.01184082.06591797-.97302246.46740723-.97302246.46740723zm.59338379-.59313965c.0510254.0032959.09924316.02453613.1364746.05993652l.12451173.1077881-.43310547.17980956-.12463379-.10791016c-.0415039-.03588867-.05334473-.05981445-.0415039-.09582519.01184081-.03588867.04748535-.06591797.14831542-.10180664.05993653-.02648926.12451172-.04077149.18994141-.04199219zm-.25512695.3774414l-.11279297-.1138916c-.03356934-.0336914-.07751465-.05480956-.1246338-.05993652-.05664062-.01245117-.11535644-.01245117-.17199706 0l-.07128906.04199219c-.00378418.01367188-.00378418.02819824 0 .04199219-.0053711.01550293-.0053711.03234863 0 .04785156l.04162597.04199219.10681153.0958252.33227539-.0958252z"/>
      <path fill="rgb(29,113,184)" fill-rule="evenodd" d="M52.76326756 51.1967384c0 .0359519-1.06799853.3355511-1.06799853.3355511.30719242-.14211991.62704847-.25447409.95526535-.3355511l-.17799976-.23967936c.0949332-.02396794.29073294.23967936.29073294.23967936z"/>
      <path fill="rgb(29,113,184)" fill-rule="evenodd" d="M51.4045361 51.08888269c.34711148-.12539163.70449483-.21963096 1.06799852-.28162325-.34711148.12539163-.70449483.21963095-1.06799852.28162325z"/>
      <path fill="rgb(29,113,184)" fill-rule="evenodd" d="M51.46386935 50.48968429h-.1186665c-.0180787.01166235-.03248712.02829191-.04153328.04793587v.06591182c.01246016.04337953.04604502.07729642.08899987.08987976.06433391.01575838.13146583.01575838.19579974 0l.51619928-.05991984c.0655034-.00306085.12900606-.0237481.18393308-.05991984.0357346-.02284338.05061578-.06792827.03559996-.1078557-.0065111-.02424898-.02120068-.04544158-.04153328-.05991985h-.24919966c.0123833-.02241095.03424354-.0378644.05933325-.04194388h.11273318c.03335438-.00606069.06751215-.00606069.10086653 0 .02772293.01241394.05366657.0285371.07713323.04793587.01949237.02246411.03369217.04909589.04153327.07789579.00583709.0256307.00583709.0522651 0 .0778958-.00975056.0258349-.02613337.04858395-.0474666.06591181l-.0949332.05392786c-.05224055.01675044-.10585113.02878168-.16019978.0359519l-.51619929.05991984c-.05503858.00875275-.11109452.00875275-.1661331 0h-.12459983l-.0711999-.05392785c-.0202931-.01952389-.0346936-.04445452-.04153328-.07190381-.005941-.02764076-.005941-.05624701 0-.08388778.01021733-.02557659.02652052-.0482151.0474666-.06591182.02346665-.01939877.0494103-.03552193.07713323-.04793587h.16019978c0 .02995992-.01186665.02995992-.0237333.02995992z"/>
      <path fill="rgb(29,113,184)" fill-rule="evenodd" d="M54.29406738 51.3705077c1.29077149.65893555 2.8149414.65893555 4.10583496 0 1.13330079-.65905761 1.13330079-1.7376709 0-2.39672851-1.29089355-.65893555-2.81506347-.65893555-4.10583496 0-1.13330078.65905761-1.13330078 1.7376709 0 2.39672851zm.21948242-.13183593c-1.00866699-.5871582-1.00866699-1.539917 0-2.13903809 1.15307618-.58752441 2.51379395-.58752441 3.66674805 0 1.01464844.59313965 1.01464844 1.539917 0 2.13903809-1.15161133.59338378-2.51513672.59338378-3.66674805 0z"/>
      <path fill="rgb(29,113,184)" fill-rule="evenodd" d="M52.95313396 48.93776044h.0474666c.01186665 0 0 0 0 .04194389s0 .0359519-.03559995.04194389c-.02338133.00583761-.04781857.00583761-.0711999 0l-.42719941-.01797596.0949332.28162325v.04194389h-.0711999c-.02695016.00913455-.0561164.00913455-.08306655 0-.00277592-.01182002-.00277592-.02413188 0-.0359519l-.06526658-.27563127-.42719941.13182365c-.01926977.00640196-.04006348.00640196-.05933325 0h-.0474666v-.08388778c0-.01198396.45686603-.13182364.45686603-.13182364l-.39159946-.19174349v-.04194389c-.0001651-.00199385-.0001651-.00399813 0-.00599198h.06526658c.02343283-.00539364.04776707-.00539364.0711999 0l.32633289.20372745.20766638-.2576553c.02825341-.01307797.06074646-.01307797.08899987 0 .02322811-.00699376.0479718-.00699376.0711999 0 .03559996 0 .03559996.04194388 0 .05991983l-.23139968.23967936h.48059934z"/>
      <path fill="rgb(29,113,184)" fill-rule="evenodd" d="M60.9809229 51.40046585h.04153328c.0084791.01483141.0084791.03310446 0 .04793587.0041277.0136706.0041277.0282733 0 .0419439h-.07713322l-.48653267-.05392786.0949332.28162324v.04194389c-.02311013.00776756-.04808976.00776756-.0711999 0-.02695015.00913455-.0561164.00913455-.08306655 0l-.06526658-.28162325-.4271994.13182365c-.01679414.00854628-.0366058.00854628-.05339993 0h-.05339993s-.02966663 0-.02966663-.04194389c0-.04194388 0-.02995992.02966663-.04793587l.45686604-.13182365-.34413286-.1857515c-.00637835-.01323938-.00637835-.0287045 0-.04194389.006628-.01630985.01944976-.02925838.03559995-.0359519.01933047-.00600735.04000278-.00600735.05933325 0 .02343283-.00539364.04776707-.00539364.0711999 0l.32633289.20372745.20766638-.2576553c.028655-.01106484.06034487-.01106484.08899987 0h.0711999c.03559996 0 .04153328.0359519 0 .05991983l-.23139967.23967936.43906606.02995992z"/>
      <path fill="rgb(87,87,86)" fill-rule="evenodd" d="M82.24596029 21.65026545c0-3.21769539-2.23686359-7.13046092-4.99585979-8.73631262-1.37059811-.79693387-2.61066307-.88082165-3.5125285-.35951904-.90186542.5213026-1.47739796 1.65378757-1.47739796 3.27162324 0 3.2176954 2.23686359 7.12446894 4.98992646 8.73032065 1.42993137.83288577 2.7115296.88681362 3.62526168.2995992.91373207-.58721443 1.3705981-1.65378758 1.3705981-3.20571143z"/>
      <path fill="rgb(218,218,218)" fill-rule="evenodd" d="M77.87903297 25.85064621c-2.0291972.88082165-4.02279446-1.43807615-5.33999265-3.45138276-1.22226498-2.81623247-3.30486211-6.26162325-2.01733055-7.32220441 1.45959799-1.05458918 5.38745925.05392785 8.03372227 1.11450902.42126608 3.49332665 1.934264 7.96334669-.67639907 9.65907815z"/>
      <path fill="rgb(252,199,170)" fill-rule="evenodd" d="M93.29381174 15.8739929l-12.94058218 6.45336674-4.15332761 2.33088176c-.93746538.23368738-.59333252 2.99599199-2.23686359 4.8954509l-2.50979654 2.71436874-.87813213-.22769539-5.33999264-1.40212425.03559995-.14380761c.03570628-.144135.06343805-.29016595.08306655-.43741483-.93153205-1.51597195-4.2897941-1.07855712-7.48785635-.77296593l-.492466 1.36018036c1.05633847-.05251437 2.04260078.53379105 2.50979655 1.492004l-.59333251 1.07855712-2.46826327 4.31422846-.2847996.49134268-1.82746416-.31757515-.70013237-.0359519c-.6224441-.03552983-1.21174919-.29483698-1.66133104-.73102205l-3.36419537-3.25963928c-.77681556-.66695472-1.10854738-1.7231713-.85439882-2.72036072-.38615197-.44401408-.5204737-1.05669848-.35599951-1.62382765l-.1186665-.26963928c-.27104673-.6146024-.29024445-1.31255285-.05339993-1.9414028l.0474666-.12583167 1.18666503-3.1038477.23139968-.92875751c.30139989-1.21908389 1.36162532-2.0922346 2.60472975-2.14513026l12.84564897-4.12248497c1.88015183-.62117706 3.8484359-.926828 5.82652531-.90478958L85.27195612 3.92597687l8.02185562 11.94801604z"/>
      <g opacity=".5">
        <path fill="rgb(252,175,117)" fill-rule="evenodd" d="M65.25885035 30.49443379c.03570628-.144135.06343805-.29016595.08306655-.43741483-.93153205-1.51597195-4.2897941-1.07855712-7.48785635-.77296593l-.492466 1.36018036c1.05633847-.05251437 2.04260078.53379105 2.50979655 1.492004l-.59333251 1.07855712-3.47099522-1.1983968c1.05613187-1.3781563 1.35279813-3.15777555 1.73846427-5.17707414 2.80052947.99466934 5.802792 1.41410821 8.09898884.23967936.1819958 1.1526983.04863778 2.33370715-.38566613 3.41543086z"/>
      </g>
      <g opacity=".5">
        <path fill="rgb(252,175,117)" fill-rule="evenodd" d="M56.95812845 34.7127905l-.17206643 2.81623247-.28479961.49134268-1.82746415-.31757515-.66453242-.0359519c-.6224441-.03552983-1.21174919-.29483698-1.66133104-.73102205l-3.36419537-3.25963928c-.77681556-.66695472-1.10854738-1.7231713-.85439882-2.72036072-.38615197-.44401408-.5204737-1.05669848-.35599951-1.62382765l-.1186665-.26963928c-.27104673-.6146024-.29024445-1.31255285-.05339993-1.9414028l.0474666-.12583167.30259958.79094188 1.43586469-3.48733466-1.12139846 4.39212424.45093272.90478958c.81321488-2.05375705 1.43301944-4.18032141 1.85119745-6.351503.23139968-.92276553.93153205-1.28228457 1.73253094-1.52795592-.67870682.37636806-1.12460203 1.07208693-1.18666503 1.85152305-.3458548 2.28766003-.96960086 4.523548-1.85713077 6.65709419-.39636931.92477459-.2097441 1.99905507.474666 2.73234469.79506558.83887775 1.94613066 1.35418838 2.67592966.50332665-.6138417-.67290909-.75958105-1.65569289-.36786616-2.48068136.94113499-1.74587473 1.50342076-3.67409561 1.6494644-5.65643287.237333-1.86350701 1.18666503-2.1631062 2.45639661-2.1690982-1.18666503.36551103-1.85119745.81490983-2.11819708 2.1690982-.00489605 2.02996307-.47395012 4.03136005-1.37059812 5.84817636-.4187705.81431156-.16301871 1.81643887.59333252 2.32488978 1.02465085.8911211 2.36073228 1.32937061 3.70832823 1.21637274z"/>
      </g>
      <path fill="rgb(34,34,34)" fill-rule="evenodd" d="M63.2177865 46.40315122c-.27293296 1.33621243-3.3463954 1.7975952-6.86485722 1.09054108-3.51846182-.7070541-6.14692487-2.39679358-5.87399191-3.75098196.27293296-1.35418838 3.3463954-1.79759519 6.86485721-1.09054108 3.51846182.7070541 6.14692487 2.44472946 5.87399191 3.75098196z"/>
      <path fill="rgb(34,34,34)" fill-rule="evenodd" d="M63.67465253 44.25802096l-12.74478245-2.66044088-.45093271 2.14513026L63.19998652 46.487039l.47466601-2.22901804z"/>
      <path fill="rgb(41,41,40)" fill-rule="evenodd" d="M63.67465253 44.25802096c-.27293296 1.33621243-3.35232872 1.7975952-6.87079054 1.09054108-3.51846182-.7070541-6.14692487-2.39679358-5.8739919-3.75098196.27293295-1.35418838 3.34639538-1.79759519 6.8648572-1.09054108 3.51846183.7070541 6.1528582 2.40877755 5.87992524 3.75098196z"/>
      <path fill="rgb(60,60,59)" fill-rule="evenodd" d="M63.44918617 43.77267026c-.27293295 1.33621243-3.24552886 1.84553106-6.64532418 1.13847695-3.39979532-.7070541-5.93332516-2.39679358-5.64852555-3.70903807.2847996-1.31224449 3.24552886-1.84553106 6.6512575-1.13248497 3.40572865.7130461 5.93332517 2.36683367 5.64259223 3.7030461z"/>
      <path fill="rgb(34,34,34)" fill-rule="evenodd" d="M61.36658904 43.24537567c-.19579973.90478958-2.13006373 1.25232465-4.32539404.77296593-2.19533031-.47935871-3.81512808-1.6058517-3.61932835-2.51663326.19579973-.91078157 2.13599706-1.25831664 4.32539404-.77895792 2.18939699.47935872 3.7973281 1.61184369 3.61932835 2.52262525z"/>
      <path fill="rgb(34,34,34)" fill-rule="evenodd" d="M60.77325653 36.39054601l-3.93972791-1.0426052c-.53399927 2.32488977-1.37059811 4.2543086-3.22179556 5.77028055l7.58872288 1.48002004c-.90186543-1.89346693-.967132-3.70903807-.42719941-6.20769539z"/>
      <path fill="rgb(53,53,53)" fill-rule="evenodd" d="M62.83212036 34.97044581c-.25513298 1.24034068-1.77999755 1.9414028-4.15332762 1.48002004-2.0291972-.40146292-3.42946194-1.58188377-3.2099289-2.99599198.21953302-1.41410822 2.1003971-1.87549098 4.1533276-1.48002004 2.2368636.41943888 3.4650619 1.73767535 3.20992892 2.99599198z"/>
      <path fill="rgb(87,87,86)" fill-rule="evenodd" d="M62.30998774 33.86792076c-.13053315.5991984-1.56639784.81490982-3.2099289.4493988-1.64353108-.36551102-2.87172939-1.14446894-2.74119623-1.7556513.13053315-.61118237 1.56639784-.80891784 3.21586223-.4493988 1.6494644.35951904 2.86579606 1.14446894 2.7352629 1.7556513z"/>
      <path fill="rgb(252,199,170)" fill-rule="evenodd" d="M71.45324182 32.26806104l-3.02599583 3.30757515s-.5399326.98268537-3.09126241 3.59519038c-.73403534.8183641-1.60335296 1.5016351-2.5691298 2.0192986-1.70286432.8209018-2.37333006-.13182365-2.37333006-.13182365-3.1802623-2.84619238 2.75306287-6.90276553 2.75306287-6.90276553.94503681-1.00426035 1.6618247-2.20458296 2.1003971-3.51729459 1.92715347-.38080202 3.92505307.03351786 5.54765904 1.15046093.20766638.12583166.43906606.30559118.65859909.47935871z"/>
      <g opacity=".5">
        <path fill="rgb(252,175,117)" fill-rule="evenodd" d="M80.35322956 22.32735964l-4.15332761 2.33088176c-.93746538.23368738-.59333252 2.99599199-2.23686359 4.8954509l-2.50979654 2.71436874-3.02599583 3.30757515s-.5399326.98268537-3.09126241 3.59519038c-.73403534.8183641-1.60335296 1.5016351-2.5691298 2.0192986l-.59333252.1497996c1.61386445-.91078156 1.7206643-1.59985972 1.0383319-2.55258517-.5933325-.7849499-1.60793111-.68907816-2.58099644-.43142285.78338506-.60118075 1.84058392-.68995695 2.7115296-.22769539.45816396.25234009.75444834.72609487.78319892 1.25232465 1.82153083-1.55791583 3.29299547-3.0978557 3.80919476-4.5958517 1.00569504-.79159793 1.89471816-1.72370867 2.6403297-2.7682966l.1898664-.25166332c.67639907-.88082164 1.37653144-1.83953908 2.14193038-2.77428858 1.10359848-1.1983968 1.70286433-2.90012024 2.06479716-4.84751503.209046-.96730597.209046-1.96876617 0-2.93607214.42360618.67846097.66301803 1.45752584.69419904 2.25897795 1.37653144 0 3.42946195-1.53993988 4.36692732-3.59519038l.32039956 2.45671343z"/>
      </g>
      <path fill="rgb(237,237,237)" fill-rule="evenodd" d="M70.50984312 15.07705904c4.3847273-1.869499 10.12818605 8.10116232 7.36918985 10.78557114l5.02552641-3.1397996c1.65539772-3.69106212-1.96393063-10.78557114-6.88859051-11.34881763l-5.50612575 3.70304609z"/>
      <ellipse cx="91.611" cy="9.408" fill="rgb(34,34,34)" rx="4.67" ry="8.167" transform="rotate(-30.00001 91.61095945 9.40765714)"/>
      <path fill="rgb(34,34,34)" fill-rule="evenodd" d="M96.08247457 16.16760012L87.59188627 2.3081412 73.737572 12.5544338c.90186542-.5213026 2.14193038-.43741483 3.5125285.35951904 2.7589962 1.6058517 4.99585978 5.51861723 4.99585978 8.73631262 0 1.55192385-.52213262 2.6544489-1.37059811 3.20571142l15.20711239-8.68837675z"/>
    </g>
  </g>
</svg>
