<svg xmlns="http://www.w3.org/2000/svg" width="104.422" height="98.567" viewBox="0 0 104.422 98.567">
  <g>
    <ellipse cx="47.202" cy="52.067" fill="rgb(213,227,220)" rx="46.5" ry="46.5"/>
    <g>
      <g opacity=".4">
        <path fill="rgb(32,162,106)" fill-rule="evenodd" d="M72.35398548 44.95875774l-8.91103804 5.13243046-13.35896672 7.70167546-12.3327552 7.10784053-6.49124338 3.73873624-7.590322 4.37801772-6.92237367 3.9841476 18.32607345 10.64964173 10.34712696-5.96258746 4.25058032-2.4480542 9.43628831-5.45358608 12.80942742-7.37749007 14.05727635-8.09857533 4.71510803-2.72679305-18.33518183-10.62540355z"/>
      </g>
      <g>
        <path fill="rgb(175,177,177)" fill-rule="evenodd" d="M81.39861318 29.52813888l.69223736-.39689987-.07893934 27.26793043-.68920124.39992964.07590322-27.2709602z"/>
        <path fill="rgb(196,197,197)" fill-rule="evenodd" d="M77.10249092 27.05584652l.69223737-.39992964 4.29612225 2.47532213-.69223736.39689987-4.29612226-2.47229236z"/>
        <path fill="rgb(222,224,223)" fill-rule="evenodd" d="M81.39861318 29.52813888l-.07590322 27.2709602-4.29612226-2.47532213.07590322-27.26793043 4.29612226 2.47229236z"/>
      </g>
      <path fill="rgb(243,244,244)" fill-rule="evenodd" d="M67.55082971 51.95752655c2.28620499-1.26947365 5.91134278-1.23311641 8.10039165.08180379 1.2448128.74532343 1.73362954 1.74514754 1.5180644 2.6995251l4.91549253 3.02977006 3.86195583-2.22688099-15.00454854-8.71664843-7.28670912 4.2083506 2.9207559 1.68152238c.28779314-.29669555.6158524-.5516583.97459735-.75744251z"/>
      <path fill="rgb(243,244,244)" fill-rule="evenodd" d="M77.17535801 54.73885545c-.15484256.73017458-.707418 1.43308123-1.6880876 1.98146961-2.286205 1.27250342-5.91437892 1.23614618-8.10342778-.07877402-1.79738825-1.0816279-2.04635081-2.6813465-.81975478-3.93870106l-2.9207559-1.68152238-10.9513166 6.30798124 2.89950301 1.67243307c.30208934-.32163926.6523779-.5945374 1.03835605-.8089486 2.28316886-1.27250343 5.91134278-1.23614619 8.10342777.07877401 1.5180644.90893102 1.92490566 2.21173214 1.27213797 3.33274706l4.5541932 2.78738844 11.51907268-6.63822617-4.90334802-3.0146212z"/>
      <path fill="rgb(243,244,244)" fill-rule="evenodd" d="M66.00544015 61.62552277c-.34644818.57239348-.8458347 1.03716169-1.44216118 1.34218813-2.28316886 1.27250342-5.90830665 1.23614618-8.10039164-.0818038-1.77309922-1.06344928-2.0342063-2.63589993-.87136897-3.87204611l-2.899503-1.67243307-10.10423666 5.82018826 2.71126302 1.56336135c.16723337-.12789358.34158332-.2462437.52221416-.3544831 2.28013273-1.26947365 5.90830665-1.2331164 8.10039164.08483356 1.43001667.85742493 1.8763276 2.04812455 1.39358312 3.1267227l4.7636861 2.872222 10.49286113-6.04136148-4.56633772-2.78738844z"/>
      <path fill="rgb(243,244,244)" fill-rule="evenodd" d="M34.77278317 70.69665429c2.28620499-1.26947365 5.91134277-1.23311641 8.10342777.0818038 1.5180644.908931 1.9188334 2.17537489 1.296427 3.2963898l4.69689125 2.8419243 3.48243974-2.00570776 7.73302006-4.45982151-4.7636861-2.872222c-.33920015.67205056-.88644986 1.21709168-1.5605702 1.55427203-2.28620498 1.27250342-5.9143789 1.2331164-8.1064639-.07877403-1.99777275-1.21190802-2.08582048-3.05097843-.3491548-4.33257116l-2.71126303-1.56336135-5.31929766 3.06309752-6.23317243 3.5902775 2.78413011 1.60577813c.28061144-.28315843.5994427-.52586008.94727219-.72108527z"/>
      <path fill="rgb(243,244,244)" fill-rule="evenodd" d="M44.17263794 74.0748479c-.34709149.59086234-.85437084 1.07187345-1.46341408 1.38763467-2.28013273 1.26947365-5.91134278 1.23614618-8.10039165-.08180379-1.82167728-1.09071721-2.04938694-2.72679304-.78332123-3.96293922l-2.78413011-1.60577812-5.6714886 3.26912188 15.01365692 8.72270796 8.48598-4.88701908-4.69689125-2.8419243z"/>
      <path fill="rgb(222,224,223)" fill-rule="evenodd" d="M40.3835492 81.80379128v1.23917595l45.56925718-26.45898182v-1.03618136L40.3835492 81.80379128z"/>
      <path fill="rgb(227,229,229)" fill-rule="evenodd" d="M40.3835492 81.80379128l-15.01365693-8.72270796v1.42096215l15.01365692 8.54092176v-1.23917595z"/>
      <path fill="rgb(243,244,244)" fill-rule="evenodd" d="M66.65820784 30.52190346c2.28316886-1.26947365 5.90830665-1.23311641 8.10039165.08180379 1.2448128.7483532 1.73059342 1.74514755 1.5180644 2.70255488l4.91549253 3.02977005 3.86195584-2.22688098-15.01365693-8.72573774-7.28670912 4.2083506 2.9207559 1.68152237c.29055617-.2957224.62177294-.54871538.98370573-.75138297z"/>
      <path fill="rgb(243,244,244)" fill-rule="evenodd" d="M76.27970002 33.30626213c-.15180644.72714481-.70438188 1.43308124-1.69112374 1.98146961-2.28316886 1.26947365-5.90830665 1.23614618-8.10039165-.08180379-1.79738825-1.0816279-2.04331468-2.68134649-.81975477-3.93870106l-2.92075591-1.68152238-10.95131659 6.30798124 2.899503 1.67243307c.30420365-.32016188.654092-.59376916 1.03835606-.81197837 2.28620498-1.26947365 5.91134277-1.23008664 8.10342777.08483356 1.5180644.90893101 1.92794179 2.20870236 1.27213797 3.33274705l4.5541932 2.78738844 11.51907267-6.6351964-4.90334801-3.01765097z"/>
      <path fill="rgb(173,233,244)" fill-rule="evenodd" d="M59.37453485 62.51021562h1.0322838c2.24937559-.00834453 4.06842813-1.83036062 4.06841259-4.07504071V22.1021725H55.2909416v36.3330024c0 2.25058285 1.82828697 4.07504072 4.08359324 4.07504072z"/>
      <path fill="rgb(120,68,19)" fill-rule="evenodd" d="M59.49598 61.25286105h.75295994c1.66339318 0 3.01183978-1.34562246 3.01183978-3.00553189v-26.825584h-6.7675311v26.825584c.00165739 1.65567908 1.34359007 2.99886331 3.00273138 3.0055319z"/>
      <path fill="rgb(94,50,14)" fill-rule="evenodd" d="M62.3317243 30.05834864c1.296427.7786509 1.25088507 2.02085662-.10019225 2.7722396-1.35107732.75138297-3.49762038.73017458-4.79404738-.04847633-1.296427-.7786509-1.2539212-2.01782685.09715613-2.77223959 1.35107731-.75441274 3.5006565-.73017458 4.7970835.04847632z"/>
      <path fill="rgb(243,244,244)" fill-rule="evenodd" d="M65.10978216 40.18989968c-.34599903.57167277-.84419348 1.03630973-1.43912506 1.34218813-2.28620498 1.27250342-5.91134277 1.23614618-8.10342777-.07877402-1.77309922-1.06647906-2.0342063-2.63892971-.87136896-3.87507589l-2.89950301-1.67243307-10.10423665 5.82018826 2.71126302 1.56336135c.16762575-.12788601.34304665-.24526293.52525028-.35145333 2.2770966-1.27250342 5.90527052-1.23614618 8.10039164.0818038 1.43001667.85742492 1.8763276 2.04812455 1.390547 3.12672268l4.77279447 2.87525178 10.49286114-6.0595401-4.5754461-2.77223959z"/>
      <path fill="rgb(173,233,244)" fill-rule="evenodd" d="M48.35035117 68.31525503h1.02013928c2.25362946 0 4.0805571-1.8231014 4.0805571-4.07201094V27.9072119h-9.18428962v36.33603218c.00167593 2.24939955 1.82947212 4.07201156 4.08359324 4.07201094z"/>
      <path fill="rgb(120,68,19)" fill-rule="evenodd" d="M48.4809047 67.06093023h.75295995c1.6667468 0 3.01791203-1.3483354 3.01791203-3.01159142V37.22678457h-6.78271174v26.82255424c-.00080564.79792028.31605978 1.56347915.88088939 2.12826219.5648296.56478304 1.33135545.8825261 2.13095038.88332923z"/>
      <path fill="rgb(127,226,244)" fill-rule="evenodd" d="M43.76579668 28.93733372V26.8164947c0 .73320435.7590322 1.26038434 1.70326826 1.81786203 2.04201931 1.1764694 4.55018482 1.20860215 6.62179691.08483356 1.04746444-.57868608 1.86114696-1.1634317 1.86114696-1.93905283v2.12083903c0 .77562114-.51917803 1.55124227-1.56664246 2.12083904-2.03117017 1.133134-5.25553896 1.09677675-7.19562526-.06968471-.94727219-.55444792-1.42090828-1.29977135-1.42394441-2.01479709z"/>
      <path fill="rgb(205,246,252)" fill-rule="evenodd" d="M52.53413666 24.75625106c1.94919469 1.16949124 1.88239986 3.02977005-.15180644 4.16290404-2.0342063 1.133134-5.25250283 1.09677676-7.1986614-.07574425-1.94615855-1.172521-1.87936372-3.02977004.14877032-4.15987427 2.02813404-1.13010423 5.25553896-1.09071722 7.20169752.07271448z"/>
      <path fill="rgb(127,226,244)" fill-rule="evenodd" d="M48.84524016 29.01913752c-1.14595102.02503007-2.27851034-.24968275-3.28509136-.79682953-.69223737-.4150785-1.07782572-.90893101-1.0656812-1.43005146.0121445-.52112045.4432748-1.06041952 1.19319861-1.47549801.98322182-.50439691 2.07652966-.75737152 3.18186298-.73623412 1.1459972-.0254544 2.2786645.2492846 3.28509137.79682952.6952735.41810826 1.0747896.92710963 1.06871734 1.43005146-.00607226.50294183-.4432748 1.05738975-1.19319862 1.47549801-.9835096.50657543-2.0783564.75966464-3.18489912.73623413z"/>
      <path fill="rgb(94,50,14)" fill-rule="evenodd" d="M51.29843224 35.86338805c1.296427.78168068 1.25088506 2.02085662-.10019225 2.7722396-1.35107732.75138297-3.49762038.73017458-4.79404738-.04847632-1.296427-.7786509-1.2539212-2.02085663.09715612-2.7722396 1.35107732-.75138297 3.5097649-.73017458 4.7970835.04847632z"/>
      <path fill="rgb(243,244,244)" fill-rule="evenodd" d="M33.8801613 49.2610312c2.28316886-1.26947365 5.91134278-1.2331164 8.10039164.08483356 1.5180644.90893102 1.9188334 2.1753749 1.29946313 3.29638982l4.67867448 2.8419243 3.48243974-2.00570777 7.75123683-4.45679174-4.76368609-2.87525178c-.33830865.67269395-.88580689 1.21798258-1.5605702 1.55427204-2.286205 1.27250342-5.9143789 1.23614618-8.10342778-.07877402-1.99777275-1.21190802-2.08885661-3.05097844-.35219094-4.33257117l-2.71126302-1.56336135-5.32840604 3.0752166-6.22710018 3.57512866 2.78413011 1.60577812c.28251451-.28227773.60221876-.52486638.95030832-.72108527z"/>
      <path fill="rgb(173,233,244)" fill-rule="evenodd" d="M37.36260104 74.42024168h1.0231754c1.08275728 3e-7 2.12112333-.42942979 2.88646357-1.19373538.76534024-.7643056 1.19489916-1.80081604 1.19409354-2.88130534V34.00916878h-9.18428962v36.33603218c-6.3e-7 2.24940018 1.8264366 4.0733683 4.0805571 4.07504072z"/>
      <path fill="rgb(120,68,19)" fill-rule="evenodd" d="M37.49922683 73.1628871h.74385156c1.66437627-.00167007 3.01320232-1.34767119 3.0148759-3.00856165v-26.825584h-6.77360336v26.825584c0 .79792016.3176378 1.5631596.8830367 2.12737435.56539892.56421476 1.3322444.8811873 2.1318392.8811873z"/>
      <path fill="rgb(94,50,14)" fill-rule="evenodd" d="M40.32282662 41.96534493c1.29946312.78168067 1.2539212 2.02085662-.10019225 2.7722396-1.35411345.75138296-3.49762038.73017457-4.79101125-.04544656-1.29339087-.77562113-1.25695733-2.02085662.09412-2.7722396 1.3510773-.75138296 3.5006565-.73320434 4.7970835.04544656z"/>
      <path fill="rgb(243,244,244)" fill-rule="evenodd" d="M43.28001607 52.64225458c-.34990635.58893425-.85784053 1.06851969-1.46645021 1.3846049-2.28013273 1.27250343-5.91134278 1.23614619-8.10039164-.08180378-1.82167729-1.09071722-2.04938695-2.72679305-.78332124-3.96293923l-2.7841301-1.60577812-5.6714886 3.26912188L39.4878912 60.3681682l8.47079935-4.88398932-4.67867448-2.8419243z"/>
      <path fill="rgb(222,224,223)" fill-rule="evenodd" d="M39.4878912 60.3681682v1.23917595l45.56925718-26.45898183v-1.03315158L39.4878912 60.3681682z"/>
      <path fill="rgb(227,229,229)" fill-rule="evenodd" d="M39.4878912 60.3681682l-15.01365693-8.72270797v1.42096215l15.01365693 8.54092177V60.3681682z"/>
      <g>
        <path fill="rgb(175,177,177)" fill-rule="evenodd" d="M32.88127492 53.90566869l.69223737-.39992965-.07590322 27.2709602-.69223737.39992964.07590322-27.2709602z"/>
        <path fill="rgb(196,197,197)" fill-rule="evenodd" d="M28.58515267 51.43034656l.69223737-.39992965 4.29612225 2.47532213-.69223737.39992965-4.29612225-2.47532213z"/>
        <path fill="rgb(222,224,223)" fill-rule="evenodd" d="M32.88127492 53.90566869l-.07590322 27.2709602-4.29612225-2.47532213.07590322-27.2709602 4.29612225 2.47532213z"/>
      </g>
      <path fill="rgb(73,35,9)" fill-rule="evenodd" d="M60.24590382 31.67927562l-.97156122-.02726793c.01821677 0 3.0361288-1.97541007 3.1302488-3.74479578.06679483-1.32097974.08197547-2.44199466-1.73970181-3.82659957l.60722576-.56050746c1.47859473 1.36339652 2.05242307 3.07218683 1.71541277 4.571923-.48881673 2.16628558-2.65357657 3.53574165-2.7416243 3.58724774z"/>
      <path fill="rgb(127,226,244)" fill-rule="evenodd" d="M54.78694423 23.12926454v-2.12083903c0 .73320435.76206833 1.25735457 1.70630439 1.81786203 2.04201931 1.17646939 4.55018482 1.20860215 6.62179691.08483356 1.04746444-.57868608 1.86114696-1.1634317 1.86114696-1.9420826v2.12083903c0 .77259136-.51917803 1.55124227-1.56664246 2.12083904-2.02813404 1.12707445-5.25250283 1.09677675-7.19562526-.07271449-.94727219-.5453586-1.42090828-1.27856296-1.42698054-2.00873754z"/>
      <path fill="rgb(205,246,252)" fill-rule="evenodd" d="M63.56135647 18.95121165c1.94615856 1.16949124 1.87936373 3.02977005-.15484257 4.15987427-2.0342063 1.13010423-5.2494667 1.09677676-7.1986614-.07271448-1.94919468-1.16949124-1.87936372-3.02977005.15180645-4.16290404 2.03117017-1.133134 5.26161121-1.093747 7.20169752.07574425z"/>
      <path fill="rgb(127,226,244)" fill-rule="evenodd" d="M59.86638772 23.2140981c-1.1449889.02506432-2.27657747-.24966694-3.28205524-.79682952-.69223737-.41810826-1.07782572-.92407986-1.0656812-1.43005146.0121445-.5059716.4432748-1.05738975 1.19319861-1.47852778.98467387-.50278742 2.07905786-.75368748 3.18489911-.73017459 1.14577074-.02680762 2.27852992.24690896 3.28509137.79379976.6952735.4150785 1.0747896.92407986 1.06871733 1.43005146-.00607225.5059716-.4432748 1.05738975-1.19016249 1.47549801-.98685665.50635709-2.08458307.75938832-3.1940075.73623412z"/>
      <path fill="rgb(94,49,13)" fill-rule="evenodd" d="M60.45236057 23.2140981c-.1153729-.08483356-2.53820367-1.83907041-2.83878043-3.93870106-.10358626-.63829065.06727001-1.29058466.47059997-1.79665364 1.63950955-2.12083903 4.30219451-7.82286626 1.5180644-11.05260113l-2.35603595-3.67814084 2.82663591 3.29336004c3.0148759 3.50847372.22467353 9.5801329-1.5180644 11.81610319-.30393342.37557162-.43213767.86305091-.35219094 1.33915836.2641432 1.84210019 2.98755074 3.8841652 3.0148759 3.90234382l-.76510446.11513126z"/>
      <path fill="rgb(32,162,106)" fill-rule="evenodd" d="M60.40681864 31.37326884s-1.99473662.54838838-2.88432236-.64837079c-.76937346-1.04606628-1.16202366-2.32084137-1.11425927-3.61754543.04776439-1.29670407 5.4498512.97861572 3.99858163 4.26591622z"/>
      <path fill="rgb(69,196,138)" fill-rule="evenodd" d="M60.40681864 31.37326884c-1.80823538-.88959585-3.2297405-2.40613905-3.99858163-4.26591622-.76884113-1.85977718-.48881674 5.44752654 3.99858163 4.26591622z"/>
      <path fill="rgb(94,49,13)" fill-rule="evenodd" d="M61.66684558 13.69754844c-.65887451.02728272-1.7791748 1.10888672-1.7791748 1.10888672l-.15789795.8635254s.58599853-1.24224854 2.52301025-1.51489258c.98345947-.11151124 1.94720459-.35516358 2.86499023-.72418213-.19628906.07159423-.73181152.22735595-1.75378418.2666626-.78234863.03009033-1.00494384.01568603-1.18621826.00396728-.12896728-.00830078-.23706054-.01531982-.51092529-.00396729z"/>
      <path fill="rgb(69,196,138)" fill-rule="evenodd" d="M66.05704333 16.23355919c.17382813.15014648.35961914.2859497.55560303.40594482.26989746.13653565.49121094.35235596.63427734.61816406l.0064087.0180664V17.269692l-.0064087-.01202393c-.10656738-.29547119-.29870605-.55285644-.55230712-.73931884-.18969727-.11633301-.3694458-.24804688-.53741455-.39385987-.07171631-.05932617-.12451172-.13830566-.15179444-.22723388.17230225.03033447.34936524-.01495362.48577881-.12426758.05279541-.0366211.08862305-.09283448.09942627-.1560669.01086426-.06323242-.0041504-.12817383-.04174805-.18023681-.06445312-.07232666-.16516113-.10070801-.25805664-.07269287-.19024658.03887939-.34790039.17108154-.41894531.35144042-.241333-.09173583-.4562378-.24163818-.62548828-.4362793-.08050537-.07855224-.15179444-.16595458-.21252442-.26055907h.036438c.2322998-.07409668.4165039-.25231934.4979248-.4817505.04199218-.1444702.01391601-.30029296-.0758667-.42114257-.07305908-.10009766-.19641113-.1505127-.31884766-.13024902-.19470215.04888916-.347229.19995117-.39770508.39385986-.04736328.1571045-.04736328.324646 0 .48175049-.27752685-.1994629-.49664306-.46936035-.63458252-.78167725l-.13659668.06359863c.01818848.05151368.4038086.8392334.84710694.90893555.07434082.13354492.16851806.25512695.27929687.36053467.19769287.20819092.44537354.3624878.71954346.4484253.01507568.14709472.0895996.28173827.20648193.37268066zm-.87133789-2.09063721h.03033448c.05664062-.00048828.10992431.02667236.1427002.0727539.06072997.08288575.07977294.18908692.05163573.2878418-.0647583.19360352-.2163086.3460083-.40985107.41204834h-.05163574c-.06945801-.14666748-.0834961-.31347656-.03948975-.46966553.02996826-.14361572.13580322-.25970458.27630615-.30297851zm.8348999 1.59674072c.12994385.0253296.26452637-.00549316.37042237-.08483887.02124023-.01818847.07891846-.07574462.03643799-.13330078-.03253174-.04400634-.04730225-.03485107-.07556153-.01727295-.00866699.00543213-.01861572.01159668-.03070068.01727295-.1281128.02368164-.23858643.10388184-.30059814.21813965z"/>
      <path fill="rgb(32,162,106)" fill-rule="evenodd" d="M61.80954578 17.97867637c-.14556885.16766358-.30499268.32269287-.47668458.46356202-.20404052.20269775-.3494873.4557495-.42211914.73254394-.01196289.02807617-.02307128.0565796-.0333252.08544922l.012146.00604248c.00616456-.03076172.01324463-.0612793.0211792-.0914917.10784913-.2532959.28424073-.47253418.51013184-.63256836.17675781-.14703369.34124756-.30810547.49188232-.48175049.10229493-.10638427.15704346-.24951172.15179444-.39685058.25946045-.12524414.48297119-.31390381.64971924-.54840088.09503173-.11828613.16992187-.25134278.22167968-.39385986.43109131-.13031006.71044922-.9664917.71044922-1.00891114l-.1427002-.04547119c-.09051513.3291626-.2689209.62762451-.5161743.86346436.02978515-.16101075.00854491-.32727051-.06072999-.47564698-.07495117-.18408203-.24523926-.31219482-.4432373-.33325195-.12695313-.0057373-.24554444.06292725-.3036499.17572022-.06524659.1338501-.06524659.2902832 0 .4241333.10632324.2298584.31610107.39526367.5647583.44537353h.03643798c-.16125488.33111572-.42248535.6034546-.7468872.77868652-.09381104-.17407226-.2701416-.28826904-.46759034-.30297851-.0949707-.01141358-.18841552.03057861-.24285888.10906982-.02966309.05737305-.03509522.12420655-.01513672.18566895.0199585.06140137.06365967.11236572.12139892.14154053.15081787.08782959.33221436.10656738.4979248.05151367-.0133667.09283447-.0546875.17944336-.1184082.24841308zm.51916503-1.69970703c-.04968261-.09490967-.04968261-.20806885 0-.30297851.02954102-.05627442.08813477-.09136963.15179444-.09094239h.0303955c.1381836.02319336.25378419.11773682.30358887.24847413.06445313.14733886.07409668.31274414.02734375.46655273-.01812744.00299072-.03656006.00299072-.0546875 0-.19390869-.03155518-.36273193-.1498413-.45843506-.32110596zm-.76812744 1.10583496c-.05163574 0-.09417724 0-.10327148.03027344-.00909424.03033447.0303955.11212158.0546875.1272583.11676025.06225586.25427246.07324219.3795166.03033447-.07580566-.10980224-.19769287-.1790161-.33093262-.1878662z"/>
      <path fill="rgb(32,162,106)" fill-rule="evenodd" d="M63.65244033 13.8975552s-.8865496.74229367-.34004642 2.47229237.97459734 4.79915575 1.9825921 5.95046837c1.00799476 1.15131262.7802851-1.31189043.70438188-1.87542766-.07590322-.56353723-1.48163085-7.73500293-2.34692756-6.54733307z"/>
      <path fill="rgb(69,196,138)" fill-rule="evenodd" d="M65.9993679 20.44488828c-.06983097-.51809068-1.2539212-6.56854146-2.12529017-6.6654941-.23062285.3950066-.27718614.87072755-.1275174 1.30280112.3795161.90893101 1.38751086 4.3386307 1.38447473 5.24453195.05838246.79982913.2959841 1.57637065.6952735 2.27232753.37344384-.21814344.23074578-1.73302846.17305933-2.1541665z"/>
      <path fill="rgb(32,162,106)" fill-rule="evenodd" d="M63.6706571 13.83090027s-1.08997024.3635724-1.21445152 2.1753749c-.12448128 1.81180248-.85922445 4.82642368-.34004642 6.2595049.51917802 1.43308124 1.21445152-.9392287 1.34500506-1.49064685.13055353-.55141815 1.4543057-7.7380327.20949288-6.94423295z"/>
      <path fill="rgb(69,196,138)" fill-rule="evenodd" d="M63.44294744 20.77513322c.12448128-.5059716 1.24177668-6.56854147.47667223-6.96847111-.36322456.28048625-.5851275.7056476-.60722576 1.1634317.0212529.98164549-.30361289 4.54465507-.64062318 5.38693114-.23797252.76502989-.3022748 1.5733348-.18823999 2.3662504.44934706-.08180378.86833284-1.53003387.9594167-1.94814213z"/>
      <path fill="rgb(73,35,9)" fill-rule="evenodd" d="M37.82105648 44.00438017l-.97156121-.02726793c.01821677 0 3.0361288-1.97541007 3.1302488-3.741766.06679483-1.32400952.08197547-2.44502444-1.73970181-3.82659958l.60722576-.56050746c1.47859473 1.36036675 2.04938694 3.06915706 1.71541277 4.571923-.49792512 2.16931536-2.65357657 3.53271188-2.7416243 3.58421797z"/>
      <path fill="rgb(127,226,244)" fill-rule="evenodd" d="M32.77804654 35.0392906v-2.12083903c0 .73017458.7590322 1.25735457 1.70326826 1.81786203 2.04153154 1.17823917 4.55062692 1.21038384 6.62179692.08483356 1.04746444-.57868608 1.86114696-1.1634317 1.86114696-1.9420826v2.12083903c0 .77562113-.51917803 1.55124226-1.56360634 2.12083903-2.0342063 1.12707446-5.25857508 1.09677676-7.19866139-.07271448-.94423605-.5453586-1.4239444-1.27856296-1.4239444-2.00873754z"/>
      <path fill="rgb(205,246,252)" fill-rule="evenodd" d="M41.55245878 30.86426747c1.9491947 1.16949124 1.87936373 3.02977005-.15484257 4.16290405-2.0342063 1.133134-5.25250282 1.09677676-7.19866139-.07271448-1.94615856-1.16949124-1.8763276-3.02977005.14877032-4.16290405 2.0250979-1.133134 5.25857508-1.1028363 7.20473364.07271448z"/>
      <path fill="rgb(127,226,244)" fill-rule="evenodd" d="M37.86052616 35.1210944c-1.1459972.02545439-2.2786645-.24928462-3.28509136-.79682953-.69223737-.41810827-1.07782573-.90893102-1.06568121-1.43005146.01214451-.52112045.4432748-1.05738975 1.19319862-1.47549802.98531135-.50432653 2.08081396-.756285 3.18793524-.73320435 1.14414028-.03105615 2.2762453.23962016 3.28205523.78471044.69830963.4150785 1.0747896.90893102 1.06871734 1.4270217-.00607226.51809067-.4432748 1.06041951-1.19319862 1.475498-.9833203.51126915-2.0793309.76855262-3.18793524.74835321z"/>
      <path fill="rgb(32,162,106)" fill-rule="evenodd" d="M38.8867377 20.9781278s-.25807095-5.45358608 1.71541277-6.45038042c1.97348372-.99679435 2.50480626-.60595401 4.5541932-2.95705557s7.90911553-2.34201225 9.41199929-1.133134c1.50288375 1.20887825-1.0960425.84227608-2.98755075 3.55695004-1.89150824 2.71467396-2.19512112 2.99644258-6.43355693 5.27179988-4.2384358 2.2753573-6.01457115 3.11460361-6.26049759 1.71182008z"/>
      <path fill="rgb(69,196,138)" fill-rule="evenodd" d="M37.70568359 27.77390203s.17002321-3.5811882-1.12640379-4.24167807c-1.296427-.66048987-1.64254568-.40598919-2.98147848-1.93905283-1.3389328-1.53306365-5.18874412-1.5270041-6.18155824-.72714481-.99281412.79985929.7165264.55444792 1.9613392 2.33292293 1.24481282 1.77847502 1.43912506 1.96632076 4.22021904 3.45696763 2.78109398 1.49064686 3.94696744 2.03600547 4.10788227 1.11798515z"/>
      <path fill="rgb(94,49,13)" fill-rule="evenodd" d="M39.6488402 25.61063438c-.6588745.02423096-1.7791748 1.105896-1.7791748 1.105896l-.15484619.86651611s.58599854-1.24224853 2.52301026-1.51489258c.98468017-.11132812 1.94946289-.35577392 2.86791992-.72650146-.19171143.0704956-.7290039.22924804-1.7597046.26898193-.78765868.03039551-1.00750732.0164795-1.1903076.00500488-.12719727-.00805664-.23651124-.0149536-.50689698-.00500488z"/>
      <path fill="rgb(94,49,13)" fill-rule="evenodd" d="M34.08359363 28.90091758c.6588745.024292 1.7791748 1.105896 1.7791748 1.105896l.15789795.85742188s-.58599853-1.2421875-2.52301025-1.51489258c-.98132325-.1081543-1.9432373-.34851074-2.85961914-.71435547.1986084.07189941.73522949.22680664 1.7514038.26593017.78759766.03039551 1.0064087.0164795 1.1883545.00500489.12664795-.00805664.2354126-.01495362.50579834-.00500489z"/>
      <path fill="rgb(69,196,138)" fill-rule="evenodd" d="M45.15027141 19.30266497c4.25058033-2.2753573 4.53901256-2.55712592 6.43355693-5.27179988 1.5180644-2.19658328 3.53405393-2.37533972 3.43386168-3.00553189-.94423606-.13330988-2.5503482-.18481597-3.66460747.76047228-1.66379858 1.40884308-4.65742158 3.02977005-5.88401761 3.63572406-1.22659604.60595401-2.60499852 1.71182008-3.22740492 2.86919224-.54043093 1.00588365-2.50784239 2.83889453-3.02094816 3.30850889.71045414.42719758 2.52605917-.46961436 5.92955955-2.2965657z"/>
      <path fill="rgb(32,162,106)" fill-rule="evenodd" d="M29.37758229 23.18985994c1.23874055 1.77847502 1.43912505 1.96632076 4.22021903 3.45696763 2.78109398 1.49064686 3.94696744 2.04509478 4.10788227 1.12707446v-.0908931c-.56540978-.74249533-1.24718153-1.38907778-2.01902565-1.91481468-1.21445152-.7574425-3.7101494-2.266268-4.76975835-3.66602175-.57079222-.76047229-1.94312243-1.21190802-3.08167073-1.47246825-.15098456.0548933-.29315108.13144119-.4220219.22723276-.989778.79379975.71956252.55444792 1.96437533 2.33292293z"/>
      <path fill="rgb(94,49,13)" fill-rule="evenodd" d="M38.43739063 35.13927301c-.11840902-.08483356-2.5412398-1.83907042-2.84181656-3.93870106-.10312712-.638742.06888495-1.29123892.4736361-1.79665364 1.63950955-2.12083903 4.3021945-7.8198365 1.5180644-11.04957136l-2.36818047-3.68420038 2.82967204 3.29033027c3.01183978 3.51150349.22467354 9.58316266-1.5180644 11.81610319-.30393342.37557162-.43213767.8630509-.35219094 1.33915836.2641432 1.84210019 2.99058687 3.8841652 3.0148759 3.90234382l-.75599607.1211908z"/>
      <path fill="rgb(69,196,138)" fill-rule="evenodd" d="M37.24419201 33.38200638s-.1275174-2.72679304.85618832-3.21761579c.98370574-.49082274 1.25088507-.302977 2.26798822-1.47549801 1.01710315-1.172521 3.94696744-1.15737216 4.69992738-.55141815.75295995.60595401-.54650318.41810827-1.49073924 1.77241548-.94423605 1.35430721-1.09300637 1.49367663-3.20918814 2.6298404-2.11618178 1.13616377-2.99969526 1.53912318-3.12417654.84227607z"/>
      <path fill="rgb(32,162,106)" fill-rule="evenodd" d="M40.36836855 32.54578985c2.12529016-1.13616377 2.26798821-1.27856296 3.20918814-2.6298404.76510446-1.09677676 1.76399084-1.18464009 1.71541278-1.51488502-.47059997-.06665495-1.27213797-.0908931-1.82167729.37872125-.9155534.70198754-1.89908066 1.3109642-2.93593655 1.81786203-.66216148.31508127-1.22042024.81225742-1.60914826 1.43308123-.27021546.49991206-1.2539212 1.41490261-1.5180644 1.6481949.3582632.21511368 1.2660657-.2211732 2.96022558-1.13313399z"/>
      <path fill="rgb(69,196,138)" fill-rule="evenodd" d="M60.84402119 11.77671617S60.69525088 8.577279 61.85505208 7.9925334c1.1598012-.58474562 1.46645021-.36054264 2.66572109-1.73302847 1.19927087-1.37248583 4.6392048-1.37248583 5.52271829-.66654941.88351348.70593642-.64062318.49385252-1.7488102 2.08751156-1.108187 1.59365905-1.29035473 1.75423686-3.7739081 3.09036545-2.48355335 1.33612859-3.52798166 1.83907042-3.67675197 1.00588365z"/>
      <path fill="rgb(32,162,106)" fill-rule="evenodd" d="M64.52077317 10.80415999c2.48355336-1.33309882 2.66268496-1.49973617 3.7739081-3.09036545.91083864-1.29068204 2.07063984-1.39369422 2.0129534-1.76332617-.55257545-.07877402-1.49377538-.10604195-2.14654307.4453762-1.07731985.81950328-2.23371414 1.52995242-3.45207845 2.12083903-.77745749.37149524-1.4341214.95432406-1.89454437 1.68152238-.31879352.59080516-1.46948634 1.66637353-1.77309922 1.93905283.41898578.26661976 1.49073924-.26056022 3.4794036-1.33309882z"/>
      <path fill="rgb(69,196,138)" fill-rule="evenodd" d="M60.58595024 6.70185135s-.42809416-3.55695004-1.82167728-3.98717739c-1.39358312-.43022734-1.68808761-.12725034-3.26383846-1.42096215C53.92468365 0 50.12648652.63928148 49.27940658 1.59668881c-.84707993.95740734.80457414.4150785 2.32263854 1.96632077 1.5180644 1.55124226 1.74577406 1.699701 4.73636093 2.72679304s4.24147193 1.3452179 4.2475442.41204873z"/>
      <path fill="rgb(32,162,106)" fill-rule="evenodd" d="M51.60204512 3.56300958c1.5180644 1.54821249 1.74577406 1.699701 4.73636093 2.72679304s4.23236355 1.36036675 4.25058032.42719758v-.08786334c-.67977726-.63931036-1.45907036-1.16423151-2.30745789-1.55427203-1.32071603-.5453586-4.03501518-1.62092698-5.3132254-2.82677545-.69223737-.65443033-2.12529016-.87560355-3.28509137-.94225849-.14068465.08191026-.26855394.18399145-.3795161.302977-.86226058.9210501.7802851.40295942 2.2983495 1.95420169z"/>
      <g opacity=".4">
        <path fill="rgb(32,162,106)" fill-rule="evenodd" d="M99.6275305 67.43056218c4.76975835 2.74800143 4.79404738 7.20479317.05768645 9.9527946-4.73636093 2.74800144-12.44812809 2.74800144-17.21788643 0-4.76975835-2.74800143-4.79404738-7.20479317-.05768645-9.9527946 4.73636093-2.74800143 12.44812809-2.74800143 17.21788643 0z"/>
      </g>
      <g opacity=".4">
        <path fill="rgb(32,162,106)" fill-rule="evenodd" d="M21.9572835 81.57655853c4.76975834 2.74800143 4.79404737 7.2017634.05465031 9.94976484-4.73939706 2.74800143-12.44812808 2.74800143-17.2148503 0C.03036129 88.77832193 0 84.32455997 4.73939706 81.57655853c4.73939706-2.74800143 12.44812809-2.7510312 17.21788644 0z"/>
      </g>
      <g>
        <path fill="rgb(162,196,197)" fill-rule="evenodd" d="M96.70070234 68.86061364l-.79850188.02726793.42809417 1.16646147.79850187-.02726793-.42809416-1.16646147z"/>
        <path fill="rgb(159,192,193)" fill-rule="evenodd" d="M97.1287965 70.0270751l-.79850187.02726794-.5373948.30600677.79850187-.02423816.5373948-.30903654z"/>
        <path fill="rgb(32,162,106)" fill-rule="evenodd" d="M96.5914017 70.33611165l-.79850187.02423816.52221415 1.43914078.801538-.02726793-.52525028-1.436111z"/>
        <path fill="rgb(159,192,193)" fill-rule="evenodd" d="M96.70070234 68.86061364l-.79850188.02726793-.53435866.30600678.79546574-.02423816.5373948-.30903655z"/>
        <path fill="rgb(162,196,197)" fill-rule="evenodd" d="M94.35377478 62.4314416l-.79546575.02423816.42505803 1.172521.79850188-.02423815-.42809416-1.17252101z"/>
        <path fill="rgb(159,192,193)" fill-rule="evenodd" d="M94.78186894 63.6039626l-.79850188.02423817-.53435867.30903654.79546575-.02423816.5373948-.30903654z"/>
        <path fill="rgb(32,162,106)" fill-rule="evenodd" d="M94.24447414 63.91299915l-.79546575.02423816 1.9188334 5.25665104.79546575-.02423816-1.9188334-5.25665104z"/>
        <path fill="rgb(159,192,193)" fill-rule="evenodd" d="M94.35377478 62.4314416l-.79546575.02423816-.54043093.30903655.801538-.02423817.53435868-.30903654z"/>
        <path fill="rgb(162,196,197)" fill-rule="evenodd" d="M91.5848253 54.83883786l-.79850187.02726793.42505804 1.16646147.79850187-.02726793-.42505803-1.16646147z"/>
        <path fill="rgb(32,162,106)" fill-rule="evenodd" d="M91.47248854 56.31433587l-.79546574.02726793 2.3408553 6.4231125.801538-.02423816-2.34692756-6.42614227z"/>
        <path fill="rgb(159,192,193)" fill-rule="evenodd" d="M92.00988334 56.00529933l-.79850187.02726793-.53435867.30903654.79546574-.02726793.5373948-.30903654z"/>
        <path fill="rgb(159,192,193)" fill-rule="evenodd" d="M91.5848253 54.83883786l-.79850187.02726793-.5373948.30600678.79850188-.02423816.5373948-.30903655z"/>
        <path fill="rgb(162,196,197)" fill-rule="evenodd" d="M87.95665139 44.90725164l-.79546575.02726794.42505804 1.16646146.79850187-.02423816-.42809416-1.16949124z"/>
        <path fill="rgb(32,162,106)" fill-rule="evenodd" d="M87.84735075 46.38577943l-.79850187.02423816 3.20007976 8.76209498.79850187-.02423816-3.20007976-8.76209498z"/>
        <path fill="rgb(159,192,193)" fill-rule="evenodd" d="M88.38474555 46.07674288l-.79850187.02423816-.5373948.30903655.79850187-.02423816.5373948-.30903655z"/>
        <path fill="rgb(32,162,106)" fill-rule="evenodd" d="M96.16330754 69.16965019l-.79546574.02423816-7.5781775 4.36589863.79546575-.02726793 7.5781775-4.36286886z"/>
        <path fill="rgb(159,192,193)" fill-rule="evenodd" d="M89.01626034 74.7020103l-.79850187.02423815-.54043093.31206632.79850187-.02726793.54043093-.30903655z"/>
        <path fill="rgb(159,192,193)" fill-rule="evenodd" d="M87.95665139 44.90725164l-.79546575.02726794-.5373948.30903654.79850188-.02423816.53435867-.31206632z"/>
        <path fill="rgb(69,196,138)" fill-rule="evenodd" d="M88.05077138 73.84458537l.42505803 1.16646147.54043093-.30903655 7.57514136-4.36589864.5373948-.30903654-.42809416-1.16646147-.5373948.30903655-7.57817749 4.36286886-.53435867.31206632z"/>
        <path fill="rgb(162,196,197)" fill-rule="evenodd" d="M88.05077138 73.84458537l-.79546574.02423816.4220219 1.16949124.79850187-.02726793-.42505803-1.16646147z"/>
        <path fill="rgb(159,192,193)" fill-rule="evenodd" d="M88.58513005 73.53251905l-.79546574.02726793-.53435867.30903655.79546574-.02423816.53435867-.31206632z"/>
        <path fill="rgb(32,162,106)" fill-rule="evenodd" d="M93.8194161 62.74047814l-.801538.02423817-7.57514136 4.36589863.79850188-.02423816 7.57817749-4.36589864z"/>
        <path fill="rgb(162,196,197)" fill-rule="evenodd" d="M85.18770192 37.31767768l-.79546574.02423816.4220219 1.16646146.79850187-.02423816-.42505803-1.16646146z"/>
        <path fill="rgb(159,192,193)" fill-rule="evenodd" d="M86.66933278 68.2788978l-.79850188.02423815-.5373948.30903655.79850188-.02726793.5373948-.30600678z"/>
        <path fill="rgb(159,192,193)" fill-rule="evenodd" d="M85.61275995 38.48413914l-.79850187.02423816-.53435867.30903655.79546575-.02423816.5373948-.30903655z"/>
        <path fill="rgb(32,162,106)" fill-rule="evenodd" d="M85.07536516 38.79317569l-.79546575.02423816 2.34389144 6.42614227.79850187-.02423816-2.34692756-6.42614227z"/>
        <path fill="rgb(162,196,197)" fill-rule="evenodd" d="M85.70384382 67.41541333l-.79546575.02423816.42505803 1.172521.79850188-.02726792-.42809416-1.16949124z"/>
        <path fill="rgb(69,196,138)" fill-rule="evenodd" d="M85.70384382 67.41541333l.42809416 1.16949124.5373948-.30600678 7.57514136-4.36589864.5373948-.30903654-.42809416-1.17252101-.53435867.30903654-7.5781775 4.36589864-.5373948.30903655z"/>
        <path fill="rgb(159,192,193)" fill-rule="evenodd" d="M86.24123862 67.10637678l-.79850188.02423816-.53435867.30903655.79546575-.02423816.5373948-.30903655z"/>
        <path fill="rgb(159,192,193)" fill-rule="evenodd" d="M85.18770192 37.31767768l-.79546574.02423816-.5373948.30903654.79546574-.02726793.5373948-.30600677z"/>
        <path fill="rgb(32,162,106)" fill-rule="evenodd" d="M91.04743051 55.1478744l-.79850187.02423817-7.57514137 4.36589863.79546575-.02423816 7.57817749-4.36589863z"/>
        <path fill="rgb(159,192,193)" fill-rule="evenodd" d="M83.89734718 60.68023451l-.79850187.02423816-.5373948.31206632.79850187-.02726793.5373948-.30903655z"/>
        <path fill="rgb(162,196,197)" fill-rule="evenodd" d="M82.20318731 29.13729855l-.79850187.02726793.42505803 1.16646147.79850187-.02726793-.42505803-1.16646147z"/>
        <path fill="rgb(159,192,193)" fill-rule="evenodd" d="M82.62824534 30.30376002l-.79850187.02726793-.53435867.30903654.79546574-.02726793.5373948-.30903654z"/>
        <path fill="rgb(32,162,106)" fill-rule="evenodd" d="M82.09085054 30.61279656l-.79546574.02726793 2.55945658 7.0108879.79546574-.02726794-2.55945658-7.01088789z"/>
        <path fill="rgb(162,196,197)" fill-rule="evenodd" d="M82.93489435 59.82280959l-.79850187.02726793.42505803 1.16646147.79850187-.02726793-.42505803-1.16646147z"/>
        <path fill="rgb(159,192,193)" fill-rule="evenodd" d="M83.46925302 59.51377304l-.79546575.02423816-.5373948.31206632.79850188-.02726793.53435867-.30903655z"/>
        <path fill="rgb(159,192,193)" fill-rule="evenodd" d="M82.20318731 29.13729855l-.79850187.02726793-.5373948.30600677.79850187-.02423816.5373948-.30903654z"/>
        <path fill="rgb(162,196,197)" fill-rule="evenodd" d="M79.43120171 21.5446948l-.79850187.02726794.42809416 1.16646147.79546575-.02726793-.42505804-1.16646147z"/>
        <path fill="rgb(32,162,106)" fill-rule="evenodd" d="M79.32190108 23.02019282l-.79850188.02726793 2.34389144 6.4231125.79850187-.02423816-2.34389143-6.42614227z"/>
        <path fill="rgb(159,192,193)" fill-rule="evenodd" d="M79.85625975 22.71115628l-.79546575.02726793-.5373948.30903654.79850188-.02726793.53435867-.30903654z"/>
        <path fill="rgb(32,162,106)" fill-rule="evenodd" d="M87.42229272 45.21931796l-.79850187.02423816-7.57514136 4.36589864.79850187-.02726793 7.57514136-4.36286887z"/>
        <path fill="rgb(159,192,193)" fill-rule="evenodd" d="M79.43120171 21.5446948l-.79850187.02726794-.53435867.30600677.79850188-.02423816.53435866-.30903654z"/>
        <path fill="rgb(159,192,193)" fill-rule="evenodd" d="M80.2722094 50.7486483l-.79850188.02726793-.5373948.30903654.79850187-.02423816.5373948-.31206631z"/>
        <path fill="rgb(159,192,193)" fill-rule="evenodd" d="M79.84715136 49.58218683l-.79850187.02726793-.5373948.30600677.79850187-.02120839.5373948-.31206631z"/>
        <path fill="rgb(162,196,197)" fill-rule="evenodd" d="M79.30975656 49.89425314l-.79850187.0212084.42505803 1.16949123.79850187-.02423816-.42505803-1.16646147z"/>
        <path fill="rgb(32,162,106)" fill-rule="evenodd" d="M78.165136 19.8571129l-.79850187.02726792.73170704 1.9935887.79850188-.02423817-.73170705-1.99661846z"/>
        <path fill="rgb(78,216,150)" fill-rule="evenodd" d="M79.2399256 19.2390398l-.79850188.02423816-1.0747896.62110286.79850188-.02726793 1.0747896-.61807309z"/>
        <path fill="rgb(32,162,106)" fill-rule="evenodd" d="M84.65030712 37.62368445l-.79546574.02726793-7.5781775 4.36589864.79850188-.02423816 7.57514136-4.3689284z"/>
        <path fill="rgb(159,192,193)" fill-rule="evenodd" d="M77.5002238 43.15907433l-.79546575.02423816-.5373948.30903654.79850188-.02423816.53435867-.30903654z"/>
        <path fill="rgb(162,196,197)" fill-rule="evenodd" d="M76.53777097 42.3016494l-.79850188.02423816.42809416 1.16646147.79850188-.02423816-.42809416-1.16646147z"/>
        <path fill="rgb(159,192,193)" fill-rule="evenodd" d="M77.07516576 41.99261286l-.79850187.02423816-.5373948.30903654.79850188-.02423816.5373948-.30903654z"/>
        <path fill="rgb(32,162,106)" fill-rule="evenodd" d="M81.66579251 29.4463351l-.79850187.02423815-7.57514136 4.36589864.79850187-.02726793 7.57514136-4.36286887z"/>
        <path fill="rgb(159,192,193)" fill-rule="evenodd" d="M74.51570918 34.97566543l-.79850187.02726793-.5373948.31206631.79850188-.02726793.5373948-.31206631z"/>
        <path fill="rgb(159,192,193)" fill-rule="evenodd" d="M74.09065115 33.80920396l-.79850187.02726793-.5373948.31206632.79850187-.02726793.5373948-.31206632z"/>
        <path fill="rgb(162,196,197)" fill-rule="evenodd" d="M73.55325635 34.12127028l-.79850187.02726793.42505803 1.16646146.79850188-.02726793-.42505804-1.16646146z"/>
        <path fill="rgb(32,162,106)" fill-rule="evenodd" d="M78.89684305 21.85373135l-.79850188.02423816-7.57817749 4.36589864.79850188-.02423816 7.57817749-4.36589864z"/>
        <path fill="rgb(159,192,193)" fill-rule="evenodd" d="M71.74372359 27.38609146l-.79850188.02726793-.5373948.30903655.79850188-.02726794.5373948-.30903654z"/>
        <path fill="rgb(162,196,197)" fill-rule="evenodd" d="M70.78127076 26.52866654l-.79850188.02726793.42505804 1.16646147.79850187-.02726794-.42505803-1.16646146z"/>
        <path fill="rgb(159,192,193)" fill-rule="evenodd" d="M71.31866556 26.21963l-.79850188.02423815-.5373948.31206632.79850188-.02726793.5373948-.30903655z"/>
        <path fill="rgb(69,196,138)" fill-rule="evenodd" d="M79.23087146 19.23905235l-1.0748291.60595703.72869873 1.99664307-7.56604004 4.37799072-.72869873-1.99664307-1.07476807.60595704 18.94848633 51.9151001 1.07476807-.605896-.5222168-1.43615723-.54040527.30297852-.42504883-1.16644287.53735351-.30297852-1.91882324-5.25665283-.53735351.30297851-.42810059-1.16949463.53735352-.30297851-2.34387208-6.42614746 7.59033204-4.362854 2.34387207 6.4230957.53436279-.30297852.42810059 1.16949463-.5343628.30297852 1.91577149 5.25665283.53741455-.30297852.42810058 1.16644287-.53741455.30297852.52526856 1.43615723 1.07177734-.60595704-18.96972656-51.92724609zm-7.48712158 8.1470337l7.59033203-4.36590577 2.3256836 6.42614746-7.57513429 4.36590576-2.34088134-6.42614746zm10.36230468 3.21154784l-7.59033203 4.362854 2.55944825 7.01696778 7.59033203-4.36895752-2.55944825-7.01086426zM77.5002196 43.14090782l7.57513428-4.36590576 2.34692383 6.4230957-7.59033203 4.36590576-2.33172608-6.4230957zm2.77197266 7.59558105l3.19702148 8.76513672 7.57818604-4.36590576-3.20007324-8.76208496-7.57513428 4.362854z"/>
        <path fill="rgb(32,162,106)" fill-rule="evenodd" d="M69.51520505 24.84108462l-.79546575.02423816 18.94544372 51.91510977.79850188-.02423817-18.94847985-51.91510976z"/>
        <path fill="rgb(78,216,150)" fill-rule="evenodd" d="M70.58999464 24.22301153l-.79850187.02423816-1.07175347.61807309.79546575-.02423816 1.0747896-.61807309z"/>
      </g>
      <path fill="rgb(17,17,20)" fill-rule="evenodd" d="M89.63259449 65.5066582s.68312898 1.09374699-.2641432 1.3543072c-.9472722.26056023-.66491221-.33024493-2.73251593.18784575-2.06760371.51809068-1.82167728-.63928148-1.77613535-.87560354.04554193-.23632207.94727219-.56959677 1.39661925-.68472803.44934706-.11513126 2.25280757-.5362693 2.25280757-.5362693l1.09907863.20602436.02428903.34842356z"/>
      <path fill="rgb(17,17,20)" fill-rule="evenodd" d="M90.88347955 62.48900723s-.78939348.11513126-.60722576.56959677c.18216773.4544655 1.09907863 1.14525308 1.21445153 1.43308123.11537289.28782816.84707993 1.17555078 1.09907862 1.21190802.42809416.07271448.86529671.04847632.79242962-1.12404469-.0728671-1.172521-1.44823344-2.14204742-2.498734-2.09054133z"/>
      <path fill="rgb(255,203,166)" fill-rule="evenodd" d="M94.27483543 42.49858446s1.53628117 2.27232753.54043092 6.10195687c0 0-1.7184489 5.78080125-1.41179989 6.91696502.306649 1.13616377 1.35411345 3.86901635.6649122 6.20799883-.27872135.90636818-.50978228 1.82665361-.69223736 2.75709074-.05161419.60595401-1.0747896.67260895-1.21445152-.01817862-.31879352-1.46337893-.07893935-3.63572406-.30361288-4.72644127-.72563478-3.54483096-1.10211475-5.38996092-.8744051-7.80468764.22770967-2.41472673-.04857806-7.87740213-.04857806-7.87740213s2.72644367.28782816 3.33974169-1.5573018z"/>
      <path fill="rgb(255,203,166)" fill-rule="evenodd" d="M92.55942265 43.89227868s1.32071603 2.40260765-.03036128 6.12316527c0 0-2.24977145 5.59901504-2.04938695 6.75941697.2003845 1.16040193.98674186 3.97808807.08197548 6.2413263 0 0-.87744122 2.08145202-.94423606 2.67831672-.10930063.9513478-1.07175346 1.0725386-1.17194571.37266172-.20645676-1.42096216.21556514-4.13260635.09411999-5.23544265-.39166062-3.59633704-.60722576-5.46873493-.14269805-7.85013419.4645277-2.38139926.68312898-7.84710442.68312898-7.84710442s2.6991185.52415022 3.4794036-1.24220572z"/>
      <path fill="rgb(32,162,106)" fill-rule="evenodd" d="M94.7454354 43.5468849s1.62736503 1.51488502.9715612 6.85636961c-.60722575 4.92943587-.30361287 5.53841965-.30361287 5.53841965s-3.9955455 2.19052374-7.68140587.50900137c0 0-.40684126-1.1240447 0-5.56871735.40684126-4.44467266 1.02621153-5.4929731 1.02621153-5.4929731s3.32456104 1.44823009 5.987246-1.84210019z"/>
      <path fill="rgb(17,17,20)" fill-rule="evenodd" d="M88.13578299 65.2642766s.55257544 1.18161031 1.5180644.26358999c0 0 .14877031 1.26038434-.75599607 1.09677676-.90476638-.16360759-1.2751741-1.09677676-.76206833-1.36036676z"/>
      <path fill="rgb(255,203,166)" fill-rule="evenodd" d="M83.27494078 30.06743795s-1.77309922-2.06024363-2.78413011-1.7299987c-1.0110309.33024494-1.0110309 1.25129503-.74688769 1.3452179.2641432.09392288 2.02509791.30297701 2.86003333 1.1240447 0 0 .64669544-.15451828.67098447-.7392639z"/>
      <path fill="rgb(249,249,249)" fill-rule="evenodd" d="M94.45700315 31.88227021c.5677561.42719758.82279091 1.81786203-1.25088506 2.266268-2.07367597.44840596-6.45784596 1.58153996-7.0832885 1.03618135-.50399738-.4453762-.96852508-1.49064686 1.59700375-2.26020845 2.56552884-.7695616 5.33751444-2.08751157 6.73716981-1.0422409z"/>
      <path fill="rgb(249,249,249)" fill-rule="evenodd" d="M88.03559074 34.47575337s-.70741801 1.41490261-1.89454437.79076998c-1.18712637-.62413263-4.17771324-4.81733437-4.17771324-4.81733437s1.06871734-.60595401.89262187-1.21190802c-.00303613-.01514885 5.1553467 3.84477819 5.17963574 5.23847241z"/>
      <path fill="rgb(229,238,255)" fill-rule="evenodd" d="M94.27787156 31.13694678s1.80042437.605954 1.01710314 3.26003257c-.78332123 2.65407856-1.12640378 5.6747593-.60722576 6.5140056 2.06788171 3.45195505 2.91664902 7.49595744 2.41068627 11.48585825-.50596275 3.98990082.06983096 2.35413133-4.69689125 2.82980523-1.59396763.15754804-6.47606274-.36660218-5.86580085-3.02977005.88123497-3.81768845.92370157-7.78051711.12448128-11.61613836-.19734837-.99679435-.93512767-4.96882288 1.86114696-6.55339262 2.79627462-1.58456973 3.889281-2.8419243 5.7565002-2.89040062z"/>
      <path fill="rgb(249,249,249)" fill-rule="evenodd" d="M89.04662163 34.42424728c.70438188-.03635724 1.7822076.86348446.48274448 2.51773891-1.29946313 1.65425445-3.92267841 5.2899785-4.74546932 5.26574034-.66794833-.02120839-1.68505148-.52415022-.21860127-2.72679304 1.4664502-2.20264282 2.7507327-4.98094196 4.48132611-5.05668621z"/>
      <path fill="rgb(255,203,166)" fill-rule="evenodd" d="M80.07486102 37.26011204c-.43688033-.2213864-.89069028-.40779837-1.35714957-.55747768-.28539611-.03938701-.7893935-.64231125-.895658-.99376458-.1062645-.35145333-.2853961-1.32400951.22467353-1.14525308.51006964.17875644.71349027.37266172 1.04746444.43931666.39977044.11144664.7611023.33051697 1.0444283.63322194.13966193.19996482.57686448.85136538.57686448.85136538l-.64062318.77259136z"/>
      <path fill="rgb(249,249,249)" fill-rule="evenodd" d="M85.83439736 41.10792s-.65580382 1.42096216-1.8550747.8392463c-1.19927088-.58171584-4.28397774-4.65069701-4.28397774-4.65069701s1.04139218-.6271624.84707994-1.23917595c0 0 5.2282138 3.66905152 5.2919725 5.05062667z"/>
      <path fill="rgb(255,203,166)" fill-rule="evenodd" d="M89.55365514 31.68836493v1.62698651s1.32071603.71502573 2.40765014-.20299459v-1.64213537c-.7774366.24491974-1.59872289.3193318-2.40765014.21814345z"/>
      <path fill="rgb(255,203,166)" fill-rule="evenodd" d="M89.14074162 26.43777343s-.89262187 1.18161032-.78635736 2.33898248c.1153729 1.2543248-.06679483 1.51488503 0 2.0632734.00393246.29723705.10404094.5852432.28539611.82106769.39166062.37569148 1.18712636.50900136 2.26798822.11513126 1.3085715-.47870367 2.68697398-2.26929777 2.12529016-3.8841652-.56168383-1.61486744-1.92186954-2.76920983-3.89231713-1.45428963z"/>
      <path fill="rgb(230,163,118)" fill-rule="evenodd" d="M92.98144456 29.65235946c-.52525029-1.45125986-1.82167728-3.1964074-1.82167728-3.2873005-.27368975-.24353856-.58029673-.44751512-.91083864-.60595402-.52532274.04202848-1.0296883.22409877-1.46037796.52718-.10855957.28408843-.19980987.57446606-.2732516.869544.30361289.34842355.9472722.74532343 1.04442832 1.03921112.18618773.73256434.14811672 1.5039983-.10930064 2.2147619-.20645676.46355482.6315148 1.14525309.45541932 1.56033158-.00601499.01768314-.00601499.03685272 0 .05453586.34605259-.02785078.68642659-.10435104 1.0110309-.22723275.95272771-.40386784 1.69860433-1.17883056 2.06456758-2.1450772z"/>
      <path fill="rgb(34,34,34)" fill-rule="evenodd" d="M89.75403964 25.73789655s-2.0554592.52112045-1.53324504 1.79968341c.52221415 1.27856296 2.25280757 1.02709205 2.097965 1.8421002-.15484257.81500813-.97763348 2.22082144-.4098774 2.569245.5677561.34842355-.7711767 1.34824766.85922446 2.48441143 1.63040117 1.13616377.1791316 3.63572406 1.46037795 3.74782555 1.28124636.1121015 2.39854176.52717999 3.16668234-.80288906.7681406-1.33006905 1.29946313-3.02977005.60722576-4.84763208-1.21445152-3.175199-1.22963216-3.81145072-1.99777275-4.83248323-.76814058-1.0210325-2.30138563-2.44502442-4.25058032-1.96026122z"/>
      <path fill="rgb(32,162,106)" fill-rule="evenodd" d="M24.58657104 57.03542115l-4.18074936 4.42649403-5.91741504-4.35680932 4.5116874-3.86598658 5.586477 3.79630187z"/>
      <path fill="rgb(69,196,138)" fill-rule="evenodd" d="M23.60893756 57.35051723l-.36737158.46961436-4.51775966-3.15399062.37344384-.48779298 4.5116874 3.17216924z"/>
      <path fill="rgb(69,196,138)" fill-rule="evenodd" d="M22.53111184 58.35337112l-.36433546.46658458-4.52079578-3.15399062.37040771-.48779297 4.51472353 3.175199z"/>
      <path fill="rgb(69,196,138)" fill-rule="evenodd" d="M21.58080352 59.66526155l-.36433545.46658458-4.52079579-3.15399062.37040772-.48779297 4.51472352 3.175199z"/>
      <path fill="rgb(34,34,34)" fill-rule="evenodd" d="M10.88452175 86.19392808s-1.08389798.79379976-.26110707 1.41490262c.8227909.62110285.77117671-.06665495 2.57463722 1.23614617s2.01902565.0818038 2.06456759-.16966712c.04554193-.25147091-.69830963-.90893101-1.08693411-1.21190802-.3886245-.302977-1.98562824-1.39066445-1.98562824-1.39066445l-1.15372895-.22420298-.15180644.34539378z"/>
      <path fill="rgb(34,34,34)" fill-rule="evenodd" d="M16.86265937 84.18822031s.75599607.39689988.40380513.79076998c-.35219094.39387011-1.5180644.7695616-1.73362955 1.02103251-.21556514.25147091-1.26606571.88772262-1.5393173.8392463-.45541932-.0696847-.88958574-.24541137-.40380513-1.40278353.4857806-1.15737216 2.22851854-1.67243307 3.27294685-1.24826526z"/>
      <path fill="rgb(20,57,41)" fill-rule="evenodd" d="M10.8359437 61.90729138s-2.64750432 2.80859684-.04554194 6.88666732c0 0 1.88847212 6.02621262 1.65165407 7.24115041-.23681805 1.2149378-1.10211476 4.16593382-.18823999 6.56248193 0 0 .97763348 2.54500684 1.04139218 3.175199.10019225 1.00588366 1.06264508.39387011 1.1810541-.33933424.24289031-1.49064686-.20645675-3.93870106-.06072257-5.09607322.47667222-3.77509348.72259866-5.75656309.28235998-8.2530936-.44023868-2.49653053-.01821677-7.92890822-.01821677-7.92890822s-3.04827332-.3635724-3.84373907-2.24808938z"/>
      <path fill="rgb(27,76,54)" fill-rule="evenodd" d="M14.04816797 63.84937398s-3.28509137 1.80271318-.65883995 5.7565631l.56471995 6.91696501s-2.32567466 2.85101362-2.93897268 9.59528174c0 0 .95030832 1.34218813 1.44216118.33933425.49185287-1.00285389 4.41756741-7.94405707 4.76672222-10.17093805.34915482-2.22688099 2.31353015-9.08931015 1.15372895-13.16435086-.01518065 0-1.5696786 1.77847502-4.32951967.72714481z"/>
      <path fill="rgb(229,238,255)" fill-rule="evenodd" d="M11.85608297 50.29721256s-1.71237664.58474562-.96852509 3.09642499c.74385156 2.51167937 1.0747896 5.39299068.58293673 6.19284998-1.9635826 3.27817238-2.77157674 7.11770521-2.29531337 10.90717217.47626336 3.78946695-.07893935 2.24808937 4.47525385 2.6995251 1.5180644.14845874 6.15423308-.34539378 5.57433248-2.872222-.8356197-3.6300489-.87290918-7.39770115-.10930063-11.04351182.18823998-.94831802.88958574-4.72038173-1.7700631-6.23223699-2.65964883-1.51185525-3.71318552-2.70558465-5.48932087-2.74800143z"/>
      <path fill="rgb(255,203,166)" fill-rule="evenodd" d="M16.9294542 50.86074979l-.69830963 2.266268s-2.19815725.67866848-3.2577662-1.30886067l.69830962-2.2753573s1.59700375 1.13010423 3.2577662 1.31794997z"/>
      <path fill="rgb(34,34,34)" fill-rule="evenodd" d="M17.06304387 43.8589512s1.76399083.33630448 2.17083209 1.77847503c.40684126 1.44217054.57686447 3.48726532-.47059996 4.41437496-1.12033153.9907348-.79850188 1.78756432-.45845545 2.25111914.34004642.46355482-5.00961253 1.1634317-6.51249628-2.46926259 0 0 .18823998-8.2227959 5.2707196-5.97470653z"/>
      <path fill="rgb(255,203,166)" fill-rule="evenodd" d="M18.29571216 55.12666602c-.34308255-1.08465768-1.93705018-1.46337894-2.22548241.07574425-.28843224 1.53912318 1.00799476 7.6865266 3.46725909 9.27109634 0 0 1.85811083.4756739-1.24177668-9.3468406z"/>
      <path fill="rgb(255,203,166)" fill-rule="evenodd" d="M19.53748884 64.47350661s2.16779596-1.09980653 3.64335456-4.12957657c0 0 1.87936373-.67260895 1.34804119-3.50847372 0 0-.23985418-.38781056-.81975478 1.10586607 0 0-.43416641.86348446-.6224064.09695264-.18823999-.76653182-.48274448-1.21190802-.5799006-.48173344-.09715612.73017458-.19431225 2.01782686-.19431225 2.01782686l-2.79020236 2.2147619.01518064 2.68437626z"/>
      <path fill="rgb(249,249,249)" fill-rule="evenodd" d="M18.05889411 54.19349684c-.41898577-.302977-1.15069281-.605954-2.02813404.23026252-.83797155.7998593-.02428903 4.54465508.48274448 5.6050746 0 0 2.17994048.70593641 3.20615202-1.3452179.00303613-.01514886-.49185287-3.68723016-1.66076246-4.49011922z"/>
    </g>
  </g>
</svg>
