<svg xmlns="http://www.w3.org/2000/svg" xmlns:xlink="http://www.w3.org/1999/xlink" width="95.001" height="137.019" viewBox="0 0 95.001 137.019">
  <defs>
    <path id="path-48" fill-rule="evenodd" d="M1.97497559 28.2954712c0-1.89093018 1.4814453-2.54211427 3.30932617-1.44818116 1.82287597 1.09399414 3.30419922 3.52148437 3.30419922 5.41247558 0 1.89099122-1.47631836 2.54211426-3.30419922 1.44818116-1.82788086-1.0939331-3.30932617-3.52148438-3.30932617-5.41247559zm.72314453.43756103c0 1.50030517 1.16003418 3.37042236 2.58618164 4.22473144 1.42614746.85437012 2.58117676.34906006 2.58117676-1.1303711 0-1.47943114-1.1550293-3.37567138-2.58117676-4.22998046-1.42614746-.85430908-2.58618164-.36462402-2.58618164 1.13562012z"/>
    <mask id="mask-49" maskContentUnits="userSpaceOnUse" maskUnits="userSpaceOnUse">
      <rect width="95.001" height="137.019" x="0" y="0" fill="black"/>
      <use fill="white" xlink:href="#path-48"/>
    </mask>
    <path id="path-56" fill-rule="evenodd" d="M1.97497559 20.33569336c0-1.89093018 1.4814453-2.54211426 3.30932617-1.44818115 1.82287597 1.09399414 3.30419922 3.52148437 3.30419922 5.41247558 0 1.89099121-1.47631836 2.54211426-3.30419922 1.44818116-1.82788086-1.09393311-3.30932617-3.52148438-3.30932617-5.4124756zm.72314453.43237305c0 1.48461914 1.16003418 3.37561035 2.58618164 4.22991943v.02606201c1.42614746.82824707 2.58117676.32818604 2.58117676-1.15649414 0-1.48461914-1.1550293-3.36517334-2.58117676-4.22991943-1.42614746-.8647461-2.58618164-.35424805-2.58618164 1.13043213z"/>
    <mask id="mask-57" maskContentUnits="userSpaceOnUse" maskUnits="userSpaceOnUse">
      <rect width="95.001" height="137.019" x="0" y="0" fill="black"/>
      <use fill="white" xlink:href="#path-56"/>
    </mask>
    <path id="path-64" fill-rule="evenodd" d="M1.97497559 36.25524902c0-1.89093017 1.4814453-2.54211425 3.30432129-1.44818115 1.82788085 1.09399414 3.3092041 3.54754639 3.3092041 5.4385376 0 1.89093017-1.4864502 2.56817627-3.3092041 1.44818115-1.82287598-1.11999512-3.3043213-3.54754639-3.3043213-5.4385376zm.72314453.43243409c0 1.48461914 1.1550293 3.37561035 2.58117675 4.22991943 1.43115235.85437012 2.58618165.35424805 2.58618165-1.1303711 0-1.48468017-1.16003418-3.37567138-2.58618164-4.22998046-1.42614747-.85430909-2.58117676-.35418702-2.58117676 1.13043213z"/>
    <mask id="mask-65" maskContentUnits="userSpaceOnUse" maskUnits="userSpaceOnUse">
      <rect width="95.001" height="137.019" x="0" y="0" fill="black"/>
      <use fill="white" xlink:href="#path-64"/>
    </mask>
  </defs>
  <g>
    <ellipse cx="48.501" cy="90.519" fill="rgb(213,227,220)" rx="46.5" ry="46.5"/>
    <g>
      <g opacity=".4">
        <path fill="rgb(32,162,106)" fill-rule="evenodd" d="M45.99502996 111.34718773c-8.03468765.5209289-13.67403404 4.7769181-12.62450297 9.44965044 1.04953108 4.67273232 8.40629196 8.02230522 16.42591457 7.47532986 8.0196226-.54697535 13.66901236-4.7821274 12.61948129-9.45485972-1.04953108-4.67273233-8.40629196-8.01709594-16.42089289-7.47012058z"/>
      </g>
      <path fill="rgb(243,188,151)" fill-rule="evenodd" d="M39.29610913 79.9403837c-.13056367.31255734-.55238477.33860379-.57749317 0 .00260046-.48037037.06505203-.95837676.18580215-1.42213593.27892633-.44628617.61702177-.8496218 1.00433596-1.1981365.1506504-.15627867.30130078.26046446-.03515176 1.35962446-.08034688.27088304-.44190782.92725346-.57749318 1.26064797z"/>
      <path fill="rgb(252,190,159)" fill-rule="evenodd" d="M39.90875407 77.32011128s2.51083989-5.55831148 3.09335474-6.62100646l.86372893-3.3495729c1.00433595.41674313 1.90321663.88557915 2.89750923 1.3439966l-1.43620042 3.83924607-3.97717038 6.03756607c-.07432415.52937715-.18849792 1.05190345-.34147423 1.56278673-.14892093.39251873-.3969687.73620493-.7181002.99497422-.2124601.20074491-.49763999.29745993-.78338205.26567375-.30046958-.07905648-.53654215-.3199667-.61766662-.63032398-.07952738-.30551511-.0966319-.62489873-.0502168-.93767204.05048485-.45533698.14641115-.90400526.28623575-1.3387873.17010153-.44686253.43833476-.84640729.78338205-1.16688076z"/>
      <path fill="rgb(255,255,255)" fill-rule="evenodd" d="M42.72591643 67.63604283c-.32138751 1.04185782 2.67655532 2.23999431 3.98721374 1.87534408 0 0 1.94841176-5.1155219 1.87308656-7.15756324-.07030352-1.84929763-1.25541994-2.35980796-2.18945238-2.08371564-2.04382368.58864967-3.67084792 7.3659348-3.67084792 7.3659348z"/>
      <path fill="rgb(34,34,34)" fill-rule="evenodd" d="M46.97425752 115.6656884c.0753252.1875344.09541192.96892777-.24104063 1.18250862-.72312189.44799887-1.07463947.56260323-1.88312992 1.08353214-.55740645.35423166-1.39602698 1.11999715-2.0086719 1.32836872-.75062368.248537-1.53797445.3561455-2.32503775.31776663-.88883732-.0937672-1.60693753-.35944094-1.64711097-1.35441516.01306118-.4065978.19644114-.78705983.50216798-1.04185782.4720379-.32297593 2.29992934-.36465024 3.26409186-.80743982.96416252-.44278957 2.05386703-.89599772 3.01300787-1.40650806.46199454-.234418 1.30563674.58344038 1.32572346.69804475z"/>
      <path fill="rgb(34,34,34)" fill-rule="evenodd" d="M46.70308681 116.25954735c.53731974-.45320815.12052032-1.16167147.05523848-1.72948398-.04017344-.3333945 0-.864742-.2460623-1.11999716-.34649591-.34902237-1.12987796-.10939507-1.55672074-.0937672-.39606517-.0310012-.79426101.01313046-1.17507307.13023223-.31134415.18232511-.3464959.67720758-.5724715.93767203-.60260157.71367261-1.50650393 1.0053928-2.27984262 1.45860095-.77333868.45320816-1.94339007 1.13041574-2.0839971 2.22436645-.02778183.37644193.17227823.73132554.50216797.89078844 1.1198346.52092891 2.6564686.11460436 3.7511948-.4792546.893859-.48446388 1.59689417-1.31274085 2.51083989-1.70864682.38731317-.1128584.75626764-.28491518 1.0947262-.51051034z"/>
      <path fill="rgb(34,34,34)" fill-rule="evenodd" d="M55.71198034 119.19758641c.21400471.4200727.25739255.91141885.12052032 1.36483375-.77836037 1.83887905-1.93334672 4.12054768-3.28417858 4.56854654-1.19515979.40111526-2.45560141.18232512-2.82218404-.5209289-.14379106-.47685897-.1542388-.98624763-.03013008-1.46901954.24606231-.49488246 1.50650394-1.04185782 2.10408383-1.89097194.5975799-.84911413 1.67221937-1.39608948 2.48070981-2.08371564.45870826-.20615432.98124078-.19474266 1.43117874.03125573z"/>
      <path fill="rgb(34,34,34)" fill-rule="evenodd" d="M55.66678522 120.17693276c.28623575-1.01060208-.0753252-1.04185782-.11549863-1.52111242-.06026016-.63553327-.1506504-1.30753156-.37662599-1.51590313-.09893595-.07943107-.20901506-.14267568-.32640918-.1875344-.3589774-.10954727-.74077048-.10954727-1.09974787 0-.52625111.0772121-1.0197696.31057734-1.42113538.67199829-.30130079.26046445-.09541192.52092891-.30130079 1.18771792-.24104063.7657655-2.33005942 3.25580569-2.40036293 4.83942958-.01482978.46633872.28314163.88135891.7181002 1.0001835.56899784.15421954 1.1633979.17909704 1.74252289.07293005 1.68226273-.3802781 3.4750024-4.17264057 3.58045768-4.54770939z"/>
      <path fill="rgb(252,190,159)" fill-rule="evenodd" d="M46.25615731 112.54011493c-.81818933.22660242-1.67147937.28325322-2.51083989.16669725 0 .27609232-.14562871 1.17209005.31134415 1.44297308.45697286.27088304 1.66719769.35944095 2.0839971-.0468836.22892387-.25433153.30420805-.61878321.19584552-.94809061-.04221863-.20240714-.06908315-.4079349-.08034688-.61469612z"/>
      <path fill="rgb(252,190,159)" fill-rule="evenodd" d="M54.9537067 116.51480252c-.16907595.01545252-.33688491.04330505-.50216798.08334863-.6681438.19887952-1.34732285.35544688-2.03378032.46883602 0 .30734805-.05523847.88036985.26614903 1.04185782.51759496.269318 1.1119571.33412238 1.67221937.18232512.3510363-.06225194.63843155-.3241249.7432086-.67720759-.02983921-.36879258-.07844994-.73569113-.1456287-1.09916z"/>
      <g>
        <path fill="rgb(255,255,255)" fill-rule="evenodd" d="M55.23994244 78.5963871c-1.00433596-.27088303-2.10408383.2917202-3.10841978.04167432-1.62200257-.666789-3.26409186-1.30753156-4.90115947-1.9586927-.7432086-.29692948-1.50650393-.6251147-2.29490766-.96371849-.23601895-2.44315659-.768317-4.30808209-1.0696178-6.10528683-.12829565-.78670135-.05734822-1.59448447.20588888-2.3441801.08034687-.24483659.17073711-.48967318.26112735-.69804474.39391359-.94777531.69016416-1.93608352.88381564-2.94845764.3716043-1.9118091.60260157-3.12557346 1.42615706-3.37041005.2997622-.07663617.6164832-.02996662.88381564.13023223.21593223.10939507 7.50238959 4.13096626 7.7986687 4.28203565.44515328.24019803.8476201.55728886 1.1901381.93767204.60260158.7136726-.50216797 5.27180057-1.08468283 11.0436929l-.19082383 1.95348342z"/>
        <path fill="rgb(69,196,138)" fill-rule="evenodd" d="M55.93795593 83.43581669c-.72814357-2.91199261-1.00433596-3.55794446-.59255821-5.76147375-.3197821.06168484-.6493158.04020767-.95914084-.06251147-1.60191585-.52092891-2.00867191-2.08371565-2.00867191-3.50064228.04017343-3.0109691.50216797-8.30360684 3.25907017-9.25690675-.33918801-.3780155-.7894405-.62895323-1.28052834-.7136726-1.50650393 1.04185782-2.88746587 4.2976635-3.8516284 5.81356664-1.87123789-.41905217-3.65191751-1.19254743-5.25267704-2.28166863 1.25039826-5.17803337 2.31499438-5.8344038 3.449894-6.65747148l-1.05957443-.56781251c-2.12919223 1.56278673-3.01300787 5.46454427-3.28920026 6.13133328-.09039023.21358085-.18078047.45841744-.26112734.70325403-.2629496.74071864-.333943 1.54004406-.20588887 2.31813365.45195118 2.7296675 1.45628713 5.57393934 1.13489963 10.41857821-.03515176.49488247-.08034688 1.16688076-.13056368 1.8649255-.05523848.8178584-1.35083186 11.6740169-1.75758792 15.10693842-.2259756 1.88576265.60762325 15.2580078.50216798 16.26860988.50216797.57823109 2.64642524.64074256 2.79205395-.06772076.35653927-2.10976209.87879397-5.73021802 1.26044163-7.68370143.3213875-1.6721818.8436422-4.89673176.93403244-6.25114693.05523848-.80223053.67792677-3.59961878 1.14494299-5.73021802.33645254 2.8182254.81351212 6.71477366.96416252 8.39216475.20588887 2.37022655 1.65213265 14.30470789 1.6119592 15.32051927.54234142.54697535 2.6614903.24483658 2.78703229-.21879015.08536855-2.64631886.56242813-6.0688218.70303517-7.7462129.2962791-3.47459583-.06026016-6.25114693.19082383-9.15793025.37662598-4.3028728.76329532-6.9804474.95411916-9.8976493.18580215-2.57338882-.60260158-5.03217328-1.03948772-6.78249442z"/>
        <path fill="rgb(252,199,170)" fill-rule="evenodd" d="M52.56338712 59.40536604c-.25610567-.37506882-.9440758-.17711583-1.3658969-.15627868-.66788341.03646503-1.33576682.07813934-2.00867192.16148797-.16571543 0-1.00433595.05730218-1.00433595.30734805-.07030352.43758029-.5724715 1.3908802-.59255822 1.82846048 0 0-.50216797 2.16706427.58753654 2.3910637l-.0502168 2.31292436.80346877-2.01599488c1.50650393.63553327 3.06322466-.64074256 3.46998072-.96371849-.22597559-1.59925175.43688615-2.66715602.30632247-3.26622427-.03370152-.20325925-.08238731-.40353647-.14562871-.59906824z"/>
        <path fill="rgb(255,255,255)" fill-rule="evenodd" d="M47.59192413 62.3381958c-.26579604.61142757-.00548882 1.33073765.58251486 1.60967034-.46199454.34902237-1.18511643.93246275-1.66719769 1.37525232.23904286-1.07496574.54945343-2.13149837.92901076-3.16203849.1757588-.38548739.13056368-.01562786.15567207.17711583z"/>
      </g>
      <path fill="rgb(255,255,255)" fill-rule="evenodd" d="M48.92769096 64.24479562c.36018555.77131452.67054017 1.56661664.92901076 2.38064512 2.51083989-.36985953 3.63067448-2.00036702 3.59552272-2.98492266-.21532425-.5551523-.60211016-1.02051298-1.09974787-1.32315943.0502168 1.13041573-1.77265297 2.25562218-3.42478561 1.92743697z"/>
      <path fill="rgb(34,34,34)" fill-rule="evenodd" d="M50.72043064 52.46138366c-.1243277-.09932305-.20158248-.24922326-.2121483-.41163895-.01056583-.16241568.0465736-.32172428.15690982-.43747518.16069375-.20316227.42684278-.20837156.63775333-.36465023.33645255-.2396273.67792677-.63553328 1.03948772-.83869555.02936227-.43415414.24739142-.83091821.59255821-1.07832285 2.23966918-1.9586927 6.7290509.52092891 5.08696162 5.90212456-.4720379 1.56278673-1.91326 4.04240835-1.77265296 7.48053916-1.07966116-.68241687-1.95845512-3.17766636-2.08399711-4.3497564-.125542-1.17209005.06026016-2.23999432 0-3.4485494-.0251084-.78139336-3.14357155-2.10976208-3.44487233-2.45357516z"/>
      <path fill="rgb(32,162,106)" fill-rule="evenodd" d="M50.42415153 52.11236129c.18194763-.24516514.39283156-.46567778.62770997-.65637043.33645255-.31255735.70805685-.63032398 1.07966116-.96892777.72814356-.68241688 2.19949574 1.11478786 1.6872844 1.72427469-.08034687.10418578-1.00433595.77097479-1.00433595.77097479-.28623575.432371-1.86806488.3802781-2.23966919.0468836-.14334938-.09578047-.2413076-.24963531-.26995876-.4240018-.02865116-.1743665.01464151-.35319771.11930837-.49283308z"/>
      <path fill="rgb(252,190,159)" fill-rule="evenodd" d="M47.23538487 61.93708054c.16571543.64595185.35653926 1.4325545.95914084 1.6252982.72312189.23441801 2.62633852-.68241687 3.51517584-1.88576265 1.06459612-1.40650806 1.65715433-3.51627015 1.2905717-4.50603508-.27619238-.73971905-1.50650393-1.32315943-2.16434398-1.84408834-.46292733-.34552865-.96995887-.62254171-1.50650393-.82306768-1.53663401-.61469612-2.89248756-.55218465-2.932661 1.04185782-.03850088.81953982-.02675997 1.64078944.03515176 2.45878446.07771953 1.34516831.34852514 2.6707731.80346877 3.93301327z"/>
      <path fill="rgb(34,34,34)" fill-rule="evenodd" d="M46.07537684 56.15997892c-.18078047-1.94306483.09039024-3.9694783 2.46564477-4.89673176 2.35056438-.85635073 4.95328508.17734748 6.15155774 2.4431566.27621217.6085157.37232555 1.2883168.27619238 1.9534834-.4218211 3.27143357-1.54165569 4.6883602-2.84227075 5.43328855.33251559-.61248811.5761755-1.2724804.72312189-1.9586927.18580215-.95329991.12554199-1.73990257-.60260158-1.60967034-.58251485.0989765-.62770997 1.3856709-.63775333 1.98994844 0 .36985953-.4218211.5209289-.50216798.26567374-.3213875-.8074398.17073711-1.91701839-.44190782-2.60464455-1.30563674-1.46381024-3.04815963-2.00036702-3.86167175-1.79199545-.16922073.0465367-.28812505.20390992-.29125743.38548739-.04470648.85369403-.04470648 1.70927621 0 2.56297024-.2251706-.7043935-.37175627-1.43324282-.43688614-2.17227356z"/>
      <path fill="rgb(197,192,182)" fill-rule="evenodd" d="M39.84347223 81.04475299l-4.15292918-.80223052c-.00001066.15432784.07085884.29942753.19082383.39069668.19584551.11460436 4.5195118 3.00055052 4.5195118 3.00055052.17517215.11348944.38758095.14738858.58753654.0937672l8.22551148-2.26604075c.08166751-.05490446.13084846-.14909217.13056368-.25004588l-9.50101815-.16669725z"/>
      <path fill="rgb(240,236,230)" fill-rule="evenodd" d="M44.0717266 78.0754582l-8.25061987 1.96911128c-.06636287.01301251-.11847362.06650119-.13171891.13520184-.01324529.06870065.01502529.1388662.07145875.1773555l4.57977196 3.01096911c.2228089.14527165.49356478.18862762.74823029.11981365l8.19035972-2.1514364c.03532791-.01113227.06129325-.04240945.06666516-.08030313.0053719-.03789369-.010814-.07560116-.04155676-.0968127l-4.81579091-3.00055053c-.12369572-.08166344-.2727042-.11146112-.41679942-.08334862z"/>
      <path fill="rgb(51,49,47)" fill-rule="evenodd" d="M43.99640141 78.29945763c-.04048563-.02591-.08884048-.03519914-.13558535-.02604645l-7.8739939 1.92743697c-.01963633.00933468-.03222625.02968596-.03222625.0520929 0 .02240693.01258992.0427582.03222625.05209289l4.44920829 2.92241118c.1296274.0838837.27908841.12895487.43186446.13023223.06673566.00796406.13413153.00796406.20086719 0l7.53251967-2.03162275c.02908873-.01160714.04828262-.04059917.04828262-.07293005 0-.03233087-.01919389-.0613229-.04828262-.07293004l-4.60488036-2.88073688z"/>
      <path fill="rgb(252,190,159)" fill-rule="evenodd" d="M55.1746606 74.96030331c.08034688.8595327 0 2.87552759 0 2.87552759s-5.95069054 3.20892209-6.37251164 3.28185214c-.4218211.07293004-2.9075526-1.0053928-3.11344146-.27088304-.11047696.3854874 1.17005139.72409119 1.05455275.86995128-.60762325.52092891-1.00433596.67720759-2.32503774 1.04185782.55163222.3927884 1.19156653.63141276 1.85802152.69283546 1.23031155 0 2.7066854-.58344038 3.69595632-.92204418 3.11344147-1.07832284 4.40903485-1.37525232 6.76922435-2.25562218.41679942-.15627867 1.11983459-.3333945 1.32572346-.7136726.25610567-.4792546.6226883-4.77170883.6226883-4.77170883l-3.51517586.17190654z"/>
      <path fill="rgb(255,255,255)" fill-rule="evenodd" d="M54.44149536 75.00197762c.13056367.58864967 1.08468283 1.21897366 2.0839971 1.30232228 1.50650394.11981365 3.25907018-.61469611 3.13854987-1.34399659 0 0-1.2905717-8.28797897-3.36452545-9.59551053-1.20520315-.75534692-1.97352016.75013763-2.36521118 1.63050749-.03753221 2.67866593.13207465 5.35614052.50718966 8.00667735z"/>
      <path fill="rgb(32,162,106)" fill-rule="evenodd" d="M45.08610592 68.83417932c1.43117874 1.10957858 4.25336278 1.98994844 4.25336278 1.98994844v3.88612967c-1.52411147.0185334-2.98422637-.63466572-4.01734383-1.79720474l-.23601895-4.07887337z"/>
      <path fill="rgb(32,162,106)" fill-rule="evenodd" d="M20.59035195 36.86998136c.13229162.06495157.25984521.13981626.38164766.22399943.14875145-.86179183.25268314-1.73126415.31134415-2.60464455.04519512-1.72948399-.19082383-3.21413138-1.69732777-5.29784702-.50216798-.7240912-1.92330335-2.50566807-3.58045768-3.00055053 2.92261763 1.73469327 4.7454874 5.00612683 4.58479364 10.67904267z"/>
      <path fill="rgb(69,196,138)" fill-rule="evenodd" d="M19.01856618 22.15373963c-.66788341-1.59404247-1.31065843-2.55255166-2.35014614-5.5947765-1.45628714 1.75553043-.36658263 4.5425001.0753252 5.47496285.74823028 1.56278673 2.32001605 3.00575982 2.94772603 4.16743129.03013008-.27609232.59255821-1.03664853-.6729051-4.04761764z"/>
      <path fill="rgb(32,162,106)" fill-rule="evenodd" d="M19.96264198 25.73773054c-.11047696-.21879015-.23601895-.44278958-.3716043-.69804474-.42182111-.80743981-1.13489964-1.93785555-1.69732777-3.12557347-.64200511-1.2646436-1.02497593-2.65334499-1.12485628-4.07887337-.23099727 2.00036702.75325197 4.02678048 2.66651197 7.43886485.23601895.41674313.39169102.7188819.50216798.94809061l.0251084-.48446388z"/>
      <path fill="rgb(32,162,106)" fill-rule="evenodd" d="M20.39450644 28.3892587c-.04017344 0-.06528184.06251146-.13056368 0-.30130078-.22920873.28623575-2.04204134.40675606-2.27125006.83862053-1.60967033 3.54028425-.98976493 3.58547937-3.86529252.20588887 3.3495729-2.57110005 2.38585442-3.18876666 4.56854655-.35653927 1.26585725-.0251084 1.4377638-.6729051 1.56799602z"/>
      <path fill="rgb(32,162,106)" fill-rule="evenodd" d="M27.62070364 35.05193946c-.08536855-.83348626-.61766661-3.27143356-1.9634768-4.62063944-1.01266336-.60891894-2.09834449-1.07658088-3.2289401-1.39088019-.20086718.16669725-.74823028.3333945-.58753653.72409119.1842539.35950112.38882543.7073934.61264494 1.04185782.1958455.3333945.38666934.69804474.60762325 1.0053928.22095391.30734805.36156095-.59385896.56242814-.45841745.20086719.13544152 1.84797816.15106939 3.9972571 3.69859527z"/>
      <path fill="rgb(69,196,138)" fill-rule="evenodd" d="M21.85079357 36.23965738c-.08536855.1927437.04519512.21879014-.23099727.04167431-.27619238-.17711583-.26614902-.35423166-.2711707-.63032398-.0622669-2.02151174-.00020692-4.04508531.18580215-6.05840323.09039023-.70846332.46199454-1.16688076 1.00433595-1.11999716 1.12485627.0937672 2.681577 1.38046161 3.6005444 2.60464455-2.4556014-1.36483374-4.04245222 4.52687224-4.28851453 5.1624055z"/>
      <path fill="rgb(32,162,106)" fill-rule="evenodd" d="M21.95122717 38.60988392c-.25108399.17190654-.6226883-1.39608948-.67792677-1.77636758-.13558536-.95329991.5473631-7.06900532 2.57110005-7.92853803 0 0 .14562871.06772076.15567207.13544152-2.98789947 2.75571394-2.04884535 9.5694641-2.04884535 9.5694641z"/>
      <path fill="rgb(32,162,106)" fill-rule="evenodd" d="M20.39450644 38.30774515l2.13923558 1.30232228c-.57749317-6.9387731-.53229805-7.6003528-2.44555805-14.18489424-.68599049-2.17707607-.18260636-4.56878827 1.3156801-6.25114693 1.03948772-1.29711299 1.40104866-2.6775746.58251486-4.39143072.7181002 2.23999432-.43688614 3.43292153-1.40104866 4.4539422-1.06459612 1.13041573-2.05386703 3.30789857-.99931428 6.82937801 1.11604746 3.97262272 1.39183148 8.14843082.80849045 12.2418294z"/>
      <path fill="rgb(125,87,58)" fill-rule="evenodd" d="M26.5862376 43.04298895l-9.57132166-5.73021802v-1.31274085l9.57132167 5.73021802v1.31274085z"/>
      <path fill="rgb(45,36,26)" fill-rule="evenodd" d="M26.5862376 47.29376886l-9.57132166-5.73021802v-4.34454711l9.57132167 5.73021802v4.34454711z"/>
      <path fill="rgb(34,34,34)" fill-rule="evenodd" d="M26.5862376 49.1430665l-9.57132166-5.73021802v-2.03683204l9.57132167 5.73021802v2.03683204z"/>
      <path fill="rgb(125,87,58)" fill-rule="evenodd" d="M26.5862376 49.69525114l-9.57132166-5.73021802v-.64074256l9.57132167 5.73021802v.64074256z"/>
      <path fill="rgb(249,115,57)" fill-rule="evenodd" d="M2.53735352 4.74951172c0 .03643799-.03515625.0625-.07531739.03643799v-.02600098c-.04577636-.02716064-.0756836-.07580566-.08032226-.13024902v-.11462403c0-.03643798.03515625-.0625.08032226-.03643798.04199219.02783203.06958008.07373046.07531739.125v.14587402zm-.07531739.63031006c.04016114 0 .07531739 0 .07531739-.03125v-.11981201c-.0057373-.05126954-.0333252-.09716797-.07531739-.125-.04516601-.02606202-.08032226 0-.08032226.03125v.09375c.00354004.05352783.03405761.10113525.08032226.125v.026062zm.07531739.56781006c0 .03131103-.03515625.03131103-.07531739.03131103v-.02606201c-.04431152-.02606201-.07421875-.07250977-.08032226-.12506104v-.119812c0-.036438.03515625-.036438.08032226-.036438.0432129.02893067.07104492.07702637.07531739.13024903v.14581299zm-.07531739.63031005c.04016114.02606202.07531739 0 .07531739-.03643798v-.11981202c.00231933-.0606079-.02624512-.11804199-.07531739-.151062-.04516601-.02606202-.08032226 0-.08032226.03643798v.11981201c.00610351.05255127.03601074.098938.08032226.12506104v.02600097zm-.01000976.60430909c.04016113 0 .07531738 0 .07531738-.03649903v-.119812c-.0057373-.05126954-.0333252-.09716798-.07531738-.125-.04516602-.02606202-.08032227 0-.08032227.03125v.119812c.01513672.04486084.0480957.08087159.09033203.098938l-.01000976.03131103zm.08532715.55737304c0 .03125-.03515625.05731202-.07531739.03125v-.026062c-.03845215-.02038575-.06750488-.05609132-.08032226-.098938v-.119812c0-.03125.03515625-.05731202.08032226-.03125.04370117.02600097.07189942.07287597.07531739.125v.119812zm-.07531739.6147461c.04016114.026062.07531739 0 .07531739-.03649903v-.11456298c-.00427247-.05322266-.0321045-.10131836-.07531739-.13024903-.04516601 0-.08032226 0-.08032226.03643799v.11981201c.00610351.05255127.03601074.09899903.08032226.12506104zm.07531739.56256103c0 .03649903-.03515625.0625-.07531739.03649903v-.01043702c-.04309082-.02502441-.0727539-.06921386-.08032226-.119812v-.11981202c0-.03125.03515625-.05731201.08032226-.03125.04199219.02783203.06958008.07373047.07531739.125v.11981201zm0 .59906006c0 .03125-.03503418.05731201-.07531739.03125v-.01037598c-.0501709-.02746582-.08117675-.08184814-.08032226-.14068603v-.09375c0-.03125.03515625-.03125.08032226-.03125.04248047.02728271.0703125.07348633.07531739.125v.11981201zm.4017334.29693604l.64282226.38024902-.01013184 2.42236328-.63269043-.38031006V9.81292725zm-.41174317.322937c0 .03131104-.03515625.03131104-.07531738.03131104l.01000976-.03131103c-.04125976-.01690674-.0739746-.05084229-.09033203-.09375v-.11981201c0-.036438.03515625-.0625.08032227-.036438.04321289.02893067.07104492.07702638.07531738.130188v.119812zm1.44128418 2.70892335l.63269043.38024902v-2.7869873l-.63269043-.38024903v2.7869873zm-1.44128418-2.11505127c0 .03649902-.03515625.0625-.07531738.03649902l.01000976-.03125c-.0501709-.03009033-.08081054-.08581543-.08032226-.14587402v-.11981201c0-.03125.03515625-.05731202.08032226-.03125.05212403.0392456.07763672.10632324.06530762.171875v.119812zm4.11779785.35424805l-.63269043-.38024903v3.38079834l.63269043.38031006v-3.38085938zm-4.18310547.25524902c.04016114.02606201.07531739 0 .07531739-.03125v-.11981201c-.00500489-.05151368-.03283692-.09777832-.07531739-.125-.04516601-.02606202-.08032226 0-.08032226.03125v.119812c.00683593.04968263.03686523.09259034.08032226.11462403v.01037598zm5.57409668 3.94348144l.63269043.38024903v-3.91217041l-.63269043-.37506104v3.90698242zM2.46203613 11.9383545c.04016114.02600098.07531739 0 .07531739-.03131103v-.11981201c-.00427247-.05316163-.0321045-.10125733-.07531739-.130188-.04516601-.026062-.08032226 0-.08032226.036438v.119812c.0090332.04870606.03845215.09069825.08032226.11462403v.01043701zm3.14355469 1.8961792l-.63269043-.38031006V12.0008545l.63269043.38549805v1.44818115zm6.1114502-1.31280517l-.63269043-.37506104v4.98010254l.63269043.38024902v-4.98529052zm-4.68518067-.30212403l.61767578.38024903.01501465 2.45361328-.63269043-.38031006v-2.45355225zm-4.57983398.03125c-.04516602 0-.08032227 0-.08032227.03649903v.057312c.00354004.0534668.03405762.10107423.08032227.125l.06030273.052063c.04516602.026062.08032227 0 .08032227-.03125-.00231934-.0456543-.02441407-.0878296-.06030274-.114563-.00500488-.05163573-.03051758-.09881591-.0703125-.13024902l-.01000976.005188zm10.29943847 5.85522461l-.63269043-.37506103V12.3237915l.63269043.38024903v5.40203857zM2.984375 12.62072754l.11547852.06768799c.04199218.02783203.06958007.07373047.07531738.12506103 0 .036438-.03515625.0625-.07531738.036438l-.11547852-.067688c-.04577637-.02716064-.0756836-.07580566-.08032227-.13024902 0-.03125.03515625-.05731201.08032227-.03125zm.6928711.42199707l-.11547852-.07293701c-.04016113-.02606201-.07531738 0-.07531738.03643799.0057373.05133056.03344726.097229.07531738.12506103l.11547851.07287598c.04516602 0 .08032227 0 .08032227-.036438-.00610352-.05255126-.03588867-.09893798-.08032227-.125zm.467041.27606201l.11547853.06768799v-.00518799c.04467773.0300293.07263183.0803833.07531738.13543701 0 .03125-.03515625.05731201-.07531738.03125l-.11547852-.06768799c-.04431152-.02612304-.07421875-.07250976-.08032227-.12506103 0-.03643799.03515625-.0625.08032227-.03643799zm.69299317.41674805l-.11547851-.06768799c-.04016113-.02606201-.07531738 0-.07531738.03125.00427246.05316162.03210449.10131836.07531738.13024902l.11547851.067688c.04516602.026062.08032227 0 .08032227-.036438-.0045166-.05444336-.0345459-.10314941-.08032227-.13024902v.00518799zm.46704102.28131103l.11547851.067688c.0419922.02783202.06958008.07373046.07531739.12506103 0 .03643798-.03515625.0625-.07531739.03643798l-.11547851-.072937c-.04553223-.02471925-.07592774-.07183839-.08032227-.125 0-.03125.03515625-.05731202.08032227-.03125zm4.36889648 2.25561524l-.63269043-.38031006v-1.80761719l.63269043.36462402v1.82330323zm1.02441407-1.57324219l-.65283204-.38024902v2.18267822l.63269043.38031006.0201416-2.18273926zm-4.70031739-.265625l-.11547851-.07293701c-.04016114-.02606201-.07531739 0-.07531739.03643799.0057373.05133056.03344727.097229.07531739.12506103l.11547851.06768799c.04516602.02606201.08032227 0 .08032227-.03125-.00170899-.05541992-.0324707-.10540771-.08032227-.13024902v.00524902zm.58251953.33856201l-.11547851-.06768799c-.04516602-.026062-.08032227 0-.08032227.03125.00463867.05444336.0345459.10308838.08032227.13024903l.11547851.06768799c.04528809.026062.07531739 0 .07531739-.03125-.00256348-.05371094-.0308838-.10253907-.07531739-.13024903zm.5826416.35424805l-.13061523-.07293701c-.04016113-.02606201-.07531738 0-.07531738.03125.00341797.05212402.03161621.09899902.07531738.125l.1204834.072937c.04016113.02606202.07531738 0 .07531738-.03643798-.00463867-.04766846-.02832031-.09106445-.06518554-.11981201zm.46191407.27087402l.11547851.07293701c.0456543.0246582.07592774.07183838.08032227.125 0 .036438-.03515625.036438-.08032227.036438l-.11547851-.07287598c-.04187012-.02783204-.06958008-.07373047-.07531738-.12506104 0-.03643799.03515625-.0625.07531738-.03643799zm.58251953.35424805l.11547852.06768799v-.005188c.04467773.0300293.07263183.08038331.07531738.13543702 0 .03125-.03515625.05731201-.07531738.03125l-.11547852-.06768799c-.04431152-.02612304-.07421875-.07250976-.08032227-.12506103 0-.036438.03515625-.0625.08032227-.036438zm.69299316.41674805l-.11547851-.067688c-.04016113-.026062-.07531738 0-.07531738.03125.00427246.05316163.03210449.10131837.07531738.13024903l.11547851.06768799c.04516602.02606201.08032227 0 .08032227-.03643799-.00610352-.05255127-.03588867-.09893799-.08032227-.12506103zm.46691895.276062l.11547851.07293702v-.00518799c.03625489.03088379.05822754.07635498.06030274.125 0 .02471924 0 .0376587-.00646973.043396-.00708008.00628662-.02185058.00378418-.053833-.00170899l-.11547852-.072937c-.04431152-.02606202-.07421875-.07250977-.08032227-.12506104 0-.036438.03515625-.036438.08032227-.036438zm.57751465.34906007l.11547851.06774902-.01501465-.00524902c.05297852.02404785.08935547.07580566.09533692.135437 0 .03125-.03515625.03125-.08032227.03125l-.11547851-.06768798c-.04187012-.02783203-.06958008-.07373047-.07531739-.12506104 0-.03643798.03515625-.03643798.07531739-.03643798zm.60266113.34381103l.09545898.07293701c.04956055.02294922.08520508.06964112.09533692.125 0 .03125-.03515625.05731201-.07531738.03125l-.11547852-.06768799c-.04577637-.02716064-.0756836-.07580566-.08032227-.13024902 0-.03125.03515625-.03125.08032227-.03125zm.67285156.42193604l-.11547851-.067688c-.04016114-.026062-.07531739 0-.07531739.03125.00500489.05151368.03283692.0977173.07531739.125l.11547851.07293702c.04516602.02606201.08032227 0 .08032227-.03643799-.0045166-.05444336-.0345459-.10314941-.08032227-.13024902v.00518799zm.58251953.34381103l-.11547851-.07293701c-.04516602 0-.08032227 0-.08032227.03643799.00610352.05255127.03601075.09899902.08032227.12506103l.11547851.067688c.04016114 0 .07531739 0 .07531739-.03125-.00500489-.05151368-.03283692-.0977173-.07531739-.125zm.57751465.34906006l-.11547851-.06774902c-.04016114 0-.07531739 0-.07531739.03125.00427246.05322265.0321045.10131836.07531739.13024902l.11547851.06768799c.04516602.02606201.08032227 0 .08032227-.03125-.0045166-.05444336-.0345459-.10308838-.08032227-.13018799zm.46704102.28131104l.11547851.06768798v-.00518798c.04333496.02893066.071167.07702636.07531739.13024902 0 .03643799-.03515625.0625-.07531739.03643799l-.11547851-.067688c-.04577637-.02716064-.0756836-.07580566-.08032227-.13024901 0-.03125.03515625-.05731202.08032227-.03125zm.63781738.375l-.06030273-.036438c-.04016114-.026062-.07531739-.010437-.07531739.036438.0057373.05133056.03344727.097229.07531739.12506103l.06030273.03643799c.04016113.02606201.07531738.01043701.07531738-.03643799-.0057373-.05133057-.03344726-.097229-.07531738-.12506103z"/>
      <path fill="rgb(32,162,106)" fill-rule="evenodd" d="M16.11096191 54.21166992c0-.83868408.65783692-1.1251831 1.4663086-.64074707.8284912.51464844 1.37390136 1.40496826 1.47131347 2.40148926 0 .8439331-.6628418 1.13043213-1.47131347.6459961-.8289795-.51568604-1.37304688-1.40869141-1.4663086-2.40673829zm.19592286.11468506c.08215332.86383057.55322265 1.63653565 1.2705078 2.0836792.72314454.42193603 1.29052735.17193603 1.27050782-.55737305-.07824707-.8652954-.55041504-1.63964843-1.27050781-2.08374023-.69799805-.42193604-1.27050781-.171875-1.27050781.55743408z"/>
      <path fill="rgb(249,115,57)" fill-rule="evenodd" d="M20.6907959 56.94659424c0-.83868408.6628418-1.13043213 1.47131347-.64074707.82763672.5145874 1.37158204 1.40533447 1.4663086 2.40148926 0 .83868408-.65783692 1.13037109-1.4663086.64593505-.82800292-.51751709-1.37304687-1.40905761-1.47131347-2.40667724zm.20080566.11456299c.07971192.86474609.55151367 1.63842773 1.27050781 2.08374023.69799805.41674805 1.27050782.16668701 1.27050782-.55737305-.08215332-.8638916-.55322266-1.63659668-1.27050781-2.08374023-.70300293-.41674805-1.27050782-.16668701-1.27050782.55737305z"/>
      <path fill="rgb(69,196,138)" fill-rule="evenodd" d="M25.25549316 59.68145752c0-.83868408.6628418-1.13043213 1.47131348-.6459961.8289795.51568604 1.37304688 1.40869141 1.4663086 2.40673829 0 .83868408-.65783692 1.1251831-1.4663086.64074707-.82836914-.51464844-1.3737793-1.40496826-1.47131348-2.40148926zm.20080567.109375c.078125.86529541.55029297 1.63964844 1.27050781 2.08374023.69799805.42193604 1.26538086.171875 1.26538086-.55737304-.0793457-.86346436-.5489502-1.63665772-1.26538086-2.08374024-.70300293-.41674804-1.27050781-.17193603-1.27050781.55737305z"/>
      <path fill="rgb(69,196,138)" fill-rule="evenodd" d="M4.62141024 44.4078227l-2.64140356-1.5836239v-.57823108l2.64140356 1.5784146v.58344038z"/>
      <path fill="rgb(32,162,106)" fill-rule="evenodd" d="M1.98000668 43.32429056v.58344038l8.55694235 5.1207312v-.5782311l-8.55694235-5.12594048z"/>
      <path fill="rgb(69,196,138)" fill-rule="evenodd" d="M13.9968864 52.19050062l-12.05203148-7.2200747v-.58344038l12.05203148 7.2200747v.58344038z"/>
      <path fill="rgb(69,196,138)" fill-rule="evenodd" d="M12.99255044 52.6801738L1.94485492 46.06437663v-.58344038l11.04769552 6.61579717v.58344038z"/>
      <path fill="rgb(249,115,57)" fill-rule="evenodd" d="M11.93799768 53.1073355l-9.957991-5.96463602v-.58344038l9.957991 5.96463603v.58344038z"/>
      <g>
        <use fill="none" xlink:href="#path-48"/>
        <g mask="url(#mask-49)">
          <path fill="rgb(249,115,57)" fill-rule="evenodd" d="M5.2792503 30.27502135l-.82355549-3.93822257c-.56596872-.24240092-1.20554996-.21768692-1.75256624.06772076-.5724715.3386038-.83862053.92204417-.83862053 1.82325119.00065897.30852602.03434325.61602204.1004336.91683488.05886134.26130585.13264274.5187514.2209539.7709748.43213567 1.20871194 1.1525876 2.28406146 2.09404048 3.12557346 1.3910053 1.27106654 2.80209732 1.65655393 3.69093464 1.0053928l-2.69162037-3.77152532z"/>
          <path fill="rgb(69,196,138)" fill-rule="evenodd" d="M5.2792503 26.72749547c-.26092945-.15907946-.53689002-.28999581-.82355549-.39069669l.82355548 3.93822257 1.91326-1.79720474c-.52183483-.70707863-1.17174978-1.30164491-1.91326-1.75032114z"/>
          <path fill="rgb(32,162,106)" fill-rule="evenodd" d="M8.63373239 31.60339007c-.1219817-.69306978-.35810305-1.35917325-.6980135-1.96911128-.21183747-.4090551-.46069388-.79628557-.7432086-1.15646218l-1.91326 1.79720474 2.69162037 3.79236247c.62770997-.45841744.85870724-1.31274086.66286173-2.46399375z"/>
        </g>
      </g>
      <path fill="rgb(249,115,57)" fill-rule="evenodd" d="M4.65161133 30.74902344c.03967285-.06530762.05895996-.1416626.05517578-.21875l.03515625-.43762207c.00024414-.09741211-.01501465-.19421387-.04516602-.28649903-.04907226-.13983154-.1455078-.25646972-.27111816-.32818603-.04211426-.02716065-.0913086-.039917-.140625-.03643799v-.35943603c-.01037598-.05157471-.01037598-.10473633 0-.15631104h.06530762c.0427246.02178955.07128906.06530762.07531738.11462402.006958.09362793.006958.1876831 0 .28131104l.28112793.171875v-.125c.00378418-.11004639-.01330566-.2197876-.0501709-.32299805-.06213379-.15979004-.17565918-.2923584-.32141113-.37506103-.17578125-.10418702-.26611328-.07293702-.31640625 0-.04724121.08325195-.06835938.17980957-.06018067.276062v1.14086915c.00305176.09680176.02355957.1921997.06018067.28131103.05639648.16308594.16906738.29864502.31640625.38024903.17578125.09899902.26611328.06774902.31640625 0zm-.31652832-.26043701c-.04821778-.03271485-.07958985-.08630372-.08532715-.145813v-.63037109c.0008545 0 .00231934-.00115966.00439453-.00292968.00915527-.00787354.03161621-.0269165.08093262.00292968.04821777.02886963.08129883.07855225.0904541.13549805v.59906006c0 .04162598-.02514648.078125-.0904541.04162598z"/>
      <path fill="rgb(249,115,57)" fill-rule="evenodd" d="M4.81223407 29.43111651v-.1875344c.07684691.03479174.16419373.03479174.24104063 0 .02539747-.01845614.0474904-.04137446.06528184-.06772076l.17073711.10418578v1.99515773l-.26614902-.15627868v-1.56278673l-.21091056-.12502294z"/>
      <path fill="rgb(249,115,57)" fill-rule="evenodd" d="M5.87182617 30.42608643c0 .088562-.03515625.13024902-.08532715.14587402-.04467773.01385498-.06152343.0031128-.09973144-.02130127l-.01574707-.00994873c-.08728028-.04840088-.15234375-.13085938-.18078613-.22918701-.00756836-.04309082-.00756836-.08721924 0-.13024903v-.58343505c0-.08856202.03015136-.12506104.08532714-.14587403.04296875-.00189209.08532715.0109253.1204834.03643799.08081055.05249023.1427002.13128662.17578125.22399902.00708008.04315186.00708008.0871582 0 .13024903v.58343506zm-.15576172-.76055909c.00500489.02404786.00500489.04888916 0 .07293702l.02514649.59906005c0 .046875-.00500489.046875-.04516602.046875-.03466797-.02178955-.05419922-.06231689-.05029297-.104187 0 0-.01000976-.58343507 0-.61468507.01013184-.03125.01513672-.04681396.0703125 0zm-.1204834 1.8024292l.71313477-1.56280517.16564941.09899902-.70300293 1.58880615-.17578125-.125zm1.01940918.39593506c0 .08850098-.03515625.13018799-.0904541.14581299-.04821777.01367187-.06201172.00341797-.0982666-.02374268l-.01721191-.0126953c-.08435059-.04962159-.14855957-.1291504-.18078614-.22399903-.0159912-.04144287-.02441406-.0855713-.02502441-.13024903v-.57299804c-.0078125-.06488037.03027344-.12628174.09033203-.14587403.02514649 0 .06530762 0 .11547852.036438.08435058.04821777.14733886.12854003.17578125.22399902.01708984.0413208.02734375.08538818.03015136.13024902v.57305908zm-.16064453-.7501831c.00512696.02398681.00512696.04888916 0 .072937v.01037598s0 .5991211-.07531738.60430909c-.01013184-.02319336-.01013184-.04974366 0-.07293702v-.61468505c.01000977-.03125.02001953-.04168702.07531738 0z"/>
      <g>
        <use fill="none" xlink:href="#path-56"/>
        <g mask="url(#mask-57)">
          <path fill="rgb(32,162,106)" fill-rule="evenodd" d="M7.9357189 21.67448503c-.21183748-.4090551-.46069389-.79628557-.7432086-1.15646218l-1.91326 1.79199545 3.35448209 1.33357802c-.1219817-.69306978-.35810305-1.35917326-.6980135-1.96911129z"/>
          <path fill="rgb(69,196,138)" fill-rule="evenodd" d="M5.2792503 18.772911c-.26092945-.15907946-.53689002-.28999581-.82355549-.39069668-.56510108-.24737246-1.20677173-.22257773-1.75256624.06772076-.5724715.33860379-.83862053.91683488-.83862053 1.82325118L5.2792503 22.3152276l1.91326-1.79199545c-.52059035-.70828189-1.17075456-1.3030762-1.91326-1.75032114z"/>
          <path fill="rgb(249,115,57)" fill-rule="evenodd" d="M8.63373239 23.64359632l-3.3544821-1.33357802-3.41474225-2.04204133c.00065897.30852602.03434325.61602204.1004336.91683489.05886134.26130584.13264274.5187514.2209539.77097479.43465224 1.20734679 1.1546983 2.28209051 2.09404048 3.12557346 1.3910053 1.27106654 2.80209732 1.65655394 3.69093464 1.0053928.62770997-.43758029.85870724-1.2919037.66286173-2.4431566z"/>
        </g>
      </g>
      <path fill="rgb(32,162,106)" fill-rule="evenodd" d="M3.89326667 20.91392882v-.1875344c.07671595.0354367.1643247.0354367.24104063 0 .02507022-.01718645.04574802-.0404243.06026016-.06772076l.1757588.10418578v2.01599488l-.28623575-.17190654v-1.56278673l-.19082384-.13023223z"/>
      <path fill="rgb(32,162,106)" fill-rule="evenodd" d="M5.02314463 22.22146039c.00921304-.07998462-.02573871-.15854264-.09039024-.20316228-.02201501-.01828462-.05331019-.01828462-.0753252 0-.02261358.01910455-.03556243.04788873-.03515176.07813934l-.24104063-.1458601v-1.04185782l.69299181.41153384v.29692948l-.4469295-.26567374v.41674313c.03475543-.007744.07069986-.007744.10545528 0 .02223685.00185165.04333482.0109709.06026016.02604644.12673037.0777441.22280568.19955648.2711707.34381308.02805609.08564385.04329795.17524116.04519512.26567375v.44799886c.00805552.10235127-.01104745.20503757-.05523847.29692948-.0502168.08334863-.14562872.10939507-.31636583 0-.15017973-.0853967-.26331986-.22698233-.31636583-.39590597-.04237259-.14151611-.06105576-.28951783-.05523847-.43758029l.28623574.17190654v.08334863c-.0069812.07275026-.0069812.14603988 0 .21879014.00871094.04324199.03411833.08089428.07030352.10418578h.06528184c.0121966-.06537782.0121966-.13257516 0-.19795298l.03515176-.47404531z"/>
      <path fill="rgb(32,162,106)" fill-rule="evenodd" d="M5.86669922 22.45587158c0 .08856201-.03515625.13024903-.09033203.14587403-.04699707.01330566-.0612793.00402832-.09545899-.01837159l-.02001953-.01287841c-.0838623-.0526123-.14770508-.13354493-.18078613-.22918702-.015625-.04162597-.02404785-.08569336-.02514649-.13024902v-.58868408c0-.08850098.03015137-.125.09033204-.14581299.0415039-.00195313.08227539.0109253.11560058.03643799.0834961.05065918.14733887.12982178.18078613.22399902.00463868.04327393.00463868.0869751 0 .13024903l.02502442.58862304zm-.16064453-.76574707c.00732422.02374268.00732422.04919434 0 .07293701l.0201416.59906006c0 .05212403-.00500488.05212403-.04516602.05212403-.03381347-.02233887-.05151367-.06323243-.04528808-.10418702v-.61993408c.01013183-.03125.01513672-.04681396.0703125 0zm-.1204834 1.80761719l.71813965-1.59924316.16564941.104187-.70300293 1.59405518-.18078613-.09899902zm1.02441406.40112305c0 .088562-.03515625.13018798-.09033203.14581298-.04846191.01367188-.06213379.00341797-.09838867-.0238037l-.01708985-.01263428c-.08435058-.04962159-.14855957-.1291504-.18078613-.22399903-.0159912-.04144287-.02453613-.08557129-.02514648-.13024902v-.57299805c0-.088562.03015136-.135437.09033203-.151062.0415039-.00195313.08227539.01092528.11560058.03643798.0834961.05065918.14733887.12982178.18078614.22399902.0131836.04406739.02160644.08947754.02502441.13543701v.57305909zm-.16064453-.7553711c.00476074.02581787.00476074.05230713 0 .078125v.01043701s0 .57299805-.00500488.60424805c-.00500489.03125-.01513672.046875-.0703125 0-.00805664-.02355957-.00805664-.0493164 0-.07293701v-.61987305c.0024414 0 .00463867-.00250244.00732422-.00561523.00842285-.00976563.02233886-.02593994.06799316.00561523z"/>
      <g>
        <use fill="none" xlink:href="#path-64"/>
        <g mask="url(#mask-65)">
          <path fill="rgb(249,115,57)" fill-rule="evenodd" d="M5.2792503 38.22960582l-3.09335475-.35423166c.43213566 1.20871194 1.15258758 2.28406146 2.09404047 3.12557346 1.3910053 1.27106654 2.79707564 1.65655394 3.69093464 1.0053928l-2.69162037-3.7767346z"/>
          <path fill="rgb(69,196,138)" fill-rule="evenodd" d="M5.2792503 34.68728922c-.26140174-.15813672-.53726854-.28900858-.82355549-.39069668-.56497273-.24809874-1.20695182-.22329209-1.75256624.06772076-.5724715.3386038-.83862053.92204417-.83862053 1.82325119.00065897.30852601.03434325.61602203.1004336.91683488.05413118.26258256.12800847.52036271.2209539.77097479l3.09335475.35423166 1.91326-1.79199546c-.5216451-.70726222-1.1715979-1.30186313-1.91326-1.75032114z"/>
          <path fill="rgb(32,162,106)" fill-rule="evenodd" d="M8.63373239 39.56318383c-.12407197-.69247602-.36006617-1.3582208-.6980135-1.96911128-.21540288-.40682388-.4640506-.79372964-.7432086-1.15646219l-1.91326 1.79199546 2.69162037 3.79757176c.62770997-.45841745.85368556-1.31274086.66286173-2.46399375z"/>
        </g>
      </g>
      <path fill="rgb(32,162,106)" fill-rule="evenodd" d="M4.17448074 37.7138862v-.2448366c.12052032.06251148.1757588.06772077.2008672 0 .0065323-.03088844.0065323-.06287875 0-.0937672v-.16148796c.00486743-.06067016.00486743-.12165495 0-.18232512-.00613787-.05388623-.03574805-.10188063-.08034688-.13023223-.03013008 0-.05523848 0-.06528184.02604645-.00799146.0883639-.00799146.17730984 0 .26567374l-.28121407-.17190654c-.00919958-.12049383.00796685-.2415866.0502168-.35423166.04519512-.0937672.13558535-.13544151.31134415-.02604644.14776606.08494592.26165984.22155552.3213875.3854874.0301628.08525003.04711193.17492001.0502168.26567374 0 .29692948-.0502168.41153384-.13558535.44799886.11779636.19432204.17398917.42202583.16069375.65116114.0017202.01905905.0017202.03824313 0 .05730218-.00716691.0676601-.02234641.13414575-.04519512.19795298-.02447938.0722156-.09204048.11893904-.16571543.11460437-.05576847-.00493915-.10937568-.02467172-.15567207-.05730218-.14857985-.08142679-.2630054-.21681953-.32138751-.38027811-.04041627-.13480956-.0590805-.2756207-.05523848-.41674313l.28121407.16669725c-.01036648.09520092-.01036648.19131 0 .2865109.00957276.04700419.03664233.08818949.0753252.11460436.04519511.02604645.07030351 0 .08034687-.0416743.00548676-.05367887.00548676-.1078091 0-.16148797v-.17190654c.00545087-.09173195-.02130743-.18240803-.0753252-.25525517-.04182457-.04442897-.0890987-.08296062-.14060703-.11460436l-.01004336-.01562787z"/>
      <path fill="rgb(32,162,106)" fill-rule="evenodd" d="M5.19388174 37.52635179l-.42684278-.25525517v-.29172019l.7181002.4271617v.29692949l-.28623574 1.56278673-.2962791-.17711583.29125742-1.56278673z"/>
      <path fill="rgb(32,162,106)" fill-rule="evenodd" d="M5.99731445 38.4953003c0 .088562-.03515625.13024902-.09033203.14587402-.04699707.01330566-.0612793.00402832-.09545898-.01837159l-.02001953-.01287841c-.0859375-.05010987-.1505127-.13195801-.18078614-.22924805-.0159912-.04144287-.02453613-.08557129-.02514648-.13018799v-.5834961c0-.08850097.03515625-.13018798.09033203-.14581298.0415039-.00195313.0822754.0109253.11560059.03643799.08337402.04943847.14599609.12927246.17565918.22399902.0177002.0411377.02783203.08526611.03015136.13024902v.58343506zm-.16064453-.7553711c.00732422.02374268.00732422.04919434 0 .07293701l.0201416.59906006c0 .046875-.00500488.046875-.04528808.046875-.03601074-.02008057-.05456543-.06280518-.04516602-.10418701v-.61468506c.01000977-.03125.01513672-.046875.0703125 0zm-.11547851 1.79724121l.7080078-1.56280518.17077638.09899903-.70300293 1.56274414-.17578125-.09893799zm1.01428222.40106201c0 .08856201-.03515625.13024903-.08532715.14587403-.0415039.00238037-.08239746-.01055909-.11547851-.03649903-.08569336-.0493164-.15161133-.12878418-.18579102-.22399902-.00769043-.04302979-.00769043-.0871582 0-.13018799v-.57824707c0-.08337402.0300293-.13024902.08532715-.14587402.04748535-.01342774.0616455-.00372315.09973145.0223999l.02075195.01403808c.08190918.05126954.14404297.13043213.17578125.22399903.015625.04162597.02404785.08569336.02514648.13024902l-.0201416.57824707zm-.15563965-.75012207c.00500489.02404785.00500489.04888916 0 .07293701v.005188s.01000977.57824706 0 .60949706c-.01000976.03125-.0201416.046875-.0703125 0-.00805664-.02355957-.00805664-.0493164 0-.07293701 0 0-.00500488-.58343506 0-.61468506.00500489-.03125.01501465-.046875.0703125 0z"/>
      <path fill="rgb(249,115,57)" fill-rule="evenodd" d="M20.91173945 32.55148069h-.06026015L8.1566728 24.93029073c-.05572589-.03399772-.0756676-.10755052-.0451951-.16669726.0327733-.0578078.10367714-.07849453.16069374-.0468836l12.69982817 7.60035281c.02697874.01625681.04646972.04314468.05403684.074544.00756713.03139933.00256663.0646388-.0138634.09215325-.01775171.0410759-.05704016.06756747-.1004336.06772076z"/>
      <path fill="rgb(249,115,57)" fill-rule="evenodd" d="M24.91903992 44.52763635c-.01805089.00535595-.03718759.00535595-.05523848 0L7.17242357 33.91631444c-.03588147-.0223332-.05755179-.06282762-.05684797-.10622942.00070383-.04340179.02367487-.08311718.06026016-.10418578.0365853-.0210686.08122666-.02028957.11710813.00204363l17.68635619 10.59048476c.0557259.03399771.0756676.10755051.04519512.16669725-.02244935.03826379-.06227944.06187415-.10545528.06251147z"/>
      <path fill="rgb(32,162,106)" fill-rule="evenodd" d="M20.76108906 44.60577568c-.01983242.0046891-.04042774.0046891-.06026016 0l-7.14082865-4.28724493-.5473631 1.46901953c-.01386773.03133854-.03915054.05569253-.0703035.06772075-.03107427.018611-.06935934.018611-.1004336 0L7.91563218 38.9068134c-.02697874-.01625681-.04646972-.04314468-.05403684-.074544-.00756713-.03139933-.00256663-.0646388.0138634-.09215325.03277331-.0578078.10367715-.07849453.16069375-.0468836l4.80574756 2.88073687.5473631-1.46901953c.0154133-.03140838.04002628-.0569409.0703035-.07293004.03224358-.01333667.06819003-.01333667.1004336 0l7.2513056 4.34454711c.02697875.01625682.04646972.04314468.05403685.074544.00756712.03139933.00256662.06463881-.0138634.09215325-.0188553.03454116-.05240234.0577414-.09039024.06251147z"/>
      <path fill="rgb(32,162,106)" fill-rule="evenodd" d="M19.37510544 38.12542003c-.01808575.00509144-.03715272.00509144-.05523848 0L8.10143433 31.38980922c-.03035387-.01263938-.054452-.03753389-.06676253-.06896884-.01231053-.03143496-.01177607-.06671032.0014807-.09772841.01480776-.02886755.0403461-.05020243.07069116-.05905583.03034507-.0088534.06285997-.00445599.09000259.01217223L19.4353656 37.8962113c.0557259.03399772.0756676.10755052.04519512.16669725-.02368604.03691808-.0627692.06008568-.10545528.06251147z"/>
      <path fill="rgb(32,162,106)" fill-rule="evenodd" d="M13.70562897 25.8992185c-.01805089.00535595-.0371876.00535595-.05523848 0l-5.90549542-3.55273517c-.03588147-.0223332-.0575518-.06282762-.05684797-.10622941.00070382-.0434018.02367487-.0831172.06026016-.10418579.03658529-.0210686.08122665-.02028956.11710812.00204363l5.77995343 3.46417726 1.7626096-4.6883602c.01222609-.03367195.03784424-.0602472.07030352-.07293004.03224357-.01333667.06819002-.01333667.1004336 0l1.50650393.9064163c.02697874.01625682.04646972.04314468.05403684.074544.00756713.03139933.00256663.0646388-.0138634.09215325-.03277331.05780781-.10367715.07849454-.16069375.0468836l-1.39602698-.8543234-1.7626096 4.71440663c-.0093776.0354817-.03609968.06320211-.07030352.07293005l-.03013008.00520929z"/>
      <path fill="rgb(249,115,57)" fill-rule="evenodd" d="M16.50268555 44.71520996l.18078613.10418701c.08581543.05548096.1442871.14660645.1607666.25006104v6.54803467c0 .046875-.05029297.08337402-.11047363.046875l-.28625488-.171875c-.0604248-.03814698-.09973145-.10400391-.10546875-.17712403v-6.5324707c0-.06768799.0703125-.125.16064453-.06768799zm-.140625 1.85968018l.45703125.27087402v-1.79199219c-.00891114-.09259033-.05908203-.17547607-.13562012-.22399902l-.18078613-.109375c-.07531739-.04168701-.140625-.015625-.140625.0625v1.79199219z"/>
      <path fill="rgb(249,115,57)" fill-rule="evenodd" d="M27.62060547 51.3517456l.17578125.10943604c.09362793.05535889.1553955.15441895.16577148.26568604v6.54284668c0 .046875-.05029297.08337402-.11047363.046875l-.28125-.16668702c-.06176758-.03753662-.1027832-.10327148-.11047363-.17712402v-6.5480957c0-.07293701.0703125-.125.16064453-.07293701zm.31140137 3.71954346v-3.36004638c-.00878907-.0925293-.05895996-.17547608-.13549805-.22399903l-.18078613-.109375c-.07531739-.046875-.13562012-.015625-.13562012.0625V54.800354l.4519043.27093506z"/>
      <path fill="rgb(249,115,57)" fill-rule="evenodd" d="M18.3557129 45.80914307l.18078612.104187c.08947754.05889893.1484375.15649415.1607666.26568604v6.54284668c0 .052063-.05029296.08337403-.11047363.052063l-.28625488-.171875c-.0604248-.03814698-.09973145-.10394288-.10546875-.17712403v-6.5480957c0-.09375.0703125-.125.16064453-.067688zm.31640624 4.62060547v-4.26641846c-.00891113-.09259033-.05908203-.17547608-.13562012-.22399903l-.18078613-.109375c-.07531738-.041687-.140625-.015625-.140625.0625v4.26641846l.45703125.27087403z"/>
      <path fill="rgb(249,115,57)" fill-rule="evenodd" d="M22.05664063 48.02825928l.18078613.104187c.0916748.0565796.15148926.15545655.1607666.26568604V54.940979c0 .052063-.04516602.08337403-.10546875.052063l-.28625488-.171875c-.06176758-.03753663-.1027832-.1032715-.11047364-.17712403v-6.5480957c0-.067688.07531739-.125.16064453-.067688zm.3215332 5.5947876v-5.24053956c-.01086426-.09326171-.06274414-.17608642-.140625-.22399902l-.18078613-.109375c-.07531739-.04168701-.13562012-.015625-.13562012.0625v5.24053955l.45703125.27087402z"/>
      <path fill="rgb(249,115,57)" fill-rule="evenodd" d="M23.92468262 49.13787842l.18078613.10418701c.0916748.05657959.15148926.15545654.1607666.26568603v6.54803467c0 .046875-.05029297.08337403-.10546875.046875l-.28625488-.166687c-.06176758-.03753663-.1027832-.10321046-.11047363-.17712403v-6.5532837c0-.09375.07531738-.125.16064453-.06768798zm-.13549805 2.0941162l.4519043.27087403v-2.01080322c-.00878907-.0925293-.05895996-.17547607-.13549805-.22399902l-.18078613-.109375c-.07531739-.046875-.13562012-.015625-.13562012.0625v2.01080322z"/>
      <path fill="rgb(249,115,57)" fill-rule="evenodd" d="M25.76257324 50.2421875l.18078614.10943604c.0916748.05657959.15148925.15545654.1607666.26568603v6.54284668c0 .046875-.05029297.08337402-.11047364.046875l-.28125-.16668701c-.06176757-.03753662-.1027832-.10327149-.11047363-.17712403v-6.5480957c0-.07293701.0703125-.125.16064453-.07293701zm.31640625 2.9119873v-2.55255126c-.00878906-.0925293-.05895996-.17547608-.13549804-.22399903l-.18078614-.109375c-.07531738-.046875-.13562011-.015625-.13562011.0625v2.55255127l.4519043.27087402z"/>
      <path fill="rgb(249,115,57)" fill-rule="evenodd" d="M20.20861816 46.91870117l.17578125.10418701c.04064942.0255127.07495118.0592041.10144043.09851075-.02209472-.0289917-.04956054-.05371094-.08129882-.07244873l-.17578125-.10943604c-.08032227-.04168701-.140625-.015625-.140625.0625v3.89654541l.43688964.27612305v-1.71905518l.0201416-2.16705322v6.54284668c0 .05206299-.04528808.08337402-.10546874.05206299l-.28625489-.171875c-.0604248-.03814698-.09973144-.10394287-.10546875-.17712403v-6.5480957c0-.06768799.0703125-.125.16064453-.06768799zm.33483887.35418701c-.00744629-.0550537-.02734375-.10687256-.05749512-.15148925.03283692.04302978.05371094.09539795.05749512.15148925z"/>
      <path fill="rgb(249,115,57)" fill-rule="evenodd" d="M21.62983966 32.86924732c0 .22920873-.18078047.30734806-.40173438.17711583-.2259526-.14109027-.374763-.38422292-.40173438-.65637042 0-.23441801.18078047-.31255735.40173438-.17711583.22652252.14048387.37553447.38394583.40173438.65637042z"/>
      <path fill="rgb(32,162,106)" fill-rule="evenodd" d="M19.7818615 38.2400244c0 .22920872-.18078047.31255734-.40675606.17711582-.22652252-.14048387-.37553447-.38394583-.40173438-.65637042 0-.22920872.18078047-.31255735.40173438-.17711583.22960974.13802787.38103326.3823756.40675606.65637042z"/>
      <path fill="rgb(249,115,57)" fill-rule="evenodd" d="M25.3207743 44.64745c0 .22920872-.17575879.30734805-.40173438.17711583-.22728293-.14215893-.37628274-.38753313-.40173438-.66157972 0-.22920872.18078047-.30734806.40173438-.17190654.228278.1386045.37792083.38309722.40173438.65637043z"/>
      <path fill="rgb(32,162,106)" fill-rule="evenodd" d="M21.16282344 44.72038004c0 .23441801-.18078047.31255735-.40173438.17711583-.22652252-.14048387-.37553447-.38394583-.40173438-.65637042 0-.22920872.18078047-.30734806.40173438-.17711583.2259526.14109027.374763.38422292.40173438.65637042z"/>
      <path fill="rgb(32,162,106)" fill-rule="evenodd" d="M17.62756088 22.20062323c0 .22920872-.18078047.30734806-.40173439.17190654-.22827799-.1386045-.37792083-.38309722-.40173438-.65637042 0-.22920872.1757588-.30734806.40173438-.17711583.22728293.14215892.37628274.38753312.40173439.66157971z"/>
      <path fill="rgb(32,162,106)" fill-rule="evenodd" d="M27.86676595 22.03913527L25.7677038 20.7836966v-2.3441801l2.09906215 1.25543867v2.3441801z"/>
      <path fill="rgb(249,115,57)" fill-rule="evenodd" d="M27.86676595 25.565824l-2.09906215-1.25543868v-2.3441801l2.09906215 1.25543868v2.3441801z"/>
      <path fill="rgb(69,196,138)" fill-rule="evenodd" d="M27.86676595 29.09251272l-2.09906215-1.25543867v-2.3441801l2.09906215 1.25543867v2.3441801z"/>
      <path fill="rgb(249,115,57)" fill-rule="evenodd" d="M29.66455078 68.94360352c.02282715.00756836.04736328.00756836.07019043 0 .02807617-.00402832.05444336-.01672364.07543945-.03649903.0423584-.0265503.06884766-.07366943.07019043-.125V17.86132813c.00036621-.0532837-.02636718-.10272217-.07019043-.13024903L.21740723.01947021c-.04541016-.02593994-.1003418-.02593994-.14562989 0-.05078125.03100586-.0784912.09063721-.0703125.15106202V51.0704956c-.0003662.05322265.0263672.10272216.0703125.13024902l29.59277344 17.74285889zm-.0703125-.40637207L.28771973 50.98712158V.42578125l29.30651855 17.55010986v50.56134034z"/>
      <path fill="rgb(249,115,57)" fill-rule="evenodd" d="M40.62685428 80.29982465c-.08042852 0-.14562872-.06763607-.14562872-.15106939V44.4599156l-10.85185-6.48556494c-.0439548-.02698595-.07069238-.07624767-.07014093-.12922875.00055144-.05298109.02830811-.10163245.07281435-.12762759.04450624-.02599514.0990005-.02538477.14295529.00160117l10.9020668 6.52723926c.04391507.02753098.07062256.0770047.07030352.13023222v35.7721883c.00107041.07423697-.05001935.13827678-.12052031.15106939z"/>
    </g>
  </g>
</svg>
