<svg xmlns="http://www.w3.org/2000/svg" width="93" height="101" viewBox="0 0 93 101">
  <g>
    <ellipse cx="46.5" cy="54.5" fill="rgb(213,227,220)" rx="46.5" ry="46.5"/>
    <g>
      <g opacity=".4">
        <ellipse cx="42.968" cy="76.592" fill="rgb(32,162,106)" rx="26.968" ry="15.205"/>
      </g>
      <path fill="rgb(252,175,117)" fill-rule="evenodd" d="M58.55801023 10.80652399l2.25166768-.60440801 2.54244595.96850922 1.17056895 1.48553295-.64120337 2.2792736-5.3234792-4.12890776z"/>
      <path fill="rgb(112,91,0)" fill-rule="evenodd" d="M50.37148339 20.84115341l1.24512748 2.81814339 9.58822726-.88840696 1.02145189-4.02695942s-5.82302137 0-5.91994746-.13835846c-.0969261-.13835846-1.96834526-6.29166895-1.96834526-6.29166895l-3.96651391 8.5272504z"/>
      <path fill="rgb(34,34,34)" fill-rule="evenodd" d="M46.65846848 71.75706698c-.35912626 1.13237155-.4155936 2.33566266-.16402877 3.49537164l1.92361013 1.33261044h.61137996c1.67756698 3.2405008 3.88449954 4.36921455 6.26291672 4.79157196 1.07970717.01890594 2.11909656-.40034055 2.87050349-1.15784186.23113145-1.06317554.2236756-1.93701845-.23113145-2.51229837-1.08855457-1.3544565-2.9823413-2.24286347-4.23492463-5.05372483l-.46971876-1.82050606-6.09143209-.9903553-.4771746 1.91517238z"/>
      <path fill="rgb(27,76,54)" fill-rule="evenodd" d="M38.36755969 33.49731156l8.94702387 18.98423722c-2.34859377 3.40798735-1.78194892 11.78959727-1.36442114 19.04977545.87233483 2.73804112 7.1576191 3.85947285 8.02995393.91025303-.74558532-6.26982288.3355134-12.6998503.32805754-20.01100264.24629477-9.11383797-1.89674935-18.1378966-6.22563745-26.21528731l-9.71497675 7.28202425z"/>
      <path fill="rgb(34,34,34)" fill-rule="evenodd" d="M35.98168665 81.67518401c-.84505415.7674903-1.98119107 1.15322528-3.13145835 1.06317554-3.04198812-.4223574-5.42786115-2.04624881-6.5686067-5.90572167-1.0601602-.45133816-1.84914149-1.35348838-2.13982987-2.44676014l-.04473512-.12379442c.12694964-.76254662.37869543-1.50017604.74558532-2.18460727.3321818-.59961784.75158304-1.14905245 1.24512749-1.63117344l.50699802.2403068 4.9730541 2.33752979c.06807922.4323677.16269043.86035064.28332242 1.28163627 1.02890775 3.4516795 3.48188346 4.07793358 4.1454544 5.30859568.2716023.66232683.26624797 1.4023014-.0149117 2.06081286z"/>
      <path fill="rgb(27,76,54)" fill-rule="evenodd" d="M48.09744815 27.75179442l-1.81177233 2.33752979-2.13982988 2.75260517-.67848264.8738429-1.87141916 2.40306801-.13420536.17476858c.49483142 3.44890133.62475129 6.93840009.38770436 10.41329468v.16020454c-.29901763 3.88716452-1.264306 7.69768258-2.85559178 11.27257354-2.94756806 4.8648082-5.17890169 10.11084454-6.62825352 15.5835319-.11492396.23571246-.29260782.43691972-.51445388.58256194-1.83904467.99925542-4.10120996.88326772-5.82302137-.298563-.62104964-.47825461-1.04675765-1.15745273-1.20039237-1.91517237-.09581302-.47987192-.11092272-.97178623-.04473512-1.45640485.7977763-7.0271534 3.14637007-13.209592 8.01504222-15.83840275-.5890124-3.64101213-1.08855457-7.23105009-1.39424455-10.62447339-.30921555-3.1144707-.38148705-6.24705224-.21621974-9.3719652-.31123015-1.53413308-.49573498-3.09021217-.55173314-4.6532135v-2.33752979c0-.298563 0-.59712599.05219097-.89568898-.00400598-.03387017-.00400598-.06807818 0-.10194834.0909033-1.13928942.25023582-2.2723813.4771746-3.3934233l3.93669051.4806136 10.28907746 1.25250817.95434921.11651238 1.1482014.13835847.08947024.37138323.38024851 1.54378914.13420536.42963943z"/>
      <path fill="rgb(255,255,255)" fill-rule="evenodd" d="M54.59149631 13.3916426c-.15967498 3.68020288-1.39083378 7.23957084-3.54898613 10.26037217-.78774012 1.13204594-1.67860933 2.19225072-2.6617396 3.16768055l-.10438195.13107644c-.09616816.13018852-.20076362.25423615-.31314584.37138323-1.69247868 1.9224544-4.37658584 3.01475804-8.02995392 3.2113727-3.94414636.28399894-7.09051643-.8083047-9.23780216-3.64101213.15657292-1.17968793.3206017-2.35209383.51445388-3.48808961.20876389-1.27435425.45480704-2.51229837.74558532-3.6919863.5914618-2.32962638 1.71560685-4.4981127 3.28803127-6.34264312 1.60300845-1.87876226 3.48933932-3.80849869 6.65062108-4.47844492 4.57789389-4.6240854 9.04394997-4.28911228 12.02629126-1.60932736.5172698 1.99549198.7431795 4.0523728.6710268 6.10961835z"/>
      <path fill="rgb(255,203,166)" fill-rule="evenodd" d="M46.77030628 6.86694887c-.10438195 0-1.79686063 1.51466104-1.79686063 1.51466104-2.48279913 1.36902056.55173314 8.09032895 4.18273366 6.43002742l3.37750151-2.29383764-5.76337454-5.65085082z"/>
      <path fill="rgb(69,196,138)" fill-rule="evenodd" d="M44.22786032 10.75554982c1.29558823 4.6872721 1.69743334 9.56730782 1.18548067 14.39656195-.22133607 2.00765467-.61793935 3.99316227-1.18548067 5.93484976-.04473511.57527992-.06710267 1.15784186-.08201438 1.75496785v1.201534c0 .68451028 0 1.39086663.04473512 2.104505.14496266 3.3406464.49602474 6.66971716 1.0512753 9.9690912-.74558532.18205061-1.49117064.33497312-2.23675596.44420349-.39516023.0582562-.74558533.10923036-1.1332897.14564048-.74272688.08094647-1.4894209.12227264-2.23675596.12379442h-.7828646c-.26095486 0-.51445387 0-.74558532-.04369215-.23113145-.04369215-.51445387-.05097417-.74558532-.0873843-.23113145-.03641011-.49208631-.07282023-.74558532-.11651238-.25349901-.04369214-.4771746-.08738429-.69339435-.13835846h-.04473512c-.22925354-.05201519-.45569772-.11520512-.67848265-.18933263-.23113145-.06553822-.45480704-.13835846-.67848264-.22574275-.2236756-.0873843-.40261607-.15292251-.60392411-.2403068h-.04473512c-.5987103-.25850164-1.16631887-.58086953-1.69247868-.9612272-.26234096-.18199686-.51146512-.38151596-.74558533-.597126-.8990157-.81108206-1.60413511-1.80556576-2.06527134-2.9128097.90848137-3.65551878 1.33443687-7.4095289 1.26749505-11.1706252v-2.33752978c.13420536-4.84254613.84251141-9.02971007 2.52753424-12.25564682 1.63935207-3.2822094 4.7172859-5.65874767 8.36546733-6.4591555 1.04381945-3.92501108 4.11563098-4.6240854 7.50058834-3.77208857l-1.78940477 1.95886452c-1.8639633.72820243-3.06435568 1.51466105-3.0121647 3.47352557z"/>
      <path fill="rgb(32,162,106)" fill-rule="evenodd" d="M45.63701659 20.84115341s-3.95905807-11.8915456-9.2154346-9.37924724c-2.23675596 1.07045757-.5890124-1.7112757-.5890124-1.7112757.74558532-1.45640485 1.8341399-2.27199156 3.35513395-3.37885925.62097551-.2585158 1.27197704-.4419265 1.93852184-.54615182.67744112-.055038 1.32200448-.30888306 1.8490516-.72820242 1.26052211-.8332984 2.74279312-1.28887233 4.26474805-1.31076437l3.4446042 2.76716922c-4.115631-1.33989247-6.98613448-2.59240064-9.01412656 2.11178703-1.06618701 2.42491408 3.96651392 6.41546337 3.96651392 12.17554455z"/>
      <path fill="rgb(32,162,106)" fill-rule="evenodd" d="M50.68462922 12.95472114c.46971875 5.26490354-.29823413 9.9399631-2.37841718 13.99605062-.9394375 4.66049552.34296925 11.29441961 1.7073904 17.99388192 2.33368205 0 4.18273365-.62625408 5.21909725-2.27927359-2.05781549-5.65085082-3.55644199-11.06867686-3.72792661-15.91850501l3.72792661-15.06650818-4.54807047 1.27435424z"/>
      <g opacity=".2">
        <path fill="rgb(29,29,27)" fill-rule="evenodd" d="M54.59149631 13.3916426c-.11696722 2.94120583-.92568993 5.8166236-2.36350547 8.40345599-.24203353.45083455-.7201976.73328065-1.24139956.73328065-.52120196 0-.99936603-.2824461-1.24139957-.73328065-1.68502283-3.32060306-3.39241321-9.56857987-2.86304764-10.82108804l1.17802481-1.00491935 6.53132743 3.4225514z"/>
      </g>
      <path fill="rgb(255,203,166)" fill-rule="evenodd" d="M51.16925968 1.64573748c-3.03453226 0-4.77174607 1.45640485-4.89103972 4.52213706.08947024 3.26234687.2236756 6.23341276 2.90778276 8.01022668 1.30477432 1.04132947 2.16219744 1.58748129 3.72792662 1.50737902 1.8490516-.0873843 3.72792661-4.4420348 4.00379318-7.58058725.43989534-3.16768055-2.3262262-5.59987665-5.74846284-6.4591555z"/>
      <path fill="rgb(34,34,34)" fill-rule="evenodd" d="M57.16376568 8.32335372c-.69339435 1.58019926-4.20510122 2.33752979-7.1427074 1.08502161l-.26841071 2.03168477-1.20784823-1.11414971-1.23021578 1.26707222-.4473512-.61897206C45.0778276 8.410738 44.88397542 3.64101213 48.73119569 1.88604428 53.64460295 0 58.722039 4.91536637 57.16376568 8.32335372z"/>
      <path fill="rgb(255,203,166)" fill-rule="evenodd" d="M48.11981571 11.43277808c-.30866122-.2250613-.5631446-.5133796-.74558532-.84471482-.17512016-.33118558-.17512016-.72470793 0-1.05589351.18611745-.34391642.595012-.51158724.97671677-.40051134.24880744.09901731.44175977.29808818.52936558.54615182.07371809.23649733.1163103.48119849.1267495.72820243 0 .23302477 0 .45876752.03727927.6917923.03453453.15711069-.00068327.32115657-.0969261.4514855-.1168913.10397264-.2812928.13996215-.43243948.09466632-.14535455-.04271417-.27995599-.1146469-.39516022-.2111787z"/>
      <path fill="rgb(34,34,34)" fill-rule="evenodd" d="M48.9996064 10.42785873l-.61137997 3.11670638c.29823413 2.8254254 1.2749509 5.89115762 4.57043803 5.89115762 3.29548712 0 2.438064-3.8449088 2.66919545-6.67033422l-.50699802.88112494c-.17148462-.1820506-.55918899-.24758883-1.12583384-.20389668-1.0363122.20137416-1.97798987.72510531-2.68410716 1.49281497-1.14074554-.7791766-1.49117064-2.06809489-1.55081747-3.64101212l-.76049703-.8665609z"/>
      <g opacity=".39">
        <path fill="rgb(29,29,27)" fill-rule="evenodd" d="M36.421582 36.06786612c-2.30385865 2.33024776-2.84068009 5.8256194-2.60209278 9.66324618h.04473512c.20130803.0873843.39516022.16748656.6039241.2403068.2087639.07282025.4473512.16020454.67848265.22574276.22278492.0741275.4492291.13731744.67848265.18933263h.04473512l.65611508.13835846c.29077828.04369214.52936558.08738429.74558532.11651238.21621975.0291281.48463046.06553822.74558533.0873843l.79032044.04369214h.78286459c.74733505-.00152177 1.49402908-.04284794 2.23675597-.12379441.37279266 0 .74558532-.0873843 1.11092213-.14564049l-1.11837799.30584502-7.64970541 2.14091513c.27586657 1.84235214.67102679 3.70655035 1.08109872 5.50521034-5.83047723 5.19208329-9.55840384 11.41821402-9.2303463 19.55223511-.61826871-.47944596-1.04124113-1.15849725-1.19293652-1.91517237-.09581302-.47987192-.11092272-.97178623-.04473512-1.45640485.7977763-7.0271534 3.14637007-13.209592 8.01504222-15.83840275-.5890124-3.64101213-1.08855457-7.23105009-1.39424455-10.62447339-.8990157-.81108207-1.60413512-1.80556576-2.06527134-2.9128097.91347782-3.6353504 1.3494212-7.36948653 1.29731846-11.112369v-2.33752979c.13420536-4.84254613.84251141-9.02971007 2.52753424-12.25564682.59646826 2.9710659 1.22275993 5.8256194 1.9459777 8.3451998.88724653 3.07301423 1.93106598 5.63628677 3.24329615 7.28202425 1.35696529.67722825 4.54807047-7.07084555 6.52387158-6.07320823.21621974.10194834.52936558-1.12871376.74558532-1.0194834 1.371877.68451029 2.11746232 2.33024777 2.46043156 3.68470428l-3.9516022 5.09741697-3.05689983 2.38850396-4.65245242.8083047z"/>
      </g>
      <path fill="rgb(230,230,230)" fill-rule="evenodd" d="M61.01098594 67.46067267l-.55918899-11.51288034c-.01465046-.26016167.11391971-.50819468.33727939-.65066738.22335967-.1424727.5075752-.1577401.74558533-.04005113.23801013.11768897.39365547.35045457.40830593.61061624l.55918899 11.51288034c0 .40051134-.55173314 3.05116817-.55173314 3.05116817s-.9245258-2.65065683-.9394375-2.9710659z"/>
      <path fill="rgb(34,34,34)" fill-rule="evenodd" d="M61.33158763 23.36801583l-3.95905806-1.39086664 1.87141916 34.04346338c.0504931.7958946.60430037 1.47637612 1.3867887 1.70399368.60293031.16391278 1.24976825.03574479 1.7396258-.34469894.48985756-.38044373.76341637-.96709407.73571747-1.57775547l-1.77449307-32.43413601z"/>
      <path fill="rgb(230,230,230)" fill-rule="evenodd" d="M75.89286899 87.79208438L71.6654002 69.8127665c-.05966768-.3754424.18623099-.73259308.56474382-.82025107.37851282-.08765798.76241577.12363995.8816917.48527796l4.22746878 17.97931788c.0969261.3932293 0 3.0948603 0 3.0948603s-1.37187699-2.43947812-1.44643552-2.75988719z"/>
      <path fill="rgb(53,53,53)" fill-rule="evenodd" d="M72.17239823 71.51676018c-.81842338-.08643455-1.48982279-.67192215-1.67011113-1.45640485L59.81059357 25.48708488c-.26408057-.6848861-.09865893-1.4571525.42437983-1.98120555.52303875-.52405305 1.30926036-.7052754 2.0170069-.46491564.70774653.24035976 1.20923488.85890487 1.28653989 1.58684233l10.7289728 44.55142438c.11851646.48771166.03337626 1.00144026-.23661785 1.42773143-.2699941.42629117-.70262985.7300742-1.20236183.84426013-.21259013.0616991-.4351384.08392906-.65611508.06553822z"/>
      <path fill="rgb(230,230,230)" fill-rule="evenodd" d="M28.67495049 89.5688983s.38024851-2.9128097.53682143-3.306039l6.85192912-17.27296154c.1766266-.3300447.57975278-.47674757.9344374-.34005395.35468462.13669363.54661722.51272908.44489545.87164172l-6.82956156 17.27296153c-.14911707.37138324-1.93852184 2.77445124-1.93852184 2.77445124z"/>
      <path fill="rgb(53,53,53)" fill-rule="evenodd" d="M54.5467612 20.63725673L34.97514646 68.56754036c-.39118662.96924197.09617587 2.0646938 1.08855458 2.44676013.99237872.38206633 2.11398004-.09393356 2.50516668-1.06317553l20.13080371-49.31386823H54.5467612z"/>
      <path fill="rgb(34,34,34)" fill-rule="evenodd" d="M66.27481832 20.33141171l-5.8826682.1820506-1.71484624-.26215286-5.39803774-1.36173854v1.83507011c-.00185823.09078464.01859568.18068134.05964683.26215287l2.5349901 5.33772378c.3504251.72820243 1.98325696.98307328 2.94506202.44420348l6.92648765-3.903165c.30010196-.12784222.5016416-.40904344.52190973-.72820242l.00745585-1.80594202z"/>
      <path fill="rgb(60,60,59)" fill-rule="evenodd" d="M55.88135892 24.48944756l-2.5349901-5.33772378c-.3504251-.72820242.84251142-1.4127127 2.15474159-1.21609805l9.4689336 1.45640485c1.30477431.19661466 1.74466965 1.12143174.74558532 1.66030153l-6.92648765 3.903165c-.9245258.53158777-2.52753424.27671692-2.90778276-.46604955z"/>
      <path fill="rgb(17,17,17)" fill-rule="evenodd" d="M57.15630982 22.57427518h-1.4017004v.72820243c.03177319.24224084.18576005.45279628.41007192.56071586.62495479.30189285 1.35830218.30189285 1.98325696 0 .23110682-.09994184.38822916-.3147846.41007193-.56071586v-.72820243h-1.4017004z"/>
      <ellipse cx="57.156" cy="22.545" fill="rgb(17,17,17)" rx="1.402" ry=".786"/>
      <path fill="rgb(0,0,0)" fill-rule="evenodd" d="M64.0306065 19.43572273h-1.4017004v.78645862c.03177318.24224084.18576004.45279628.41007192.56071587.62495479.30189284 1.35830217.30189284 1.98325696 0 .23110682-.09994185.38822915-.31478462.41007193-.56071587v-.78645862h-1.4017004z"/>
      <ellipse cx="64.031" cy="19.436" fill="rgb(87,87,86)" rx="1.402" ry=".786"/>
      <path fill="rgb(0,0,0)" fill-rule="evenodd" d="M64.73891256 19.56679917v.91753505c-.001106.1801196-.02872682.35914783-.08201439.53158777-.03438716.1177033-.0792949.23222858-.13420536.34225514-.04528821.08735074-.09505708.17241568-.14911706.25487085-.04473512.0582562-.08201439.11651239-.13420536.17476858-.09045028.11455546-.1875349.22396448-.29077827.3276911l-.13420536.10923036c-.13754404.12259778-.28461688.23459135-.43989534.33497311l-.1267495.08010227-.16402878.09466632c-.08947024.05097416-.17894048.10194833-.27586657.14564048l-.1267495.0582562-.42498364.1820506-.13420536.04369215c-.14881047.05857505-.30061435.10961699-.45480704.1529225l-.1267495.03641013-.49208632.11651238h-.1267495c-.17148463 0-.34296925.0582562-.51445388.08010227h-.1267495c-.17148463 0-.3504251.03641012-.52190973.04369215h-1.44643553c-.17148462 0-.3504251 0-.52190972-.0582562h-.1267495l-.50699803-.09466631h-.1267495l-.48463046-.13835846h-.1267495c-.1541927-.04330552-.30599658-.09434745-.45480705-.15292251l-.1267495-.05097417-.41752779-.1820506-.1267495-.06553823-.16402877-.08738429-.28332243-.18933263-.1267495-.08738429c-.13929967-.09490523-.27136637-.19955558-.39516022-.31312704l-.13420536-.12379441c-.0930556-.09430289-.18019899-.19400514-.26095486-.298563-.04473512-.06553822-.08947024-.12379441-.1267495-.18933263-.04665478-.07280702-.08897478-.14817956-.12674951-.22574275-.05202559-.10789343-.09443238-.21996594-.1267495-.33497312-.04430084-.16398989-.0668529-.33285795-.06710269-.50245967v-.9320991h11.25833838z"/>
      <path fill="rgb(36,36,35)" fill-rule="evenodd" d="M63.08371314 17.3239357c2.1994767 1.23794412 2.1994767 3.24778281 0 4.48572694-2.49862276 1.24494442-5.45677263 1.24494442-7.9553954 0-2.1994767-1.23794413-2.1994767-3.24778282 0-4.48572694 2.5003648-1.23784496 5.4550306-1.23784496 7.9553954 0z"/>
      <path fill="rgb(255,255,255)" fill-rule="evenodd" d="M53.67442637 20.6299747v.72820243c-.05202559-.10789343-.09443238-.21996593-.1267495-.33497311v-.3568192c.0038142-.03332578.0327695-.05846375.06710267-.05825619.02237967-.00298701.04479638.00522327.05964683.02184608z"/>
      <path fill="rgb(255,255,255)" fill-rule="evenodd" d="M53.92792538 21.11787033v.63353611c-.04473512-.06553822-.08947024-.12379441-.1267495-.18933263v-.44420348c.0038142-.03332579.0327695-.05846376.06710267-.0582562.03145588.00326028.05630873.0275337.05964683.0582562z"/>
      <path fill="rgb(255,255,255)" fill-rule="evenodd" d="M54.3230856 21.55479179v.604408l-.13420536-.1237944v-.4806136c0-.03619576.0300429-.06553822.06710268-.06553822s.06710268.02934246.06710268.06553822z"/>
      <path fill="rgb(255,255,255)" fill-rule="evenodd" d="M54.84499532 21.9771492v.59712598l-.1267495-.08738429v-.49517765c-.00215061-.01666779.0031707-.03343094.01459817-.04598713.01142749-.01255618.02784854-.01968292.04504865-.01955109.03194025-.00077804.06001258.02054694.06710268.05097417z"/>
      <path fill="rgb(255,255,255)" fill-rule="evenodd" d="M55.41909602 22.3121223v.57527992l-.1267495-.06553821v-.5097417c-.00013498-.0167991.00716187-.03283731.0200178-.04399837.01285591-.01116106.03001921-.0163583.04708488-.01425783.03294203 0 .05964682.0260822.05964682.0582562z"/>
      <path fill="rgb(255,255,255)" fill-rule="evenodd" d="M55.9633733 22.57427518v.5679979l-.1267495-.05097418v-.51702372c.00381421-.03332579.0327695-.05846376.06710268-.0582562.03145588.00326028.05630873.0275337.05964683.0582562z"/>
      <path fill="rgb(255,255,255)" fill-rule="evenodd" d="M56.54492986 22.75632579v.54615182h-.1267495v-.51702373c0-.01738181.00706972-.03405171.01965391-.04634251.0125842-.0122908.02965203-.0191957.04744876-.0191957.02532396.00017139.04839207.01425282.05964683.03641012z"/>
      <path fill="rgb(255,255,255)" fill-rule="evenodd" d="M57.15630982 22.9092483v.55343384h-.1267495v-.53158777c.00381421-.0333258.0327695-.05846376.06710268-.0582562.02532396.0001714.04839207.01425283.05964682.03641013z"/>
      <path fill="rgb(255,255,255)" fill-rule="evenodd" d="M57.79005735 23.02576069v.54615181h-.1267495v-.53158777c0-.01738181.00706972-.03405171.01965391-.04634251.0125842-.0122908.02965203-.0191957.04744876-.0191957.02913003.00248357.05325965.02310474.05964683.05097417z"/>
      <path fill="rgb(255,255,255)" fill-rule="evenodd" d="M58.43871658 23.0912989v.54615182h-.1267495v-.5388698c.0038142-.03332578.0327695-.05846375.06710267-.05825619.03023722-.00023152.05586799.02167254.05964683.05097417z"/>
      <path fill="rgb(255,255,255)" fill-rule="evenodd" d="M59.10228752 23.120427v.5388698h-.13420536v-.5388698c0-.02341455.0127897-.04505049.03355134-.05675776.02076164-.01170728.04634104-.01170728.06710268 0 .02076164.01170727.03355134.0333432.03355134.05675776z"/>
      <path fill="rgb(255,255,255)" fill-rule="evenodd" d="M59.7584026 23.10586295v.53158777h-.1267495v-.5388698c-.00215061-.01666778.00317069-.03343093.01459817-.04598712.01142748-.01255619.02784854-.01968292.04504865-.0195511.0191672-.00011595.03747025.00777924.05029267.02169421.01282243.01391498.0189401.03252132.01681001.05112604z"/>
      <path fill="rgb(255,255,255)" fill-rule="evenodd" d="M60.40706183 23.04032473v.53158777h-.1267495v-.55343384c.0038142-.03332579.0327695-.05846376.06710268-.0582562.01938817.0016206.03710126.01138148.04854652.0267518.01144525.01537033.0154954.03483623.0111003.05335047z"/>
      <path fill="rgb(255,255,255)" fill-rule="evenodd" d="M61.04826521 22.9383764v.53158776h-.1267495v-.53158777c0-.032174.02670479-.05825619.05964682-.05825619.01706566-.00210047.03422897.00309677.04708488.01425783.01285592.01116105.02015278.02719927.0200178.04399836z"/>
      <path fill="rgb(255,255,255)" fill-rule="evenodd" d="M61.66710103 22.7927359v.5097417l-.1267495.03641013v-.54615182c-.00215062-.01666779.00317069-.03343094.01459817-.04598713.01142748-.01255619.02784854-.01968292.04504865-.01955109.01779674 0 .03486456.0069049.04744876.0191957.0125842.0122908.01965392.0289607.01965392.04634252z"/>
      <path fill="rgb(255,255,255)" fill-rule="evenodd" d="M62.22629002 22.57427518v.51702372l-.13420536.04369215v-.56071587c0-.03619576.0300429-.06553821.06710268-.06553821.03705979 0 .06710268.02934245.06710268.06553821z"/>
      <path fill="rgb(255,255,255)" fill-rule="evenodd" d="M62.80784657 22.3703785v.5097417l-.1267495.0582562v-.5679979c-.00215061-.01666778.00317069-.03343093.01459817-.04598712.01142748-.0125562.02784854-.01968292.04504865-.0195511.01779674 0 .03486457.0069049.04744876.0191957.0125842.0122908.01965392.0289607.01965392.04634252z"/>
      <path fill="rgb(255,255,255)" fill-rule="evenodd" d="M63.37449142 22.05725146v.51702372l-.1267495.08010227v-.58256194c-.00021253-.03353272.0255255-.06181293.05964682-.06553822.03194024-.00077805.06001257.02054694.06710268.05097417z"/>
      <path fill="rgb(255,255,255)" fill-rule="evenodd" d="M63.94859212 21.62761203v.48789562l-.13420536.10923037v-.597126c0-.03619575.03004289-.0655382.06710268-.0655382.03705978 0 .06710268.02934245.06710268.0655382z"/>
      <path fill="rgb(255,255,255)" fill-rule="evenodd" d="M64.37357575 21.16156248v.4514855c-.04473512.0582562-.08201439.11651239-.13420536.17476858v-.62625408c0-.03619576.0300429-.06553822.06710268-.06553822.03705979 0 .06710268.02934246.06710268.06553822z"/>
      <path fill="rgb(255,255,255)" fill-rule="evenodd" d="M64.64944232 20.67366685v.36410121c-.03241413.11027055-.07483197.21749825-.1267495.32040907v-.68451028c0-.01738181.00706972-.03405172.01965391-.04634252.0125842-.0122908.02965203-.0191957.04744876-.0191957.03412131.00372529.05985935.0320055.05964683.06553822z"/>
      <path fill="rgb(255,255,255)" fill-rule="evenodd" d="M64.73891256 20.10566896v.37866526c-.001106.1801196-.02872682.35914783-.08201439.53158777v-.85199684c.00381421-.03332579.0327695-.05846376.06710268-.05825619h.0149117z"/>
      <path fill="rgb(34,34,34)" fill-rule="evenodd" d="M62.53198 12.37944123l-.30568998.58256194-1.78194892-1.00491935c-.10146237-.06169675-.1568036-.17548828-.14166121-.29128097.01554561-.3252547.19034606-.6233461.46971875-.80102267.1033788-.06008121.2321346-.06008121.3355134 0l1.78194892 1.00491935-.35788096.5097417z"/>
      <path fill="rgb(87,87,86)" fill-rule="evenodd" d="M63.0091546 12.13913443c0-.298563-.21621973-.41507538-.4771746-.2694349-.27667975.18014736-.4506285.47678632-.46971875.80102267 0 .29128097.21621974.40779336.46971875.26215287.27925606-.17540211.45641857-.47009736.4771746-.79374064z"/>
      <path fill="rgb(60,60,59)" fill-rule="evenodd" d="M53.72661734 18.20506063l.51445387.87384291 1.19293652-.67722825c.15250282-.10283472.23540916-.2787425.21621974-.45876753-.03220749-.50322445-.30946583-.96086667-.74558532-1.2306621-.14905853-.1075443-.34631843-.12708961-.51445387-.05097417l-1.19293652.66994623.52936558.87384291z"/>
      <path fill="rgb(87,87,86)" fill-rule="evenodd" d="M52.99594372 17.78270322c0-.4514855.32805754-.6335361.74558533-.40779335.4361195.26979543.71337783.72743765.74558532 1.2306621 0 .45876752-.32805754.64081813-.74558532.41507538-.43817376-.2712716-.71571597-.7320931-.74558533-1.23794413z"/>
      <path fill="rgb(34,34,34)" fill-rule="evenodd" d="M53.31654541 17.96475383c0-.24758882.18639633-.34953716.41007193-.22574275.23809424.15258718.38759524.40676225.40261607.68451028 0 .25487085-.17894047.35681919-.40261607.23302477-.2403087-.15493285-.39215953-.41110556-.41007193-.6917923z"/>
      <path fill="rgb(17,17,17)" fill-rule="evenodd" d="M59.10974337 17.5933706h-4.33930658v1.70399367c.0740125.75603246.55798753 1.41501993 1.26749505 1.72583975 1.92014502.94631319 4.18619877.94631319 6.1063438 0 .71156801-.30835187 1.19653657-.96869213 1.26749504-1.72583975v-1.70399368h-4.30202731z"/>
      <ellipse cx="59.11" cy="17.593" fill="rgb(17,17,17)" rx="4.317" ry="2.439"/>
      <path fill="rgb(255,93,23)" fill-rule="evenodd" d="M52.9661203 12.2483648l3.60117712-2.04624882 2.56481351.40051133-3.60863296 2.05353084-2.55735766-.40779336z"/>
      <path fill="rgb(29,29,27)" fill-rule="evenodd" d="M65.79018786 19.0352114l-3.60863296 2.08265893c.22042966-.15428158.36393029-.39228062.39516022-.65538218l3.60117711-2.04624882c-.03832868.2490013-.17817353.47226434-.38770437.61897207z"/>
      <path fill="rgb(249,115,57)" fill-rule="evenodd" d="M55.52347797 12.65615815l3.60863296-2.05353084 4.98796581 2.81814339-3.60863296 2.04624881-4.98796581-2.81086136z"/>
      <path fill="rgb(255,93,23)" fill-rule="evenodd" d="M62.58417097 17.12003902l3.60863297-2.04624882-.00745586 3.30603901-3.60863296 2.04624882.00745585-3.30603901z"/>
      <path fill="rgb(255,93,23)" fill-rule="evenodd" d="M60.51144378 15.46701951l3.60863296-2.04624881 2.0727272 1.6530195-3.60863297 2.04624882-2.0727272-1.6530195z"/>
      <path fill="rgb(60,60,59)" fill-rule="evenodd" d="M62.57671512 19.19541593v1.2306621c-.13420536.60440801-.46971875.84471481-1.0363636.68451028l-7.19489836-4.05608751-1.3867887-1.76224987v-1.52194307l9.61805066 5.42510807z"/>
      <path fill="rgb(232,70,0)" fill-rule="evenodd" d="M62.58417097 17.12003902l-.00745585 2.0753769-9.61805066-5.42510806.00745585-1.52194307 2.55735766.40779336 4.9879658 2.81086136 2.0727272 1.6530195z"/>
      <path fill="rgb(34,34,34)" fill-rule="evenodd" d="M65.48449788 18.54003375l-1.0214519 1.73312177-1.02145188-.57527992c-.3021841-.2074236-.46499013-.55892003-.42498364-.91753505.05550431-.9979679.59214529-1.91114198 1.44643553-2.4613242.29953619-.21269772.6939719-.24898841 1.02890774-.09466632l1.02890775.57527992-1.0363636 1.7404038z"/>
      <path fill="rgb(87,87,86)" fill-rule="evenodd" d="M66.93838926 17.717165c0-.902971-.65611508-1.26707221-1.45389138-.81558671-.87290046.53553803-1.428037 1.44913467-1.49117064 2.45404217 0 .902971.64865923 1.27435425 1.49117064.81558672.85598063-.5462504 1.39555612-1.4570069 1.45389138-2.45404217z"/>
      <path fill="rgb(34,34,34)" fill-rule="evenodd" d="M66.51340563 19.11531366l-.85742312 1.45640485-.84996727-.4806136c-.25178903-.17878707-.38336399-.47770638-.34296925-.7791766.045649-.82734617.49124908-1.58423515 1.20039237-2.03896678.25089984-.17368798.5773608-.20418665.85742312-.08010227l.84996727.4806136-.85742312 1.4418408z"/>
      <path fill="rgb(87,87,86)" fill-rule="evenodd" d="M67.713798 18.4380854c0-.72820242-.53682144-1.05589351-1.20039237-.68451027-.7128827.4522816-1.16169816 1.20992633-1.20784823 2.03896679 0 .72820242.53682144 1.05589351 1.20784823.68451028.70914328-.45473164 1.15474336-1.21162061 1.20039237-2.0389668z"/>
      <path fill="rgb(60,60,59)" fill-rule="evenodd" d="M66.84891902 18.27788087c-.11888267-.01035138-.23769322.02059277-.3355134.0873843-.3934288.25181102-.64214336.67016621-.67102678 1.12871375-.0065907.1180303.0246858.23512832.08947023.33497312.15141041.16269666.40645045.18185773.58155656.04369214.39262296-.25491882.63868788-.676168.66357093-1.13599578 0-.27671692-.1267495-.44420348-.32805754-.45876753z"/>
      <path fill="rgb(34,34,34)" fill-rule="evenodd" d="M66.84891902 18.27788087c-.11888267-.01035138-.23769322.02059277-.3355134.0873843-.3934288.25181102-.64214336.67016621-.67102678 1.12871375-.0065907.1180303.0246858.23512832.08947023.33497312.12045882.00292488.23932384-.02736045.34296925-.0873843.3954608-.25331388.64444682-.6748277.6710268-1.13599578.00542262-.11666353-.0286403-.23182465-.0969261-.32769109z"/>
      <path fill="rgb(255,255,255)" fill-rule="evenodd" d="M66.41647953 19.4575688c-.02369542.03659607-.0540129.06867427-.08947023.09466632-.04205514.03698798-.09358725.0621533-.14911707.07282024-.0576813.01026846-.11673602-.0089575-.15657292-.05097417-.02855581-.02434505-.04709983-.05798102-.05219097-.09466632-.0227179-.10797864-.00131193-.2203532.05964683-.31312704h.04473512c.04473512 0 0 0 0 .04369215-.00280696.02176006-.00280696.04377815 0 .06553822 0 .05825619.06710267.1237944.1267495.13107643h.0969261c.0241572-.0182157.05785718-.0182157.08201438 0 .01899574.01134458.03245252.02974484.03727926.05097417z"/>
      <path fill="rgb(255,255,255)" fill-rule="evenodd" d="M66.69980196 18.39439326c.02822382-.01814177.0630006-.0237432.09569417-.0154133.03269356.00832992.06023701.02980977.07579045.05910545.03183126.05670167.03183126.12534893 0 .1820506-.03183126.05670167 0-.05097417-.05964682-.08010226-.03098943-.02674932-.07050902-.0421886-.1118378-.04369215-.04132879-.00150355-.04473512 0-.04473512-.0582562 0-.05825619.04473512-.0291281.04473512-.04369214z"/>
      <path fill="rgb(34,34,34)" fill-rule="evenodd" d="M55.00156824 15.70004429l.43243949.72820242 1.01399604-.56799789c.12744166-.08699304.19607018-.23501427.17894047-.38594728-.02241672-.42422612-.25279967-.81189689-.61883581-1.04132947-.12373062-.09413507-.29159906-.1110959-.4324395-.04369215l-1.00654018.5679979.4324395.74276647z"/>
      <path fill="rgb(87,87,86)" fill-rule="evenodd" d="M54.38273242 15.35050712c0-.37866526.27586657-.5388698.61883582-.34225514.35788819.22347346.587159.59848121.61883582 1.01220137 0 .38594729-.27586657.5388698-.61883582.34953717-.35731274-.22740728-.58601844-.60418194-.61883582-1.0194834z"/>
      <path fill="rgb(60,60,59)" fill-rule="evenodd" d="M54.658599 15.51071166c0-.21846073.15657291-.30584502.34296924-.19661466.20471202.12797918.33270326.345383.34296925.58256194 0 .2111787-.15657292.298563-.34296925.18933263-.20262709-.12651375-.33033138-.34071872-.34296925-.57527991z"/>
      <path fill="rgb(252,175,117)" fill-rule="evenodd" d="M49.59607465 24.24914076c.88937467.2510462 1.84227308.17327332 2.6766513-.21846073l1.31968603-.72820242c.39516022.21846072.94689336-.15292251 1.49117065-.5388698.32060169-.37138323.32805754-.6917923 0-.94666315.1118378-.4514855.08201438-.83015077-.30568999-1.00491935.07456332-.18324454.06985257-.38818886-.0130553-.56798066-.0829079-.1797918-.23692447-.31905928-.42684004-.38596451.06339062-.41874713-.1870546-.82234742-.59646825-.9612272l-2.68410717.35681918c-1.10757875.5926479-2.09341137 1.3802086-2.90778276 2.32296574l-1.32714187 1.94430047.84251141 1.11414971 1.93106599-.38594728z"/>
      <path fill="rgb(32,162,106)" fill-rule="evenodd" d="M34.3488548 14.1999473c-1.71484625 4.94449446-1.67011113 17.52055034 1.21530407 18.2560348 3.48188346 1.25250816 9.60313896-4.20901003 14.03191578-8.20684134-.74558532-1.10686769-1.75958136-2.14819715-1.20784822-3.08757828l-8.44748171 4.3255224 1.49117064-5.89843964c-.43989534-5.51249236-4.90595142-8.2869436-7.08306056-5.38869795z"/>
    </g>
  </g>
</svg>
