<svg xmlns="http://www.w3.org/2000/svg" width="93" height="100" viewBox="0 0 93 100">
  <g>
    <ellipse cx="46.5" cy="53.5" fill="rgb(213,227,220)" rx="46.5" ry="46.5"/>
    <g>
      <g opacity=".4">
        <path fill="rgb(32,162,106)" fill-rule="evenodd" d="M53.35122846 50.94922454c-11.99131954.7707415-20.43637539 6.69581678-18.82818604 13.26317664 1.60818935 6.56735986 12.56861828 11.2399802 24.55993781 10.43712448 11.99131954-.80285573 20.38689264-6.66370255 18.81993892-13.2150053-1.56695372-6.55130274-12.56861828-11.24800876-24.55169069-10.48529582z"/>
      </g>
      <path fill="rgb(32,162,106)" fill-rule="evenodd" d="M54.25016507 35.55045167c3.00195345-2.93845197 4.89879216-9.36932636 5.6080449-11.05532339.37936774-1.70205414-3.76068893-3.34790839-4.29675205-2.40856718-.71749986.89116986-3.90913718 7.01695907-6.37502751 9.63426874-.2968965.85905563.70100561 2.94648053 1.94632146 3.62087934.63502862.24085672-.60204011 3.35593694 3.1174132.20874249z"/>
      <path fill="rgb(250,211,190)" fill-rule="evenodd" d="M56.07277966 11.48886548s.08247125-.86708419.09071837-.90722698c.00824713-.04014278.35462637-1.14808369.35462637-1.14808369l.55255737-.4495992s-.69275849.48171343-.71749986.52988478l-.38761487 1.00356966s-.14020112.89919841-.14020112.9393412v.69045593l.24741374-.6583417z"/>
      <path fill="rgb(53,53,53)" fill-rule="evenodd" d="M61.56536481 22.82518837c-.02933643-.11111372-.00944243-.22911213.0548387-.32526786.06428114-.09615573.16705235-.1616476.28329342-.18053125.25687346-.08033811.53578524.03166388.65977.26494239 1.7648847 4.33542093 9.2615212 22.88138827 11.02640592 27.20878065-.0313862.19468434-.15394667.36410596-.33166112.45847211-.17771445.09436615-.39039035.10295464-.57552261.02324132l-11.1171243-27.44963736z"/>
      <path fill="rgb(53,53,53)" fill-rule="evenodd" d="M55.82536592 22.82518837c.03779095-.11337855.0218694-.2372429-.04345434-.3380603-.06532374-.1008174-.17329286-.16815971-.29467778-.18379593-.2545386-.07939018-.53062609.03288106-.65152287.2649424-1.76488472 4.33542093-9.2615212 22.88138826-11.02640593 27.20878064.02899037.1941837.14980159.363912.32638253.4585365.17658094.09462447.3885131.10320347.57255408.02317694l11.1171243-27.43358025z"/>
      <path fill="rgb(53,53,53)" fill-rule="evenodd" d="M59.90769272 23.5156443c-.03479924-.11330243-.01757826-.23571858.04723066-.33574143.06480893-.10002286.17087578-.16788299.29090146-.1861148.2589414-.07908303.53854645.0365998.65976999.27297095 1.76488471 4.32739238 9.25327408 22.8733597 11.0181588 27.20075209-.02899037.1941837-.14980158.363912-.32638252.45853649-.17658095.09462448-.38851311.10320348-.57255409.02317694L59.90769272 23.5156443z"/>
      <path fill="rgb(53,53,53)" fill-rule="evenodd" d="M57.49128514 23.5156443c.03479923-.11330243.01757825-.23571858-.04723067-.33574143-.06480892-.10002286-.17087577-.16788299-.29090145-.1861148-.25911355-.08274888-.54113809.03393498-.65977.27297095-1.76488471 4.32739238-9.2615212 22.8733597-11.02640592 27.20075209.03138619.19468435.15394667.36410596.33166112.45847211.17771445.09436615.39039035.10295464.57552261.02324132l11.1171243-27.43358025z"/>
      <path fill="rgb(88,89,91)" fill-rule="evenodd" d="M58.95927336 26.06872551c2.07827546 0 3.77718318-1.08385523 3.77718318-2.40856718 0-1.32471196-1.69890772-2.4085672-3.77718318-2.4085672-2.07827546 0-3.77718318 1.08385524-3.77718318 2.4085672 0 1.32471195 1.69890772 2.40856718 3.77718318 2.40856718z"/>
      <path fill="rgb(53,53,53)" fill-rule="evenodd" d="M69.1609668 43.99649393c-.03779095-.11337854-.0218694-.2372429.04345434-.3380603.06532374-.10081739.17329286-.1681597.29467778-.18379592.25680664-.08188025.5360671.03512254.65152287.27297095l5.30290128 12.99020569 2.72979832 8.02855729-3.57925218-7.43444405-5.4431024-13.33543366z"/>
      <path fill="rgb(53,53,53)" fill-rule="evenodd" d="M48.23801105 43.99649393c.03479924-.11330242.01757826-.23571857-.04723067-.33574143-.06480892-.10002285-.17087577-.16788298-.29090145-.18611479-.2589414-.07908303-.53854646.0365998-.65976999.27297095L41.9454548 56.72175723l-2.73804545 8.0285573 3.56275793-7.41838694 5.46784378-13.33543366z"/>
      <path fill="rgb(230,230,230)" fill-rule="evenodd" d="M75.69268969 57.43629883l2.4906317 7.34612992-3.30709706-6.87244504.81646536-.47368488z"/>
      <path fill="rgb(230,230,230)" fill-rule="evenodd" d="M41.70628817 57.43629883l-2.49887883 7.34612992 3.30709706-6.87244504-.80821823-.47368488z"/>
      <path fill="rgb(53,53,53)" fill-rule="evenodd" d="M57.8459115 50.02594046c0-.2247996.461839-.40945643 1.03089061-.40945643.56905162 0 1.0308906.18465682 1.0308906.40945643l.18143675 15.34257297-.90718373 9.69046865-1.17109173-9.63426875-.1649425-15.39877287z"/>
      <path fill="rgb(230,230,230)" fill-rule="evenodd" d="M59.91593984 67.06253902l-.72574698 7.99644306-.98140786-7.99644306h1.70715484z"/>
      <path fill="rgb(53,53,53)" fill-rule="evenodd" d="M56.56760715 25.53081217c.03319046-.25696963.25764865-.44972477.52369243-.44972477s.49050197.19275514.52369243.44972477l.15669537 30.94205979c-.04501657.24498868-.2639161.42335042-.51956886.42335042-.25565278 0-.4745523-.17836174-.51956887-.42335042l-.1649425-30.94205979z"/>
      <path fill="rgb(53,53,53)" fill-rule="evenodd" d="M59.91593984 25.53081217c.05381196-.23960189.2717537-.4103922.52369243-.4103922s.46988047.17079031.52369243.4103922l.15669537 30.94205979c-.0260774.25442617-.25801181.44079055-.51956886.41748498-.26321506.02349758-.49756046-.16186187-.527816-.41748498l-.15669537-30.94205979z"/>
      <rect width="4.404" height="1.084" x="56.708" y="53.502" fill="rgb(230,230,230)" rx="0" ry="0"/>
      <path fill="rgb(230,230,230)" fill-rule="evenodd" d="M69.92794941 48.2516293l2.48238459-1.36485474.42060336 1.02765533-2.4576432 1.36485474-.44534475-1.02765533z"/>
      <path fill="rgb(230,230,230)" fill-rule="evenodd" d="M47.46278131 48.2516293l-2.47413745-1.36485474-.42060337 1.02765533 2.4576432 1.36485474.43709762-1.02765533z"/>
      <path fill="rgb(147,149,152)" fill-rule="evenodd" d="M59.5695606 19.82250794c2.5895972.1685997 4.4122118 1.46922599 4.07407968 2.9143663-.33813212 1.4451403-2.72979833 2.47279564-5.30290128 2.30419594-2.57310296-.1685997-4.4122118-1.47725454-4.07407968-2.9143663.33813212-1.43711175 2.71330408-2.47279564 5.30290128-2.30419594z"/>
      <path fill="rgb(88,89,91)" fill-rule="evenodd" d="M59.5695606 19.23642326c2.5895972.1685997 4.4122118 1.47725454 4.07407968 2.9143663-.33813212 1.43711175-2.72979833 2.47279564-5.30290128 2.30419594-2.57310296-.1685997-4.4122118-1.46922599-4.07407968-2.93845197.33813212-1.46922598 2.71330408-2.40856719 5.30290128-2.28011027z"/>
      <path fill="rgb(204,65,18)" fill-rule="evenodd" d="M59.61079622 18.52188166c2.77103395.17662826 4.72560254 1.60571146 4.36272905 3.11508023-.3628735 1.50936877-2.90298795 2.6494239-5.6740219 2.46476709-2.77103395-.18465682-4.71735541-1.60571146-4.35448192-3.11508023.3628735-1.50936877 2.90298795-2.64139535 5.66577477-2.46476709z"/>
      <path fill="rgb(249,115,57)" fill-rule="evenodd" d="M59.61079622 17.8956542c2.77103395.18465681 4.72560254 1.60571145 4.36272905 3.12310878-.3628735 1.51739733-2.90298795 2.64139535-5.6740219 2.46476708-2.77103395-.17662826-4.71735541-1.60571145-4.35448192-3.12310878.3628735-1.51739733 2.90298795-2.64139535 5.66577477-2.46476709z"/>
      <path fill="rgb(249,115,57)" fill-rule="evenodd" d="M60.22933059 23.23464479l-5.7729874-3.2515657.68451136-3.28367993V8.12489997c2.20742965.49310808 4.21589526 1.6103862 5.7729874 3.21142292v8.57449918l-.68451136 3.32382272z"/>
      <path fill="rgb(179,50,7)" fill-rule="evenodd" d="M60.22933059 23.23464479l3.1504017-1.69402559V9.9634396l-2.52362021 1.41302608v8.58252774l-.6267815 3.27565137z"/>
      <path fill="rgb(249,146,110)" fill-rule="evenodd" d="M55.14085455 8.12489997c2.2061699.4962445 4.21375913 1.6130351 5.7729874 3.21142292l2.47413746-1.3728833c-1.64942497-1.60571145-3.42255682-3.00268042-5.7729874-3.21142291l-2.47413746 1.3728833z"/>
      <path fill="rgb(88,89,91)" fill-rule="evenodd" d="M58.09332525 12.13115006c-.9319251-.52988478-1.74839047-.04817134-1.81436747 1.0918838-.03252112 1.19877313.55629704 2.33313176 1.56695372 3.01873753.94017224.53791334 1.74839047.04817135 1.8226146-1.08385523.03347337-1.20309804-.5589295-2.3414068-1.57520085-3.0267661z"/>
      <path fill="rgb(34,34,34)" fill-rule="evenodd" d="M57.944877 12.2194642c-.9319251-.53791335-1.74839047-.04817135-1.81436746 1.08385522-.03252113 1.19877315.55629703 2.33313178 1.56695372 3.01873754.94017223.53791334 1.74839047.04817135 1.82261459-1.08385523.03369796-1.2009482-.5590739-2.3369447-1.57520085-3.01873754z"/>
      <path fill="rgb(81,81,81)" fill-rule="evenodd" d="M57.88714713 13.16683395c-.50307462-.28902806-.94017223 0-.97316073.58608468-.01510563.63514336.29370162 1.23638968.82471248 1.60571146.50307462.28902806.94017224 0 .98140786-.58608468.01322463-.63662738-.29882652-1.23817409-.83295961-1.60571146z"/>
      <path fill="rgb(60,60,59)" fill-rule="evenodd" d="M57.88714713 13.16683395c-.20412729-.13489394-.47213695-.13489394-.67626424 0-.10121069.1448919-.15838096.31464003-.1649425.489742-.01510562.63514336.29370163 1.23638967.82471249 1.60571145.20412728.13489394.47213695.13489394.67626424 0 .10245888-.1442915.159752-.3144044.1649425-.489742.01510562-.63514335-.29370163-1.23638967-.8247125-1.60571145z"/>
      <path fill="rgb(136,136,137)" fill-rule="evenodd" d="M57.20263577 13.13471972c-.09018438.13063004-.13893864.28418408-.14020113.44157065.03836687.56089351.30925697 1.08251948.75048837 1.44514031.263908.14451404.46183899.1525426.60204011 0 .61028724-.5057991-.45359187-2.38448151-1.21232735-1.88671096z"/>
      <path fill="rgb(249,146,110)" fill-rule="evenodd" d="M60.23757771 23.23464479l-5.7729874-3.26762282.65977-3.25959426 5.73175177 3.2515657-.61853437 3.27565138z"/>
      <path fill="rgb(204,65,18)" fill-rule="evenodd" d="M59.81697434 22.50404608l-4.73384966-2.68153814.4288505-2.28813882 4.70910828 2.66548101-.40410912 2.30419595z"/>
      <path fill="rgb(60,132,118)" fill-rule="evenodd" d="M59.84171572 22.33544637l-4.5441658-2.56913833.40410912-2.12756768 4.51942442 2.56110977-.37936774 2.13559624z"/>
      <g opacity=".4">
        <path fill="rgb(32,162,106)" fill-rule="evenodd" d="M33.83853106 72.0482731C23.37292962 72.71464335 16 77.90109136 17.34428136 83.6254527c1.34428134 5.72436135 10.96867605 9.81892557 21.4425246 9.14452675 10.47384857-.6743988 17.83853107-5.85281826 16.49424972-11.56915105-1.34428136-5.71633279-10.9851703-9.81892556-21.44252462-9.1525553z"/>
      </g>
      <path fill="rgb(32,162,106)" fill-rule="evenodd" d="M38.39094398 13.8894041c-4.79982667-4.97770551-8.08218236.57805613-9.76459583 2.71365237-.70100561.89919842-5.18744153 6.34256026-6.53172288 11.60126528-.65977 3.15522301 5.39361965 2.27208171 7.15025724.21677105 2.07002834-1.73416838 6.1358609-5.6199901 7.0347975-6.36664593 1.54221235-1.19625504 4.8410623-5.35504771 2.11126397-8.16504276z"/>
      <path fill="rgb(32,162,106)" fill-rule="evenodd" d="M24.7914351 30.50048913c4.17304517.80285573 11.76040003-1.1079409 13.59950888-1.46119742.82471248-.95539832.25566087-4.77699159-.86594811-4.68867746-1.1628446-.09634269-8.17290073.66637026-11.7768943.1123998-.90718373.2247996-2.14425246 2.18376759-2.05353408 3.572708.18143674.62622747-3.85965443 1.40499752 1.0968676 2.46476708z"/>
      <path fill="rgb(34,34,34)" fill-rule="evenodd" d="M25.03884884 82.75033996c.03331412-.35124744.1582182-.68839401.3628735-.97948399l10.43261293-4.58430621c1.38551698.67439881.87419524 2.54505266 0 3.49242242-.56924788.53605758-1.28503003.90118722-2.06178121 1.051741-3.45554531.53791334-4.99775766 2.56110978-6.44100451 2.5771669-1.44324685.0160571-1.99580422-.4335421-2.18548809-1.04371245-.04743533-.16876431-.0832524-.34042135-.10721262-.51382767z"/>
      <path fill="rgb(34,34,34)" fill-rule="evenodd" d="M31.8262326 77.63614897c1.72364909-.07225702 1.40201122-.95539832 3.04318906-.94736976.72336509.05172429 1.3379107.53481023 1.54221235 1.21231215.1941078.8806412-.04705852 1.79893784-.65152286 2.4808242-.49208614.58206287-1.16253797.99561653-1.91333297 1.18019792-3.45554531.53791334-5.2781599 2.40856719-6.39152176 2.40856719-1.43499972 0-1.99580421-.4335421-2.18548809-1.04371245-.37112061-1.22836927.28864937-2.56913833.34637925-3.4603082.11545975-1.60571145.17318962-2.31222449-.17318962-3.2114229.72574698-.89116987 3.35657981-2.23193893 4.79982666-1.60571146-.07422412 2.99465186 1.13810323 2.89028062 1.58344797 2.9866233z"/>
      <path fill="rgb(34,34,34)" fill-rule="evenodd" d="M37.45901887 87.83241672c.02674854-.35263992.15225103-.69140175.3628735-.97948399l10.43261293-4.57627765c1.38551698.67439881.86594811 2.5370241 0 3.49242242-.56547926.52324965-1.27183675.87959616-2.03703984 1.02765533-3.44729819.5459419-4.99775766 2.56110978-6.4410045 2.58519545-1.44324686.02408567-1.9875571-.4335421-2.17724097-1.051741-.0626851-.16126993-.10962614-.32792958-.14020112-.49777056z"/>
      <path fill="rgb(34,34,34)" fill-rule="evenodd" d="M44.24640262 82.72625429c1.71540197-.08028558 1.3937641-.95539832 3.04318907-.94736976.7226746.0422412 1.33845768.52567945 1.53396523 1.20428359.197663.87939834-.040558 1.79810926-.64327574 2.4808242-.49145951.58656515-1.16614968 1.00094701-1.9215801 1.18019792-3.44729818.5459419-5.26991277 2.40856719-6.39152175 2.40856719-1.4267526 0-1.9875571-.4335421-2.17724097-1.051741-.37112061-1.22836927.28040225-2.56913834.34637925-3.4603082.11545975-1.60571145.17318962-2.3122245-.17318962-3.21142291.72574698-.89919842 3.34833269-2.23996748 4.79982666-1.60571146-.08247125 3.00268043 1.1298561 2.89830918 1.58344797 3.00268043z"/>
      <path fill="rgb(20,57,41)" fill-rule="evenodd" d="M24.67597535 75.64506676c1.08037335 2.0874249 7.94198123-.36931364 7.64508473-3.46833675.25566087-5.36307627 3.45554532-5.6199901 4.51942442-9.80286845.6927585-8.83141301 1.08862048-18.20876792-1.0308906-19.07585211-2.61433858-.89919842-5.8389644-1.40499753-8.45330298-2.30419594-.64327574 9.28101222 1.24531586 15.10171626.82471249 19.79842227-2.54011446 4.98573407-4.32974055 12.90992012-3.50502806 14.85283098z"/>
      <path fill="rgb(27,76,54)" fill-rule="evenodd" d="M36.60131788 80.36585844c.25566087.39339931.93192511 1.22034071 1.38551698 1.34076907 1.36902272.35325652 3.25761432-.32917085 4.70086116-1.50134021.86594811-1.32471195 2.07002834-2.58519545 1.78137897-4.23907825-.90718373-7.45050116.10721263-2.56110977.82471249-8.55844207.05377512-.96807203.05377512-1.9382657 0-2.90633773.95666648-9.7948399-.64327574-18.61822435-1.86385022-20.00716476-2.61433858-.89919842-8.4285616.24888527-11.0511473-.65031314-.329885 1.29259772-2.6555742 5.31490492 1.84735597 7.37824414.98965498 4.81713437 2.7875282 10.43712448 3.69471193 15.84034353-1.86385022 4.56022054-1.9215801 12.38003534-1.31953998 13.30331942z"/>
      <path fill="rgb(69,196,138)" fill-rule="evenodd" d="M42.77016727 16.47459955c1.57498506 1.04304328 2.85654221 2.45348577 3.72770044 4.10259278.9319251 1.79036827.18143674 5.26673358.04123562 5.71633279.20617812 3.7975076-2.9524707 23.5879013-2.7875282 27.88317945-3.50502806 2.49688132-19.37249628-1.39696896-18.81993891-6.35058881.7669826-4.3434495 2.79577532-13.37557644 2.89474082-16.94025588 0-1.7100827.30514362-15.57540113 3.14215457-18.18468225.65152286-.6021418 3.48028669-.16057115 4.25551642.08028557 2.7875282.84299852 7.11726875 3.48439386 7.54611924 3.69313635z"/>
      <path fill="rgb(20,57,41)" fill-rule="evenodd" d="M28.23873328 12.33989255c4.3132463-.8831413 8.56876272.20071393 10.86146343 2.11151057.98965499.80285573 3.1174132 1.92685375 2.11126397 3.31579416-1.45149398 1.9910822-11.45525642.25691383-12.61810103-2.031225-.3628735-.73059871-.62678149-3.37199406-.35462637-3.39607973z"/>
      <path fill="rgb(230,231,232)" fill-rule="evenodd" d="M37.12088675 13.97771824c-1.89683872-1.19625504-2.83701095.9955411-1.46798822 2.15165335.92367798.80285573 4.79982666 2.63336679 5.7729874 1.15611225.82471248-1.26851205.23916661-1.44514031-.6267815-2.00713932-1.48448247-.98751255-2.3256892-1.34879763-3.67821768-1.30062628z"/>
      <path fill="rgb(255,203,166)" fill-rule="evenodd" d="M47.60298244 4.92150562c-.21442525.73059871.09071837 1.81445394.065977 2.57716689.04907681.392647-.07025616.78762627-.329885 1.09188379-.43026152.57570893-.63765723 1.28093451-.58554586 1.9910822-.1001786.86973817-.42974042 1.69946493-.95666649 2.4085672-.36287349.59411323-.6680171 1.31668339-1.3607756 1.5575401-1.73189622.58608469-3.24936719-.40142786-4.60189566-1.29259772-1.35252848-.89116986-.41235625-3.3639655-.55255737-4.67262034-.25566087-2.32025306 1.17109173-5.21856224 3.85965443-5.53167597 1.4057883-.15861724 2.82694554.1225806 4.05758543.80285573.34637924.24085672.40410912 1.06779812.40410912 1.06779812z"/>
      <path fill="rgb(255,203,166)" fill-rule="evenodd" d="M44.28763825 11.69760797c-.33221993 1.77234604-.7952591 3.51907039-1.38551698 5.2265908-.263908.34522795-2.47413745.80285572-3.62873493.52185622-1.89683872-.44157066-3.81841881-1.99108221-2.77103396-3.3479084.56905162-.73862726 2.86999945-3.5325652 3.1833902-6.9928734.0989655-1.09188378 4.6101428 4.59233478 4.60189567 4.59233478z"/>
      <path fill="rgb(34,34,34)" fill-rule="evenodd" d="M40.56818494.93131265C43.26499476 0 48.11430418 1.4451403 49.14519478 3.50045098c.58554587 1.17216936-1.08862048 2.40856718-1.08862048 2.40856718-.6680171.49777056-1.2947986-.1123998-2.07827546 1.60571146-.20617812.44157065-.82471248.80285573-1.0308906 1.2042836-3.75244181 7.01695906-6.68841826 2.85816639-6.74614814 2.51293842-.42885049-2.88225206-1.33603422-2.4808242-1.43499972-4.16682123-.15669537-2.54505266.00824713-4.81713437 3.80192456-6.13381776z"/>
      <path fill="rgb(255,203,166)" fill-rule="evenodd" d="M43.35571314 10.34078179c.10721262.87511274.09071837 1.66191135.47833324 1.60571145.6540727-.25733428 1.0255099-.93320957.88244236-1.60571145-.10721262-.87511275-.07422412-1.68599703-.45359187-1.79036828-.72574699-.16057114-1.01439636.92328409-.90718373 1.79036828z"/>
      <path fill="rgb(34,34,34)" fill-rule="evenodd" d="M44.58453474 9.17664098c.2309195.7145416-.62678149 2.63336679-1.0638791 3.77342192-.18143675.489742-.51956887 1.01962678-.66801712 1.50936877-.27215512.89116986-.82471248 1.01962678 1.45149398 2.02319644s3.02669482-3.38002262 1.94632146-4.2471068c-.65430955-.33734874-1.04718054-1.0144893-1.00614923-1.73416838 0-.47368488-.69275849-2.39251007-.65976999-1.32471195z"/>
      <path fill="rgb(32,162,106)" fill-rule="evenodd" d="M32.73341633 16.0330289c-2.94422358-.89919841-4.6761198-1.52542588-4.49468305-3.69313635-.54431024 1.8224825-2.2597122 9.87512546 4.46169455 10.74220965 4.39571754-.65031314 8.57700984-5.74041846 10.96867605-5.29081925.11545975 0 .89893661.14451403.88244236.12845691-1.87209734-2.32025305-6.72965388-.3371994-11.81812991-1.88671096z"/>
      <path fill="rgb(32,162,106)" fill-rule="evenodd" d="M42.66295465 19.10796634c-4.33798767 1.541483-1.5587066 6.73595957-.15669537 9.0401555.57729874.94736977 2.8864937 5.61999011 7.42241237 8.759156 2.76278682 1.77431117 5.41836102-2.57716688 4.12356242-4.9215056-.88244236-2.520967-4.53591867-7.00090196-4.88229791-8.0847572-.62678149-1.79839683-3.51327519-5.8447897-6.50698151-4.7930487z"/>
      <path fill="rgb(255,203,166)" fill-rule="evenodd" d="M58.29125625 19.52545132c.21442524-.53791334-.1649425-.90722697-.44534475-1.42105464-.28040224-.51382766.15669538-1.67796847-.42885049-2.40856718-.2968965-.3773422-.57729874.26494239-.56080449.97948399.01649425.7145416-.3628735 1.19625503-.329885 1.78233971 0 .34522797.197931 1.52542589.66801712 1.6538828.82471249.19268538.83295961-.20071393 1.0968676-.58608468z"/>
      <path fill="rgb(255,203,166)" fill-rule="evenodd" d="M59.48708935 22.632503c-.395862.40945641-2.51537308.17662825-2.39991333-.62622748.10721262-.95539831-.64327574-2.54505266-.43709762-3.17128012.04948275-.3211423.58554587-.80285573.66801711-1.10794091.0705594-.35907806.28782572-.67489179.60204012-.87511274.28864937-.25691384 1.0968676-1.01962678 1.38551697-1.22836927.54431024-.3211423 1.58344798-1.2042836 1.7896261-.9955411.12529818.1265938.19100405.29813501.18143674.47368488.197931-.1123998.44534475-.39339931.63502862-.1525426.13927929.24973465.0958649.55858554-.10721263.76271295l.22267238-.13648547c.42060336.04817134.18143674.74665582 0 .95539831-.18143675.2087425-.74224124.80285573-.89068949.97145544-.3628735.49777055-1.21232735 1.60571145-.25566087.53791333.40410912-.47368488 1.10511473-1.05976956 1.20408023-.70651304.14844825.61017036-.42060337.87511275-.78347686 1.39696897-.42896862.61466638-.73144669 1.3044702-.89068949 2.031225.0532328.73862535-.29790893 1.44976564-.92367798 1.87065384z"/>
      <path fill="rgb(20,57,41)" fill-rule="evenodd" d="M59.31389973 23.75650101c.21308381-.26203566.37773054-.55815211.48658037-.87511274-.50146681-1.12240164-1.73311725-1.75854247-2.96896495-1.53345444l-.63502862 1.09188379c.34637925 1.2203407 1.46798823 1.69402559 3.1174132 1.3166834z"/>
    </g>
  </g>
</svg>
