<svg xmlns="http://www.w3.org/2000/svg" width="105.658" height="115" viewBox="0 0 105.658 115">
  <g>
    <ellipse cx="52.688" cy="68.5" fill="rgb(213,227,220)" rx="46.5" ry="46.5"/>
    <g transform="matrix(-1 0 0 1 121.22255862 0)">
      <g opacity=".5">
        <path fill="rgb(77,77,77)" fill-rule="evenodd" d="M90.38926393 27.41400146l5.97918701 3.35644532c.0571289.03710937.13153076.03710937.18865967 0 .05255127-.03552246.08416748-.09362793.08483887-.1558838v-8.25354003c-.00219727-.06188965-.03344727-.11938477-.08483887-.15594482l-5.98864746-3.35644532c-.05633545-.027771-.12286377-.027771-.17919922 0-.05615234.0335083-.0914917.09191895-.09429932.1558838v8.25360107c.00280762.06396484.03814698.12243652.09429932.15588378zm.27349854-.29345703V19.2612915l5.65856933 3.19140625v7.82250977l-5.65856933-3.15466309z"/>
        <path fill="rgb(77,77,77)" fill-rule="evenodd" d="M91.01170045 27.05633545l4.7154541 2.65948486h.17919922c.05615235-.0335083.0914917-.09191894.09429932-.15594482v-6.85961914c-.0024414-.06170655-.03833008-.11749268-.09429932-.14672852l-4.7154541-2.65032959c-.05413818-.03546142-.12506103-.03546142-.17919922 0-.05737304.02770996-.09387207.08447266-.09429931.14672852v6.85968017c.00042724.06225586.03692627.11901856.09429931.14672852zm.28289795-.27514649v-6.41943359l4.3571167 2.44854736v6.4194336l-4.3571167-2.44854737z"/>
        <path fill="rgb(77,77,77)" fill-rule="evenodd" d="M91.01170045 23.63568115l4.7154541 2.6503296c.02764893.00842284.05725098.00842284.0848999 0 .03063966.00976562.06365968.00976562.09429932 0 .05615235-.0335083.0914917-.09191895.09429932-.15594483v-3.42980957c-.0024414-.06170655-.03833008-.11749268-.09429932-.14672852l-4.7154541-2.65032959c-.05413818-.03546142-.12506103-.03546142-.17919922 0-.05737304.02770996-.09387207.08447266-.09429931.14672852v3.4298706c.00280761.06396485.03814697.1223755.09429931.1558838zm.28289795-.2567749v-3.01715088l4.3571167 2.44854736v3.01715088l-4.3571167-2.44854736z"/>
        <path fill="rgb(77,77,77)" fill-rule="evenodd" d="M72.6591614 17.42712402l5.979187 3.33813477.0848999.01831055h.09429932c.053833-.03442383.08581543-.09320069.0848999-.1558838v-8.25354003c.00091553-.0626831-.0310669-.12145996-.0848999-.15594483l-5.98864746-3.3564453c-.05633545-.027771-.12286377-.027771-.17919922 0-.05523681.03320312-.08770752.09283446-.08483887.15588378v8.25360107c.00280762.06396485.03814698.12243653.09429932.1558838zm.32061767-.27508545V9.29278564l5.65856933 3.15472413v7.85919189l-5.65856933-3.15466309z"/>
        <path fill="rgb(77,77,77)" fill-rule="evenodd" d="M73.30039674 17.05114746l4.71551514 2.6503296c.02227783.0239868.05212402.04010009.08483887.0458374.03076172.0092163.06359863.0092163.09429931 0 .05743408-.02764893.09387207-.08441163.09436035-.14672852V12.7409668c-.00048828-.0623169-.03692627-.11901856-.09436035-.14672852l-4.7154541-2.65948486c-.05627441-.027771-.12286377-.027771-.17919922 0-.0560913.0335083-.09143066.09191894-.09429931.15588379v6.80462646c-.00091553.06500244.03546142.12512207.09429931.1558838zm.26409912-.28430176v-6.4194336l4.3571167 2.49438478v6.41949462l-4.3571167-2.4944458z"/>
        <path fill="rgb(77,77,77)" fill-rule="evenodd" d="M73.30039674 13.6213379l4.7154541 2.65948485.0848999.04589844h.09429932c.05615235-.0335083.0914917-.09191894.09429932-.15594482V12.7409668c-.00042725-.0623169-.03692627-.11901856-.09429932-.14672852l-4.7154541-2.65948486c-.05633545-.027771-.12286377-.027771-.17919922 0-.05615234.0335083-.0914917.09191894-.09429931.15588379v3.38397217c.00042724.06231689.03692627.11907958.09429931.14672851zm.26409912-.24761964v-3.02630615l4.3571167 2.49438477v2.98046875l-4.3571167-2.44854737z"/>
        <path fill="rgb(77,77,77)" fill-rule="evenodd" d="M90.3892029 39.43670654l5.97924804 3.38391114.09429932-.02746582h.09429931c.0513916-.03656006.08270264-.09405518.0848999-.15594483V34.383667c-.00219726-.06188965-.0335083-.11938476-.0848999-.15588379l-5.98864746-3.35650634c-.05413818-.03546143-.125-.03546143-.17919922 0-.05883789.03082275-.09521484.09094238-.09429931.15594482v8.25354004c.00286865.06402588.038208.12243652.09429931.15594482zm.27355957-.22924804v-7.85925293l5.65856933 3.15472412v7.8591919l-5.65856933-3.1546631z"/>
        <path fill="rgb(77,77,77)" fill-rule="evenodd" d="M91.01163942 39.10656738l4.71551513 2.65026856h.08483887c.03076172.0092163.06359863.0092163.09429932 0 .05743408-.02764893.09387207-.08441162.09436035-.14672852v-6.85961914c-.00048828-.0623169-.03692627-.11901855-.09436035-.14672851l-4.7154541-2.65948487c-.05627442-.027771-.12286377-.027771-.17919922 0-.05609131.0335083-.09143067.09191895-.09429932.1558838v6.85046386c-.00091553.06500244.03546143.12512207.09429932.15594482zm.28295898-.28430175v-6.4194336l4.3571167 2.44854736v6.4194336l-4.3571167-2.44854736z"/>
        <path fill="rgb(77,77,77)" fill-rule="evenodd" d="M91.01170045 35.67675781l4.7154541 2.65948487h.17919922c.05615235-.0335083.0914917-.09191895.09429932-.15594483v-3.42980957c-.00042725-.0623169-.03692627-.11901855-.09429932-.14672851l-4.7154541-2.65948487c-.05633545-.027771-.12286377-.027771-.17919922 0-.05615234.0335083-.0914917.09191895-.09429931.1558838v3.4298706c.00042724.06225586.03692627.11901855.09429931.14672851zm.28289795-.24761963v-3.02630615l4.3571167 2.44854736v3.02630616l-4.3571167-2.44854737z"/>
        <path fill="rgb(77,77,77)" fill-rule="evenodd" d="M72.6591614 29.44989014l5.979187 3.36560058.0848999.00921631h.09429932c.053833-.03448486.08581543-.09326172.08483887-.15594482v-8.25354004c.00286865-.06311035-.02960205-.1227417-.08483887-.1558838l-5.98864746-3.35650634c-.05413818-.03546142-.12506103-.03546142-.17919922 0-.05535889.02862549-.08850097.0859375-.0848999.14672852v8.25360107c.00048828.0623169.03692627.11901856.09436035.14672852zm.32061767-.24761963v-7.85925293l5.65856933 3.15472412v7.8591919l-5.65856933-3.1546631z"/>
        <path fill="rgb(77,77,77)" fill-rule="evenodd" d="M73.30039674 29.1013794l4.7154541 2.65026855c.02770996.00793457.05718995.00793457.0848999 0 .03070069.0092163.06359864.0092163.09429932 0 .05889893-.03076172.09527588-.09088135.09429932-.15588379v-6.85046387c-.00280762-.06396484-.03814697-.12243652-.09429932-.15588379l-4.7154541-2.65032959c-.05633545-.027771-.12286377-.027771-.17919922 0-.05615234.0335083-.0914917.09191895-.09429931.1558838v6.85046386c.00280761.06402588.03814697.12243652.09429931.15594482zm.26409912-.28430176v-6.4194336l4.3571167 2.44854737V31.265625l-4.3571167-2.44854736z"/>
        <path fill="rgb(77,77,77)" fill-rule="evenodd" d="M73.30039674 25.67156982l4.71551514 2.65026856c.02770996.00793457.0571289.00793457.08483887 0 .03076172.0092163.06359863.0092163.09429931 0 .05743408-.02764893.09387207-.08441162.09436035-.14672852V24.7453003c-.00286865-.06396484-.038208-.12243652-.09436035-.15588379l-4.7154541-2.65032959c-.05627441-.027771-.12286377-.027771-.17919922 0-.0560913.0335083-.09143066.09191895-.09429931.1558838V25.515625c-.00091553.06500244.03546142.12512207.09429931.15594482zm.26409912-.2567749v-3.01715088l4.3571167 2.44854737v3.01715088l-4.3571167-2.44854737z"/>
      </g>
      <g opacity=".5">
        <path fill="rgb(255,255,255)" fill-rule="evenodd" d="M103.90377043 49.3318202L66.63276156 28.43193448l37.27100887 20.8998857z"/>
        <rect width=".358" height="41.846" x="85.093" y="17.947" fill="rgb(77,77,77)" rx="0" ry="0" transform="rotate(-60.010021 85.27205054 38.86968654)"/>
      </g>
      <g opacity=".5">
        <rect width=".358" height="41.846" x="86.652" y="-9.125" fill="rgb(77,77,77)" rx="0" ry="0" transform="rotate(-60.000021 86.8316835 11.79819346)"/>
      </g>
      <g opacity=".5">
        <rect width=".358" height="41.846" x="85.089" y="21.885" fill="rgb(77,77,77)" rx="0" ry="0" transform="rotate(-60.010021 85.26792291 42.8078812)"/>
      </g>
      <g opacity=".5">
        <path fill="rgb(77,77,77)" fill-rule="evenodd" d="M15.56431276 30.77960205c.00280762.06402588.03814697.12243652.09429931.15594483.02764893.00842285.05725098.00842285.0848999 0 .03063966.00976562.06365967.00976562.09429932 0L68.29258424 1.47943115c.05236817-.03149414.08441162-.08691406.0848999-.14672851V.17718506c.01593018-.04138184.01593018-.0869751 0-.12835693-.05023193-.03948975-.11547851-.05615235-.17919921-.04589844L41.97092897 1.74536133c-.05419922.01367187-.10119629.04632568-.13208008.09173584L15.61149293 29.51403809c-.03070068.03253173-.04754638.07513427-.04718017.1192627v1.14630126zM42.06522829 2.09381104L68.02854616.36975098v.86206054L15.9227112 30.47692872v-.77947999l26.14251709-27.6036377z"/>
        <path fill="rgb(255,255,255)" fill-rule="evenodd" d="M17.31846363 60.03395561l49.31429793-27.68615838V2.21307831l-24.6524335 1.64154433L17.31846362 29.8992367V60.0339556z"/>
        <path fill="rgb(77,77,77)" fill-rule="evenodd" d="M17.13932497 60.03393555c-.00286866.06311035.02960205.1227417.08483886.15594482.04516602.01885986.09631348.01885986.1414795 0 .02770996.00787354.05718994.00787354.0848999 0l49.27655029-27.68615723c.05615234-.0335083.0914917-.09191894.09429932-.15594482v-30.180542c.00079345-.0507202-.02386475-.09857177-.065979-.12841796-.0413208-.0211792-.09075929-.0211792-.13208009 0L41.97092897 3.6712036c-.05175781.00073243-.10040283.02435303-.13201904.06420899L17.1864441 29.7800293c-.0324707.03137207-.04968262.07476806-.04711914.11920166v30.13470459zm24.92584228-56.0142212l24.42608643-1.62322997V32.2468872L17.5447815 59.73132324V29.97259521L42.06516725 4.01971436z"/>
        <path fill="rgb(77,77,77)" fill-rule="evenodd" d="M17.13932497 60.03399658c-.00286866.06304932.02960205.12268067.08483886.1558838.04516602.01885985.09631348.01885985.1414795 0 .02770996.00787353.05718994.00787353.0848999 0l49.27655029-27.68615724c.05615234-.0335083.0914917-.09191894.09429932-.15588378v-3.9342041c.00097656-.06500245-.0354004-.12512208-.09429932-.15594483-.05413818-.03546143-.125-.03546143-.17919922 0L17.22416383 55.94384766c-.053833.03448486-.08581543.09326172-.08483886.15594482v3.9342041zm.39605712-3.80584717l48.95593262-27.51190185v3.53070068L17.5353821 59.7588501V56.2281494z"/>
        <path fill="rgb(255,255,255)" fill-rule="evenodd" d="M38.99072537 47.87368863l5.97920537-3.35645378V30.8713244l-5.97920537 3.35645379v13.64591045z"/>
        <path fill="rgb(77,77,77)" fill-rule="evenodd" d="M38.80210573 47.87365723c.00280761.06396484.03814697.12243652.09429931.15588379h.17919922l5.97918701-3.36560059c.05743409-.02770996.09387207-.08441162.09429932-.14672852V30.87127686c.00097656-.06500245-.0354004-.12506104-.09429932-.1558838-.05627441-.02777099-.12286377-.02777099-.17919922 0l-5.979187 3.35644532c-.05615235.0335083-.0914917.09191894-.09429932.15594482v13.64587403zm.33953857-13.53582764l5.65856934-3.15472412V44.4163208l-5.65856934 3.15472412V34.3378296z"/>
        <path fill="rgb(255,255,255)" fill-rule="evenodd" d="M40.65056787 11.4662528l2.65008945-1.48564347V8.4857952c0-.81618685-.59414817-1.15550048-1.32032927-.74282174-.78528847.49659565-1.27940626 1.32806563-1.32976018 2.23763586v1.48564347z"/>
        <path fill="rgb(77,77,77)" fill-rule="evenodd" d="M40.47141725 11.46624756c-.00097656.0626831.03100586.12145996.08483887.15594482h.18865967l2.65008544-1.47650146c.0553589-.02856446.08850098-.08587647.08483887-.14672852v-1.494812c.15222168-.41375733-.01879883-.87432862-.40771484-1.0980835-.38891602-.22375489-.88641358-.14782715-1.1860962.18103027-.84124755.5289917-1.36810302 1.42041015-1.41461181 2.39355469v1.4855957zm2.3482666-3.65911865c.21905518.15679931.33435059.41607666.30175781.6786499v1.3939209l-2.291687 1.28393554V9.98059082c.04595947-.84606934.50512695-1.61975098 1.23547363-2.08172607.2168579-.15875245.50408935-.19366455.75445556-.09173584z"/>
        <rect width="56.953" height=".348" x="13.502" y="28.172" fill="rgb(77,77,77)" rx="0" ry="0" transform="rotate(-30.00001 41.97848095 28.34604708)"/>
        <path fill="rgb(77,77,77)" fill-rule="evenodd" d="M54.28770143 32.3569336c.00042725.06231689.03692627.11907958.09429932.1467285.03076172.00921632.06359863.00921632.09429931 0 .02770996.00793458.05718994.00793458.0848999 0l5.97918702-3.3564453c.05596924-.0291748.0918579-.08502198.09429931-.14672852v-8.25360107c-.00042724-.06225586-.03686523-.11901856-.09429931-.14672852-.05413819-.03546142-.125-.03546142-.17919922 0l-5.97918701 3.35650635c-.05596924.0291748-.09179688.08502197-.09429932.14672851v8.25354004zm.33007812-8.1618042l5.65856934-3.15472413v7.85925293l-5.65856934 3.14550782v-7.85003663z"/>
        <path fill="rgb(77,77,77)" fill-rule="evenodd" d="M54.91953737 31.29315186c-.00091553.06500244.03546142.12512207.09429931.15588378.02770996.00793457.05718995.00793457.0848999 0 .03076172.00921631.06359864.00921631.09429932 0L59.90849 28.7987671c.05383301-.03448486.08587647-.09326172.0848999-.15594482V21.7923584c.00286866-.06304932-.02960204-.12268067-.0848999-.1558838-.05627441-.02777099-.12286377-.02777099-.17913818 0l-4.71551514 2.6503296c-.0560913.03344726-.09143066.09191894-.09429931.15588379v6.85046387zm.35839843-6.74957276l4.36651612-2.44854736v6.4194336L55.2779358 30.9630127v-6.4194336z"/>
        <path fill="rgb(77,77,77)" fill-rule="evenodd" d="M54.91953737 27.87249756c.00042724.0623169.03692627.11907959.09429931.14672851.02770996.00793457.05718995.00793457.0848999 0 .03070069.00921631.06359864.00921631.09429932 0l4.7154541-2.65026855c.05523682-.03320313.08770752-.09283447.0848999-.15594482v-3.4206543c.00280762-.06304932-.02966308-.12268067-.0848999-.1558838-.05633545-.02777099-.12286377-.02777099-.17919921 0l-4.7154541 2.6503296c-.05615235.03344726-.0914917.09191894-.09429932.15588379v3.42980957zm.35839843-3.32891846l4.36651612-2.44854736v3.01715088l-4.36651612 2.44854736V24.5435791z"/>
        <path fill="rgb(77,77,77)" fill-rule="evenodd" d="M54.28770143 18.60101318c.00042725.06225586.03692627.11901856.09429932.14672852.0326538.00341797.06555175-.00299072.09429931-.01837158.02770996.00793457.05718994.00793457.0848999 0l5.97918702-3.35644532c.05596924-.0291748.0918579-.08502197.09429931-.14672851V6.9725952c-.00042724-.06225585-.03686523-.11901855-.09429931-.14672851-.05413819-.03546143-.125-.03546143-.17919922 0l-5.97918701 3.3748169c-.05596924.02923583-.09179688.08502197-.09429932.1467285v8.25360108zm.33007812-8.16186523l5.65856934-3.15472412v7.85003662l-5.65856934 3.15472412v-7.85003662z"/>
        <path fill="rgb(77,77,77)" fill-rule="evenodd" d="M54.91953737 17.53723145c-.00091553.06500244.03546142.12512207.09429931.15588378.02770996.00793457.05718995.00793457.0848999 0 .03076172.00921631.06359864.00921631.09429932 0l4.7154541-2.65026855c.05383301-.03448486.08587647-.09326172.0848999-.15594482V8.03643799c.00286866-.06304932-.02960204-.12268067-.0848999-.1558838-.05627441-.02777099-.12286377-.02777099-.17913818 0l-4.71551514 2.6503296c-.0560913.03344726-.09143066.09191894-.09429931.15588379v6.85046387zm.35839843-6.7496338l4.36651612-2.44854736v6.4194336l-4.36651612 2.44854736v-6.4194336z"/>
        <path fill="rgb(77,77,77)" fill-rule="evenodd" d="M54.91953737 14.11657715c.00042724.0623169.03692627.11907959.09429931.14672851h.0848999c.03070069.00921631.06359864.00921631.09429932 0l4.7154541-2.65026855c.05523682-.03320313.08770752-.09283447.0848999-.15594482v-3.4206543c.00280762-.06304932-.02966308-.12268067-.0848999-.1558838-.05633545-.02777099-.12286377-.02777099-.17919921 0l-4.7154541 2.6503296c-.05615235.03344726-.0914917.09191894-.09429932.15588379v3.42980957zm.35839843-3.3289795l4.36651612-2.44854736v3.01715088l-4.36651612 2.44854737v-3.01715088z"/>
        <rect width="36.177" height=".348" x="30.505" y="20.82" fill="rgb(77,77,77)" rx="0" ry="0" transform="rotate(-89.750032 48.59384337 20.9947386)"/>
        <path fill="rgb(77,77,77)" fill-rule="evenodd" d="M23.31651002 49.7444458c.00286866.06402588.03820801.12243652.09429932.15594483h.17919922l5.97924805-3.3748169c.05737304-.02770996.09381103-.08441162.09429931-.14672852v-8.25360107c-.00250244-.06170654-.03839111-.11749268-.09429931-.14672851-.05419922-.03546143-.12506104-.03546143-.17919922 0l-5.97924805 3.35650634c-.0588379.03076172-.09521484.09088135-.09429932.1558838v8.25354003zm.32067871-8.1618042l5.65856934-3.15472412v7.85925293l-5.65856934 3.15466309v-7.8591919z"/>
        <path fill="rgb(77,77,77)" fill-rule="evenodd" d="M23.96726686 48.68988037c-.0014038.06030274.03112793.11657715.0848999.14672852.05706787.03704834.13153076.03704834.18859863 0l4.7154541-2.6503296c.05383301-.03448486.08581544-.09326171.0848999-.15588378v-6.85046387c.00091554-.0626831-.03106689-.12145996-.0848999-.15594482-.0595703-.0279541-.12902831-.0279541-.18859863 0l-4.7154541 2.65032959c-.053833.03448486-.08581543.09326172-.0848999.15588379v6.85968017zm.33953857-6.75878906l4.38537598-2.44854736-.01885986 6.41943359-4.36651612 2.44854736v-6.4194336z"/>
        <path fill="rgb(77,77,77)" fill-rule="evenodd" d="M23.96720582 45.26000977c-.00360107.06085205.02954102.11816406.0848999.14678955.05706788.03704834.13153077.03704834.18859864 0l4.71551514-2.6503296c.05371093-.03015136.08624267-.08642577.08483886-.1467285v-3.42980958c.00097657-.0626831-.0310669-.12145996-.08483886-.15594482-.05963135-.0279541-.12908936-.0279541-.18865967 0l-4.7154541 2.65032959c-.05383301.03448486-.08581543.09326172-.0848999.15588379v3.42980957zm.33959961-3.32891846l4.38537598-2.44854736-.01885986 3.0079956-4.36651612 2.44854736v-3.0079956z"/>
        <path fill="rgb(77,77,77)" fill-rule="evenodd" d="M23.31651002 35.9885254c.00286866.06402587.03820801.12243651.09429932.15594481h.17919922l5.97924805-3.37481689c.05737304-.02770996.09381103-.08441162.09429931-.14672852v-8.25360107c-.00250244-.06170654-.03839111-.11749268-.09429931-.14672852-.05419922-.03546142-.12506104-.03546142-.17919922 0l-5.97924805 3.35650635c-.0588379.03076172-.09521484.09088135-.09429932.1558838v8.25354003zm.32067871-8.1618042l5.65856934-3.15472413V32.53125l-5.65856934 3.15466309v-7.8591919z"/>
        <path fill="rgb(77,77,77)" fill-rule="evenodd" d="M23.96726686 34.92474365c-.00286865.06311035.02960205.1227417.08483887.15594483.0571289.03704834.13153076.03704834.18865966 0l4.7154541-2.6503296c.05383301-.03448486.08581544-.09326171.08483887-.15588378v-6.85046387c.00097657-.0626831-.03100586-.12145996-.08483886-.15594482-.05957032-.0279541-.12902832-.0279541-.18865967 0l-4.7154541 2.65032959c-.05383301.03448486-.08581543.09326171-.08483887.15588379v6.85046386zm.33953857-6.74957275l4.38537598-2.44854736-.01885986 6.41943359-4.36651612 2.44854736v-6.4194336z"/>
        <path fill="rgb(77,77,77)" fill-rule="evenodd" d="M23.96720582 31.50408936c-.00360107.06085205.02954102.11816406.0848999.14678955.05706788.03704834.13153077.03704834.18859864 0l4.71551514-2.6503296c.05371093-.03015136.08624267-.08642577.08483886-.1467285v-3.42980958c.00097657-.0626831-.0310669-.12145996-.08483886-.15594482-.05963135-.0279541-.12908936-.0279541-.18865967 0l-4.7154541 2.65032959c-.05383301.03448486-.08581543.09326171-.0848999.15588379v3.42980957zm.33959961-3.32891846l4.38537598-2.44854736-.01885986 3.0079956-4.36651612 2.44854736v-3.0079956z"/>
        <rect width=".358" height="34.995" x="35.182" y="10.922" fill="rgb(77,77,77)" rx="0" ry="0" transform="rotate(-.28 35.3609464 28.42006206)"/>
        <path fill="rgb(77,77,77)" fill-rule="evenodd" d="M38.80210573 27.29473877c.00048828.0623169.03692627.11907959.09429931.14672852.0286255.00500488.05810547.00177001.0848999-.00915528.03076172.00921631.06359864.00921631.09429932 0l5.97924805-3.35644531c.05737305-.02770996.09381103-.08441162.09429932-.14672852v-8.25360107c-.00048829-.06225586-.03692627-.11901856-.09429932-.14672852-.05419922-.03546142-.12506104-.03546142-.17919922 0l-5.97924805 3.35650635c-.05883789.03076172-.09521484.09088135-.09429931.15588379v8.25354004zm.33953857-8.1618042l5.65856934-3.15472412v7.8684082l-5.65856934 3.14550781v-7.85919189z"/>
        <path fill="rgb(77,77,77)" fill-rule="evenodd" d="M39.4340027 26.23095703c.00073242.06225586.03234863.12036133.0848999.15594483v.03668212c.05706787.03704834.13153076.03704834.18859863 0l4.7154541-2.65032959c.05383301-.03448486.08581544-.09326171.0848999-.15588378v-6.85046387c.00091554-.0626831-.03106689-.12145996-.0848999-.15594483-.0595703-.0279541-.12902831-.0279541-.18859863 0l-4.7154541 2.6503296c-.0425415.0281372-.0727539.07061767-.0848999.11920165v6.85046387zm.3583374-6.74957275l4.36651612-2.44854737v6.4194336l-4.36651612 2.44854736v-6.4194336z"/>
        <path fill="rgb(77,77,77)" fill-rule="evenodd" d="M39.4340027 22.78283691c.00048828.05981446.03253174.11523438.0848999.14672852.05706787.03704834.13153076.03704834.18859863 0l4.7154541-2.59527588c.05523682-.03320312.08770753-.09283447.0848999-.15594482v-3.411438c.00091554-.0626831-.03106689-.12145995-.0848999-.15594482-.0595703-.0279541-.12902831-.0279541-.18859863 0l-4.7154541 2.6503296c-.0425415.0281372-.0727539.07061767-.0848999.11920165v3.40234375zm.3583374-3.32897949l4.36651612-2.44854736v3.01715088L39.7923401 22.4710083v-3.01715088z"/>
        <path fill="rgb(255,255,255)" fill-rule="evenodd" d="M39.73576831 47.45183925l4.47968857-2.52192565V32.26526148L39.7357683 34.7780165v12.67382275z"/>
        <path fill="rgb(77,77,77)" fill-rule="evenodd" d="M39.55662233 47.45184326c-.00097656.06262207.03100586.12139893.08483887.1558838h.17919921l4.48913575-2.52191163c.05596923-.02923584.09179687-.08502197.09429931-.14672852V32.25604248c-.00280761-.06396484-.03814697-.12237549-.09429931-.15588379-.05633545-.027771-.12286377-.027771-.17919922 0l-4.48913574 2.53112793c-.05523682.0331421-.08770752.09277344-.08483887.15588379v12.66467285zm.3583374-12.60046387l4.1213379-2.2835083v12.26116944l-4.1213379 2.3201294V34.85137938z"/>
      </g>
      <g>
        <path fill="rgb(77,77,77)" fill-rule="evenodd" d="M52.83530885 51.70703125c-.0014038.06030273.03112793.11657715.0848999.14672852.0308838.0081787.06341553.0081787.09429932 0 .02770996.00787353.05718994.00787353.0848999 0l52.46417237-29.44689942c.05615234-.0335083.0914917-.09191894.09436035-.15594482v-1.14630127c.00299072-.04907227-.01800537-.09667969-.05664063-.12841797-.03704834-.03686524-.08843994-.05682373-.14141845-.05499268l-26.227417 1.75158692c-.04748535-.00146485-.0928955.0189209-.12261963.05499267L52.83530885 50.43231201c-.01623535.03814697-.01623535.08105469 0 .11920166v1.15551758zm26.49151612-28.68572998l25.96331787-1.73327637v.86206055L53.19370729 51.3585205v-.73364258l26.13311768-27.60357666z"/>
        <path fill="rgb(255,255,255)" fill-rule="evenodd" d="M54.58004158 80.96135324l49.32372885-27.68615838V23.13130529l-24.66186442 1.64154434-24.66186443 26.04461404v30.14388957z"/>
        <path fill="rgb(77,77,77)" fill-rule="evenodd" d="M54.40086061 80.96142578c.00280762.06396485.03814697.12231445.09429932.15588379h.17919921l49.32373047-27.69537353c.05535889-.02856446.08850098-.08587647.08483887-.14672852V23.0579834c-.00067139-.04840088-.0209961-.09454346-.05657959-.12841797-.04302978-.01275635-.08898926-.01275635-.13201904 0l-24.70904541 1.66906738c-.04644776.00299073-.0900879.02258301-.1225586.05499268l-24.66186523 26.0446167c-.0112915.03900146-.0112915.08026123 0 .1192627v30.1439209zm24.92590332-56.01434326l24.39782715-1.6048584v29.85040283l-48.9182129 27.5119629V50.8908081l24.52038575-25.94372559z"/>
        <path fill="rgb(77,77,77)" fill-rule="evenodd" d="M54.40086061 80.96130371c.00280762.06396484.03814697.12243652.09429932.15588379l.0848999.01843262h.09429931l49.32373047-27.69537354c.05535889-.02856445.08850098-.08587646.0848999-.14672851v-3.94335938c.00091553-.0626831-.03106689-.12145996-.0848999-.15594482-.0595703-.0279541-.12902832-.0279541-.18859863 0l-49.31433105 27.6953125c-.05737305.02770996-.09387207.08447265-.09429932.14672851v3.92504883zm.36779785-3.8149414l48.95593262-27.51190186v3.55822754L54.76865846 80.70458984V77.1463623z"/>
        <path fill="rgb(255,255,255)" fill-rule="evenodd" d="M76.25230332 68.79191562l5.97920537-3.35645378V51.78955138l-5.97920537 3.35645378v13.64591046z"/>
        <path fill="rgb(77,77,77)" fill-rule="evenodd" d="M76.07310182 68.79193115c.00073242.06225586.03234863.12036133.0848999.1558838.05706787.03710937.13153076.03710937.18859864 0l5.979187-3.35644532c.05615235-.03344727.0914917-.09191895.09429932-.15588379V51.78955078c-.00280761-.06396484-.03814697-.12237549-.09429931-.15588379-.05627442-.027771-.12286377-.027771-.17919922 0l-5.98858643 3.36560059c-.05236816.03149414-.08441162.08691406-.0848999.14678955v13.64587402zm.32067871-13.54504394l5.65856934-3.15472412v13.24243164l-5.65856934 3.15466308v-13.2423706z"/>
        <path fill="rgb(255,255,255)" fill-rule="evenodd" d="M77.92157675 32.38447979l2.65008944-1.48564348v-1.48564348c0-.82535748-.59414817-1.15550048-1.32976018-.74282173-.78138339.49465926-1.27217763 1.3230268-1.32032926 2.22846521v1.48564348z"/>
        <path fill="rgb(77,77,77)" fill-rule="evenodd" d="M77.71409303 32.38446045c-.00091553.06500244.03546143.12512207.09429932.15594482.0288086.01531983.06170654.02172852.09436035.01831055.02770996.00787354.0571289.00787354.08483887 0l2.65008545-1.48565674c.05615234-.03344726.0914917-.09191894.09436035-.15588379v-1.48565674c.15216064-.41375732-.01885987-.8743286-.40777588-1.0980835-.38891602-.22375487-.88635254-.14782714-1.1860962.18103028-.84454345.52288819-1.3755493 1.41192627-1.42407226 2.38433838v1.48565674zm2.3670044-3.66412354c.24768066.13983155.36773681.4241333.29248046.6928711v1.40307617l-2.291687 1.28387451v-1.20129394c.05047607-.8447876.50854491-1.61663819 1.23547363-2.08178711.20257568-.19683838.5159912-.23651123.7637329-.09674073z"/>
        <rect width="56.953" height=".348" x="50.768" y="49.102" fill="rgb(77,77,77)" rx="0" ry="0" transform="rotate(-30.00001 79.24507988 49.27592052)"/>
        <path fill="rgb(77,77,77)" fill-rule="evenodd" d="M91.55869752 53.27514648c.00280762.06402588.03814698.12243653.09429932.15594483.02246094.0020752.04510498-.0010376.06604004-.00921631.03063965.00982666.06365967.00982666.09429932 0l5.979187-3.35644531c.05615235-.03344727.0914917-.09191895.09429932-.1558838v-8.25360107c-.00280761-.06396484-.03814697-.12237548-.09429931-.15588378-.05627442-.027771-.12286377-.027771-.17919922 0l-5.96032715 3.36560058c-.05615234.0335083-.0914917.09191895-.09429932.15594483v8.25354003zm.32061768-8.1618042l5.65856934-3.15472412v7.85925293l-5.65856934 3.15466309v-7.8591919z"/>
        <path fill="rgb(77,77,77)" fill-rule="evenodd" d="M92.19053346 52.22052002c-.00091553.0626831.0310669.12145996.0848999.15594482h.17919922l4.7154541-2.65948486c.0559082-.02923584.09179688-.08502197.09429932-.14672852V42.7105713c-.00280762-.06396484-.038208-.12237549-.09429932-.15588379-.05633545-.027771-.12286377-.027771-.17919921 0l-4.7154541 2.65948486c-.05377198.03015137-.08630372.08642578-.0848999.14672852v6.85961914zm.35839844-6.75872803l4.36651611-2.44854736v6.4194336l-4.36651611 2.44854736v-6.4194336z"/>
        <path fill="rgb(77,77,77)" fill-rule="evenodd" d="M92.19053346 48.79071045c-.00091553.0626831.0310669.12145996.0848999.15594482h.17919922l4.7154541-2.65032959c.05609131-.0335083.0914917-.09191894.09429932-.15588379v-3.4298706c-.00280762-.06396484-.038208-.12237549-.09429932-.15588379-.05633545-.027771-.12286377-.027771-.17919921 0l-4.7154541 2.65948486c-.05377198.03015137-.08630372.08642578-.0848999.14672852v3.42980957zm.35839844-3.32891846l4.36651611-2.44854736v3.02630615l-4.36651611 2.44854736V45.461792z"/>
        <path fill="rgb(77,77,77)" fill-rule="evenodd" d="M91.55869752 39.51922607c.00280762.06402588.03814698.12243653.09429932.15594483.02246094.0020752.04510498-.0010376.06604004-.00921631.03076172.008667.06347656.008667.09429932 0l5.979187-3.35644531c.05615235-.03344727.0914917-.09191895.09429932-.1558838v-8.25360107c-.00280761-.06396484-.03814697-.12237548-.09429931-.15588378-.05627442-.027771-.12286377-.027771-.17919922 0l-5.96032715 3.36560058c-.05615234.0335083-.0914917.09191895-.09429932.15594483v8.25354003zm.32061768-8.1618042l5.65856934-3.15472412v7.85925293l-5.65856934 3.15466309v-7.8591919z"/>
        <path fill="rgb(77,77,77)" fill-rule="evenodd" d="M92.19053346 38.4645996c-.00360107.06085206.02954102.11816407.0848999.14672853.03076172.0092163.06359864.0092163.09429932 0h.0848999l4.7154541-2.65026856c.05596924-.02923584.09185791-.08502197.09429932-.14672852v-6.85968017c-.00280762-.06396484-.03814697-.12237549-.09429932-.15588379-.05633545-.027771-.12286377-.027771-.17919921 0l-4.7154541 2.65948486c-.05371094.03015137-.08630372.08642578-.0848999.14672852v6.85961914zm.35839844-6.75878905l4.36651611-2.44854737v6.41027832l-4.36651611 2.45770264v-6.4194336z"/>
        <path fill="rgb(77,77,77)" fill-rule="evenodd" d="M92.19053346 35.03479004c-.00091553.0626831.0310669.12145996.0848999.15594482h.17919922l4.7154541-2.65032959c.05609131-.0335083.0914917-.09191894.09429932-.15588379v-3.4298706c-.00280762-.06396484-.038208-.12237549-.09429932-.15588379-.05633545-.027771-.12286377-.027771-.17919921 0l-4.7154541 2.65948486c-.05377198.03015137-.08630372.08642578-.0848999.14672852v3.42980957zm.35839844-3.3289795l4.36651611-2.44854736v3.02630616L92.5489319 34.7321167v-3.02630615z"/>
        <rect width="36.177" height=".348" x="67.76" y="41.739" fill="rgb(77,77,77)" rx="0" ry="0" transform="rotate(-89.750032 85.84808486 41.9128769)"/>
        <path fill="rgb(77,77,77)" fill-rule="evenodd" d="M60.58756715 70.66271973v-8.29937744c-.00097656-.06268311.03100586-.12145997.08483887-.15594483l5.98864746-3.35644531c.05633545-.027771.12286377-.027771.17919922 0 .053833.03448486.08581543.09326172.0848999.15588379V67.260437c.00091553.06262207-.0310669.12145996-.0848999.1558838l-6.00750732 3.40234374c-.04803467.03118897-.10839844.02130127-.16033936 0-.05523682-.03320312-.08770752-.09283447-.08483887-.15594482zm.32061768-8.16186524l5.65856933-3.15472412v7.85925293l-5.65856933 3.15466309v-7.8591919z"/>
        <path fill="rgb(77,77,77)" fill-rule="evenodd" d="M61.20994264 69.60809326c.00286865.06402588.038208.12243653.09429932.15594483l.09436035-.00915528h.08483887l4.7154541-2.65948486c.05743408-.02770996.09387207-.08447266.09436035-.14678955v-6.85046387c-.00048828-.06225586-.03692627-.11901855-.09436035-.14672851-.05413819-.03546143-.125-.03546143-.17913819 0l-4.71551513 2.65032959c-.0588379.03082275-.09521485.09088134-.09429932.15588378v6.85046387zm.36785889-6.74957275l4.3571167-2.44854737v6.4194336l-4.3571167 2.44854736v-6.4194336z"/>
        <path fill="rgb(77,77,77)" fill-rule="evenodd" d="M61.20994264 66.1782837c.00286865.06402587.038208.12243651.09429932.15594482.03063965.00976562.0637207.00976562.09436035 0 .02758789.00842285.05725098.00842285.08483887 0l4.7154541-2.6503296c.05615234-.0335083.0914917-.09191894.09436035-.15588378v-3.4298706c-.00048828-.06225587-.03692627-.11901856-.09436035-.14672852-.05413819-.03546143-.125-.03546143-.17913819 0l-4.71551513 2.65032959c-.0588379.03082275-.09521485.09088134-.09429932.15588378v3.4206543zm.36785889-3.3197632l4.3571167-2.44854736v3.01715088l-4.3571167 2.44854737V62.8585205z"/>
        <path fill="rgb(77,77,77)" fill-rule="evenodd" d="M60.58756715 56.90673828v-8.29937744c-.00097656-.0626831.03100586-.12145996.08483887-.15594482l5.98864746-3.35644532c.05633545-.027771.12286377-.027771.17919922 0 .053833.03448487.08581543.09326172.0848999.1558838v8.25360107c.00091553.06262207-.0310669.12145996-.0848999.15588379l-6.00750732 3.40234375c-.04803467.03118896-.10839844.02130127-.16033936 0-.05523682-.03320313-.08770752-.09283448-.08483887-.15594483zm.32061768-8.1618042l5.65856933-3.15472412v7.85925293l-5.65856933 3.15466309v-7.8591919z"/>
        <path fill="rgb(77,77,77)" fill-rule="evenodd" d="M61.21000368 55.85211182c.00280761.06402588.03814697.12243652.09429931.15594482l.09429932-.00915527h.0848999l4.7154541-2.65948487c.05737305-.02770996.09387207-.08447265.09429932-.14678955V46.3421631c-.00042725-.06225586-.03692627-.11901856-.09429932-.14672852-.05413818-.03546143-.125-.03546143-.17919922 0l-4.7154541 2.65032959c-.05596924.02923584-.09179687.08502197-.09429931.14672852v6.85961914zm.36779785-6.74957276l4.3571167-2.44854736v6.4194336l-4.3571167 2.44854736v-6.4194336z"/>
        <path fill="rgb(77,77,77)" fill-rule="evenodd" d="M61.21000368 52.42230225c.00280761.06402588.03814697.12243652.09429931.15594482.03063965.00976563.06365967.00976563.09429932 0 .02764892.00842285.05725098.00842285.0848999 0l4.7154541-2.65032959c.05615235-.0335083.0914917-.09191894.09429932-.15588379v-3.4298706c-.00042725-.06225586-.03692627-.11901856-.09429932-.14672852-.05413818-.03546143-.125-.03546143-.17919922 0l-4.7154541 2.65032959c-.05596924.02923584-.09179687.08502197-.09429931.14672852v3.42980957zm.36779785-3.31976319l4.3571167-2.44854736v3.01715088l-4.3571167 2.44854736v-3.01715088z"/>
        <rect width=".358" height="34.995" x="72.439" y="31.859" fill="rgb(77,77,77)" rx="0" ry="0" transform="rotate(-.22 72.61778493 49.35685656)"/>
        <path fill="rgb(77,77,77)" fill-rule="evenodd" d="M76.07316286 48.2130127c-.00097657.0626831.03100586.12145996.08483886.15588378.06036377.0244751.1282959.0244751.18865967 0l5.97918701-3.3564453c.05615235-.03344727.0914917-.09191895.09429932-.1558838v-8.25360107c-.00280762-.06396485-.03814697-.12237549-.09429932-.15588379-.05633545-.027771-.12286377-.027771-.17919922 0l-5.98864746 3.35644531c-.053833.03448487-.08581543.09326172-.08483886.15594483v8.25354004zm.32061767-8.16186524l5.65856934-3.15472412v7.85925293l-5.65856934 3.15466309v-7.8591919z"/>
        <path fill="rgb(77,77,77)" fill-rule="evenodd" d="M76.69553834 47.1583252c.00280762.06402587.03814698.12243652.09429932.15594482h.17919922l4.7154541-2.65948486c.05737305-.02770996.09387207-.08447266.09429932-.14672852v-6.85968018c-.00042725-.06225585-.03692627-.11901855-.09429932-.14672851-.05413818-.03546143-.125-.03546143-.17919922 0l-4.7154541 2.65032959c-.05596924.02923584-.09179687.08502197-.09429932.14672851v6.85961915zm.36779786-6.74957276l4.3571167-2.45770264v6.42858887l-4.3571167 2.4486084v-6.41949463z"/>
        <path fill="rgb(77,77,77)" fill-rule="evenodd" d="M76.69553834 43.72851563c.00280762.06402587.03814698.12243652.09429932.15594482.03063965.00976562.06365967.00976562.09429932 0 .02764892.00842285.05725097.00842285.0848999 0l4.7154541-2.6503296c.05615234-.0335083.0914917-.09191894.09429932-.15588378v-3.4298706c-.00042725-.06225586-.03692627-.11901856-.09429932-.14672852-.05413818-.03546143-.125-.03546143-.17919922 0l-4.7154541 2.65032959c-.05596924.02923584-.09179687.08502197-.09429932.14672851v3.42980958zm.36779786-3.31976319l4.3571167-2.45770264v3.02630616l-4.3571167 2.44854736v-3.01715088z"/>
        <path fill="rgb(255,255,255)" fill-rule="evenodd" d="M76.99734626 68.37923687l4.4891195-2.52192565V53.18348847l-4.4891195 2.52192565v12.67382275z"/>
        <path fill="rgb(77,77,77)" fill-rule="evenodd" d="M76.81815797 68.37927246c.00250244.06170654.03833008.11749268.09429932.14672852.02581787.01409912.05535889.02044677.0848999.01831054.03070069.00921631.06359863.00921631.09429932 0l4.48913574-2.51275634c.05993652-.03771973.09277344-.10516358.08483887-.17419434V53.18353271c-.00213623-.0593872-.03381348-.1140747-.08483887-.14672851-.0571289-.03710938-.13153076-.03710938-.18865967 0l-4.4796753 2.51275635c-.05615233.03344726-.09149169.09191894-.0942993.15588379v12.67382812zm.36779785-12.57299805l4.1213379-2.31097412v12.26116944l-4.1213379 2.31097412V55.8062744z"/>
      </g>
      <rect width=".358" height="41.846" x="35.769" y="49.584" fill="rgb(77,77,77)" rx="0" ry="0" transform="rotate(-59.980021 35.9481338 70.50655066)"/>
      <rect width=".358" height="41.846" x="34.196" y="20.316" fill="rgb(77,77,77)" rx="0" ry="0" transform="rotate(-60.000021 34.37507333 41.23900037)"/>
      <rect width=".358" height="41.846" x="34.203" y="19.174" fill="rgb(77,77,77)" rx="0" ry="0" transform="rotate(-60.000021 34.38211657 40.09725585)"/>
      <rect width=".358" height="41.846" x="60.427" y="-8.535" fill="rgb(77,77,77)" rx="0" ry="0" transform="rotate(-60.010021 60.60605465 12.3878269)"/>
      <rect width=".358" height="41.846" x="86.651" y="-10.28" fill="rgb(77,77,77)" rx="0" ry="0" transform="rotate(-60.000021 86.83055932 10.64269298)"/>
      <rect width=".358" height="41.846" x="35.766" y="45.639" fill="rgb(77,77,77)" rx="0" ry="0" transform="rotate(-59.980021 35.94515502 66.56198404)"/>
      <path fill="rgb(77,77,77)" fill-rule="evenodd" d="M77.42179567 14.0982666c-.07647705.03692627-.11279297.12329102-.0848999.2017212.02557373.07946777.10302734.13220214.18859863.12841796l6.33758545-.421875c.09527588-.00488281.16992187-.08148193.16973877-.17425537v-3.13635254c.00097656-.06500244-.0354004-.12506103-.09429932-.15588379-.05627441-.027771-.12286377-.027771-.17919922 0l-6.33752441 3.55822754zm.8581543-.06427002l5.3850708-3.02630615v2.66864014l-5.3850708.35766601z"/>
      <path fill="rgb(77,77,77)" fill-rule="evenodd" d="M46.68632204 34.57629395c-.00115967.0814209.05889892.15148925.14147949.16503906l.04711914.00915527c.04980469-.00067139.097229-.02044678.13208008-.05499267l6.33758545-6.69458008c.05517578-.0670166.05517578-.16223145 0-.22924805-.05712891-.06835937-.1560669-.08758545-.23577881-.0458374l-6.33758545 3.5581665c-.05383301.03448487-.08581543.09326172-.0848999.1558838v3.13641357zm.38671875-.44940186v-2.5861206l5.215271-2.91625977-5.215271 5.50238037z"/>
      <path fill="rgb(77,77,77)" fill-rule="evenodd" d="M69.90529194 10.15485146h.08487831l6.33758046-3.55820783c.04399409-.02297811.07613121-.06276628.08866393-.1097726.01253271-.04700633.00432391-.09696586-.02264747-.13783465-.02369106-.04020493-.06287535-.06957774-.10888936-.08162422-.046014-.01204648-.0950674-.00577431-.13631464.01742975L69.8109827 9.84304975c-.08333627.0543544-.11169712.16072717-.06601646.24760724.0395616.04543054.09933711.06936468.1603257.06419447z"/>
      <g opacity=".5">
        <path fill="rgb(77,77,77)" fill-rule="evenodd" d="M69.91472287 10.15485146l6.33758045-.42184938c.09526144-.00488206.16988883-.08148135.16975662-.17424214V6.4224015h-.367806v2.97128696l-6.16782384.41267874.02829277.34848427z"/>
      </g>
      <path fill="rgb(77,77,77)" fill-rule="evenodd" d="M39.14162014 30.26606224h.35837509v-2.99879887l6.24327122-3.503184-.17918754-.30263108-6.33758046 3.55820783c-.05739167.02768652-.09386529.08443369-.09430923.14673022l.00943092 3.0996759z"/>
      <g opacity=".5">
        <path fill="rgb(77,77,77)" fill-rule="evenodd" d="M39.283084 30.47698693c.0502161.00156166.09856407-.01858704.13203292-.05502383l6.32814953-6.69456629c.03654019-.03133602.05747317-.076428.05747317-.12380362 0-.04737562-.02093298-.0924676-.05747317-.12380363-.03365274-.03304278-.0794929-.05163306-.12731746-.05163306-.04782457 0-.09366472.01859028-.12731747.05163306l-6.34701138 6.70373693c-.03398061.03272396-.05309853.07729896-.05309853.12380362s.01911792.09107966.05309853.12380362c.03735758.03568321.0895602.05260384.14146385.0458532z"/>
      </g>
      <rect width=".358" height="8.538" x="42.898" y="25.038" fill="rgb(77,77,77)" rx="0" ry="0" transform="rotate(-60.010021 43.07767073 29.30727557)"/>
      <path fill="rgb(77,77,77)" fill-rule="evenodd" d="M53.23141955 28.0559383c.06203014.00137045.1198877-.03027622.15089477-.08253575.02697138-.04086879.03518018-.09082832.02264747-.13783464-.01253272-.04700633-.04466984-.0867945-.08866393-.1097726l-7.5730314-4.26434702c-.08594117-.04811564-.19572274-.0193748-.24520401.06419447-.04948128.08356926-.0199247.19032097.06601646.2384366l7.60132418 4.27351766.06601646.01834128z"/>
      <rect width=".358" height="8.538" x="42.9" y="28.174" fill="rgb(77,77,77)" rx="0" ry="0" transform="rotate(-60.010021 43.0796562 32.44315994)"/>
      <path fill="rgb(77,77,77)" fill-rule="evenodd" d="M83.84419658 10.87016129c.0657984-.00274587.1258887-.03711755.1603257-.0917064.02386264-.04010885.03031283-.08780842.01792445-.13255249-.0123884-.04474406-.04259488-.0828469-.08394092-.1058841l-7.6107551-4.27351767c-.04124725-.02320406-.09030064-.02947623-.13631465-.01742975-.04601401.01204648-.0851983.0414193-.10888936.08162423-.04568066.08688007-.0173198.19325284.06601647.24760724l7.6107551 4.26434702.0848783.02751192z"/>
      <rect width=".358" height="8.538" x="73.528" y="7.85" fill="rgb(77,77,77)" rx="0" ry="0" transform="rotate(-60.000021 73.70677024 12.11923333)"/>
      <g opacity=".5">
        <rect width=".358" height="8.538" x="79.867" y="7.421" fill="rgb(77,77,77)" rx="0" ry="0" transform="rotate(-60.010021 80.0466195 11.6904301)"/>
      </g>
      <path fill="rgb(77,77,77)" fill-rule="evenodd" d="M41.14097291 55.02679443l5.97918702 3.39312745.0848999-.03668213c.03076172.0092163.06359863.0092163.09429931 0 .05889893-.03076172.09527588-.09088135.09429932-.1558838v-8.25354003c-.00280762-.06402588-.03814697-.12243653-.09429932-.15594483l-5.979187-3.3564453c-.05633546-.027771-.12286378-.027771-.17919923 0-.05615234.0335083-.0914917.09191894-.09429931.15588378v8.25360107c.00280762.06396485.03814697.12243653.09429931.1558838zm.26409913-.22009277v-7.85925293l5.65856933 3.15472412v7.8591919l-5.65856933-3.15466309z"/>
      <path fill="rgb(77,77,77)" fill-rule="evenodd" d="M41.77286989 54.70581055l4.7154541 2.65948486.09429931-.00915527h.09436036c.0513916-.03656006.0826416-.09399414.08483886-.1558838v-6.85046386c-.00073242-.06225586-.03234863-.12036133-.08483886-.15594482l-4.71551514-2.65026856c-.05706787-.03710937-.13153076-.03710937-.18859863 0-.05535889.02856445-.08850098.08587647-.0848999.14672852v6.86877441c-.00360108.06085205.02954101.11816406.0848999.14672852zm.26403808-.27514649v-6.4194336l4.36651612 2.43023683v6.43774414l-4.36651612-2.44854737z"/>
      <path fill="rgb(77,77,77)" fill-rule="evenodd" d="M41.77286989 51.28515625l4.7154541 2.65032959v-.00915527c.0571289.03710937.13153076.03710937.18865967 0 .05249023-.0355835.08410644-.09362793.08483886-.1558838v-3.42065429c-.00073242-.06225586-.03234863-.12036133-.08483886-.15594482l-4.71551514-2.65026856c-.05706787-.03710937-.13153076-.03710937-.18859863 0-.05535889.02856445-.08850098.08587647-.0848999.14672852v3.43896484c-.00091553.0626831.03106689.12145996.0848999.15588379zm.26403808-.2567749v-3.01715088l4.36651612 2.43023682v3.03546142l-4.36651612-2.44854736z"/>
      <path fill="rgb(77,77,77)" fill-rule="evenodd" d="M23.41080934 45.05828857l5.97918701 3.35644532c.02618408.02246093.05950928.03546142.09436035.03668213.0275879.00848388.05725098.00848388.08483887 0 .05615234-.03344727.0914917-.09191895.09429932-.1558838V40.0419922c-.00280762-.06402588-.03814698-.12243653-.09429932-.15594483l-5.97918701-3.3564453c-.05633545-.027771-.12286377-.027771-.17919922 0-.05615234.0335083-.0914917.09191894-.09429932.15588378v8.21691895c.00280762.06396484.03814698.12243652.09429932.15588378zm.27349854-.2567749v-7.85925293l5.65856933 3.15472412v7.8591919l-5.65856933-3.15466309z"/>
      <path fill="rgb(77,77,77)" fill-rule="evenodd" d="M24.05216676 44.70062256l4.7154541 2.65948486h.18859864c.053833-.03448486.08581543-.09326172.0848999-.15588379v-6.85968017c.0014038-.06030274-.03112793-.11657715-.0848999-.14672852l-4.7154541-2.65948486c-.05957032-.0279541-.12902833-.0279541-.18859864 0-.053833.03448486-.08581543.09326172-.0848999.15594482v6.85961914c-.0014038.06030274.03112793.11657715.0848999.14672852zm.25463867-.28430176v-6.4194336l4.36651612 2.44854737v6.4194336l-4.36651612-2.44854737z"/>
      <path fill="rgb(77,77,77)" fill-rule="evenodd" d="M24.05210573 41.27081299l4.7154541 2.65948486c.06036377.02441406.1282959.02441406.18865967 0 .05377197-.03448486.08581543-.09326172.08483886-.15594482v-3.42980957c.00140381-.06030274-.03112793-.11657715-.08483886-.14672852l-4.7154541-2.65948486c-.05963135-.0279541-.12908936-.0279541-.18865967 0-.05383301.03448486-.08581543.09326172-.08483887.15594482v3.42059326c-.00097656.06268311.03100586.12145997.08483887.15594483zm.2546997-.24761963V37.9968872l4.36651612 2.44854736v3.02630615l-4.36651612-2.44854736z"/>
      <path fill="rgb(77,77,77)" fill-rule="evenodd" d="M41.14103395 67.11364746l5.97918701 3.35650635c.02246094.0020752.04504395-.0010376.065979-.00921631.03063965.00982666.0637207.00982666.09436036 0 .0560913-.03344727.09143066-.09191895.09429931-.15588379v-8.25354004c-.00286865-.06402588-.038208-.12243652-.09429931-.15594482l-5.97924805-3.35644531c-.05627441-.027771-.12286377-.027771-.17919922 0-.05883789.03082275-.09521484.09088134-.09429932.15588378v8.25360108c.003479.07110596.04699707.13464355.11322022.16503906zm.26403809-.25671387v-7.85925293l5.65856933 3.15472413v7.85919189l-5.65856933-3.15466309z"/>
      <path fill="rgb(77,77,77)" fill-rule="evenodd" d="M41.77286989 66.75604248l4.7154541 2.65032959c.05706787.03704834.13153076.03704834.18859863 0 .05236817-.03149414.08441162-.08691406.0848999-.14672852v-6.85968017c-.00048828-.05981445-.03253173-.11523438-.0848999-.14672852L41.96146852 59.59375c-.05957031-.0279541-.12902832-.0279541-.18859863 0-.05383301.03448486-.08581543.09326172-.0848999.15594482v6.85961914c-.00140381.06030274.03112792.11657715.0848999.14672852zm.26403808-.28430176v-6.4194336l4.36651612 2.45770265v6.41949462l-4.36651612-2.45776367z"/>
      <path fill="rgb(77,77,77)" fill-rule="evenodd" d="M41.77280885 63.38122559l4.7154541 2.65032959h.19805909c.06292724-.0475464.09222412-.12597657.07543945-.20178223v-3.42980957c-.00048828-.05981445-.03253174-.11523438-.08483887-.14672852L41.96146852 59.59375c-.05963135-.0279541-.12908936-.0279541-.18865967 0-.053833.03448486-.08581543.09326172-.08483887.15594482v3.47564698c-.00097656.0626831.03100586.12145996.08483887.15588379zm.26409912-.2567749v-3.02630616l4.36651612 2.44854736v3.02630616l-4.36651612-2.44854737z"/>
      <path fill="rgb(77,77,77)" fill-rule="evenodd" d="M23.41080934 57.0993042l5.97924805 3.36566162h.17919922c.0560913-.0335083.09143066-.09191894.09429931-.15594482v-8.25354004c.00091553-.06500244-.03546142-.12512207-.09429931-.1558838l-5.97924805-3.35650634c-.05413818-.03546143-.125-.03546143-.17919922 0-.0588379.03082275-.09521484.09094238-.09429932.15594482v8.25354004c.00048828.0623169.03692627.1190796.09429932.14672852zm.27349854-.23840332v-7.8684082l5.65856933 3.15472412v7.8684082l-5.65856933-3.15472412z"/>
      <path fill="rgb(77,77,77)" fill-rule="evenodd" d="M24.05210573 56.7508545l4.7154541 2.65032958c.0571289.03704834.13153076.03704834.18865967 0 .05371093-.03015137.08624267-.08642578.08483886-.14672851v-6.85968018c.00366211-.06079101-.02947998-.11816406-.08483886-.14672851L24.2407654 49.588562c-.05963135-.0279541-.12908936-.0279541-.18865967 0-.05383301.03448487-.08581543.09326172-.08483887.15594483v6.85046386c-.00286865.06304932.02960205.12268067.08483887.1558838zm.2546997-.28430177v-6.41943359l4.36651612 2.44854736v6.4194336l-4.36651612-2.44854737z"/>
      <path fill="rgb(77,77,77)" fill-rule="evenodd" d="M24.05216676 53.2843628l4.7154541 2.65948486.09429932.03668213h.09429932c.053833-.03448487.08581543-.09326172.0848999-.15594483V52.3947754c.00360107-.06079101-.02954102-.11816406-.0848999-.14672851L24.2407654 49.588562c-.05957032-.0279541-.12902833-.0279541-.18859864 0-.06109619.0298462-.10076904.08953858-.10375976.15594483v3.44812011c.0182495.0444336.05651855.07824707.10375976.09173584zm.25463867-.2109375v-3.02630616l4.36651612 2.44854736v3.02630616l-4.36651612-2.44854737z"/>
    </g>
    <g>
      <g opacity=".4">
        <path fill="rgb(32,162,106)" fill-rule="evenodd" d="M22.20675858 92.52930702c10.18813328.71431052 17.36558887 6.06333345 16.03286222 11.97716005-1.33272665 5.9138266-10.67787018 10.15816-20.87403193 9.4687673C7.16942712 113.28584166 0 107.92020686 1.30864123 101.99807432c1.30864123-5.92213253 10.71801255-10.15816 20.89811735-9.4687673z"/>
      </g>
      <path fill="rgb(230,230,230)" fill-rule="evenodd" d="M15.41466973 91.3996997l.38536675-8.4803609c.01773601-.29358348-.1979322-.5464547-.48170843-.56480366-.28377624-.01834897-.5282002.2047727-.54593622.49835618l-.38536675 8.48036089c0 .2990137.38536675 2.25090871.38536675 2.25090871s.63424943-1.95189501.6422779-2.18446122z"/>
      <path fill="rgb(34,34,34)" fill-rule="evenodd" d="M15.19790094 58.92348904l2.74573805-1.0299361-1.31666971 25.07562148c-.03173835.58705984-.41779403 1.08963526-.96341686 1.25419637-.14893742.042077-.3034814.058907-.457623.04983562-.35582373-.0213809-.6887745-.18845798-.92528867-.46431648-.23651417-.2758585-.35712411-.63779234-.33518173-1.00583423l1.25244192-23.87956666z"/>
      <path fill="rgb(230,230,230)" fill-rule="evenodd" d="M5.06596698 106.36699678l2.9464499-13.23966235c.03993922-.2771822-.13175908-.53989495-.39527609-.60480545-.26351701-.0649105-.53122776.08956536-.61631162.35562736l-2.93842142 13.28949797c-.06422779.28240183 0 2.27582653 0 2.27582653s.95538839-1.85222378 1.00355923-2.07648406z"/>
      <path fill="rgb(53,53,53)" fill-rule="evenodd" d="M7.65113555 94.3815308c.5671043-.0621888 1.03412617-.48870426 1.1641287-1.06315984L16.24963101 60.493311c.17070913-.74772043-.2768024-1.49703733-.999545-1.67364614-.7227426-.17660881-1.44702832.28636863-1.61773747 1.03408905L6.1979818 92.68711981c-.165193.74523896.28367104 1.48824166 1.00355923 1.66118725.14722247.0356099.29897447.04682394.44959453.03322374z"/>
      <path fill="rgb(230,230,230)" fill-rule="evenodd" d="M37.88636795 107.6793347s-.2729681-2.15954341-.37733827-2.43363931l-4.72877108-12.7246943c-.10419908-.27523452-.40433734-.41096686-.67037756-.30316668-.26604022.10780019-.39723838.41831116-.2930393.69354568l4.73679956 12.7246943c.10437016.2740959 1.33272665 2.04326031 1.33272665 2.04326031z"/>
      <path fill="rgb(53,53,53)" fill-rule="evenodd" d="M19.9347005 56.90514653l13.64840548 35.30022898c.27712522.7339587-.07333563 1.56136817-.7827762 1.84807079-.70944058.28670261-1.50921018-.07587007-1.78633542-.80982876l-13.99362986-36.338471h2.914336z"/>
      <path fill="rgb(34,34,34)" fill-rule="evenodd" d="M11.75368567 56.69749813l4.09452165.13289498 1.18821412-.19103653 3.74929728-.99671235v1.3289498c.01502456.06553846.01502456.133804 0 .19934246l-1.76626424 3.92870784c-.24085422.53988586-1.3808975.72261645-2.04726083.32393151l-4.81708429-2.87385393c-.20027873-.09309899-.33779665-.28911614-.36128132-.51496805l-.04014237-1.33725573z"/>
      <path fill="rgb(60,60,59)" fill-rule="evenodd" d="M18.9793121 59.74577672l1.75823577-3.92870783c.24085422-.53988586-.58607858-1.03824203-1.5013246-.89704111l-6.58334853 1.0548539c-.90721754.14950685-1.21229955.83059362-.54593622 1.22097262l4.81708429 2.88215987c.6743918.39868494 1.81443508.21595435 2.0552893-.33223745z"/>
      <path fill="rgb(17,17,17)" fill-rule="evenodd" d="M18.09617999 58.35868537h.97144533v.58141554c-.0146604.17862415-.12242697.3347115-.28099658.40699088-.43298665.23199923-.94791085.23199923-1.3808975 0-.16093996-.0692315-.26989176-.22703551-.28099658-.40699088v-.58141554h.97144533z"/>
      <ellipse cx="18.096" cy="58.317" fill="rgb(17,17,17)" rx=".971" ry=".581" transform="matrix(-1 0 0 1 36.19235998 0)"/>
      <path fill="rgb(0,0,0)" fill-rule="evenodd" d="M13.3112096 56.0247173h1.00355922v.58141553c-.0161522.18053125-.12732916.33708517-.28902506.40699088-.4301664.23193325-.94270263.23193325-1.37286902 0-.1616959-.0699057-.27287286-.22645963-.28902506-.40699088v-.58141554h.94735991z"/>
      <ellipse cx="13.311" cy="56.025" fill="rgb(87,87,86)" rx=".971" ry=".581" transform="matrix(-1 0 0 1 26.62241918 0)"/>
      <path fill="rgb(0,0,0)" fill-rule="evenodd" d="M12.82147269 56.12438853v.67278083c.00234468.1320924.02123527.26331271.05619932.390379.04753976.15537791.11504792.3034413.20071184.44021463l.08831321.13289498c.06520684.08160359.13490234.15925423.20874032.23256621.02544069.03191937.05518228.05989161.08831321.08305936.09655392.08958204.1984483.17280506.305082.24917809.03224702.01438293.06206166.0340116.08831322.05814155l.11239863.0664475.20071185.10797716.08831321.04983562.29705353.13289498h.08831322l.31311047.10797717h.09634169l.3371959.08305936h.08831321l.35325285.05814156h.08831321l.3693098.04152968h1.00355923l.36128132-.04152968h.08831321l.35325285-.0664475h.08831321l.3371959-.09136529h.08831321l.31311048-.10797717.08831321-.04152968c.09905209-.0376991.1956019-.08209312.28902506-.13289498l.08831321-.04983562.12042711-.06644749.19268337-.07475343.08831321-.06644749c.09865197-.07084403.192534-.14854528.28099659-.23256621l.0883132-.08305936c.06363617-.07060155.12264299-.14552174.17662643-.22426028l.08831322-.13289498c.03564929-.05454235.06527224-.1130497.0883132-.17442466.03995552-.07865526.06965213-.16244503.08831322-.24917809.03229692-.11893363.04850804-.24192365.04817084-.3654612v-.70600457H12.8214727z"/>
      <path fill="rgb(36,36,35)" fill-rule="evenodd" d="M13.96954444 54.47150722c-1.52541002.91365298-1.52541002 2.39210963 0 3.3223745 1.74107696.91313425 3.79856998.91313425 5.53964694 0 1.52541003-.913653 1.52541003-2.39210964 0-3.3223745-1.74107696-.91313426-3.79856998-.91313426-5.53964694 0z"/>
      <path fill="rgb(255,255,255)" fill-rule="evenodd" d="M20.5127506 56.90514653v.50666211c.03995552-.07865526.06965213-.16244503.08831322-.24917808v-.29901371c-.01108501-.02522983-.03984077-.03638591-.0642278-.0249178-.02438701.0114681-.03517042.04121765-.02408541.06644748z"/>
      <path fill="rgb(255,255,255)" fill-rule="evenodd" d="M20.33612418 57.25399586v.46513242l.08831322-.13289497v-.33223745l-.04014237-.04152969c-.0237601-.00034343-.04421276.01728948-.04817085.04152969z"/>
      <path fill="rgb(255,255,255)" fill-rule="evenodd" d="M20.07118455 57.5862333v.44021463l.0883132-.08305937v-.35715525c-.00395808-.02424021-.02441073-.04187312-.04817083-.04152969l-.04014237.04152969z"/>
      <path fill="rgb(255,255,255)" fill-rule="evenodd" d="M19.70187475 57.89355295v.46513242l.08831321-.06644749v-.36546119h-.04014237c-.00711576-.02093526-.0267547-.03448036-.04817084-.03322374z"/>
      <path fill="rgb(255,255,255)" fill-rule="evenodd" d="M19.30045106 58.14273103v.42360275l.08831321-.04983562v-.37376713l-.04014237-.04152968c-.0237601-.00034344-.04421275.01728947-.04817084.04152968z"/>
      <path fill="rgb(255,255,255)" fill-rule="evenodd" d="M18.9231128 58.35868537v.41529682l.0883132-.04152969v-.37376713c.00033197-.02458125-.0167119-.04574074-.04014237-.04983561-.02660402 0-.04817084.02231216-.04817084.04983561z"/>
      <path fill="rgb(255,255,255)" fill-rule="evenodd" d="M18.5216891 58.46666255v.4152968h.08831321v-.38207306c-.00395808-.02424021-.02441074-.04187312-.04817084-.04152968l-.04014237.00830594z"/>
      <path fill="rgb(255,255,255)" fill-rule="evenodd" d="M18.09617999 58.58294565v.40699088h.08831321v-.390379c-.01490411-.00890228-.03326673-.00890228-.04817084 0l-.04014237-.01661188z"/>
      <path fill="rgb(255,255,255)" fill-rule="evenodd" d="M17.65461393 58.66600502v.40699087h.08831321v-.390379c-.01490411-.00890228-.03326673-.00890228-.04817084 0l-.04014237-.01661187z"/>
      <path fill="rgb(255,255,255)" fill-rule="evenodd" d="M17.2050194 58.71584063v.40699088h.0883132v-.39868494c-.0149041-.00890228-.03326673-.00890228-.04817084 0l-.04014237-.00830594z"/>
      <path fill="rgb(255,255,255)" fill-rule="evenodd" d="M16.72331096 58.74075844v.39868494h.08831322v-.390379c0-.02752345-.02156682-.04983562-.04817085-.04983562-.02068166.00334898-.03690526.02013327-.04014237.04152968z"/>
      <path fill="rgb(255,255,255)" fill-rule="evenodd" d="M16.28977338 58.72414657v.39868494h.08831321v-.39868494c-.01490411-.00890228-.03326673-.00890228-.04817084 0h-.04014237z"/>
      <path fill="rgb(255,255,255)" fill-rule="evenodd" d="M15.83215037 58.68261689v.390379h.08831321v-.39868494c.00033197-.02458125-.0167119-.04574074-.04014237-.04983562-.01429668-.00020714-.0279435.00616705-.03724858.01739815-.00930507.01123109-.01330668.02615832-.01092226.0407434z"/>
      <path fill="rgb(255,255,255)" fill-rule="evenodd" d="M15.39058431 58.60786346v.38207307h.08831321v-.38207307c.00033197-.02458125-.0167119-.04574074-.04014237-.04983562-.02660402 0-.04817084.02231217-.04817084.04983562z"/>
      <path fill="rgb(255,255,255)" fill-rule="evenodd" d="M14.95704672 58.4998863v.38207306h.09634169v-.40699088c0-.02752345-.02156682-.04983562-.04817084-.04983562s-.04817085.02231217-.04817085.04983562v.02491781z"/>
      <path fill="rgb(255,255,255)" fill-rule="evenodd" d="M14.55562303 58.35868537v.38207307h.08831322v-.38207307c0-.02752345-.02156683-.04983561-.04817085-.04983561-.02343046.00409487-.04047433.02525436-.04014237.04983561z"/>
      <path fill="rgb(255,255,255)" fill-rule="evenodd" d="M14.17025629 58.18426071v.37376713l.08831321.04983562v-.42360275c-.0149041-.00890227-.03326673-.00890227-.04817084 0h-.04014237z"/>
      <path fill="rgb(255,255,255)" fill-rule="evenodd" d="M13.7688326 57.9516945v.40699087c.032247.01438294.06206165.0340116.08831321.05814156v-.43190869h-.04014237c-.00711577-.02093526-.0267547-.03448036-.04817084-.03322374z"/>
      <path fill="rgb(255,255,255)" fill-rule="evenodd" d="M13.37543738 57.63606892v.35715526c.02544069.03191937.05518228.05989161.08831321.08305936v-.44021462s0-.04152968-.04817084-.04152968l-.04014237.04152968z"/>
      <path fill="rgb(255,255,255)" fill-rule="evenodd" d="M13.07838385 57.29552554v.33223745l.08831321.13289498v-.46513243l-.04014237-.04152968c-.0237601-.00034344-.04421275.01728947-.04817084.04152968z"/>
      <path fill="rgb(255,255,255)" fill-rule="evenodd" d="M12.88570048 56.93837028v.26578996c.02103413.08066224.05065302.15866137.08831321.23256621v-.49835617c0-.02752345-.02156682-.04983562-.04817084-.04983562-.02343046.00409488-.04047434.02525437-.04014237.04983562z"/>
      <path fill="rgb(255,255,255)" fill-rule="evenodd" d="M12.82147269 56.51476753v.28240183c.00234468.1320924.02123527.26331271.05619932.390379v-.62294521c.00033196-.02458125-.01671192-.04574074-.04014237-.04983562h-.01605695z"/>
      <path fill="rgb(34,34,34)" fill-rule="evenodd" d="M14.31476882 50.88334277l.23282574.41529681 1.23638497-.73922832c.10103818-.0387937.15918406-.1484888.13648405-.25748403-.0112327-.23794771-.13024261-.45649082-.32113895-.58972147-.07282423-.03987052-.1600015-.03987052-.23282574 0l-1.24441344.73922832.19268337.43190869z"/>
      <path fill="rgb(87,87,86)" fill-rule="evenodd" d="M14.02574376 50.65077655c0-.21595434.152541-.30731964.32916743-.19934247.19492268.13045296.31738736.34985512.32916742.58972148 0 .21595434-.14451252.2990137-.32916742.19103653-.1917715-.12968859-.3136329-.344935-.32916743-.58141554z"/>
      <path fill="rgb(60,60,59)" fill-rule="evenodd" d="M20.48063671 55.1110643l-.36128132.6395571-.80284738-.49005024c-.11720404-.06994758-.18805073-.20060413-.1846549-.34054338.01926086-.36800342.2071862-.70438089.50579385-.90534705.10883398-.06704656.24441887-.06704656.35325285 0l.80284738.49835617-.31311048.5980274z"/>
      <path fill="rgb(87,87,86)" fill-rule="evenodd" d="M20.98643056 54.8120506c0-.34054338-.22479726-.47343836-.50579385-.30731964-.31617623.19309578-.5203155.53473358-.54593622.91365299 0 .33223745.22479727.46513243.50579385.2990137.31395228-.19145562.5177643-.52944494.54593622-.90534705z"/>
      <path fill="rgb(34,34,34)" fill-rule="evenodd" d="M20.73754787 54.94494558c0-.19103653-.1204271-.26578996-.28099658-.17442466-.16334503.11581667-.2667815.30232193-.28099658.50666211 0 .19103654.12845558.26578996.28099658.17442466.16709912-.1121858.2717059-.30080123.28099658-.5066621z"/>
      <path fill="rgb(17,17,17)" fill-rule="evenodd" d="M16.72331096 54.67084969h3.01870616v1.25419637c-.04994938.55544738-.38398164 1.04052244-.87510365 1.27080824-1.33824852.6974881-2.9168426.6974881-4.25509112 0-.491122-.2302858-.82515426-.71536086-.87510365-1.27080824v-1.25419637h2.98659226z"/>
      <ellipse cx="16.739" cy="54.671" fill="rgb(17,17,17)" rx="3.003" ry="1.794" transform="matrix(-1 0 0 1 33.47873582 0)"/>
      <path fill="rgb(255,93,23)" fill-rule="evenodd" d="M21.01051598 50.72552998l-2.50488383-1.50337446-1.78232119.2990137 2.50488384 1.50337446 1.78232118-.2990137z"/>
      <path fill="rgb(29,29,27)" fill-rule="evenodd" d="M12.09088157 55.72570359l2.5129123 1.5116804c-.16023703-.10868906-.2659879-.28495364-.28902505-.4817443l-2.5129123-1.50337447c.02628065.19338222.13153271.36579068.28902505.47343837z"/>
      <path fill="rgb(249,115,57)" fill-rule="evenodd" d="M19.2281948 51.02454368l-2.50488384-1.50337445-3.46830068 2.07648405 2.50488383 1.50337446 3.46830069-2.07648406z"/>
      <path fill="rgb(255,93,23)" fill-rule="evenodd" d="M14.3227973 54.32200037l-2.50488384-1.5116804v2.44194525l2.5129123 1.50337446-.00802847-2.43363931z"/>
      <path fill="rgb(255,93,23)" fill-rule="evenodd" d="M15.7598941 53.10102774l-2.50488382-1.50337446-1.43709682 1.2126667 2.50488383 1.51168039 1.43709682-1.22097263z"/>
      <path fill="rgb(60,60,59)" fill-rule="evenodd" d="M14.31476882 55.8669045v.88873518c.08831321.44021462.32113895.62294522.71453417.50666211l5.00173919-2.99013704.98750228-1.30403199v-1.11299545l-6.70377564 4.0117672z"/>
      <path fill="rgb(232,70,0)" fill-rule="evenodd" d="M14.3227973 54.32200037v1.52829226l6.68771868-3.99515532v-1.12960733l-1.78232118.2990137-3.4683007 2.07648406-1.4370968 1.22097263z"/>
      <path fill="rgb(34,34,34)" fill-rule="evenodd" d="M12.30765036 55.3602424l.71453417 1.27911418.7065057-.42360275c.2108602-.15086534.32488548-.40911515.29705353-.67278084-.03542092-.73485663-.40842832-1.40786353-1.00355923-1.8106941-.20789194-.15593666-.48067533-.18447482-.71453417-.07475342l-.71453417.42360275.71453417 1.27911418z"/>
      <path fill="rgb(87,87,86)" fill-rule="evenodd" d="M11.29606266 54.76221499c0-.6644749.44959454-.9385708 1.0115877-.60633335.59319086.40471965.96558243 1.07661543 1.00355923 1.8106941 0 .6644749-.44959453.9385708-1.00355923.5980274-.59793188-.39734987-.97443087-1.06817389-1.0115877-1.80238815z"/>
      <path fill="rgb(34,34,34)" fill-rule="evenodd" d="M11.5931162 55.79215108l.59410706 1.06315984.58607859-.35715526c.17688253-.12673198.27242203-.3435452.24888268-.56480366-.02746086-.60290976-.32411174-1.15840434-.80284738-1.50337446-.17417264-.12668274-.40006289-.14878921-.59410706-.05814156l-.59410706.35715526.56199316 1.06315984z"/>
      <path fill="rgb(87,87,86)" fill-rule="evenodd" d="M10.75012644 55.28548897c0-.5481918.37733827-.77245207.80284739-.49835617.48353094.34047398.78161812.89865807.80284738 1.50337445 0 .5481918-.3693098.77245207-.80284738.49835618-.48255353-.34139439-.7803447-.89902422-.80284739-1.50337446z"/>
      <path fill="rgb(60,60,59)" fill-rule="evenodd" d="M11.35226198 55.16920586c.0849521-.00374295.16898352.01943986.24085421.0664475.2750799.18349517.44829073.49245544.46565149.83059362.00414332.08794667-.0183066.17504334-.0642278.24917808-.11356562.10768521-.28785806.10768521-.40142369 0-.27221318-.18630783-.4445074-.4936331-.46565148-.83059362-.02408542-.17442466.08831322-.2990137.22479727-.31562558z"/>
      <path fill="rgb(34,34,34)" fill-rule="evenodd" d="M11.35226198 55.16920586c.0849521-.00374295.16898352.01943986.24085421.0664475.2750799.18349517.44829073.49245544.46565149.83059362.00414332.08794667-.0183066.17504334-.0642278.24917808-.08495209.00374296-.16898352-.01943985-.2408542-.06644749-.27410795-.18445252-.44700488-.49285289-.4656515-.83059362-.00414332-.08794667.0183066-.17504335.0642278-.24917809z"/>
      <path fill="rgb(255,255,255)" fill-rule="evenodd" d="M11.65734399 56.04132917l.05619931.06644749c.03302974.0274513.07135337.04727534.11239864.05814155.03298276.01640693.0713874.01640693.10437015 0 .00624714-.0216777.00624714-.0447698 0-.06644749.02379974-.07759158.01506305-.16195217-.02408542-.23256621.00348121.01641666.00348121.03341895 0 .04983561 0 .04152968-.04817084.0913653-.0883132.0913653h-.07225627c-.0156091-.01582874-.04059022-.01582874-.05619932 0-.01387798.00721587-.02513907.01886614-.0321139.03322375z"/>
      <path fill="rgb(255,255,255)" fill-rule="evenodd" d="M11.47268909 55.26057116c-.01371808-.01756192-.03437399-.02776795-.05619932-.02776795-.02182533 0-.04248123.01020603-.05619932.02776795-.02474292.04060034-.02474292.09229465 0 .13289498l.04014237-.04983562h.04817085c.0049418-.01337118.0049418-.0281585 0-.04152968.01580733-.0070659.0254978-.02377487.02408542-.04152968z"/>
      <path fill="rgb(34,34,34)" fill-rule="evenodd" d="M19.5975046 53.2754524l-.30508201.53988586-.7065057-.41529681c-.08501068-.0696519-.13030247-.17898504-.1204271-.29070777.01680377-.31007438.17466129-.59356117.4255091-.76414614.09341184-.06004893.21167018-.06004893.30508201 0l.69847722.41529682-.29705353.51496804z"/>
      <path fill="rgb(87,87,86)" fill-rule="evenodd" d="M20.0230137 53.01796838c0-.28240183-.19268337-.39868494-.4255091-.25748402-.25611598.17043178-.4174269.4578462-.4335376.77245207 0 .28240183.19268338.390379.4335376.24917808.25084781-.17058496.40870533-.45407176.4255091-.76414613z"/>
      <path fill="rgb(60,60,59)" fill-rule="evenodd" d="M19.83033033 53.13425149c0-.1578128-.10437016-.22426028-.23282574-.14950686-.14259104.0956771-.23216765.25630918-.24085421.43190869 0 .15781279.10437016.22426028.24085421.14120091.13927944-.09391752.22602855-.2517487.23282574-.42360274z"/>
    </g>
  </g>
</svg>
