<svg xmlns="http://www.w3.org/2000/svg" width="93" height="100.056" viewBox="0 0 93 100.056">
  <g>
    <ellipse cx="46.5" cy="53.556" fill="rgb(213,227,220)" rx="46.5" ry="46.5"/>
    <g>
      <g opacity=".4">
        <path fill="rgb(32,162,106)" fill-rule="evenodd" d="M43.25806452 58.05089647c-15.90322581 1.08786817-27.12903226 9.14371955-25.00548387 18.08111928 2.12354838 8.93739973 16.64225806 15.34269251 32.48935483 14.3017152 15.84709678-1.0409773 27.12903226-9.15309772 25.01483871-18.09049745-2.11419354-8.93739973-16.59548387-15.34269251-32.49870967-14.29233703z"/>
      </g>
      <path fill="rgb(69,196,138)" fill-rule="evenodd" d="M57.43064516 11.3944813c-1.67451613.07502538-2.41354839-1.14413722-3.33032258.70336304l-2.98419355 9.27501399-2.6567742.71274121v3.8075386h.11225807c1.2713094.3407903 2.58567035.49246105 3.90096775.45015236 5.11709677.38450513 5.36032258-10.76614365 5.36032258-10.76614365l-.40225807-4.18266556z"/>
      <path fill="rgb(245,232,217)" fill-rule="evenodd" d="M57.83290323 15.60528138s-.24322581 11.15064877-5.36032258 10.76614364c-1.3152974.04230869-2.62965835-.10936205-3.90096775-.45015235l3.80741936-.93781739c.18709677-4.36085087 2.1516129-11.25380868 5.0516129-13.5514613l.40225807 4.1732874z"/>
      <path fill="rgb(252,199,170)" fill-rule="evenodd" d="M52.88419355 66.40684941c1.5440328-.31569866 2.87335058-1.29204983 3.63903226-2.67277956 1.06990619.30969965 2.21732755.19903097 3.20870967-.30947974-.00451408.05304665-.00451408.10638231 0 .15942896.87 1.14413722 1.31903226 2.28827443.46774194 3.3761426h-2.57258065l-2.55387096 1.6880713-2.75967742-.05626904c-.30870968-.94719556-.51451613-1.8287439.57064516-2.18511452z"/>
      <path fill="rgb(34,34,34)" fill-rule="evenodd" d="M60.0032258 63.94038968c1.11912461.96169841 1.49632737 2.53477608.93548388 3.90132034-.85129033 1.27543165-2.67548387.431396-3.91967742.78776661-2.86258065.81590113-2.87193549 1.51926417-4.24709678 1.48175148-2.21709677 0-3.68580645-1.0409773-3.56419354-1.80998757.10290322-.62833765 1.05709677-1.26605347 2.61935483-1.87563478l2.52580646-.647094c-.47770435.2638384-.98274706.47453572-1.50612904.62833765-.79516129.5439341-.51451613 1.1160027.22451613 1.81936574.8232258.37512696 1.87096774 0 3.18064516-.72211939l2.80645162-1.42548243c.79363381-.38571564 1.19313146-1.2898015.9448387-2.13822365z"/>
      <path fill="rgb(252,199,170)" fill-rule="evenodd" d="M70.29354839 65.70348637v.1781853c.35981028.96038623.45671012 1.99980088.28064516 3.01039383s-1.87096774 3.03852834-1.87096774 3.18857913c-.8461964.33179079-1.7153782.60134508-2.60064516.80652295l-.80451613-2.10071095c1.0664516-1.0409773 1.34709677-2.26951809 1.70258064-4.03261478 1.20402846.22797779 2.44166507-.16679798 3.29290323-1.05035548z"/>
      <path fill="rgb(34,34,34)" fill-rule="evenodd" d="M70.31225806 65.91918437c.93548388.76901026.86064517 2.32578713.66419355 3.4886807-.42096774.93781738-1.01967742 1.509886-1.72129032 2.88847756l-.6548387.93781739c-1.30967743 1.15351539-3.6483871 1.30356617-4.47161291.69398487-.5332258-.99408644.10290322-1.96003835 1.71193548-3.68562235-.60806451 1.32232252.08419355 1.96003835 1.67451613 1.78185304.75774194-.15005078 1.26290323-1.20978443 2.08612903-2.65402321.8232258-1.44423878 1.26290323-2.43832522.71096774-3.451168z"/>
      <path fill="rgb(20,57,41)" fill-rule="evenodd" d="M55.91516129 64.20297855c.93548387-2.24138357-1.54354839-11.42261582-2.1516129-16.88071303 1.24566633-6.60990194 3.05145883-13.10124407 5.39774193-19.4034418l5.61290323 6.78041972c-1.25927084 4.98441872-3.11238151 9.79878144-5.51935484 14.3392279C62.36064516 53.79320551 60.88258065 61.1644502 61.21 63.97790237c-1.64286457.86391422-3.58491994.94646827-5.29483871.22507618z"/>
      <path fill="rgb(27,76,54)" fill-rule="evenodd" d="M71.84645161 65.9098062c-.27202858.61809097-.75682936 1.1174164-1.36580645 1.40672608-1.3018204.68444115-2.88279385.54135836-4.04129032-.36574878 1.12258064-4.79224686-.52387097-11.44137216-1.91774194-15.52087781-1.1132258-3.69500052-1.53419355-8.3371966-1.96451613-12.89498912-2.14225806-2.11008913-4.32193548-4.68908695-4.04129032-8.30906208-.67354839-4.33271634 10.53354839-6.44280547 12.16129032-1.22854078 1.39387097 3.40427713.73903226 5.99265313-.31806451 8.9842906-.1683871 4.86727226 0 8.196524-.1683871 12.12597886 3.3583871 6.85544512 1.25354839 10.75676547 1.65580645 15.80222303z"/>
      <g opacity=".5">
        <path fill="rgb(22,43,53)" fill-rule="evenodd" d="M71.84645161 65.9098062c-.27202858.61809097-.75682936 1.1174164-1.36580645 1.40672608 1.37903172-5.69012092.79199647-11.68091443-1.66516129-16.99325111s-.68290322-5.3174246-2.2732258-7.79326252c-.71096775-1.07849-.10290323-2.13822365-.14032259-2.67277956-.05612903-.87217017-.83258064-.85341382-.57064516-1.46299513.20984407-.60837265.55171426-1.16249482 1.00096774-1.62242408.29792307-.2750707.47277824-.65883998.48509941-1.06468826.01232117-.40584828-.1389302-.7995673-.41961553-1.09229174-.68378061-.65252593-1.49641824-1.15410381-2.38548388-1.4723733l6.17419355-4.14515287c1.39387097 3.40427713.73903226 5.99265313-.31806451 8.9842906-.1683871 4.86727226 0 8.196524-.1683871 12.12597886 3.34903226 6.85544512 1.24419355 10.75676547 1.64645161 15.80222303z"/>
      </g>
      <path fill="rgb(69,196,138)" fill-rule="evenodd" d="M71.32258065 29.6819204c-.75820063.64755592-1.56165011 1.23989343-2.40419355 1.77247487h-.05612904c-1.62037864 1.11509302-3.54470926 1.70136536-5.51 1.67869313-2.14488527-.17603706-4.07721637-1.3675941-5.20129032-3.20733547.33283606-1.79409586.18762704-3.64446799-.42096774-5.36431548-.0149066-.03930087-.03371053-.07700253-.05612903-.11253808v-.04689087c.0045738-.0247983.0045738-.0502271 0-.0750254.00499745-.01522883.00499745-.03166203 0-.04689086-.22649282.03232105-.4564104.03232105-.68290323 0-.39624975-.06329155-.78288637-.17673576-1.15064516-.33761426-.96701842-.41309178-1.69829974-1.2391261-1.99258064-2.25076174-.14363933-1.08033875.03199913-2.17918705.50516129-3.1604446.45516588-1.2568659.50101959-2.62605838.13096774-3.91069852-.67354839-2.48521609-.64548387-4.81100322 2.03935484-6.03016582 0 0 10.87967742 1.62242408 12.67580645 6.18959477.71096774 1.81936574-.19645161 3.1979573-.32741936 4.73597782 0 .36574879-.05612903.7596321-.0748387 1.1535154-.07229033 1.0285349-.04723217 2.0616222.0748387 3.0854192.4330547 2.11410567 1.26495155 4.12582432 2.45096775 5.92700592z"/>
      <g opacity=".2">
        <path fill="rgb(29,29,27)" fill-rule="evenodd" d="M68.918396 31.45440137c.85394287-.515625 1.6586914-1.10894776 2.4041748-1.77246094-1.19042969-1.79412842-2.02862549-3.79937744-2.46966553-5.90826416-.1220703-1.02380371-.14715576-2.05688477-.0748291-3.08538818-.18084717-.57244873-.25689697-1.1729126-.22454834-1.77252198-.90740967-2.5883789-1.49676513-3.197937-2.6473999-3.06665039-.8494873.56036377-.94006348 2.125-1.04107666 3.87072754-.15600586 2.69525147-.3369751 5.82214356-3.37438965 6.35150147-1.47912598.35510254-3.01593017-.29125977-3.80029297-1.59472657.0152588.02722168.02850342.05560303.03961182.08483887.60858154 1.71984863.75378418 3.57019043.42095947 5.36431885 1.12408447 1.83972168 3.05639649 3.03131103 5.20129395 3.20733643 1.96533203.02264404 3.88964843-.56359864 5.51000976-1.67871094h.05615235z"/>
      </g>
      <path fill="rgb(252,199,170)" fill-rule="evenodd" d="M56.6916129 11.20691782s.32741936 3.46992434 1.92709678 3.64810964C60.2183871 15.03321276 62.95 9.72516634 62.95 9.72516634L59.81612903 7.6901026l-3.12451613 3.51681522z"/>
      <g opacity=".5">
        <path fill="rgb(255,178,148)" fill-rule="evenodd" d="M60.8732258 10.16594051c.3367742 4.11701835-.39290322 7.44627008-2.38548386 6.96798321-1.62774194-.40326148-1.70258065-4.53903617-1.70258065-4.53903617l.20580645-2.22262721 3.88225807-.20631983z"/>
      </g>
      <path fill="rgb(34,34,34)" fill-rule="evenodd" d="M54.7832258 2.86972121s-5.36967741 4.40774174-.0748387 8.14025495l1.9832258-4.90478495-1.9083871-3.23547z"/>
      <path fill="rgb(252,199,170)" fill-rule="evenodd" d="M58.00129032 2.42894704c-2.17393654.44656935-3.86729199 2.15894252-4.29387097 4.34209452-.42657897 2.183152-.59870967 1.39734791.82322581 3.54494973 0 0 .83258065 2.96350296 2.63806452 3.35738626 1.03184964-.16670774 1.96524726-.71143391 2.61935484-1.52864234 1.31903225-2.02568557.93548387-2.47583791.93548387-2.47583791 1.13425818-1.21845234 1.49518966-2.96971824.93548387-4.53903617-.49123636-1.6107578-1.97759195-2.70829799-3.65774194-2.70091409z"/>
      <path fill="rgb(34,34,34)" fill-rule="evenodd" d="M53.5483871 8.36533112s3.74193548 1.73496217 5.61290322-.19694165c.08142934.62130124.6194238 1.07953448 1.24419355 1.05973365l.29.44077418.9916129 2.9822593c1.971736-2.36605828 2.51546012-5.61502443 1.42193549-8.49662556S61.6964516 0 56.70096774 1.66931495c-3.46129032 1.20040626-4.3967742 5.12048296-3.15258064 6.69601617z"/>
      <path fill="rgb(252,199,170)" fill-rule="evenodd" d="M61.21 8.18714582c.28164675.11846937.4707124.38819547.48645161.69398487.00578865.29761275-.0450086.59360825-.14967742.87217017-.04572756.17449817-.12172483.33956967-.22451613.48766504-.11414743.14296673-.29746465.21143173-.47709677.1781853-.38354839-.11253808-.68290323-.87217017-.63612903-1.2566753.0467742-.38450513.4116129-1.16289356 1.00096774-.97533008z"/>
      <path fill="rgb(252,199,170)" fill-rule="evenodd" d="M71.54709677 35.09312675l-.35548387 1.08786817-.55193548 2.63526687-.77645161 1.56615504-1.02903226 1.32232252c-.1683871.26258887-.4583871.26258887-.42096774.05626904l-.42096775.57206861c-.30870967.41263965-.56129032.215698-.3648387-.20631982l1.09451612-2.14760183-1.3564516 2.06319826c-.25258065.38450513-.54258065.1781853-.32741936-.24383252l1.18806451-2.43832521-1.2348387 1.6505586c-.3367742.431396-.6267742.30947974-.39290323-.215698l1.60903225-3.22609182-1.10387096.71274122-.6267742.30010156c-.4116129.1781853-.56129032-.215698-.14032258-.49704322l.49580645-.40326147.69225807-.9378174 2.18903226-1.19102808.93548387-1.35983522.89806451.9003047z"/>
      <path fill="rgb(69,196,138)" fill-rule="evenodd" d="M65.81258065 18.72821329l5.10774193 6.56472173-1.74935484 10.82241268c.3919541.80702552 1.33802432 1.174951 2.17032258.84403566.83229827-.33091536 3.6016129-9.64076278 3.05903226-12.2572733-.54258064-2.61651052-5.88419355-11.04748886-5.88419355-11.04748886-3.66709677.01875635-4.67741935 2.69153591-2.70354838 5.07359209z"/>
      <path fill="rgb(245,232,217)" fill-rule="evenodd" d="M57.58967742 24.31760493c-.22649282.03232106-.4564104.03232106-.68290323 0-.39624975-.06329154-.78288637-.17673576-1.15064516-.33761426.78652547.0628303 1.51209093-.42727289 1.74935484-1.1816499-.11566352.50422617-.08647196 1.03098483.08419355 1.51926416z"/>
      <path fill="rgb(32,162,106)" fill-rule="evenodd" d="M38.19709677 8.49662556c2.75967742-.45953052 6.99741936 6.2177293 10.69258065 10.3159913l7.19387097 5.12048294c-.1362396 1.43127217-.35803612 2.85305813-.66419355 4.25769096-.15903226 0-9.7383871-4.40774174-9.7383871-4.40774174L34.27741935 14.5549259l3.91967742-6.05830034z"/>
      <path fill="rgb(34,34,34)" fill-rule="evenodd" d="M39.11387097 67.7760628c-.4583871.60020313-.4583871 1.9787947-.34612903 3.54494974.42096774 1.57553322 1.87096774 1.45361696 3.18064516 1.65993678 2.46032258.38450513 3.68580645 2.23200539 6.96 2.23200539 1.93645161 0 3.23677419-.42201783 3.6483871-1.65993678-.00969076-.69697927-.35912872-1.34505206-.93548388-1.73496217C51.04493516 71.42814564 47.14032258 69.82050472 47 69.74547932c-.74517992-.5292402-1.46329413-1.09577454-2.1516129-1.69744947 0-.15005078-.76709678-3.58246243-.76709678-3.58246243h-4.78032258l-.18709677 3.31049538z"/>
      <path fill="rgb(27,76,54)" fill-rule="evenodd" d="M45.29741935 68.43253498c-1.9832258 1.19102808-4.67741935 2.2601399-5.89354838 1.71620582-.31738978-.13209968-.54392542-.41952404-.59870968-.75963208-.1216129-.5439341-.23387097-1.09724635-.34612903-1.65055861-1.05709678-5.25177739-1.56225807-10.3159913-.59870968-14.67684216l-2.4416129-8.3371966-.06548387-.215698-.54258065-1.87563478-.06548387-.22507618c0-5.07359208 2.05806452-6.92109234 5.71580645-6.42404912l.64548387.11253809.48645162.10315991.72032258.19694165.47709677 2.93536843 2.04870968 12.62302208c.60806451 4.89540678-.38354839 12.2197606.4583871 16.47745155z"/>
      <g opacity=".5">
        <path fill="rgb(22,127,156)" fill-rule="evenodd" d="M39.40387097 70.1487408c-.31738978-.13209968-.54392542-.41952404-.59870968-.75963208-.1216129-.5439341-.23387097-1.09724635-.34612903-1.65055861-1.05709678-5.25177739-1.56225807-10.3159913-.59870968-14.67684216l-2.4416129-8.3371966-.06548387-.215698c-.13096775.74087574-.36483871 1.95066017-.4583871 2.49459426-.09354839.54393408-.2151613 1.14413721-.31806452 1.725584l-.29935484-5.41120635.53322581-.67522852 3.38645161-4.28582547c-.06548387.76901026-.10290322 1.52864234-.1216129 2.30703078-.01982634 4.18487372.42572021 8.3589237 1.3283871 12.44483677-1.27225807 4.24831278-.61741936 10.65360555 0 17.04014198z"/>
      </g>
      <path fill="rgb(34,34,34)" fill-rule="evenodd" d="M24.5483871 75.2504674c-.3996039.90682258-.52012439 1.9125767-.34612904 2.88847757.25252573.5102053.47127816 1.03652074.65483871 1.57553321.27129033.9378174.23387097 2.54148513 1.64645162 3.49805887 1.68387096 1.3317007 4.93935484 1.38796974 5.95903226 0-.13990805-1.24831742-.5902354-2.44143704-1.30967742-3.46992434l-1.65580646-3.07604104.11225807-2.88847757-4.75225807-1.06911182-.30870967 2.54148513z"/>
      <path fill="rgb(27,76,54)" fill-rule="evenodd" d="M40.59193548 34.83991605c-.0039885.38853013-.05105175.7754115-.14032258 1.1535154-.0397143.22184785-.09282269.44107492-.15903225.65647217-.48387085 1.46636066-1.23921754 2.82810357-2.22645162 4.01385843-.96235392 1.09313387-1.84700003 2.25262342-2.64741935 3.46992434 0 .10315992 0 .22507618-.06548387.37512696-.13096775.74087574-.36483871 1.95066017-.4583871 2.49459426-.09354839.54393408-.2151613 1.14413721-.31806452 1.725584-.67354838 3.70437869-1.60903225 7.59632086-2.54451613 11.73209555-1.24774484 5.30512141-1.93134467 10.72783325-2.03935483 16.17734998-1.57555233.77044356-3.4342745.68204893-4.93-.23445434-.42692464-.29483516-.7534223-.71379465-.93548388-1.20040626 0-2.29765261 0-4.64219609.0935484-6.83668878.10290322-4.54841434.43032257-8.44035651 1.43129031-10.21283138V35.35571562l2.10483871-.2532107 1.24419355-.1406726 7.68967742-.9378174.80451613-.08440356.43032258-.05626904 1.87096774-.215698.7951613 1.17227173z"/>
      <path fill="rgb(69,196,138)" fill-rule="evenodd" d="M46.60709677 39.44459944l-6.98806451 5.24239921-.6267742.4689087-1.44064516.15942895L32.79 45.8217577c-2.00520058.21216455-4.02745382-.19002514-5.8-1.1535154-.34470832-.18607827-.67605002-.39603366-.9916129-.62833765l-.36483871-.2532107-1.59967742-1.15351538c0-.30947974 1.2067742-10.85992538 1.26290322-11.55391025l-.35548387-4.82975956-.06548387-.78776661-.75774193-10.05340243c2.37198688-2.56767633 5.08544-4.79560733 8.06387096-6.62099077l6.08064517.30010156c2.16096774 1.55677687 2.61 2.88847757 3.25548387 6.56472174 0 0 1.19741935 7.63383355 1.87096774 12.49172764.20580645 1.56615504 2.3667742 8.44035651 3.03096774 10.5973365.11225806.42201783.17774194.70336305.18709677.70336305z"/>
      <g opacity=".75">
        <path fill="rgb(83,71,65)" fill-rule="evenodd" d="M38.39354839 21.8886579c.34612903-7.00549591.31806451-8.54351643-.59870968-10.07215878l-1.87096774-.5064214-3.8916129-.19694164c1.87096774 3.20733547 4.14419354 4.8860286 6.36129032 10.77552181z"/>
      </g>
      <g opacity=".5">
        <path fill="rgb(22,127,156)" fill-rule="evenodd" d="M28.29032258 58.45415794c-2.53516129 3.75126957-3.16193548 10.44728573-3.25548387 17.94982486-.43036077-.29115981-.75781099-.7113416-.93548387-1.20040626 0-2.30703078 0-4.64219609.08419355-6.83668878.10290322-4.54841434.43032258-8.44035651 1.43129032-10.21283138V43.7679376l.3648387.2532107c.3155629.23230399.6469046.44225937.99161291.62833765-.15704272 4.63935941.2863271 9.27956047 1.31903226 13.80467198z"/>
      </g>
      <g opacity=".5">
        <path fill="rgb(22,43,53)" fill-rule="evenodd" d="M46.60709677 39.44459944l-6.98806451 5.24239921c-.71096774.215698-1.42193549.42201783-2.06741936.62833765L32.79 45.8217577c-2.00520058.21216455-4.02745382-.19002514-5.8-1.1535154-.34470832-.18607827-.67605002-.39603366-.9916129-.62833765l-.36483871-.2532107-1.59967742-1.15351538c0-.30947974 1.2067742-10.85992538 1.26290322-11.55391025l-.35548387-4.82975956 3.82612903-3.8450513c-.15097507 2.48549696.73706342 4.92180182 2.45096775 6.72415069l6.97870967 2.49459425-.29 2.3351653v.30947975c-.39290322-.06564722-.79516129-.1125381-1.19741935-.16880713-3.30225807-.3938833 1.80548387.6095813-.58 1.87563478 5.8467742.45953052 8.81225806 1.65993678 10.29032258 2.81345217.11225806.37512695.17774194.65647217.18709677.65647217z"/>
      </g>
      <path fill="rgb(252,199,170)" fill-rule="evenodd" d="M32.81806452 5.93638408L31.53645162 8.196524c-1.01967743 2.73842678 2.23580644 5.02670121 4.23774193 4.68908695L37.7948387 9.2375013l-4.9767742-3.30111722z"/>
      <g opacity=".5">
        <path fill="rgb(255,178,148)" fill-rule="evenodd" d="M33.02387097 8.74983625c-.09277763 1.28631537.13549072 2.57554215.66419355 3.75126956 1.49677419 2.71967044 2.72225806.70336305 3.33967742-.1781853l-4.00387097-3.57308426z"/>
      </g>
      <path fill="rgb(252,199,170)" fill-rule="evenodd" d="M32.96774194 8.1214986c.06283482 2.0087756 1.11377918 3.8560278 2.8064516 4.93291947.51225464.41755265 1.24645505.41755265 1.75870969 0l1.67451612-2.27889625c.64819642-.69043262 1.1284367-1.52171593 1.40322581-2.42894705l-2.5632258-5.27053373h-3.9383871l-1.8616129 2.60713235.72032258 2.43832521z"/>
      <path fill="rgb(34,34,34)" fill-rule="evenodd" d="M31.94806452 7.67134625l1.56225806.32823609c.46234957-.43982962 1.16890855-.49461692 1.6932258-.13129443 1.0776429.8086823 2.39633516 1.22841147 3.7419355 1.19102808.75980013-.00979677 1.48093593-.33750315 1.98906112-.90389082.50812519-.56638767.75698834-1.31990192.68642274-2.07836848-.11225806-1.50050782-2.63806451-4.8860286-5.5567742-4.68908695-3.44258064.23445435-5.71580644 2.35392165-4.4716129 6.67725982l.35548388-.3938833z"/>
      <path fill="rgb(252,199,170)" fill-rule="evenodd" d="M32.57483871 5.95514043c-.25584265-.06396841-.52499882.03213456-.68290323.24383252-.09274982.16206226-.13509763.34820428-.1216129.53455591.0047747.3987701.0940601.79196651.26193548 1.1535154.0660158.15410366.1650192.29177351.29.40326147.12152897.1188586.28954143.17729403.4583871.15942896.58935484-.08440357.48645161-.84403565.54258065-1.2566753.07570905-.53850396-.23715805-1.05602239-.7483871-1.23791896z"/>
      <g opacity=".5">
        <path fill="rgb(255,178,148)" fill-rule="evenodd" d="M34.4832258 7.06176495c.13096775 2.4101907 1.39387097 4.68908695 3.85419355 4.82038139l2.50709678-3.38552078-.93548387-2.27889626-5.42580645.84403565z"/>
      </g>
      <path fill="rgb(178,178,178)" fill-rule="evenodd" d="M32.47193548 2.52272878c-.9061247-.0174081-1.69440735.61874233-1.87096774 1.509886-.29935484.99408643.72032258 3.019772 3.45193549 4.79224686 2.7316129 1.77247487 6.02451612 2.81345217 7.53064516 1.98817287C43.66967742 9.6313846 42.07 7.64321173 42.07 7.64321173l-5.58483871-4.529658-4.0132258-.59082495z"/>
      <path fill="rgb(237,237,237)" fill-rule="evenodd" d="M32.55612903 2.20387087c-.90903632-.01657383-1.6983726.62438343-1.87096774 1.51926417-.32741935 1.02222096.69225806 3.019772 3.4332258 4.77349052 2.74096775 1.75371852 6.0151613 2.81345217 7.53064517 1.98817286 2.08612903-1.1816499.47709677-3.16982277.47709677-3.16982277L36.57870968 2.804074l-4.02258065-.60020313z"/>
      <path fill="rgb(255,255,255)" fill-rule="evenodd" d="M42.13548387 7.19305938c.00464327.04364104.00464327.0876534 0 .13129444.00036769.12103084-.01858143.24134132-.05612903.3563706-.30509074.79201639-.98712097 1.377065-1.81483871 1.55677688h-.05612903c-.8095973.23152648-1.6624855.26688427-2.4883871.1031599-.84118825-.15093959-1.65285355-.43588937-2.40419355-.84403564l-.71096774-.45015235c-.17774194-.11253809-.36483871-.24383252-.54258065-.37512696-.17774193-.13129443-.4864516-.3563706-.72967741-.54393408S32.79 6.66788165 32.53741935 6.4334273l-.09354838-.09378174c-.11915942-.10540006-.2316364-.21815761-.3367742-.33761426-.18855146-.2039811-.36355091-.4201433-.52387096-.647094-.31919841-.40277085-.50845624-.89345167-.54258065-1.40672609.11711079-.42443731.28351841-.83362512.49580645-1.2191626.06781248-.13216367.14276243-.26052254.22451613-.38450513.35334592-.55727482.80696874-1.04383018 1.33774194-1.43486061.44770116-.3093462.9442325-.54079337 1.46870967-.6846067.53446154-.13659954 1.08608852-.19347985 1.63709678-.16880713 1.08991759.01840286 2.16145466.2845504 3.13387097.77838844.42947593.23682929.8231976.53364653 1.16935484.88154834 2.08612903 2.09133279 1.62774193 5.47685356 1.62774193 5.47685356z"/>
      <path fill="rgb(32,162,106)" fill-rule="evenodd" d="M24.10870968 15.40833972c-2.75967742 3.75126957-2.67548387 9.3781739-3.62967742 13.84218469C20.03 32.5235071 22.49032258 32.92676858 33.25774194 35.74959892c1.48741935.30010157 2.17032258-.58144678.93548387-2.81345217l-7.71774194-4.745356 2.29193548-5.75819877c.4583871-5.25177739-1.16935483-7.49316095-4.65870967-7.02425226z"/>
      <path fill="rgb(255,255,255)" fill-rule="evenodd" d="M38.39354839 24.5426811l13.16225806-1.4348606 8.84032258-6.50845269-2.4883871 15.74595399v6.42404912l-7.39032258 5.16737382-13.1248387 3.61997513.7016129-13.42016686.29935484-9.5938719z"/>
      <path fill="rgb(252,199,170)" fill-rule="evenodd" d="M42.79032258 35.83400249l-2.2732258.15005078-2.4135484-1.87563478c0-.9378174 0-1.52864235.05612904-1.95066017l-1.07580645-.0750254c-.99401846.20718224-1.97488517.47336582-2.93741936.79714479l-.3367742-.10315992c-.87-.09378173-1.43129031 2.7665613-.55193547 2.94474661l1.50612903.38450513 2.47903226 1.46299513c.99889495.31763005 2.03922401.48512999 3.08709677.49704322l.71096774-.30947974.55193549-.37512696.52387096-.51579956.93548387-.28134522c.53322581-.15005078.54258065-.75025391-.26193548-.75025391z"/>
      <path fill="rgb(252,199,170)" fill-rule="evenodd" d="M58.89935484 25.78060006L58.02 26.76530832c-.12267513.13679429-.19237417.31314018-.19645161.49704322v.61895948l-.63612904.7877666v.63771583L57.44 29.63502954c.1952886.25444265.536162.34659286.83258065.22507617l.80451612-.34699243.93548388-2.372678c.11248082-.24721141.11248082-.53117703 0-.77838844l-.85129033-1.62242408-.26193548 1.0409773z"/>
      <path fill="rgb(237,237,237)" fill-rule="evenodd" d="M37.1867742 9.36879573c.06548386-.20631983.3648387-1.01284278.3648387-1.01284278l.93548387.13129443v1.1160027l-1.30032258-.23445435z"/>
      <path fill="rgb(237,237,237)" fill-rule="evenodd" d="M31.5083871 5.51436626l.73903225.76901026.51451613-.96595192-.56129032-.56269043-.69225806.75963209z"/>
      <path fill="rgb(237,237,237)" fill-rule="evenodd" d="M42.04193548 7.765128V6.6491253l.13096775-.15005078.1216129.1406726v.91906105l-.1216129.27196704-.13096775-.06564722z"/>
      <path fill="rgb(237,237,237)" fill-rule="evenodd" d="M38.47774194 6.49907452c-.0585667-.35363177-.1461765-.70180841-.26193549-1.0409773-.10688356-.31946903-.23181675-.63258108-.37419355-.9378174-.26936379-.64002296-.6353673-1.23468071-1.08516129-1.7630967-.45037634-.51969653-1.00502844-.93832107-1.62774193-1.22854077-.64088545-.29003981-1.3223586-.4798101-2.02064516-.56269044.72798726-.0939495 1.46779445-.01689468 2.16096774.22507618.72387723.24496176 1.36964899.6787081 1.87096774 1.2566753.47948969.57192792.84473087 1.23100198 1.07580645 1.941282.22029026.68028208.3091891 1.39642964.26193549 2.11008913z"/>
      <path fill="rgb(237,237,237)" fill-rule="evenodd" d="M40.14290323 5.51436626c-.06052353-.34899867-.15450769-.69132623-.28064517-1.02222096-.11603872-.32007911-.25034656-.63320205-.40225806-.93781739-.29610823-.62011193-.68754582-1.18974517-1.16-1.6880713-.46887033-.5073838-1.04389894-.90450275-1.68387097-1.16289357-.6595417-.2470976-1.34812933-.40785363-2.04870968-.47828687H35.11c.18036905-.01889716.3622116-.01889716.54258065 0 .35608702.00499198.7105609.04901865 1.05709677.13129444.35470817.10975496.69657673.25753389 1.01967742.44077417.31394027.20302825.60556451.43879573.87.70336304.51863835.53454655.91732763 1.17404062 1.16935484 1.87563479.27245102.67868397.39992472 1.4070965.37419355 2.13822365z"/>
      <path fill="rgb(237,237,237)" fill-rule="evenodd" d="M41.16258065 4.745356c-.06628396-.34581063-.15376156-.6871979-.26193549-1.02222096-.10688357-.31946902-.23181675-.63258107-.37419355-.9378174-.26679922-.64991642-.63290373-1.25423012-1.08516129-1.7912312L39.3383871.84403564c.42947593.2368293.8231976.53364654 1.16935484.88154835.14071541.28231665.26259586.57367962.3648387.87217017.23205466.69085732.3304814 1.41975895.29 2.14760183z"/>
    </g>
  </g>
</svg>
