<svg xmlns="http://www.w3.org/2000/svg" width="93" height="101.264" viewBox="0 0 93 101.264">
  <g>
    <ellipse cx="46.5" cy="54.764" fill="rgb(213,227,220)" rx="46.5" ry="46.5"/>
    <g>
      <g opacity=".4">
        <path fill="rgb(32,162,106)" fill-rule="evenodd" d="M74.47061468 81.08452998c0-2.99503878-2.2340607-5.98097409-6.60063389-8.27504634-4.6989128-2.45793456-10.93028044-3.64138453-17.06009988-3.44110838.18463311-2.13020995-.92316558-4.10566106-3.53572417-5.54400794-6.0559662-3.37738415-17.73401075-2.5671761-26.04250096 1.7660715-8.3084902 4.33324758-10.15482136 10.62373935-4.0711602 14.0011235 3.14799462 1.6932438 7.76382251 2.35779648 12.56428352 1.9754511.25848636 2.83117648 2.42792547 5.6259391 6.56370726 7.7925629 8.77930465 4.60635143 22.95912793 4.62455835 31.67381099.05462077 4.34810987-2.27586533 6.51754898-5.26180065 6.51754898-8.25683942.00093868-.02460854-.00217907-.0492042-.00923165-.0728277z"/>
      </g>
      <path fill="rgb(34,34,34)" fill-rule="evenodd" d="M16.34810987 65.44478343c-.43388782.55531114-.43388782 1.86620957-.3323396 3.3409703.40619285 1.4838642 1.84633115 1.37462266 3.06490971 1.5566919 2.35407223.36413844 3.52649251 2.11200302 6.66525548 2.11200302 1.84633116 0 3.111068-.4005523 3.49879754-1.56579535-.0100176-.6617629-.35695804-1.27416252-.92316558-1.62951958-.56620754-.35535705-4.27425662-1.89351995-4.3850365-1.96634764-.71769971-.4935164-1.40512342-1.02852315-2.05865923-1.6022092 0-.13655191-.73853247-3.37738414-.73853247-3.37738414h-4.61582789l-.17540146 3.1315907z"/>
      <path fill="rgb(34,34,34)" fill-rule="evenodd" d="M14.09558586 72.4908625c-.38854687.85619033-.50443392 1.80850534-.3323396 2.73103839.237995.49164255.44758102.99617424.62775259 1.51117458.25848636.91034613.22155974 2.39421033 1.57861314 3.295453 1.61553976 1.25627766 4.73583941 1.32000189 5.71439493 0-.12741302-1.18591621-.55954209-2.3201696-1.2555052-3.295453l-1.58784479-2.93131455.10154822-2.7310384-4.5512063-.98317382-.29541299 2.4033138z"/>
      <path fill="rgb(20,57,41)" fill-rule="evenodd" d="M21.71170188 30.7150785v18.20692263c-1.47706492 5.28000757-4.33887821 10.24139399-4.800461 15.52140156 0 2.22124456 4.5696696 2.7310384 5.72362658 1.28358804.45235113-4.08745413 3.96038033-9.63146207 6.08366116-16.08581615 1.40321168-6.50897484 2.57563196-13.25463968 2.17867077-18.69850955l-9.1854975-.22758654z"/>
      <path fill="rgb(27,76,54)" fill-rule="evenodd" d="M30.7679562 31.42514848c.12924319 1.82069226-2.44638878 6.73656137-5.39128697 8.93049555-.12924318 3.96000568-.6462159 10.81491205-1.32935843 15.28471156-2.12328083 6.45435408-4.06192855 12.63560431-4.51427968 16.71395498-.76622743.91034614-3.05567807 1.32910536-4.49581637.8011046-.09177252-.0336212-.18120465-.07315476-.26771802-.118345l-.1015482-.05462077c-.50207197-.24515838-.82027162-.74932336-.82161737-1.30179496.1153213-5.32345784.93779052-10.60904285 2.44638878-15.7216777l-.44311948-23.45051637v-.65544921l14.91835574-.42786268z"/>
      <g opacity=".39">
        <path fill="rgb(29,29,27)" fill-rule="evenodd" d="M19.0160584 56.4596671c-2.76949674 3.35917724-3.39724933 10.01380746-3.97884365 16.69574807-.08624363-.04573276-.17571425-.08528333-.26771802-.118345l-.1015482-.05462077c-.50207197-.24515838-.82027162-.74932336-.82161737-1.30179496.1153213-5.32345784.93779052-10.60904285 2.44638878-15.7216777l-.44311948-23.45051637 12.37041875 1.92083034c-9.1854975 5.2982145-9.94249328 13.78264044-9.20396082 22.0303764z"/>
      </g>
      <path fill="rgb(32,162,106)" fill-rule="evenodd" d="M25.0904879 5.5531114c3.2772378-.25489691 7.53303112 3.6960053 12.00115251 6.74566484l6.15751441-5.29821448c1.24627353-.64634576 2.90797157 1.5293815 3.24954284 2.41241725-1.15395698 3.9509022-4.89277757 6.53628522-7.77305417 9.26732362-3.08337303 1.39282958-10.65333077-6.37242293-12.00115252-5.98097409L25.0904879 5.55311141z"/>
      <path fill="rgb(255,203,166)" fill-rule="evenodd" d="M45.68631195 9.13987517c.2307914-.91034614.34157126-.83751845.47081444-1.05600152l1.28320016-1.72055419c.41872717-.4330934.62446047-1.02509342.563131-1.62041611v-.26400038c.18733748-.36003086.18733748-.78700526 0-1.14703613l-.3138763-.75558729-.29541298-1.1743465L45.42782559.35503498C44.7539147 0 44.32002689.74648383 45.04932769 1.11972574l.70160585.57351807.07385324.71917344-1.39398002 1.15613959-.40619285-.40965576.1661698-1.28358805.19386477-.70096652c.13847484-.62813883-.3138763-.73738037-.61852093-.2822073l-.67391088 1.30179497-.35080292 2.31227917.76622743 2.43972764-.37849788.60082844c-.15693815.83751845 2.04942758 2.4943484 2.55716865 1.59310574z"/>
      <path fill="rgb(32,162,106)" fill-rule="evenodd" d="M31.4787937 31.2794931c-.0646216.43696614-.12001153.91034613-.19386477 1.2471742-.12924318.70096652-.26771802.64634575-.36926623.46427652-.05125486-.10905852-.09444847-.22162786-.12924318-.33682806 0 .5644146-10.39484441 5.5075941-13.10895121 4.23310951-.3404306-.16352563-.69592586-.2946041-1.06164042-.39144884-.71474025-.27304246-1.34927654-.71730712-1.84633116-1.2926915-.66467921-1.59310574-.40619285-1.21076036-.3969612-5.66235295l-.52620437-5.82621524-.28618133-3.68690184-.51697273-6.82759599c2.5187455-2.68187148 5.4017523-5.00710414 8.56697657-6.90952714l6.46215905.30041423c2.51101037 1.75696803 3.07414137 3.9509022 3.46187091 6.90042368 0 0-.4800461 11.76167202-.06462159 14.62015888.13667788 1.05151306.13977906 2.11573425.00923166 3.16800454z"/>
      <path fill="rgb(255,255,255)" fill-rule="evenodd" d="M22.3763811 5.56221487L19.4314829 7.7197352c-1.57861313 4.28773028 1.95711103 6.19945716 4.2188667 8.66649518l1.50475989-3.7415226 3.37878602.76469074-1.0431771-6.19945715-5.11433731-1.6477265z"/>
      <g opacity=".5">
        <path fill="rgb(62,114,161)" fill-rule="evenodd" d="M32.05115636 31.69825232c-.10803992.38016959-.39224453.68744043-.76622743.82841498-.1969794.08039712-.3370208.25647045-.36926623.46427652-.05125486-.10905852-.09444847-.22162786-.12924318-.33682806 0 .5644146-10.39484441 5.5075941-13.10895121 4.23310951-.3404306-.16352563-.69592586-.2946041-1.06164042-.39144884-.71474025-.27304246-1.34927654-.71730712-1.84633116-1.2926915-.66467921-1.59310574-.40619285-1.21076036-.3969612-5.66235295l-.52620437-5.82621524-.28618133-3.68690184 5.89902804-3.16800453s2.84334998 5.35283525 4.45888974 8.45711556c.19386478.38234538 4.27425663 2.41241725 6.3883058 3.9326953 2.40946216 1.74786457-.30464464 1.27448458 1.14472532 2.03007187.3969612.20027615.60928928.34593153.60005763.41875922z"/>
      </g>
      <path fill="rgb(255,203,166)" fill-rule="evenodd" d="M22.00711487 5.28911103l-1.3570534 2.35779648c-1.08933538 2.86759031 2.36330388 5.25269718 4.49581636 4.89766219l2.14174414-3.8143503-5.2805071-3.44110837z"/>
      <path fill="rgb(255,200,179)" fill-rule="evenodd" d="M22.2286746 8.22042557c-.10136518 1.34213551.13984552 2.6879289.70160585 3.91448837 1.58784479 2.8493834 2.89873991.74648383 3.55418747-.17296577l-4.25579331-3.7415226z"/>
      <path fill="rgb(255,203,166)" fill-rule="evenodd" d="M22.15482136 7.54676943c.07016053 2.10011355 1.18568178 4.03112714 2.98182482 5.16166257.54312444.41608126 1.30320671.41608126 1.84633115 0l1.78170957-2.43062417c.6876896-.718557 1.19652059-1.58495894 1.48629658-2.53076225L27.56457165 2.2849688h-4.18194007l-1.984806 2.7310384.75699578 2.53076224z"/>
      <path fill="rgb(34,34,34)" fill-rule="evenodd" d="M21.08394929 7.09159637l1.66169804.34593153c.48695605-.46220613 1.23772199-.51944895 1.79094122-.13655192 1.1501901.85121706 2.55992123 1.29105826 3.99730696 1.2471742.80945971-.0092945 1.57810144-.35194626 2.11992872-.94504017.54182728-.5930939.80747187-1.38259057.73265291-2.17744706-.12924318-1.52027804-2.76949673-5.1070418-5.9082597-4.8976622-3.69266231.23669-5.40975029 2.93131455-4.7173761 6.92773407l.32310795-.36413845z"/>
      <path fill="rgb(255,203,166)" fill-rule="evenodd" d="M21.7486285 5.30731795c-.27305554-.06940977-.56151843.0314105-.7293008.25489692-.09877742.16805719-.14382235.36159895-.12924318.55531114.02361327.42032534.14019609.83046683.34157126 1.2016569.06999819.16210946.17379355.3078864.30464464.42786267.13453546.11655817.31058471.1755182.48927776.1638623.6277526-.0910346.51697272-.91034612.57236266-1.32000188.07403236-.5752678-.28553937-1.118698-.84931233-1.28358805z"/>
      <path fill="rgb(34,34,34)" fill-rule="evenodd" d="M41.5412985.355035c1.00625048.0910346 2.0032693.23668999 3.00951979.3732419l1.49552823.24579346.74776412.118345c.27496941.00434429.53707618.11558327.7293008.30951768v.05462077c-.23685192.13596965-.51612895.18132946-.78469073.12744846l-.75699578-.0728277-1.51399155-.13655191c-1.01548213-.118345-2.0032693-.20027615-3.01875144-.39144884-.17571298-.02794966-.2954156-.19076399-.26771801-.36413845.03257997-.16665911.18880428-.28121277.36003457-.26400038z"/>
      <path fill="rgb(255,203,166)" fill-rule="evenodd" d="M44.64313484 7.65601097v-4.2604199l-.21232808.17296577-.40619285-.40965576.1661698-1.28358805.19386477-.70096652c.13847484-.62813883-.3138763-.73738037-.61852093-.2822073l-.67391088 1.30179497-.35080292 2.31227917.76622743 2.43972764-.37849788.60082844c-.15693815.82841498 2.04942758 2.48524494 2.55716865 1.58400227.2307914-.91034613.34157126-.83751844.47081444-1.0560015l.32310795-.4278627-1.8370995.00910347z"/>
      <path fill="rgb(77,77,77)" fill-rule="evenodd" d="M62.9402766 37.5881918c-.69254266-.33686738-1.5045914-.33686738-2.19713407 0-.2531225.1106028-.42605292.34725533-.45235114.61903536V65.4083696c.02437489.27248956.19793746.5100072.45235114.61903537.6904816.34547218 1.50665248.34547218 2.19713407 0 .25441368-.10902817.42797625-.34654581.45235114-.61903537V38.20722716c-.02629822-.27178003-.19922863-.50843256-.45235114-.61903537z"/>
      <path fill="rgb(3,4,3)" fill-rule="evenodd" d="M34.6729466 71.8991375c-.11993989.38081525-.4772484.6403322-.88162313.6403322-.40437472 0-.76168324-.25951695-.88162312-.6403322.11993988-.38081524.4772484-.64033218.88162312-.64033218.40437473 0 .76168324.25951694.88162313.64033219z"/>
      <path fill="rgb(3,4,3)" fill-rule="evenodd" d="M48.35426047 75.82272934c0 .50277028-.4133153.91034613-.92316558.91034613-.50985027 0-.92316558-.40757585-.92316558-.91034613 0-.50277029.41331531-.91034614.92316558-.91034614s.92316558.40757585.92316558.91034614z"/>
      <path fill="rgb(3,4,3)" fill-rule="evenodd" d="M58.97066462 69.77803102c0 .50277029-.41331531.91034613-.92316558.91034613s-.92316558-.40757584-.92316558-.91034613.4133153-.91034613.92316558-.91034613c.50985027 0 .92316558.40757584.92316558.91034613z"/>
      <path fill="rgb(51,51,51)" fill-rule="evenodd" d="M52.37003073 61.88533005c-.00047213.3722443-.23071932.70670274-.58138177.84451864s-.75108397.05122028-1.0110776-.21865684c-.25999364-.26987711-.32717236-.66865722-.16962851-1.006933.15754384-.33827579.5080662-.54788687.88508058-.52927493.24081963-.00032915.47118083.09700783.63704538.2691776.16586455.17216978.25263688.40402195.23996192.64116853z"/>
      <path fill="rgb(51,51,51)" fill-rule="evenodd" d="M36.85161736 63.46022886c0 .50277029-.4133153.91034614-.92316557.91034614s-.92316558-.40757585-.92316558-.91034614c0-.50277028.4133153-.91034613.92316558-.91034613.24872534-.01328762.49144696.07834875.66758024.25203617.17613328.17368743.26906007.41303852.25558533.65830996z"/>
      <path fill="rgb(109,110,113)" fill-rule="evenodd" d="M47.93883596 67.0287857l4.31118325-5.63504256v-.37324191h-1.2739685l-5.53899347 5.28000757c-.37497799-.00816507-.74969266.02542686-1.11703035.10013807l-8.1423204-4.05104029-1.00625048.20027615v.37324192l7.17299654 4.60635142c-.11832174.18846916-.17920675.40650748-.17540146.62813883l-9.34243565 2.7310384v.38234538l.6462159.71006998 9.97018825-2.43062417c.32344602.1335392.66093152.23124166 1.00625048.29131076l2.37253554 5.98097409 1.41244333-.12744846v-.37324192l-1.01548213-5.74428409c.15048503-.0536549.29571198-.1206895.43388782-.20027615.1278843-.07010714.24847495-.15243366.36003457-.24579345l10.81950058.57351806.22155974-.79200114v-.37324191l-10.59794084-.91034613c-.12578322-.23508753-.30223932-.44016575-.51697272-.60082845z"/>
      <path fill="rgb(188,190,192)" fill-rule="evenodd" d="M47.93883596 65.53581804l4.31118325-4.55173066-1.2739685-.36413845-5.53899347 4.16028182c-.37876083-.00287282-.75661976.03683172-1.126262.118345l-8.15155206-2.940418-1.00625048.57351806 7.17299654 3.48662568c-.11980206.18782897-.18081074.40631016-.17540146.62813884l-9.32397234 4.26952335.6462159.71006999 9.97018825-3.55034992c.32344602.1335392.66093152.23124167 1.00625048.29131076l2.37253554 7.1098033 1.41244333-.12744846-1.01548213-7.28276906c.1488729-.0574271.2938071-.12432657.43388782-.20027615.12429706-.0677228.2417629-.1469781.35080292-.23669l10.82873223 1.72965766.2492547-.81931152-10.6256358-2.43972763c-.1301093-.22192895-.30627666-.41426294-.51697272-.5644146z"/>
      <path fill="rgb(77,77,77)" fill-rule="evenodd" d="M46.78487899 58.3896009c-.08327844-.07813126-.17635038-.14543623-.27694968-.20027614-.76600828-.38281718-1.67114885-.38281718-2.43715712 0-.10197673.05710508-.19785532.12420308-.28618133.20027615h-.22155974v7.93821827c.02962075.30212779.22443004.56408792.50774107.6827596.76600827.38281718 1.67114884.38281718 2.43715712 0 .27844344-.12280042.46872518-.3834107.49850941-.6827596V58.3896009H46.784879z"/>
      <path fill="rgb(77,77,77)" fill-rule="evenodd" d="M46.50792931 57.7068413c.29609768.10230256.49432943.37792226.49432943.68731134 0 .30938908-.19823175.58500878-.49432943.68731133-.76600828.38281718-1.67114885.38281718-2.43715712 0-.30590953-.09291188-.5146276-.37166548-.5146276-.68731133s.20871807-.59439945.5146276-.68731133c.76600827-.38281718 1.67114884-.38281718 2.43715712 0z"/>
      <path fill="rgb(153,153,153)" fill-rule="evenodd" d="M47.48648483 52.82738604c-.3278377-.29705122-.7288856-.50420678-1.16318863-.60082845-.6769552-.1819068-1.3909357-.1819068-2.0678909 0-.4350635.09457343-.8366254.30199449-1.16318863.60082845h-.32310795v6.0264914c0 .50979383.47081445 1.0104842 1.41244334 1.28358804.72016463.20914497 1.48620109.20914497 2.20636573 0 .92316558-.27310384 1.42167499-.77379421 1.42167499-1.28358804v-6.0264914h-.32310795z"/>
      <path fill="rgb(77,77,77)" fill-rule="evenodd" d="M46.38791779 51.543798c1.84633115.54620767 1.84633115 2.0209684 0 2.56717609-.72016464.20914497-1.4862011.20914497-2.20636573 0-1.84633116-.54620768-1.84633116-2.02096842 0-2.5671761.72016463-.20914497 1.48620109-.20914497 2.20636573 0z"/>
      <path fill="rgb(188,190,192)" fill-rule="evenodd" d="M47.08029197 52.61800643l-4.92970419-2.78565916c-4.18194007-2.36689995-7.46840952-7.45573482-7.46840952-11.59780973v-7.01876867h1.74478294v7.00056175c0 3.532143 2.95412985 8.06566673 6.59140223 10.12304899l4.93893584 2.78565916-.8770073 1.49296766z"/>
      <rect width="20.402" height="2.831" x="35.088" y="48.813" fill="rgb(26,26,26)" rx="0" ry="0"/>
      <path fill="rgb(67,82,90)" fill-rule="evenodd" d="M52.49927391 47.60199924c3.97884365 2.25765841 3.97884365 5.9081464 0 8.1931152-4.53941827 2.24863028-9.88965971 2.24863028-14.42907798 0-3.97884364-2.24855495-3.97884364-5.89904294 0-8.1931152 4.53941827-2.24863028 9.88965971-2.24863028 14.42907798 0z"/>
      <ellipse cx="45.289" cy="48.813" fill="rgb(132,157,170)" rx="10.201" ry="5.762"/>
      <path fill="rgb(67,82,90)" fill-rule="evenodd" d="M40.39657318 24.44279364l1.84633116 1.0833119-1.14472532.9649669c-.19355041 2.02823244-1.31979208 3.85686753-3.05567806 4.96138642l-4.3019516 2.4943484-2.59409527 2.60358994-1.79094122-1.04689805c-.7077759-.41239861-1.10230246-1.1976331-1.00625048-2.0027615.19537241-2.08158028 1.30524153-3.97442542 3.03721475-5.17986948 2.08850134-1.48025024 4.32495005-2.74613943 6.67448713-3.77793645 1.00625048-.41875922 1.78170957-.5188973 2.33560891-.10013808z"/>
      <path fill="rgb(132,157,170)" fill-rule="evenodd" d="M40.06423358 25.66265746c-2.36166048 1.00811027-4.60061274 2.27541653-6.67448713 3.77793645-1.51399155 1.2016569-3.05567807 3.27724607-3.05567807 5.1798695 0 1.9026234 1.51399155 2.8949007 3.05567807 1.72965764 2.08771725-1.64505121 4.36902473-3.03578611 6.79449865-4.1420749 1.82196629-.93133022 2.95984472-2.79207927 2.9448982-4.81573104 0-1.90262341-1.29243181-2.54896917-3.06490972-1.72965765z"/>
      <path fill="rgb(50,61,66)" fill-rule="evenodd" d="M80.93277372 57.15153017v2.17572725L63.4203227 49.42269151c-.13822834-.09763749-.21233164-.26118467-.19386477-.42786268.02410697-.47182298.27877052-.90281154.68314253-1.1561396.1386167-.10295076.324076-.12053576.4800461-.0455173l16.54312716 9.35835824z"/>
      <path fill="rgb(32,162,106)" fill-rule="evenodd" d="M58.44446024 30.62404388c.3469449 1.40535654.04987339 2.89006143-.81238571 4.06014375-.20906942.29883072-.44050604.58182699-.69237418.8466219l-2.76949674-.91034613-1.2924318-.41875922-1.18165195-5.35283526v-3.93269529l6.74834038 5.70787025z"/>
      <path fill="rgb(34,34,34)" fill-rule="evenodd" d="M61.60168652 69.45030641c-.4615828.50069037-.57236266 1.74786458-.60005763 3.15890108.26771802 1.45655381 1.65246638 1.46565727 2.76949673 1.74786457 2.24329236.53710422 3.22184787 2.30317572 6.24059931 2.55807263 1.80017288.14565539 3.0279831-.12744845 3.5080292-1.21076035.03792132-.63400647-.24141625-1.24613663-.74776412-1.63862304-.50634787-.3924864-3.96038033-2.14841687-4.06192854-2.23034802-.65041248-.52616136-1.26704418-1.09166544-1.84633116-1.6932438 0-.14565539-.83084902-3.32276339-.83084902-3.32276339l-4.02500192-.33682807-.40619285 2.9677284z"/>
      <path fill="rgb(34,34,34)" fill-rule="evenodd" d="M52.17616596 74.53003783c-.3481691.7930836-.41007812 1.67990544-.17540146 2.51255532.1867206.49509445.34695645.99951337.4800461 1.51117458.17540146.91034613 0 2.30317572 1.23704188 3.27724608 1.44936996 1.32910535 4.44965808 1.63862304 5.53899347.43696614-.02412288-1.1342455-.34190636-2.24357747-.92316558-3.2226253l-1.7540146-3.52303954-.1661698-2.60358994-4.18194007-.85572536-.05538994 2.46703802z"/>
      <path fill="rgb(27,76,54)" fill-rule="evenodd" d="M38.8271917 53.71042179c3.5176243 3.02381443 7.25743373 5.78667933 11.1887668 8.26594288-.42465616 2.3760034.73853247 7.81076981 1.72631964 12.90870815.92316558 1.68414034 5.15126393 1.00138075 5.15126393 0-.22155974-6.37242292-.3138763-14.22871004-.92316558-16.08581615-2.9633615-4.1420749-5.88056473-7.86539058-8.54851326-9.54042747l-4.61582789-2.48524494-4.02500192 3.177108.04615828 3.75972953z"/>
      <path fill="rgb(27,76,54)" fill-rule="evenodd" d="M46.6371725 51.24338377c2.24329235 2.0937961 10.01634652 2.58538302 13.69977717 4.67007566-.43388782 2.3760034-.32310795 8.6391848.66467922 13.73712313.92316558 1.68414035 5.86210142 1.23807074 5.86210142.22758653-.22155974-6.37242292 1.01548214-14.10126158.42465617-15.96747115-1.06164042-4.72469643-6.8683519-6.37242293-14.16135997-9.10346132l-2.16020746-.47338-2.16020745.61903538-2.1694391 6.29049177z"/>
      <path fill="rgb(11,21,26)" fill-rule="evenodd" d="M53.70862082 44.69799508s-2.4648521-.50979383-2.98182482-1.82069226c-4.35734152 2.43062417-9.84094506 6.0720087-13.99519016 3.27724607-.269474 1.25905201-.36573327 2.54816185-.28618133 3.83255722.35080292 2.13931341 1.54168652 4.40607528 2.87104495 5.02511065 1.11703035.52800075.13847484-3.64138453 3.55418747-5.75338756 1.97557434-.63724229 4.74507108 1.2016569 6.25906262.91034614.42485092-.05275077.78261497-.33851553.92316558-.73738037v-.10013808c1.44936996-4.01462644 3.86806378-3.75062606 3.6557357-4.6336618z"/>
      <path fill="rgb(32,162,106)" fill-rule="evenodd" d="M50.77295428 41.59371477c-.17187513.3984499-.17187513.84872431 0 1.2471742l-.13847483.08193115c-4.17270842 2.3304861-9.09318095 6.62731985-13.70900884 4.06924721-.47178543-.26383523-.7719847-.74918768-.7939224-1.28358804-.13847483-2.57627955-.28618133-6.25407793-.19386477-9.10346132 0-.70096652.0646216-1.3655192.12001153-1.93903726.07398033-1.24849908.3481777-2.4775434.8123857-3.64138453 2.18529334-2.99804214 5.09510101-5.41059187 8.46542836-7.01876868l6.19444103.52800076c1.31089512 1.42013996 1.90172109 3.5776603 2.09558586 6.14483639-.03692662.00910346-.82161736 6.45435408-2.85258164 10.91505012z"/>
      <path fill="rgb(255,255,255)" fill-rule="evenodd" d="M45.98172493 23.41410252l-2.66794852 1.7387611c-1.57861314 3.64138454 1.40321168 5.4620768 3.2587745 7.6742179l1.48629657-3.15890108 2.90797157.81931152-.61852093-5.40745602-4.36657319-1.66593342z"/>
      <g opacity=".5">
        <path fill="rgb(62,114,161)" fill-rule="evenodd" d="M50.57908951 42.92282012c-4.11731848 2.3304861-9.037791 6.62731985-13.6536189 4.06924721-.47178543-.26383523-.7719847-.74918768-.7939224-1.28358804-.13847483-2.57627955-.28618133-6.25407793-.19386477-9.10346132l.83084902-4.06014375 5.29897042 1.23807074 1.53245486 6.78207868s4.08962351 2.11200303 4.34810987 2.19393418c.25848637.08193115 1.32935844.10924154 2.6310219.1638623z"/>
      </g>
      <path fill="rgb(255,203,166)" fill-rule="evenodd" d="M48.76045332 29.48611122c-.25848636.22758653-.34157126.31862114-.62775259.34593153-3.0279831.25489691-4.48658471-3.54124646-3.39724933-5.3892491.43114059-.71198016.80167606-1.4579849 1.1077987-2.23034803l4.30195159 2.97683185c.05479344.36156973.01670368.73091794-.11077987 1.07420844-.37849789 1.06510497-.48927776 2.54896917-1.2739685 3.2226253z"/>
      <g opacity=".5">
        <path fill="rgb(255,178,148)" fill-rule="evenodd" d="M48.18809066 31.88032154c-1.53245486.33682807-3.6926623-1.46565727-2.37253553-7.51945905l4.03423358 1.92083034c-.42465617 1.06510498 1.08010372 5.00690373-1.66169805 5.59862871z"/>
      </g>
      <path fill="rgb(255,203,166)" fill-rule="evenodd" d="M45.88940837 23.16830906c-.1641673 1.1526307-.07282779 2.32666136.26771802 3.44110838.54030955 1.03764618 1.37825244 1.89561233 2.40946216 2.46703802.46493285.288427 1.0480121.31941407 1.54168652.08193115.53543603-.27310384 2.28945063-4.0237299 2.28945063-4.0237299.42199617-.90687235.73194034-1.86046965.92316558-2.84027994.22155974-1.32000189.3969612-4.36055797-3.41571264-5.26180064-1.67189644-.43104872-3.42594328.32099017-4.24656166 1.82069226-.66467922 1.1288292-.53543603 3.64138453-.53543603 3.64138453l.76622742.67365614z"/>
      <path fill="rgb(34,34,34)" fill-rule="evenodd" d="M45.97249328 23.33217136c-.26644617.68590925-.40408614 1.41390837-.40619286 2.14841688.1783446 1.01294595.51466857 1.9925525.99701883 2.90400416.42465616.8011046.78469074 1.98455456 1.63400307 2.3304861.84931233.34593152 2.50177872.39144883 3.23107952-.60993191.72930081-1.00138075.38772955-3.73241915.38772955-3.73241915-.12001153.22758654-.28618133.6372423-.57236266.24579346-.19386477-.25489692-.99701883-.20027615-1.65246639.118345-.65544756.31862114-.65544756.64634575-1.33859008.53710422-.68314253-.10924154-1.34782175-.81020806-1.65246639-2.03917534-.08843817-.65236932.00408103-1.31617854.26771802-1.92083034l-.89547061.01820692z"/>
      <path fill="rgb(34,34,34)" fill-rule="evenodd" d="M44.97547445 22.70403253l1.3570534 1.56579535.53543604-.95586344c.09367529-.22822903.27710411-.40930816.5084447-.5019316.2313406-.09262344.49086217-.08889144.71936552.01034469 1.08375038.31487232 2.2314469.34935805 3.33262773.10013807 2.56640031-.30951768 1.1908836 1.69324381 1.1908836 1.69324381 1.2188506-1.11648665 1.65661156-2.83607956 1.11703035-4.38786836-.48416076-1.46730119-1.65079932-2.61773934-3.13876297-3.09517685-2.02952598-.87688748-4.39668778.02029198-5.30820207 2.01186496-.34821322 1.15323863-.45500185 2.36425442-.3138763 3.55945337z"/>
      <path fill="rgb(255,203,166)" fill-rule="evenodd" d="M45.89864003 21.49327218c-.18458365-.22470936-.50089284-.296112-.76622743-.17296577-.1333024.09351493-.22567667.23340548-.25848636.39144884-.02781623.1535434-.02781623.31073313 0 .46427653.01814367.27224485.05515674.54294643.11077987.81020805.01258578.22612098.1195203.43702013.29541298.58262153.18463312.12744846.37849789.36413845.563131.22758653.57405722-.65494775.60107617-1.617929.0646216-2.30317571h-.00923166z"/>
      <path fill="rgb(255,203,166)" fill-rule="evenodd" d="M49.8497887 27.96583318l.68314253-.1911727c.563131-.14565537.57236266-.71006997.15693815-.64634575-.2913468.03267468-.57520556.11265096-.84008067.23669-.40619286.2093796-.40619286.69186306 0 .60082845z"/>
      <path fill="rgb(67,82,90)" fill-rule="evenodd" d="M47.5972647 75.65886703c.02410696.47182298.27877051.90281154.68314252 1.15613959.14742985.08850612.33261625.08850612.4800461 0l32.09846716-18.06126726c.14501407-.09266188.22382649-.25869578.20309642-.42786268-.02410696-.47182298-.27877051-.90281154-.68314252-1.15613959-.14742986-.08850612-.33261625-.08850612-.4800461 0L47.80036112 75.2219009c-.14323288.09840573-.22100326.2657303-.20309643.43696614z"/>
      <path fill="rgb(67,82,90)" fill-rule="evenodd" d="M49.14818287 68.44892567v27.20114242c-.02629822.27178003-.19922863.50843256-.45235114.61903537-.69254267.33686738-1.5045914.33686738-2.19713407 0-.2531225-.1106028-.42605292-.34725534-.45235114-.61903537V68.44892567c.02437489-.27248956.19793746-.5100072.45235114-.61903537.6904816-.3454722 1.50665247-.3454722 2.19713407 0 .25441368.10902817.42797625.3465458.45235114.61903537z"/>
      <path fill="rgb(67,82,90)" fill-rule="evenodd" d="M82.54831348 48.58517307c-.6904816-.3454722-1.50665247-.3454722-2.19713407 0-.25574044.10739806-.4299642.34582053-.45235113.61903537V76.3962474c.0230825.27515134.19651489.5159811.45235113.62813883.69254267.33686738 1.5045914.33686738 2.19713407 0 .25327958-.11521692.42549716-.3543598.45235114-.62813883V49.20420844c-.02629822-.27178003-.19922863-.50843257-.45235114-.61903537z"/>
      <path fill="rgb(67,82,90)" fill-rule="evenodd" d="M29.31858625 56.84201248c-.6904816-.34547219-1.50665248-.34547219-2.19713408 0-.2531225.11060281-.42605292.34725534-.45235113.61903537v27.19203897c.02685398.27377904.19907156.5129219.45235113.62813883.69254267.33686737 1.5045914.33686737 2.19713408 0 .25583624-.11215772.42926863-.3529875.45235113-.62813883V57.46104785c-.02238693-.27321483-.1966107-.5116373-.45235113-.61903537z"/>
      <path fill="rgb(226,96,51)" fill-rule="evenodd" d="M84.08076834 50.7426934L47.63419132 71.34382637 25.41359585 58.7901532v-1.8115888l36.45580868-18.78954417L84.08076834 48.9311046v1.8115888z"/>
      <path fill="rgb(249,115,57)" fill-rule="evenodd" d="M84.08076834 48.9311046L47.63419132 69.53223756 25.41359585 56.9785644l36.45580868-20.60113296L84.08076834 48.9311046z"/>
      <path fill="rgb(255,255,255)" fill-rule="evenodd" d="M73.51052247 48.36669c.34015882-.62478876.86496922-1.13278011 1.5047599-1.45655382 1.05240876-.45517306 1.74478294.355035 1.49552823 1.67503689-.23422557 1.0365201-.85334656 1.94906017-1.73555128 2.55807263L51.7699731 64.2249196l-16.75545525-9.531324 22.53447177-12.83588046 15.57072916 7.59566413c.06340301-.3458587.19307085-.71779883.39080368-1.08668929z"/>
      <path fill="rgb(255,255,255)" fill-rule="evenodd" d="M73.51052247 48.36669c.34015882-.62478876.86496922-1.13278011 1.5047599-1.45655382 1.05240876-.45517306 1.74478294.355035 1.49552823 1.67503689-.23422557 1.0365201-.85334656 1.94906017-1.73555128 2.55807263L51.7699731 64.2249196l-16.75545525-9.531324 38.15600273-4.16907577c-.19914528-.53118696-.0920396-1.35179117.34000188-2.15782985z"/>
      <path fill="rgb(255,255,255)" fill-rule="evenodd" d="M51.7699731 64.28864384l-16.7831502-9.54953092.05538993-.09103461 16.72776028 9.52222054 22.94989627-13.07257046c.88106933-.59795658 1.5008732-1.50174791 1.73555129-2.53076225.17336527-.54495728.03580061-1.13974955-.36003458-1.55669188-.31624153-.21321986-.72782577-.23086633-1.06164041-.0455173-.63073876.31384667-1.14691847.81331453-1.47706493 1.42924342-.42042552.64966756-.52853556 1.44923346-.29541298 2.18483072.10591737.22991495.320112.39344029.57236266.43696614.64657313.005429 1.25164507-.31348065 1.6063081-.8466219.4813515-.59375118.7390845-1.33369323.7293008-2.0937961 0-.47338-.2492547-.76469076-.59082596-.81931153-.563131-.08193115-1.44936996.5188973-1.84633116 1.55669189-.28618133.71006998-.2492547 1.39282958.0830849 1.65682996.33233961.26400038.64621591.13655192 1.1077987-.17296577l.06462159.09103462c-.50774107.33682807-.92316558.4005523-1.23704188.1638623-.41815325-.52395853-.46586306-1.24776302-.12001152-1.82069226.45235113-1.11062228 1.39398002-1.70234727 1.99403765-1.61131266.2307914 0 .61852094.20027615.67391087.91034614.01799035.78661923-.24690198 1.55413668-.74776412 2.16662379-.3721859.57336943-1.01753147.9173608-1.70785632.91034613-.28301505-.05793137-.52217725-.24323508-.6462159-.50069037-.24800846-.7673511-.13990342-1.60352505.29541298-2.2849688.34346546-.63317688.87493645-1.14773872 1.5232232-1.47476073.37050197-.2037727.82687314-.17896768 1.1724203.06372423.42988572.44270341.5819237 1.08076368.39696119 1.66593342-.24333532 1.06650865-.8905751 2.00109184-1.80940453 2.6126934L51.7699731 64.28864384z"/>
      <g>
        <path fill="rgb(77,77,77)" fill-rule="evenodd" d="M41.49514022 53.30076603l12.3796504 7.04607906 7.14530158-4.07835067-.50774107-.29131076-1.56938148.90124267-1.1908836-.6827596-.30464464.17296576 1.18165194.6827596-4.75430272 2.71283148-4.42196312-2.52165879 3.5080292-1.99365803.1661698-.09103461 1.08933538-.61903537 1.38474837.78289767.30464464-.17296576-1.38474837-.79200114 1.39398002-.79200113-.30464464-.17296577-2.7971917 1.59310573-.1661698.09103462-3.49879754 1.99365803-1.9017211-1.0833119 4.45888975-2.5398657-.30464464-.17296577-4.4681214 2.5398657-4.41273147-2.51255532 9.93326163-5.65324948 4.41273146 2.51255532-3.64650403 2.07558919.30464464.17296576 5.15126392-2.93131454-.3138763-.17296577-1.18165193.6827596-4.42196312-2.52165879 4.76353438-2.703728 4.41273146 2.51255532-1.72631963.98317382.30464464.17296576 1.72631963-.98317382 1.91095275 1.0833119-6.46215905 3.67779837.30464464.18206923 1.39398003-.8011046 1.32012677.7555873.30464465-.17296577-1.32012678-.7555873 4.76353438-2.71283147 4.41273147 2.52165879-4.75430273 2.70372801-1.1908836-.67365614-.30464464.17296577 1.18165194.6827596-1.5047599.85572536.50774108.29131076 7.08991164-4.03283336-12.37041875-7.04607906-16.02615444 9.12166824z"/>
        <path fill="rgb(255,255,255)" fill-rule="evenodd" d="M50.7083327 57.96173823l-.50774107.29131076 1.86479446 1.06510497.51697273-.29131076-1.87402613-1.06510497z"/>
        <path fill="rgb(77,77,77)" fill-rule="evenodd" d="M50.20059204 58.25307509l.50775147-.2913208h.0092163l1.846344 1.0651245-.51696777.2913208-1.846344-1.0651245zm2.224823.77374267l-1.71707153-.9831543-.3600464.20935059 1.71710206.9741211.36001587-.20031739z"/>
        <path fill="rgb(255,255,255)" fill-rule="evenodd" d="M43.79382251 54.01993947l-.50774107.29131077 1.86479447 1.06510497.51697273-.29131076-1.87402613-1.06510498z"/>
        <path fill="rgb(77,77,77)" fill-rule="evenodd" d="M43.28607178 54.31124159l.50775146-.2913208h.00921631l1.846344 1.06512451-.51696778.2913208-1.846344-1.06512451zm2.224823.77380371l-1.71707154-.97406006-.36004638.20025635 1.71710205.98321533.36001587-.20941162z"/>
        <path fill="rgb(255,255,255)" fill-rule="evenodd" d="M67.93460238 52.33579913l-.50774107-.29131076-1.87402612 1.06510497.50774107.29131076 1.87402612-1.06510497z"/>
        <path fill="rgb(77,77,77)" fill-rule="evenodd" d="M65.54360962 53.12783094l1.846344-1.0651245v-.01818848l.50772094.30950927-1.84631348 1.06512452-.50775146-.2913208zm2.19714355-.77386474l-.35079956-.20025635-1.71710205.97406006.35079956.20025635 1.71710205-.97406006z"/>
        <path fill="rgb(255,255,255)" fill-rule="evenodd" d="M57.69669612 58.16201437l-.50774107-.29131076-1.87402612 1.06510498.51697272.29131076 1.86479447-1.06510498z"/>
        <path fill="rgb(77,77,77)" fill-rule="evenodd" d="M55.38879395 58.93581434l1.84634399-1.0651245.50772095.2913208-1.84631348 1.0651245-.50775146-.2913208zm2.20635986-.7738037l-.36001587-.20025636-1.71710205.97406006.35079956.20941162 1.72631836-.98321533z"/>
        <path fill="rgb(255,255,255)" fill-rule="evenodd" d="M56.0719247 45.58103083l-.50774107-.29131076-1.87402612 1.06510497.51697272.29131076 1.86479447-1.06510497z"/>
        <path fill="rgb(77,77,77)" fill-rule="evenodd" d="M53.71786499 46.3548207l1.846344-1.06512452h.0092163l.50775147.2913208-1.846344 1.06512451-.51696777-.2913208zm2.20635986-.77380372l-.36001587-.20025635-1.71710205.97406006.36004639.20941162 1.71707153-.98321533z"/>
        <path fill="rgb(255,255,255)" fill-rule="evenodd" d="M49.84055705 49.13138075l-.50774107-.29131077-3.65573569 2.07558918.50774107.29131077 3.65573569-2.07558918z"/>
        <path fill="rgb(77,77,77)" fill-rule="evenodd" d="M45.64016724 50.9156117l3.69265747-2.07556152v.036438l.51696777.29125976-3.69265747 2.07562256-.51696777-.3277588zm4.05270385-1.78424072l-.36004638-.20935058h-.02767945l-3.49880981 1.99365234.35079956.20941162 3.53573608-1.99371338z"/>
        <path fill="rgb(255,255,255)" fill-rule="evenodd" d="M59.30300423 45.189582l-.50774107.29131076 1.86479447 1.06510497.51697272-.29131076-1.87402612-1.06510498z"/>
        <path fill="rgb(77,77,77)" fill-rule="evenodd" d="M58.79525757 45.48091932l.50775146-.2913208h.00921631l1.846344 1.06512451-.51696778.2913208-1.846344-1.0651245zm2.224823.77374268l-1.71707154-.97406006-.36004638.20025635 1.71710205.98321533.36001587-.20941162z"/>
        <path fill="rgb(255,255,255)" fill-rule="evenodd" d="M66.2175144 49.13138075l-.50774106.29131076 1.86479447 1.06510497.51697272-.29131076-1.87402612-1.06510497z"/>
        <path fill="rgb(77,77,77)" fill-rule="evenodd" d="M65.70977783 49.42269178l.50775147-.2913208h.0092163l1.846344 1.06512452-.51696777.2913208-1.846344-1.06512452zm2.224823.77380372l-1.71707153-.9831543-.36004639.20935058 1.71710205.9741211.36001587-.20031738z"/>
        <path fill="rgb(255,255,255)" fill-rule="evenodd" d="M47.70804456 55.67676943l-.50774106.29131077 1.99403764 1.1288292.50774107-.29131076-1.99403765-1.1288292z"/>
        <path fill="rgb(77,77,77)" fill-rule="evenodd" d="M47.20031738 56.0044789l.50775147-.2913208 1.99401855 1.1288452-.50772094.2913208-1.99404908-1.1288452zm2.35406494.8375244l-1.84634399-1.046875-.35079956.2093506 1.846344 1.0378418.35079955-.2003174z"/>
        <path fill="rgb(255,255,255)" fill-rule="evenodd" d="M48.14193239 55.42187252l-.50774107.29131076 1.99403765 1.13793266.50774106-.29131076-1.99403764-1.13793266z"/>
        <path fill="rgb(77,77,77)" fill-rule="evenodd" d="M47.6341858 55.71321913l.50775146-.2913208 1.99401855 1.13793945-.50772095.2913208-1.99404907-1.13793945zm2.35409545.84655762l-1.846344-1.046875-.35079955.20025634 1.84634399 1.04693604.35079956-.20031738z"/>
        <path fill="rgb(255,255,255)" fill-rule="evenodd" d="M48.5758202 55.17607906l-.50774106.29131076 1.99403765 1.13793267.50774107-.29131076-1.99403765-1.13793267z"/>
        <path fill="rgb(77,77,77)" fill-rule="evenodd" d="M48.06808472 55.46736952l.50775146-.2913208 1.99401856 1.13793945-.50772095.2913208-1.99404907-1.13793945zm2.35406494.84661865l-1.846344-1.046875-.35079956.20025635 1.846344 1.04693603.35079956-.20031738z"/>
        <path fill="rgb(255,255,255)" fill-rule="evenodd" d="M49.00970803 54.9302856l-.50774107.29131077 1.99403765 1.13793266.50774107-.29131076-1.99403765-1.13793266z"/>
        <path fill="rgb(77,77,77)" fill-rule="evenodd" d="M48.50195313 55.22158094l.50775146-.2913208 1.99401855 1.13793946-.50772094.2913208-1.99404907-1.13793946zm2.35409545.84661866l-1.84634399-1.046875-.35079956.20025634 1.846344 1.04693604.35079955-.20031738z"/>
        <path fill="rgb(255,255,255)" fill-rule="evenodd" d="M49.44359585 54.68449215l-.50774107.29131076 1.984806 1.1288292.51697272-.2822073-1.99403765-1.13793266z"/>
        <path fill="rgb(77,77,77)" fill-rule="evenodd" d="M49.43435669 54.68447157l.00457764.00262451-.51229859.28869629 1.98480225 1.12884522.51696777-.28222657-1.98944092-1.13531494.00463868-.00262451h-.00924683zm.00924683.09106445l1.84631347 1.046875-.36001587.20031739-1.846344-1.04693604.35079957-.20025635h.00924683z"/>
        <path fill="rgb(255,255,255)" fill-rule="evenodd" d="M49.87748367 54.4386987l-.50774107.29131076 1.984806 1.1288292.51697272-.29131076-1.99403765-1.1288292z"/>
        <path fill="rgb(77,77,77)" fill-rule="evenodd" d="M49.34204102 54.7300038l.50775146-.2913208 1.99401856 1.12884521-.51696778.2913208-1.98480224-1.12884521zm2.35406494.83752441l-1.84631348-1.03778076-.36004639.20025635 1.846344 1.04693603.36001587-.20941162z"/>
        <path fill="rgb(255,255,255)" fill-rule="evenodd" d="M50.3113715 54.19290524l-.50774107.29131076 1.98480599 1.1288292.51697272-.29131076-1.99403765-1.1288292z"/>
        <path fill="rgb(77,77,77)" fill-rule="evenodd" d="M49.80361938 54.48421522l.50775147-.2913208 1.99401855 1.12884522-.51696777.2913208-1.98480225-1.12884522zm2.35406495.83752442l-1.84631348-1.046875-.36004639.20935058 1.846344 1.04693604.36001587-.20941162z"/>
        <path fill="rgb(255,255,255)" fill-rule="evenodd" d="M50.74525932 53.94711178l-.50774107.29131077 1.984806 1.1288292.51697272-.29131076-1.99403765-1.1288292z"/>
        <path fill="rgb(77,77,77)" fill-rule="evenodd" d="M50.26522827 54.2657704l.50775147-.2913208 1.99401855 1.12884521-.51696777.2913208-1.98480225-1.12884521zm2.35406494.81011963l-1.84631347-1.046875-.36004639.20935058 1.846344 1.04693604.36001586-.20941162z"/>
        <path fill="rgb(77,77,77)" fill-rule="evenodd" d="M51.77920476 53.41000757l-.15693814.08193115-1.86479447-1.06510498.15693815-.08193115 1.86479446 1.06510498z"/>
        <path fill="rgb(77,77,77)" fill-rule="evenodd" d="M53.48706055 52.39046522h.0553894c-.671875-.33422851-1.41394043-.47454834-2.14474487-.4210205.71270752-.04864503 1.4356079.09173583 2.08935547.4210205zm-3.62805176-.00006103c.48641968-.24194336 1.00961304-.38226319 1.53866577-.42102051-.52935791.03613281-1.05307007.17645264-1.53866577.4210205z"/>
        <path fill="rgb(77,77,77)" fill-rule="evenodd" d="M57.8259393 56.24118404L55.96114483 57.306289l-.15693815-.09103461 1.86479447-1.05600152.15693815.08193116z"/>
        <path fill="rgb(77,77,77)" fill-rule="evenodd" d="M55.93347168 55.11232802c-.1616211.03936767-.30752564.11254882-.4307251.21081542.10806275-.0914917.23468018-.16381835.3753357-.21081542h.0553894zm-.4307251.21081542c-.25393677.20251465-.41149902.51141358-.41149902.84973145s.15756225.6472168.41149902.84973145c-.24612427-.20843506-.39593506-.51617432-.39593506-.84973145 0-.33355713.1498108-.64129639.39593506-.84973145zm0 1.69952393c.10806275.0914917.23468018.16381836.3753357.21081543h.0553894c-.1616211-.03936768-.30749512-.11254883-.4307251-.21081543z"/>
        <path fill="rgb(77,77,77)" fill-rule="evenodd" d="M62.72794852 51.36172877l-1.87402612 1.05600151-.1477065-.08193115 1.86479447-1.06510497.15693815.0910346z"/>
        <path fill="rgb(77,77,77)" fill-rule="evenodd" d="M62.64486362 53.43731795c.44757437-.15149434.74814898-.56660761.74814898-1.03324286 0-.46663525-.30057461-.88174852-.74814898-1.03324286.42268523.17407064.69791415.58153955.69791415 1.03324286 0 .45170331-.27522892.85917222-.69791415 1.03324286z"/>
        <path fill="rgb(77,77,77)" fill-rule="evenodd" d="M60.6046677 56.0135975l-.15693816.09103462-1.86479447-1.06510498.15693815-.09103461 1.86479447 1.06510497z"/>
        <path fill="rgb(77,77,77)" fill-rule="evenodd" d="M62.39560891 54.99400984h-.05538993c-1.14147385-.56504247-2.48656687-.56504247-3.62804072 0h-.05538994c1.17619812-.58283613 2.56262248-.58283613 3.7388206 0z"/>
        <path fill="rgb(77,77,77)" fill-rule="evenodd" d="M58.73987322 49.43179497l-.14770649.09103461-1.86479447-1.06510497.1477065-.08193115 1.86479446 1.0560015z"/>
        <path fill="rgb(77,77,77)" fill-rule="evenodd" d="M60.53081444 48.4122073c-1.14256802-.5739663-2.49470434-.5739663-3.63727237 0 1.1476765-.55258124 2.48959587-.55258124 3.63727237 0z"/>
        <path fill="rgb(77,77,77)" fill-rule="evenodd" d="M48.78814697 51.62575575c.28839112.1520996.63476563.1520996.92315674 0 .10916138-.03607178.18273926-.13684082.18273926-.25036621 0-.1135254-.07357788-.21429444-.18273926-.25036621-.28839111-.15209961-.63476562-.15209961-.92315674 0-.10916137.03607177-.18273926.13684082-.18273926.2503662 0 .1135254.07357789.21429444.18273926.25036622zm-.02767944-.25494385c0-.10113525.06768799-.19012451.16616821-.21844482.24124146-.11865235.5249939-.11865235.76623535 0 .22155762.11828613.22155762.31860351 0 .43695068-.23895263.12786865-.52728271.12786865-.76623535 0-.09848022-.02832031-.16616821-.1173706-.16616821-.21850586z"/>
        <path fill="rgb(77,77,77)" fill-rule="evenodd" d="M53.33013916 57.50655409c.28839111.1520996.63476563.1520996.92315674 0 .10916138-.03607178.18273926-.13684082.18273926-.25036621 0-.1135254-.07357788-.21429444-.18273926-.25036621-.28839111-.15209961-.63476563-.15209961-.92315674 0-.10916138.03607177-.18273926.13684082-.18273926.2503662 0 .1135254.07357788.21429444.18273926.25036622zm-.07388306-.24578857c0-.10113526.067688-.19012452.16616822-.21844483.24221801-.12786865.53323364-.12786865.77545166 0 .09848022.02832031.1661682.11730957.1661682.21844483 0 .10119628-.06768798.19018554-.1661682.21850585-.24594117.11224366-.52947998.11224366-.77545166 0-.09848023-.0283203-.16616822-.11730957-.16616822-.21850585z"/>
        <path fill="rgb(77,77,77)" fill-rule="evenodd" d="M56.31195068 47.31978651c.28839112.15209961.63476563.15209961.92315674 0 .11224365-.0303955.19003296-.13104248.19003296-.24578857 0-.11480713-.0777893-.21539307-.19003296-.24584961-.28839111-.15209961-.63476562-.15209961-.92315674 0-.11224365.03045654-.19003296.13104248-.19003296.2458496 0 .1147461.07778931.21539307.19003296.24578858zm.10153199-.02734375c-.22155762-.11834717-.22155762-.31860351 0-.43695068h.02770996c.23156738-.1182251.50692749-.1182251.73852539 0 .09848022.02832031.16616821.1173706.16616821.21850586 0 .10113525-.06768799.1901245-.16616821.21844482-.23895264.12792969-.52728272.12792969-.76623535 0z"/>
        <path fill="rgb(77,77,77)" fill-rule="evenodd" d="M58.29675293 54.23842665c.27120972.14239502.5965271.14239502.86776733 0 .24923706-.13659668.24923706-.36413574 0-.50073242-.27124023-.14239502-.59655761-.14239502-.86776733 0-.24926758.13659668-.24926758.36413574 0 .50073242zm-.1135254-.25036621c0-.1001587.06396485-.18951416.15966798-.22302246.24597168-.11224366.5295105-.11224366.77545166 0 .09573364.0335083.15969848.12286377.15969848.22302246 0 .10021972-.06396484.18951416-.15969848.22302246-.24594116.11230469-.52947998.11230469-.77545166 0-.09570313-.0335083-.15966797-.12280274-.15966797-.22302246z"/>
        <path fill="rgb(77,77,77)" fill-rule="evenodd" d="M57.88134766 51.0157704c.27597046.13641357.6010437.13641357.87701416 0 .10913086-.03601074.18270874-.13684082.18270874-.25030518 0-.11352539-.07357788-.21435547-.18270874-.2503662-.27597046-.13641358-.6010437-.13641358-.87701416 0-.10916138.03601073-.18273926.13684081-.18273926.2503662 0 .11346436.07357788.21429444.18273926.25030518zm-.10430909-.25030518c0-.10015869.06396485-.18951416.15966797-.22302246.24597168-.11224365.5295105-.11224365.77545166 0 .09573365.0335083.15969849.12286377.15969849.22302246 0 .10021973-.06396484.18951416-.15969849.22302246-.24594116.11230469-.52947998.11230469-.77545166 0-.09570312-.0335083-.15966797-.12280273-.15966797-.22302246z"/>
        <path fill="rgb(77,77,77)" fill-rule="evenodd" d="M64.3157959 51.39815565c.28839111.15209961.63476562.15209961.92315674 0 .10916137-.03607178.18273925-.13684082.18273925-.2503662 0-.1135254-.07357788-.21429444-.18273925-.25036622-.28839112-.15209961-.63476563-.15209961-.92315674 0-.10916138.03607178-.18273926.13684082-.18273926.25036621 0 .1135254.07357788.21429443.18273926.25036621zm-.05813599-.2503662c0-.1001587.06396485-.18951417.15966797-.22302247.24597168-.11224365.5295105-.11224365.77548218 0 .09570312.0335083.15966797.12286377.15966797.22302246 0 .10021973-.06396485.18951416-.15966797.22302246-.24597168.11230469-.5295105.11230469-.77548218 0-.09570312-.0335083-.15966797-.12280273-.15966797-.22302246z"/>
      </g>
      <path fill="rgb(241,242,242)" fill-rule="evenodd" d="M76.08615444 46.87372234l-16.81084518-9.51311708c-.31779199-.16509703-.69769015-.16509703-1.01548214 0-.63979328.3237725-1.164601.83176762-1.50475989 1.4565538-.60005763 1.10151883-.57236266 2.25765842.04615828 2.60358995l16.72776028 9.59504823c-1.46783327-1.28358805.92316557-4.7064895 2.55716865-4.1420749z"/>
      <path fill="rgb(67,82,90)" fill-rule="evenodd" d="M46.04634652 74.1841063v2.17572725L28.50620054 66.4643711c-.13822834-.09763749-.21233164-.26118467-.19386477-.42786268.03607256-.4704506.30098581-.89453269.7108375-1.13793267.14742984-.08850612.33261624-.08850612.4800461 0l16.54312715 9.28553055z"/>
      <path fill="rgb(32,162,106)" fill-rule="evenodd" d="M62.25713408 41.17495555l-2.96336151-3.39559107-1.84633116-2.08469264-.52620438-.1638623.35080292-1.13793267 1.15395698-3.76883299 2.32637725 1.93903726 4.5512063 6.10842255c.99701883 1.8115888-1.8370995 3.46841876-3.0464464 2.50345186z"/>
      <path fill="rgb(32,162,106)" fill-rule="evenodd" d="M35.30993085 41.4480594c-.06645648 1.76070394.3043285 3.5107571 1.08010373 5.09793833 1.64323472 3.27724608 2.24329235 5.54400794 5.01278909 8.11118404.8770073 1.23807074 3.88652708-.71006999 3.32339608-2.23945149-1.49552824-3.46841876-2.34484057-4.81573104-3.96961199-9.3674617l1.20011525-8.11118403c.32310795-2.7310384-.38772954-7.52856251-3.40648098-6.0264914-3.24031118 2.17572726-3.20338456 8.42070172-3.24031118 12.53546624z"/>
      <path fill="rgb(255,203,166)" fill-rule="evenodd" d="M42.28906262 54.37497447l.17540146.21848307c.51276919.992904 1.3667625 1.77373362 2.40946216 2.20303764l.65544756 1.05600151.2492547 1.31089843c.22155974.8466219.6277526.55531114.61852094-.05462077l-.0830849-.81931152-.36003457-1.31089843h.38772954l.60005762.50979384.72930081.97407036.12924318.39144884c.0656447.21713623.26874276.36549013.49850941.36413845h.0646216l.07385324.09103461c.11356481.14180444.31867343.17353156.47081445.0728277.16122598-.1149719.24896051-.3053076.23079139-.50069038l-.11077987-.91034613-.48927776-1.00138075.59082597.39144884.35080292.59172498.1477065.5644146c.18463311.55531115.58159431.3095177.60928928-.15475884l-.12001153-.7737942-.70160584-1.26538113-1.41244333-1.30179497-2.88950826-1.56579535-.45235113-.48248345c-.72930081-1.05600151-2.85258164.50069037-2.37253554 1.40193305z"/>
      <path fill="rgb(255,203,166)" fill-rule="evenodd" d="M62.99566654 40.55592018l.28618133.33682807.28618133 1.82069226.8123857 1.16524305.44311948.73738037.86777565.6372423c.42465616.25489691.68314252-.24579346.36003457-.72827691l-.61852093-.7282769-.13847484-.85572537c.43671577-.31815554 1.0164965-.3707687 1.5047599-.13655192.48826338.23421677.53543603.98317382.55389934 1.02869113.0184633.0455173.4154245.97407036.4154245.97407036.28618134.8011046.92316559.61903537.7754591-.05462077l-.40619286-1.19255343-.28618133-.91034613.98778717 1.02869112.58159431.91034614c.36003458.52800075.92316558.37324191.7108375-.14565538l-.45235114-.91034614-.50774106-.8466219.92316557.71917344.3784979.73738037c.09190056.23217857.31962249.38429964.57236265.38234538.10096614-.02318935.1813203-.09841018.21005313-.19663414.02873283-.09822396.00135112-.2040909-.0715783-.27674585.12924319-.118345 0-.39144884-.04615827-.52800076l-.85854399-1.0833119-2.44638878-1.7387611-2.25252401-1.17434652-.69237419-.71917344c-.90470226-.59172499-2.41869381 1.0104842-1.89248943 1.74786457z"/>
      <g opacity=".5">
        <path fill="rgb(62,114,161)" fill-rule="evenodd" d="M61.4170534 40.21909211l-2.12328083-2.43972763-1.84633116-2.08469264-.52620438-.1638623-3.93268536-1.28358805c.24282414-1.11306208.24282414-2.26432207 0-3.37738415l4.26502497 3.52303953.34157127.29131076.10154821.09103461 3.72035728 5.44386987z"/>
      </g>
      <path fill="rgb(255,203,166)" fill-rule="evenodd" d="M29.77093738 30.25080197h1.9017211l3.54495581-.50979384 2.12328083 1.14703613 1.61553976.91034613 1.79094122 1.93903726c.32310796.41875922 0 .73738037-.563131.37324192l-1.7724779-1.42013997c.06666775.39632252-.16790555.78184905-.55389936.91034613-.08996366.41199908-.41406774.73515367-.83084902.82841498-.1977074.29251955-.50769792.49302319-.85854398.55531114l-1.5232232.355035-.63698426-.39144884-.09231655-.64634576-1.56014983-.5644146-.84008068-.63724229-2.24329235-1.37462266.49850941-1.47476073z"/>
      <path fill="rgb(32,162,106)" fill-rule="evenodd" d="M32.38349597 30.18707774c-1.40321168.07282769-1.1077987 2.26676187-.72930081 3.02234916-4.19117173-.17296577-11.21646178-1.13793267-13.19203611-3.26814262-3.16645794-3.64138453-5.18819055-8.88497825-6.12058779-11.94374125-1.96634268-7.4830452 5.69593162-6.03559486 6.82219363-2.35779648.84931233 3.26814261 1.9201844 5.81711178 3.51726085 10.64194628l9.70247023 3.9053849z"/>
      <path fill="none" d="M58.66601998 46.90103272l-2.4648521-.43696614"/>
      <path fill="rgb(255,255,255)" fill-rule="evenodd" d="M57.52129466 44.76171931l-12.72122167 7.0824929 3.16645794 3.177108 1.22781021 1.00138075.50774107.78289768.41542451.74648383 3.7572839 2.2121411 14.992209-8.53904672-11.34570496-6.46345754z"/>
      <path fill="rgb(241,242,242)" fill-rule="evenodd" d="M56.8012255 48.42131076l5.59438341 1.9754511-1.87402612 3.71421223-6.32368421 2.93131454-6.3883058-4.21490259 4.61582789-3.30455646 4.37580484-1.10151882z"/>
    </g>
  </g>
</svg>
