<svg width="266" height="48" viewBox="0 0 266 48" fill="none" xmlns="http://www.w3.org/2000/svg">
<path d="M44.2861 27.0263C43.6993 26.1676 43.022 24.9017 42.3899 23.6359C41.7579 22.4153 41.2617 20.3362 41.2617 18.9796L41.2164 18.5281C40.6739 10.3906 33.5864 3.97163 25.1896 4.60456C20.2237 4.96639 15.8899 7.81458 13.4523 11.8823L16.3418 12.6956L21.5331 18.4817L24.783 22.2793H11.691L11.5108 21.9175C11.6014 22.369 11.691 22.8215 11.7816 23.2287L24.1962 23.3194L15.3484 27.9757L14.3551 28.5633C14.5352 28.8344 14.7617 29.1055 14.9871 29.3323V36.0677C14.9871 36.7007 15.3937 37.2883 15.9805 37.4697L33.2251 43.3465C33.8572 43.5722 34.5345 43.0754 34.5345 42.3971V38.7799H38.6429C40.0871 38.7799 41.2617 37.6047 41.2617 36.1585V29.0158H43.2032C44.2408 29.0158 44.8728 27.885 44.2861 27.0263ZM26.0924 22.2793L21.668 17.1261L30.1997 14.2779L28.2129 18.0755L26.0924 22.2793ZM29.2073 18.2116L31.1941 14.414L35.4373 18.3466L29.2073 18.2116ZM10.4732 22.2793L0 14.2779L6.00453 14.1419L10.4732 22.2793ZM11.4666 21.9185L7.17805 14.1429L4.51497 9.30621L13.4533 11.8379C12.1439 14.0078 11.377 16.4942 11.2864 19.1156C11.2854 20.065 11.3307 21.0134 11.4666 21.9185ZM11.7373 23.2287C12.2335 25.1728 13.1373 26.9809 14.3108 28.5633L4.3338 34.3493L11.7373 23.274V23.2287Z" fill="#333333"/>
<path d="M68.3648 28.9541L69.5846 36.9864H67.1141V39.5511H74.4589V36.9864H72.3754L67.6823 8.36627H61.0385V10.9063H64.101L59.934 36.9864H57.7773V39.5511H65.1222V36.9864H62.6763L63.788 28.9541H68.3648ZM64.101 26.5471L66.0033 12.9751L68.0024 26.5471H64.101ZM75.48 8.36627V10.9063H78.2461V36.9864H75.48V39.5511H89.4378V29.7468H86.9672V36.9864H81.079V10.9063H84.0437V8.36627H75.48ZM88.8037 18.1706H91.2742V10.864H95.0182V36.9864H91.7756V39.5511H101.112V36.9864H97.8511V10.864H101.607V18.1706H104.084V8.36627H88.8037V18.1706ZM116.798 17.6933H119.268V8.3673H105.576V10.9073H108.343V36.9874H105.576V39.5522H119.583V29.7479H117.136V36.9874H111.423V24.3453H116.436V21.8053H111.423V10.9063H116.798V17.6933ZM131.143 36.9864V39.5511H138.33V36.9864H135.812L131.777 25.7967C133.196 25.2823 134.223 24.3267 134.857 22.9361C135.491 21.5455 135.812 19.6766 135.812 17.3294C135.812 14.3173 135.34 12.0732 134.392 10.5918C133.45 9.1095 131.988 8.36627 130.007 8.36627H121.485V10.9063H124.251V36.9864H121.485V39.5511H129.874V36.9864H127.084V26.1183H128.491H129.126L132.797 36.9874H131.143V36.9864ZM132.707 17.3294C132.707 18.6777 132.652 19.755 132.538 20.5652C132.423 21.3754 132.235 22.0042 131.982 22.4465C131.723 22.8938 131.384 23.1907 130.961 23.335C130.539 23.4804 130.025 23.5464 129.421 23.5464H127.084V10.9063H129.463C130.067 10.9063 130.581 10.9908 130.998 11.1609C131.409 11.3237 131.746 11.6443 132.007 12.1103C132.26 12.5824 132.441 13.2349 132.55 14.0761C132.652 14.9162 132.707 15.9996 132.707 17.3294Z" fill="#F42525"/>
<path d="M139.52 10.1486V13.2576H141.767V44.4301H139.52V47.5453H148.096V44.4301H145.239V35.2C145.776 36.0288 146.338 36.6029 146.93 36.906C147.522 37.2142 148.138 37.3657 148.767 37.3657C149.54 37.3657 150.277 37.0936 150.972 36.5493C151.667 35.9989 152.276 35.1577 152.808 34.0155C153.334 32.8785 153.75 31.4333 154.052 29.6788C154.36 27.9243 154.511 25.8379 154.511 23.4072C154.511 20.7765 154.348 18.5685 154.017 16.7789C153.679 14.9884 153.249 13.5493 152.724 12.4546C152.193 11.3598 151.601 10.5795 150.948 10.1073C150.289 9.63523 149.644 9.4002 149.015 9.4002C148.236 9.4002 147.547 9.60533 146.949 10.0228C146.345 10.4403 145.777 11.1784 145.24 12.2309V10.1506H139.52V10.1486ZM145.239 31.39V17.5397C145.348 16.9109 145.505 16.2934 145.71 15.677C145.915 15.0657 146.157 14.5162 146.435 14.0256C146.713 13.5359 147.008 13.137 147.322 12.8277C147.636 12.5257 147.95 12.368 148.264 12.368C149.242 12.368 149.962 13.305 150.415 15.1801C150.868 17.049 151.097 19.7951 151.097 23.4062C151.097 26.9863 150.789 29.7087 150.179 31.5838C149.569 33.4527 148.82 34.3908 147.932 34.3908C147.34 34.3908 146.82 34.1062 146.373 33.5321C145.934 32.9569 145.553 32.2425 145.239 31.39ZM156.623 10.1486V13.2576H158.9V33.4764H156.623V36.6153H165.199V33.4764H162.367V17.818C162.518 17.1346 162.722 16.4697 162.996 15.8336C163.262 15.1925 163.57 14.6296 163.927 14.1338C164.277 13.6441 164.663 13.2566 165.081 12.9669C165.491 12.6824 165.932 12.537 166.396 12.537C166.675 12.537 166.916 12.5855 167.133 12.6762C167.344 12.7669 167.532 12.8813 167.702 13.0092C167.869 13.1421 168.008 13.2689 168.13 13.3967C168.249 13.5297 168.341 13.6204 168.395 13.6751L169.645 10.5362C169.567 10.4815 169.44 10.3846 169.252 10.2579C169.07 10.1311 168.846 10.0043 168.588 9.88263C168.327 9.76202 168.038 9.65275 167.711 9.54967C167.391 9.44658 167.042 9.39814 166.673 9.39814C165.93 9.39814 165.205 9.64554 164.493 10.1486C163.779 10.6444 163.073 11.4794 162.366 12.6463V10.1486H156.623ZM179.111 22.1609H173.838C173.855 20.9146 173.928 19.724 174.061 18.5746C174.188 17.4253 174.363 16.4099 174.588 15.5265C174.812 14.6492 175.077 13.9482 175.39 13.4277C175.704 12.9071 176.08 12.6473 176.503 12.6473C176.967 12.6473 177.361 12.9071 177.687 13.4277C178.006 13.9482 178.273 14.6492 178.477 15.5265C178.676 16.4099 178.833 17.4253 178.929 18.5746C179.031 19.723 179.092 20.9146 179.111 22.1609ZM176.972 34.3351C175.86 34.3351 175.076 33.5486 174.615 31.9704C174.151 30.3983 173.891 28.0872 173.837 25.0514H182.723V24.4349C182.723 19.6024 182.185 15.913 181.111 13.373C180.041 10.8331 178.518 9.56307 176.556 9.56307C175.615 9.56307 174.755 9.88984 173.989 10.5485C173.221 11.2083 172.557 12.1391 172.001 13.3431C171.452 14.5472 171.017 16.0161 170.714 17.7397C170.407 19.4632 170.255 21.3868 170.255 23.5216C170.255 25.7833 170.406 27.7738 170.714 29.4974C171.017 31.2209 171.457 32.6662 172.031 33.8341C172.605 35.001 173.293 35.8844 174.102 36.4772C174.906 37.0699 175.806 37.3657 176.808 37.3657C177.659 37.3657 178.42 37.1606 179.097 36.7545C179.773 36.3493 180.359 35.7803 180.862 35.0608C181.363 34.3351 181.766 33.4764 182.081 32.4847C182.395 31.4931 182.631 30.422 182.776 29.2737H180.028C179.937 29.7757 179.823 30.32 179.695 30.9003C179.563 31.4869 179.388 32.0312 179.17 32.5456C178.947 33.0538 178.656 33.4774 178.306 33.8217C177.957 34.166 177.511 34.3351 176.972 34.3351ZM192.108 34.0032C191.479 34.0032 191.002 33.7671 190.688 33.296C190.374 32.8239 190.217 32.0868 190.217 31.0828V13.2576H194.825V10.1486H190.217V2.11012H186.744V10.1486H183.579V13.2576H186.744V31.0818C186.744 33.1806 187.184 34.7412 188.066 35.769C188.943 36.7967 190.145 37.3111 191.661 37.3111C192.179 37.3111 192.668 37.2441 193.134 37.1173C193.593 36.9843 194.016 36.8266 194.396 36.6452C194.776 36.4576 195.109 36.2524 195.393 36.0288C195.682 35.8113 195.93 35.6051 196.13 35.4175L194.601 32.7497C194.251 33.0641 193.881 33.3548 193.495 33.6145C193.104 33.8702 192.645 34.0032 192.108 34.0032ZM204.683 22.7104V30.8571C204.556 31.3405 204.381 31.8003 204.17 32.2363C203.958 32.6724 203.73 33.0466 203.476 33.361C203.227 33.6754 202.967 33.9289 202.695 34.1114C202.43 34.299 202.175 34.3897 201.935 34.3897C201.361 34.3897 200.908 33.9661 200.576 33.1136C200.243 32.2611 200.074 31.0148 200.074 29.3881C200.074 28.3294 200.13 27.4048 200.244 26.6059C200.353 25.807 200.577 25.1359 200.908 24.5916C201.241 24.0412 201.712 23.6175 202.31 23.3093C202.913 23.0072 203.704 22.8073 204.683 22.7104ZM197.635 15.9553L200.938 16.5119C201.029 15.0667 201.235 14.0142 201.548 13.3607C201.862 12.7009 202.314 12.369 202.907 12.369C203.131 12.369 203.348 12.4298 203.559 12.5504C203.77 12.671 203.965 12.9133 204.127 13.2761C204.297 13.639 204.429 14.1534 204.533 14.8183C204.635 15.4832 204.683 16.3728 204.683 17.485V20.0436C203.535 20.2126 202.479 20.4549 201.506 20.7817C200.533 21.1084 199.688 21.6166 198.964 22.3125C198.244 23.0083 197.676 23.9329 197.272 25.0947C196.862 26.2502 196.662 27.7377 196.662 29.552C196.662 30.8344 196.778 31.959 197.007 32.9332C197.237 33.9073 197.549 34.7237 197.937 35.3762C198.323 36.036 198.771 36.5318 199.271 36.8637C199.773 37.2029 200.298 37.3657 200.856 37.3657C201.761 37.3657 202.491 37.1544 203.046 36.7246C203.603 36.3009 204.147 35.6535 204.684 34.7835V36.6163H210.434V33.4774H208.157V17.5407C208.157 15.8955 208.026 14.541 207.752 13.4823C207.487 12.4298 207.112 11.5948 206.641 10.997C206.169 10.3919 205.62 9.97437 204.993 9.7445C204.364 9.51462 203.688 9.4002 202.963 9.4002C202.316 9.4002 201.695 9.49091 201.103 9.67234C200.512 9.85995 199.98 10.1981 199.508 10.6887C199.039 11.1784 198.633 11.8495 198.301 12.6906C197.967 13.5359 197.744 14.6245 197.635 15.9553ZM219.178 34.0032C218.549 34.0032 218.073 33.7671 217.759 33.296C217.445 32.8239 217.287 32.0868 217.287 31.0828V13.2576H221.896V10.1486H217.287V2.11012H213.821V10.1486H210.655V13.2576H213.821V31.0818C213.821 33.1806 214.255 34.7412 215.137 35.769C216.019 36.7967 217.215 37.3111 218.731 37.3111C219.249 37.3111 219.738 37.2441 220.204 37.1173C220.669 36.9843 221.087 36.8266 221.466 36.6452C221.846 36.4576 222.179 36.2524 222.468 36.0288C222.752 35.8113 223 35.6051 223.2 35.4175L221.676 32.7497C221.321 33.0641 220.952 33.3548 220.566 33.6145C220.175 33.8702 219.716 34.0032 219.178 34.0032ZM223.509 10.1486V13.2576H225.786V33.4764H223.509V36.6153H232.031V33.4764H229.258V10.1486H223.509ZM224.482 2.66677C224.482 3.42856 224.722 4.0584 225.218 4.55939C225.707 5.05522 226.33 5.30984 227.091 5.30984C227.834 5.30984 228.462 5.05625 228.982 4.55939C229.495 4.05737 229.753 3.42856 229.753 2.66677C229.753 1.92251 229.494 1.2937 228.982 0.774159C228.462 0.259772 227.834 0 227.091 0C226.33 0 225.708 0.259772 225.218 0.774159C224.722 1.29473 224.482 1.92354 224.482 2.66677ZM247.137 23.4062C247.137 20.9806 246.967 18.8818 246.624 17.1098C246.279 15.344 245.803 13.8864 245.192 12.7432C244.582 11.6062 243.863 10.765 243.042 10.2156C242.22 9.67131 241.333 9.39916 240.39 9.39916C239.447 9.39916 238.56 9.67131 237.726 10.228C236.892 10.7846 236.161 11.6371 235.546 12.7741C234.924 13.9173 234.44 15.3687 234.085 17.1407C233.733 18.9066 233.558 20.9992 233.558 23.4072C233.558 25.8389 233.733 27.9254 234.085 29.6788C234.44 31.4333 234.917 32.8785 235.528 34.0155C236.144 35.1587 236.864 35.9989 237.696 36.5493C238.53 37.0936 239.43 37.3657 240.391 37.3657C241.334 37.3657 242.221 37.0936 243.043 36.5493C243.864 35.9989 244.582 35.1577 245.193 34.0155C245.804 32.8785 246.28 31.4333 246.625 29.6788C246.967 27.9243 247.137 25.8379 247.137 23.4062ZM243.749 23.4062C243.749 26.9863 243.465 29.7087 242.903 31.5838C242.341 33.4527 241.501 34.3908 240.39 34.3908C239.242 34.3908 238.385 33.4537 237.823 31.5838C237.254 29.7087 236.979 26.9873 236.979 23.4062C236.979 19.8312 237.256 17.0985 237.823 15.2048C238.385 13.3174 239.242 12.368 240.39 12.368C241.501 12.368 242.34 13.305 242.903 15.1801C243.465 17.05 243.749 19.7962 243.749 23.4062ZM249.189 10.1486V13.2576H251.466V33.4764H249.189V36.6153H256.631V33.4764H254.94V18.5736C255.049 17.8479 255.236 17.1284 255.496 16.414C255.756 15.7007 256.05 15.0595 256.385 14.4843C256.717 13.9091 257.073 13.438 257.452 13.0813C257.832 12.7185 258.208 12.537 258.576 12.537C258.818 12.537 259.023 12.604 259.186 12.7308C259.356 12.8638 259.488 13.1061 259.592 13.4689C259.693 13.8318 259.767 14.3276 259.815 14.9564C259.856 15.5852 259.881 16.4078 259.881 17.4304V33.4764H258.16V36.6153H265.631V33.4764H263.354V16.348C263.354 14.1225 263.058 12.4102 262.467 11.2011C261.874 9.99705 260.89 9.39916 259.519 9.39916C258.576 9.39916 257.737 9.73213 257.006 10.4094C256.276 11.0866 255.586 11.9814 254.94 13.0947V10.1496H249.189" fill="#333333"/>
</svg>
