<svg xmlns="http://www.w3.org/2000/svg" id="SvgjsSvg1796312" width="4096" height="1270.8827538260712" version="1.1" xmlns:xlink="http://www.w3.org/1999/xlink" xmlns:svgjs="http://svgjs.com/svgjs"><defs id="SvgjsDefs1796313"></defs><g id="SvgjsG1796314" transform="translate(328, 327.99999999999994) scale(34.4)" opacity="1"><defs id="SvgjsDefs510309"></defs><g id="SvgjsG510310" transform="scale(0.22737697675383337)" opacity="1"><g id="SvgjsG510311" class="7ABJhMkrW" transform="translate(-0.5231990792708462, 2.306248666016021) scale(0.7474272561012059)" light-content="false" non-strokable="false" fill="#292929"><path d="M98.8 56.7c-1.3-1.9-2.8-4.7-4.2-7.5-1.4-2.7-2.5-7.3-2.5-10.3l-.1-1c-1.2-18-16.9-32.2-35.5-30.8-11 .8-20.6 7.1-26 16.1l6.4 1.8 11.5 12.8 7.2 8.4h-29l-.4-.8c.2 1 .4 2 .6 2.9l27.5.2-19.6 10.3-2.2 1.3c.4.6.9 1.2 1.4 1.7v14.9c0 1.4.9 2.7 2.2 3.1l38.2 13c1.4.5 2.9-.6 2.9-2.1v-8h9.1c3.2 0 5.8-2.6 5.8-5.8V61.1h4.3c2.3 0 3.7-2.5 2.4-4.4zM58.5 46.2l-9.8-11.4 18.9-6.3-4.4 8.4-4.7 9.3zm6.9-9l4.4-8.4 9.4 8.7-13.8-.3zm-41.5 9L.7 28.5l13.3-.3 9.9 18zm2.2-.8l-9.5-17.2-5.9-10.7 19.8 5.6c-2.9 4.8-4.6 10.3-4.8 16.1 0 2.1.1 4.2.4 6.2zm.6 2.9c1.1 4.3 3.1 8.3 5.7 11.8L10.3 72.9l16.4-24.5v-.1z"></path></g><g id="SvgjsG510312" class="text" transform="translate(168.46041968820248, 65.3931587036422) scale(1)" light-content="false" fill="#696969"><path d="M-55.27 -17.52L-53.25 -4.24L-57.34 -4.24L-57.34 0L-45.18 0L-45.18 -4.24L-48.63 -4.24L-56.4 -51.56L-67.4 -51.56L-67.4 -47.36L-62.33 -47.36L-69.23 -4.24L-72.8 -4.24L-72.8 0L-60.64 0L-60.64 -4.24L-64.69 -4.24L-62.85 -17.52ZM-62.33 -21.5L-59.18 -43.94L-55.87 -21.5Z M-43.49 -51.56L-43.49 -47.36L-38.91 -47.36L-38.91 -4.24L-43.49 -4.24L-43.49 0L-20.38 0L-20.38 -16.21L-24.47 -16.21L-24.47 -4.24L-34.22 -4.24L-34.22 -47.36L-29.31 -47.36L-29.31 -51.56Z M-21.43 -35.35L-17.34 -35.35L-17.34 -47.43L-11.14 -47.43L-11.14 -4.24L-16.51 -4.24L-16.51 0L-1.05 0L-1.05 -4.24L-6.45 -4.24L-6.45 -47.43L-0.23 -47.43L-0.23 -35.35L3.87 -35.35L3.87 -51.56L-21.43 -51.56Z M24.92 -36.14L29.01 -36.14L29.01 -51.56L6.34 -51.56L6.34 -47.36L10.92 -47.36L10.92 -4.24L6.34 -4.24L6.34 0L29.53 0L29.53 -16.21L25.48 -16.21L25.48 -4.24L16.02 -4.24L16.02 -25.14L24.32 -25.14L24.32 -29.34L16.02 -29.34L16.02 -47.36L24.92 -47.36Z M48.67 -4.24L48.67 0L60.57 0L60.57 -4.24L56.4 -4.24L49.72 -22.74C52.07 -23.59 53.77 -25.17 54.82 -27.47C55.87 -29.77 56.4 -32.86 56.4 -36.74C56.4 -41.72 55.62 -45.43 54.05 -47.88C52.49 -50.33 50.07 -51.56 46.79 -51.56L32.68 -51.56L32.68 -47.36L37.26 -47.36L37.26 -4.24L32.68 -4.24L32.68 0L46.57 0L46.57 -4.24L41.95 -4.24L41.95 -22.21L44.28 -22.21L45.33 -22.21L51.41 -4.24ZM51.26 -36.74C51.26 -34.51 51.17 -32.73 50.98 -31.39C50.79 -30.05 50.48 -29.01 50.06 -28.28C49.63 -27.54 49.07 -27.05 48.37 -26.81C47.67 -26.57 46.82 -26.46 45.82 -26.46L41.95 -26.46L41.95 -47.36L45.89 -47.36C46.89 -47.36 47.74 -47.22 48.43 -46.94C49.11 -46.67 49.67 -46.14 50.1 -45.37C50.52 -44.59 50.82 -43.51 51 -42.12C51.17 -40.73 51.26 -38.94 51.26 -36.74Z"></path></g><g id="SvgjsG510313" class="text" transform="translate(343.18999999999994, 60.54) scale(1)" light-content="false" fill="#292929"><path d="M-112.19 -43.76L-112.19 -38.62L-108.47 -38.62L-108.47 12.92L-112.19 12.92L-112.19 18.07L-97.99 18.07L-97.99 12.92L-102.72 12.92L-102.72 -2.34C-101.83 -0.97 -100.9 -0.02 -99.92 0.48C-98.94 0.99 -97.92 1.24 -96.88 1.24C-95.6 1.24 -94.38 0.79 -93.23 -0.11C-92.08 -1.02 -91.07 -2.41 -90.19 -4.3C-89.32 -6.18 -88.63 -8.57 -88.13 -11.47C-87.62 -14.37 -87.37 -17.82 -87.37 -21.84C-87.37 -26.19 -87.64 -29.84 -88.19 -32.8C-88.75 -35.76 -89.46 -38.14 -90.33 -39.95C-91.21 -41.76 -92.19 -43.05 -93.27 -43.83C-94.36 -44.61 -95.43 -45 -96.47 -45C-97.76 -45 -98.9 -44.66 -99.89 -43.97C-100.89 -43.28 -101.83 -42.06 -102.72 -40.32L-102.72 -43.76ZM-102.72 -8.64L-102.72 -31.54C-102.54 -32.58 -102.28 -33.6 -101.94 -34.62C-101.6 -35.63 -101.2 -36.54 -100.74 -37.35C-100.28 -38.16 -99.79 -38.82 -99.27 -39.33C-98.75 -39.83 -98.23 -40.09 -97.71 -40.09C-96.09 -40.09 -94.9 -38.54 -94.15 -35.44C-93.4 -32.35 -93.02 -27.81 -93.02 -21.84C-93.02 -15.92 -93.53 -11.42 -94.54 -8.32C-95.55 -5.23 -96.79 -3.68 -98.26 -3.68C-99.24 -3.68 -100.1 -4.15 -100.84 -5.1C-101.57 -6.05 -102.2 -7.23 -102.72 -8.64Z M-83.87 -43.76L-83.87 -38.62L-80.1 -38.62L-80.1 -5.19L-83.87 -5.19L-83.87 0L-69.67 0L-69.67 -5.19L-74.36 -5.19L-74.36 -31.08C-74.11 -32.21 -73.77 -33.31 -73.32 -34.36C-72.88 -35.42 -72.37 -36.35 -71.78 -37.17C-71.2 -37.98 -70.56 -38.62 -69.87 -39.1C-69.19 -39.57 -68.46 -39.81 -67.69 -39.81C-67.23 -39.81 -66.83 -39.73 -66.47 -39.58C-66.12 -39.43 -65.81 -39.24 -65.53 -39.03C-65.25 -38.81 -65.02 -38.6 -64.82 -38.39C-64.62 -38.17 -64.47 -38.02 -64.38 -37.93L-62.31 -43.12C-62.44 -43.21 -62.65 -43.37 -62.96 -43.58C-63.26 -43.79 -63.63 -44 -64.06 -44.2C-64.49 -44.4 -64.97 -44.58 -65.51 -44.75C-66.04 -44.92 -66.62 -45 -67.23 -45C-68.46 -45 -69.66 -44.59 -70.84 -43.76C-72.02 -42.94 -73.19 -41.56 -74.36 -39.63L-74.36 -43.76Z M-46.64 -23.9L-55.37 -23.9C-55.34 -25.96 -55.22 -27.93 -55 -29.83C-54.79 -31.73 -54.5 -33.41 -54.13 -34.87C-53.76 -36.32 -53.32 -37.48 -52.8 -38.34C-52.28 -39.2 -51.66 -39.63 -50.96 -39.63C-50.19 -39.63 -49.54 -39.2 -49 -38.34C-48.47 -37.48 -48.03 -36.32 -47.69 -34.87C-47.36 -33.41 -47.1 -31.73 -46.94 -29.83C-46.77 -27.93 -46.67 -25.96 -46.64 -23.9ZM-50.18 -3.77C-52.02 -3.77 -53.32 -5.07 -54.08 -7.68C-54.85 -10.28 -55.28 -14.1 -55.37 -19.12L-40.66 -19.12L-40.66 -20.14C-40.66 -28.13 -41.55 -34.23 -43.33 -38.43C-45.1 -42.63 -47.62 -44.73 -50.87 -44.73C-52.43 -44.73 -53.85 -44.19 -55.12 -43.1C-56.39 -42.01 -57.49 -40.47 -58.41 -38.48C-59.32 -36.49 -60.04 -34.06 -60.54 -31.21C-61.05 -28.36 -61.3 -25.18 -61.3 -21.65C-61.3 -17.91 -61.05 -14.62 -60.54 -11.77C-60.04 -8.92 -59.31 -6.53 -58.36 -4.6C-57.41 -2.67 -56.27 -1.21 -54.93 -0.23C-53.6 0.75 -52.11 1.24 -50.45 1.24C-49.04 1.24 -47.78 0.9 -46.66 0.23C-45.54 -0.44 -44.57 -1.38 -43.74 -2.57C-42.91 -3.77 -42.24 -5.19 -41.72 -6.83C-41.2 -8.47 -40.81 -10.24 -40.57 -12.14L-45.12 -12.14C-45.27 -11.31 -45.46 -10.41 -45.67 -9.45C-45.89 -8.48 -46.18 -7.58 -46.54 -6.73C-46.91 -5.89 -47.39 -5.19 -47.97 -4.62C-48.55 -4.05 -49.29 -3.77 -50.18 -3.77Z M-25.12 -4.32C-26.16 -4.32 -26.95 -4.71 -27.47 -5.49C-27.99 -6.27 -28.25 -7.49 -28.25 -9.15L-28.25 -38.62L-20.62 -38.62L-20.62 -43.76L-28.25 -43.76L-28.25 -57.05L-34 -57.05L-34 -43.76L-39.24 -43.76L-39.24 -38.62L-34 -38.62L-34 -9.15C-34 -5.68 -33.27 -3.1 -31.81 -1.4C-30.36 0.3 -28.37 1.15 -25.86 1.15C-25 1.15 -24.19 1.04 -23.42 0.83C-22.66 0.61 -21.96 0.35 -21.33 0.05C-20.7 -0.26 -20.15 -0.6 -19.68 -0.97C-19.2 -1.33 -18.79 -1.67 -18.46 -1.98L-20.99 -6.39C-21.57 -5.87 -22.18 -5.39 -22.82 -4.96C-23.47 -4.54 -24.23 -4.32 -25.12 -4.32Z M-4.3 -22.99L-4.3 -9.52C-4.51 -8.72 -4.8 -7.96 -5.15 -7.24C-5.5 -6.52 -5.88 -5.9 -6.3 -5.38C-6.71 -4.86 -7.14 -4.44 -7.59 -4.14C-8.03 -3.83 -8.45 -3.68 -8.85 -3.68C-9.8 -3.68 -10.55 -4.38 -11.1 -5.79C-11.65 -7.2 -11.93 -9.26 -11.93 -11.95C-11.93 -13.7 -11.84 -15.23 -11.65 -16.55C-11.47 -17.87 -11.1 -18.98 -10.55 -19.88C-10 -20.79 -9.22 -21.49 -8.23 -22C-7.23 -22.5 -5.92 -22.83 -4.3 -22.99ZM-15.97 -34.16L-10.5 -33.24C-10.35 -35.63 -10.01 -37.37 -9.49 -38.45C-8.97 -39.54 -8.22 -40.09 -7.24 -40.09C-6.87 -40.09 -6.51 -39.99 -6.16 -39.79C-5.81 -39.59 -5.49 -39.19 -5.22 -38.59C-4.94 -37.99 -4.72 -37.14 -4.55 -36.04C-4.38 -34.94 -4.3 -33.47 -4.3 -31.63L-4.3 -27.4C-6.2 -27.12 -7.95 -26.72 -9.56 -26.18C-11.17 -25.64 -12.57 -24.8 -13.77 -23.65C-14.96 -22.5 -15.9 -20.97 -16.57 -19.05C-17.25 -17.14 -17.58 -14.68 -17.58 -11.68C-17.58 -9.56 -17.39 -7.7 -17.01 -6.09C-16.63 -4.48 -16.11 -3.13 -15.47 -2.05C-14.83 -0.96 -14.09 -0.14 -13.26 0.41C-12.43 0.97 -11.56 1.24 -10.64 1.24C-9.14 1.24 -7.93 0.89 -7.01 0.18C-6.09 -0.52 -5.19 -1.59 -4.3 -3.03L-4.3 0L5.22 0L5.22 -5.19L1.45 -5.19L1.45 -31.54C1.45 -34.26 1.23 -36.5 0.78 -38.25C0.34 -39.99 -0.28 -41.37 -1.06 -42.36C-1.84 -43.36 -2.75 -44.05 -3.79 -44.43C-4.83 -44.81 -5.95 -45 -7.15 -45C-8.22 -45 -9.25 -44.85 -10.23 -44.55C-11.21 -44.24 -12.09 -43.68 -12.87 -42.87C-13.65 -42.06 -14.32 -40.95 -14.87 -39.56C-15.42 -38.16 -15.79 -36.36 -15.97 -34.16Z M19.7 -4.32C18.66 -4.32 17.87 -4.71 17.35 -5.49C16.83 -6.27 16.57 -7.49 16.57 -9.15L16.57 -38.62L24.2 -38.62L24.2 -43.76L16.57 -43.76L16.57 -57.05L10.83 -57.05L10.83 -43.76L5.59 -43.76L5.59 -38.62L10.83 -38.62L10.83 -9.15C10.83 -5.68 11.55 -3.1 13.01 -1.4C14.47 0.3 16.45 1.15 18.96 1.15C19.82 1.15 20.63 1.04 21.4 0.83C22.17 0.61 22.86 0.35 23.49 0.05C24.12 -0.26 24.67 -0.6 25.15 -0.97C25.62 -1.33 26.03 -1.67 26.36 -1.98L23.84 -6.39C23.25 -5.87 22.64 -5.39 22 -4.96C21.35 -4.54 20.59 -4.32 19.7 -4.32Z M26.87 -43.76L26.87 -38.62L30.64 -38.62L30.64 -5.19L26.87 -5.19L26.87 0L40.98 0L40.98 -5.19L36.39 -5.19L36.39 -43.76ZM28.48 -56.13C28.48 -54.87 28.88 -53.83 29.7 -53C30.51 -52.18 31.54 -51.76 32.8 -51.76C34.03 -51.76 35.07 -52.18 35.93 -53C36.78 -53.83 37.21 -54.87 37.21 -56.13C37.21 -57.36 36.78 -58.4 35.93 -59.26C35.07 -60.11 34.03 -60.54 32.8 -60.54C31.54 -60.54 30.51 -60.11 29.7 -59.26C28.88 -58.4 28.48 -57.36 28.48 -56.13Z M65.99 -21.84C65.99 -25.85 65.71 -29.32 65.14 -32.25C64.57 -35.17 63.78 -37.58 62.77 -39.47C61.76 -41.35 60.57 -42.74 59.21 -43.65C57.85 -44.55 56.38 -45 54.82 -45C53.26 -45 51.79 -44.55 50.41 -43.63C49.03 -42.71 47.82 -41.3 46.8 -39.42C45.77 -37.53 44.97 -35.13 44.38 -32.2C43.8 -29.28 43.51 -25.82 43.51 -21.84C43.51 -17.82 43.8 -14.37 44.38 -11.47C44.97 -8.57 45.76 -6.18 46.77 -4.3C47.79 -2.41 48.98 -1.02 50.36 -0.11C51.74 0.79 53.23 1.24 54.82 1.24C56.38 1.24 57.85 0.79 59.21 -0.11C60.57 -1.02 61.76 -2.41 62.77 -4.3C63.78 -6.18 64.57 -8.57 65.14 -11.47C65.71 -14.37 65.99 -17.82 65.99 -21.84ZM60.38 -21.84C60.38 -15.92 59.91 -11.42 58.98 -8.32C58.05 -5.23 56.66 -3.68 54.82 -3.68C52.92 -3.68 51.5 -5.23 50.57 -8.32C49.63 -11.42 49.17 -15.92 49.17 -21.84C49.17 -27.75 49.63 -32.27 50.57 -35.4C51.5 -38.52 52.92 -40.09 54.82 -40.09C56.66 -40.09 58.05 -38.54 58.98 -35.44C59.91 -32.35 60.38 -27.81 60.38 -21.84Z M69.39 -43.76L69.39 -38.62L73.16 -38.62L73.16 -5.19L69.39 -5.19L69.39 0L81.71 0L81.71 -5.19L78.91 -5.19L78.91 -29.83C79.09 -31.03 79.4 -32.22 79.83 -33.4C80.26 -34.58 80.75 -35.64 81.3 -36.59C81.85 -37.54 82.44 -38.32 83.07 -38.91C83.7 -39.51 84.32 -39.81 84.93 -39.81C85.33 -39.81 85.67 -39.7 85.94 -39.49C86.22 -39.27 86.44 -38.87 86.61 -38.27C86.78 -37.67 86.9 -36.85 86.98 -35.81C87.05 -34.77 87.09 -33.41 87.09 -31.72L87.09 -5.19L84.24 -5.19L84.24 0L96.61 0L96.61 -5.19L92.84 -5.19L92.84 -33.51C92.84 -37.19 92.35 -40.02 91.37 -42.02C90.39 -44.01 88.76 -45 86.49 -45C84.93 -45 83.54 -44.45 82.33 -43.33C81.12 -42.21 79.98 -40.73 78.91 -38.89L78.91 -43.76Z"></path></g></g></g></svg>