<svg xmlns="http://www.w3.org/2000/svg" width="16" height="16" viewBox="0 0 16 16">
  <g>
    <path fill="rgb(32,162,106)" fill-rule="evenodd" d="M0 16h16V2c0-1.13336182-.8666687-2-2-2H2C.8666687 0 0 .86663818 0 2v14zm14.6666565-1.33337402H1.33332824V2c0-.40002441.2666626-.66668701.66667175-.66668701h12c.3999939 0 .6666565.2666626.6666565.66668701v12.66662598z"/>
    <path fill="rgb(32,162,106)" fill-rule="evenodd" d="M6.2 11.93333333c-.33333333 0-.66666667-.13333333-.93333333-.4L2.2 8.46666667l.93333333-.93333334L6.2 10.6l6.66666667-6.66666667L13.8 4.86666667l-6.66666667 6.66666666c-.2.26666667-.53333333.4-.93333333.4z"/>
  </g>
</svg>
