<svg xmlns="http://www.w3.org/2000/svg" width="239" height="304.743" viewBox="0 0 239 304.743">
  <g>
    <ellipse cx="119.5" cy="167.243" fill="rgb(213,227,220)" rx="119.5" ry="119.5"/>
    <g>
      <g opacity=".4">
        <ellipse cx="81.381" cy="193.425" fill="rgb(32,162,106)" rx="58.381" ry="33.483"/>
      </g>
      <g opacity=".4">
        <ellipse cx="151.546" cy="267.417" fill="rgb(32,162,106)" rx="65.074" ry="37.326"/>
      </g>
      <path fill="rgb(0,0,0)" fill-rule="evenodd" d="M100.1997231 203.18578885c-6.2968779-.39328588-4.91156477-11.02988138-3.2024122-16.82190985.76983803-2.07148335 3.05437266-3.16298246 5.16343989-2.46697509 2.08696525.67931199 3.3643319 4.61217082 3.29236759 6.79311981-.07196432 2.180949 2.2129028 12.96055754-5.25339528 12.49576513z"/>
      <path fill="rgb(252,199,170)" fill-rule="evenodd" d="M96.76342687 192.12015421c-1.07946478-8.93831554 8.79763799-9.7248873 7.46629809 0-.3598216 2.60998814-1.99700985 4.50491103-3.59821595 4.57641756-2.64468872.16088968-3.65218918-2.6993713-3.86808214-4.57641756z"/>
      <path fill="rgb(252,175,117)" fill-rule="evenodd" d="M67.455958 188.58058126c-2.73869992 2.18586128-6.1674277 3.33838684-9.6792009 3.25354685-.47738518.05156629-.95285955-.11247874-1.29535773-.44691577-.46776807-.5720522-.14392864-1.43013049.25187511-2.05581258 3.16643004-5.16634638 9.15745958-9.56399762 11.76616614-15.03424674.23003209-.67248116.61154093-1.2839036 1.11544695-1.7876631.82758966-.64355872 1.97901877-.50054567 2.98651923-.7508185 1.00750047-.25027284 1.90705445-.84020167 2.7526352-.37540926.84558075.4647924.93553615 1.44800712 1.16942018 2.32396204.23388404.87595492.66566995 3.25354686.9715183 4.16525504.35720373.90451005.4324248 1.89484895.21589296 2.84238434-.40308637 1.11916888-1.2382709 2.03267093-2.32084928 2.53848162-1.04348262.55417556-2.15892957.87595492-3.18442111 1.44800711-1.68826224 1.1605924-3.2769053 2.45810203-4.74964505 3.87922895z"/>
      <path fill="rgb(0,0,0)" fill-rule="evenodd" d="M56.48139937 191.40508897c.35827127.30659106.82360838.4607167 1.29535774.42903914 3.5129627.09263973 6.94432132-1.06077016 9.67920089-3.25354685 1.47415011-1.40876148 3.06275288-2.69427988 4.74964505-3.84347568 1.02549154-.55417557 2.15892956-.91170819 3.1844211-1.44800712 1.07900676-.51060054 1.91262267-1.42238686 2.3208493-2.53848162.22225596-.94575363.15330614-1.93605194-.19790188-2.84238434-.2698662-.78657176-.61169671-3.00327402-.86357183-3.80772242-.05268507-.1151836-.09483416-.23484348-.12593756-.35753262-.23388403-.85807829-.39580375-1.91279952-1.16942018-2.32396204-.77361643-.41116251-1.79910797.12513642-2.7526352.37540925-.95352722.25027284-2.17692065 0-2.98651923.7508185-.49591944.50998418-.87625239 1.11952206-1.11544695 1.78766312-1.0828761 2.10695482-2.53950464 4.00245443-4.29986805 5.59538552-2.82227437 2.8366592-5.33129146 5.9649653-7.48428917 9.33160143-.37781267.69718861-.7016521 1.57314353-.23388403 2.14519573z"/>
      <path fill="rgb(252,199,170)" fill-rule="evenodd" d="M62.34649136 182.89581257c-.05856057.35176772.0791242.70747087.3598216.92958482.26980958.12318468.56959362.16662507.86357182.12513642 3.06912642-.4783757 5.91848366-1.87528277 8.1679502-4.00436536 1.26264084-.98210784 2.41476254-2.09693203 3.43629622-3.32505338.60728081-.77120272 1.10937684-1.61873502 1.49325962-2.52060499-.05268507-.1151836-.09483416-.23484348-.12593756-.35753262-.23388403-.85807829-.2698662-2.68149466-1.04348262-3.1105338-.77361643-.42903915-1.9610277 0-2.87857276.26814946-.91754506.26814947-2.51875116-.32177936-3.34634083.33965599-.53973239.44691578-.30584835 1.8949229-.6116967 2.52060498-1.12645418 2.27601942-2.6284852 4.34856703-4.4437967 6.13168446-.52174131.71506525-1.02549154 1.39437723-1.4212953 2.05581258-.21843942.27897965-.37203749.6025361-.449777.94746144z"/>
      <path fill="rgb(252,199,170)" fill-rule="evenodd" d="M65.2430552 120.70301305c0 1.39437722.19790187 3.02115065.30584835 4.80881376.10794648 1.7876631.23388404 3.57532621.34183051 5.36298932.10794648 1.57314354.19790188 3.18204034.30584836 4.86244366 1.09745586 16.80403321 2.42879576 37.89845788 2.42879576 37.93421115v.10725978c1.52924178 2.84238435 7.30437837 3.57532622 7.82611968-.10725978.8365949-9.9284141 2.21191456-19.80472194 4.11995726-29.58582444.46776807-3.03902728.8815629-5.97079478 1.13343802-8.93831554.23536382-2.3759916.33147848-4.76357241.28785728-7.15065243v-.339656c-.02770279-2.04172467-.20205972-4.0788796-.52174131-6.09593119 0-.60780546-.21589296-1.19773428-.34183052-1.7876631l-13.00755064-8.40201661c-.03598216.37540925-2.87857276 8.93831553-2.87857276 9.33160142z"/>
      <path fill="rgb(252,199,170)" fill-rule="evenodd" d="M80.57145512 102.16494662c2.15892957 10.99412811 3.38232299 19.66429419 4.6956718 26.35015421.10794649.5184223.19790189 1.00109134.30584836 1.48376038.45166673 2.27123371 1.0526574 4.5106119 1.79910798 6.70373665.14392863.44691578.28785727.8580783.44977699 1.23348755l1.07946478 5.14846975.46776808 2.25245552 8.29388775 39.81125741.28785727 1.41225386.28785728 1.30499406c0 3.12841044 4.82160937 2.0736892 5.10946664-.57205219v-.60780546c0-.58992882.12593756-1.16198102.1799108-1.7876631 2.59071548-24.0440688 1.79910797-33.71532622.25187512-42.9039146-.19790188-1.16198102-.43178592-2.32396204-.64767888-3.57532621-.34183051-1.68040332-.68366102-3.3965599-1.04348262-5.2378529 0-.58992883.14392864-1.17985766.21589296-1.78766312V130.6781732c1.06132512-9.53807333 1.30808436-19.14830555.73763427-28.72774614l-22.47085858.21451957z"/>
      <g opacity=".3">
        <path fill="rgb(252,175,117)" fill-rule="evenodd" d="M85.23114477 128.47934757c.10794648.5184223.19790188 1.00109134.30584835 1.48376038.45166673 2.27123371 1.0526574 4.5106119 1.79910798 6.70373665.14392863.44691578.28785727.8580783.44977699 1.23348755l1.07946478 5.14846975.46776808 2.25245551c5.04041751.09599284 10.03083825-1.00729695 14.5547835-3.21779359-.19790188-1.16198102-.43178592-2.32396204-.64767888-3.57532622-.34183051-1.68040332-.68366103-3.3965599-1.04348262-5.2378529 0-.58992883.14392864-1.17985765.21589296-1.78766311v-.4647924l-17.18148114-2.53848162z"/>
      </g>
      <g opacity=".3">
        <path fill="rgb(252,175,117)" fill-rule="evenodd" d="M65.54890355 125.5118268c.10794648 1.68040333.23388404 3.57532622.34183051 5.36298933.10794648 1.57314354.19790188 3.18204034.30584836 4.86244366 3.93840021 4.02033279 8.91997475 6.8788912 14.39286378 8.25900356.46776807-3.03902729.8815629-5.97079479 1.13343802-8.93831554.23536382-2.37599161.33147848-4.76357242.28785728-7.15065244l-16.46183795-2.39546856z"/>
      </g>
      <path fill="rgb(63,118,171)" fill-rule="evenodd" d="M51.89367404 72.54336892l20.311929-4.00436536s7.77214645-25.43844603 7.48428917-25.86748517c-.28785727-.42903915-7.79013752-15.67780546-7.79013752-15.67780546l-5.8471009 31.90978648-17.54130274 8.79530249 3.38232299 4.84456702z"/>
      <path fill="rgb(237,237,237)" fill-rule="evenodd" d="M51.89367404 72.54336892l20.311929-4.00436536s7.77214645-25.43844603 7.48428917-25.86748517c-.28785727-.42903915-7.79013752-15.67780546-7.79013752-15.67780546l-5.8471009 31.90978648-17.54130274 8.79530249 3.38232299 4.84456702z"/>
      <path fill="rgb(249,115,57)" fill-rule="evenodd" d="M91.5100316 11.53042705c12.93558631 4.16525504 10.16496004 16.30348754 6.67469057 25.77810201l-9.12147742-8.54502965 2.44678684-17.23307236z"/>
      <path fill="rgb(69,196,138)" fill-rule="evenodd" d="M65.83676083 129.92735469c1.96102769 5.36298932 28.78572756 16.08896797 37.1695707 7.72270462l2.482769-36.7007236c2.30285821-12.04884935.28785728-18.26991697-6.00902062-24.0976987-.75562535-.69718861-1.58321501-1.39437722-2.46477792-2.09156584l-18.76469615-.7508185-7.35835161-.30390273c-6.3868333 20.23634638-6.51277086 42.26035587-5.0554934 56.22200475z"/>
      <path fill="rgb(255,255,255)" fill-rule="evenodd" d="M62.94019699 55.39967972c.07389495 1.94996371.98379 3.7753679 2.50003394 5.01549319 1.51624393 1.24012528 3.4939767 1.77649163 5.43403222 1.47372389 0 3.57532621 1.11544694 8.54502965 0 11.81645314 1.79910797 4.27251483 4.19192157 7.57969158 8.99553986 8.77742586 4.80361829 1.19773428 14.23094406.19664294 19.66425014-5.63113879-.89955399-6.6143535 1.34933098-15.08787663 3.68817134-22.2027758 1.32772152-4.85594177 2.32547649-9.79506397 2.98651924-14.7839739-4.33585022-5.36298933-8.36585207-7.68695137-13.9250957-11.53042705-5.55924364-3.84347568-9.82312954-8.27688019-16.19197176-5.91716489-6.36884222 2.3597153-5.39732392 14.44431792-7.73616428 19.41402136-2.33884037 4.96970344-5.39732392 8.4020166-5.415315 13.56836299z"/>
      <path fill="rgb(32,162,106)" fill-rule="evenodd" d="M70.87426315 73.70534994c1.79910797 4.27251483 4.19192157 7.57969158 8.99553986 8.77742586 4.80361829 1.19773428 14.23094406.19664294 19.66425014-5.63113879 6.2968779 5.82778173 8.31187883 12.04884935 6.00902063 24.0976987l-2.53674224 36.7007236c-1.1860484 1.0859531-2.59909795 1.8978664-4.13794834 2.37759194 1.79910797-12.81754449-.23388404-42.3318624-2.96852815-52.3964057-15.56228397.60780546-22.14701915-3.02115065-25.76322617-11.54830368l.73763427-2.37759193z"/>
      <g opacity=".2">
        <path fill="rgb(29,29,27)" fill-rule="evenodd" d="M70.87426315 73.70534994c1.79910797 4.27251483 4.19192157 7.57969158 8.99553986 8.77742586 4.80361829 1.19773428 14.23094406.19664294 19.66425014-5.63113879-.89955399-6.6143535 1.34933098-15.08787663 3.68817134-22.2027758l-4.65968965-3.87922894-7.37634268 12.35275207c-4.8755826 8.11599051-17.46933842 6.52497035-17.99107973-1.7876631l-2.3028582.62568208c.01799108 3.48594306 1.09745586 8.47352313-.01799108 11.74494662z"/>
      </g>
      <path fill="rgb(252,199,170)" fill-rule="evenodd" d="M86.45453819 69.03954923c-.8556411 1.40747477-2.20946923 2.44666997-3.79611782 2.91389086l-2.62669764.5720522c-.25187512.76869514-1.43928638.91170818-2.62669764 1.0368446-.8815629-.12513642-1.27736666-.53629893-1.20540234-1.23348754-.70165211-.48266904-1.11544695-1.01896797-.8095986-1.78766311-.64967299-.34079935-.90557532-1.13540694-.57571454-1.7876631-.59577803-.4893041-.7547306-1.3316583-.37781268-2.00218269l-6.4767887.76869514c-1.38531314.16088968-1.79910797-1.1441044 0-1.57314354l12.01804126-2.18094899c1.68301772-.42000926 3.44444-.42000926 5.12745772 0l4.11995726 1.0368446-.23388404 4.95182681-2.53674224-.71506524z"/>
      <path fill="rgb(237,237,237)" fill-rule="evenodd" d="M106.17276157 39.8648873c6.78263705 8.29475683 13.97906894 31.58800712 9.06750418 34.98456703-5.64919903 4.86244365-17.79317785-.50054567-29.07358484-5.07696323.59370564-2.6457414.66566995-4.61217082-1.0614737-6.02442467l20.8516614 2.34183867-8.29388775-13.04994069c-3.22040327-10.85111506 2.28486712-17.21519573 8.5097807-13.1750771z"/>
      <path fill="rgb(252,199,170)" fill-rule="evenodd" d="M89.80087902 19.80730724c.80959859 2.80663108 3.0225014 7.15065243 3.59821594 9.83214709.61169671 3.28930012-5.5052704 8.43776987-9.60723657 8.13386714-2.91455491-.5720522-3.59821594-4.27251483-4.06598402-7.68695136l10.07500465-10.27906287z"/>
      <g opacity=".15">
        <path fill="rgb(29,29,27)" fill-rule="evenodd" d="M87.76788701 21.95250297s2.42879576 19.75367734-7.19643189 18.10902728c-6.22491358-1.05472123-4.91156477-11.26227758-4.91156477-11.26227758l12.10799666-6.8467497z"/>
      </g>
      <path fill="rgb(249,115,57)" fill-rule="evenodd" d="M76.6853819 9.68913405c-8.20393236 1.23348754-17.43335625 11.20864768-3.59821595 16.76827995-.41379483-4.50491103-1.20540234-7.91934757 3.59821595-16.76827995z"/>
      <path fill="rgb(252,199,170)" fill-rule="evenodd" d="M81.66891098 3.87922894c-9.57125441 1.30499407-12.5937558 6.88250297-11.56826426 14.46219455.10794648 6.34620403 5.39732392 14.74822064 9.1394685 14.58733096 5.28937744.2860261 7.88009292-5.84565836 12.41384501-12.40638197C95.1442297 9.7248873 90.57449545 2.6457414 81.66891098 3.87922894z"/>
      <path fill="rgb(249,115,57)" fill-rule="evenodd" d="M70.22658428 18.55594306c1.99700985 2.10944247 5.18143096 3.30717675 9.15745958 4.21888494 3.34634083 1.37650059 6.60272626 1.23348754 7.898084 3.09265717l3.88607322-1.59102016c3.9040643-4.46915777 4.29986805-17.23307236-2.41080469-19.93244366C78.0167218 0 65.22506411 10.72597865 70.22658428 18.55594306z"/>
      <path fill="rgb(252,199,170)" fill-rule="evenodd" d="M87.4260565 23.91893238c.59370563-2.32396204 2.2129028-3.8613523 3.59821594-2.52060498.64767887.62568209.59370563 1.78766311 0 3.23567023-.3036334.9373459-1.10917682 1.6273623-2.08696525 1.7876631-1.31334882.16088969-1.96102769-.71506524-1.5112507-2.50272835z"/>
      <path fill="rgb(255,255,255)" fill-rule="evenodd" d="M57.66881063 52.46791222c6.08098495 5.66689205 10.16496004 14.19404508 13.20545252 26.61830368l-21.0315722.67931198c.30584835-9.67125742-6.06299387-18.68107948-14.1050065-27.29761566h21.93112618z"/>
      <path fill="rgb(252,199,170)" fill-rule="evenodd" d="M50.54434306 68.23510083c2.15892957.2323962 2.15892957 1.91279953.55772347 2.0736892 2.46477792 0 2.86058168 2.10944247.7916075 2.2345789 1.4212953 0 1.6911615 1.69827994-.37781267 1.89492288 1.54723286.46479241 1.67317042 1.4301305 0 1.6625267l-2.33884036.14301304c-.93553615 0-2.23089389-.48266904-1.96102769-1.62677342-.7916075 0-1.40330422-1.93067616-1.00750046-2.0736892-.7196432-.30390274-1.2413845-1.78766312-.7196432-2.14519574-.98950938-.53629893-1.13343802-2.00218268.30584836-3.57532621l.68366103-.69718862 1.02549155 1.96642942 3.04049247.14301305z"/>
      <path fill="rgb(237,237,237)" fill-rule="evenodd" d="M94.46056867 134.12836299l25.74523508-11.69131673-10.63272811-41.97432977L83.80984947 92.1540332l10.6507192 41.97432978z"/>
      <path fill="rgb(29,29,27)" fill-rule="evenodd" d="M88.63145884 94.9070344l18.62076751-8.43776987-.32383943-1.2692408-18.62076752 8.43776986.32383944 1.26924081z"/>
      <path fill="rgb(29,29,27)" fill-rule="evenodd" d="M89.51302174 98.39297746l18.62076752-8.43776987-.19790188-.78657177-18.62076751 8.4556465.19790187.76869514z"/>
      <path fill="rgb(29,29,27)" fill-rule="evenodd" d="M90.05275413 100.50241993l18.62076752-8.43776987-.19790188-.78657177-18.62076751 8.43776987.19790187.78657177z"/>
      <path fill="rgb(29,29,27)" fill-rule="evenodd" d="M90.57449545 102.6118624l18.62076751-8.4556465-.19790187-.76869514-18.62076752 8.43776987.19790188.78657177z"/>
      <path fill="rgb(29,29,27)" fill-rule="evenodd" d="M91.65396023 106.8128707l18.60277644-8.43776987-.19790188-.78657177-18.60277644 8.4556465.19790188.76869514z"/>
      <path fill="rgb(29,29,27)" fill-rule="evenodd" d="M92.17570154 108.92231317l18.62076752-8.43776987-.19790188-.78657177-18.62076751 8.43776987.19790187.78657177z"/>
      <path fill="rgb(29,29,27)" fill-rule="evenodd" d="M104.21173388 105.81177936l7.12446757-3.2177936-.19790188-.78657176-7.12446757 3.2177936.19790188.78657176z"/>
      <path fill="rgb(29,29,27)" fill-rule="evenodd" d="M93.25516633 113.1411981l18.60277643-8.4556465-.19790188-.78657177-18.60277643 8.4556465.19790188.78657177z"/>
      <path fill="rgb(29,29,27)" fill-rule="evenodd" d="M93.77690764 115.23276394l18.62076751-8.43776987-.19790187-.78657177-18.62076752 8.4556465.19790188.76869514z"/>
      <path fill="rgb(29,29,27)" fill-rule="evenodd" d="M98.67048132 115.35790036l14.26692623-6.45346382-.19790188-.78657177-14.26692622 6.47134045.19790187.76869514z"/>
      <path fill="rgb(29,29,27)" fill-rule="evenodd" d="M106.2267348 118.98685647l8.31187884-3.77196916-.19790188-.78657177-8.31187883 3.77196916.19790188.78657177z"/>
      <path fill="rgb(29,29,27)" fill-rule="evenodd" d="M106.7664672 121.0784223l8.29388775-3.75409253-.19790187-.78657176-8.29388776 3.77196915.19790188.76869514z"/>
      <path fill="rgb(29,113,184)" fill-rule="evenodd" d="M97.66299438 119.64825228c-2.31750488 1.23828125-3.49511718 3.8803711-2.8605957 6.4177246.18405152 1.1357422.88909912 2.12182618 1.9078064 2.6682129 1.01867676.54638672 2.23516846.59082031 3.29162597.12060547 2.32034302-1.24462891 3.49749756-3.89306641 2.86056519-6.43554688-.18203735-1.13623047-.88800049-2.1225586-1.90835571-2.66625976-1.02035523-.54370118-2.23782349-.58251954-3.29104615-.10473633zm-.78793334 8.7446289c-.95004273-.49658203-1.6156006-1.40161132-1.80279542-2.4519043-.60821533-2.38671874.49719239-4.87841796 2.68066407-6.04223632.9830017-.43530274 2.11352539-.3930664 3.06082153.11425781.94732666.50756836 1.60430908 1.42260742 1.77877808 2.4777832.58395385 2.36547852-.50952149 4.82470704-2.6626587 5.98876954-.97698974.44189453-2.10473632.4099121-3.05480956-.08666993z"/>
      <path fill="rgb(29,113,184)" fill-rule="evenodd" d="M97.8428955 120.30962923c-1.98522948 1.0559082-2.99368285 3.3178711-2.44677734 5.48828125.15426636.96801758.75378418 1.80932617 1.62155152 2.27563477.86773681.46606445 1.90454101.5036621 2.80426025.10180664 1.9902649-1.0510254 3.00048828-3.31713868 2.44677735-5.48803711-.15426636-.96826172-.75378418-1.80957032-1.62155152-2.27563477-.86773681-.4663086-1.90454101-.50390625-2.80426025-.10205078zm-.71813964 7.64086914c-.82369995-.44067383-1.39559937-1.2355957-1.54876709-2.15258789v-.0715332c-.51141357-2.07543946.47879028-4.22802735 2.39282227-5.2019043.85183715-.38623047 1.83657836-.35302734 2.66015625.08935547.82357788.44262695 1.390625 1.2434082 1.5317688 2.16308594.53759765 2.0925293-.44628907 4.27734375-2.3748169 5.2734375-.85479736.37792968-1.83746338.3408203-2.66116333-.09985352z"/>
      <path fill="rgb(29,113,184)" fill-rule="evenodd" d="M98.22070313 121.90069368c-1.1815796.63085938-1.78167725 1.97802735-1.4572754 3.27148438.09332276.57739258.45233155 1.07885742.97094727 1.35571289.5185852.27685547 1.13748169.29785156 1.67373657.05639648 1.186615-.6262207 1.78851319-1.97753906 1.4572754-3.27148437-.09332276-.57763672-.45230103-1.07885742-.97091676-1.3557129-.5185852-.2770996-1.13748168-.29785155-1.67376708-.05639648zm-.370636 4.4675293c-.46380614-.2475586-.795166-.68457031-.90670775-1.19604492l.01797485-.07128906c-.25527954-1.15283204.27792358-2.33569336 1.3133545-2.9140625.4906311-.18969727 1.04031371-.15649414 1.50408935.09130859.46380615.2475586.7951355.68457031.90670776 1.19580078.28747559 1.17993164-.25863647 2.40454102-1.33132935 2.98535156-.49066162.18994141-1.04031372.15649414-1.50408935-.09106445z"/>
      <path fill="rgb(29,113,184)" fill-rule="evenodd" d="M97.4470879 122.02588375s-.32383943-.69718861-.2698662-.69718861l.2698662.5184223c-.03428307-.24911368-.03428307-.50170483 0-.7508185.03428307-.24911368.32383944.64355871.2698662.67931197l-.23388404-.44691577v.76869513l-.03598216-.07150652z"/>
      <path fill="rgb(29,113,184)" fill-rule="evenodd" d="M97.26715088 121.97222689l-.19787598-.25024414-.1791687.20947265-.07272339-.08447265c-.0349121-.01220704-.07302856-.01220704-.10794067 0h-.08996582c-.0137024.04077148-.0137024.0847168 0 .12524414-.01150513.04077148-.01150513.08422851 0 .125l.30584717.23242187c.01727295.00830078.03591919.01220703.05456543.01220703.07263183.02197266.1293335.0625.17248535.09350586.08184814.05859375.1147766.08203125.1147766-.12353515v-.33959961zm-.28726196.3696289c-.01727295-.0053711-.03546143-.00952148-.05456543-.01220703l-.16192627-.25024414.12670898-.14819336.14315796.16625977c.01068115.04101562.01068115.08398437 0 .125.01235962.03466797.01235962.07250976 0 .10742187-.01690674.0078125-.03512573.0119629-.05337524.0119629z"/>
      <path fill="rgb(29,113,184)" fill-rule="evenodd" d="M96.49356068 122.13314353l-.0899554.17876632s.50375023.39328588.46776807.44691577l-.52174131-.39328588s-.0899554.17876631-.14392864.14301305c-.05397324-.03575326.23388404-.41116252.28785728-.37540926z"/>
      <path fill="rgb(29,113,184)" fill-rule="evenodd" d="M96.61950684 122.99126986h.1439209c0-.00439454.0119934-.0041504.02648925-.00195313-.0159912-.00415039-.03652954-.00927734-.06246948-.01611328-.22937012-.06030274-.46459961-.09643555-.70166016-.10717774-.03598022.0715332.35983277.6435547.46777344.58984375.10794067-.0534668 0-.17871093 0-.17871093l.12594605-.28588867zm-.46777344 0h.39581299l-.10794068.30395507-.28787231-.30395507z"/>
      <path fill="rgb(29,113,184)" fill-rule="evenodd" d="M96.20568848 123.61675814h.30584716c.01800538-.0715332-.68365478-.17871094-.68365478-.16088868v.01782227l-.10794067.00024414.10794067.10717774v.10717773l.02444458.01074219c-.00341797-.0275879.00042725-.0559082.01153564-.0822754l-.03598022-.03564452v-.10717774l.1439209-.00024414v.16088867c0 .05371094.0045166.0805664.00674438.09399414.00128174.00756836.00183106.0107422.00045777.01220703-.00106812.0012207-.0032959.0012207-.00720215.0012207h-.02893067c-.02984619-.01489257-.06002807-.02905273-.09051513-.0427246.00180053.01464844.00564575.02905273.01150512.04296875h.07901001c.17254639.08618164.33346558.19433594.47872925.3215332.01797486-.0715332-.21591186-.30395508-.21591186-.30395508v-.1430664z"/>
      <path fill="rgb(29,113,184)" fill-rule="evenodd" d="M96.3856142 124.38559905h-.25187512s-.39580375.26814947-.43178591.19664294l.37781267-.2323962s-.34183051-.19664294-.32383943-.26814947l.39580375.2323962s.25187512-.01787662.23388404.07150653z"/>
      <path fill="rgb(29,113,184)" fill-rule="evenodd" d="M96.2385254 125.01128939h.18307494c-.00646972-.03857422-.08505249-.02856446-.18307495 0zm-.06533814.02075195c.02233886-.00756836.044281-.01464844.06530761-.02075195h-.06878662l.003479.02075195zm-.1871338.39038086h.18368531c.02297974-.12890625.0241394-.26098633.003479-.39038086-.16271972.05517578-.34533691.14013672-.34533691.14013672-.00378418.03076172-.00619507.0612793-.00720215.09204101l-.13671875.0510254.13995361.06933593c-.003479-.04003906-.00454711-.08007812-.00323486-.12036133l.15115357-.05615234v.16088867c.0083313.0168457.01306152.03515625.01422119.0534668zm0 0h-.1581726v.0715332c.04626465.01782227.09765625.01782227.1439209 0 .01104736-.02246094.01577759-.04711914.0142517-.0715332z"/>
      <path fill="rgb(29,113,184)" fill-rule="evenodd" d="M95.91784668 125.92315462c.01800537.07128906.46777344-.2145996.46777344-.2145996.00900268-.0029297.01815796-.0053711.0274353-.00708009l.09851074.13989258-.00003052.09960938-.44976806.2680664c.01800537.0715332.46777344-.21435547.46777344-.21435547h.0899353l-.10794068-.1533203.00003052-.00756837c.00741577-.0415039.00741577-.08374023 0-.12524414-.03186035-.01049805-.06573486-.01293945-.09851074-.00708008l-.04544067-.06445312-.44976807.28613281z"/>
      <path fill="rgb(29,113,184)" fill-rule="evenodd" d="M96.76342773 126.03033236c.07229615.1196289.11541748.25415039.12594605.39331054l-.28787232.25024414c-.10549926.09179688-.13366699.11621094-.14294433.11035157-.00338745-.00219727-.00427246-.00830079-.00546265-.01660157-.00448608-.03125-.01348877-.09375-.17541504-.09375-.0100708-.05908203-.0100708-.1196289 0-.17871093.15200806-.16479493.3142395-.32006836.4857483-.46484375zm0 0l-.23388671.23242187.08996582.125h.12591552c.01519776-.0402832.01519776-.0847168 0-.125.0078125-.03540039.0078125-.07202148 0-.10717773l.01800537-.12524414zm-.23388671.60766601c-.09237671-.0065918-.17752076-.05200195-.23388672-.12524414l.23388672-.1965332v.10717773c.0078125.0354004.0078125.07202149 0 .10742188.01620483.03393554.01620483.07324218 0 .10717773z"/>
      <path fill="rgb(29,113,184)" fill-rule="evenodd" d="M97.30315926 126.69168446l-.19790187-.19664294s-.43178592.60780546-.48575916.55417556c.15546229-.22386456.32365234-.4387333.50375024-.64355872.1800979-.20482542.23388403.2860261.1799108.2860261z"/>
      <path fill="rgb(29,113,184)" fill-rule="evenodd" d="M97.46507898 126.78106762s-.37781267.6971886-.43178591.66143535c-.05397324-.03575327.37781267-.75081851.43178591-.66143535z"/>
      <path fill="rgb(29,113,184)" fill-rule="evenodd" d="M97.33914185 127.4067972c-.00842286.03540039-.00842286.07202148 0 .10742187l.05258178.0090332c-.00631714.04418946-.00585937.08935548.0013733.13378907h.26986694c.25512695 0 .02792358-.08007813-.27124024-.1340332l.0013733-.00878907.14395141-.33984375c.01409912-.04638671.04656982-.08496093.0899353-.10717773h-.1439209l-.1439209.3395996z"/>
      <path fill="rgb(29,113,184)" fill-rule="evenodd" d="M100.09177662 126.58442467s.30584836.67931198.23388404.71506525l-.23388404-.60780546c.03236595.25522466.03236595.51347047 0 .76869514 0 0-.28785727-.67931198-.23388403-.71506525l.23388403.55417557v-.71506525z"/>
      <path fill="rgb(29,113,184)" fill-rule="evenodd" d="M100.3616333 126.522764c.01177979-.0300293.02990723-.05786133.0539856-.08129883-.00994873-.04101563-.00994873-.08398438 0-.125.0349121-.01245117.07302856-.01245117.10794067 0 .0198059-.00952149.0415039-.01342774.06286621-.01171875-.09204101-.0300293-.14639282-.0871582-.17849731-.12060547-.01657105-.01757813-.02722168-.02856445-.03405762-.02661133-.01223755.00366211-.01223755.0493164-.01223755.17675781v.18847657zm0 .1689453v-.1689453c-.02090454.05322265-.02175903.11352539 0 .1689453zm.14205933.19750977l-.01611328.01708985-.12594605-.21459961.14205933.19750976zm0 .00024414l.0378418.05249024c.03417968.01611328.0737915.01611328.10797119 0 .02783203.01611328.06210327.01611328.0899353 0 .00930786-.04101563.00930786-.08374024 0-.125.01153564-.04101563.01153564-.08422852 0-.12524414l-.01095581-.03808594-.22479248.23583984zm.22479248-.23608398l-.09698487-.3371582.17990113.25024414-.08291626.08691406z"/>
      <path fill="rgb(29,113,184)" fill-rule="evenodd" d="M101.04530385 126.53079478l.10794648-.16088968s-.48575916-.42903915-.43178592-.50054567l.46776807.42903915s.10794648-.16088968.16191972-.10725979c.05397324.0536299-.25187511.37540925-.30584835.339656z"/>
      <path fill="rgb(29,113,184)" fill-rule="evenodd" d="M100.991333 125.65484407l.1439209-.2861328s-.10794067-.125 0-.19653321c.10794068-.0715332.48577881.55419922.43179322.64355469-.04995728.08276367-.57769775-.07958985-.67025757-.16088868h.09454346zm-.09454345 0h-.06738281l.0539856-.01782226c.00131225.0053711.00595092.01123047.01339721.01782226zm.5623169 0h-.41378785l.12594605-.3395996.2878418.3395996z"/>
      <path fill="rgb(29,113,184)" fill-rule="evenodd" d="M101.40512085 125.04693392h-.28787231c-.01220704.04858398.25732421.1052246.4317932.13671875v.00634765l.25186158.08935547-.04779053-.20581054c.0105896-.02661133.02050782-.05322266.02981568-.08032227l-.03048706-.01538086c-.0003357-.01879883-.00216675-.03735351-.00546265-.0559082-.02966309-.00634766-.06030273-.00634766-.08996582 0 .03131103.02148437.06311035.03930664.09545898.0559082.00039673.02319336-.00143432.04638672-.00552368.0690918l.00616455.02661133c-.01815796.0456543-.03823852.09033203-.06015014.13427734 0 0-.06130982-.00927734-.1439209-.02416992v-.13671875c-.00930786-.04125977-.00930786-.08398438 0-.12524414h.10250854c-.1642456-.09741211-.3139038-.21777344-.44433593-.35742188-.03598023.0715332.19790649.32177735.19790649.32177735v.16088867z"/>
      <path fill="rgb(29,113,184)" fill-rule="evenodd" d="M101.2611968 124.2962159h.25187512s.41379483-.2323962.43178591-.16088968l-.37781267.19664294s.34183051.2323962.30584835.30390273l-.35982159-.26814947s-.25187512 0-.25187512-.07150652z"/>
      <path fill="rgb(29,113,184)" fill-rule="evenodd" d="M101.63900757 123.20586946c-.01080322.02197266-.01556397.04614258-.01431275.07006836l-.09362793-.03442382c-.02423095.13598632-.02423095.27514648 0 .4111328h-.26986694c.01800537.08935548.61169434-.03564452.61169434-.03564452.0055542-.0415039.00836181-.0834961.00836181-.12524414l.06359864.00024414-.07196045-.17895508c.0192871-.03320313.0192871-.07397461 0-.10717774h-.12594605c-.03414917-.01611328-.0737915-.01611328-.10794067 0zm.24224853.28588868h-.24224853v-.16088868c-.00854492-.01733398-.01330567-.0361328-.01431275-.05517578l.24819947.09106446q.0083313.06225586.00836181.125z"/>
      <path fill="rgb(29,113,184)" fill-rule="evenodd" d="M101.22521973 122.70513704v.07299805l-.08996582-.14453125s.46777343-.25024414.48574829-.17871094l-.39578247.25024414zm.09936523.23242188l-.09936523-.15942383v.03442383c-.01934815.03955078-.01934815.08569336 0 .125h.09936523zm0 0h.0265503c.06072997 0 .17163085-.06225586.2722168-.11889649.10806273-.06054687.20422362-.11474609.213562-.07763672l-.46777343.26806641-.04455567-.0715332z"/>
      <path fill="rgb(29,113,184)" fill-rule="evenodd" d="M100.93734741 122.5979593c-.0632019-.1286621-.09991455-.26831054-.10794067-.4111328l.30584717-.23242188c.11367797-.08618164.14282226-.10839844.15124511-.10229492.0029297.00219726.00335694.0078125.00393677.01513672.00222778.02905273.00671387.0871582.16867066.0871582.00543212.03686524.00778198.07421875.00704956.11157227-.05819703-.06958008-.13565064-.12084961-.22296143-.14746094-.01620483.03393555-.01620483.07348633 0 .10742187-.01620483.03393555-.01620483.0732422 0 .10717774v.12524414l.22213745-.16992188c-.00109863.0209961-.00317383.04174805-.00622558.0625-.16448975.15966797-.33874512.3088379-.52175904.44702149zm.52798462-.50952148l.00082398-.02246093.01092529.01367187-.01174927.00878906zm-.24014282.08056641v.12524414l-.25186157.23217774.12594604-.125c-.01620483-.03393555-.01620483-.0732422 0-.10717774-.0059204-.0415039-.0059204-.08374023 0-.12524414h.12591553z"/>
      <path fill="rgb(29,113,184)" fill-rule="evenodd" d="M100.4695893 121.86499407l.19790187.21451957s.449777-.5720522.50375023-.53629893c-.1633921.21129109-.33753246.41415687-.5217413.60780546-.18420885.19364858-.28785728-.2323962-.1799108-.2860261z"/>
      <path fill="rgb(29,113,184)" fill-rule="evenodd" d="M100.36164282 121.79348754c.12919108-.22253446.27982354-.43207838.44977699-.62568208-.12919108.22253446-.27982354.43207838-.449777.62568208z"/>
      <path fill="rgb(29,113,184)" fill-rule="evenodd" d="M100.10977173 121.02471712l.26046753.03686524c-.00164795-.01245118-.0045166-.02490235-.00860596-.03686524h-.25186157zm.37780762.16113281c.01620483-.03393554.01620483-.07348632 0-.10742187l-.1173401-.01660156c.00390626.02954101.0010376.0595703-.00860595.08813476l-.1439209.25024414v.10742188h-.10794067c.25186157.08935547.25186157 0 .25186157 0l.12594605-.32177735z"/>
      <path fill="rgb(29,113,184)" fill-rule="evenodd" d="M98.34664917 122.3118265c-.97363281.52197265-1.46920776 1.63183593-1.20541382 2.69946289.08081055.47314453.37695313.8828125.80249024 1.10986328.42550659.22729492.93276977.24633789 1.37445068.05200195.97857666-.51733398 1.47595215-1.63110351 1.2053833-2.69946289-.08078003-.47314453-.3769226-.8828125-.80245972-1.10986328-.4255371-.22705078-.93276977-.2463379-1.37445068-.05200195zm-.31271362 3.6965332c-.38131714-.20336914-.64498902-.57226563-.71276856-.99707031v-.10742188c-.17849731-.91455078.25769043-1.83935547 1.07946778-2.28808594.39379882-.1784668.84890747-.16381836 1.2302246.03979493.38131714.20336914.64501954.57226562.71279908.9970703.23110962.9494629-.212677 1.93432618-1.07946778 2.39550782-.39379882.1784668-.84890747.16357422-1.23025512-.03979492z"/>
      <path fill="rgb(29,113,184)" fill-rule="evenodd" d="M98.81440996 121.0784223s-.28785727 0-.28785727-.10725979h.28785727v-.05362989s.25187512-.2323962.32383944-.12513642l-.25187512.21451958s.23388404.1787663.16191972.30390273l-.23388404-.19664295s0 .339656-.19790188.30390273l.19790188-.33965599z"/>
      <path fill="rgb(29,113,184)" fill-rule="evenodd" d="M98.70646348 127.53188612s-.28785727 0-.28785727-.10725979h.28785727v-.03575326s.23388404-.2323962.30584836-.12513642l-.25187512.21451958s.23388404.1787663.16191972.30390273l-.21589296-.19664295s-.10794648.339656-.21589295.30390273l.21589295-.35753262z"/>
      <path fill="rgb(252,199,170)" fill-rule="evenodd" d="M102.57454562 129.49831554l-2.2129028 5.523879-.14392864.35753262-.70165211-.2323962c-.50375023-.25027283-8.45580747-4.70155397-8.61772719-4.88032028-1.62977856-2.07194485-2.85062392-4.43138363-3.59821594-6.9540095l.46776807-5.55963226s.89955399-2.55635824 2.06897417-1.7876631l.82758967 2.60998813 3.14843895 1.48376038 1.9430366.53629893-1.1514291-2.10944247c-1.58321501-3.30717674.21589296-4.86244365 1.09745587-3.57532621l1.52924178 3.14628707 3.4542873 4.12950178 1.88906337 7.31154211z"/>
      <g opacity=".3">
        <path fill="rgb(252,175,117)" fill-rule="evenodd" d="M87.22815462 123.31300119l4.13794833 3.75409252c3.18442112 2.96752076 6.20692251 4.2546382 8.99553987 3.3965599v4.55854093l-.14392864.35753262-.70165211-.2323962c-.50375023-.25027283-8.45580747-4.70155397-8.61772719-4.88032028-1.60944178-2.0956762-2.85035535-4.44687536-3.67018026-6.9540095z"/>
      </g>
      <path fill="rgb(252,199,170)" fill-rule="evenodd" d="M181.08761754 157.3679834l-.41379483 4.8981969-.95352723 2.87813761-2.14093848 3.84347568c-.64767887 1.07259787-1.79910798.87595493-1.6911615-.12513641l-1.04348262 1.7876631c-.93553615 1.4301305-2.3028582.21451958-1.58321502-1.2692408l1.56522394-3.80772242-2.60870656 4.75518387c-1.02549155 1.39437722-2.3928136.5184223-1.79910797-1.3765006l2.10495632-5.36298932-2.32084928 4.21888493c-.70165211.94746145-2.28486713.35753262-1.79910797-1.37650059l2.35683144-6.9003796c.17676878-.86235769.09546019-1.75727728-.23388404-2.57423487-.44977699-.91170819-4.01201077.9832147-4.01201077.9832147l-3.23839435 1.78766312c-1.18741127.1787663-1.6911615-.12513642-1.52924178-.91170819l2.44678684-2.53848161 2.73464412-2.32396204 1.20540234-1.05472124c1.6247215-1.16006996 3.45622448-2.00326807 5.39732392-2.48485172l.14392864-.50054567.30584835-1.00109134 2.6626798.41116252 3.97602862.60780545-.1799108 3.02115066.21589296 1.41225385.43178591 3.00327402z"/>
      <g opacity=".3">
        <path fill="rgb(252,175,117)" fill-rule="evenodd" d="M170.09506783 156.5099051l5.39732392-1.23348754 2.89656383 4.84456702-2.46477792 8.7416726c0-2.32396204.19790188-5.1127165-1.34933098-5.66689206l-2.69866196-.37540925 2.24888497-1.48376038-.34183052-2.16307236-4.67768072-.73294187.98950938-1.93067616z"/>
      </g>
      <path fill="rgb(255,255,255)" fill-rule="evenodd" d="M168.94363873 92.15403321l1.58321501 19.11011863 1.31334882 15.8744484c1.16942019 9.206465 2.50076009 16.6252669 1.65517934 21.4519573-.08508772.4429172-.08508772.89783012 0 1.34074732.53980118 1.32394218 1.58886005 2.37919651 2.91455491 2.9317675 1.29372198.66613876 2.66548566 1.17052262 4.0839751 1.50163701 2.3028582-9.45673784 4.10196618-18.57381969 3.31035867-25.9389917l-1.52924177-18.77046263c-.32383944-10.74385528-2.89656384-18.85984579-13.33139008-17.50122183z"/>
      <g opacity=".3">
        <path fill="rgb(252,175,117)" fill-rule="evenodd" d="M166.9286378 153.95354686l9.62522765-1.10835113c-1.33584623-.5405397-2.3983767-1.58987335-2.95053707-2.91389087l-.14392864.5184223c-1.94334913.46601676-3.77664325 1.30396738-5.39732392 2.4669751l-1.13343802 1.0368446z"/>
      </g>
      <g opacity=".3">
        <path fill="rgb(60,60,59)" fill-rule="evenodd" d="M171.85819364 127.13860024c1.16942019 9.206465 2.50076009 16.6252669 1.65517934 21.4519573-.08508772.4429172-.08508772.89783012 0 1.34074732.53980118 1.32394218 1.58886005 2.37919651 2.91455491 2.9317675v-3.57532622c.59370564-17.87663107 6.00902063-32.69635824-.14392863-40.9017319l-5.75714552 2.8781376 1.3313399 15.8744484z"/>
      </g>
      <path fill="rgb(29,29,27)" fill-rule="evenodd" d="M123.75004646 265.87913405c0-3.43231317 2.6626798-4.75518387 6.60272626-5.16634639 3.4542873 0 8.09598588 1.51951364 14.1949619 2.91389087l6.96254786 3.78984579c1.19129864 3.0652124 1.36776486 6.42805305.50375023 9.59975089-1.75091923 1.73389398-4.23743117 2.51972125-6.67469058 2.10944246l-7.8081286-3.28930011-.55772347-1.12622776c-6.24290467-.66143535-13.2234436-3.48594306-13.2234436-8.83105575z"/>
      <path fill="rgb(29,29,27)" fill-rule="evenodd" d="M149.15345103 252.11412811c0-2.78875444 2.53674224-3.27142348 6.2968779-3.57532621 6.81861922 0 7.1064765 3.3965599 13.36737224 3.25354685l6.15294927 3.71833927c1.0794914 3.3298523 1.17316457 6.89781466.2698662 10.27906287-1.95516838 1.47222213-4.43666772 2.0740892-6.85460138 1.66252669l-6.33286007-3.70046263-.5217413-1.19773429c-5.9550474-.82232503-12.37786286-5.20209964-12.37786286-10.43995255z"/>
      <path fill="rgb(34,34,34)" fill-rule="evenodd" d="M171.46238989 156.5099051l-22.68675153 9.51036774c-.08389689 3.5217422.06635569 7.04514577.44977699 10.54721233 1.43928638 10.38632266 5.64919903 26.08200475 5.64919903 26.08200475 3.04049248 13.33596678 4.2638859 29.9076038 4.965538 47.35519573.12593757 6.29257414 9.53527226 11.7985765 15.56228397 5.863535 1.79910797-21.30894426 1.79910797-42.01008305-3.32834975-55.72145908 2.42879576-10.72597865.14392864-22.89996442-.5397324-35.35997628.59370564-.32177936-.7016521-8.00873072-.07196431-8.27688019z"/>
      <path fill="rgb(53,53,53)" fill-rule="evenodd" d="M154.49680171 178.90932384c0 12.51364176.12593756 22.50667853-2.89656384 33.32204034 4.28187698 13.67562277 3.1124568 34.0549822.19790188 55.41755634-3.05340125 3.6028802-8.35715672 4.32151876-12.26991637 1.6625267-2.27090245-1.63387281-3.41968108-4.40107469-2.96852816-7.15065244l-2.3028582-47.30156584c-1.8359102-8.60675806-3.23498491-17.29982422-4.19192158-26.04625148-.91754506-10.51145907 2.8425906-34.23374852 2.8425906-34.23374852 1.99392402.54605552 4.02679347.9404812 6.08098495 1.17985766 13.4933098 1.69827995 25.9071548-3.09265718 29.75724586-10.72597865.19790188.5720522.39580376 1.12622776.57571455 1.7876631 1.47514478 4.63477696 2.32218226 9.44420051 2.51875116 14.30130487.48575916 10.92262159-10.30888868 14.94486358-17.34340085 17.78724792z"/>
      <path fill="rgb(255,255,255)" fill-rule="evenodd" d="M129.95696896 114.92886121c.89468464 6.61762825 1.29757549 13.29175142 1.20540235 19.96819692 0 2.4133452 0 4.75518386.14392863 7.15065243.09195518 4.2153679.6286265 8.4095267 1.6012061 12.51364175 1.86892488.8317048 3.78525554 1.55396484 5.73915443 2.16307236 11.65821966 3.57532622 22.2729567 1.78766311 30.58483553-10.04666666 4.67109006-12.57087438 7.69444004-25.68685014 8.99553987-39.02468565 0-7.95510083-2.64468872-13.63986951-9.44531686-15.51691578-12.14397881 2.89601424-24.50385058 10.38632266-37.04363315 21.09442468-.50375023.5720522-1.1514291 1.14410439-1.7811169 1.69827995z"/>
      <path fill="rgb(252,199,170)" fill-rule="evenodd" d="M142.92853745 93.0121115l1.1514291 10.85111507c7.07049433 0 18.11701728-4.91607355 16.73170414-8.65228944l-3.7241535-7.15065243-14.15897974 4.9518268z"/>
      <path fill="rgb(252,199,170)" fill-rule="evenodd" d="M139.54621446 94.3886121c2.80660844 3.1641637 7.03451217 2.73512455 11.3523713 1.6088968 6.2968779-2.89601424 10.79464784-7.15065243 10.2009422-15.3023962.43178592-5.84565837-2.19491172-12.10247925-12.34188068-11.78069989-6.44080654.19664294-11.94607694 2.53848161-12.32388961 9.38523132 0 0-.34183052 12.92480427 3.11245679 16.08896797z"/>
      <path fill="rgb(198,198,198)" fill-rule="evenodd" d="M143.6841628 100.16276394l-2.5727244 5.79202847c12.09000557-1.35862396 22.92063556-5.863535 20.2219736-11.40529063l-2.2129028-2.55635825c1.6911615 4.00436537-10.18295113 8.77742587-15.4363464 8.1696204z"/>
      <path fill="rgb(34,34,34)" fill-rule="evenodd" d="M136.46973983 76.63711744c.59749241 2.35026066 2.06145374 4.39187255 4.10196617 5.72052194-.2114017 1.7794733-.2715847 3.57347778-.1799108 5.36298933.28785728 0 3.07647464 2.48485172 3.07647464 2.48485172l1.43928638 4.02224199c4.82160936 3.4501898 11.9820591.82232503 14.17697082-2.3060854 1.27736666-1.6088968 2.6626798-8.11599052 2.3028582-14.30130487-.75562534-5.21997628-4.53375209-10.2969395-12.5937558-10.72597865-8.06000372-.42903915-13.00755064 4.37977461-12.32388961 9.74276394z"/>
      <path fill="rgb(252,199,170)" fill-rule="evenodd" d="M141.25536703 88.50720047c-.77361643-.85807829.41379484-2.84238434 1.27736666-3.12841043 1.22339342-.39328589 1.79910798 1.35862396 1.99700985 2.3060854.2140437 1.13411972-.03871487 2.30615617-.7016521 3.25354686-.82758967 1.21561091-2.12294741 0-2.51875117-.94746145-.39580375-.94746144.43178591-.84020166-.05397324-1.48376038z"/>
      <path fill="rgb(255,255,255)" fill-rule="evenodd" d="M139.00648207 131.28597865c-.28289253 1.46745426-.64929924 2.91778922-1.09745587 4.34402135-1.9438223 2.38036163-4.15961046 4.5280618-6.60272626 6.39983393-4.18849895 3.2234635-9.04169414 5.48812359-14.21295298 6.63223013-8.29388775-3.23567023-10.90259431-5.59538553-17.99107972-13.65774615-1.07946479-2.14519573-.449777-4.4334045 2.82459951-6.9003796 7.07049434 2.53848162 9.51728118 2.23457889 14.26692623 4.46915778 5.18143096-8.41989324 10.39884408-17.23307237 15.7062126-19.2710083 6.69268165 3.27142348 8.7796469 9.47461446 7.10647649 17.98389086z"/>
      <g opacity=".25">
        <path fill="rgb(0,0,0)" fill-rule="evenodd" d="M130.06491544 188.65208778c.95588654 8.7524821 2.35496724 17.45155196 4.19192158 26.06412812l2.3028582 47.30156583c-.46597856 2.78072802.69045618 5.58420192 2.98651924 7.24003559-2.06897417-19.91456702-2.98651924-38.57776987 0-53.02208778-4.47977885-16.37499407-6.51277086-33.5365599-1.36732206-46.19321471 0-5.0590866-.59370563-9.61762752.46776807-13.30021353-1.95389889-.60910751-3.87022955-1.33136755-5.73915443-2.16307236-1.86892488-.8317048-3.76013566 23.72228945-2.8425906 34.07285884z"/>
      </g>
      <g opacity=".3">
        <path fill="rgb(60,60,59)" fill-rule="evenodd" d="M99.10226724 134.93281139c6.40482438 6.86462633 9.1394685 10.0645433 17.99107972 13.63986951 5.16823818-1.1334229 10.02120335-3.38576782 14.21295298-6.59647687.09195518 4.2153679.6286265 8.4095267 1.6012061 12.51364176 1.86892488.8317048 3.78525554 1.55396484 5.73915443 2.16307236.08691258-.33060895.2012473-.65349311.34183052-.96533808 1.09745586-2.80663108 3.3643319-4.98758007 7.84411076-6.34620403-4.92955585-2.78875445-6.54875302-9.38523132-7.82611968-18.12690392-.2698662-1.91279952-.5397324-3.9149822-.82758967-6.00654804-1.79800923 3.55769205-4.16796131 6.80017494-7.0165211 9.59975089-3.74214458 3.57532622-8.25790559 5.863535-15.0765248 9.38523132-2.64468872 1.44800711-8.65370935-6.54284698-16.98357926-9.2600949z"/>
      </g>
    </g>
  </g>
</svg>
