<svg xmlns="http://www.w3.org/2000/svg" width="16.002" height="16.002" viewBox="0 0 16.002 16.002">
  <g>
    <ellipse cx="8.001" cy="8.001" fill="rgb(32,162,106)" rx="8.001" ry="8.001"/>
    <path fill="rgb(255,255,255)" fill-rule="evenodd" d="M6.44732666 4.25466156c.40203857-.02219772.53027344-.02219772 1.55389404-.02219772v.0098648c1.02355957 0 1.15185547.00246811 1.55389405.02219773.31274414.00580978.62219238.06503677.91503906.1751213.253479.09049225.48413086.23527909.67578125.42423249.1918335.18887329.34075928.41684723.43658447.66841507.10821533.29334259.1673584.6024971.17510986.91506195.0222168.40203094.0222168.5302887.0222168 1.55387497s-.00494385 1.15184402-.0222168 1.55387497c-.00830078.31250763-.06744384.6215744-.17510986.91506195-.09655762.25047683-.24536133.47750091-.43658447.66594696-.18774414.19202041-.41497803.3409729-.66589356.4365654-.29351806.10767746-.6026001.16682815-.9151001.1751213-.40203857.02219773-.53027343.02219773-1.553833.02219773-1.0236206 0-1.15185547-.0049324-1.55389404-.02219773-.31256104-.0077629-.6217041-.06692886-.9151001-.1751213-.5057373-.19675064-.90576172-.59673691-1.10247803-1.10251236-.11010742-.29281235-.16931152-.60229111-.17510986-.91506195-.0222168-.40203095-.0222168-.5302887-.0222168-1.55387497 0-1.02358628.0024414-1.15184403.0222168-1.55387497.00512695-.31283951.06439209-.62242127.17510986-.91506195.19244385-.50515747.5892334-.90555573 1.09265137-1.10251236.29260254-.1106987.60223388-.16994858.91503906-.17512131zm3.07574463.67827988c-.39709473-.02219773-.51550293-.02219773-1.52178955-.02219773-1.00634766 0-1.12719727.00246811-1.524292.02219773-.23895263.0040741-.47558593.04740524-.70050048.12825775-.32684326.12961578-.58563233.38843536-.715271.7152748-.08087158.22488786-.12420654.46153642-.12823486.7004776-.0222168.39710237-.0222168.5179596-.0222168 1.52428056 0 1.00632095.0024414 1.12471008.0222168 1.52181244.00299072.24226379.04632568.48233413.12823486.71034622.12756348.3281784.38708496.5877037.715271.7152748.2243042.08327485.46124267.1274872.70050049.13072205.39709472.01973343.51794433.01973343 1.52429199.01973343 1.00628662 0 1.12469482 0 1.52178955-.02959823.23925781-.00323487.47613525-.04745102.70050049-.13072205.32971191-.12517547.59008789-.38554.715271-.71527862.08325195-.22430802.1274414-.46123124.13067626-.7004776.0197754-.39710236.0197754-.51549149.0197754-1.52181244 0-1.00632096-.00250245-1.1271782-.0197754-1.52428055-.00323486-.23924637-.04742431-.47616577-.13067627-.7004776-.12756347-.3281784-.387146-.5877037-.715271-.71527481-.22491454-.08085251-.46154784-.12418366-.70050048-.12825775z"/>
    <path fill="rgb(255,255,255)" fill-rule="evenodd" d="M6.21069336 7.25857925c.30047607-.72341919 1.00720215-1.19452285 1.79052734-1.1935234.51330567-.00000382 1.00549317.20406723 1.3682251.56724167.36273193.36317443.56616211.85565567.56549072 1.36893844 0 .78333283-.47198486 1.48949051-1.19580078 1.78903198-.72381592.29953766-1.5567627.1334343-2.11035156-.42082214-.55352783-.55425644-.7185669-1.38744354-.41809082-2.11086655zm.6264038 1.22270585c.19537354.47026824.65496827.77637863 1.16418458.775383.33294678 0 .65228271-.13227082.88769531-.36771012.23547363-.2354393.36773682-.5547638.36773682-.88772583.00097656-.50922013-.30511475-.96880722-.77539063-1.1641388-.47027588-.19533157-1.01190185-.08786773-1.37200928.27220536-.36004638.3600769-.4675293.90171814-.2722168 1.37198639z"/>
    <path fill="rgb(255,255,255)" fill-rule="evenodd" d="M10.46523817 5.98859257c.00099881.18377855-.10893798.35001719-.27844138.42103936-.16950341.07102218-.36510727.03280552-.49541386-.09679289-.13030659-.1295984-.16958863-.32499109-.09949123-.49487901.0700974-.16988793.23573446-.28072901.41951573-.28073173.12013602-.00065649.23557695.04660785.32075837.13132633.08518142.08471848.13307416.19990012.13307237.32003794"/>
  </g>
</svg>
