<svg xmlns="http://www.w3.org/2000/svg" xmlns:xlink="http://www.w3.org/1999/xlink" width="30.031" height="29.062" viewBox="0 0 30.031 29.062">
  <defs>
    <path id="path-1" fill-rule="evenodd" d="M14.87561035 29.0625c8.29290078 0 15.015625-6.50586492 15.015625-14.53125S23.16851113 0 14.87561035 0s-15.015625 6.50586492-15.015625 14.53125c.00946045 8.0216009 6.7266374 14.52213357 15.015625 14.53125z"/>
    <mask id="mask-2" x="0" y="0" maskContentUnits="userSpaceOnUse" maskUnits="userSpaceOnUse">
      <rect width="30.031" height="29.062" x="0" y="0" fill="black"/>
      <use fill="white" xlink:href="#path-1"/>
    </mask>
  </defs>
  <g transform="matrix(-1 0 0 1 29.7512207 0)">
    <g>
      <use fill="rgb(255,255,255)" xlink:href="#path-1"/>
      <use fill-opacity="0" stroke="rgb(189,189,189)" stroke-linecap="butt" stroke-linejoin="miter" stroke-width="4" mask="url(#mask-2)" xlink:href="#path-1"/>
    </g>
    <g>
      <path fill="rgb(189,189,189)" fill-rule="evenodd" d="M8.18602438 15.81910014h13.37444485c.73494531 0 1.3307362-.57657165 1.3307362-1.28780883 0-.71123719-.59579089-1.28780884-1.3307362-1.28780884H8.17978412c-.73494531 0-1.3307362.57657165-1.3307362 1.28780884 0 .71123718.59579089 1.28780883 1.3307362 1.28780883h.00624026z"/>
      <path fill="rgb(189,189,189)" fill-rule="evenodd" d="M12.64625275 20.13544886c.53722415-.0020221 1.02049998-.31645342 1.22518678-.7971371.20468679-.48068368.09063244-1.03332708-.28914725-1.40104539l-3.51950864-3.40597506 3.52418884-3.40597507c.49919847-.50603062.48962565-1.3051868-.02156018-1.79988263-.51118584-.49469581-1.33698082-.50395983-1.85987928-.02086468l-4.46022837 4.31634872c-.25017347.24109678-.39080722.56869887-.39080722.91037366 0 .34167478.14063375.66927687.39080722.91037365l4.46022837 4.31634872c.24877109.24253332.58759766.37847717.94071973.37743518z"/>
    </g>
  </g>
</svg>
