<svg xmlns="http://www.w3.org/2000/svg" xmlns:xlink="http://www.w3.org/1999/xlink" width="28.689" height="28.072" viewBox="0 0 28.689 28.072">
  <defs>
    <path id="path-1" fill-rule="evenodd" d="M14.58274841 28.0721283c7.92209626 0 14.34425354-6.2841797 14.34425354-14.036026C28.92700195 6.28417968 22.50484467 0 14.58274841 0 6.66061401 0 .23849487 6.28417969.23849487 14.0361023c.00900269 7.7481842 6.42585755 14.0271759 14.34425354 14.036026z"/>
    <mask id="mask-2" x="0" y="0" maskContentUnits="userSpaceOnUse" maskUnits="userSpaceOnUse">
      <rect width="28.689" height="28.072" x="0" y="0" fill="black"/>
      <use fill="white" xlink:href="#path-1"/>
    </mask>
  </defs>
  <g transform="matrix(-1 0 0 1 29.16549683 0)">
    <g>
      <use fill="rgb(255,255,255)" xlink:href="#path-1"/>
      <use fill-opacity="0" stroke="rgb(189,189,189)" stroke-linecap="butt" stroke-linejoin="miter" stroke-width="4" mask="url(#mask-2)" xlink:href="#path-1"/>
    </g>
    <g>
      <path fill="rgb(189,189,189)" fill-rule="evenodd" d="M8.19226402 15.28002783h12.77645305c.70208479 0 1.27123696-.55692365 1.27123696-1.24392378 0-.68700014-.56915217-1.24392378-1.27123696-1.24392378H8.18630277c-.7020848 0-1.27123696.55692364-1.27123696 1.24392378 0 .68700013.56915217 1.24392378 1.27123695 1.24392378h.00596126z"/>
      <path fill="rgb(189,189,189)" fill-rule="evenodd" d="M12.45306879 19.44928701c.51320403-.0019532.97487187-.30566954 1.1704068-.76997282.19553494-.46430327.08658014-.99811407-.27621902-1.35330153L9.9851105 14.03610405l3.366617-3.28990862c.47687854-.48878645.46773374-1.26070955-.0205962-1.73854747s-1.27720237-.48678624-1.77672124-.02015368l-4.26080477 4.1692592c-.23898783.23288084-.37333364.54931914-.37333364.87935057 0 .33003142.1343458.64646972.37333364.87935057l4.26080477 4.16925919c.23764815.23426843.56132527.36557969.89865872.3645732z"/>
    </g>
  </g>
</svg>
