<svg xmlns="http://www.w3.org/2000/svg" xmlns:xlink="http://www.w3.org/1999/xlink" width="22.951" height="22.458" viewBox="0 0 22.951 22.458">
  <defs>
    <path id="path-1" fill-rule="evenodd" d="M11.66619873 22.45770264c6.337677 0 11.47540283-5.0273285 11.47540283-11.22885132C23.14160156 5.02732849 18.00387573 0 11.66619873 0 5.32849121 0 .1907959 5.0273285.1907959 11.22885132c.00720215 6.19859314 5.14068603 11.2217865 11.47540283 11.22885132z"/>
    <mask id="mask-2" x="0" y="0" maskContentUnits="userSpaceOnUse" maskUnits="userSpaceOnUse">
      <rect width="22.951" height="22.458" x="0" y="0" fill="black"/>
      <use fill="white" xlink:href="#path-1"/>
    </mask>
  </defs>
  <g transform="matrix(-1 0 0 1 23.33239746 0)">
    <g>
      <use fill="rgb(255,255,255)" xlink:href="#path-1"/>
      <use fill-opacity="0" stroke="rgb(189,189,189)" stroke-linecap="butt" stroke-linejoin="miter" stroke-width="4" mask="url(#mask-2)" xlink:href="#path-1"/>
    </g>
    <g>
      <path fill="rgb(189,189,189)" fill-rule="evenodd" d="M6.55381121 12.22399174h10.22116245c.56166783 0 1.01698957-.44553891 1.01698957-.99513902 0-.5496001-.45532174-.99513903-1.01698957-.99513903H6.5490422c-.56166783 0-1.01698957.44553892-1.01698957.99513903 0 .5496001.45532174.99513902 1.01698957.99513902h.004769z"/>
      <path fill="rgb(189,189,189)" fill-rule="evenodd" d="M9.96245503 15.5593991c.41056323-.00156256.7798975-.24453565.93632545-.61597826.15642794-.37144262.0692641-.79849126-.22097523-1.08264123l-2.68971684-2.6319269 2.6932936-2.63192688c.38150283-.39102917.37418699-1.00856765-.01647696-1.39083798-.39066395-.38227033-1.0217619-.389429-1.421377-.01612294l-3.40864381 3.33540735c-.19119027.18630468-.2986669.43945532-.2986669.70348046s.10747663.51717578.2986669.70348046l3.40864381 3.33540735c.19011853.18741474.44906023.29246375.71892698.29165856z"/>
    </g>
  </g>
</svg>
