<svg xmlns="http://www.w3.org/2000/svg" width="15.718" height="15.996" viewBox="0 0 15.718 15.996">
  <g>
    <path fill="rgb(32,162,106)" fill-rule="evenodd" d="M14.22270203 14.77992249l-.12591553-.27644349-.13024902.02606202c-.03440857-.00675965-.06980896-.00675965-.10421753 0-.23301697.03762817-.86837769 0-1.85688782-.26052857 2.2930603-1.38938904 3.69906616-3.8708496 3.7123413-6.55195618C15.71777344 3.46195984 12.19212342 0 7.85888673 0 3.52565002 0 0 3.46195984 0 7.71705627c.01356506 2.68103028 1.41949463 5.16236878 3.7123413 6.55195618-.98851012.25907898-1.60360717.27644348-1.83662414.2402649-.02833557-.00500489-.0549469.00512695-.07749939.01371765-.03619384.01377868-.06187439.0235443-.06723022-.03977967l-.10131836.04632569-.13749695.25038147c-.14674377.01698303-.25715637.14173889-.25616455.28945922v.17512513c0 .15986633.1295929.28945922.28945923.28945922H6.8023529c.1013031.27064515.51957702.46168519 1.05075073.46168519.53115844 0 .94798279-.19104004 1.04930115-.46168519h5.28121948c.15986633 0 .28945923-.1295929.28945923-.28945922v-.17512513c.00134277-.1457672-.10594178-.26979065-.25038147-.28945922zm-2.625412-2.00743103L10.53352357 9.8952484c.01667786-.01600647.02996826-.03520202.03907776-.05644226.01913452-.04634094.01913452-.09838867 0-.14472961L8.82858276 4.948349h.25184632v-.51379395h-.25184632c.01782227-.08203888.02990723-.16522216.03619385-.24893951l.00868225-.08972931h.36183167v-.93496704c.0901947-.02363586.15316772-.10503388.15341186-.19828034v-.57892608c-.00073242-.09307099-.06350708-.17420197-.15341186-.19828034V1.5630951h-.2749939v-.31985473c0-.20111084-.1621704-.36458588-.36328125-.3661728h-1.4863739c-.20224 0-.36618042.16394044-.36618042.3661728v.31985473h-.28077698v2.53279114h.37774658v.08972931c.00747681.08366394.02005005.16680145.03762818.24893951h-.24893189V4.948349h.25473023l-1.7527008 4.74861145c-.01979066.04621887-.01979066.098526 0 .14474487.00857543.0211792.02137756.04037476.03764342.05644226l-1.0579834 2.87434388c-.01838683.04650878-.01838683.09825134 0 .14474487.0092621.02072143.0225525.03941345.03907777.05499267l-.21420289.59628296C1.9306488 12.29898071.71391296 10.09106446.71208191 7.71705627c0-3.86287689 3.20579529-7.00498199 7.1468048-7.00498199 3.94102479 0 7.14682008 3.1421051 7.14682008 7.004982-.0021515 2.37654113-1.22125244 4.58642578-3.23039246 5.85580444l-.22143555-.59918213c.0527649-.0526886.06976319-.13142395.04341126-.20118713zM7.55639649 1.8655777c.18365479-.09986115.40539551-.09986115.5890503 0v-.10565186c-.00038147-.05143738.01968384-.10092163.05578613-.13755798.0361023-.03664398.08528137-.05744934.13671875-.05783081h.07380676v-.14472962H7.29588318v.14472962h.06802368c.10653687.00079346.19248962.08739471.19248962.1939392v.10710145zm.29959107.80471039c.15986633 0 .28945923-.12960053.28945923-.28946686s-.1295929-.28945923-.28945923-.28945923-.28945923.1295929-.28945923.28945923.1295929.28946686.28945923.28946686zm-.29959107.22432708c.18365479.09986115.40539551.09986115.5890503 0v.70194245h-.5890503v-.70194245zm.55722046 11.30493927c.04342652-.03184509.09407044-.07380676.13604737-.10131836l.07670593-.04776c.78588867-.51234437 1.50230408-.52537537 2.74989319-.07815552.1143341-.05644226.2301178-.1186676.3444519-.18380738l-.24893188-.67298889c-.02056885-.00170898-.04067993-.0071106-.05934143-.01593017-.04627991-.02160645-.08216858-.06062317-.09986878-.10853577l-1.06521606-2.88015747c-.07165528-.00888062-.1324463-.05683899-.15776062-.12446594l-1.46322632-3.9569397v4.98597717c.00048828.09414673-.06768799.17462158-.16064453.18960572v.83943176l.23735046.43418884c.0710144.13294983.0710144.29257202 0 .4255066l-.20697021.37631225v.55575561c.0004425.06303406-.0304718.12216187-.08248902.15776062v.20552063zm-3.47354126-.2301178c-.11578369-.05789184-.2301178-.11868286-.34880066-.18670654l.2474823-.67010498c.072464-.00772095.13423157-.05601501.1592102-.12446594l1.06376649-2.88014221c.07220459-.00837708.133667-.056427.1592102-.12446594l1.46034241-3.94392395v4.97584533c.00035095.09565735.07040405.17677307.16499329.19104004v.85536194l-.23158264.41682434c-.07441712.13516235-.07441712.29904175 0 .4342041l.21131897.36471558v.55865478c.00030517.06285096.03105163.12164307.082489.15776062v.20697022c-.04341125-.0303955-.10275268-.08250427-.1447296-.11000061-.38516236-.27642822-.84588624-.42799378-1.3199463-.43418884-.5154724.01722717-1.02412414.12297058-1.50375366.31262207zm3.23474121 1.40098572h-.013031c-.28945923 0-.49642944-.05644226-.59049988-.1765747l.57891846-.22288514.59629822.2257843c-.12158204.16209412-.45011902.1823578-.5716858.17367554z"/>
    <path fill="rgb(213,227,220)" fill-rule="evenodd" d="M8.77792854 14.82044324l-.87996382-.39366803-.0318408.01302579c.00062757-.0028606.00062757-.00582326 0-.00868386l.01881502-.02749887.01302578-.01157847c.13746493-.12873408.28455253-.24679124.43998191-.35314337.82496608-.54274084 1.6571687-.5022162 2.8758028-.0492085 1.53125283.5687924 2.47200362.50945273 2.8092266.45734961.0488167-.00652154.09716103-.0161904.14473089-.02894618l.11867933.40235188H8.77792854z"/>
    <path fill="rgb(213,227,220)" fill-rule="evenodd" d="M6.94708277 14.82044324l.86838534-.39366803.0318408.01302579v-.00868386l-.01881502-.02749887-.01302578-.01157847c-.13561324-.12850117-.28075876-.24655285-.43419267-.35314337-.82496608-.54274084-1.6571687-.5022162-2.8758028-.0492085-1.53125283.5687924-2.47200362.50945273-2.8092266.45734961-.0488167-.00652154-.09716103-.0161904-.14473089-.02894618l-.11867933.40235188h5.51424695z"/>
    <path fill="rgb(32,162,106)" fill-rule="evenodd" d="M7.6012664 14.20099502v.61944822h.51524197v-.62089552l-.51524197.0014473z"/>
    <rect width="2.774" height=".426" x="6.464" y="4.093" fill="rgb(213,227,220)" rx="0" ry="0"/>
    <path fill="rgb(213,227,220)" fill-rule="evenodd" d="M7.06431479 1.2504749v.48050656h.28946178v2.06096788h.98272275V1.73098146h.29525102V1.2504749H7.06431479z"/>
    <path fill="rgb(32,162,106)" fill-rule="evenodd" d="M7.39719584 2.5342379c0 .2485906.2015225.45011308.45011308.45011307.24859058 0 .45011306-.20152249.45011306-.45011308 0-.24859058-.2015225-.45011306-.45011308-.45011306-.24826076.00079444-.44931862.2018523-.45011306.45011307z"/>
    <path fill="rgb(213,227,220)" fill-rule="evenodd" d="M7.56363636 2.5342379c0 .15986533.12959646.28946178.28946179.28946178.15986532 0 .28946178-.12959645.28946178-.28946178s-.12959646-.28946178-.28946178-.28946178c-.15986533 0-.28946179.12959645-.28946179.28946178z"/>
    <path fill="rgb(32,162,106)" fill-rule="evenodd" d="M7.67073722 2.5342379c0 .07141658.04302031.13580102.10900063.16313097.06598031.02732994.14192694.01222322.1924261-.03827593.05049914-.05049915.06560587-.12644578.03827593-.1924261-.02732994-.06598031-.09171439-.10900062-.16313097-.10900063-.09751785 0-.17657169.07905384-.17657169.1765717z"/>
    <path fill="rgb(213,227,220)" fill-rule="evenodd" d="M7.77494346 2.5342379c-.00589009.0293043.00647443.0592681.03131627.07589092.02484185.01662281.05725651.01662281.08209836 0 .02484184-.01662282.03720636-.04658662.03131627-.07589092-.00692822-.03446915-.03720692-.05926748-.07236545-.05926748s-.06543723.02479833-.07236545.05926748z"/>
  </g>
</svg>
