<svg xmlns="http://www.w3.org/2000/svg" width="175" height="44.922" viewBox="0 0 175 44.922">
  <g>
    <path fill="rgb(32,162,106)" fill-rule="evenodd" d="M64.52593837 13.81970012v-1.4470039c0-.37800944-.0476558-.54059415-.48450053-.54059415h-6.32233468c-3.12939681 0-4.09442654 2.03230884-4.09442654 4.23533163v11.78739128c0 .40646176.18665184.49181874.53215631.49181874h1.74340762c.43684473 0 .5321563-.0447108.5321563-.49181874v-11.9540406c0-1.01208981.39713158-1.52829626 1.58852631-1.52829626h6.024486c.38521763 0 .4805292-.14632623.4805292-.552788z"/>
    <path fill="rgb(32,162,106)" fill-rule="evenodd" d="M63.87067413 22.19281006c0-4.12558746 2.30335999-6.50338745 5.50027466-6.50338745 3.5146103 0 5.1944809 1.9794693 5.1785965 5.2230339 0 1.62178421-.80618286 2.06888962-1.83872223 2.06888962H66.5910263c.0714798 2.459095 1.44953155 3.27201843 3.22073364 3.27201843.93202972-.01107788 1.85063934-.22879028 2.69255829-.63814544.25019073-.11380768.41300964-.06909943.50435638.1422615l.6195221 1.34132385c.0608139.09041596.0782318.20420075.04734039.30931855-.03088379.1051178-.10673523.19019699-.20619202.23127365-1.18659973.6578064-2.5233841.9791565-3.87203216.93080139-3.70127106 0-5.7266388-1.95508194-5.7266388-6.377388zm5.54395295-4.23126602c-1.60838318 0-2.64489747 1.43481064-2.71240998 3.01188278h5.28582c0-1.67055893-.50435637-3.01188278-2.57341002-3.01188278z"/>
    <path fill="rgb(32,162,106)" fill-rule="evenodd" d="M76.77347565 22.16029358c0-4.11745834 2.2993927-6.47087097 5.58763885-6.47087097 3.65758515 0 5.56381226 2.42657852 5.56381226 6.39364242 0 4.17436219-1.93005371 6.50339127-5.63132477 6.50339127-3.70126343 0-5.52012634-2.21115494-5.52012634-6.42616272zm2.71240997-.06909561c0 2.6135521.71483612 4.18655777 2.82757568 4.18655777 2.14054108 0 2.87523651-1.95101548 2.87523651-4.11745835 0-2.25992584-.5758438-4.16623306-2.77992248-4.16623306-1.97771454 0-2.92288971 1.76810837-2.92288971 4.09713364z"/>
    <path fill="rgb(32,162,106)" fill-rule="evenodd" d="M93.74687968 15.68942425c-1.25713524-.0150554-2.50112894.26294025-3.63772523.81292354-.29784868.1625847-.29784868.23574783-.18268052.58530495l.48450052 1.39009924c.11516815.26013554.20650842.32923404.57186947.16664933.81500375-.3245958 1.67923033-.50067656 2.55355603-.52027106 1.67986656 0 2.52972813.967379 2.69255208 2.65825996H92.3648618c-.25416421 0-.25416421.11787391-.25416421.28452324v1.50390854c0 .26013553.16282395.30891094.2541642.30891094h3.97131576c-.09134026 2.03230884-1.01268552 3.29234033-3.05791313 3.29234033-.92649014-.03221872-1.8392481-.23890063-2.69255208-.60969266-.34153315-.16664932-.43287342-.0934862-.528185.16258471l-.59569736 1.41448695c-.11516815.28045862-.09134026.40646177.18268053.58530495 1.17153814.68285577 2.66872418.8495051 3.9316026.8495051 3.60992601 0 5.51615757-2.30870285 5.51615757-6.73100689-.01588526-4.01177765-1.92211682-6.15383117-5.345391-6.15383117z"/>
    <path fill="rgb(32,162,106)" fill-rule="evenodd" d="M110.83942268 23.83085347c-.29784868-.9877021-.64335315-1.78843178-1.90623156-2.1623766l.01985658-.04877542c.85383289-.37800944 1.31450552-1.19906221 1.5646984-2.16644122l.84986158-3.0809802c.0238279-.16258471.0238279-.40646177-.27402079-.40646177h-1.88240366c-.09273015-.0175255-.18839547.00544671-.26383375.06335468-.07543828.05790797-.12377167.1454721-.13329783.24149164l-.85383289 2.75174617c-.43287341 1.39009925-1.21522262 1.62584708-2.06508419 1.62584708h-1.44953025v-4.30036551c0-.35362174-.11516816-.37394483-.39713157-.37394483h-1.84269051c-.2740208 0-.39713158.02032309-.39713158.37394483V27.9523758c0 .34955712.13899605.37394483.39713158.37394483h1.8426905c.29784869 0 .39713158-.0243877.39713158-.37394483v-5.15799984h1.67589525c.95652813-.06840473 1.83322928.54606786 2.1167113 1.48358546l1.1079971 3.76790059c.04309204.183486.21423458.30434872.39713157.28045862h1.98565787c.36933237 0 .32167658-.26013553.30182-.40646177l-1.19139473-4.08900539z"/>
    <path fill="rgb(32,162,106)" fill-rule="evenodd" d="M122.65408705 25.73715916c-.09134026-.25607091-.18268052-.32923403-.528185-.1625847-.84745523.38484518-1.76161205.5921496-2.68858076.60969265-2.38278945 0-2.99040076-1.76404408-2.99040076-3.95080839s.830005-4.09713462 2.94274497-4.09713462c.82940513.01873397 1.64817545.19515639 2.41455998.52027106.36933237.1625847.46067263.0934862.57584078-.16664932l.57584079-1.39009925c.15885263-.30484633.09134026-.40646177-.18665184-.58530495-1.081776-.56128363-2.28221742-.84052102-3.49475787-.81292353-3.4034176 0-5.55984205 2.56477375-5.55984205 6.54403446 0 4.21094392 1.88637498 6.35299744 5.31362048 6.35299744 1.2628784 0 2.80374892-.16664932 4.06662733-.89421589.11267564-.0408376.19755051-.13719587.22559749-.25612037.02804698-.1189245-.00453444-.24430037-.08660144-.3332492l-.5798121-1.37790539z"/>
    <path fill="rgb(32,162,106)" fill-rule="evenodd" d="M135.10813325 15.9739475h-8.33976308c-.30449223-.04017536-.61022089.06433947-.8300028.2837405-.2197819.21940101-.32949424.52960722-.29785087.84215859v10.8281415c0 .35362174.13502473.40646177.43684473.40646177h1.79900604c.34153315 0 .43287341-.0447108.43287341-.40646177v-9.63720852h5.2659647v9.63720852c0 .35362174.13899605.40646177.43684473.40646177h1.80694866c.34550448 0 .46067263-.0447108.46067263-.40646177V17.0998466c.02805576-.31983781-.08917778-.6351096-.3179029-.85492437-.22872511-.21981478-.5435215-.31974255-.85363525-.27097473z"/>
    <path fill="rgb(32,162,106)" fill-rule="evenodd" d="M138.99208069 22.19281006c0-4.12558746 2.2993927-6.50338745 5.49630737-6.50338745 3.5185852 0 5.19844055 1.9794693 5.2024231 5.2027092 0 1.6217842-.80618286 2.06889343-1.83872986 2.06889343h-6.11979675c.07148742 2.45909118 1.44953918 3.27201462 3.2207489 3.27201462.92410278-.01343155 1.8344574-.23111725 2.66871643-.63814545.25416565-.11380768.41699219-.06909561.5083313.14226532l.6354065 1.36164474c.06062316.09095383.07746886.20521164.04579162.31042862-.0316925.10521698-.10847473.18993378-.20861817.23016358-1.18962097.66124725-2.53115844.98274612-3.88394165.93080139-3.70126343 0-5.7266388-1.95508194-5.7266388-6.377388zm5.54394531-4.23126602c-1.61235046 0-2.64489746 1.43481064-2.71240234 3.01188278h5.28582763c0-1.67055893-.50436401-3.01188278-2.57342529-3.01188278z"/>
    <path fill="rgb(32,162,106)" fill-rule="evenodd" d="M152.64149475 16.60802841c1.54182434-.62623596 3.1905365-.93027878 4.8489685-.89421844 3.97926331 0 5.5876465 2.8249092 5.5876465 6.42209625 0 3.50776672-1.77120973 6.42616272-5.38113404 6.42616272-.92176819.0045433-1.8406372-.10601807-2.73623657-.32923508v4.47107697c0 .3576889-.09133912.40646362-.43684388.40646362h-1.81489563c-.30181884 0-.43684387-.05284119-.43684387-.40646362V17.17300797c0-.28452302.06750488-.40239716.369339-.56497956zm2.31924439 9.27139282c.73364257.21485138 1.49263.3256302 2.25570678.32923508 1.77120972 0 3.07777405-1.03647613 3.06188965-4.07681274 0-3.00781632-1.19140625-4.06461716-3.17706299-4.06461716-.72457885.01246262-1.44436645.12316895-2.14053344.32923508v7.48295974z"/>
    <path fill="rgb(32,162,106)" fill-rule="evenodd" d="M174.54329869 15.9739475h-9.53115781c-.39713158 0-.45670131.1625847-.45670131.51620644v1.29254842c0 .30891094.09134026.47149565.45670131.47149565h3.38356102v9.60062697c0 .37800944.13502474.47149565.5043571.47149565h1.65603867c.36933237 0 .4805292-.0690985.4805292-.47149565V18.254198h3.49872919c.36536105 0 .4567013-.1625847.4567013-.47149565v-1.29254842c.00794264-.35362174-.05956973-.51620645-.44875867-.51620645z"/>
    <path fill="rgb(32,162,106)" fill-rule="evenodd" d="M39.02611923 41.50787354l-.34550476-.77634049-.35741806.07316208c-.09440994-.01895523-.1915245-.01895523-.28593445 0-.6393814.10568237-2.3827896 0-5.09519958-.73162842 6.29201889-3.90196228 10.14997864-10.87088775 10.18643188-18.40052795C43.12849426 9.7225647 33.45436478 0 21.56424713 0 9.67412567 0 0 9.7225647 0 21.67253876c.03722382 7.52943039 3.8949833 14.49799728 10.18642426 18.40052795-2.71240807.72756577-4.40021706.77634049-5.03959847.67472458-.07772064-.01403809-.15076065.01441956-.21261787.03852081-.09934044.03870392-.16983033.06616593-.1845131-.11168289l-.27799224.13006592-.37727547.7031784c-.40265274.04769898-.70561218.3980713-.70292282.81292725v.49182129c0 .44895935.35560226.81291962.79426193.81291962h14.4794178c.27799225.76007843 1.42570496 1.29660797 2.8831749 1.29660797 1.45747375 0 2.60121155-.53652954 2.8792038-1.29660797h14.491333c.43865967 0 .79426193-.36396027.79426193-.81291962v-.49182129c.0036583-.40937805-.29069519-.75767517-.68703842-.81292724zm-7.20396805-5.63761902l-2.9189148-8.08046341c.04577638-.04494095.08223725-.09885025.10722352-.15851975.05251312-.13015747.05251312-.27630615 0-.40646362L24.225029 13.89692688h.6910057v-1.44293976h-.6910057c.04888915-.23039627.08206176-.46399689.0992813-.69911194l.0238266-.25200653h.99282837V8.8771248c.24749756-.06638718.42031098-.29498864.42095947-.55685234V6.69442558c-.00202179-.26137924-.174263-.4892292-.42095947-.55685234V4.38978767h-.75454712v-.8982811c.00001526-.56478309-.4450035-1.02388572-.99680328-1.02834892h-4.0785408c-.55490494 0-1.00474167.46040726-1.00474167 1.02834893v.8982811h-.77043534v7.11308097h1.03651047v.25200653c.02050781.23496628.05498886.4684372.10325623.69911194h-.68306732v1.44293976h.69895172l-4.80926133 13.3360138c-.05431365.12978362-.05431365.27667236 0 .4064598.02352143.05948258.05865479.1134224.10325242.15851975l-2.9030304 8.07233429c-.05043793.13056945-.05043793.27588653 0 .40645599.02544403.05821991.06188583.11071014.10722351.1544571l-.5877533 1.67462157c-5.50443458-3.56537628-8.84305572-9.76607894-8.84809112-16.4332466 0-10.84846497 8.79646301-19.67275048 19.6103592-19.67275048 10.81388854 0 19.61035537 8.8242855 19.61035537 19.67275047-.00590134 6.6742897-3.35102081 12.8805275-8.86397934 16.44544602l-.6076088-1.68275452c.14481736-.14796448.19144059-.36906433.11913681-.56497955zM20.73423768 5.23929214c.50393676-.28045463 1.1123886-.28045463 1.61632537 0v-.29671669c-.00106049-.14445304.05399322-.28341674.15305328-.38632583.09905625-.10290718.23399735-.16132355.37513352-.16239739h.20253753v-.40646171h-3.06188583v.40646171h.18665314c.29234695.0022316.52819061.24543381.52818298.54465866v.30078125zm.82206344 2.25992775c.43865966 0 .79426574-.36395835.79426574-.81292343 0-.44896507-.35560608-.81292343-.79426574-.81292343-.43865967 0-.79426194.36395836-.79426194.81292343 0 .44896508.35560227.81292343.79426194.81292343zm-.82206345.63001633c.50393677.28045464 1.11238861.28045464 1.61632538 0v1.97133827h-1.61632538V8.12923622zm1.52895737 31.7487278c.11914062-.08942032.25813675-.20729446.37330246-.28452301l.21047973-.13413239c2.15642548-1.4388771 4.12222672-1.47545623 7.54550171-.21949005.31373215-.15851974.63143921-.33329773.94517136-.51620865l-.6830635-1.89004516c-.05645371-.00479508-.1116066-.01994324-.16282655-.04470825-.12700271-.06071473-.2254715-.17026139-.27402114-.30484772l-2.9228859-8.08858872c-.19662094-.02496337-.36341095-.1596489-.43287659-.34955978l-4.01499939-11.11266327v14.00260925c.00133515.26441193-.18575286.49039841-.44081497.53246308v2.3574791l.65129471 1.21938705c.19486237.3733673.19486237.82162857 0 1.19499588l-.5678978 1.05680084v1.56081009c.00118637.1770134-.08364868.34305572-.22636413.44304657v.57717514zm-9.53115463-.64627457c-.31770707-.1625824-.63143921-.33329773-.95708848-.52433395l.67909623-1.88191605c.19883346-.02170562.36828613-.15730285.43684387-.34955978l2.9189148-8.08858872c.19811248-.02352905.36673736-.15846252.43684768-.34955596l4.00705719-11.07608414v13.97415542c.00097656.26864243.19319153.49643708.45272827.53652955v2.40219116l-.6354103 1.17060852c-.20420457.3795929-.20420457.83979034 0 1.21938324l.57981109 1.02428436v1.56894302c.00086212.17649842.08522797.34162522.22636795.44304276v.5812416c-.11914063-.08535766-.28196335-.23168563-.39713287-.30891036-1.05685807-.7763443-2.32106781-1.20196915-3.62183762-1.21938706-1.41440582.0483818-2.81015015.34536362-4.12619781.8779564zm8.87588882 3.93454743h-.03574371c-.79426194 0-1.36215973-.15851593-1.62029648-.49588013l1.58852768-.62595367 1.63618088.63407898c-.33359147.45523834-1.23508072.512146-1.56866837.48775482z"/>
    <path fill="rgb(213,227,220)" fill-rule="evenodd" d="M24.08603005 41.62168507l-2.41455998-1.10557601-.08736895.03658156c.001722-.00803371.001722-.016354 0-.02438771l.0516271-.07722774.03574185-.03251694c.37719426-.36153639.78079248-.69308772 1.20727999-.99176671 2.26364998-1.52423163 4.54715653-1.41042234 7.8910044-.138197 4.20165207 1.59739475 6.7830073 1.43074542 7.70832388 1.28441918.13394966-.01831508.26660317-.04546909.39713157-.08129235l.3256479 1.12996372H24.08603003z"/>
    <path fill="rgb(213,227,220)" fill-rule="evenodd" d="M19.06231562 41.62168507l2.38278945-1.10557601.08736895.03658156v-.02438771l-.0516271-.07722774-.03574185-.03251694c-.37211339-.36088226-.77038268-.69241824-1.19139473-.99176671-2.26364998-1.52423163-4.54715653-1.41042234-7.8910044-.138197-4.20165207 1.59739475-6.7830073 1.43074542-7.70832388 1.28441918-.13394966-.01831508-.26660317-.04546909-.39713157-.08129235l-.3256479 1.12996372h15.13071303z"/>
    <path fill="rgb(32,162,106)" fill-rule="evenodd" d="M20.85735034 39.8820287v1.73965637h1.4137884v-1.74372099l-1.4137884.00406462z"/>
    <rect width="7.613" height="1.195" x="17.736" y="11.495" fill="rgb(213,227,220)" rx="0" ry="0"/>
    <path fill="rgb(213,227,220)" fill-rule="evenodd" d="M19.3839922 3.51182968v1.34945307h.79426314v5.78801558h2.6965234V4.86128275h.81014841V3.51182968H19.3839922z"/>
    <path fill="rgb(32,162,106)" fill-rule="evenodd" d="M20.29739482 7.11714556c0 .69814102.5529638 1.26409611 1.23507921 1.2640961.68211541-1e-8 1.2350792-.56595512 1.23507919-1.26409612-1e-8-.698141-.55296382-1.26409609-1.23507922-1.26409608-.6812104.0022311-1.2328993.56688135-1.23507918 1.2640961z"/>
    <path fill="rgb(213,227,220)" fill-rule="evenodd" d="M20.75409613 7.11714556c0 .44896527.35560372.81292354.79426315.81292354.43865942 0 .79426315-.36395827.79426315-.81292354s-.35560373-.81292353-.79426315-.81292353c-.43865943 0-.79426315.36395826-.79426315.81292353z"/>
    <path fill="rgb(32,162,106)" fill-rule="evenodd" d="M21.0479735 7.11714556c-1e-8.20056609.11804475.38138316.29909018.45813648.18104544.07675333.38943775.03432766.52800393-.10749399.13856618-.14182164.180018-.35510991.10502653-.54040882-.07499148-.18529892-.25165794-.30611702-.44762011-.30611703-.26758226 0-.48450054.22201455-.48450054.49588336z"/>
    <path fill="rgb(213,227,220)" fill-rule="evenodd" d="M21.33390823 7.11714556c-.016162.08229811.01776536.16644834.08592968.2131318.06816431.04668347.1571079.04668347.22527222 0 .0681643-.04668346.10209168-.13083369.08592967-.2131318-.01901053-.09680304-.1020932-.1664466-.19856578-.1664466-.09647259 0-.17955525.06964356-.1985658.1664466z"/>
  </g>
</svg>
