<svg xmlns="http://www.w3.org/2000/svg" width="12" height="15.4" viewBox="0 0 12 15.4">
  <g>
    <path fill="rgb(31,162,106)" fill-rule="evenodd" d="M1.743042 1.8840866C2.86816405.68745805 4.39953612.0097294 6.00012206 0c1.60058594.00972939 3.131958.68745804 4.25720215 1.8840866 1.12524414 1.19663049 1.75219726 2.8141327 1.74279785 4.49666406 0 1.97099113-.80749512 3.52938652-1.81994629 4.79607582-1.2623291 1.54433822-2.6619873 2.95847702-4.18005371 4.22317505 0 0-2.77502441-2.36256028-4.17993164-4.22317505C.84020996 9.8812294.00012207 8.3753929.00012207 6.38075066-.00915527 4.6982193.61779785 3.08071709 1.74304199 1.8840866zm9.50708007 4.49666596c.01525879-3.06650924-2.33288574-5.5677719-5.25-5.59235572-2.91711426.02458381-5.26525879 2.52584648-5.25 5.59235572 0 1.8632412.83752441 3.22190857 1.65002441 4.30464173 1 1.3297615 2.76501465 2.9512291 3.59997559 3.69494629 1.3001709-1.12735367 2.50708008-2.3687172 3.60754395-3.71071625 1.10498046-1.3823204 1.64245605-2.7856636 1.64245605-4.28887177z"/>
    <path fill="rgb(31,162,106)" fill-rule="evenodd" d="M3.89624023 5.53006172c.3527832-.8938694 1.18322754-1.47614097 2.10388184-1.47507858.60266113 0 1.18066406.25168037 1.60681152.6996746.42626954.44799424.66564942 1.05560494.66564942 1.68916512.00097656.9677372-.55285645 1.84072495-1.40319824 2.21155167-.8503418.37082863-1.82946778.16639137-2.48046875-.51790238-.65100098-.68429184-.84545899-1.71354294-.49267579-2.60741043zm3.51477051.3017044c-.23669433-.59926414-.79370117-.98945045-1.41088867-.98838805-.84094238 0-1.522583.7165432-1.522583 1.6004448-.00097657.64885901.37023925 1.23436927.94030761 1.48316764.57006836.24879837 1.2265625.1118126 1.66308594-.34700012.43640136-.45881272.56677246-1.14896012.33007812-1.74822426z"/>
  </g>
</svg>
