<svg xmlns="http://www.w3.org/2000/svg" xmlns:xlink="http://www.w3.org/1999/xlink" width="16" height="16" viewBox="0 0 16 16">
  <defs>
    <rect id="rect-1" width="16" height="16" x="0" y="0"/>
    <mask id="mask-2" maskContentUnits="userSpaceOnUse" maskUnits="userSpaceOnUse">
      <rect width="16" height="16" x="0" y="0" fill="black"/>
      <use fill="white" xlink:href="#rect-1"/>
    </mask>
  </defs>
  <g>
    <use fill="none" xlink:href="#rect-1"/>
    <g mask="url(#mask-2)">
      <ellipse cx="8.001" cy="8.001" fill="rgb(255,255,255)" rx="8.001" ry="8.001"/>
      <path fill="rgb(32,162,106)" fill-rule="evenodd" d="M6.44735718 4.25463867c.40202331-.02218628.5302887-.02218628 1.55386352-.02218628v.00985718c1.0235901 0 1.15185547.00247192 1.55387879.0222168.31277466.00579834.62225342.06503296.91506958.17510986.253479.09048462.48413086.23529053.67581176.42422485.1918335.1888733.34072876.4168396.43656922.66842652.10818481.29333496.1673584.60247803.17510986.91506958.02220154.40200805.02220154.53027344.02220154 1.55386352 0 1.0235901-.00492859 1.15185547-.02220154 1.55386353-.00828552.31253052-.06744385.62158203-.17510986.91506958-.09655762.25048828-.24539185.47750854-.43656922.66595459-.1877594.1920166-.41497802.3409729-.66595458.43655395-.29348755.10769654-.60255433.1668396-.91505433.17514038-.40203857.02218628-.5302887.02218628-1.55387878.02218628-1.02359009 0-1.15184021-.00494384-1.55387878-.02218628-.31256104-.00778198-.62171936-.06692504-.91505433-.17514038-.50578308-.19674682-.90576171-.59674072-1.1025238-1.10250854-.1100769-.29281616-.16929626-.60229492-.17510986-.91506958-.02220154-.40200806-.02220154-.53027344-.02220154-1.55386353 0-1.02359008.00247192-1.15185547.02220154-1.55386352.00517273-.3128357.0644226-.62243653.17510986-.91506958.19242859-.50515747.58924866-.9055481 1.09265137-1.10250855.29264831-.11071777.60223388-.16995239.91506958-.17514038zm3.07569885.6782837c-.39710999-.02218629-.51550293-.02218629-1.52182007-.02218629s-1.12716675.00247193-1.52427673.02218628c-.23893738.00408936-.47558594.04742432-.70046997.12826538-.32684326.12960816-.58566284.38842774-.71528626.715271-.08084106.22488403-.12417602.46154785-.12825012.70050049-.02220154.39709473-.02220154.51794433-.02220154 1.52426147s.00247193 1.12472534.02220154 1.52182007c.00299072.24224854.04632568.48233032.12825012.71032715.12757874.32818604.38710022.58770752.71528626.71530151.2243042.08325196.46122741.12747193.70046997.1307068.39710998.01974486.5179596.01974486 1.52427673.01974486 1.00631714 0 1.12471008 0 1.52182007-.02960205.23924255-.00323486.47616577-.04745483.70046997-.1307373.32974243-.12515259.59010315-.38552857.71528626-.715271.0832672-.2243042.12748718-.46121216.13072204-.70046997.01972962-.39709473.01972962-.51550293.01972962-1.52182007s-.00247193-1.12716674-.01972962-1.52426147c-.00323486-.23925781-.04745483-.4761963-.13072204-.70050049-.12757874-.32818603-.38710022-.58770752-.71528626-.715271-.22488403-.08084106-.4615326-.12417602-.70046997-.12826538z"/>
      <path fill="rgb(32,162,106)" fill-rule="evenodd" d="M6.2106781 7.25857544c.30046082-.72341919 1.0072174-1.19451904 1.79055786-1.19351196.51327515 0 1.00549317.20407104 1.36820984.56723022.36271668.3631897.56616211.85565186.56550598 1.368927 0 .78335572-.47201538 1.48950196-1.19581604 1.78903199-.72380066.29956054-1.55677795.13345336-2.11032104-.42080689-.55355835-.55426025-.71859741-1.38745117-.4181366-2.11087036zm.6264038 1.22271728c.19532777.47024537.6549225.7763672 1.1641388.77536011.33296204 0 .65229798-.13226318.88772583-.3677063.23544312-.23544311.3677063-.55474853.3677063-.88772583.00100708-.5092163-.30509949-.96881103-.77537536-1.16412353-.47026062-.19534302-1.01191712-.08789063-1.37197876.27218628-.3600769.3600769-.46754456.9017334-.2722168 1.37200927z"/>
      <path fill="rgb(32,162,106)" fill-rule="evenodd" d="M10.46523817 5.98859257c.00099881.18377855-.10893798.35001719-.27844138.42103936-.16950341.07102218-.36510727.03280552-.49541386-.09679289-.13030659-.1295984-.16958863-.32499109-.09949123-.49487901.0700974-.16988793.23573446-.28072901.41951573-.28073173.12013602-.00065649.23557695.04660785.32075837.13132633.08518142.08471848.13307416.19990012.13307237.32003794"/>
    </g>
  </g>
</svg>
