<svg xmlns="http://www.w3.org/2000/svg" xmlns:xlink="http://www.w3.org/1999/xlink" width="16" height="16" viewBox="0 0 16 16">
  <defs>
    <rect id="rect-1" width="16" height="16" x="0" y="0"/>
    <mask id="mask-2" maskContentUnits="userSpaceOnUse" maskUnits="userSpaceOnUse">
      <rect width="16" height="16" x="0" y="0" fill="black"/>
      <use fill="white" xlink:href="#rect-1"/>
    </mask>
  </defs>
  <g>
    <use fill="none" xlink:href="#rect-1"/>
    <g mask="url(#mask-2)">
      <ellipse cx="8.001" cy="8.001" fill="rgb(255,255,255)" rx="8.001" ry="8.001"/>
      <path fill="rgb(32,162,106)" fill-rule="evenodd" d="M5.80155945 10.6496582c-.78770447-.65338134-1.24497986-1.62252807-1.24845886-2.64596557.00080871-.2026062.01896667-.40475464.05426025-.60427857-.49186707-.79125976-.3763733-1.8166809.27920532-2.47869873.65556336-.66201782 1.67979431-.78756714 2.47584534-.3034668.20977783-.03970336.42285156-.05953979.63635254-.0592041 1.01959228-.00299072 1.98783874.44702149 2.64291382 1.22836304.65505981.78131104.9292755 1.8132019.74848938 2.8166504.49633789.79180907.38235473 1.82110595-.27520752 2.48513793-.657547.66403198-1.6856842.78808594-2.48231507.29949951-1.0064392.18569947-2.043396-.08462524-2.8310852-.7380371zm4.0593872-4.08389282c-.06413269-.45629883-.715271-.94467163-1.82518005-1.01126099-1.16664123-.06906127-1.9065857.55496216-1.92878723 1.45767212 0 1.66488648 2.7895813 1.12225342 2.7895813 2.00772095 0 .24664307-.21951294.59936524-.86573792.59936524-.9076538 0-.90272522-.8583374-1.47987365-.8583374-.2315979.01449584-.41026306.20953368-.4045105.4414978 0 .76705932.98658752 1.21102905 1.97317505 1.21102905 1.12225342 0 1.86219787-.61169434 1.86219787-1.54400635 0-1.6204834-2.7723236-1.18884277-2.7723236-1.92877197 0-.35272217.3280487-.51550293.72021484-.51550293.86573791 0 .92492676.67086792 1.41821289.67086792.14326477.01501465.28547668-.03671265.38563538-.14022827.10015869-.10351563.1471405-.2473755.12739563-.39004517z"/>
    </g>
  </g>
</svg>
