<svg xmlns="http://www.w3.org/2000/svg" width="16" height="16" viewBox="0 0 16 16">
  <g>
    <ellipse cx="8" cy="8" fill="rgb(255,255,255)" rx="8" ry="8"/>
    <path fill="rgb(32,162,106)" fill-rule="evenodd" d="M8.0132904 4.09689331C10.0670929 4.11605835 11.74113465 5.75 11.81010438 7.80270386c.00247192.03207397.00247192.06411743.00247192.08877563-.0076599 1.3550415-.72895813 2.6057129-1.89797973 3.29092407-1.1690216.68521119-2.6126709.70352173-3.7986908.04818726l-2.12330627.67321777.6929779-2.0394287c-.356781-.59317017-.54283142-1.27331544-.53761291-1.96548463v-.16769409c.10728454-2.05108642 1.81152344-3.6534729 3.86532593-3.63430786zm-1.80859374 6.4703064c.52636718.3465271 1.14291381.53088379 1.77311706.5302124.85069275 0 1.6665039-.33810425 2.26779175-.93984985.6013031-.60177613.93878174-1.41784668.9381256-2.26852417v-.24661255c-.1541748-1.64447022-1.5265045-2.90628052-3.17811584-2.92218018-1.65161132-.01586914-3.04795837 1.21932984-3.23371887 2.86053467-.01196289.1031189-.01773071.20687866-.01727295.31069946-.00003051.6772461.21690369 1.33670044.61898804 1.88165283L4.97164917 10.961792l1.23304749-.39459228z"/>
    <path fill="rgb(32,162,106)" fill-rule="evenodd" d="M9.73612824 8.66584464c-.09617756-.04685574-.55733662-.27127004-.64364982-.30332923-.0863132-.03205918-.14796547-.04685573-.20961775.04685574-.06165229.09371146-.24660913.30332922-.29839704.3649815-.05178792.06165228-.11097411.06905056-.20468558.02466091-.27714913-.10985-.5332687-.26669195-.75709001-.46362515-.20496041-.18797279-.38038358-.40579681-.52034525-.6461159-.05425401-.09124538 0-.1430333.03945746-.18988903.03945746-.04685574.09371146-.10850802.14303329-.16276203l.03452528-.04438964c.01972873-.03452527.03699136-.06658446.05918619-.1109741.02762999-.05073622.02762999-.1120258 0-.16276203-.02466092-.04685573-.21208385-.5080148-.29099877-.69297164-.07891492-.18495684-.15536375-.15536374-.21208385-.15536374h-.18002466c-.09478145.00466972-.18368102.04734152-.24660912.11837238-.21493944.20146374-.33417238.48475404-.32799014.77928483.00084123.10347461.01577509.20635231.04438964.30579531.0720923.2337636.18570233.45263.33538841.64611591.04685574.06165228.648582 1.03575832 1.60295931 1.4106042.95437731.37484586.9568434.24660912 1.1294698.23181257.26442826-.05042214.4944034-.21212342.63131935-.44389642.06134316-.13939268.08104202-.29355766.0567201-.44389643-.0295931-.03699137-.09124538-.06165228-.18495684-.10850801z"/>
  </g>
</svg>
