<svg xmlns="http://www.w3.org/2000/svg" width="14" height="14.232" viewBox="0 0 14 14.232">
  <path fill="rgb(255,255,255)" fill-rule="evenodd" d="M3.87740326.27003479L4.54431152 0l.3179474.64808655L6.7208252 4.41827393l.22489929.49121093-.38256836.38833618L5.27067566 6.614563c.61044311.86048889 1.35069275 1.62213135 2.1946106 2.2579956L8.7267456 7.5506897l.39807128-.41662597.51698304.25717163 3.73782348 1.87738037L14 9.58493042l-.25848389.64553833-1.31056213 3.43841553-.21455383.56323242-.60229493-.07202149h-.07495117c-3.11802673-.30767822-6.00900268-1.76000976-8.10894775-4.07366943C1.45495605 7.96815491.25237274 5.25100708.01551056 2.37115478L0 1.83366395l.51699066-.20317078L3.87740326.2700348zM6.0177307 4.75775146L4.16432953.98498536.79099273 2.34288024c.23719788 2.68777466 1.36566163 5.22088623 3.207901 7.20091247 1.98558808 2.21081543 4.74050141 3.58950806 7.70827485 3.8576355l1.31056213-3.45129394L9.2902527 8.06503296 7.57644653 9.86526489C6.2337494 9.0164795 5.10450745 7.87277222 4.27548218 6.52198792L6.0177307 4.75775146z"/>
</svg>
