<svg xmlns="http://www.w3.org/2000/svg" width="14" height="14.232" viewBox="0 0 14 14.232">
  <path fill="rgb(31,162,106)" fill-rule="evenodd" d="M3.87738037.27003479L4.54431152 0l.31793213.64808273L6.7208252 4.41828156l.22491455.49120521-.38256836.38833427L5.27069092 6.614563c.6104126.86049461 1.350708 1.62212372 2.19458008 2.25800323l1.2614746-1.32188415.3980713-.41662407.51696777.25717544 3.737854 1.87738228L14 9.58494568l-.25848389.64550781-1.31054687 3.43844223-.21453858.56321335-.60229492-.07200623h-.0750122c-3.11798096-.30767822-6.00897217-1.76001358-8.10888672-4.07366561C1.45495605 7.96815873.25238037 5.25100899.01550293 2.3711605L0 1.83366394l.51696777-.20316887L3.87738037.2700348zm2.14038086 4.48771858L4.16436768.98498344.79101563 2.34287262c.23718261 2.6877861 1.36566162 5.22088814 3.20788574 7.20092392 1.9855957 2.21079636 4.74053955 3.58950043 7.70831299 3.8576355l1.31054687-3.45129776L9.2902832 8.06503296 7.57647705 9.86526489c-1.3427124-.84877395-2.47192383-1.9924984-3.30096435-3.3432846l1.74224853-1.76422692z"/>
</svg>
