<svg xmlns="http://www.w3.org/2000/svg" xmlns:xlink="http://www.w3.org/1999/xlink" width="34.426" height="33.687" viewBox="0 0 34.426 33.687">
  <defs>
    <path id="path-1" fill-rule="evenodd" d="M17.49923706 33.68652344c9.50653076 0 17.21310425-7.54089356 17.21310425-16.84326172C34.7123413 7.54101562 27.00576782 0 17.49923706 0 7.99267578 0 .2861023 7.54101562.2861023 16.84326172c.01086426 9.29785156 7.7110901 16.8326416 17.21313477 16.84326172z"/>
    <mask id="mask-2" x="0" y="0" maskContentUnits="userSpaceOnUse" maskUnits="userSpaceOnUse">
      <rect width="34.426" height="33.687" x="0" y="0" fill="black"/>
      <use fill="white" xlink:href="#path-1"/>
    </mask>
  </defs>
  <g transform="matrix(-1 0 0 1 34.9984436 0)">
    <use fill-opacity="0" stroke="rgb(255,255,255)" stroke-linecap="butt" stroke-linejoin="miter" stroke-width="4" mask="url(#mask-2)" xlink:href="#path-1"/>
    <g>
      <path fill="rgb(255,255,255)" fill-rule="evenodd" d="M9.8306863 18.33603339h15.33174367c.84250174 0 1.52548435-.66830838 1.52548435-1.49270854 0-.82440016-.6829826-1.49270853-1.52548435-1.49270853H9.8235328c-.84250174 0-1.52548435.66830837-1.52548435 1.49270853s.6829826 1.49270854 1.52548435 1.49270854h.0071535z"/>
      <path fill="rgb(255,255,255)" fill-rule="evenodd" d="M14.94365203 23.33914442c.61584484-.00234384 1.16984624-.36680346 1.40448817-.9239674.23464192-.55716392.10389616-1.19773687-.33146284-1.62396183l-4.03457526-3.94789034 4.03994039-3.94789033c.57225425-.58654375.56128049-1.51285147-.02471544-2.08625697-.58599592-.5734055-1.53264284-.58414349-2.13206549-.0241844l-5.11296572 5.00311102c-.2867854.27945702-.44800036.65918297-.44800036 1.05522068 0 .39603772.16121496.77576367.44800036 1.0552207l5.11296572 5.00311102c.28517779.28112212.67359034.43869562 1.07839047.43748785z"/>
    </g>
  </g>
</svg>
