<svg xmlns="http://www.w3.org/2000/svg" xmlns:xlink="http://www.w3.org/1999/xlink" width="24" height="24" viewBox="0 0 24 24">
  <defs>
    <rect id="rect-1" width="24" height="24" x="0" y="0"/>
    <rect id="rect-2" width="24" height="24" x="0" y="0"/>
    <mask id="mask-3" maskContentUnits="userSpaceOnUse" maskUnits="userSpaceOnUse">
      <rect width="24" height="24" x="0" y="0" fill="black"/>
      <use fill="white" xlink:href="#rect-2"/>
    </mask>
    <path id="path-4" fill-rule="evenodd" d="M12.09539795 23.49481201c6.337677 0 11.47540283-5.02734375 11.47540283-11.2288208 0-6.20153808-5.13772583-11.22888183-11.47540283-11.22888183-6.33770752 0-11.47540283 5.02734374-11.47540283 11.22888183.00720215 6.19854736 5.14068603 11.22174072 11.47540283 11.2288208z"/>
    <mask id="mask-5" x="0" y="0" maskContentUnits="userSpaceOnUse" maskUnits="userSpaceOnUse">
      <rect width="24" height="24" x="0" y="0" fill="black"/>
      <use fill="white" xlink:href="#path-4"/>
    </mask>
  </defs>
  <g transform="matrix(-1 0 0 1 24 0)">
    <use fill="none" transform="matrix(-1 0 0 1 24 0)" xlink:href="#rect-2"/>
    <g mask="url(#mask-3)" transform="matrix(-1 0 0 1 24 0)">
      <g>
        <g>
          <use fill="rgb(255,255,255)" xlink:href="#path-4"/>
          <use fill-opacity="0" stroke="rgb(189,189,189)" stroke-linecap="butt" stroke-linejoin="miter" stroke-width="4" mask="url(#mask-5)" xlink:href="#path-4"/>
        </g>
        <g>
          <path fill="rgb(189,189,189)" fill-rule="evenodd" d="M6.98301043 13.26113164h10.22116245c.56166783 0 1.01698956-.44553892 1.01698956-.99513903 0-.5496001-.45532173-.99513902-1.01698956-.99513902H6.97824143c-.56166783 0-1.01698957.44553891-1.01698957.99513902 0 .5496001.45532174.99513903 1.01698957.99513903h.004769z"/>
          <path fill="rgb(189,189,189)" fill-rule="evenodd" d="M10.39165425 16.59653899c.41056323-.00156256.7798975-.24453564.93632544-.61597826.15642795-.37144262.06926411-.79849126-.22097522-1.08264123l-2.68971684-2.63192689 2.6932936-2.63192689c.38150283-.39102916.37418699-1.00856764-.01647696-1.39083798-.39066395-.38227033-1.0217619-.38942899-1.421377-.01612294l-3.40864381 3.33540735c-.19119027.18630468-.29866691.43945532-.29866691.70348046s.10747664.51717578.2986669.70348046l3.40864382 3.33540735c.19011853.18741475.44906022.29246375.71892698.29165857z"/>
        </g>
      </g>
    </g>
  </g>
</svg>
