<svg xmlns="http://www.w3.org/2000/svg" xmlns:xlink="http://www.w3.org/1999/xlink" width="31" height="31" viewBox="0 0 31 31">
  <defs>
    <rect id="rect-1" width="31" height="31" x="0" y="0"/>
    <rect id="rect-2" width="31" height="31" x="0" y="0"/>
    <mask id="mask-3" maskContentUnits="userSpaceOnUse" maskUnits="userSpaceOnUse">
      <rect width="31" height="31" x="0" y="0" fill="black"/>
      <use fill="white" xlink:href="#rect-2"/>
    </mask>
    <path id="path-4" fill-rule="evenodd" d="M15.42999268 30.4020996c8.29290077 0 15.015625-6.50586491 15.015625-14.53125 0-8.02538507-6.72272423-14.53125-15.015625-14.53125-8.29290078 0-15.015625 6.50586493-15.015625 14.53125.00946045 8.0216009 6.7266374 14.52213358 15.015625 14.53125z"/>
    <mask id="mask-5" x="0" y="0" maskContentUnits="userSpaceOnUse" maskUnits="userSpaceOnUse">
      <rect width="31" height="31" x="0" y="0" fill="black"/>
      <use fill="white" xlink:href="#path-4"/>
    </mask>
  </defs>
  <g transform="matrix(-1 0 0 1 31 0)">
    <use fill="none" transform="matrix(-1 0 0 1 31 0)" xlink:href="#rect-2"/>
    <g mask="url(#mask-3)" transform="matrix(-1 0 0 1 31 0)">
      <g>
        <g>
          <use fill="rgb(255,255,255)" xlink:href="#path-4"/>
          <use fill-opacity="0" stroke="rgb(189,189,189)" stroke-linecap="butt" stroke-linejoin="miter" stroke-width="4" mask="url(#mask-5)" xlink:href="#path-4"/>
        </g>
        <g>
          <path fill="rgb(189,189,189)" fill-rule="evenodd" d="M8.7404067 17.15869975h13.37444486c.7349453 0 1.3307362-.57657166 1.3307362-1.28780884s-.5957909-1.28780883-1.3307362-1.28780883H8.73416644c-.73494531 0-1.3307362.57657165-1.3307362 1.28780883 0 .71123718.59579089 1.28780884 1.3307362 1.28780884h.00624026z"/>
          <path fill="rgb(189,189,189)" fill-rule="evenodd" d="M13.20063508 21.47504847c.53722414-.0020221 1.02049998-.31645342 1.22518677-.7971371.2046868-.48068368.09063245-1.03332708-.28914724-1.40104539l-3.51950864-3.40597507 3.52418884-3.40597506c.49919847-.50603062.48962564-1.3051868-.02156019-1.79988263-.51118583-.49469581-1.33698081-.50395983-1.85987927-.02086468l-4.46022838 4.31634872c-.25017347.24109678-.39080722.56869887-.39080722.91037365 0 .34167479.14063375.66927688.39080722.91037366l4.46022838 4.31634872c.24877108.24253332.58759766.37847717.94071973.37743518z"/>
        </g>
      </g>
    </g>
  </g>
</svg>
