<svg xmlns="http://www.w3.org/2000/svg" width="16.002" height="16.002" viewBox="0 0 16.002 16.002">
  <g>
    <ellipse cx="8.001" cy="8.001" fill="rgb(32,162,106)" rx="8.001" ry="8.001"/>
    <path fill="rgb(255,255,255)" fill-rule="evenodd" d="M5.80151367 10.6496582c-.78771972-.6533966-1.24499512-1.62254333-1.24841308-2.64595794.00073242-.20261002.0189209-.40477753.05419921-.6042862-.49182128-.7912674-.37634277-1.81668854.27929688-2.47871017.65551758-.66201782 1.67980957-.78756333 2.47583008-.30347061.2097168-.03970337.42285156-.05952454.63635254-.05919648 1.01953125-.00298309 1.98779297.44703675 2.64282226 1.2283516.65515137.78131866.9293213 1.81322479.74853516 2.81666183.49633789.79180908.38232422 1.82110596-.27514649 2.48513413-.65759277.66402816-1.68579101.78808212-2.4822998.29951095-1.00646973.1856842-2.04345703-.08463669-2.83117676-.7380371zm4.05944824-4.0839119c-.06420898-.45629882-.71533203-.94466018-1.8251953-1.01125335-1.16674806-.06906128-1.90661622.55495453-1.92883302 1.45768356 0 1.6648674 2.78955079 1.1222458 2.78955079 2.0077095 0 .24664689-.21948243.5993538-.86572266.5993538-.90759277 0-.90270996-.8583336-1.4798584-.8583336-.23156738.01451493-.41027832.20952607-.40454102.44149781 0 .76707077.98657227 1.21103668 1.9732666 1.21103668 1.12219239 0 1.86218262-.61168289 1.86218262-1.54401016 0-1.62047195-2.77233886-1.18883896-2.77233886-1.9287796 0-.3527069.32800293-.5154953.72021484-.5154953.86572266 0 .92492676.67088318 1.4182129.67088318.14318847.0150032.28540038-.03670883.3856201-.14023972.10009766-.10352707.14709473-.24736404.12744141-.3900528z"/>
  </g>
</svg>
