<svg xmlns="http://www.w3.org/2000/svg" width="10.217" height="7.128" viewBox="0 0 10.217 7.128">
  <g>
    <path fill="rgb(32,162,106)" fill-rule="evenodd" d="M9.36512668 4.4081518H.8474913C.37943478 4.4081518 0 4.04494075 0 3.59689718s.37943478-.81125464.8474913-.81125464h8.52160954c.46805653 0 .84749131.36321107.84749131.81125464s-.37943478.81125464-.8474913.81125464h-.00397417z"/>
    <path fill="rgb(32,162,106)" fill-rule="evenodd" d="M6.52459016 7.12723389c-.34213602-.00127383-.64991458-.1993497-.7802712-.50215619-.13035663-.30280648-.0577201-.65094396.18414602-.88258796l2.2414307-2.14559257L5.92548435 1.4513046c-.31791903-.31877378-.3118225-.82220189.0137308-1.13383531C6.26476844.00583586 6.79068339 0 7.12369598.30432559l2.8405365 2.71908208c.15932523.15187881.2488891.35825161.2488891.5734895s-.08956387.42161069-.2488891.5734895l-2.8405365 2.71908208c-.1584321.15278376-.37421686.23842154-.59910582.23776514z"/>
  </g>
</svg>
