<svg xmlns="http://www.w3.org/2000/svg" width="10.217" height="7.128" viewBox="0 0 10.217 7.128">
  <g transform="matrix(-1 0 0 1 9.9125683 0)">
    <path fill="rgb(32,162,106)" fill-rule="evenodd" d="M9.21311475 4.4081518H.69547938c-.46805652 0-.8474913-.36321106-.8474913-.81125463s.37943478-.81125464.8474913-.81125464h8.52160954c.46805653 0 .8474913.36321107.8474913.81125464s-.37943477.81125464-.8474913.81125464h-.00397417z"/>
    <path fill="rgb(32,162,106)" fill-rule="evenodd" d="M6.37257824 7.12723389c-.34213602-.00127383-.64991458-.1993497-.7802712-.50215619-.13035663-.30280648-.0577201-.65094396.18414602-.88258796l2.2414307-2.14559257L5.77347243 1.4513046c-.31791903-.31877378-.3118225-.82220189.0137308-1.13383531C6.11275652.00583586 6.63867147 0 6.97168405.30432559l2.84053652 2.71908208c.15932522.15187881.24888909.35825161.24888909.5734895s-.08956387.42161069-.2488891.5734895l-2.8405365 2.71908208c-.15843211.15278376-.37421686.23842154-.59910582.23776514z"/>
  </g>
</svg>
