<svg xmlns="http://www.w3.org/2000/svg" width="16" height="16" viewBox="0 0 16 16">
  <g>
    <ellipse cx="8" cy="8" fill="rgb(32,162,106)" rx="8" ry="8"/>
    <path fill="rgb(255,255,255)" fill-rule="evenodd" d="M8.01330566 4.09689713c2.05371094.01916885 3.7277832 1.65308761 3.79675293 3.70581436.00244141.03206253.00244141.06412124.00244141.08877945-.00756836 1.35502624-.72888184 2.60569-1.89794922 3.29090881-1.16906738.68522263-2.6126709.70353317-3.79870605.04817963l-2.12329102.67324447.69299316-2.03945923c-.35681152-.59315109-.54284667-1.2733078-.53759765-1.96547317v-.1676941c.1072998-2.0510826 1.81152344-3.65346908 3.86535644-3.63430022zm-1.80859375 6.4703064c.5263672.3465309 1.14282227.53089141 1.7730713.53020858.850708 0 1.6665039-.33810425 2.26782226-.93986511.60131836-.60175705.9387207-1.41783142.93811035-2.26852036v-.24660873c-.1541748-1.64447403-1.52648926-2.90628052-3.17810059-2.9221611C6.35400391 4.70437622 4.9576416 5.93955994 4.7718506 7.58076477c-.0119629.10313797-.0177002.20690155-.01721192.31072998 0 .67723847.21691895 1.33667374.61901856 1.88162613l-.40197754 1.18865585 1.23303222-.3945732z"/>
    <path fill="rgb(255,255,255)" fill-rule="evenodd" d="M9.73612824 8.66584464c-.09617756-.04685574-.55733662-.27127004-.64364982-.30332923-.0863132-.03205918-.14796547-.04685573-.20961775.04685574-.06165229.09371146-.24660913.30332922-.29839704.3649815-.05178792.06165228-.11097411.06905056-.20468558.02466091-.27714913-.10985-.5332687-.26669195-.75709001-.46362515-.20496041-.18797279-.38038358-.40579681-.52034525-.6461159-.05425401-.09124538 0-.1430333.03945746-.18988903.03945746-.04685574.09371146-.10850802.14303329-.16276203l.03452528-.04438964c.01972873-.03452527.03699136-.06658446.05918619-.1109741.02762999-.05073622.02762999-.1120258 0-.16276203-.02466092-.04685573-.21208385-.5080148-.29099877-.69297164-.07891492-.18495684-.15536375-.15536374-.21208385-.15536374h-.18002466c-.09478145.00466972-.18368102.04734152-.24660912.11837238-.21493944.20146374-.33417238.48475404-.32799014.77928483.00084123.10347461.01577509.20635231.04438964.30579531.0720923.2337636.18570233.45263.33538841.64611591.04685574.06165228.648582 1.03575832 1.60295931 1.4106042.95437731.37484586.9568434.24660912 1.1294698.23181257.26442826-.05042214.4944034-.21212342.63131935-.44389642.06134316-.13939268.08104202-.29355766.0567201-.44389643-.0295931-.03699137-.09124538-.06165228-.18495684-.10850801z"/>
  </g>
</svg>
