<svg xmlns="http://www.w3.org/2000/svg" width="116.28" height="135.3" viewBox="0 0 116.28 135.3">
  <g>
    <ellipse cx="57.5" cy="72.341" fill="rgb(213,227,220)" rx="57.5" ry="57.5"/>
    <g>
      <g opacity=".4">
        <path fill="rgb(32,162,106)" fill-rule="evenodd" d="M56.18965876 131.79904578l-8.22694815-1.5004445 43.3793528-25.32750334 12.8546065 2.12062824-.48451979-3.00088902-8.2368363-1.49044155-12.8546065-7.51222551 1.28546066.21006223-.53396058-3.01089198-8.12806656-1.47043562-4.12336224-2.41071418-15.82105413 9.22273225c-.50702408-.6667985-1.13447608-1.2302548-1.8490857-1.66049192-4.855086-3.00088902-14.17961977-2.31068455-20.84423883 1.57046525-6.66461905 3.8811498-8.10829024 9.49281227-3.26309241 12.50370426.84672753.50512715 1.7539337.89844391 2.69946736 1.17034671l-16.89886345 9.86292192L39.458894 135.30008298l4.420007-2.58076456 12.79527753 2.10062231-.48451978-3.02089495z"/>
      </g>
      <path fill="rgb(234,234,234)" fill-rule="evenodd" d="M53.95493487 37.00096162s.31642108.72021337-.73172376 1.2303645c-.99330404.34926953-2.03388743.5415833-3.08510556.57016892l-3.35208584-6.5319351 2.24461206-5.62166544c.73669441.57777696 1.3747112 1.27388908 1.88863833 2.06061046.73172376 1.18034969 2.04684888 6.4219025 2.21494758 6.51192918.32418064.56826514.59879182 1.16402792.82071719 1.78052748z"/>
      <path fill="rgb(47,39,32)" fill-rule="evenodd" d="M43.32516412 98.4791747c-.04667957.3316585-.07638367.66553594-.08899343 1.00029633 1.400027.70901145 2.85926461 1.29144975 4.36067804 1.74051563 1.08769748.18005335 3.88604643 1.76052156 4.88475047 1.85054823.99870404.09002667 1.37445408-.33009779 1.4634475-.58017187.1141023-.4765872.1141023-.9738425 0-1.4504297-.12854606-.5201541-2.54125681-1.00029634-2.54125681-1.00029634l-8.07862577-1.56046229z"/>
      <path fill="rgb(0,0,0)" fill-rule="evenodd" d="M48.40767776 96.95872426s3.18398714 1.46043265 3.87615826 1.8005334c.77358297.386232 1.35633208 1.0770134 1.6117699 1.91056602.19776317.83024596 0 1.46043265-.70205929 1.70050378-.70205927.24007112-3.51029638-.88026078-3.56962533-1.00029634-.05932896-.12003557-4.11347408-1.43042377-4.26179646-1.58046822-.14832238-.15004445-1.97763177-.46013632-2.03696072-1.33039413-.05932896-.87025782 1.48322382-3.30097793 1.48322382-3.30097793l3.59928982 1.80053342z"/>
      <path fill="rgb(34,34,34)" fill-rule="evenodd" d="M48.9515265 97.88899985c0 .6001778-1.97763177 1.36040302-2.60058578 1.3103882-1.07439057-.05169208-2.12873755-.31324398-3.10488187-.77022817-.23898442-.1270023-.44548616-.30850496-.6031777-.53015706-.69217111-1.00029634-.72183559-4.06120315-1.31512512-6.81201808-.59328953-2.75081494-.8899343-10.65315602-1.07780931-11.18331308-.18787502-.53015707-.64273032-2.6507853-.58340137-7.00207439.05932895-4.35128908 0-10.76318862.98881588-12.00355608.82712603-.68153107 1.79277053-1.16995903 2.82801343-1.43042377 2.02707256-.7102104 4.29146093-1.19035264 4.29146093-1.19035264s1.21624354 5.73169803 1.13713827 7.80231145c-.07910527 2.07061343.19776318 9.0726878.27686845 10.29304934.06652652 1.9758388-.03603344 3.953796-.30653293 5.91175137-.24720397 1.33039414-.42519083 8.90263743-.41530267 10.4430938.00988816 1.54045636.53396058 4.5613513.48451978 5.16152911z"/>
      <path fill="rgb(108,145,196)" fill-rule="evenodd" d="M43.74046679 96.36854941c-.4574777-.58649002-.88328943-1.19756183-1.2755725-1.8305423 0 .17005038.56362506 2.7608179.57351322 3.07090977.05243577.2774833.12178525.55142051.20765134.820243-.23898442-.1270023-.44548616-.30850496-.6031777-.53015706-.69217111-1.00029634-.72183559-4.06120315-1.31512512-6.81201808-.59328953-2.75081494-.8899343-10.65315602-1.07780931-11.18331308-.18787502-.53015707-.64273032-2.6507853-.58340137-7.00207439.05932895-4.35128908 0-10.76318862.98881588-12.00355608.82712603-.68153107 1.79277053-1.16995903 2.82801343-1.43042377.81082902 1.5604623-.58340137 6.71198845-.58340137 6.71198845s-.57351321 6.41189954-.54384874 6.41189954c.02966448 0 1.46344751 2.1306312 1.46344751 2.1306312s1.21624354 2.11062528 1.26568433 2.25066677c.0494408.14004149-.4548553 3.41101052-.4548553 3.41101052s0 1.7205097-.32630925 1.81053637c-.32630924.09002667-.98881588-.44013039-1.23601985.24007113-.07321132 1.11059545-.01010553 2.2260886.18787502 3.32098385l1.97763176 1.24036746-1.55244093.3801126-.35597372 1.46043266 1.10747379.56016595c-.35190542.15956687-.62607493.45492949-.76138823.820243-.04565624.69382274.00426239 1.39069786.14832238 2.07061343l1.54255278 2.74081197-1.64143437-1.4504297-1.43378303-1.89056008.30653292 2.26066973 1.14702643 2.42071714z"/>
      <path fill="rgb(47,39,32)" fill-rule="evenodd" d="M30.46066947 102.78044896l-.53396057.42012446c-.1527362.39792222-.19046003.83157915-.10876975 1.25037042.19776318.4101215.92948693 2.73080901 1.21624354 3.3910046.72548982.91235404 1.75611607 1.52438765 2.89723053 1.7205097.88752383.23040408 1.828549.10872616 2.63025025-.34010075.31642109-.29008594.25709213-1.18034969.25709213-1.18034969l-3.47074375-2.70080011-2.88734238-2.56075863z"/>
      <path fill="rgb(0,0,0)" fill-rule="evenodd" d="M34.57414355 101.63010816c.35227088 1.2529318.79853336 2.4768459 1.33490144 3.6610846.69217112 1.3403971 1.11736195 2.65078531.7910527 3.23095719-.32630923.58017188-1.52277645.78023114-2.65991472.70020744-1.0369758-.11235474-1.97308659-.67907982-2.56103314-1.55045933-.51806822-.97893597-.88804653-2.03094904-1.09758563-3.12092458-.20953909-1.08997555-.36586187-1.36040303-.5042961-2.00059268-.08790126-.73000422-.12424997-1.46541864-.10876974-2.20065195l4.80564519 1.28037931z"/>
      <path fill="rgb(53,53,53)" fill-rule="evenodd" d="M43.81957206 61.77830197c-.15821054 1.89056008-.98881588 4.66138095-.98881588 5.17153208 0 .51015113-1.57221726 3.87114684-1.80953307 4.45131871-.10876975.28008298-.64273032 1.51044748-1.28546065 3.00088902-.70205928 1.70050378-1.52277646 3.78112017-1.97763177 5.3315795-.40055442 1.81581317-.59954902 3.67117418-.59328953 5.53163876-.08899343 3.1709394 0 6.55194103 0 7.8723322-.24158138 2.60037424-.66118727 5.18066355-1.25579617 7.72228774-.5946089 2.5416242-.92948693 1.82053934-1.680987 2.00059268-1.13343844.13123231-2.27797636.13123231-3.4114148 0-.68364429-.20860093-1.26996633-.65966342-1.65132252-1.27037635-.32510518-.35102444-.55353742-.78215207-.66250665-1.25037042 0-.47013928 0-5.27156172-.0692171-8.00237073-.06921712-2.730809.65261848-10.46309971.64273032-10.88322418-.00988816-.42012446-.91959877-12.00355608-1.07780932-15.0044451.03216634-2.49834646.39465258-4.98110584 1.07780932-7.382187h.0692171l.91959878.06001779c3.32242137.23006816 13.87308685 1.05031116 13.75442894 2.6507853z"/>
      <path fill="rgb(108,145,196)" fill-rule="evenodd" d="M29.18509698 99.1593762v2.45072604c-.32510517-.35102444-.55353742-.78215207-.66250664-1.25037043 0-.47013928 0-5.27156171-.0692171-8.00237072-.06921712-2.730809.65261847-10.46309972.64273031-10.88322418-.00988815-.42012446-.91959877-12.00355608-1.0778093-15.0044451.03216633-2.49834647.39465257-4.98110584 1.0778093-7.382187h.07910528l.98881588-.44013038-.05932895.50014817-.58340138 4.8914491s0 6.38189065.07910528 6.67197659c.07910527.29008594 1.0085922 5.57165061 1.0085922 5.57165061l.35597371 6.31186991-1.54255277-7.39218995s.39552635 5.7116921.3361974 6.36188472c-.05932896.65019262 0 6.19183435.08899343 6.62196177.08899343.43012743-.54384874 6.46191436-.54384874 6.46191436s-.0494408 3.64107868-.1186579 4.5113365z"/>
      <path fill="rgb(242,242,242)" fill-rule="evenodd" d="M51.31479646 35.51052008c-.12854607 1.49044154-.80094087 5.80171877-.90971062 7.00207438-.10876974 1.2003556-.98881588 4.53134242-1.680987 9.39278263-.69217112 4.86144022-.12854606 5.57165062-.622954 7.25214847-.49440795 1.68049785-1.59199358 3.8011261-5.65602686 5.3015706-1.46024928.49477662-3.00219168.69527955-4.5386649.59017484-1.81798445-.10172854-3.61568718-.43787911-5.34949393-1.00029634-.5968072-.17610583-1.18427859-.38310645-1.76009228-.62018373-2.02707256-.88026078-3.52018454-2.89085642-3.29275689-4.30127426.18904441-.91512306.52294876-1.79335386.98881589-2.60077049.13843422-.4101215 2.22483573-6.3418788 2.49181602-7.00207438.12398192-1.24388252.12398192-2.49722579 0-3.7411083 0-.27008002-1.91830281-10.67316196-1.26568433-12.4136776.6357744-1.31288215 1.6049031-2.43134452 2.80823711-3.24096013.46474347-.43012743 4.72653992-3.41101052 4.99352021-3.60106683l3.14443451-2.0506075 5.9328953 1.1503408c1.49909158.22339345 2.83508307 1.07716536 3.67839509 2.3506964 1.45355935 2.16064009 1.16680274 6.05179285 1.03825668 7.53223144z"/>
      <path fill="rgb(108,145,196)" fill-rule="evenodd" d="M39.3402361 71.21109646c-.29664476.54016002-3.85638194 4.1812387-3.85638194 4.1812387l-1.15691458-4.33128315-1.76998043-6.9420566c1.73380675.56241722 3.53150948.8985678 5.34949393 1.00029634 1.81798445.10172854 1.72053963 5.56164765 1.43378303 6.0918047z"/>
      <g opacity=".2">
        <path fill="rgb(29,29,27)" fill-rule="evenodd" d="M37.3724925 46.00362869c-.10876975.59017484-.42519083 5.0014817-.42519083 5.0014817l.98881588 7.12210994-.0692171 7.00207438c-1.81798446-.10172854-3.61568719-.43787911-5.34949394-1.00029634l-.09888159-.39011557-.71194743-7.37218403-.41530267-6.57194695 2.07651335-4.52133946s2.07651336-5.45161506 3.28286873-5.32157653l1.85897387 3.32098385-.15821055 1.87055415s-.87015797.28008298-.97892772.86025486z"/>
      </g>
      <path fill="rgb(252,199,170)" fill-rule="evenodd" d="M30.80675503 43.33283746l-.2373158-.47013928.2373158.47013928z"/>
      <path fill="rgb(252,199,170)" fill-rule="evenodd" d="M39.97307827 24.0771329c-.13345443.37876965-.29543628.74662427-.48451978 1.10032598-.24720397.40011854-.98881588 1.06031412-1.09758563 1.2303645-.10876975.17005038.82071718 1.6104771.98881588 2.00059268.9414965.95868777 2.03849015 1.74700212 3.2433161 2.33069047.7486928.40174964 1.6617457.31527993 2.32371733-.2200652.69217112-.52015409.89982245-3.00088901.89982245-3.00088901s-4.51888859-4.09121203-5.87356635-3.44101941z"/>
      <path fill="rgb(201,201,201)" fill-rule="evenodd" d="M43.71080231 30.91915988l-.47463162 1.56046229c-1.3949648-.60744287-2.72106192-1.36538671-3.95526354-2.26066973-1.06104855-.92764794-1.7006071-2.25414588-1.76998043-3.67108757l1.24590802-1.08032005.66250664-.17005038c-.18493016.55645454-.24901293 1.14671955-.18787502 1.73051267.18787502.55016299 2.96644765 3.65108164 4.7067636 3.31098089 1.02134163-.1794743 1.96360564-.67178844 2.69946737-1.41041784l-.98881589 3.551052-1.93807913-1.56046228z"/>
      <g opacity=".2">
        <path fill="rgb(29,29,27)" fill-rule="evenodd" d="M40.6652494 27.11803378s1.1766909 2.15063713 1.40411855 2.59076752c.22742765.4401304 1.25579617 2.33069048 1.32501328 2.460729.06921711.13003853 1.87875018 1.3403971 2.33360548 1.19035265.98667588-.79842347 1.8181953-1.77527024 2.4522634-2.88085346.0508739-.97294169.0508739-1.94792364 0-2.92086532-.05087391-.97294168-.69217112-1.14033783-1.1074738-1.2303645-.41530266-.09002667-6.3877506-.29008593-6.40752692.79023411z"/>
      </g>
      <path fill="rgb(252,199,170)" fill-rule="evenodd" d="M51.07748064 20.87618462s-.9097106 4.55134835-1.03825667 5.0014817c-.56576511 1.25048884-1.22697634 2.45448741-1.97763177 3.60106683-.57102632.64298301-1.18913831 1.24152117-1.8490857 1.79053044-.59879092.18307874-1.23002257.2308854-1.8490857.1400415-1.44316315-1.15144192-2.67201227-2.55375854-3.6289543-4.14122686-.69707735-1.75301286-.94536166-3.65568863-.7218356-5.53163876.18787503-.9002667.6526185-4.58135724 1.59199358-4.7814165.93937509-.20005927 9.38386273.31009186 9.47285616 3.92116165z"/>
      <path fill="rgb(34,34,34)" fill-rule="evenodd" d="M50.04911213 21.6464128c-.9275923.4291416-1.95208507.59841822-2.96644765.4901452-1.7304278-.18005333-2.07651336-.7902341-2.54125683-.73021632-.46474346.06001778-1.2953488 1.51044747-1.2953488 1.51044747l-.92948693.83024597-.98881589.3801126-.3361974 1.79053045-.39552635-.76022521s.20765134-1.7205097.17798686-2.12062825c-.115633-.45464763-.3397167-.87367212-.65261848-1.22036153-.12854607-.0800237-.48451979.820243-.48451979.820243-.1850336-1.07221202-.1850336-2.16874812 0-3.24096014.2175395-2.5707616.82071719-4.58135724 2.96644765-5.70168914 2.14573047-1.1203319 5.9328953-.3300978 7.1095862.61018076 1.1766909.94027856 1.8490857 2.33069048 1.86886202 4.87144318.004289 1.52249541-.3589026 3.0230324-1.05803299 4.371295.07982046-.73745447.11943307-1.4787963.1186579-2.22065787-.0692171-.2200652-.59328952.32009483-.59328952.32009483z"/>
      <path fill="rgb(255,214,191)" fill-rule="evenodd" d="M40.3982691 24.75733442c-.3168053-.02232899-.60373054-.19722715-.77127639-.47013928-.28652913-.7231039-.44388507-1.49192343-.46474346-2.2706727.06921711-.43012742.24720397-.64018965.48451978-.62018372.23731581.02000592 1.15691459 1.090323 1.09758563 1.43042376-.05932895.34010076 0 1.92056898-.34608556 1.93057194z"/>
      <path fill="rgb(47,39,32)" fill-rule="evenodd" d="M88.11852364 87.19583198s2.77857263 2.6507853 3.5300727 3.1409305c.75150007.49014521.87015798 1.92056898.82071719 2.51074382-.0494408.59017484-1.26568433 1.18034968-2.09628968 1.11032893-.83060534-.07002074-3.1444345-2.40071121-3.1444345-2.40071121-1.46320713-.6968229-2.8714521-1.50609994-4.21235567-2.42071714-.98881588-.86025486.23731581-2.84084161.23731581-2.84084161l4.86497415.9002667z"/>
      <path fill="rgb(0,0,0)" fill-rule="evenodd" d="M88.15807627 86.75570159s2.77857264 2.6507853 3.5300727 3.13092754c.75150008.48014224.87015799 1.93057194.8207172 2.52074678-.0494408.59017484-1.2261317 1.18034968-2.09628968 1.11032894-.87015798-.07002075-3.14443451-2.40071122-3.14443451-2.40071122-1.46485919-.69743054-2.87330843-1.51016958-4.21235566-2.4307201-.98881589-.8502519.2373158-2.84084161.2373158-2.84084161l4.86497415.91026967z"/>
      <path fill="rgb(53,53,53)" fill-rule="evenodd" d="M86.7341814 88.62625574c-1.09558283.14801202-2.21038105.0031645-3.23342794-.42012446-.42120732-.2888757-.80924503-.6243825-1.15691458-1.00029634-.6723948-.68020151-1.26568433-1.41041784-1.26568433-1.41041784s-.49440794-7.82231738-.40541451-8.79260483c.08899343-.97028745-.6031777-12.00355608-1.13713827-13.22391762-.6566685-1.64364351-1.17596733-3.34008508-1.55244094-5.07150244 0-.12003556-.1186579-.95028153-.22742765-2.0806164-.29664476-3.00088901-.57351321-8.28245369 1.35467776-8.62255444 2.78989586-.27552627 5.59686987-.32903984 8.39504685-.16004742 1.1081495 2.0476469 1.76588541 4.31332536 1.92819097 6.6419677.22742766 3.79112313-.61306584 14.79438287-.6723948 17.7952719-.05932895 3.00088901-.22742765 13.52400651-.12854606 14.60432656.09888159 1.08032005-1.52277646 1.63048303-1.8985265 1.74051563z"/>
      <path fill="rgb(108,145,196)" fill-rule="evenodd" d="M81.84943094 84.19494295c.33359545.96423975.50083398 1.97932107.49440794 3.00088903-.6723948-.68020152-1.26568433-1.41041784-1.26568433-1.41041784s-.49440794-7.82231738-.40541451-8.79260483c.08899343-.97028745-.6031777-12.00355609-1.13713827-13.22391762-.6566685-1.64364352-1.17596733-3.34008508-1.55244094-5.07150245 0-.12003556-.1186579-.95028152-.22742765-2.08061638.74339376.20451452 1.46280156.48958194 2.14573047.85025188.11055569 2.26493699.341614 4.52220704.69217112 6.76200326.53969053 3.10799627.8700563 6.24948954.98881588 9.4027856-.00759553 1.11836222.09843507 2.23455378.31642108 3.33098681.21798601 1.09643304-.5537369 0-.40541451.39011558.3196679 1.50999096.71571492 3.00239453 1.18657906 4.47132464.32630924.50014817 1.40411855 3.52104312 1.40411855 3.52104312l-2.09628967-2.86084754s-.59328953 1.02030227-.13843422 1.71050674z"/>
      <path fill="rgb(47,39,32)" fill-rule="evenodd" d="M75.80776589 90.74688398s-.30653292 3.18094236 0 3.63107572c.43954692 1.01687334.64252067 2.12223499.59328953 3.23095718-.20765134.40011853-1.67109884.5201541-1.67109884.5201541s-3.20376347-.45013336-3.4114148-1.28037932c-.26548276-1.10595407-.37861858-2.24371537-.3361974-3.38100163.12854606-.65019262-.74161191-2.61077345-.52407242-3.57105794.2175395-.96028448 5.34949393.8502519 5.34949393.8502519z"/>
      <path fill="rgb(0,0,0)" fill-rule="evenodd" d="M75.84731853 90.22672989s-.30653293 3.19094532 0 3.64107867c.44417234 1.01214646.65062408 2.11459372.60317768 3.22095422-.20765133.40011854-1.66121068.5201541-1.66121068.5201541s-3.21365162-.45013336-3.4114148-1.27037636c-.26998605-1.10517089-.38318584-2.24357553-.3361974-3.38100163.1186579-.65019262-.75150007-2.61077344-.53396058-3.57105793.2175395-.96028449 5.33960578.84024893 5.33960578.84024893z"/>
      <path fill="rgb(53,53,53)" fill-rule="evenodd" d="M77.36020683 71.52118832l-.31642109 15.76467033s-.4548553 3.08091272-1.08769747 3.54104904c-.63284216.46013632-5.07262548.12003556-5.07262548.12003556s-.12854606-.17005038-.31642108-.46013632c-.51418426-.80023707-1.50300015-2.48073492-1.40411856-3.64107867.12854607-1.58046822.18787502-8.78260187.1680987-9.07268781-.01977631-.29008594-.54384873-11.07328049-1.3942304-15.1144777-.85038165-4.04119721.08899344-13.62403615.08899344-13.62403615l4.66721097-.24007113 7.62377046-.3801126s0 6.47191732-.15821054 7.90234108c-.15821054 1.43042377-1.2261317 3.0609068-1.85897386 5.70168914-.51101768 3.14438132-.82477003 6.3183324-.9393751 9.50281523z"/>
      <path fill="rgb(108,145,196)" fill-rule="evenodd" d="M75.46168033 62.45850348c-.29664476.820243-.98881588 2.4307201-.98881588 2.4307201l-.59328953 2.65078531-1.33490145-.48014224c.09060607 1.57641927.07408694 3.15727227-.04944079 4.73140169-.2175395.6802015-.59328953 4.65137798-.59328953 4.65137798l.23731581 3.70109646-1.33490144-1.09032301-.10876975 3.52104311-.74161191-1.08032004v5.83172766l.66250664 3.19094532c-.51418426-.80023707-1.50300014-2.48073492-1.40411855-3.64107867.12854606-1.58046822.18787501-8.78260187.1680987-9.0726878-.01977632-.29008595-.54384874-11.0732805-1.3942304-15.11447771s.08899343-13.62403615.08899343-13.62403615l4.66721097-.24007112c.05932895 1.73051266.1186579 4.00118536.1186579 4.63137205 0 1.00029634 1.97763177 4.83143132 1.97763177 4.83143132s.95915141 3.3609957.62295401 4.17123574z"/>
      <path fill="rgb(69,196,138)" fill-rule="evenodd" d="M90.8674318 25.98769892c-.59328954 2.18064602-1.83919755 8.12240628-1.83919755 8.12240628.19776318 3.35099274-.98881588 5.741701-1.3447896 7.52222848-.17154343 1.77110415.02033912 3.55896276.56362505 5.25155579.24639084.68470681.428478 1.39136978.54384874 2.11062527-1.37539512 1.33155335-2.8570535 2.54603215-4.42989516 3.63107572-3.83848561 1.55867277-8.11182311 1.6228221-11.99433666.18005334-1.1771007-.44160105-2.31780131-.97676371-3.4114148-1.60047415-1.82930939-1.07031708-1.79964491-1.68049785-1.79964491-1.68049785s.66250664-2.94087124.73172375-3.37099866c.06921712-.43012743.8899343-5.56164765.98881589-6.36188473.09888158-.80023707 3.37186216-5.47162098 2.59069761-9.27274707l-.46474346-2.20065195c-.82071719-3.78112016-1.86886202-8.54253074-1.3942304-9.11269966.47463162-.57016891 5.70546765-3.280972 5.70546765-3.280972l1.41400671-.39011557c2.38268261-.3249022 4.79360087-.38193311 7.18869147-.17005037 1.69087516.15004445 6.62506642 2.20065194 7.50511256 2.70080011.88004614.50014817.0494408 5.73169803-.5537369 7.92234702z"/>
      <path fill="rgb(186,206,189)" fill-rule="evenodd" d="M74.29487759 42.27252334l-.63284217 5.45161505-1.31512512 5.06149948-3.4114148-1.60047414c-1.82930938-1.07031709-1.7996449-1.68049785-1.7996449-1.68049785s.66250663-2.94087124.73172375-3.37099867c.0692171-.43012743.8899343-5.56164765.98881588-6.36188472.09888159-.80023708 3.37186216-5.47162098 2.59069761-9.27274708l-.46474346-2.20065195c.65261848-.80023707 1.06792115-1.29038227 1.06792115-1.29038227s2.65991473 7.2421455 2.69946736 8.12240628c.03955264.88026078-.4548553 7.14211587-.4548553 7.14211587z"/>
      <path fill="rgb(252,199,170)" fill-rule="evenodd" d="M85.91346422 9.49281227s-.69217112 4.87144318-.66250664 5.39159727c.1047595 1.08688985.13779323 2.17963456.09888159 3.27096903-.41451653 1.15927894-.99414405 2.25111644-1.72053964 3.24096015l-.90971061.1100326c-.75109289-.18644195-1.48800257-.42713034-2.20505942-.72021337-.84894753-.22989883-1.4749308-.95813763-1.58210542-1.84054527-.3361974-1.47043562.80094087-5.61166247.8404935-6.14181953.03955264-.53015706 6.14054664-3.31098088 6.14054664-3.31098088z"/>
      <path fill="rgb(255,214,191)" fill-rule="evenodd" d="M85.34983917 16.2648185s-1.24590802 2.5107438-1.7304278 3.31098088c-.48451978.80023707-1.16680274 1.90056304-1.16680274 1.90056304.48792602-.28464247.94524454-.61988024 1.36456592-1.00029634.27686844-.32009482 1.3942304-1.73051266 1.3942304-1.73051266l.15821053-.56016596-.01977631-1.92056897z"/>
      <path fill="rgb(32,162,106)" fill-rule="evenodd" d="M85.34983917 16.67494c-.33691627 1.06772529-.74660927 2.11053412-1.2261317 3.12092457-.26241453.65204658-.76115586 1.1780479-1.3942304 1.47043562-.86966779-.15865358-1.71438762-.4345246-2.51159234-.820243-.64517993-.54466505-1.16204299-1.2281474-1.5128883-2.00059268-.20429102.4840422-.35036376.99115747-.43507899 1.51044748.05932895.23006816-.24720397.72021336.98881588 1.5304534 1.23601986.81024003 2.5214805 1.43042376 2.5214805 1.43042376l.8899343-1.29038227 1.20635538 1.29038227c.75328067-.6354331 1.3893546-1.40081057 1.87875018-2.26066972 1.04814483-3.26096607.35597372-4.37129501-.47463163-5.0014817.06921712.48014224.06921712 1.02030226.06921712 1.02030226z"/>
      <path fill="rgb(250,211,190)" fill-rule="evenodd" d="M84.06437852 14.12418432c-.2997088 1.32282757-.66939864 2.62842564-1.1074738 3.9111587-.36586187.74021929-3.06532923 2.26066972-4.2716846 2.2406638-.89926625-.1729611-1.66923312-.75621804-2.08640152-1.58046822-.3871585-.937024-.68836614-1.90806113-.89982246-2.90085939l1.06792116-.29008594 5.10228996.1100326 2.19517126-1.49044155z"/>
      <path fill="rgb(34,34,34)" fill-rule="evenodd" d="M84.2621417 12.96384057l-.34608557.57016891h-.59328953l-.4548553-1.27037635c-.31106515-.5921468-.49948355-1.24224939-.5537369-1.910566.05932896-.69020448-.98881588-2.13063121-1.13713826-2.00059269-1.04216683.47682547-2.21323484.58259908-3.32242137.3000889-.80238414-.16263862-1.49525887-.67007492-1.8985265-1.39041191-.40326763-.72033699-.47463162.28008298-.51418426.6301867-.03955263.35010371-.07910527 1.00029633-.07910527 1.00029633-.11558522-1.02940468-.13875225-2.0672853-.06921711-3.10091865.39777798-2.03468219 1.8254942-3.7070208 3.75750036-4.4013039 2.28416469-.94027856 5.70546765.49014521 7.12936252 1.66049193 1.12670364 1.15432443 1.60255257 2.80528574 1.26568433 4.39130093-.22742766 1.00029634-1.1272501 5.0014817-1.1272501 5.0014817s-.83060535-1.08032005-1.058033-1.00029634c-.52097908.35083421-.88081816.89866165-.99870405 1.52045044z"/>
      <path fill="rgb(255,203,166)" fill-rule="evenodd" d="M86.05189844 11.39337531c-.3745651.03209198-.72536768.19888347-.98881588.47013928.03447397-1.83907872-.2021441-3.67308877-.70205928-5.44161209 0-.07002074-3.95526353-2.74081197-4.76609256-2.71080308-.81082902.0300089-3.4114148 2.00059268-3.95526353 3.00088902-.54384874 1.00029634-.3361974 3.6910935-.3361974 4.00118536 0 .31009187.12854606 1.71050675.15821054 2.69079716.2202486 1.60627428.58093225 3.1896149 1.07780931 4.73140169.20883208.83721128.88832137 1.46959937 1.7304278 1.6104771.87015798.2200652 4.35078989-1.67049488 4.71665176-2.00059267.6037366-1.0960948 1.1100227-2.24428 1.5128883-3.43101645v-.0800237c.10876975.21006222.35597372.55016298.64273033.4901452.2867566-.06001778.82071718-1.21035857.98881588-1.54045637.1680987-.33009779.61306585-1.8005334-.07910527-1.79053045z"/>
      <path fill="rgb(242,240,252)" fill-rule="evenodd" d="M87.55489859 8.26244777v.0800237c-.92424814.60323129-1.92120863 1.08396655-2.96644766 1.43042377-2.0812627.60649212-4.26938217.73971349-6.40752692.39011558-3.32242137-.4401304-3.59928982-1.58046822-3.59928982-1.58046822-.07035885-1.4565057.06954639-2.91560827.41530268-4.33128315.11857665-.63780758.39785824-1.2338646.81082902-1.73051267l.06921711-.1100326c.9155439-1.02027606 2.10400415-1.7499706 3.42130296-2.10062231 1.2782732-.12348165 2.56808646-.01164264 3.80694115.33009779 1.3717001.37380751 2.58625834 1.18823333 3.4608556 2.3206875.10783769.14032347.2069119.2873194.29664476.4401304.70951441 1.51295755.95077217 3.20742321.69217112 4.86144021z"/>
      <path fill="rgb(242,242,242)" fill-rule="evenodd" d="M78.63577932 4.82142836c-3.6289543-.44013039-3.10488188-2.00059268-2.86756607-2.3506964l.06921712-.1100326c.93268144-1.0085249 2.13510045-1.72097573 3.46085559-2.0506075C83.06567447 0 85.42894444 1.38040896 86.59574718 2.9808831c.73172375 1.21035858-4.21235567 2.28067566-7.95996786 1.84054527z"/>
      <path fill="rgb(207,207,230)" fill-rule="evenodd" d="M79.78280574 4.91145503s1.14702643-2.88085346 2.08640152-3.40100756c.78488165-.64033999 1.87388255-.73905365 2.75879631-.25007408-.63380626-.4013363-1.36839171-.60968608-2.11606599-.6001778-1.75866119.62548866-2.87957868 2.37157913-2.72913184 4.25125944z"/>
      <path fill="rgb(207,207,230)" fill-rule="evenodd" d="M87.55489859 8.26244777h-.47463163s.43507899-6.22184324-3.95526353-7.55223737c1.3717001.37380751 2.58625834 1.18823333 3.46085559 2.32068751.1078377.14032346.20691192.2873194.29664476.44013039.68892891 1.49432903.92298166 3.16216597.6723948 4.79141947z"/>
      <path fill="rgb(242,242,242)" fill-rule="evenodd" d="M74.55196972 7.12210994v-.25007408s.34608556 1.25037042 3.66850693 1.70050378c3.32242136.45013335 7.85119811-.70020744 8.76090872-1.39041192.64273033-.36010668.64273033-.53015706.64273033-.53015706l.15821054.10002964-.68228296 1.2303645-7.77209285 1.640486-3.72783588-.90026671-.88004613-1.11032894-.1680987-.4901452z"/>
      <path fill="rgb(207,207,230)" fill-rule="evenodd" d="M74.55196972 7.12210994s0 .94027856 3.43119111 1.52045044c3.43119112.58017188 8.35549422-.44013039 9.67061934-1.68049785l.14832239-.21006223v1.57046525c-1.41694174 1.06439192-3.09720172 1.71175786-4.855086 1.87055416-2.24701494.34915552-4.54053013.23689051-6.74372432-.3300978-.83061829-.17805366-1.48525292-.8247068-1.680987-1.66049192l.02966448-1.08032005z"/>
      <path fill="rgb(234,234,245)" fill-rule="evenodd" d="M74.52230524 7.69227886s-2.45226339 1.57046525-.17798686 2.57076159c1.85281234.79619086 3.8651861 1.1389077 5.87356635 1.00029634 1.05391184-.11647752 2.0526176-.53656833 2.87745422-1.21035857-2.25681255.10807603-4.51782858-.0870144-6.723948-.58017188-1.47333567-.39011557-1.64143437-.7902341-1.8490857-1.78052748z"/>
      <path fill="rgb(245,245,245)" fill-rule="evenodd" d="M80.21788025 3.53095107c.30926514-1.12927246 1.06362915-2.08044433 2.08639526-2.6307373.69625855-.20617676 1.4406128-.12780762 2.07583618.21081543-.75698852-.42993164-1.6020813-.680542-2.47135925-.73095703-.7332611.0078125-1.42947388.3272705-1.91830444.88024902-.78109741 1.03027344-1.25149536 2.2668457-1.3546753 3.56103516l1.1470337.09008789s.15820312-.59020996.43507385-1.38049317zm4.41011047-2.27050781c-.08042907-.05432129-.16319275-.10412598-.24787903-.149292.08374024.04760743.16638184.09729005.24787903.149292z"/>
      <path fill="rgb(207,207,230)" fill-rule="evenodd" d="M77.4393121 4.60136316s.92948693-3.00088902 1.97763176-3.68109053c.41380286-.32275837.89344382-.54827838 1.40411856-.66019558h-.41530267s-1.83919755.3000889-2.16550679.9002667c-.32630924.6001778-1.1272501 2.53074975-.80094086 3.44101941z"/>
      <path fill="rgb(245,245,245)" fill-rule="evenodd" d="M80.40575975.26007705s-1.33490144 0-2.20505942 1.82053934c-.44698756.76764558-.707904 1.63146807-.76138823 2.52074677-.37119381-.1021958-.73205503-.23950854-1.07780932-.4101215.11519632-1.255939.64457035-2.4361974 1.50300015-3.35099273.7580157-.47814815 1.65371174-.6826366 2.54125682-.58017188z"/>
      <path fill="rgb(244,134,96)" fill-rule="evenodd" d="M93.96242551 52.44553712l-1.83919754 1.07031708-8.23683631 41.75236924 1.83919754-1.07031708 8.23683631-41.75236924z"/>
      <path fill="rgb(206,75,40)" fill-rule="evenodd" d="M92.12322797 53.5158542l3.78716483 2.21065491 8.23683631 51.37522004-3.78716483-2.21065492-8.23683631-51.37522003z"/>
      <path fill="rgb(244,134,96)" fill-rule="evenodd" d="M97.74959034 54.65619203L95.9103928 55.7265091l8.23683631 51.37522004 1.82930938-1.07031709-8.22694815-51.37522003z"/>
      <path fill="rgb(206,75,40)" fill-rule="evenodd" d="M92.12322797 53.5158542l-3.78716484-2.21065491-8.2368363 41.75236924 3.78716483 2.21065491 8.2368363-41.75236924z"/>
      <path fill="rgb(226,96,51)" fill-rule="evenodd" d="M82.88768762 76.10254556l-.00988816-2.96087716 16.60221868 11.6434494.00988816 2.97088013-16.60221868-11.65345237z"/>
      <path fill="rgb(249,115,57)" fill-rule="evenodd" d="M83.8270627 72.55149355l-.94926324.59017485 16.60221868 11.6434494.94926325-.58017188L83.8270627 72.55149355z"/>
      <path fill="rgb(244,134,96)" fill-rule="evenodd" d="M100.43916955 87.17582605l-.94926325.58017188-.00988816-2.97088013.94926325-.58017188.00988816 2.97088013z"/>
      <path fill="rgb(244,134,96)" fill-rule="evenodd" d="M60.27346836 98.8892962v-2.33069048L116.28 63.84891539v2.33069048L60.27346836 98.88929619z"/>
      <path fill="rgb(244,134,96)" fill-rule="evenodd" d="M46.48937494 80.1637487l-1.83919754 1.08032005-8.22694815 41.75236924 1.83919754-1.07031708 8.22694815-41.7623722z"/>
      <path fill="rgb(206,75,40)" fill-rule="evenodd" d="M44.6501774 81.24406875l3.78716484 2.21065491 8.2368363 51.37522004-3.78716483-2.22065788-8.2368363-51.36521707z"/>
      <path fill="rgb(244,134,96)" fill-rule="evenodd" d="M50.27653978 82.37440362l-1.83919754 1.08032004 8.2368363 51.37522004 1.83919755-1.08032005-8.23683631-51.37522003z"/>
      <path fill="rgb(206,75,40)" fill-rule="evenodd" d="M44.6501774 81.24406875l-3.77727667-2.21065491-8.23683631 41.75236924 3.78716483 2.21065491 8.22694815-41.75236924z"/>
      <path fill="rgb(226,96,51)" fill-rule="evenodd" d="M35.41463705 103.83076011l-.00988816-2.97088013 16.60221868 11.65345237.00988816 2.97088013-16.60221868-11.65345237z"/>
      <path fill="rgb(249,115,57)" fill-rule="evenodd" d="M36.3639003 100.2797081l-.9591514.58017188 16.60221867 11.65345237.94926325-.58017188L36.3639003 100.2797081z"/>
      <path fill="rgb(244,134,96)" fill-rule="evenodd" d="M52.97600714 114.9040406l-.9591514.58017188-.00988817-2.97088013.94926325-.58017188.01977632 2.97088013z"/>
      <path fill="rgb(249,115,57)" fill-rule="evenodd" d="M60.27346836 96.55860572L27.48433366 77.4029308l55.99664349-32.70969032L116.28 63.84891539 60.27346836 96.55860572z"/>
      <path fill="rgb(255,255,255)" fill-rule="evenodd" d="M63.75410027 88.78630316L40.77401914 75.37232923l39.23621425-22.91678915L102.98042637 65.869514l-39.2263261 22.91678916z"/>
      <path fill="rgb(194,217,235)" fill-rule="evenodd" d="M65.20765686 70.38080459l5.24072266 3.00085449 9.4827423-5.53161621-5.24072265-3.0008545-9.48274231 5.53161622zm5.24073792 2.34082031l-4.133255-2.34069824 8.37527465-4.8914795 4.13323974 2.34069825-8.3752594 4.89147949z"/>
      <path fill="rgb(194,217,235)" fill-rule="evenodd" d="M56.13032532 72.7216249l7.12936401 4.16125488 7.13925171-4.16125488-7.1392517-4.17126465-7.12936402 4.17126465zm7.12937927 3.56103516l-6.04167175-3.56103516 6.04167175-3.49108887 6.0416565 3.53100586-6.0416565 3.52111817z"/>
      <path fill="rgb(194,217,235)" fill-rule="evenodd" d="M69.31124878 73.11176162l7.1392517 4.17114258 7.12936402-4.2211914-7.12936401-4.1612549-7.13925171 4.21130372zm7.1392517 3.48095703l-6.04167174-3.4810791 6.04167175-3.58105469 6.0416565 3.53100586-6.0416565 3.53112793z"/>
      <path fill="rgb(194,217,235)" fill-rule="evenodd" d="M71.57563782 66.47980361l7.1392517 4.17114258 7.12936402-4.17114258-7.12936401-4.20129394-7.13925171 4.20129394zm7.1392517 3.53100586l-6.04167175-3.53112793 6.04167176-3.53100586 6.0317688 3.53100586-6.0317688 3.53112793z"/>
      <path fill="rgb(194,217,235)" fill-rule="evenodd" d="M64.9802246 85.98541885l.12854005.08007812L98.3230896 66.66974502 78.78408813 55.25641494l-.13842773-.08007813-33.20443726 19.39575196 19.53900147 11.41333008zm.1285553-.5600586L46.52893067 74.57221084l32.116745-18.75561524L97.2156372 66.6698671 65.1087799 85.42536025z"/>
      <path fill="rgb(226,96,51)" fill-rule="evenodd" d="M27.48433366 79.73362128V77.4029308l32.7891347 19.15567492v2.33069047l-32.7891347-19.15567491z"/>
      <path fill="rgb(209,191,145)" fill-rule="evenodd" d="M43.33505228 73.35173063l-1.85897386-.04001186-.66250665 3.15093347-1.94796729.66019559-2.31382916.02000593-3.6981714-2.88085346 8.4543758-4.94146392 2.02707256 4.03119425z"/>
      <path fill="rgb(255,203,166)" fill-rule="evenodd" d="M43.39438123 73.19168321c-.00325793.06126391-.0238516.12029007-.05932895.17005038-.23731582.34010076-1.15691459.10002963-1.15691459.10002963l-.6723948-.78023114v.64018966c-.0494408.7102104-.09888159 1.8005334-.10876974 2.00059268-.00988816.20005926-.07910528 1.13033486-.56362506 1.16034375-.46474346 0-.622954-.75022225-.59328953-1.08032005.02966448-.33009779-.37575003-3.12092458-.37575003-3.12092458L39.458894 73.5517899l-.31642108 1.40041488-.1680987.81024004c.00541342.44885085-.02767111.89733083-.09888159 1.3403971-.0219198.12036777-.06549017.23564409-.12854606.34010075-.2669803.3000889-.76138823-.07002075-.76138823-.07002075l-.0988816-.09002667c-.10019107.11223-.20932795.21594284-.32630923.31009187-.07737299.05910346-.1702165.09388918-.2669803.10002963-.21753949 0-.73172375-.20005926-.70205927-.53015706.00977037-.15989482.00977037-.32024742 0-.48014224v-.32009483c-.1630868.06583511-.34056192.08655077-.51418426.06001778-.10234257-.01269903-.1915172-.07659776-.23731581-.17005038-.25586612-.63813734-.4094157-1.31349532-.4548553-2.00059268 0-.44013039.22742765-1.22036153.22742765-1.29038228v-.10002963c.01379738-.04434184.03030956-.08777198.0494408-.13003852.13843421-.36010669.4054145-1.00029634.61306584-1.640486.19787366-.51453474.33076575-1.05227477.39552635-1.60047415.02672324-.8721648-.12475806-1.74052503-.44496715-2.55075566-.35597371-1.08032005-3.58940165-9.292753-3.90582274-10.37307305-.31642108-1.08032005-.4548553-5.05149652-.7416119-5.77170988-.28675661-.72021337-1.1766909-5.15152616-1.50300015-6.76200326-.07910527-.34010076-.1186579-.550163-.1186579-.550163l.63284216-.4601363c.62793554-.5043817 1.28863129-.96555468 1.97763177-1.38040896.21753949 0 3.6981714 1.50044451 3.6981714 1.50044451s.39552635 3.51104016.39552635 5.1115143c-.0695737 1.52919277-.01334714 3.06158997.1680987 4.58135724.23731582 1.25037042 1.88863834 8.84261965 2.22483574 10.20302267.39574479 1.81430733.96194248 3.58621424 1.69087516 5.29156764.68713478.76437815 1.32460736 1.57297643 1.90841466 2.42071714.0494408.28008298.18787501 1.60047415.26698029 1.77052452.07910527.17005038.49440794.35010372.47463162.67019855z"/>
      <path fill="rgb(250,211,190)" fill-rule="evenodd" d="M43.39438123 73.19168321c-.00924735.05675864-.02940372.11113301-.05932895.16004742-.23731582.35010372-1.15691459.1100326-1.15691459.1100326l-.6723948-.78023115v.6301867l-.1186579-1.36040303-.0494408-1.3403971.40541451 1.6704949c.19005672.25496436.40181241.49260829.63284217.7102104.3042861.18940148.6662381.26049942 1.01848036.20005926z"/>
      <path fill="rgb(250,211,190)" fill-rule="evenodd" d="M36.32299805 70.74640517c.13996887-.36352539.3125-.71362304.51553344-1.0456543.31642151-.36010742.89982605-1.50048827.44496155-1.8305664-.80093384-.86035156-2.45225525-5.99182129-3.76737976-9.5928955-.78559875-2.15112305-.69615173-2.93151856-.62742615-3.53112794.04631043-.4041748.08322144-.72619629-.16363525-1.33032226-.50611877-1.25720215-.81312561-2.58728028-.90971375-3.94116211-.2175293-1.69042969-1.2063446-6.25183106-1.2063446-6.25183106l-.55374145.65014649c.3263092 1.61047363 1.21624755 6.04187011 1.50300598 6.76208496.28674316.72021484.42518615 4.69140625.74160766 5.77172851.31642151 1.08032227 3.54985047 9.29272461 3.90582276 10.37304688.32020569.81018066.47169494 1.67858887.44496154 2.55078125-.0570526.48291016-.16699218.95776367-.32765197 1.41577148z"/>
      <path fill="rgb(234,234,234)" fill-rule="evenodd" d="M36.94730167 43.33283746c-1.09631758.49415257-2.27240754.7822674-3.47074375.85025189-1.21825982.09349053-2.44345794-.01120188-3.6289543-.31009187-.511452-1.97002953-.87505245-3.9763312-1.08769747-6.00177804.04944077-1.44632989.27528202-2.88094528.6723948-4.27126537.53006865-1.0501926 1.27100177-1.97689112 2.17539495-2.72080605 1.90970039 1.01441235 3.36881352 2.72277496 4.0838096 4.7814165.75374224 2.48961401 1.17606022 5.06976111 1.25579617 7.67227294z"/>
      <path fill="rgb(209,191,145)" fill-rule="evenodd" d="M67.9269033 63.8489154l-4.06403328.09002667-2.4028226-.65019263-6.49652035-1.9405749 4.28157277-2.50074085 6.51629667 1.24036747 2.16550679 3.76111423z"/>
      <path fill="rgb(250,156,105)" fill-rule="evenodd" d="M68.18399543 62.7285835c-.28983773-.48371952-.50334935-1.0101965-.63284217-1.5604623 0-.51015113-3.40152664-2.3206875-3.40152664-2.3206875l-.63284216.58017187 1.67109884 2.5407527c.61646319.42087462 1.26070145.79853689 1.92819097 1.13033487.0494408-.09002667.79105271.75022225.79105271.75022225l.27686845-1.1203319z"/>
      <path fill="rgb(255,203,166)" fill-rule="evenodd" d="M68.42131124 62.67856868l-.17798686.80023707-.31642108.37010964-.15821054-.80023707s-.98881589-1.79053045-1.11736195-1.88055712l-1.32501328-1.00029634c-.50002263-.04477172-1.00297753-.04477172-1.50300015 0-.16740974.20144875-.31946483.41545987-.4548553.64018966-.13539048.2247298.21753949 1.3403971.25709213 1.39041191.03955263.05001482.15821054.31009187.30653292.6001778.10089997.19401398.18048018.39862873.23731581.61018078 0 .20005926 0 .6001778-.30653292.5701689-.19505737-.01182479-.38316858-.07756315-.54384874-.1900563l-.77127639-1.00029634-.98881588-2.83083864c-.37965748-1.1004971-.8186918-2.17910252-1.31512513-3.23095718-.22742765-.2200652-4.05414512-5.0014817-5.6461387-6.90204474-1.38999727-1.93010348-2.58269205-3.99798298-3.55973717-6.17182842l-.59328953-1.2303645c.07910527-.75022226.29664476-2.22065788.49440794-3.65108164l.51418426-.06001778c.60888161-.0536077 1.20591893-.20206937 1.76998043-.4401304.21641293-.09129356.40923473-.23160026.56362505-.4101215.58280394.9673298 1.21655938 1.90228704 1.8985265 2.80082976 1.23766826 1.6812958 2.23620343 3.5298309 2.96644765 5.4916269.70205928 2.00059269 3.16421083 7.50222256 3.38175032 8.00237073.2175395.50014817 1.50300015 2.42071714 1.680987 2.69079715.8510521.67110085 1.74636004 1.28270086 2.67969105 1.8305423.09888159 0 1.58210541 2.36069937 1.61176989 2.42071715.02966448.06001778.41530267 1.58046822.41530267 1.58046822z"/>
      <path fill="rgb(250,211,190)" fill-rule="evenodd" d="M64.16940294 63.36877315c0 .20005927 0 .6001778-.30653292.57016892-.19505737-.0118248-.38316858-.07756316-.54384874-.1900563l-.77127639-1.00029635-.98881588-2.83083864c-.37965748-1.1004971-.8186918-2.17910252-1.31512513-3.23095718-.22742765-.2200652-4.05414512-5.0014817-5.6461387-6.90204475-1.38999727-1.93010347-2.58269205-3.99798297-3.55973717-6.17182842l-.59328953-1.2303645c.07910527-.75022225.29664476-2.22065787.49440794-3.65108164l.51418426-.06001778c.05932895 1.10032598.17798686 3.46102534.29664477 3.92116166.29930117.8615522.70460477 1.68157082 1.20635537 2.44072307.46474347.70020743 1.72053964 2.49073788 1.97763177 3.07090976s2.72913184 4.30127426 2.72913184 4.30127426 1.55244094 1.95057787 1.97763177 2.37070233c.46834764.66896341.8943894 1.36723117 1.27557248 2.09061935.51436448 1.36373863.95017403 2.75648526 1.30523697 4.17123574l.86026982 1.640486.89982245.0800237c.08391714.1960485.14689923.4006018.18787502.61018077z"/>
      <path fill="rgb(209,191,145)" fill-rule="evenodd" d="M93.06260306 57.21695066l-3.14443451-5.91175137-3.45096744-4.87144318 7.781981 4.56135131 3.53007271 6.05179286.31642108 3.59106386-1.44367119.38011261-3.58940165-3.8011261z"/>
      <path fill="rgb(209,191,145)" fill-rule="evenodd" d="M75.3726869 63.5488265V52.8056438l-1.1272501-2.72080605-4.20246751 2.72080605.87015798 6.27185805-1.06792116 1.9405749s-.35597372 3.00088902.0988816 3.64107868c.4548553.64018966 1.62165804 2.3506964 1.62165804 2.3506964l.80094087-.55016299s.87015797-2.70080012 3.00600028-2.91086235z"/>
      <path fill="rgb(252,199,170)" fill-rule="evenodd" d="M98.78784702 59.45761446c-.1186579.14004149-.25709213.10002964-.3361974.3000889-.04303327.12903823-.06636932.2639582-.06921711.40011854-.0048452.13781083-.03502386.27349102-.08899343.40011854 0 0-.19094035.15636632-.1979115.08983661-.0073469.24647302-.28971317.47824168-.5239241.32028489-.2373158-.16004742-.22742765-.49014521-.20765133-.73021633.01977632-.24007112.06921711-.38011261 0-.37010965-.06921711.01000296-.1680987.13003853-.25709213.26007705l-.1186579.17005038-.5537369-.40011854s.09888159-1.63048303.06921711-2.00059268c-.11726367-.53756926-.29993752-1.05835354-.54384874-1.55045933-.27083667-.47667121-.70824926-.83351693-1.2261317-1.00029634l-.60317768.7402193-.10876975 1.3103882-.6723948.73021633-.1680987.18005334c-.27436674-.43805978-.47797382-.91754182-.60317769-1.4204208.08147843-1.04174862.22677504-2.07737543.435079-3.10091866.43891559-1.84415633.65800752-3.73482645.65261848-5.6316684-.22742766-1.84054526-1.72053964-9.06268484-1.69087517-9.82291005-.44180293-2.35119655-1.0802418-4.6601806-1.90841465-6.90204475-.15611425-.71234103-.14935075-1.45133996.01977632-2.1606401v-.27008l1.7996449-.53015707s2.36326997-.6301867 2.82801343.4901452c1.1004532 2.85404553 1.96694267 5.79482674 2.59069762 8.79260484.17798686 1.93057194-.20765134 9.86292191-.32630925 11.18331308-.05312907 1.2158602.05326752 2.43349093.31642109 3.62107275.12854606.39011558 1.20635538 2.9008594 1.25579617 3.32098385.0494408.42012447.1186579 1.00029634.1680987 1.44042673.06440158.46387743.09414516.93200611.08899343 1.40041488.05932895.23006816.1186579.56016595-.01977632.7402193z"/>
      <path fill="rgb(50,51,56)" fill-rule="evenodd" d="M94.7831427 55.3764054l-.73172376 1.26037338-.8899343 1.35040006-.75150007 1.29038228s-.2175395.29008594.7712764.47013928c.87658896.18470838 1.76578848.30174674 2.65991472.35010372.1680987-.07002074.59328953-1.00029634.59328953-1.00029634v-1.22036154l-.14832238-.6001778-.36586188-.88026078s-.08899343-.66019558-1.13713827-1.02030227z"/>
      <path fill="rgb(252,199,170)" fill-rule="evenodd" d="M75.80776589 61.2781538c-.00068349.67590529-.09046832 1.34869983-.26698029 2.00059268-.03464654.10489196-.09208655.20059745-.1680987.28008298-.40541451.3801126-.7218356-.4101215-.87015798-1.06031412-.0819328-.85825842-.0819328-1.72250614 0-2.58076456l-.52407241.9002667-.15821055 2.00059268-.25709213 3.00088903c.0066718.28976298-.15011067.55815166-.40424282.69200464-.25413216.13385298-.5613903.10987736-.7922244-.06181795-.05844368-.12121754-.08565469-.25541133-.07910527-.39011557-.0692171-.75022226 0-2.30068159 0-2.30068159l-.55373689-.05001481c-.41102151-.20608981-.79611567-.4613222-1.14702642-.76022522-.46215772-.75681333-.81823314-1.57485935-1.058033-2.4307201-.19528213-.72380067-.13944284-1.49344417.15821054-2.18064603.3361974-1.09032301.85038166-2.2706727.88004614-2.61077345.02966447-.34010075-1.71065148-9.65285968-1.91830282-11.24333086-.12542145-1.46213952-.06560796-2.93449958.17798686-4.38129797.1186579-.89026374-.85038166-6.46191436-1.09758563-8.44250111-.1627941-1.10381916-.06797652-2.23086073.27686845-3.29097496h.34608556c.98881588 0 3.89593458.20005927 4.56832938.66019558.6723948.46013632.63284217 1.80053341.91959877 3.85114091.20439643 2.12561466.20439643 4.26627896 0 6.39189362-.10876975.89026374-.10876975 2.92086531-.09888159 7.00207438.00988816 4.08120907.22742766 7.81231441.68228296 9.00266706.4548553 1.19035264 1.65132253 4.11121796 1.65132253 4.11121796l-.26698029 1.89056008z"/>
      <path fill="rgb(32,162,106)" fill-rule="evenodd" d="M95.48520197 29.34869462c-.77614545.76623688-1.70722552 1.35321193-2.72913184 1.7205097-.89800407.19791074-1.81098994.31837847-2.72913184.36010669-.9181419.04172822-.52407241-1.93057194-.60317768-2.18064602-.07910528-.25007409 1.92819097-11.18331309 1.92819097-11.18331309s.89982245.49014521 1.81942122 2.74081198c.91959878 2.25066676 1.8490857 7.10210401 2.31382917 8.54253074z"/>
      <path fill="rgb(32,162,106)" fill-rule="evenodd" d="M69.52878503 19.20568973c-1.22017108 1.32039925-1.96252469 3.01978316-2.10617783 4.82142836-.20071088 2.0976946-.24038234 4.20797222-.1186579 6.3118699.12172443 2.1038977 2.41271075.10002964 3.87615826.3300978.8378209.14344466 1.69574114.11281356 2.5214805-.09002667.82573935-.20284023-.39552636-4.68138687-.70205928-5.9317573-.4514871-1.85459884-1.13604937-3.64302335-2.03696072-5.32157653-.13091588-.26662073-.39014253-.44455693-.68342415-.46911032-.29328161-.02455338-.577897.10785266-.75035888.34907476z"/>
      <path fill="rgb(32,162,106)" fill-rule="evenodd" d="M88.32617497 27.28808416l-3.8168293.4101215v1.07031708l3.8168293-.46013631v-1.02030227z"/>
      <path fill="rgb(32,162,106)" fill-rule="evenodd" d="M86.83306299 27.44813158v-2.40071122h.74161191v2.3206875l-.74161191.08002372z"/>
      <path fill="rgb(234,234,245)" fill-rule="evenodd" d="M86.41776032 26.60788265h-.82071718l.07910527.97028745.7416119-.0800237v-.89026375z"/>
      <path fill="rgb(34,34,34)" fill-rule="evenodd" d="M75.46168033 12.66375167s.86026982 3.4710283 1.60188173 3.34098977c.91959877-.16004741.57351321-.72021336 1.7798686-.51015113.88004613.16004741 1.13713826 1.52045044 1.97763176.95028152 1.16680274-.83024596 2.96644765-4.86144021 4.66721097-5.37159134-.16698322 1.8341721-.64883073 3.6248441-1.42389487 5.29156764-.62295401 1.4204208-2.48192787 3.90115572-5.18139523 3.7411083-3.18398715-.18005333-3.6289543-5.24155281-3.42130296-7.44220476z"/>
    </g>
  </g>
</svg>
