<svg xmlns="http://www.w3.org/2000/svg" width="115.775" height="154.376" viewBox="0 0 115.775 154.376">
  <g>
    <ellipse cx="58.275" cy="94.008" fill="rgb(213,227,220)" rx="57.5" ry="57.5"/>
    <g>
      <g opacity=".4">
        <ellipse cx="25.707" cy="74.924" fill="rgb(32,162,106)" rx="25.707" ry="14.874"/>
      </g>
      <path fill="rgb(252,175,117)" fill-rule="evenodd" d="M40.56820336 10.57108055l2.14639058-.59123968 2.42357346.94740816 1.11583881 1.45316741-.6112238 2.2296147-5.07457905-4.03895059z"/>
      <path fill="rgb(112,91,0)" fill-rule="evenodd" d="M32.76443894 20.38708392l1.18691135 2.75674405 9.13992809-.8690511.97369374-3.9392234s-5.55076504 0-5.64315934-.13534403c-.0923943-.13534402-1.87631494-6.15459137-1.87631494-6.15459137l-3.7810589 8.34146585z"/>
      <path fill="rgb(34,34,34)" fill-rule="evenodd" d="M29.22502667 70.19368446c-.34233525 1.1077004-.39616245 2.28477521-.15635958 3.41921743l1.83367142 1.30357665h.5827948c1.59913204 3.16989949 3.7028791 4.27402178 5.97009299 4.68717722 1.02922528.01849404 2.02001785-.39161827 2.73629262-1.13261577.22032486-1.04001197.2132176-1.89481633-.22032486-2.45756253-1.03765902-1.32494675-2.84290143-2.19399785-4.03692002-4.94361853l-.44775698-1.78084241-5.80662616-.96877827-.45486423 1.87344621z"/>
      <path fill="rgb(27,76,54)" fill-rule="evenodd" d="M21.3217607 32.76750036l8.52870428 18.57062466c-2.23878487 3.333737-1.6986336 11.53273545-1.3006274 18.63473499.83154867 2.67838698 6.82296342 3.7753859 7.6545121.8904212-.71072537-6.13322126.3198264-12.42315666.31271915-19.57501978.23477921-8.91527334-1.80806652-17.74272338-5.93455673-25.64413071l-9.2607514 7.12336964z"/>
      <path fill="rgb(34,34,34)" fill-rule="evenodd" d="M19.04743956 79.89571392c-.8055435.75076887-1.88856016 1.12809977-2.9850465 1.04001197-2.89975945-.41315544-5.1740806-2.00166687-6.2614904-5.77705278-1.01059222-.4415048-1.76268456-1.32399973-2.03978176-2.3934522l-.04264353-.12109729c.1210141-.7459329.36098947-1.46749147.71072536-2.1370109.3166506-.58655386.71644265-1.12401786 1.18691135-1.5956348l.48329324.2350712 4.74053813 2.28660166c.06489616.42294765.15508381.84160605.27007563 1.25371306.980801 3.37647721 3.31908742 3.989087 3.95163299 5.19293647.25890349.6478966.2537995 1.37174924-.01421451 2.0159136z"/>
      <path fill="rgb(27,76,54)" fill-rule="evenodd" d="M30.5967266 27.14716171L28.869664 29.43376337l-2.03978177 2.69263372-.64676008.85480436-1.78392064 2.35071198-.12793057.17096087c.4716955 3.37375957.59554094 6.78723207.36957719 10.1864186v.15671412C24.3558111 49.64848128 23.43565495 53.375979 21.91877 56.87298323c-2.80975402 4.75881786-4.93676127 9.89055798-6.31834842 15.24401104-.10955067.23057696-.27892689.42740048-.4904005.56986957-1.75305983.97748448-3.9094572.86402383-5.55076503-.29205816-.59201236-.4678348-.99781633-1.13223512-1.14426783-1.87344621-.09133326-.46941687-.10573651-.95061377-.04264352-1.42467393.76047613-6.8740517 2.999261-12.92179253 7.64029759-15.49332897-.56147304-3.56168483-1.03765902-7.07350606-1.32905642-10.39299631-.29475813-3.04661525-.36365056-6.11094673-.20611035-9.16777674-.29667853-1.50070866-.47255681-3.02288522-.52593677-4.5518332v-2.28660166c0-.29205815 0-.5841163.04975078-.87617446-.00381869-.03313223-.00381869-.06659495 0-.09972717.0866531-1.11446754.238536-2.22287256.45486423-3.31949026l3.75262988.4701424 9.80800992 1.22521958.90972846.11397391 1.09451705.13534403.08528704.36329185.36246993 1.51015436.12793057.42027881z"/>
      <path fill="rgb(255,255,255)" fill-rule="evenodd" d="M36.78714446 13.09987677c-.15220935 3.60002173-1.32580512 7.08184117-3.3830527 10.03682783-.7509092 1.10738187-1.60012566 2.1444878-2.53728952 3.0986658l-.09950155.12822065c-.0916718.12735208-.19137688.24869707-.29850465.36329185-1.61334656 1.88056959-4.17195784 2.94907503-7.65451209 3.14140601-3.75973714.27781142-6.75899814-.79069403-8.80588717-3.56168482.14925233-1.15398588.3056119-2.3008484.4904005-3.41209406.1990031-1.24658968.43354246-2.45756252.71072535-3.6115484.56380791-2.27887045 1.63539337-4.40011163 3.13429883-6.20445497 1.52805951-1.83782936 3.32619467-3.72552232 6.33967018-4.38087233 4.36385369-4.52333972 8.62109858-4.19566472 11.464-1.57426469.49308476 1.95201589.70843203 3.96408312.63965282 5.97650713z"/>
      <path fill="rgb(255,203,166)" fill-rule="evenodd" d="M29.33163547 6.71733757c-.09950155 0-1.7128481 1.48166089-1.7128481 1.48166089-2.36671545 1.3391935.52593676 7.91406367 3.98716924 6.2899354l3.21958587-2.24386144-5.493907-5.52773485z"/>
      <path fill="rgb(69,196,138)" fill-rule="evenodd" d="M26.908062 10.52121696c1.23501279 4.58514978 1.61806956 9.35886338 1.13005332 14.08290179-.21098746 1.96391358-.58904749 3.90616262-1.13005331 5.80554626-.04264353.5627462-.06396529 1.13261577-.0781798 1.71673208v1.175356c0 .66959674 0 1.3605636.04264353 2.05865382.1381849 3.2678632.47283302 6.52440297 1.00212275 9.75189304-.71072536.17808424-1.42145071.327675-2.13217607.43452555-.37668444.05698696-.71072536.10685054-1.08030254.1424674-.70800057.07918287-1.41978279.11960866-2.13217607.12109728h-.74626163c-.24875387 0-.4904005 0-.71072535-.04274022-.22032486-.04274022-.4904005-.04986359-.71072536-.08548044-.22032486-.03561685-.46907874-.0712337-.71072536-.11397391-.24164662-.04274022-.45486423-.08548044-.66097458-.13534403h-.04264352c-.21853475-.05088192-.4343915-.11269512-.64676007-.1852076-.22032487-.06411033-.43354247-.13534403-.64676008-.22082447-.2132176-.08548043-.3837917-.14959076-.57568754-.2350712h-.04264352c-.5707175-.25286961-1.11178743-.56821403-1.61334656-.94028479-.25007516-.17803166-.48755148-.3732038-.71072536-.5841163-.85698207-.7934109-1.5291335-1.76622762-1.96870923-2.84934786.86600517-3.57587543 1.27204505-7.24809634 1.2082331-10.92724904v-2.28660166c.12793057-4.7370408.80311966-8.83297835 2.40935896-11.9886311 1.56270389-3.2106994 4.4967284-5.53545965 7.9743385-6.31842888.9950155-3.83949623 3.92320397-4.52333972 7.1498971-3.68990547l-1.70574086 1.91618643c-1.7768134.71233697-2.92108122 1.48166089-2.87133044 3.39784732z"/>
      <path fill="rgb(32,162,106)" fill-rule="evenodd" d="M28.25133293 20.38708392s-3.77395164-11.63246263-8.78456541-9.1749001c-2.13217607 1.04713534-.56147303-1.67399187-.56147303-1.67399187.71072536-1.42467393 1.74838438-2.22249133 3.1982641-3.30524351.5919417-.25288347 1.21250554-.43229818 1.84788593-.53425273.64576725-.05383888 1.26019394-.30215337 1.76259889-.71233696 1.20158618-.8151432 2.61455336-1.26079146 4.06534904-1.28220654l3.28355114 2.70688047c-3.92320396-1.31070002-6.65949659-2.5359196-8.59266956 2.0657772-1.01633726 2.37208209 3.7810589 6.27568865 3.7810589 11.91027404z"/>
      <path fill="rgb(32,162,106)" fill-rule="evenodd" d="M33.0629436 12.6724746c.44775697 5.15019625-.28429015 9.72339956-2.2672139 13.69111645-.89551394 4.55895657.32693367 11.04834632 1.62756107 17.60184639 2.22457037 0 3.98716925-.6126098 4.9750775-2.2296147-1.96160198-5.52773484-3.39015995-10.82752186-3.55362678-15.57168604l3.55362678-14.7382518-4.33542468 1.2465897z"/>
      <g opacity=".2">
        <path fill="rgb(29,29,27)" fill-rule="evenodd" d="M36.78714446 13.09987677c-.1114984 2.87712532-.88240914 5.68989592-2.25299938 8.22036857-.23071721.44101215-.68652465.71730456-1.18335772.71730456-.49683307 0-.9526405-.2762924-1.18335772-.71730456-1.6062393-3.24825656-3.23380037-9.3601077-2.72918536-10.58532729l1.12294606-.983025 6.22595412 3.34798372z"/>
      </g>
      <path fill="rgb(255,203,166)" fill-rule="evenodd" d="M33.52491508 1.60988154c-2.8926522 0-4.54864229 1.42467393-4.66235834 4.42361255.08528704 3.1912696.2132176 6.09760441 2.77182889 7.8357066 1.24376937 1.01864186 2.06110353 1.55289459 3.55362678 1.47453752 1.76259889-.08548043 3.55362678-4.34525548 3.81659517-7.4154278.41932796-3.0986658-2.21746312-5.47787125-5.4796925-6.31842887z"/>
      <path fill="rgb(34,34,34)" fill-rule="evenodd" d="M39.23914694 8.1420115c-.66097458 1.54577121-4.008491 2.28660166-6.80874891 1.06138208l-.25586113 1.98742013-1.15137508-1.08987556-1.17269684 1.23946632-.42643521-.60548642c-1.70574086-2.50742611-1.89052945-7.17323323 1.77681339-8.88996531C35.88452326 0 40.72456294 4.8082745 39.23914694 8.1420115z"/>
      <path fill="rgb(255,203,166)" fill-rule="evenodd" d="M30.61804837 11.18369034c-.29422972-.22015786-.53681469-.50219451-.71072536-.82631088-.16693239-.32397-.16693239-.7089186 0-1.0328886.1774155-.33642345.56719212-.5004412.93105022-.39178533.2371744.09686.42110522.29159369.504615.53425273.07027139.23134473.1108722.47071453.12082331.71233696 0 .22794783 0 .44877229.03553627.67672012.03291986.15368769-.00065132.31415947-.0923943.44164891-.11142603.10170737-.26814092.13691278-.4122207.0926038-.13855848-.04178354-.2668666-.11214906-.37668444-.20657771z"/>
      <path fill="rgb(34,34,34)" fill-rule="evenodd" d="M31.45670429 10.20066533l-.5827948 3.0488022c.28429015 2.76386743 1.21534037 5.76280605 4.35674644 5.76280605 3.14140608 0 2.32407192-3.76113917 2.54439678-6.5250066l-.48329324.86192773c-.16346684-.17808424-.53304402-.24219457-1.0731953-.19945435-.98785924.1969868-1.88550862.70930733-2.55861128 1.46029078-1.0874098-.76220055-1.42145071-2.02303698-1.47830874-3.56168482l-.72493986-.847681z"/>
      <g opacity=".39">
        <path fill="rgb(29,29,27)" fill-rule="evenodd" d="M19.46676752 35.28204984c-2.19614135 2.27947829-2.7078636 5.69869572-2.4804315 9.45271152h.04264353c.19189584.08548043.37668444.1638375.57568754.2350712.1990031.0712337.42643521.15671413.64676007.22082446.21236857.07251248.42822532.13432568.64676007.1852076h.04264353l.62543831.13534403c.27718289.04274022.504615.08548044.71072536.11397391.20611035.02849348.46197148.06411033.71072535.08548044l.75336888.04274022h.74626163c.71239328-.00148862 1.4241755-.0419144 2.13217607-.12109729.35536267 0 .71072535-.08548043 1.05898078-.14246739l-1.06608804.29918153-7.29204216 2.09427067c.26296839 1.80221252.63965282 3.62579515 1.03055177 5.38526745-5.55787229 5.07896256-9.11149907 11.1694436-8.79877992 19.1262475-.58936145-.4690002-.99255772-1.1332569-1.13716057-1.87344622-.09133326-.46941687-.10573651-.95061377-.04264352-1.42467393.76047613-6.8740517 2.999261-12.92179253 7.64029759-15.49332897-.56147304-3.56168483-1.03765902-7.07350606-1.32905642-10.39299631-.85698207-.7934109-1.52913351-1.76622762-1.96870924-2.84934786.87076802-3.55614646 1.2863288-7.20892637 1.23666212-10.87026208v-2.28660166c.12793057-4.7370408.80311966-8.83297835 2.40935896-11.9886311.56858029 2.90633481 1.16558959 5.69869571 1.85499318 8.1633816.84576318 3.006062 1.84077868 5.51348811 3.0916553 7.12336965 1.29352015.66247338 4.33542468-6.91679192 6.21884688-5.94089028.20611035.09972717.504615-1.1041223.71072535-.99727175 1.30773466.66959675 2.01846002 2.27947829 2.34539368 3.60442504l-3.7668444 4.98635875-2.91397395 2.33646524-4.43492623.79069403z"/>
      </g>
      <path fill="rgb(230,230,230)" fill-rule="evenodd" d="M42.90648978 65.99089637l-.53304401-11.2620474c-.01396548-.25449349.10859338-.49712256.32150983-.63649118.21291646-.13936863.48384343-.1543034.71072536-.03917854.22688193.11512487.37525005.34281916.38921552.59731265l.53304402 11.2620474c0 .39178534-.52593677 2.98469189-.52593677 2.98469189s-.88129944-2.59290655-.89551395-2.90633482z"/>
      <path fill="rgb(34,34,34)" fill-rule="evenodd" d="M43.21210169 22.85889319l-3.77395165-1.3605636 1.78392065 33.30175308c.04813228.7785543.5760462 1.44421008 1.32194916 1.6668685.5747402.16034158 1.19133513.034966 1.65828931-.33718893.46695419-.37215494.72772271-.94602385.70131888-1.54338066l-1.69152635-31.7274884z"/>
      <path fill="rgb(230,230,230)" fill-rule="evenodd" d="M57.0925679 85.87934442l-4.02981277-17.58759965c-.0568779-.36726258.17752373-.71663197.53833913-.80238013.3608154-.08574817.7267689.12094618.84046806.47470513L58.4713751 85.5516694c.0923943.38466197 0 3.0274321 0 3.0274321s-1.30773466-2.38632883-1.3788072-2.6997571z"/>
      <path fill="rgb(53,53,53)" fill-rule="evenodd" d="M53.54604837 69.95861327c-.78015785-.08455139-1.42016587-.65728288-1.5920248-1.42467393L41.76222197 24.93179375c-.25173344-.66996439-.09404611-1.42540528.40453787-1.93804071.49858399-.51263543 1.24804568-.68990946 1.9227014-.45478645.67465573.235123 1.15269692.84019177 1.22638751 1.55226954l10.22733789 43.58077548c.11297521.47708582.03181575.97962173-.22555474 1.39662523-.25737048.41700349-.66977828.71416795-1.1461452.8258661-.20265045.06035485-.41479344.08210049-.62543832.06411033z"/>
      <path fill="rgb(230,230,230)" fill-rule="evenodd" d="M12.08233106 87.61744661s.36246994-2.84934786.51172226-3.23400982L19.12561935 67.486804c.1683684-.32285397.55264634-.4663606.89074762-.33264514.33810129.13371546.52106005.50155817.42409429.85265112l-6.51024427 16.8966328c-.14214507.36329185-1.84788593 2.71400383-1.84788593 2.71400383z"/>
      <path fill="rgb(53,53,53)" fill-rule="evenodd" d="M36.74450094 20.18762957L18.08796033 67.07364856c-.37289662.94812495.09167915 2.01970998 1.03765903 2.39345218.94597988.3737422 2.01514055-.09188702 2.38803719-1.04001195l19.18958463-48.23945922h-3.95874024z"/>
      <path fill="rgb(34,34,34)" fill-rule="evenodd" d="M47.9242108 19.88844804l-5.60762306.17808424-1.63466832-.2564413-5.14565158-1.33207013V20.27311c-.00177136.0888067.01772623.17674481.05685802.25644131l2.41646622 5.22142995c.33404091.71233696 1.89052945.9616549 2.80736516.43452555l6.60263856-3.81812613c.28607064-.1250569.47818725-.40013154.49750775-.71233696l.00710725-1.76659568z"/>
      <path fill="rgb(60,60,59)" fill-rule="evenodd" d="M38.01669933 23.95589211l-2.41646621-5.22142995c-.33404092-.71233696.80311965-1.3819337 2.05399628-1.18960273l9.02621203 1.42467393c1.24376937.19233098 1.66309733 1.09699892.71072536 1.62412828l-6.60263857 3.81812613c-.88129944.52000598-2.40935896.27068804-2.77182889-.45589566z"/>
      <path fill="rgb(17,17,17)" fill-rule="evenodd" d="M39.2320397 22.0824459h-1.33616368v.71233696c.03028763.2369631.1770748.44293114.39089895.54849946.59573492.29531546 1.29479452.29531546 1.89052944 0 .22030138-.0977644.37007744-.30792635.39089895-.54849946v-.71233697H39.2320397z"/>
      <ellipse cx="39.232" cy="22.054" fill="rgb(17,17,17)" rx="1.336" ry=".769"/>
      <path fill="rgb(0,0,0)" fill-rule="evenodd" d="M45.78492748 19.01227358H44.4487638v.76932392c.03028763.2369631.1770748.44293114.39089894.54849946.59573493.29531546 1.29479453.29531546 1.89052945 0 .22030138-.0977644.37007744-.30792635.39089895-.54849946v-.76932392h-1.33616367z"/>
      <ellipse cx="45.785" cy="19.012" fill="rgb(87,87,86)" rx="1.336" ry=".769"/>
      <path fill="rgb(0,0,0)" fill-rule="evenodd" d="M46.46011657 19.14049423v.89754458c-.00105429.1761953-.0273837.35132302-.0781798.52000598-.03277938.11513887-.07558746.22716897-.12793056.33479837-.04317075.08544762-.09061267.16865924-.14214507.24931794-.04264352.05698696-.07817979.11397392-.12793056.17096087-.08622126.11205962-.17876668.21908493-.27718289.32055164l-.12793056.10685054c-.13111314.11992672-.27130958.22948027-.41932796.327675l-.12082332.07835707-.15635957.0926038c-.08528705.0498636-.17057409.09972718-.26296839.1424674l-.1208233.05698696-.40511346.17808424-.12793056.04274022c-.14185282.05729887-.28655909.10722874-.43354247.14959076l-.12082331.03561685-.46907874.11397391h-.1208233c-.16346684 0-.32693367.05698696-.4904005.07835707h-.12082331c-.16346684 0-.33404092.03561684-.49750775.04274021h-1.3788072c-.16346683 0-.33404091 0-.49750775-.05698695h-.1208233l-.48329325-.0926038h-.12082331l-.46197148-.13534403h-.12082331c-.14698339-.04236202-.29168965-.09229189-.43354247-.14959076l-.12082331-.0498636-.3980062-.17808423-.12082331-.06411033-.15635958-.08548044-.27007564-.1852076-.1208233-.08548044c-.1327867-.09283752-.2586786-.19520783-.37668444-.3063049l-.12793057-.12109728c-.08870477-.0922483-.17177375-.18977832-.24875387-.29205816-.04264353-.06411032-.08528705-.12109728-.12082331-.1852076-.04447343-.07122077-.08481474-.14495116-.12082332-.22082447-.04959311-.10554274-.09001717-.2151735-.1208233-.327675-.04222954-.16041702-.06372717-.32560592-.06396529-.4915125v-.91179132h10.73195289z"/>
      <path fill="rgb(36,36,35)" fill-rule="evenodd" d="M44.88230628 16.94649638c2.0966398 1.21097284 2.0966398 3.17702286 0 4.3879957-2.38179924 1.21782062-5.20164032 1.21782062-7.58343956 0-2.0966398-1.21097284-2.0966398-3.17702286 0-4.3879957 2.38345982-1.21087583 5.19997974-1.21087583 7.58343956 0z"/>
      <path fill="rgb(255,255,255)" fill-rule="evenodd" d="M35.91295227 20.1805062v.71233696c-.04959311-.10554274-.09001717-.2151735-.1208233-.327675v-.34904511c.00363587-.03259972.03123736-.05719.06396528-.05698696.0213333-.00292194.04270192.00510946.05685802.0213701z"/>
      <path fill="rgb(255,255,255)" fill-rule="evenodd" d="M36.1545989 20.65777197v.61973315c-.04264353-.06411032-.08528705-.12109728-.12082331-.1852076v-.43452555c.00363587-.03259972.03123736-.05719.06396528-.05698696.02998515.00318924.053676.0269338.05685803.05698696z"/>
      <path fill="rgb(255,255,255)" fill-rule="evenodd" d="M36.53128334 21.08517414v.59123968l-.12793057-.12109728v-.4701424c0-.03540715.02863823-.06411032.06396528-.06411032s.06396528.02870317.06396529.06411032z"/>
      <path fill="rgb(255,255,255)" fill-rule="evenodd" d="M37.02879108 21.49832958v.58411631l-.1208233-.08548043v-.48438914c-.00205006-.01630464.00302244-.03270257.01391563-.0449852.01089319-.01228262.02654648-.01925408.0429424-.01912512.03044687-.0007611.05720667.02009927.06396527.04986358z"/>
      <path fill="rgb(255,255,255)" fill-rule="evenodd" d="M37.5760496 21.82600459v.5627462l-.1208233-.06411033v-.49863587c-.00012867-.0164331.00682702-.03212188.01908186-.04303977s.02861567-.0160019.04488342-.01394719c.03140182 0 .05685803.02551393.05685803.05698696z"/>
      <path fill="rgb(255,255,255)" fill-rule="evenodd" d="M38.09487912 22.0824459v.55562283l-.12082331-.0498636v-.50575924c.00363588-.03259971.03123736-.05719.06396528-.05698695.02998516.00318924.053676.0269338.05685803.05698695z"/>
      <path fill="rgb(255,255,255)" fill-rule="evenodd" d="M38.6492449 22.26053013v.53425273h-.12082331v-.50575925c0-.01700311.00673918-.03330982.018735-.04533284.01199581-.01202302.02826563-.01877748.04523028-.01877748.02413993.00016766.04612949.0139423.05685803.03561684z"/>
      <path fill="rgb(255,255,255)" fill-rule="evenodd" d="M39.2320397 22.4101209v.54137609h-.12082332v-.52000598c.00363588-.03259972.03123736-.05719.06396528-.05698696.02413994.00016766.0461295.0139423.05685803.03561685z"/>
      <path fill="rgb(255,255,255)" fill-rule="evenodd" d="M39.83615624 22.52409481v.53425273h-.1208233v-.52000599c0-.01700311.00673917-.03330983.01873499-.04533285.01199582-.01202301.02826564-.01877748.04523029-.01877748.02776804.00242947.05076948.02260137.05685802.0498636z"/>
      <path fill="rgb(255,255,255)" fill-rule="evenodd" d="M40.4544873 22.58820514v.53425272h-.1208233v-.52712935c.00363587-.03259972.03123735-.05719.06396528-.05698696.02882347-.00022648.05325587.02120035.05685802.04986359z"/>
      <path fill="rgb(255,255,255)" fill-rule="evenodd" d="M41.08703287 22.61669862v.52712935h-.12793056v-.52712935c0-.02290442.01219171-.04406897.03198264-.05552118.01979092-.0114522.04417435-.0114522.06396528 0 .01979093.01145221.03198264.03261676.03198264.05552118z"/>
      <path fill="rgb(255,255,255)" fill-rule="evenodd" d="M41.71247119 22.60245188v.52000598h-.12082332v-.52712935c-.00205005-.01630464.00302245-.03270257.01391564-.0449852.01089319-.01228263.02654648-.01925409.0429424-.01912513.01827102-.00011343.03571831.00760974.04794122.02122155.01222291.0136118.01805456.03181277.01602406.05001215z"/>
      <path fill="rgb(255,255,255)" fill-rule="evenodd" d="M42.33080225 22.53834155v.52000599h-.12082331v-.5413761c.00363587-.03259971.03123736-.05719.06396528-.05698696.01848167.00158528.03536658.0111335.04627672.02616896.01091013.01503544.01477092.03407724.0105813.05218811z"/>
      <path fill="rgb(255,255,255)" fill-rule="evenodd" d="M42.94202605 22.43861438v.52000598h-.1208233v-.52000598c0-.03147303.0254562-.05698696.05685802-.05698696.01626776-.0020547.03262859.0030293.04488342.01394719.01225484.01091789.01921053.02660667.01908186.04303977z"/>
      <path fill="rgb(255,255,255)" fill-rule="evenodd" d="M43.5319281 22.29614698v.49863588l-.12082331.03561685v-.53425273c-.00205006-.01630464.00302244-.03270257.01391563-.0449852.0108932-.01228262.02654648-.01925408.0429424-.01912512.01696464 0 .03323446.00675446.04523028.01877748.01199582.01202301.018735.02832973.018735.04533284z"/>
      <path fill="rgb(255,255,255)" fill-rule="evenodd" d="M44.06497212 22.0824459v.50575924l-.12793057.04274022v-.54849947c0-.03540715.02863824-.06411032.06396528-.06411032.03532705 0 .06396528.02870317.06396529.06411032z"/>
      <path fill="rgb(255,255,255)" fill-rule="evenodd" d="M44.6193379 21.88299154v.49863588l-.12082332.05698696v-.55562284c-.00205005-.01630464.00302245-.03270257.01391564-.0449852.01089319-.01228262.02654648-.01925408.0429424-.01912512.01696464 0 .03323446.00675446.04523028.01877748.01199581.01202302.018735.02832973.018735.04533284z"/>
      <path fill="rgb(255,255,255)" fill-rule="evenodd" d="M45.15948917 21.57668665v.50575924l-.12082332.07835707v-.56986957c-.00020258-.03280213.02433207-.0604662.05685803-.06411033.03044688-.0007611.05720668.02009928.06396529.04986359z"/>
      <path fill="rgb(255,255,255)" fill-rule="evenodd" d="M45.70674769 21.15640784v.47726577l-.12793056.10685054v-.58411631c0-.03540716.02863823-.06411033.06396528-.06411033s.06396528.02870317.06396528.06411033z"/>
      <path fill="rgb(255,255,255)" fill-rule="evenodd" d="M46.11186114 20.70051218v.44164892c-.04264352.05698696-.07817979.11397392-.12793056.17096087v-.61260979c0-.03540715.02863823-.06411032.06396528-.06411032s.06396528.02870317.06396528.06411032z"/>
      <path fill="rgb(255,255,255)" fill-rule="evenodd" d="M46.37482953 20.22324642v.35616848c-.03089861.10786806-.07133319.21275957-.12082332.31342826v-.66959674c0-.01700312.00673918-.03330983.018735-.04533285.01199582-.01202302.02826564-.01877748.04523029-.01877748.03252596.00364412.05706061.0313082.05685803.06411033z"/>
      <path fill="rgb(255,255,255)" fill-rule="evenodd" d="M46.46011657 19.66762358v.37041523c-.00105429.1761953-.0273837.35132302-.0781798.52000598v-.83343425c.00363589-.03259971.03123737-.05719.0639653-.05698696h.0142145z"/>
      <path fill="rgb(34,34,34)" fill-rule="evenodd" d="M44.35636951 12.1097284l-.2913974.56986956-1.6986336-.983025c-.09671847-.06035256-.14947221-.1716649-.13503781-.2849348.01481877-.31816831.1814464-.60976515.44775697-.78357065.0985453-.05877222.22128111-.05877222.31982641 0l1.6986336.983025-.34114817.49863588z"/>
      <path fill="rgb(87,87,86)" fill-rule="evenodd" d="M44.81123374 11.8746572c0-.29205816-.20611035-.40603207-.45486423-.26356468-.26374354.17622246-.42955928.4663985-.44775697.78357066 0 .28493478.20611035.3989087.44775697.2564413.2661994-.1715806.43507865-.45985527.45486423-.77644728z"/>
      <path fill="rgb(60,60,59)" fill-rule="evenodd" d="M35.96270305 17.8084241l.4904005.85480437 1.13716057-.66247338c.14537253-.10059424.22440256-.27266948.20611035-.44877229-.03070162-.49226061-.2949967-.93993211-.71072536-1.20384947-.14208927-.10520122-.33012625-.12432069-.4904005-.04986359l-1.13716056.65535001.504615.85480436z"/>
      <path fill="rgb(87,87,86)" fill-rule="evenodd" d="M35.2661922 17.39526867c0-.44164892.31271916-.61973316.71072536-.3989087.41572865.26391736.68002373.71158886.71072535 1.20384947 0 .44877229-.31271915.62685653-.71072535.40603207-.41768687-.26536137-.68225255-.71614288-.71072536-1.21097284z"/>
      <path fill="rgb(34,34,34)" fill-rule="evenodd" d="M35.5718041 17.57335291c0-.24219457.17768134-.34192174.39089895-.22082446.2269621.14926274.36947316.39790006.3837917.66959675 0 .24931793-.1705741.34904511-.3837917.22794783-.22907303-.15155731-.37382405-.40214874-.39089895-.67672012z"/>
      <path fill="rgb(17,17,17)" fill-rule="evenodd" d="M41.09414013 17.21006106h-4.13642158v1.6668685c.07055203.73956066.53189873 1.38419067 1.2082331 1.6882386 1.83036833.92569572 3.99047235.92569572 5.82084068 0 .67829853-.30163375 1.1405923-.94758708 1.2082331-1.6882386v-1.6668685h-4.1008853z"/>
      <ellipse cx="41.094" cy="17.21" fill="rgb(17,17,17)" rx="4.115" ry="2.386"/>
      <path fill="rgb(255,93,23)" fill-rule="evenodd" d="M35.23776319 11.98150774l3.43280347-2.00166687 2.44489523.39178533-3.43991073 2.00879024-2.43778797-.3989087z"/>
      <path fill="rgb(29,29,27)" fill-rule="evenodd" d="M47.46223932 18.62048825l-3.43991073 2.03728372c.21012344-.15092023.34691467-.38373395.37668444-.64110327l3.43280348-2.00166687c-.03653663.24357627-.169843.46197504-.36957719.60548642z"/>
      <path fill="rgb(249,115,57)" fill-rule="evenodd" d="M37.67555116 12.38041644l3.43991073-2.00879024 4.75475263 2.75674405-3.43991072 2.00166687-4.75475264-2.74962068z"/>
      <path fill="rgb(255,93,23)" fill-rule="evenodd" d="M44.40612029 16.74704203l3.43991072-2.00166687-.00710725 3.23400982-3.43991073 2.00166687.00710726-3.23400982z"/>
      <path fill="rgb(255,93,23)" fill-rule="evenodd" d="M42.4303038 15.13003712l3.43991072-2.00166687 1.9758165 1.61700491-3.43991073 2.00166687-1.9758165-1.6170049z"/>
      <path fill="rgb(60,60,59)" fill-rule="evenodd" d="M44.39901303 18.77720238v1.20384947c-.12793056.59123968-.44775697.82631088-.98790824.66959675l-6.8584997-3.9677169-1.32194916-1.72385545V13.470292l9.1683571 5.30691038z"/>
      <path fill="rgb(232,70,0)" fill-rule="evenodd" d="M44.40612029 16.74704203l-.00710726 2.03016035-9.1683571-5.30691038.00710726-1.48878426 2.43778797.3989087 4.75475264 2.74962068 1.97581649 1.61700491z"/>
      <path fill="rgb(34,34,34)" fill-rule="evenodd" d="M47.17084193 18.13609911l-.97369374 1.69536198-.97369374-.5627462c-.28805544-.20290443-.44324944-.54674276-.40511346-.89754458.0529092-.97622502.56445944-1.86950363 1.3788072-2.40769894.28553132-.20806364.66152513-.24356366.98080099-.0926038l.980801.5627462-.98790825 1.70248534z"/>
      <path fill="rgb(87,87,86)" fill-rule="evenodd" d="M48.55675637 17.33115834c0-.88329783-.62543831-1.23946632-1.38591444-.7978174-.83208786.52387018-1.3612689 1.41756214-1.42145072 2.40057557 0 .88329784.61833106 1.24658969 1.42145072.7978174.8159591-.53434916 1.33030666-1.42526286 1.38591444-2.40057557z"/>
      <path fill="rgb(34,34,34)" fill-rule="evenodd" d="M48.15164292 18.69884531l-.81733416 1.42467393-.81022691-.4701424c-.24001658-.1748918-.36543973-.4672985-.32693366-.76220055.04351468-.80932065.46828064-1.54971917 1.14426782-1.9945435.23916898-.1699038.5503662-.199738.81733416-.07835706l.8102269.4701424-.81733415 1.41042718z"/>
      <path fill="rgb(87,87,86)" fill-rule="evenodd" d="M49.29591074 18.03637194c0-.71233697-.51172226-1.0328886-1.14426782-.66959675-.67955174.44242768-1.10738277 1.18356548-1.15137508 1.9945435 0 .71233696.51172226 1.0328886 1.15137508.66959675.67598717-.44482433 1.10075314-1.18522285 1.14426782-1.9945435z"/>
      <path fill="rgb(60,60,59)" fill-rule="evenodd" d="M48.47146933 17.8796578c-.1133243-.01012585-.22657984.02014411-.31982641.08548044-.37503398.24632478-.61211985.6555652-.63965282 1.1041223-.00628255.11545874.02353162.23000553.08528704.327675.14433119.15915197.38744678.17789557.55436578.04274022.3742658-.24936487.60882592-.66143623.63254556-1.11124567 0-.27068804-.1208233-.43452555-.31271915-.44877229z"/>
      <path fill="rgb(34,34,34)" fill-rule="evenodd" d="M48.47146933 17.8796578c-.1133243-.01012585-.22657984.02014411-.31982641.08548044-.37503398.24632478-.61211985.6555652-.63965282 1.1041223-.00628255.11545874.02353162.23000553.08528704.327675.11482675.00286115.2281342-.02676434.32693366-.08548044.37697097-.2477949.6143156-.66012513.63965282-1.11124566.0051691-.11412177-.02730122-.22677386-.0923943-.32055164z"/>
      <path fill="rgb(255,255,255)" fill-rule="evenodd" d="M48.05924862 19.03364369c-.02258754.03579874-.05148752.06717805-.08528704.0926038-.04008885.03618212-.08921156.06079917-.14214507.0712337-.0549844.01004474-.11127802-.00876235-.14925233-.04986359-.02722068-.02381464-.04489767-.05671777-.04975077-.0926038-.02165572-.1056261-.0012506-.21555233.05685803-.3063049h.04264352c.04264352 0 0 0 0 .04274022-.00267572.02128597-.00267572.04282435 0 .06411033 0 .05698695.06396528.12109728.1208233.12822065h.0923943c.02302773-.01781884.05515207-.01781884.0781798 0 .01810759.01109741.03093519.02909678.03553626.04986359z"/>
      <path fill="rgb(255,255,255)" fill-rule="evenodd" d="M48.32932426 17.99363172c.02690421-.01774652.060055-.02322591.09121997-.01507748.03116497.00814842.05742062.0291603.07224686.0578177.03034298.0554663.03034298.12261793 0 .17808424-.03034299.0554663 0-.04986359-.05685803-.07835707-.0295405-.02616652-.06721235-.04126943-.1066088-.04274022-.03939646-.00147079-.04264352 0-.04264352-.05698695 0-.05698696.04264352-.02849348.04264352-.04274022z"/>
      <path fill="rgb(34,34,34)" fill-rule="evenodd" d="M37.17804341 15.35798495l.4122207.71233697.9665865-.55562284c.1214831-.08509771.18690288-.22989397.17057408-.37753859-.02136863-.41498343-.24097999-.79420796-.58990205-1.01864186-.11794557-.09208413-.27796529-.10867543-.4122207-.04274022l-.95947924.55562284.41222071.7265837z"/>
      <path fill="rgb(87,87,86)" fill-rule="evenodd" d="M36.58814136 15.0160632c0-.37041521.26296839-.52712935.58990205-.33479837.34115506.21860461.55970628.585442.58990205.99014839 0 .37753859-.26296839.52712935-.58990205.34192174-.34060652-.22245272-.55861905-.59101854-.58990205-.99727175z"/>
      <path fill="rgb(60,60,59)" fill-rule="evenodd" d="M36.85110975 15.17277734c0-.21370109.14925232-.29918153.32693366-.19233098.19514067.12519088.31714766.33785809.32693366.56986957 0 .20657772-.14925232.29205816-.32693366.18520761-.19315322-.12375738-.31488668-.33329543-.32693366-.5627462z"/>
      <path fill="rgb(252,175,117)" fill-rule="evenodd" d="M32.02528457 23.72082091c.8477918.24557661 1.7561373.16949818 2.55150403-.21370109l1.25798389-.71233696c.37668443.21370109.9026212-.14959076 1.4214507-.52712936.30561191-.36329185.31271917-.67672011 0-.92603805.10660881-.44164892.0781798-.81206414-.29139739-.98302501.0710771-.17925217.0665866-.37973133-.0124449-.55560598-.07903152-.17587465-.22584703-.31210788-.40688306-.37755544.06042678-.40962381-.17830884-.8044308-.56858028-.9402848l-2.55861129.34904512c-1.05579372.57973579-1.99553357 1.35013777-2.77182889 2.27235491l-1.26509113 1.9019397.80311965 1.08987555 1.84077867-.37753859z"/>
      <path fill="rgb(32,162,106)" fill-rule="evenodd" d="M17.49095103 13.8905708c-1.63466832 4.836768-1.5920248 17.13882737 1.15848233 17.8582877 3.31908742 1.22521958 9.1541426-4.11730765 13.37585121-8.02803759-.71072535-1.08275218-1.67731184-2.10139404-1.15137507-3.02030873l-8.0525183 4.23128157 1.42145072-5.76992941c-.41932796-5.39239082-4.67657285-8.10639465-6.7518909-5.27129354z"/>
    </g>
    <g>
      <g opacity=".4">
        <ellipse cx="82.328" cy="140.993" fill="rgb(32,162,106)" rx="22.548" ry="13.383"/>
      </g>
      <path fill="rgb(60,60,59)" fill-rule="evenodd" d="M61.36327546 74.40525634v68.0490882l.97937733.57527595 3.10749803-2.99749043.9720136-67.47381227-.9720136-.57527594-4.08687536 2.42221449z"/>
      <path fill="rgb(255,255,255)" fill-rule="evenodd" d="M62.33528906 74.9881017l.00736373 68.04151879 4.07951163-2.42221449V72.5583178l-4.08687536 2.4297839z"/>
      <path fill="rgb(230,51,42)" fill-rule="evenodd" d="M62.76974968 142.26510904l3.22531785-1.91506333V73.32282924l-3.22531785 1.91506333v67.02721647z"/>
      <path fill="rgb(255,255,255)" fill-rule="evenodd" d="M64.01422164 140.22893499l2.0397558-1.21110725v.4465958l-2.0397558 1.21110724v-.4465958z"/>
      <path fill="rgb(255,255,255)" fill-rule="evenodd" d="M64.01422164 137.1330421l2.0397558-1.21110725v.43902638l-2.0397558 1.21110724v-.43902637z"/>
      <path fill="rgb(255,255,255)" fill-rule="evenodd" d="M64.01422164 134.0371492l2.0397558-1.21867666v.4465958l-2.0397558 1.21110724v-.43902637z"/>
      <path fill="rgb(255,255,255)" fill-rule="evenodd" d="M64.01422164 130.9336869l2.0397558-1.21110724v.43902637l-2.0397558 1.21110724v-.43902637z"/>
      <path fill="rgb(255,255,255)" fill-rule="evenodd" d="M64.01422164 127.837794l2.0397558-1.21110723v.43902637l-2.0397558 1.21110724v-.43902637z"/>
      <path fill="rgb(255,255,255)" fill-rule="evenodd" d="M64.01422164 124.7343317l2.0397558-1.21110724v.4465958l-2.0397558 1.21110723v-.4465958z"/>
      <path fill="rgb(255,255,255)" fill-rule="evenodd" d="M64.01422164 121.6384388l2.0397558-1.21110723v.43902637l-2.0397558 1.21110724v-.43902637z"/>
      <path fill="rgb(255,255,255)" fill-rule="evenodd" d="M64.01422164 118.54254592l2.0397558-1.21867666v.4465958l-2.0397558 1.21110724v-.43902638z"/>
      <path fill="rgb(255,255,255)" fill-rule="evenodd" d="M64.01422164 115.43908361l2.0397558-1.21110724v.43902637l-2.0397558 1.21110725v-.43902638z"/>
      <path fill="rgb(255,255,255)" fill-rule="evenodd" d="M64.01422164 112.34319072l2.0397558-1.21110724v.43902637l-2.0397558 1.21110725v-.43902638z"/>
      <path fill="rgb(255,255,255)" fill-rule="evenodd" d="M64.01422164 109.23972841l2.0397558-1.21110724v.43902637l-2.0397558 1.21867667v-.4465958z"/>
      <path fill="rgb(255,255,255)" fill-rule="evenodd" d="M64.01422164 106.14383552l2.0397558-1.21110724v.43902637l-2.0397558 1.21110725v-.43902638z"/>
      <path fill="rgb(255,255,255)" fill-rule="evenodd" d="M64.01422164 103.04037321l2.0397558-1.21110724v.4465958l-2.0397558 1.21110724v-.4465958z"/>
      <path fill="rgb(255,255,255)" fill-rule="evenodd" d="M64.01422164 99.94448032l2.0397558-1.21110724v.43902638l-2.0397558 1.21110724v-.43902638z"/>
      <path fill="rgb(255,255,255)" fill-rule="evenodd" d="M64.01422164 96.84858743l2.0397558-1.21110724v.43902638l-2.0397558 1.21110724v-.43902638z"/>
      <path fill="rgb(255,255,255)" fill-rule="evenodd" d="M64.01422164 93.74512512l2.0397558-1.21110724v.43902638l-2.0397558 1.21110724v-.43902638z"/>
      <path fill="rgb(255,255,255)" fill-rule="evenodd" d="M64.01422164 90.64923223l2.0397558-1.21110724v.43902638l-2.0397558 1.21110724v-.43902638z"/>
      <path fill="rgb(255,255,255)" fill-rule="evenodd" d="M64.0068579 87.54576992l2.04711955-1.21110724v.4465958l-2.04711955 1.21110724v-.4465958z"/>
      <path fill="rgb(255,255,255)" fill-rule="evenodd" d="M64.0068579 84.44987704l2.04711955-1.21110725v.43902638L64.0068579 84.8889034v-.43902637z"/>
      <path fill="rgb(255,255,255)" fill-rule="evenodd" d="M64.0068579 81.35398415l2.04711955-1.21110725v.43902638l-2.04711955 1.21110724v-.43902637z"/>
      <path fill="rgb(255,255,255)" fill-rule="evenodd" d="M64.0068579 78.25052184l2.04711955-1.21110725v.43902638L64.0068579 78.6895482v-.43902637z"/>
      <path fill="rgb(255,255,255)" fill-rule="evenodd" d="M64.0068579 75.15462895l2.04711955-1.21110725v.43902638l-2.04711955 1.21110724v-.43902637z"/>
      <path fill="rgb(255,255,255)" fill-rule="evenodd" d="M64.80214175 138.2911634l1.2518357-.74180319v.43902638l-1.2518357.74180318v-.43902637z"/>
      <path fill="rgb(255,255,255)" fill-rule="evenodd" d="M64.80214175 135.1952705l1.2518357-.7493726v.4465958l-1.2518357.74180318v-.43902637z"/>
      <path fill="rgb(255,255,255)" fill-rule="evenodd" d="M64.80214175 132.0918082l1.2518357-.74180319v.43902638l-1.2518357.7493726v-.4465958z"/>
      <path fill="rgb(255,255,255)" fill-rule="evenodd" d="M64.80214175 128.9959153l1.2518357-.74180318v.43902638l-1.2518357.74180318v-.43902637z"/>
      <path fill="rgb(255,255,255)" fill-rule="evenodd" d="M64.80214175 125.892453l1.2518357-.74180319v.43902638l-1.2518357.7493726v-.44659579z"/>
      <path fill="rgb(255,255,255)" fill-rule="evenodd" d="M64.80214175 122.79656011l1.2518357-.74180319v.43902638l-1.2518357.74180319v-.43902638z"/>
      <path fill="rgb(255,255,255)" fill-rule="evenodd" d="M64.80214175 119.70066722l1.2518357-.7493726v.44659579l-1.2518357.74180319v-.43902638z"/>
      <path fill="rgb(255,255,255)" fill-rule="evenodd" d="M64.80214175 116.59720491l1.2518357-.74180318v.43902637l-1.2518357.74180319v-.43902638z"/>
      <path fill="rgb(255,255,255)" fill-rule="evenodd" d="M64.80214175 113.50131202l1.2518357-.74180318v.43902637l-1.2518357.74180319v-.43902638z"/>
      <path fill="rgb(255,255,255)" fill-rule="evenodd" d="M64.80214175 110.39784971l1.2518357-.74180318v.43902637l-1.2518357.7493726v-.44659579z"/>
      <path fill="rgb(255,255,255)" fill-rule="evenodd" d="M64.80214175 107.30195682l1.2518357-.74180318v.43902637l-1.2518357.74180319v-.43902638z"/>
      <path fill="rgb(255,255,255)" fill-rule="evenodd" d="M64.80214175 104.20606393l1.2518357-.7493726v.43902637l-1.2518357.7493726v-.43902637z"/>
      <path fill="rgb(255,255,255)" fill-rule="evenodd" d="M64.80214175 101.10260162l1.2518357-.74180318v.43902637l-1.2518357.74180319v-.43902638z"/>
      <path fill="rgb(255,255,255)" fill-rule="evenodd" d="M64.80214175 98.00670873l1.2518357-.7493726v.4465958l-1.2518357.74180318v-.43902638z"/>
      <path fill="rgb(255,255,255)" fill-rule="evenodd" d="M64.80214175 94.90324642l1.2518357-.74180318v.43902637l-1.2518357.74937261v-.4465958z"/>
      <path fill="rgb(255,255,255)" fill-rule="evenodd" d="M64.80214175 91.80735354l1.2518357-.7418032v.43902638l-1.2518357.7418032v-.43902638z"/>
      <path fill="rgb(255,255,255)" fill-rule="evenodd" d="M64.80214175 88.71146065l1.2518357-.74937261v.43902637l-1.2518357.74937261v-.43902637z"/>
      <path fill="rgb(255,255,255)" fill-rule="evenodd" d="M64.80214175 85.60799834l1.2518357-.74180319v.43902638l-1.2518357.74180318v-.43902637z"/>
      <path fill="rgb(255,255,255)" fill-rule="evenodd" d="M64.80214175 82.51210545l1.2518357-.74937261v.4465958l-1.2518357.74180318v-.43902637z"/>
      <path fill="rgb(255,255,255)" fill-rule="evenodd" d="M64.80214175 79.40864314l1.2518357-.74180319v.43902638l-1.2518357.74180318v-.43902637z"/>
      <path fill="rgb(255,255,255)" fill-rule="evenodd" d="M64.80214175 76.31275025l1.2518357-.74180319v.43902638l-1.2518357.74180318v-.43902637z"/>
      <path fill="rgb(60,60,59)" fill-rule="evenodd" d="M61.36327546 15.5303055v68.0490882l.97937733.57527594 3.10749803-2.99749042.9720136-67.47381227-.9720136-.57527594-4.08687536 2.42221449z"/>
      <path fill="rgb(255,255,255)" fill-rule="evenodd" d="M66.42216442 13.68336695l-4.08687536 2.42978391.00736373 68.3442956 4.07951163-3.56519695V13.68336695z"/>
      <path fill="rgb(230,51,42)" fill-rule="evenodd" d="M62.76974968 84.30605805l3.22531785-2.82339376V14.4478784l-3.22531785 1.91506333v67.94311632z"/>
      <path fill="rgb(255,255,255)" fill-rule="evenodd" d="M64.01422164 81.36155357l2.0397558-1.21867667v.4465958l-2.0397558 1.21110724v-.43902637z"/>
      <path fill="rgb(255,255,255)" fill-rule="evenodd" d="M64.01422164 78.25809126l2.0397558-1.21110725v.43902638l-2.0397558 1.21110724v-.43902637z"/>
      <path fill="rgb(255,255,255)" fill-rule="evenodd" d="M64.01422164 75.16219837l2.0397558-1.21110725v.43902638l-2.0397558 1.21110724v-.43902637z"/>
      <path fill="rgb(255,255,255)" fill-rule="evenodd" d="M64.01422164 72.05873606l2.0397558-1.21110725v.43902638l-2.0397558 1.21867666v-.4465958z"/>
      <path fill="rgb(255,255,255)" fill-rule="evenodd" d="M64.01422164 68.96284317l2.0397558-1.21110724v.43902637l-2.0397558 1.21110724v-.43902637z"/>
      <path fill="rgb(255,255,255)" fill-rule="evenodd" d="M64.01422164 65.85938086l2.0397558-1.21110724v.4465958l-2.0397558 1.21110723v-.4465958z"/>
      <path fill="rgb(255,255,255)" fill-rule="evenodd" d="M64.01422164 62.76348797l2.0397558-1.21110724v.43902637l-2.0397558 1.21110724v-.43902637z"/>
      <path fill="rgb(255,255,255)" fill-rule="evenodd" d="M64.01422164 59.66759508l2.0397558-1.21110724v.43902637l-2.0397558 1.21110724v-.43902637z"/>
      <path fill="rgb(255,255,255)" fill-rule="evenodd" d="M64.01422164 56.56413277l2.0397558-1.21110724v.43902637l-2.0397558 1.21867667v-.4465958z"/>
      <path fill="rgb(255,255,255)" fill-rule="evenodd" d="M64.01422164 53.46823988l2.0397558-1.21110724v.43902637l-2.0397558 1.21110725v-.43902638z"/>
      <path fill="rgb(255,255,255)" fill-rule="evenodd" d="M64.01422164 50.372347l2.0397558-1.21867667v.4465958l-2.0397558 1.21110724v-.43902638z"/>
      <path fill="rgb(255,255,255)" fill-rule="evenodd" d="M64.01422164 47.26888468l2.0397558-1.21110724v.43902637l-2.0397558 1.21110725v-.43902638z"/>
      <path fill="rgb(255,255,255)" fill-rule="evenodd" d="M64.01422164 44.1729918l2.0397558-1.21110725v.43902637l-2.0397558 1.21110725v-.43902638z"/>
      <path fill="rgb(255,255,255)" fill-rule="evenodd" d="M64.01422164 41.06952948l2.0397558-1.21110724v.43902637l-2.0397558 1.21110725v-.43902638z"/>
      <path fill="rgb(255,255,255)" fill-rule="evenodd" d="M64.01422164 37.9736366l2.0397558-1.21110725v.43902638l-2.0397558 1.21110724v-.43902638z"/>
      <path fill="rgb(255,255,255)" fill-rule="evenodd" d="M64.01422164 34.87017428l2.0397558-1.21110724v.43902638l-2.0397558 1.21867666v-.4465958z"/>
      <path fill="rgb(255,255,255)" fill-rule="evenodd" d="M64.01422164 31.7742814l2.0397558-1.21110725v.43902638l-2.0397558 1.21110724v-.43902638z"/>
      <path fill="rgb(255,255,255)" fill-rule="evenodd" d="M64.0068579 28.6783885l2.04711955-1.21867666v.4465958l-2.04711955 1.21110724v-.43902638z"/>
      <path fill="rgb(255,255,255)" fill-rule="evenodd" d="M64.0068579 25.5749262l2.04711955-1.21110725v.43902638l-2.04711955 1.21110724v-.43902638z"/>
      <path fill="rgb(255,255,255)" fill-rule="evenodd" d="M64.0068579 22.4790333l2.04711955-1.21110724v.43902638l-2.04711955 1.21110724v-.43902637z"/>
      <path fill="rgb(255,255,255)" fill-rule="evenodd" d="M64.0068579 19.375571l2.04711955-1.21110725v.43902638l-2.04711955 1.21867666v-.4465958z"/>
      <path fill="rgb(255,255,255)" fill-rule="evenodd" d="M64.0068579 16.2796781l2.04711955-1.21110724v.43902638l-2.04711955 1.21110724v-.43902637z"/>
      <path fill="rgb(255,255,255)" fill-rule="evenodd" d="M64.80214175 79.41621256l1.2518357-.74180319v.43902638l-1.2518357.7493726v-.4465958z"/>
      <path fill="rgb(255,255,255)" fill-rule="evenodd" d="M64.80214175 76.32031967l1.2518357-.74180319v.43902638l-1.2518357.74180318v-.43902637z"/>
      <path fill="rgb(255,255,255)" fill-rule="evenodd" d="M64.80214175 73.21685736l1.2518357-.74180319v.43902638l-1.2518357.7493726v-.4465958z"/>
      <path fill="rgb(255,255,255)" fill-rule="evenodd" d="M64.80214175 70.12096447l1.2518357-.74180319v.43902638l-1.2518357.74180318v-.43902637z"/>
      <path fill="rgb(255,255,255)" fill-rule="evenodd" d="M64.80214175 67.02507158l1.2518357-.7493726v.44659579l-1.2518357.74180318v-.43902637z"/>
      <path fill="rgb(255,255,255)" fill-rule="evenodd" d="M64.80214175 63.92160927l1.2518357-.74180319v.43902638l-1.2518357.74180319v-.43902638z"/>
      <path fill="rgb(255,255,255)" fill-rule="evenodd" d="M64.80214175 60.82571638l1.2518357-.7493726v.44659579l-1.2518357.74180319v-.43902638z"/>
      <path fill="rgb(255,255,255)" fill-rule="evenodd" d="M64.80214175 57.72225407l1.2518357-.74180319v.43902638l-1.2518357.7493726v-.44659579z"/>
      <path fill="rgb(255,255,255)" fill-rule="evenodd" d="M64.80214175 54.62636118l1.2518357-.74180318v.43902637l-1.2518357.74180319v-.43902638z"/>
      <path fill="rgb(255,255,255)" fill-rule="evenodd" d="M64.80214175 51.5304683l1.2518357-.74937261v.43902637l-1.2518357.7493726v-.43902637z"/>
      <path fill="rgb(255,255,255)" fill-rule="evenodd" d="M64.80214175 48.42700598l1.2518357-.74180318v.43902637l-1.2518357.74180319v-.43902638z"/>
      <path fill="rgb(255,255,255)" fill-rule="evenodd" d="M64.80214175 45.3311131l1.2518357-.7418032v.43902638l-1.2518357.74180319v-.43902638z"/>
      <path fill="rgb(255,255,255)" fill-rule="evenodd" d="M64.80214175 42.22765078l1.2518357-.74180318v.43902637l-1.2518357.7493726v-.44659579z"/>
      <path fill="rgb(255,255,255)" fill-rule="evenodd" d="M64.80214175 39.1317579l1.2518357-.7418032v.43902638l-1.2518357.74180319v-.43902638z"/>
      <path fill="rgb(255,255,255)" fill-rule="evenodd" d="M64.80214175 36.035865l1.2518357-.7493726v.4465958l-1.2518357.74180318V36.035865z"/>
      <path fill="rgb(255,255,255)" fill-rule="evenodd" d="M64.80214175 32.9324027l1.2518357-.7418032v.43902638l-1.2518357.74180319v-.43902638z"/>
      <path fill="rgb(255,255,255)" fill-rule="evenodd" d="M64.80214175 29.8365098l1.2518357-.7493726v.4465958l-1.2518357.74180318v-.43902637z"/>
      <path fill="rgb(255,255,255)" fill-rule="evenodd" d="M64.80214175 26.7330475l1.2518357-.7418032v.43902638l-1.2518357.74937261v-.4465958z"/>
      <path fill="rgb(255,255,255)" fill-rule="evenodd" d="M64.80214175 23.6371546l1.2518357-.74180318v.43902638l-1.2518357.74180318v-.43902637z"/>
      <path fill="rgb(255,255,255)" fill-rule="evenodd" d="M64.80214175 20.5336923l1.2518357-.74180319v.43902638l-1.2518357.7493726v-.4465958z"/>
      <path fill="rgb(255,255,255)" fill-rule="evenodd" d="M64.80214175 17.4377994l1.2518357-.74180318v.43902638l-1.2518357.74180318v-.43902637z"/>
      <path fill="rgb(252,175,117)" fill-rule="evenodd" d="M103.40286365 91.5727015l-.18409349 2.27082609-.43446062 1.3473568-.96464986 1.7939526c-.28718584.49958175-.73637394.40117928-.73637394-.06055535l-.46391558.84777507c-.42709689.66610898-1.03828726.10597188-.73637394-.59041478l.73637394-1.77881377-1.19292579 2.23297898c-.46391558.65097014-1.07510595.23465203-.81001133-.64340072l.94255864-2.47520043-1.03828725 1.93777159c-.3166408.43902637-1.03092352.16652725-.83210255-.64340072l1.03828725-3.22457304c.0851591-.40828597.04661133-.83358872-.11045609-1.21867666-.2061847-.42388754-1.80411615.46173464-1.80411615.46173464l-1.47274788.8629139c-.53755297.08326363-.73637394-.06055536-.6921915-.42388753l1.09719717-1.1959684 1.24447196-1.1202742.54491671-.49201232c.7262037-.54028438 1.5459321-.93333798 2.41530652-1.1581213l.06627366-.23465203.1325473-.46930405 1.20765327.1892355 1.7967524.28763797-.04418243 1.43062043.10309235.65853957.19145723 1.40791217z"/>
      <g opacity=".3">
        <path fill="rgb(252,175,117)" fill-rule="evenodd" d="M98.44706704 91.17152223l2.43739773-.58284536 1.30338188 2.27082608-1.13401587 4.07991753c.04418244-1.08999652.08836487-2.3919368-.60382663-2.64172768l-1.215017-.19680492.99410482-.68881725-.14727479-1.0067329-2.12812068-.3406239.49337054-.8931916z"/>
      </g>
      <path fill="rgb(32,162,106)" fill-rule="evenodd" d="M97.9536965 61.13606261l.73637394 8.91677708.58909915 7.41046244c.53018923 4.29943071 1.13401586 7.75108635.73637394 9.99920417-.0234033.21042284-.0084196.42348687.04418243.62826188.24712359.61525054.7209628 1.1050459 1.31810935 1.36249565.57958184.31384638 1.19574571.55040787 1.83357111.70395609 1.03828726-4.41297202 1.85566233-8.6669862 1.47274788-12.11107243l-.73637394-8.75781925c-.15463853-4.99581738-1.31074561-8.78809693-5.99408386-8.15226563z"/>
      <g opacity=".3">
        <path fill="rgb(252,175,117)" fill-rule="evenodd" d="M97.00377411 89.96798441l4.34460625-.51472058c-.59714657-.25744974-1.07098577-.74724511-1.31810935-1.36249565l-.06627366.23465203c-.87189127.2240568-1.69416247.61713126-2.42267026 1.1581213l-.53755298.4844429z"/>
      </g>
      <g opacity=".2">
        <path fill="rgb(29,29,27)" fill-rule="evenodd" d="M99.23498715 77.44816329c.53018924 4.29943071 1.13401587 7.75108635.73637394 9.99920417-.0234033.21042284-.0084196.42348687.04418244.62826188.24712358.61525054.72096278 1.1050459 1.31810935 1.36249565v-1.6425642c.2798221-8.3263623 2.7098561-15.25238184-.05890992-19.0825085l-2.66567366 1.32464856.62591785 7.41046244z"/>
      </g>
      <path fill="rgb(0,0,0)" fill-rule="evenodd" d="M98.82261774 136.48964137c.25041674 1.24843947.25041674 2.53627067 0 3.78471014-.57415202 1.1544104-1.8750385 1.71425227-3.07804306 1.32464854-1.02355978-.1892355-2.12812069-1.27923202-3.07067933-2.55846405-2.15757564-.8250668-4.18260397-1.43062043-5.15461757-3.1413094-.62591785-1.0824271-.68482777-2.4222145.73637394-3.08832348 1.8752702-.3666586 3.81577653.02956907 5.41234845 1.10513536l.73637394-2.33138144 4.06478414.75694203.3534595 4.1480423z"/>
      <path fill="rgb(34,34,34)" fill-rule="evenodd" d="M89.46330498 101.54919742c.49337054 4.81415129 1.20765326 10.33982808 2.48894391 13.79905315l.84683003 2.59631115v15.51731155c-.53755297 3.09589289 3.10749803 5.76789824 6.38436205 3.94366796 1.39174675-7.62997563 1.82620737-15.41133967 0-21.6258337l-.63328158-3.02776811c.81001133-5.16991405.79528385-12.5122517.66273654-19.1582027l-9.74959095 7.9554607z"/>
      <path fill="rgb(0,0,0)" fill-rule="evenodd" d="M85.82561772 143.02205107c.30033264 1.22180535.3628948 2.4925633.18409348 3.7392936-.35345949 1.21867667-1.26656317 1.83179971-3.25477281 1.61985594-1.38562674-.1980152-2.70975622-.71554923-3.87332692-1.51388405-3.6818697-.92346927-7.18700965-2.17242362-7.18700965-5.08665042.39764193-1.57443941 1.88511729-2.43735332 3.80705327-1.69555014 1.92193598.74180319 3.54195865.87048333 5.25770992.0756942l.45655185-2.08915999 4.3740612.75694203.23563966 4.19345883z"/>
      <path fill="rgb(53,53,53)" fill-rule="evenodd" d="M99.14662228 94.21442918c0 3.63332173-4.64651956 6.69893694-8.10011333 8.03872432-.30927706 5.83602303-1.7746612 11.52822707-3.1958629 16.72084938 1.7746612 5.79817592-.10309235 15.71411647-1.57584023 24.97908688-.87196984.78016278-2.02756607 1.1384542-3.17377168.98402463-2.32694165-.21194376-4.6538833-1.96047985-4.19733145-4.33727781 1.05301473-2.73256072.8615575-11.8385733 1.27392691-20.0589637l-.4123694-4.1026258c-.3381129-3.22232505-.4292131-6.46699034-.27245836-9.70399678.17672974-1.85450796.38291445-3.78471013.58909915-5.66192636.73637394-6.22206346 1.47274788-11.8385733 1.47274788-11.8385733 4.19733145.90076102 11.73043685 1.40791217 15.57430881-4.26915303 1.00146856 2.78554666 2.0176646 4.76116535 2.0176646 9.24983157z"/>
      <g opacity=".3">
        <path fill="rgb(63,102,138)" fill-rule="evenodd" d="M86.02443868 90.24805296c-2.5994 7.22122694-3.49041247 15.20696532-2.77612975 23.91936805l-.14727479 30.78483222c-2.32694165-.21194376-4.6538833-1.96047985-4.19733145-4.33727781 1.05301473-2.73256072.8615575-11.8385733 1.27392691-20.0589637l-.4123694-4.1026258c-.3381129-3.22232504-.4292131-6.46699034-.27245836-9.70399678.17672974-1.85450796 1.85566233-15.62328343 2.06921077-17.50049966l4.46242607.99916348z"/>
      </g>
      <path fill="rgb(69,196,138)" fill-rule="evenodd" d="M101.4882914 69.121801c-.4860068 4.4810968-1.9072085 9.7115662-4.35196998 15.89578256-2.5007571 3.71809872-6.78581107 5.72421898-11.15606518 5.22289998-1.50438743-.13172885-2.98783873-.44941353-4.41824363-.94617753-.61855411-4.1101952-1.22974448-8.19011273-1.47274788-11.83100388-.25773088-3.52734985-.21354844-6.645951.43446062-8.99247128 6.0382663-4.24644477 10.88360683-5.89657839 17.4226074-7.29692114l3.54195865 7.94789128z"/>
      <path fill="rgb(255,203,166)" fill-rule="evenodd" d="M85.82561772 61.1663403l.81737507 4.7838736c2.82031219 1.28680145 7.54046914-.19680493 7.29746574-2.77040782l-1.54638527-3.89825143-6.56845554 1.88478564z"/>
      <path fill="rgb(255,203,166)" fill-rule="evenodd" d="M88.9993894 49.28235047c-2.88658585.7115255-4.99261531 2.21784014-5.22825497 5.61650984-.16244564 1.69548781-.08555829 3.40621178.22827592 5.079081.3846887 1.03397573 1.312494 1.74926602 2.38585156 1.83936913l6.47272693-.8931916c2.21481779-1.7162468 3.24862152-4.60531419 2.64358244-7.38775418-.55228046-3.05047637-2.80558471-4.45081911-6.50218188-4.25401419z"/>
      <path fill="rgb(255,203,166)" fill-rule="evenodd" d="M63.49139614 63.49772173l-2.44476148-1.6804113-1.02355977-.95374695c-.46069736-1.55626497-.48367334-3.21475482-.06627366-4.7838736l.73637394-1.51388406.66273655-.75694203v2.27082608l2.04711955 1.15055188.35345949-2.27082608c.32400453-1.28680144 1.06037847-1.3473568 1.06037847-.33305449-.23563966 1.1202742 0 1.91506333 0 3.29269782l.81001133 2.15728477 1.02355978 2.34652029-2.9896782 2.27082608-.169366-1.1959684z"/>
      <path fill="rgb(34,34,34)" fill-rule="evenodd" d="M83.896318 53.40768452c.14727478.65097014.68482776 2.53575579 2.20912181 3.38353086v1.89235506l1.3254731.75694203.13991104.94617753c.05173826.48992767.363783.90983252.81001134 1.08999652 1.16347082.41631812 3.46095751.92346928 5.11043513-.75694202 1.7489871-1.5444591 2.63292127-3.88416553 2.35639661-6.2372023-.169366-3.30783666-3.27686403-5.58623216-6.17081361-5.44241318-3.41677508.17409667-5.25770993 1.6047171-5.78053542 3.93609854-.02942749.1422284-.02942749.28922856 0 .43145696z"/>
      <path fill="rgb(255,203,166)" fill-rule="evenodd" d="M87.3351843 57.87364248c.42097075.03003945.77499896.33585187.87628498.75694202.13115565.4761317.06168441.9869999-.19145722 1.40791217-.25307345.39930243-.6555101.67326093-1.11192465.75694203-.07136372.0266016-.14954847.0266016-.22091218 0-.07783577-.07652453-.11834516-.18479083-.1104561-.2952074l-.04418243-.9764552c-.03897094-.33525893-.01141557-.67515935.08100113-.99916348.09321232-.34519717.37656713-.6008009.72164646-.65097014z"/>
      <g opacity=".2">
        <path fill="rgb(29,29,27)" fill-rule="evenodd" d="M85.98025624 90.20263644c-1.50438743-.13172885-2.98783873-.44941353-4.41824363-.94617753-.61855411-4.11019521-1.22974448-8.19011273-1.47274788-11.83100388l3.475685-.65097015c-.60382664 5.44241318-.64800907 10.51392476 2.41530651 13.42815156z"/>
      </g>
      <path fill="rgb(32,162,106)" fill-rule="evenodd" d="M66.2896171 61.55238073c1.9440272 3.87554317 4.860068 10.07489837 4.86743175 10.07489837 1.5549059-.86755066 3.27214804-1.38369318 5.03679774-1.51388405 1.29601813-.99916348 4.2415139-2.49790869 5.7952629-2.70985246 7.65092523-1.6047171 5.8320816 8.56101433 1.5684765 9.3330952l-1.20765327.4163181c-4.31351372 1.47148873-8.87538929 2.01513788-13.40200569 1.59714768-1.79054063-2.33781218-3.1211339-5.01162646-3.91750936-7.87219707-.725899-2.40801214-1.24095554-4.87790118-1.53902153-7.38018477.0421352-.67801641.38731368-1.29776728.93479648-1.67838081s1.23556202-.47918997 1.86342449-.2669602z"/>
      <g opacity=".2">
        <path fill="rgb(29,29,27)" fill-rule="evenodd" d="M82.3278415 77.190803c-4.31351372 1.47148873-8.87538929 2.01513787-13.40200569 1.59714768-1.78691895-2.35094507-3.11014204-5.03788462-3.89541814-7.91004418 1.40647423 3.11103173 3.87332692 5.65435694 5.71426177 5.7149123 3.59350482 1.07485768 6.51690936.51472058 11.58316207.5979842z"/>
      </g>
    </g>
  </g>
</svg>
