<svg xmlns="http://www.w3.org/2000/svg" width="115" height="126.39" viewBox="0 0 115 126.39">
  <g>
    <ellipse cx="57.5" cy="68.89" fill="rgb(213,227,220)" rx="57.5" ry="57.5"/>
    <g>
      <g opacity=".4">
        <path fill="rgb(32,162,106)" fill-rule="evenodd" d="M78.93 97.88c13.62-.9 23.22-7.83 21.43-15.48-1.79-7.65-14.28-13.13-27.9-12.24-13.62.89-23.22 7.83-21.46 15.48 1.76 7.65 14.31 13.13 27.93 12.24z"/>
        <path fill="rgb(32,162,106)" fill-rule="evenodd" d="M90.39 111.63L26.65 75.62 4 88.82l63.77 35.98 22.62-13.17z"/>
      </g>
      <path fill="rgb(3,4,3)" fill-rule="evenodd" d="M64.42 74.88c-.00001608.51052898-.30809848.9705907-.78015706 1.16501429-.47205859.19442359-1.0147826.08477778-1.37434-.2776561-.35955741-.36243386-.46487532-.9060143-.26669654-1.37650873S62.6594871 73.61594818 63.17 73.62c.33326052-.00001066.65272782.13305721.88743788.36964496.23471007.23658774.3652282.55710518.36256212.89035504z"/>
      <path fill="rgb(3,4,3)" fill-rule="evenodd" d="M61.47 87.59c.00405182.5105129-.30035503.97301482-.77084946 1.1711936-.47049443.19817878-1.01407487.09286087-1.37650874-.26669654-.36243387-.3595574-.47207968-.90228141-.27765609-1.37434.1944236-.47205858.65448531-.78014098 1.16501429-.78015706.69199217-.0000218 1.254508.55802962 1.26 1.25z"/>
      <path fill="rgb(3,4,3)" fill-rule="evenodd" d="M81.7 93.43c.00405182.5105129-.30035503.97301482-.77084946 1.1711936-.47049443.19817878-1.01407487.09286087-1.37650874-.26669654-.36243387-.3595574-.47207968-.90228141-.27765609-1.37434.1944236-.47205858.65448531-.78014098 1.16501429-.78015706.33324986-.00266608.6537673.12785205.89035504.36256212.23658775.23471006.36965562.55417736.36964496.88743788z"/>
      <path fill="rgb(3,4,3)" fill-rule="evenodd" d="M96.87 84.41c.00404303.51141988-.3014542.9745497-.77318202 1.17213385-.47172783.19758415-1.01609339.09042109-1.37773315-.27121868-.36163977-.36163976-.46880283-.90600532-.27121868-1.37773315.19758416-.47172782.66071397-.77722505 1.17213385-.77318202.69035594 0 1.25.55964406 1.25 1.25z"/>
      <path fill="rgb(3,4,3)" fill-rule="evenodd" d="M87.56 72.19c-1e-8.69587881-.56412124 1.26000001-1.26000003 1.26-.69587878-1e-8-1.25999998-.56412124-1.25999997-1.26000003 1e-8-.69587878.56412124-1.25999998 1.26000003-1.25999997.33417275 0 .65465868.13274962.89095451.36904546.23629584.23629583.36904546.55678176.36904546.89095454z"/>
      <path fill="rgb(109,110,113)" fill-rule="evenodd" d="M87.65 71.21v-1.73l-2.33 1.04-8.76 8.16-12.68-6.19-1.85-.67v1.73l10.72 7.33-14.12 3.32v1.73l1.19 1.34 15.38-3.62 3.96 9.32 2.58-.24V91l-1.21-7.84 16.56.71.41-1.49v-1.73l-16.13-.56 6.28-8.88z"/>
      <path fill="rgb(188,190,192)" fill-rule="evenodd" d="M87.65 69.48l-2.33-.69-8.76 8.16-12.68-6.19-1.85 1.06 10.72 7.33-14.12 5.05 1.19 1.35 15.38-3.63 3.96 9.32 2.58-.24-1.21-9.57 16.56.71.41-1.49-16.13-2.29 6.28-8.88z"/>
      <path fill="rgb(3,4,3)" fill-rule="evenodd" d="M79 78.54c.43481686.13920932.72984379.5434423.72984379 1 0 .4565577-.29502693.86079068-.72984379 1-1.07943672.54057425-2.35056328.54057425-3.43 0-.43481686-.13920932-.72984379-.5434423-.72984379-1 0-.4565577.29502693-.86079068.72984379-1 1.07943672-.54057425 2.35056328-.54057425 3.43 0z"/>
      <rect width="4.85" height="15.62" x="74.83" y="63.91" fill="rgb(3,4,3)" rx="0" ry="0"/>
      <path fill="rgb(132,157,170)" fill-rule="evenodd" d="M77.08 49.23L57.89 60.31c-.89.51-1.6.1-1.6-.92.12433564-2.62776792 1.50489668-5.03537706 3.71-6.47l17.08-9.85c.88-.51 1.6-.1 1.6.92v2.49c-.06815515 1.11819689-.66157703 2.13814075-1.6 2.75z"/>
      <path fill="rgb(132,157,170)" fill-rule="evenodd" d="M83.78 8.26l-1 6.53-3.91 26c-.04371092.26788181-.12801308.52753247-.25.77-.21048855.4935155-.55739622.91674288-1 1.22l-2.66 1.54c-.25822804.186725-.5940803.22823482-.89.11-.37591612-.26445249-.54095154-.73943248-.41-1.18l.45-2.91 4.31-28 .33-2.17c.12978603-.89329533.67508551-1.6722946 1.47-2.1l2.47-1c.23716108-.12801515.52283892-.12801515.76 0 .34328516.29167785.47403841.763182.33 1.19z"/>
      <path fill="rgb(132,157,170)" fill-rule="evenodd" d="M74.19 70.5L56.6 60.31l21.54-17.4 17.66 10.2L74.19 70.5z"/>
      <path fill="rgb(132,157,170)" fill-rule="evenodd" d="M100.78 17.17L83.45 7.13l-9.46 37.25 17.42 10.06 9.37-37.27z"/>
      <path fill="rgb(100,120,131)" fill-rule="evenodd" d="M94.58 59.35L75.39 70.43c-.89.51-1.6.1-1.6-.93.1346544-2.611535 1.50978608-5.00129085 3.7-6.43l17.09-9.87c.88-.51 1.6-.09 1.6.93v2.44c-.06042601 1.12851874-.6545666 2.16083802-1.6 2.78z"/>
      <path fill="rgb(100,120,131)" fill-rule="evenodd" d="M91.13 53.33l5.09-33c.14521483-.89058633.7008189-1.66102396 1.5-2.08l2.46-1c.74-.3 1.24.23 1.1 1.16l-4.89 32.5c-.13827319.81769278-.60885915 1.5416712-1.3 2l-2.66 1.53c-.83.44-1.43-.07-1.3-1.11z"/>
      <path fill="rgb(34,34,34)" fill-rule="evenodd" d="M54.36 84.49c1 1 1.2 3.1.86 5.11-.51255829 1.04099314-1.44315846 1.81528157-2.56 2.13-1.09682083.39829837-2.1573885.89010735-3.17 1.47-3.05 3.17-5.88 3.55-6.92 3.17-3.52-1.31.25-4.33 1.27-5.07.3-.21 4.22-3.94 4.22-3.94l.94-1.47-.11-3.21L54 81.17l.36 3.32z"/>
      <path fill="rgb(53,53,53)" fill-rule="evenodd" d="M43.84 61.2c.68 8 3.17 14 5.15 24.69 1.2190657.93573844 2.79287672 1.27691425 4.29.93.88452381-.27229622 1.5462508-1.0109682 1.72-1.92.31-9.13.23-16.2-2.29-22.11 7.67-3.37 17.81-4.44 24.07-9.68 2.43-2.1 4.27-4 4.84-5.94.30531899-.93232677.25183152-1.94502273-.15-2.84-.25588669-.54750942-.59302465-1.05321636-1-1.5l-2-1.42-8.61-1.23c-1.1.58-2.32 1.24-3.61 2-9.32 5.29-22.45 14.09-22.41 19.02z"/>
      <g opacity=".5">
        <path fill="rgb(60,60,59)" fill-rule="evenodd" d="M52.66 86.62l.62.2c.88452381-.27229622 1.5462508-1.0109682 1.72-1.92.31-9.13.23-16.2-2.29-22.11 7.67-3.37 17.81-4.44 24.07-9.68 2.43-2.1 4.27-4 4.84-5.94l-.15-2.84c-.25588669-.54750942-.59302465-1.05321636-1-1.5l-2-1.42-8.61-1.23c-1.1.58-2.32 1.24-3.61 2-.67 8.09-8.56 13.8-17.25 19.22 3.24 7.56 4.17 16.09 3.66 25.22z"/>
      </g>
      <path fill="rgb(34,34,34)" fill-rule="evenodd" d="M68.29 92.34c1 1 1.07 3 .85 5.11-.77707978 1.11685694-1.93108982 1.91578697-3.25 2.25-1.31891018.33421303-4.87 4.64-9.51 3.94-4.64-.7 0-4 0-4L61.73 95l1-1.43v-3l5.17-1.5.39 3.27z"/>
      <path fill="rgb(53,53,53)" fill-rule="evenodd" d="M55.56 67.07c.68 8 5.23 15.74 7.2 26.46 1.8 1.37 3.38 1.61 4.65.16.4054662-.47006534.74215764-.995304 1-1.56.28-9.06-.34-17.17-2.86-23.06 7.66-3.38 13.73-6.72 20-11.95 3.88296916-3.48312408 4.32430179-9.41022134 1-13.43l-.85-.13h-.17l-14.07 2.88-2.33 2.63L66 52.6c-5.13 5.85-9.75 11.37-10.44 14.47z"/>
      <g opacity=".5">
        <path fill="rgb(60,60,59)" fill-rule="evenodd" d="M66.51 94.07l.9-.34c.4054662-.47006534.74215764-.995304 1-1.56.28-9.1-.34-17.21-2.86-23.1 7.66-3.38 13.73-6.72 20-11.95 3.88296916-3.48312408 4.32430179-9.41022134 1-13.43l-.85-.13-16.57 5.51L66 52.6c1.81.28 5.76.37 14 .28-2.93 6.19-9.81 11.45-18.21 15.09 3.87 6.62 4.83 15.87 4.72 26.1z"/>
      </g>
      <path fill="rgb(67,82,90)" fill-rule="evenodd" d="M60.66998291 121.32c0 1.789917 1 3 2.48999023 3 .65106202-.00939941 1.28717041-.19604492 1.84002686-.54003906l23.61999512-13.67004395c2.11346435-1.35632324 3.44000244-3.65161133 3.55999756-6.16003418v-33.6899414c0-1.79003907-1.01000977-3-2.5-3-.63446045.01538086-1.2529297.2019043-1.79003907.54003906l-23.6699829 13.6599121c-2.10968018 1.35864259-3.43218995 3.65356446-3.5499878 6.16003419V121.32zm27.9500122-52.25c.31854249-.2019043.68347169-.31896973 1.05999757-.33996582.92999267 0 1.0300293 1.07995605 1.04998779 1.54003906v33.6899414c-.12091065 1.98205567-1.16497803 3.79260255-2.82000733 4.89001466l-23.6699829 13.67004394c-.31854249.20043946-.68395997.31420899-1.05999756.32995606-.90002442 0-1-1.07995606-1-1.54003907v-33.6899414C62.30096436 85.63799316 63.34503174 83.82744629 65 82.73003418L88.61999512 69.07z"/>
      <path fill="rgb(67,82,90)" fill-rule="evenodd" d="M6.5 89.93999512c0 1.78991699 1 3 2.5 3 .61560059-.02624512 1.21435547-.20861817 1.73999023-.5300293l23.66003418-13.66003418c2.1147461-1.35510254 3.44158936-3.65112305 3.55999756-6.16003418V38.8899463c0-1.79003906-1.01000976-3-2.5-3-.63269043.01757812-1.24975586.20031738-1.79003906.5300293L10 50.07c-2.09997559 1.37036133-3.40478516 3.67419434-3.5 6.17993164v33.69006348zm27.89996338-52.25c.31854248-.2019043.68347168-.31896973 1.05999756-.33996582.92999267 0 1.0300293 1.08996582 1.04003906 1.55004883v33.6899414c-.1248169 1.9835205-1.17242432 3.79370117-2.83001709 4.89001465L10 91.14006836c-.32806396.20507812-.70349121.32226562-1.09002686.33996582-.89001464 0-1-1.07995605-1-1.55004883V56.25005371c.12780762-1.9852295 1.17431641-3.79724121 2.8300171-4.90002441l23.65997314-13.66003418z"/>
      <path fill="rgb(100,120,131)" fill-rule="evenodd" d="M94.19 68.72L62.56 86.98 5.72 54.13v-1.62l31.63-16.65L94.19 67.1v1.62z"/>
      <path fill="rgb(132,157,170)" fill-rule="evenodd" d="M94.19 67.1L62.56 85.36 5.72 52.51l31.63-18.27L94.19 67.1z"/>
      <g opacity=".5">
        <path fill="rgb(178,178,178)" fill-rule="evenodd" d="M56.08 57.87l6.24-3.66 7.1-1.39-4.16-3.11-5.25 1.97-3.93 6.19z"/>
      </g>
      <g opacity=".5">
        <path fill="rgb(178,178,178)" fill-rule="evenodd" d="M45.59 50.75l1.19-1.2-.44-.76 2.91-1.9.71-1.38 4.5-1.38-4.5-2.6-3.76 2.34-2.17 1.87-.19 2.54-.19 1.25 1.94 1.22z"/>
      </g>
      <path fill="rgb(74,74,73)" fill-rule="evenodd" d="M76.49 68.07l4 2.32c.11138882.04962858.23861118.04962858.35 0l7.67-4.43c.03850507-.01962545.06473957-.0571033.07-.1-.00192993-.0465631-.0286367-.08853087-.07-.11l-4-2.31c-.1147727-.05009092-.2452273-.05009092-.36 0l-7.67 4.43c-.08.03-.08.12.01.2z"/>
      <path fill="rgb(74,74,73)" fill-rule="evenodd" d="M88.59 65.43v.4l-12.17 2.12v-.4l12.17-2.12z"/>
      <path fill="rgb(135,135,135)" fill-rule="evenodd" d="M76.49 67.65l4 2.31c.10881564.06052943.24118436.06052943.35 0l7.67-4.43s.07-.06.07-.1c.0020766-.04536001-.02666908-.08642525-.07-.1l-4-2.31c-.11238759-.06044799-.24761241-.06044799-.36 0l-7.67 4.42c-.03727152.02289712-.05913114.06426136-.0570505.10795479.00208064.04369342.02777188.08279333.0670505.10204521z"/>
      <path fill="rgb(34,34,34)" fill-rule="evenodd" d="M80.93 69.66l6.9-4-1.78-1-.59-.34-.91-.52-.32-.19-.32-.18-6.9 4 3.92 2.23z"/>
      <path fill="rgb(255,255,255)" fill-rule="evenodd" d="M85.5 64.19l1 .57c.0457818.02904546.1042182.02904546.15 0l.26-.15v-.08l-1-.57c-.0457818-.02904546-.1042182-.02904546-.15 0l-.26.11v.12z"/>
      <path fill="rgb(74,74,73)" fill-rule="evenodd" d="M86.52 64.74h.07l.26-.15-1-.61h-.07l-.26.15 1 .61z"/>
      <path fill="rgb(39,51,64)" fill-rule="evenodd" d="M78.87 68.85h.06l.24-.13c0-.05 0-.05-.06 0l-.24.13z"/>
      <path fill="rgb(39,51,64)" fill-rule="evenodd" d="M78.74 68.77h.06l.2-.1h-.06l-.2.1z"/>
      <path fill="rgb(39,51,64)" fill-rule="evenodd" d="M78.61 68.7c0 .05 0 .05.06 0l.24-.14h-.06l-.24.14z"/>
      <path fill="rgb(39,51,64)" fill-rule="evenodd" d="M78.48 68.63h.06l.24-.14h-.06l-.24.14z"/>
      <path fill="rgb(39,51,64)" fill-rule="evenodd" d="M78.36 68.55h.06l.23-.14h-.06l-.23.14z"/>
      <g opacity=".5">
        <path fill="rgb(0,0,0)" fill-rule="evenodd" d="M78.87 68.85h.06l.24-.13c0-.05 0-.05-.06 0l-.24.13z"/>
      </g>
      <g opacity=".5">
        <path fill="rgb(0,0,0)" fill-rule="evenodd" d="M78.74 68.77h.06l.2-.1h-.06l-.2.1z"/>
      </g>
      <g opacity=".5">
        <path fill="rgb(0,0,0)" fill-rule="evenodd" d="M78.61 68.7c0 .05 0 .05.06 0l.24-.14h-.06l-.24.14z"/>
      </g>
      <g opacity=".5">
        <path fill="rgb(0,0,0)" fill-rule="evenodd" d="M78.48 68.63h.06l.24-.14h-.06l-.24.14z"/>
      </g>
      <g opacity=".5">
        <path fill="rgb(0,0,0)" fill-rule="evenodd" d="M78.36 68.55h.06l.23-.14h-.06l-.23.14z"/>
      </g>
      <g opacity=".5">
        <path fill="rgb(255,255,255)" fill-rule="evenodd" d="M80.13 69.44v.09c.0488811.03081897.1111189.03081897.16 0v-.09c-.05144306-.02008131-.10855694-.02008131-.16 0z"/>
      </g>
      <g opacity=".5">
        <path fill="rgb(0,0,0)" fill-rule="evenodd" d="M79.55 69.07v.09c.05144306.02008131.10855694.02008131.16 0 .05 0 .05-.07 0-.09-.0488811-.03081897-.1111189-.03081897-.16 0z"/>
      </g>
      <path fill="rgb(32,162,106)" fill-rule="evenodd" d="M65.51 12.97c-4-.6-5.33 1.28-6.23 5.64L55.6 31.77c-1.37 1.16-2.21 2.85-3.55 4.51l4.12 3.39c1.89-1.49 3.75-3.12 5.62-4.88L64 27.26l2.71-9.38 1.5-2.81-2.7-2.1z"/>
      <g opacity=".5">
        <path fill="rgb(63,118,171)" fill-rule="evenodd" d="M64 27.26l-3.23-6.33c-.79 5.27-3 9-3.18 13.7l-3.09 3.69 1.71 1.35c1.89-1.49 3.75-3.12 5.62-4.88L64 27.26z"/>
      </g>
      <path fill="rgb(249,115,57)" fill-rule="evenodd" d="M74.52 7.15c8 2.6 6.28 10.13 4.13 16L73 17.89l1.52-10.74z"/>
      <path fill="rgb(69,196,138)" fill-rule="evenodd" d="M59.28 32.26c-.0049635.04653469-.0049635.09346531 0 .14.2 4.59 6.45 4.16 6.45 4.16l2.54 5.51c.64 8 14.41 10 18.28 1.62-2.78-3.94-2.78-3.94-3-6.66 0 0 .33-1.08.57-2.1 1.27396117-4.70498047.68289199-9.72011293-1.65-14-2.26-2.92-7.33-5.86-10.53-7l-9.35-.21-1.89 6.73c.5 8.52-1.47 8.22-1.42 11.81z"/>
      <path fill="rgb(252,199,170)" fill-rule="evenodd" d="M73.47 12.3c.5 1.74 1.87 4.44 2.2 6.1.38 2.05-3.4 5.24-5.93 5.05-1.74-.38-2.25-2.65-2.51-4.77l6.24-6.38z"/>
      <g opacity=".3">
        <path fill="rgb(252,175,117)" fill-rule="evenodd" d="M72.17 13.63s1.49 12.26-4.41 11.25c-3.84-.66-3-7-3-7l7.41-4.25z"/>
      </g>
      <path fill="rgb(252,199,170)" fill-rule="evenodd" d="M68.45 2.4c-5.9.82-7.73 4.28-7.14 9 .07 3.94 3.35 9.16 5.64 9.06 3.27.18 4.87-3.63 7.66-7.7C76.77 6.07 74 1.64 68.45 2.4z"/>
      <path fill="rgb(249,115,57)" fill-rule="evenodd" d="M61.39 11.51c1.23 1.32 3.2 2.06 5.65 2.63 2.07.85 4.08.77 4.88 1.92l2.4-1C76.73 12.3 77 4.37 72.83 2.69 66.2 0 58.31 6.66 61.39 11.51z"/>
      <path fill="rgb(252,199,170)" fill-rule="evenodd" d="M72 14.85c.36-1.45 1.37-2.4 2.22-1.56.4.38.38 1.1 0 2-.1667881.57113255-.63672034 1.00254576-1.22 1.12-.87.12-1.27-.45-1-1.56z"/>
      <g opacity=".5">
        <path fill="rgb(63,118,171)" fill-rule="evenodd" d="M59.29 32.4c.2 4.59 6.45 4.16 6.45 4.16l2.53 5.51c.64 8 14.41 10 18.28 1.62-2.78-3.94-2.78-3.94-3-6.66 0 0 .33-1.08.57-2.1l-5.56-6-3.2 7.21c-2.6 5.61-8.71 3.21-9.21-1.31-.92 1.47-5.57 1.13-6.86-2.43z"/>
      </g>
      <g opacity=".5">
        <path fill="rgb(252,175,117)" fill-rule="evenodd" d="M53.21 57.32l-.76.33c-.64.17-1-.13-.51-.78-.04.61.47.67 1.27.45z"/>
      </g>
      <path fill="rgb(255,255,255)" fill-rule="evenodd" d="M35.14 38.1l10.29 5.94-14.66 8.45-10.28-5.93 14.65-8.46z"/>
      <path fill="rgb(29,29,27)" fill-rule="evenodd" d="M23.52 46.52l7.43 4.28-.45.26-7.43-4.29.45-.25z"/>
      <path fill="rgb(29,29,27)" fill-rule="evenodd" d="M24.73 45.81l7.43 4.29-.27.16-7.43-4.29.27-.16z"/>
      <path fill="rgb(29,29,27)" fill-rule="evenodd" d="M25.47 45.39l7.43 4.29-.27.16-7.44-4.29.28-.16z"/>
      <path fill="rgb(29,29,27)" fill-rule="evenodd" d="M26.2 44.96l7.43 4.29-.27.16-7.43-4.29.27-.16z"/>
      <path fill="rgb(29,29,27)" fill-rule="evenodd" d="M27.67 44.12l7.43 4.29-.27.15-7.43-4.29.27-.15z"/>
      <path fill="rgb(29,29,27)" fill-rule="evenodd" d="M28.41 43.69l7.43 4.29-.28.16-7.43-4.29.28-.16z"/>
      <path fill="rgb(29,29,27)" fill-rule="evenodd" d="M33.73 45.91l2.84 1.65-.27.16-2.85-1.65.28-.16z"/>
      <path fill="rgb(29,29,27)" fill-rule="evenodd" d="M29.88 42.84l7.43 4.29-.28.16L29.6 43l.28-.16z"/>
      <path fill="rgb(29,29,27)" fill-rule="evenodd" d="M30.61 42.42l7.43 4.29-.27.16-7.43-4.29.27-.16z"/>
      <path fill="rgb(29,29,27)" fill-rule="evenodd" d="M33.09 43l5.69 3.29-.28.15-5.69-3.28.28-.16z"/>
      <path fill="rgb(29,29,27)" fill-rule="evenodd" d="M37.67 43.1l3.31 1.91-.27.16-3.32-1.91.28-.16z"/>
      <path fill="rgb(29,29,27)" fill-rule="evenodd" d="M38.4 42.67l3.32 1.92-.28.16-3.31-1.92.27-.16z"/>
      <path fill="rgb(255,255,255)" fill-rule="evenodd" d="M43.15 48.62l10.28 5.94-14.65 8.46-10.28-5.94 14.65-8.46z"/>
      <path fill="rgb(29,29,27)" fill-rule="evenodd" d="M31.52 57.04l7.43 4.29-.44.25-7.43-4.29.44-.25z"/>
      <path fill="rgb(29,29,27)" fill-rule="evenodd" d="M32.74 56.33l7.43 4.29-.27.16-7.44-4.29.28-.16z"/>
      <path fill="rgb(29,29,27)" fill-rule="evenodd" d="M33.47 55.91l7.43 4.29-.27.16-7.43-4.29.27-.16z"/>
      <path fill="rgb(29,29,27)" fill-rule="evenodd" d="M34.21 55.48l7.43 4.29-.27.16-7.44-4.29.28-.16z"/>
      <path fill="rgb(29,29,27)" fill-rule="evenodd" d="M35.68 54.64l7.43 4.29-.27.16-7.44-4.3.28-.15z"/>
      <path fill="rgb(29,29,27)" fill-rule="evenodd" d="M36.41 54.21l7.43 4.29-.27.16-7.43-4.29.27-.16z"/>
      <path fill="rgb(29,29,27)" fill-rule="evenodd" d="M41.73 56.44l2.85 1.64-.28.16-2.84-1.65.27-.15z"/>
      <path fill="rgb(29,29,27)" fill-rule="evenodd" d="M37.88 53.36l7.43 4.29-.27.16-7.43-4.29.27-.16z"/>
      <path fill="rgb(29,29,27)" fill-rule="evenodd" d="M38.62 52.94l7.43 4.29-.28.16-7.43-4.29.28-.16z"/>
      <path fill="rgb(29,29,27)" fill-rule="evenodd" d="M41.09 53.52l5.69 3.29-.27.15-5.69-3.28.27-.16z"/>
      <path fill="rgb(29,29,27)" fill-rule="evenodd" d="M45.67 53.62l3.32 1.91-.28.16-3.31-1.91.27-.16z"/>
      <path fill="rgb(29,29,27)" fill-rule="evenodd" d="M46.41 53.2l3.31 1.91-.27.16-3.32-1.92.28-.15z"/>
      <path fill="rgb(29,113,184)" fill-rule="evenodd" d="M42.11999512 52.64995605c.90496826.45959473 1.97503662.45959473 2.88000488 0 .36254883-.1138916.60925293-.44995117.60925293-.82995605 0-.38012695-.2467041-.71618652-.60925293-.83007812-.90496826-.45959473-1.97503662-.45959473-2.88000488 0-.35205078.12402343-.58758545.4567871-.58758545.83007812 0 .37329102.23553467.70593262.58758545.82995605zm-.42626953-.79992675c0-.34899903.21832275-.6607666.54626464-.7800293.84643555-.42456055 1.8435669-.42456055 2.69000245 0 .32800293.1192627.54626464.43103027.54626464.7800293 0 .34887695-.21826171.66064453-.54626464.77990722-.84643555.42456055-1.8435669.42456055-2.69000245 0-.32794189-.1192627-.54626464-.43103027-.54626464-.77990722z"/>
      <path fill="rgb(29,113,184)" fill-rule="evenodd" d="M42.35003662 52.530083c.77349854.39038087 1.6864624.39038087 2.45996094 0 .30395508-.10351562.50836182-.388916.50836182-.710083 0-.32104492-.20440674-.60644531-.50836182-.70996094-.77349854-.39038086-1.6864624-.39038086-2.45996094 0-.30395508.10351563-.50836182.38891602-.50836182.70996094 0 .321167.20440674.60656738.50836182.710083zM41.9227295 51.82c0-.30859375.20196533-.58068848.49725342-.67004395.7300415-.38061523 1.59997559-.38061523 2.33001709 0 .2845459.09973145.47503662.3684082.47503662.67004395 0 .30151367-.19049072.57019043-.47503662.66992188-.73242188.37072753-1.59753418.37072753-2.33001709 0-.29528809-.08935547-.49725342-.3614502-.49725342-.66992188z"/>
      <path fill="rgb(29,113,184)" fill-rule="evenodd" d="M42.84997559 52.23992188c.46057129.2401123 1.00939941.2401123 1.47003173 0 .18371582-.05737305.3088379-.22753907.3088379-.41992188 0-.19250488-.12512208-.3626709-.3088379-.42004395-.46063232-.2401123-1.00946045-.2401123-1.47003173 0-.18371582.05737305-.3088379.22753907-.3088379.42004395 0 .19238281.12512208.36254883.3088379.41992188zM42.64587402 51.82c0-.17175293.10461426-.32617187.26409912-.39001465.421875-.21057129.91815186-.21057129 1.34002686 0 .16900635.05480957.2835083.21228028.2835083.39001465 0 .17773438-.11450195.33520508-.2835083.39001465-.421875.21057129-.91815186.21057129-1.34002686 0-.15948486-.0637207-.26409912-.21826172-.26409912-.39001465z"/>
      <path fill="rgb(29,113,184)" fill-rule="evenodd" d="M43 51.22l-.25-.09s.14.13.11.14c-.03.01-.16-.2-.12-.2l.25.09s-.14-.13-.12-.14l.18.17-.05.03z"/>
      <path fill="rgb(29,113,184)" fill-rule="evenodd" d="M43.05291748 51.11528809c.00421143-.01403809.01922607-.02905274.05932617-.03771973.02618408.0111084.04962158.02893066.06781006.05249023-.0435791.0119629-.0890503.00610352-.12713623-.0147705zm0 0c-.0053711.0180664.00708008.03466796.00708008.03466796.14001465.0300293.14001465.0600586.14001465.0600586.01690674-.04516602.01690674-.09484863 0-.14001465-.0378418 0-.06634522.00280762-.08776856.00756836C43.07745361 51.06267578 43.0380249 51.05950196 43 51.07c.01464844.01904297.03271484.03430176.05291748.04528809z"/>
      <path fill="rgb(29,113,184)" fill-rule="evenodd" d="M43.45 50.96h-.08s.05.17 0 .18v-.18h-.09c-.01 0 .16-.02.17 0z"/>
      <path fill="rgb(29,113,184)" fill-rule="evenodd" d="M43.62994385 50.95000488c.0092163 0 .0189209.01000977.02734375.02490235l-.05731201.10510254h.05999755v-.09997559c.0263672.05175781.03710938.14978027-.0300293.11999512-.05993652-.0267334-.09771728-.01782227-.12512206-.00891114.03485107-.05297851.09716797-.14111328.12512207-.14111328zm-.12512207.14111328c-.01495362.02270508-.02484131.03894043-.02484131.03894043l-.01000977-.0300293c.01000977 0 .02111817-.0045166.03485108-.00891113zm.15515136-.11108398v-.01000977l-.00268554.00488282.00268554.00512695z"/>
      <path fill="rgb(29,113,184)" fill-rule="evenodd" d="M43.77996826 51.14995605c.05999756.01000977.05999756-.07995605.05999756-.07995605h.05999756c-.00567627.03430176-.00402832.05627441.00006103.0703125v.01965332c.0053711 0 .00939942.00036621.01226807.0008545-.00396728-.0029297-.00891113-.00903321-.01226807-.02050782V51.07c.00531006-.03198242.00280762-.05541992-.00372314-.07263184-.0302124.03259278-.06634522.03259278-.06634522.03259278v-.07995606c-.01000976.01000977-.10998535.1899414-.04998779.19995117zm.11633301-.15270996c-.01275635-.0336914-.04095459-.04333496-.05615234-.04614257l.07983398.00891113c-.00671387.015625-.01495361.02783203-.02368164.03723144z"/>
      <path fill="rgb(29,113,184)" fill-rule="evenodd" d="M44.1 51.13v-.06s.16-.07.18 0l-.17.07s-.05.07-.08.06l.07-.07z"/>
      <path fill="rgb(29,113,184)" fill-rule="evenodd" d="M44.5079956 51.09514648C44.51348878 51.07 44.48999024 51.07 44.48999024 51.07c-.0758667.03881836-.14935302.0822754-.2199707.13000488.02001953.05993653.09997559 0 .09997559 0h.05999756c.02429199-.02429199.04156494-.04394531.0536499-.0600586h.05633545l-.03198242-.0447998zm0 0c-.0022583.01025391-.0092163.0246582-.02441406.0447998h-.0935669L44.48999025 51.07l.01800537.02514648z"/>
      <path fill="rgb(29,113,184)" fill-rule="evenodd" d="M44.52001953 51.32c-.11999512-.08996582.17999268-.08996582.2000122-.06994629.0072632.00720215-.01440429.0197754-.0435791.0366211-.03015136.01733398-.06829833.0394287-.09069824.0649414-.02307128-.00622558-.04541015-.01635742-.06573486-.03161621zm.17156983.0378418c-.04162598.01464843-.08221436.03198242-.12158204.05212402-.00787353-.0209961.00006104-.04064941.01574707-.05847168.03503418.00939941.07177735.01000977.10583497.00634766zm0 0c.04510498-.01586914.09136962-.02856446.13842773-.0378418 0 0-.0625.02954102-.13842773.0378418z"/>
      <path fill="rgb(29,113,184)" fill-rule="evenodd" d="M44.74456787 51.42998535c-.00531006-.00915527-.03186035-.00756836-.05810547 0h-.05645752l.01470948.0189209c-.00897217.00646973-.01470948.01367188-.01470948.02111816v.04992676c.01879883-.01013183.03485108-.0192871.04852295-.02758789l.02148438.0275879.05999756-.08996583h-.0154419zm0 0c.00524902.0090332-.01000976.02832031-.06604004.06237793l-.03381347-.04345703c.01080322-.0078125.02618408-.0144043.04174804-.0189209h.05810547z"/>
      <path fill="rgb(29,113,184)" fill-rule="evenodd" d="M44.7 51.59c.10641777-.01030511.21358223-.01030511.32 0h-.3v.08c0 .01-.03-.07-.02-.08z"/>
      <path fill="rgb(29,113,184)" fill-rule="evenodd" d="M45.08 51.7c-.10977304.0099931-.22022696.0099931-.33 0 .10976534-.0101613.22023466-.0101613.33 0z"/>
      <path fill="rgb(29,113,184)" fill-rule="evenodd" d="M45.06 51.79h-.21s.15 0 .16.1l.05-.1z"/>
      <path fill="rgb(29,113,184)" fill-rule="evenodd" d="M44.22 52.4l.25.08s-.15-.13-.12-.14c.03-.01.18.16.14.17l-.24-.08s.14.13.12.14c-.02.01-.18-.16-.18-.17h.03z"/>
      <path fill="rgb(29,113,184)" fill-rule="evenodd" d="M44.15783691 52.547417c.04040528-.03979493.012146-.07739259.012146-.07739259-.07525635-.01330566-.10736084-.01879882-.11981201-.02075195-.006958.01745606-.01135254.03491211-.01342774.0526123-.015625.00048829-.03137207.00317383-.04675293.00805665.01293946.01904297.02935791.0345459.04779053.0460205-.00280762-.01794433-.0031128-.0361328-.0010376-.05407714.04437256-.00134278.08807373.0147705.12109375.04553222zm-.04968261.03198241c.03088379.00280762.0628662-.0032959.0918579-.01940918h-.02996825c-.00390625-.00439453-.00793458-.00866699-.01220704-.01257324-.01086425.01074219-.02679443.02172852-.04968261.03198242zm0 .00012207c-.01586914.00708008-.03497315.01403809-.05810547.02050782-.00579834-.01428223-.00982666-.02905274-.01220703-.04406739.0213623.01330567.04547119.02124024.0703125.02355957z"/>
      <path fill="rgb(29,113,184)" fill-rule="evenodd" d="M43.88000488 52.67009766v-.18005371c-.04675293.0093994-.00604248.16748046-.00054931.1878662-.020813.0012207-.04168702.00183106-.06256104.0020752h.06311035l-.00054931-.00219726c.0269165-.00158692.05377197-.0041504.0805664-.00769043h-.08001709z"/>
      <path fill="rgb(29,113,184)" fill-rule="evenodd" d="M43.63000488 52.70000488c.0300293 0 .13000489-.19995117.13000489-.19995117l-.0199585-.01000976c-.01611328.03210449-.04656982.05859375-.07904053.06994628h-.06439209c-.00579834-.0024414-.01135254-.0057373-.01660156-.0098877-.0499878-.04003905.02001953.14990235.0499878.14990235zm-.03338623-.14001465c.01989746.00854493.04260254.00769043.0643921 0h.03900146l-.0499878.11010743-.05999755-.11010743h.0065918z"/>
      <path fill="rgb(29,113,184)" fill-rule="evenodd" d="M43.35998535 52.58000977v-.08996582s.01000977-.0300293 0 .08996582zm.07000733.11999511c.0211792-.06884765.03790283-.13891601.05004882-.20996093-.05999755 0-.05999755.08996582-.05999755.08996582h-.05999756c-.00268555.03186035.00097656.05529785.00787353.07250976-.0102539.01123047-.02008056.02661133-.02789306.04748535h.09002685zm0 0v-.07995605s-.03283692 0-.06207276.0324707c.0189209.04748535.0621338.04748535.06207276.04748535z"/>
      <path fill="rgb(29,113,184)" fill-rule="evenodd" d="M43.17 52.54v.01s-.14.09-.17.07l.17-.09s0-.07.07-.06l-.07.07z"/>
      <path fill="rgb(29,113,184)" fill-rule="evenodd" d="M42.93414307 52.37517578c-.00030518-.01379394-.00042725-.0189209-.09417725.0748291-.04595947.04602051-.06695557.0756836-.0748291.0949707l-.03515625.01501465.03570557.01428223c-.00463868-.00463867-.00708008-.01342773-.00054932-.02929687l.0770874-.03308106q-.0302124.03479004-.06219482.06811524l.09002685-.07995606-.027771.01184082c.03411866-.03930664.06677247-.07995605.0977173-.12194824-.0055542-.00280762-.00573731-.00939941-.00585938-.0147705z"/>
      <path fill="rgb(29,113,184)" fill-rule="evenodd" d="M42.61810303 52.36125977c.02386474.00048828.04846191.0045166.0725708.01367187-.0258789.0612793-.14068604.12512207-.14068604.12512207.07000733-.02197266.137146-.0522461.20001221-.08996582-.01898193-.01611328-.03900146-.02746582-.05932617-.03515625.00653076-.01550293.00738525-.03076172-.00067139-.04492187-.02355957.0114746-.04754639.02185058-.07189941.03125zm0 0c-.05755616.02209472-.1171875.03845214-.17810059.04882812 0 0 .08361817-.05114746.17810059-.04882812z"/>
      <path fill="rgb(29,113,184)" fill-rule="evenodd" d="M42.53997803 52.18999512v.04541015c-.07928467.0657959-.0425415.07067871 0 .0543213l.13000488-.04968262-.07000732-.02697754.00006103-.0230713-.02087402.01501466.02087402.00805664-.00006103.02697754c0 .01794433-.03131104.03869628-.05999756.04992675v-.05456543c.01080322-.00891113.02374267-.01904297.03912353-.0303955l-.03912353-.01501465z"/>
      <path fill="rgb(29,113,184)" fill-rule="evenodd" d="M42.52 52.13c-.10379145.03494511-.21109779.05841837-.32.07l.3-.08v-.08c0-.01.03.08.02.09z"/>
      <path fill="rgb(29,113,184)" fill-rule="evenodd" d="M42.12 52.07c.10992946-.00557105.22007054-.00557105.33 0-.10975444.01039458-.22024556.01039458-.33 0z"/>
      <path fill="rgb(29,113,184)" fill-rule="evenodd" d="M42.13 51.99h.15s.05 0 0 0-.15 0-.18-.08c.00534.02819.01548.05525.03.08z"/>
      <path fill="rgb(29,113,184)" fill-rule="evenodd" d="M42.97998047 52.16997559c.38110351.18933105.82885742.18933105 1.21002197 0 .14953613-.05126954.25-.19189454.25-.34997559s-.10046387-.29870605-.25-.34997559c-.38116455-.18933105-.82891846-.18933105-1.21002197 0-.14953613.05126954-.25.19189454-.25.34997559s.10046387.29870605.25.34997559zM42.78314209 51.82c0-.13867187.08660889-.26257324.21685791-.3100586.34002686-.16955566.73999023-.16955566 1.08001709 0 .13018799.04748536.21685791.17138673.21685791.3100586 0 .1385498-.08666992.26245117-.21685791.30993652-.34002686.16955567-.73999023.16955567-1.08001709 0-.13024902-.04748535-.21685791-.17138672-.21685791-.30993652z"/>
      <path fill="rgb(29,113,184)" fill-rule="evenodd" d="M42.58 51.49H42.41s-.1-.06-.06-.08l.1.06s.06-.08.11-.06l-.07.07s.1-.02.09.01z"/>
      <path fill="rgb(29,113,184)" fill-rule="evenodd" d="M44.93 52.21h-.14v.01h-.02s-.1-.05-.06-.08l.09.06s.06-.07.12-.06l-.07.07s.09-.03.08 0z"/>
      <path fill="rgb(252,199,170)" fill-rule="evenodd" d="M53.29 40.35l-3.38 2.55-.5 1.5c-.3351114.81451182-.81256134 1.56285534-1.41 2.21l-.26-.07-1.57-.4c.00561452-.0565276.00561452-.1134724 0-.17-.17-.44-1.17-.32-2.17-.23l-.15.4c.31030091-.01687583.6010152.15205274.74.43l-.18.32-.73 1.25-.08.14-.5-.3h-.19c-.1839666-.00572483-.35898092-.08073097-.49-.21l-1-.74c-.2278807-.19363808-.32499382-.50051555-.25-.79-.11486948-.12742113-.15639229-.30483675-.11-.47v-.08c-.07444513-.17924424-.07444513-.38075576 0-.56l.36-.94.07-.27c.0843938-.35604764.394478-.61309113.76-.63l3.61-1c.5445057-.16329259 1.11180831-.23758221 1.68-.22l3.67-3.71 2.08 1.99z"/>
      <g opacity=".5">
        <path fill="rgb(252,175,117)" fill-rule="evenodd" d="M46.2 46.07c.00409122-.04323677.00409122-.08676323 0-.13-.2-.41-1.2-.29-2.2-.2l-.15.4c.31030091-.01687583.6010152.15205274.74.43l-.18.32-1-.35c.28421269-.44342246.46217078-.9464963.52-1.47.75313426.3359539 1.6084227.36110945 2.38.07.04280614.31431211.0049525.63434751-.11.93z"/>
      </g>
      <g opacity=".5">
        <path fill="rgb(252,175,117)" fill-rule="evenodd" d="M42.03582764 43.95989258c.08551025-.20202637.26489257-.35302735.48413086-.39990235-.22320557.03588868-.40771485.19006348-.48413086.39990235zm-.04864502.20568847Q41.99389648 44.11797363 42 44.07c.00891113-.03796387.02093506-.07470703.03582764-.10998535-.00598145.01635742-.01123047.03308105-.01586914.05004883-.01055909.05187988-.02148438.10375976-.03277588.15551757zm0-.00012207c-.09100342.65197754-.25787354 1.29101563-.49719239 1.90454102-.11248779.26794434-.05773925.5769043.14001465.789917.22998047.25.57000733.4000244.78997803.1500244-.18029785-.19494628-.22387695-.48010253-.10998535-.7199707.27740478-.50952148.44433594-1.07177734.48999023-1.65002441.07000733-.54003906.35003662-.63000488.72003174-.63000488-.32476807.04675293-.57843017.30456543-.61999512.63000488.00421143.5904541-.13293457 1.17333984-.40002441 1.69995117-.12451172.23608399-.04608154.52819824.17999268.67004395.30371093.2442627.69299316.3560791 1.08001709.31005859v.81994629l-.0800171.14001465-.5-.30004883h-.19000244c-.18395996-.0057373-.35894775-.08068848-.48999023-.20996094l-1-.73999023c-.22790527-.19360352-.3250122-.50048828-.25-.79003906-.11486816-.12744141-.15637207-.30480958-.10998535-.4699707v-.07995606c-.0744629-.1793213-.0744629-.38085938 0-.5600586L41.25 45.32l.41998291-1-.32995605 1.26989746.13000488.27001953c.21801758-.54992676.3909912-1.11657715.51715088-1.694458z"/>
      </g>
      <path fill="rgb(29,29,27)" fill-rule="evenodd" d="M45.6 50.72c-.08.39-1 .53-2 .32-1-.21-1.8-.7-1.72-1.09.08-.39 1-.53 2-.32 1 .21 1.8.7 1.72 1.09z"/>
      <path fill="rgb(29,29,27)" fill-rule="evenodd" d="M45.73 50.1l-3.74-.77-.13.62 3.73.8.14-.65z"/>
      <path fill="rgb(41,41,40)" fill-rule="evenodd" d="M45.73 50.07c-.08.39-1 .53-2 .32-1-.21-1.81-.71-1.73-1.1.08-.39 1-.53 2-.31 1 .22 1.82.73 1.73 1.09z"/>
      <path fill="rgb(60,60,59)" fill-rule="evenodd" d="M45.67 49.96c-.08.39-1 .53-2 .33s-1.74-.69-1.66-1.08c.08-.39.99-.54 1.99-.33 1 .21 1.75.69 1.67 1.08z"/>
      <path fill="rgb(29,29,27)" fill-rule="evenodd" d="M45.05 49.8c-.06.27-.62.37-1.27.23-.65-.14-1.12-.47-1.06-.73.06-.26.63-.37 1.27-.23.64.14 1.12.47 1.06.73z"/>
      <path fill="rgb(29,29,27)" fill-rule="evenodd" d="M44.89 47.81l-1.16-.3c-.11244228.6531588-.44824023 1.24699097-.95 1.68l2.23.43c-.26423853-.56727777-.30703582-1.21280348-.12-1.81z"/>
      <path fill="rgb(60,60,59)" fill-rule="evenodd" d="M45.49 47.4c-.08.36-.53.56-1.21.43-.68-.13-1-.46-1-.88s.62-.54 1.22-.43c.6.11 1.06.55.99.88z"/>
      <path fill="rgb(82,82,80)" fill-rule="evenodd" d="M45.33 47.07c0 .17-.46.23-.94.13-.48-.1-.84-.34-.8-.51.04-.17.46-.24.94-.13.48.11.84.34.8.51z"/>
      <path fill="rgb(252,199,170)" fill-rule="evenodd" d="M48 46.61l-.68.56c-.41030135.35799748-.84102488.69189169-1.29 1-.58.39-1.17 1.14-1.52.78-.63-.49 1-1.75 1-1.75.27516056-.2856586.48649248-.62651652.62-1 .56559752-.1108296 1.15205076.0079002 1.63.33l.24.08z"/>
      <path fill="rgb(32,162,106)" fill-rule="evenodd" d="M47.33 41.96c1.28-.06 1.56 1.14 2.08 2.44.16-.09 0-.1.13-.19.55 0 6.2-4.2 6.63-4.54-1-1.91-2.13-3.41-4.12-3.39-1.47 2.04-2.7 3.11-4.72 5.68z"/>
      <g opacity=".5">
        <path fill="rgb(63,118,171)" fill-rule="evenodd" d="M49.54 44.21c2.32236211-1.34233122 4.53880822-2.86007863 6.63-4.54-.30508074-.69422248-.69831651-1.34625444-1.17-1.94l-5.46 6.48z"/>
      </g>
      <path fill="rgb(252,199,170)" fill-rule="evenodd" d="M64 51.6l-2.28 1.2c-.03901168.13262206-.0857584.26284509-.14.39-.58137763 1.21227558-1.52015931 2.21736526-2.69 2.88l-2.82 1.8c-.84.25-.89-.11-.64-.71l-1.16.8c-.79.48-1.42 0-1.06-.64l-.76.33c-.64.17-1-.13-.51-.78.05348334-.08783715.1136618-.17141835.18-.25l.46-.44c-.65.33-1.32 0-.47-.86 1.36353381-1.55452377 2.87015949-2.97744802 4.5-4.25 1.13939646-.5692577 2.37956578-.90903012 3.65-1l2.46-.82L64 51.6z"/>
      <path fill="rgb(32,162,106)" fill-rule="evenodd" d="M82.45 20.94c2.71 2.25 3.44 4.5 2.94 9.28-.57798804 6.328825-2.48994678 12.46345198-5.61 18-4.69 2.56-11.21 4-18.23 5 .20445995-1.28312308-.51702992-2.53426157-1.73-3 6.31-3 13.31-7.17 15.88-7 .19061368-5.04849415.96237106-10.05820613 2.3-14.93.86-3.51 2.19-6.22 4.45-7.35z"/>
      <g opacity=".5">
        <path fill="rgb(252,175,117)" fill-rule="evenodd" d="M61.54 53.21c-.47 1.18-1.3 1.83-2.65 2.82l-2.82 1.84c-.84.25-.89-.11-.64-.71l-1.16.8c-.79.48-1.42 0-1.06-.64.37.92 1.24.14 2.47-.62-.58 1.11.6.81 1.23.16 1.71897017-.97562112 3.28005064-2.20627851 4.63-3.65z"/>
      </g>
      <rect width="1.4" height="4.28" x="62.654" y="76.558" fill="rgb(51,51,50)" rx="0" ry="0" transform="rotate(-60.000021 63.3535267 78.69773203)"/>
      <path fill="rgb(51,51,50)" fill-rule="evenodd" d="M78.89 71.49l-14.33 8.23c0 .65.45.9 1 .59l12.33-7.08c.58988984-.38444079.96128787-1.02695938 1-1.73v-.01z"/>
      <path fill="rgb(87,87,86)" fill-rule="evenodd" d="M46.27 69.07l14.28-8.16 18.34 10.58-14.33 8.23-18.29-10.65z"/>
      <path fill="rgb(218,218,218)" fill-rule="evenodd" d="M66.37 76.37l-.81.47 1 .58.82-.47-1.01-.58z"/>
      <path fill="rgb(218,218,218)" fill-rule="evenodd" d="M63.14 75.45l1.01.58.82-.47-1.01-.58-.82.47z"/>
      <path fill="rgb(218,218,218)" fill-rule="evenodd" d="M62.75 74.28l-.81.47 1.01.58.81-.47-1.01-.58z"/>
      <path fill="rgb(218,218,218)" fill-rule="evenodd" d="M61.55 73.58l-.82.47 1.01.58.81-.47-1-.58z"/>
      <path fill="rgb(218,218,218)" fill-rule="evenodd" d="M60.34 72.89l-.82.47 1.01.58.82-.47-1.01-.58z"/>
      <path fill="rgb(218,218,218)" fill-rule="evenodd" d="M57.11 71.96l1.01.59.82-.48-1.01-.58-.82.47z"/>
      <path fill="rgb(218,218,218)" fill-rule="evenodd" d="M56.72 70.8l-.81.47 1 .58.82-.47-1.01-.58z"/>
      <path fill="rgb(218,218,218)" fill-rule="evenodd" d="M55.52 70.1l-.82.47 1.01.58.81-.47-1-.58z"/>
      <path fill="rgb(218,218,218)" fill-rule="evenodd" d="M58.83 66.57l.81-.47-1.01-.58-.81.47 1.01.58z"/>
      <path fill="rgb(218,218,218)" fill-rule="evenodd" d="M57.62 65.87l.81-.47-1-.58-.82.47 1.01.58z"/>
      <path fill="rgb(218,218,218)" fill-rule="evenodd" d="M57.23 64.7l-1.01-.58-.81.47 1 .58.82-.47z"/>
      <path fill="rgb(218,218,218)" fill-rule="evenodd" d="M71.66 74.28l.82-.47-1.01-.58-.81.47 1 .58z"/>
      <path fill="rgb(218,218,218)" fill-rule="evenodd" d="M70.46 73.59l.81-.47-1-.58-.82.47 1.01.58z"/>
      <path fill="rgb(218,218,218)" fill-rule="evenodd" d="M63.42 69.52l1.83 1.06.38.22.2.12.51.29.7.4 1.01.58 1.2.7.82-.47-3.31-1.91-.11-.06-2.42-1.4-.81.47z"/>
      <path fill="rgb(218,218,218)" fill-rule="evenodd" d="M63.22 69.41l.82-.47-1.01-.58-.82.47 1.01.58z"/>
      <path fill="rgb(218,218,218)" fill-rule="evenodd" d="M62.02 68.71l.81-.47-1.01-.58-.81.47 1.01.58z"/>
      <path fill="rgb(218,218,218)" fill-rule="evenodd" d="M61.62 67.55l-1-.59-.82.47 1.01.59.81-.47z"/>
      <path fill="rgb(218,218,218)" fill-rule="evenodd" d="M58.63 66.68l-1.01-.58-.82.47 1.01.58.82-.47z"/>
      <path fill="rgb(218,218,218)" fill-rule="evenodd" d="M57.42 65.99l-1.01-.59-.81.47 1.01.59.81-.47z"/>
      <path fill="rgb(218,218,218)" fill-rule="evenodd" d="M56.22 65.29l-1.01-.58-.82.47 1.01.58.82-.47z"/>
      <path fill="rgb(218,218,218)" fill-rule="evenodd" d="M71.47 74.4l-1.01-.58-.82.47 1.01.58.82-.47z"/>
      <path fill="rgb(218,218,218)" fill-rule="evenodd" d="M68.44 73.59l1 .58.82-.47-1.01-.58-.81.47z"/>
      <path fill="rgb(218,218,218)" fill-rule="evenodd" d="M67.23 72.89l1.01.59.81-.47-1-.59-.82.47z"/>
      <path fill="rgb(218,218,218)" fill-rule="evenodd" d="M66.02 72.2l1.01.58.82-.47-1.01-.58-.82.47z"/>
      <path fill="rgb(218,218,218)" fill-rule="evenodd" d="M64.82 71.5l1.01.58.81-.47-1.01-.58-.81.47z"/>
      <path fill="rgb(218,218,218)" fill-rule="evenodd" d="M63.61 70.8l1.01.59.82-.47-1.01-.58-.82.46z"/>
      <path fill="rgb(218,218,218)" fill-rule="evenodd" d="M62.41 70.11l1 .58.82-.47-1.01-.58-.81.47z"/>
      <path fill="rgb(218,218,218)" fill-rule="evenodd" d="M61.2 69.41l1.01.58.81-.47-1-.58-.82.47z"/>
      <path fill="rgb(218,218,218)" fill-rule="evenodd" d="M59.99 68.72l1.01.58.82-.47-1.01-.59-.82.48z"/>
      <path fill="rgb(218,218,218)" fill-rule="evenodd" d="M57.61 67.27l-1-.58-.82.47 1.01.58.81-.47z"/>
      <path fill="rgb(218,218,218)" fill-rule="evenodd" d="M54.59 66.46l1 .58.82-.47-1.01-.58-.81.47z"/>
      <path fill="rgb(218,218,218)" fill-rule="evenodd" d="M55.2 65.87l-1-.58-.82.47 1.01.59.81-.48z"/>
      <path fill="rgb(218,218,218)" fill-rule="evenodd" d="M70.45 74.98l-1.01-.58-.81.47 1.01.58.81-.47z"/>
      <path fill="rgb(218,218,218)" fill-rule="evenodd" d="M67.42 74.18l1.01.58.82-.47-1.01-.58-.82.47z"/>
      <path fill="rgb(218,218,218)" fill-rule="evenodd" d="M68.04 73.59l-1.01-.58-.81.47 1.01.58.81-.47z"/>
      <path fill="rgb(218,218,218)" fill-rule="evenodd" d="M66.83 72.89l-1-.58-.82.47 1.01.58.81-.47z"/>
      <path fill="rgb(218,218,218)" fill-rule="evenodd" d="M65.63 72.2l-1.01-.58-.81.47 1 .58.82-.47z"/>
      <path fill="rgb(218,218,218)" fill-rule="evenodd" d="M64.42 71.5l-1.01-.58-.81.47 1.01.58.81-.47z"/>
      <path fill="rgb(218,218,218)" fill-rule="evenodd" d="M61.39 70.69l1.01.58.82-.47-1.01-.58-.82.47z"/>
      <path fill="rgb(218,218,218)" fill-rule="evenodd" d="M62.01 70.11L61 69.53l-.81.47 1.01.58.81-.47z"/>
      <path fill="rgb(218,218,218)" fill-rule="evenodd" d="M58.78 69.19l1.21.69.81-.47-1.2-.69 1.01-.59-1.01-.58-1.01.58-.33.19-.49.28.68.39.33.2z"/>
      <path fill="rgb(218,218,218)" fill-rule="evenodd" d="M55.79 68.32l.81-.47-1.01-.58-.81.47 1.01.58z"/>
      <path fill="rgb(218,218,218)" fill-rule="evenodd" d="M54.39 66.57l-.82.47 1.01.59.82-.47-1.01-.59z"/>
      <path fill="rgb(218,218,218)" fill-rule="evenodd" d="M54.19 66.46l-1.01-.58-.81.47 1 .58.82-.47z"/>
      <path fill="rgb(218,218,218)" fill-rule="evenodd" d="M69.44 75.57l-1.01-.58-.81.47 1 .58.82-.47z"/>
      <path fill="rgb(218,218,218)" fill-rule="evenodd" d="M67.42 75.34l.81-.47-1-.58-.82.47 1.01.58z"/>
      <path fill="rgb(218,218,218)" fill-rule="evenodd" d="M67.03 74.18l-1.01-.59-.82.47 1.01.59.82-.47z"/>
      <path fill="rgb(218,218,218)" fill-rule="evenodd" d="M64.81 72.9l-.81.47 1.01.58.81-.47-1.01-.58z"/>
      <path fill="rgb(218,218,218)" fill-rule="evenodd" d="M64.62 72.78l-1.01-.58-.82.47 1.01.58.82-.47z"/>
      <path fill="rgb(218,218,218)" fill-rule="evenodd" d="M63.41 72.09l-1.01-.59-.81.48 1 .58.82-.47z"/>
      <path fill="rgb(218,218,218)" fill-rule="evenodd" d="M61.39 71.86l.81-.47-1-.58-.82.47 1.01.58z"/>
      <path fill="rgb(218,218,218)" fill-rule="evenodd" d="M61 70.69l-1.01-.58-.82.47 1.01.58.82-.47z"/>
      <path fill="rgb(218,218,218)" fill-rule="evenodd" d="M58.59 69.3l-.37-.21-.64-.37-.82.47.64.37.37.21 1.21.7.81-.47-1.2-.7z"/>
      <path fill="rgb(218,218,218)" fill-rule="evenodd" d="M52.75 68.91l1.01.58.82-.47-1.01-.58-.82.47z"/>
      <path fill="rgb(218,218,218)" fill-rule="evenodd" d="M52.36 67.74l-.81.47 1 .59.82-.47-1.01-.59z"/>
      <path fill="rgb(218,218,218)" fill-rule="evenodd" d="M51.16 67.05l-.82.47 1.01.58.81-.47-1-.58z"/>
      <path fill="rgb(135,135,135)" fill-rule="evenodd" d="M70.17 67.7l-2.42 1.37c-.12668.0595688-.27332.0595688-.4 0l-3.65-2.08c-.05086024-.01516001-.08572173-.06192844-.08572173-.115 0-.05307156.03486149-.09983999.08572173-.115l2.42-1.39c.12428898-.06945253.27571102-.06945253.4 0l3.65 2.1c.05086024.01516001.08572173.06192844.08572173.115 0 .05307156-.03486149.09983999-.08572173.115z"/>
      <path fill="rgb(74,74,73)" fill-rule="evenodd" d="M46.22 69.31l-3.95-14.42c-.5270586.45288735-.79026296 1.14097872-.7 1.83L45 69.22c.14.53.69.57 1.22.1v-.01z"/>
      <path fill="rgb(74,74,73)" fill-rule="evenodd" d="M60.59 65.47l3 14.7L45.27 69.6l-3-14.71 18.32 10.58z"/>
      <path fill="rgb(51,51,50)" fill-rule="evenodd" d="M64.55 79.89l-3.94-14.41c-.52757336.44873557-.79433697 1.13255215-.71 1.82l3.42 12.51c.15.52.69.57 1.22.09l.01-.01z"/>
      <path fill="rgb(218,218,218)" fill-rule="evenodd" d="M52.87 68.14c.11.62-.28.87-.86.56-.62328261-.37420754-1.07007931-.9831482-1.24-1.69-.1-.62.29-.87.87-.56.6258639.36922169 1.07107534.98093496 1.23 1.69z"/>
    </g>
  </g>
</svg>
