<svg xmlns="http://www.w3.org/2000/svg" width="115" height="150.236" viewBox="0 0 115 150.236">
  <g>
    <ellipse cx="57.5" cy="88.5" fill="rgb(213,227,220)" rx="57.5" ry="57.5"/>
    <g>
      <g opacity=".4">
        <path fill="rgb(32,162,106)" fill-rule="evenodd" d="M46.51267976 139.63825986c0-2.44114582-1.60002559-4.89079737-4.61607381-6.80458765-3.66924055-2.02748302-7.78316555-2.97041768-11.91219047-2.7303408.12800205-1.7011469-.66401062-3.40229382-2.48003966-4.54206225-4.22406754-2.76436373-12.36019763-2.1179279-18.16029037 1.44597488-5.80009274 3.56390278-7.0801132 8.69286072-2.84804554 11.45722445 2.16803467 1.41195194 5.36808583 1.93080174 8.75213994 1.61608957.18400295 2.3135598 1.69602712 4.6016024 4.5840733 6.37930092 6.13609811 3.75953467 16.04025648 3.77654614 22.13635395 0 3.03204848-1.86275587 4.55207279-4.31240743 4.55207279-6.75355325.00129846-.02301225-.00141378-.0460815-.00800013-.06804587z"/>
      </g>
      <path fill="rgb(34,34,34)" fill-rule="evenodd" d="M17.19221094 126.4798885c-.0814126.23996704-.12204563.49341303-.12000192.74850463.05461731.2585589.1213685.51405035.2000032.76551611.0786347.25146577 2.28803658 1.22482578 2.68004285 1.36091753.39200627.13609176 1.64802635 1.31838886 2.53604055 1.70114692.84707164.48538027 1.72683131.90330723 2.63204208 1.25034298.43200691 0 1.13601817-.95264227 1.13601817-.95264227s.35200563-.1956319.32000512-.95264227c-.03200052-.75701038-3.77606038-1.99884763-3.77606038-1.99884763l-5.60808967-1.922296z"/>
      <path fill="rgb(34,34,34)" fill-rule="evenodd" d="M21.55228065 125.22103978c.12000192 0 1.52802444 1.41195193 1.80002878 1.54804369.27200435.13609175 3.05604887 2.05838776 3.20005117 3.03654724.10891464.70749155-.2110368 1.41164824-.80001279 1.76068705-.79296611.02350036-1.58218948-.12406588-2.3200371-.43379246-.86401381-.2721835-2.71204336-1.8712616-2.92804681-1.95631895-1.11931826-.52954957-2.19050475-1.16732534-3.20005117-1.90528454-.2365728-.50605723-.43973351-1.02900565-.60800972-1.56505516l4.85607764-.48482687z"/>
      <path fill="rgb(27,76,54)" fill-rule="evenodd" d="M21.60028142 90.253965s0 6.24320917-.07200115 7.19585144c-.07200115.95264227.51200819 9.6710202.51200819 10.9043517 0 1.23333151-.72001152 3.6149372-.72001152 4.36344183 0 .74850464.0560009 5.9540142.24000384 6.53240415.35680151 1.9329645.57344205 3.89220984.64801036 5.8604511-.08000128.73149318-1.25602008 1.5735609-1.92803083 1.88827308-.86878723.20357471-1.76072101.2723339-2.64804234.20413763-.73953395-.31992112-1.39744145-.82122024-1.9200307-1.46298634-.52000831-.85057346-.4880078-5.02688913-.51200818-5.16298088-.02400039-.13609176-1.21601945-7.48504642-1.80002879-9.2542392-.58400933-1.7691928-.64001023-7.6551611-.64001023-7.6551611s-1.25602008-7.91033315-1.0880174-9.1776876c.16800269-1.26735445 1.72802763-4.72918842 2.40003838-4.95033751.67201074-.2211491 7.52812037.7144817 7.52812037.7144817z"/>
      <g opacity=".39">
        <path fill="rgb(29,29,27)" fill-rule="evenodd" d="M13.4001503 111.3226695c.58400934 1.7691928 1.80002879 9.11814745 1.80002879 9.2542392 0 .13609176 0 4.32091316.51200818 5.16298089.39476377.5283243.8983846.9531919 1.47202354 1.24183724-.18605644-.48534423-.34369338-.98246159-.47200755-1.48850355-.11200179-.65494156-.68001087-2.42413435-.68001087-2.42413435l1.72802763 1.86275587-1.0320165-3.0535587-.36000576-1.08873403 3.07204912 2.42413435s-2.94404707-3.01953577-3.2400518-3.51286837c-.39384898-1.4242432-.63801013-2.89051059-.72801165-4.37194757-.15656736-1.25215355-.39447314-2.49128212-.71201138-3.70850027-.20800333-.96965374-.64801036-2.33057126-.64801036-2.33057126.09963761-.60559179.26612416-1.19657169.49600793-1.76068706.31200499-.64643583-.2000032-2.2880426-.2000032-2.2880426l.18400294-2.6112605 1.38402213 1.7011469-1.3200211-2.05838776.20800332-1.24183724 1.64002623-1.41195194.40800652-2.44114582c-.95545217-2.38315814-2.126298-4.66204706-3.4960559-6.80458765-.80601036 1.30104046-1.39592344 2.73956219-1.74402789 4.25286728-.16800268 1.16528564 1.12801804 9.10964172 1.12801804 9.10964172s0 5.84343964.6000096 7.58711523z"/>
      </g>
      <path fill="rgb(34,34,34)" fill-rule="evenodd" d="M7.9520632 129.64402175s-.49600794.26367777-.52800845.47632113c-.00402985.28631117.02553197.57203952.0880014.85057346.4293733.71868079.73293179 1.51401256.89601433 2.34758274.29373955 1.4783069 1.26819173 2.69980777 2.59204145 3.2491906 1.10227765.28085722 2.2428967.3499901 3.36805385.20413763.2560041 0 .66401062-.4933326.56000896-1.59057236-1.57555461-1.065149-3.08778589-2.23265333-4.5280724-3.4958569l-2.44803915-2.0413763z"/>
      <path fill="rgb(34,34,34)" fill-rule="evenodd" d="M12.39213419 129.0401146s.56000895 2.13493937.7440119 2.50068596c.67274901 1.17862427 1.27139988 2.40329055 1.79202865 3.6659716-.04800077.28068923-.1440023.96965373-.73601177 1.16528563-.9407281.23394685-1.92269706.20168752-2.84804554-.09356308-.91541774-.34111397-1.68306288-1.02427026-2.16003454-1.92229601-.45922433-1.0924471-.81044884-2.23266643-1.04801676-3.40229383l-.5760092-.69747023c-.06625907-.7093452-.09297287-1.42223808-.08000129-2.13493938.07200116-.18712616 4.91207855.91861934 4.91207855.91861934z"/>
      <path fill="rgb(27,76,54)" fill-rule="evenodd" d="M13.40815043 127.78126588c-.17365115.51324846-.39614196 1.00630303-.66401062 1.47149208l-3.0080481 1.41195194-1.60002558-.29770071s-.45600729-.26367777-.93601496-.6124129c-.2596878-.16731886-.50349978-.36102235-.72801164-.57838994-.16000256-.25517204-.12800205-2.22850246-.42400678-3.9636723-.29600474-1.73516986-.8000128-10.30044456-.8000128-10.30044456s.35200563-8.7609066-.26400422-11.38917858c-.61600985-2.62827198-.68001087-8.42067721-.71201138-9.48389403.0694565-1.70904268.22702902-3.41274854.47200755-5.10344074 0-.14459749.49600793-.51034407 1.30402085-.85057345 2.27203633-.92712507 7.20011512-1.48850355 12.00019187 4.4314877 0 0-.85601368 3.67447733-1.13601816 4.59309666-.47931568.97512928-1.08824473 1.87176798-1.8080289 2.66229492-.7197842.79052694-1.12801805.76551611-1.18401894 1.1057455-.0560009.34022938-.26400422 9.61148005-.52000832 10.40251336-.18310899 1.60301197-.2152689 3.2214533-.09600153 4.83125723.04800077.7144817-.06400102 7.88481594-.04000064 8.2420568.02400038.35724084.21600345 2.99401856.1440023 3.42781102z"/>
      <g opacity=".39">
        <path fill="rgb(29,29,27)" fill-rule="evenodd" d="M7.20005117 129.7545963c-.2596878-.16731887-.50349978-.36102236-.72801164-.57838995-.16000256-.25517204-.12800205-2.22850246-.42400678-3.9636723-.29600474-1.73516986-.8000128-10.30044456-.8000128-10.30044456s.35200563-8.7609066-.26400422-11.38917858c-.61600985-2.62827198-.68001087-8.42067721-.71201138-9.48389403.0694565-1.70904268.22702902-3.41274854.47200755-5.10344074 0-.14459749.49600793-.51034407 1.30402085-.85057345-.23200371 1.4289634-.71201139 4.38895903-.8000128 4.6271196-.0880014.23816056.09600154 3.56390278.12000192 4.36344183.02400039.79953904.72001152 6.5494156.72001152 6.5494156l.64801036 5.28206117s.0880014 9.24573347 0 9.73056034c-.0880014.48482687-.12800205 3.98068377-.09600154 4.25286728.03200051.2721835.47200755 4.55907372.47200755 4.55907372l.0880014 2.30505407z"/>
      </g>
      <g opacity=".39">
        <path fill="rgb(29,29,27)" fill-rule="evenodd" d="M19.55224867 116.49415612l1.16801868-.30620645-.2560041 1.53953796-.28000447 1.70114691s.59200946.20413763.66401062 0c.07200115-.20413763.84801356.32321792.84801356.32321792-.02533062-.18121909-.0627591-.36029183-.1120018-.53586128-.18400294-.60390716-.24000383-5.77539377-.24000383-6.53240414 0-.75701038.72801164-3.12160459.72001151-4.36344183 0-.42528673-.07200115-1.74367559-.16000256-3.33424795l-.72001151 3.40229382.2880046 1.76919279v1.5735609l-.96001535 2.77286946-.96001535 1.99034189z"/>
      </g>
      <path fill="rgb(252,199,170)" fill-rule="evenodd" d="M40.42458241 75.22433203c0 .28068924-3.28005244 2.25401966-3.95206319 2.19447952-.67201074-.05954015-3.72005948-2.60275478-3.86406178-2.755858-.1440023-.15310322-2.0880334-2.0413763-2.63204209-2.55172037-.5440087-.51034407.52000832-2.5091917.8880142-3.28321354l.1440023-.28068924 2.8640458.22965483 1.82402916 1.51402075c.15200243.12758602.84001343.79103332 1.64802635 1.59057237l1.05601689 1.05471108c.7376534.69681734 1.41504399 1.46256523 2.02403236 2.2880426z"/>
      <path fill="rgb(250,211,190)" fill-rule="evenodd" d="M42.04860838 72.79169194l-.92801484 1.80321573c-.42723415.9040637-1.01703347 1.71030239-1.73602776 2.37309994-.86023179.60068638-1.92642105.76573948-2.91204656.45080394-.68001087-.05954015-3.72005948-2.61976625-3.86406178-2.755858-.1440023-.13609175-2.0880334-2.0413763-2.63204209-2.55172037-.5440087-.51034407.52000832-2.5091917.8880142-3.28321354.27200435.34873512.92801484 1.52252649.92801484 1.52252649s-.4000064 1.4799978-.41600665 1.76919278c.17335616.62336639.52929474 1.17164848 1.01601624 1.56505516.64001024.64643583 2.34403748 2.16045658 2.34403748 2.16045658l.8000128.53586128c.18403058.14262173.37944554.26785004.58400933.37425232.26400422.11057455.38400614 0 .70401126 0 .32000512 0 .68001087.05954014 1.00801612 0 .43419232-.13635916.77609689-.49349461.91201458-.95264227l.31200499-.78252758c.2442863-.36707592.29841006-.84021843.1440023-1.25884872-.0880014-.14459748-.2320037-.2466663-.29600473-.40827525-.05430309-.17395504-.05430309-.36190624 0-.53586128.1316543-.49610488.33111877-.96896498.59200946-1.4034462.10400167-.1445975.33600538-.58689569.49600793-.65494157l1.24001983-.56137848.81601305 2.59424904z"/>
      <path fill="rgb(32,162,106)" fill-rule="evenodd" d="M34.40048609 68.77698523c-.43395774.77205677-.97315946 1.47145735-1.60002558 2.07539923-.91572478.61553201-1.88892838 1.1286113-2.90404644 1.53103223l-.71201138-1.04620536-1.88003006-8.60780337 2.52004029.14459749c.6613494.64353277 1.25424434 1.3623209 1.76802827 2.1434451.48000768.85057346 1.72802763 2.37309995 1.80802891 2.55172037.08000128.17862043 1.00001599 1.20781431 1.00001599 1.20781431z"/>
      <path fill="rgb(69,196,138)" fill-rule="evenodd" d="M27.86438158 74.98617146s1.1760188-2.67080065 1.67202674-4.31240742c.53738443-2.01904293.88048415-4.09089957 1.02401637-6.18366903-.10157761-.63903252-.38012216-1.23132956-.8000128-1.7011469-2.06151595-1.0001271-4.18361509-1.85260143-6.35210156-2.55172038-1.19201906-.2211491-3.74405987.30620645-5.60008954 1.04620535-1.8845331.75301297-3.67204557 1.75612502-5.32008507 2.98551283-1.12801804.97815948-1.88003006 1.5990781-2.08803339 2.44114582-.20800332.84206773-1.76002814 12.26526924-2.01603223 12.30779791-.2560041.04252868-.90401446 1.70114692-.90401446 1.70114692-.77579098.90025628-1.44233523 1.90039501-1.98403172 2.9770071-.68711171 1.4868418-1.13595398 3.08520455-1.32802123 4.7291884.57444906 2.20585267 2.00615468 4.0467115 3.93606293 5.06091207 3.30405283 1.81172146 9.70415517 1.24183725 10.944175.55287275.999949-.62628581 1.8275883-1.52089753 2.40003837-2.59424904.1440023-.40827526 2.45603927-6.55792135 2.88004605-7.39998907.42400678-.84206772 3.53605654-9.0586073 3.53605654-9.0586073z"/>
      <path fill="rgb(252,199,170)" fill-rule="evenodd" d="M42.0566085 72.76617474l-.93601496 1.82873293c-.42723415.9040637-1.01703347 1.71030239-1.73602776 2.37309994-.86023179.60068638-1.92642105.76573948-2.91204656.45080394-.41694352-.19028827-.74324618-.55256386-.90401445-1.00367668-.0333895-.09931064-.05750608-.20187367-.07200116-.30620645-.00146634-.78083621.09265902-1.5585547.28000448-2.3135598.26401785-.51122262.61065024-.96901776 1.02401638-1.3524118.04800076-.05954013.27200434-.26367776.56800908-.52735553.85601368-.77402185 2.40003837-2.12643365 2.4960399-2.27953687.46464878-.37613564.94802396-.72537708 1.44802316-1.04620535.50500233.23274865.95163201.58816279 1.30402085 1.03769962.58400934.73149317-.56000895 3.13861605-.56000895 3.13861605z"/>
      <path fill="rgb(250,211,190)" fill-rule="evenodd" d="M35.8085086 75.25835497s.09600154-1.01218242.10400167-1.06321682c.00800012-.05103441.376006-1.33540033.376006-1.33540033l.59200947-.5188498s-.7440119.56137847-.80001279.62091862l-.42400678 1.1567799-.15200243 1.10574549c0 .04252867-.04000064.79103331-.04000064.79103331l.3440055-.75701037z"/>
      <path fill="rgb(252,175,117)" fill-rule="evenodd" d="M40.63258574 73.27651881l-4.08006524 1.43746915.64001023-3.82758056 4.19206703-1.46298634-.75201202 3.85309775z"/>
      <g opacity=".39">
        <path fill="rgb(29,29,27)" fill-rule="evenodd" d="M10.95211116 82.05443688c-.04800077-.22965483.44000704-11.16802948.32800525-11.27860403-.60293896.49316315-1.179825 1.02132146-1.72802763 1.58206663-.27259626 2.24135475-.6625412 4.46480335-1.16801868 6.65999016-.2560041 0-.90401446 1.70114692-.90401446 1.70114692-.77579098.90025628-1.44233523 1.90039501-1.98403172 2.9770071-.68711171 1.4868418-1.13595398 3.08520455-1.32802123 4.7291884.1490595.62419561.38070747 1.22273293.688011 1.77769853.0560009-.40827526.0880014-.70597597.0880014-.70597597s.89601433-4.38895903.93601497-4.64413107c.04000064-.25517203 1.56002494-1.16528563 1.56002494-1.16528563l-.30400486 3.33424795 2.40003838 2.3135598s6.91211052-.73149318 7.20011513-1.0802283c.2880046-.34873511 4.7280756-1.49700928 5.00808007-1.7011469.57167011-.18336225 1.15433973-.32544808 1.74402789-.42528673.4000064-1.02068815.73601177-1.85425014.87201394-2.12643364.13600218-.27218351.24800397-.55287275.46400742-1.09723976-1.8320293.10206881-9.04014455.4678154-10.76817218.20413763-1.99203185-.2721835-3.06404899-.82505626-3.10404963-1.05471109z"/>
      </g>
      <path fill="rgb(255,203,166)" fill-rule="evenodd" d="M26.92036649 65.04296776c-.08291087.08033783-.17113901.15424413-.26400423.2211491l-1.4640234 1.1057455-1.00801612 1.42045766-.12000192-1.03769961s-.59200947-.15310323-1.29602072-.28068924c-.35912085-.0652693-.70044912-.21333257-1.000016-.43379247-.68209784-.5396256-1.27892889-1.19140388-1.76802826-1.93080174-1.36002175-1.8202272-.96001535-2.71332933-.96001535-2.71332933s1.53602456-.63793009 1.83202929-.78252758c.46700257-.42023631.82734712-.95835662 1.04801676-1.56505516.0560009-.34022938 1.5200243-1.25884871 1.5200243-1.25884871s3.51205616 3.57240852 4.0400646 4.133787c.52800844.56137848-.50400806 3.04505297-.56000895 3.12160458z"/>
      <path fill="rgb(250,211,190)" fill-rule="evenodd" d="M26.65636226 65.26411686l-1.4640234 1.1057455-1.00801612 1.42045766-.12000192-1.03769961s-.59200947-.15310323-1.29602072-.28068924c-.35912085-.0652693-.70044912-.21333257-1.000016-.43379247l.44000704-.0510344c.36425143-.0435567.72342094-.12619998 1.07201714-.2466663.09600154-.09356309.04800077-.42528673 0-.6889645-.0766796-.45946758-.17818258-.91385898-.30400486-1.36091754 1.25597697.4434961 2.48500134.96901614 3.68005884 1.5735609z"/>
      <path fill="rgb(255,203,166)" fill-rule="evenodd" d="M32.6564582 56.74137083c.00637575 1.17621755-.0497144 2.35187974-.16800268 3.5213741-.18670746.81902491-.49166413 1.60234134-.90401446 2.32206554-.29233754.43305365-.55950658.88469963-.80001279 1.3524118-.0560009.22965483-.10400166.63793009-.10400166.63793009v1.08873402c-.18164096.12980382-.37451832.24088187-.57600921.33172365l-.30400486-.05954014c-.42330094.6734424-.88553136 1.31828417-1.38402213 1.93080174-.4729899.26859526-1.01056986.38112939-1.5440247.32321792-.44000703-.08505735-1.96803146-1.60758383-2.64804233-2.41562862-.48582195-.6394111-.89683529-1.33916521-1.22401957-2.08390497-.3271843-.74473975-.67201075-2.35608847-.84001344-2.84942107-.14430067-.5583076-.25123646-1.12677819-.32000511-1.70114692-.06876865-.57436872 1.11201778-4.678154 3.064049-5.30757836 1.9520312-.62942436 6.88011 1.79471 6.88011 1.79471l.87201394 1.11425122z"/>
      <path fill="rgb(252,199,170)" fill-rule="evenodd" d="M29.1044014 82.06294262l-.1440023.10206881-.96001534-.16160896-1.28002047-.04252867.64801036.10206882.72001151.52735554-.12800204.77402184s-.0560009.05103441-.13600218.07655161c-.1763183.0431231-.3555311.07156175-.53600857.08505735l.2000032.45930967-.67201075.77402184h-.61600985l-1.25602008.20413763c-.38288801.2329918-.78446983.4293942-1.20001919.58689569-.5384826.00633889-1.07571445-.05649144-1.60002558-.18712616-.3440055-.08505735-5.80809287 1.48850354-6.72810758 1.64160677-.92001471.15310322-5.60008954-.32321792-6.40010234-1.19930858-.80001279-.87609066-1.01601624-3.87861496-.95201522-4.11677552.06400103-.23816057.6560105-5.72435936.6560105-5.72435936l.88001406.12758601 3.70405923.51034408s1.00801612 1.05471108.96801548 1.21632004c-.04000064.16160896-.4000064 1.70114691-.76001216 3.6404544 1.17925676.30829988 2.38086685.51031807 3.59205744.60390715.55200883-.06804588 4.94407905-.39976953 5.128082-.51884981.29545253-.30121542.56332648-.63158752.80001279-.98666521.10400166-.15310322 1.64802635-1.96482468 1.64802635-1.96482468s1.18401893-.50183834 1.24801995-.4933326c.29199691-.20957803.5724609-.43676985.84001344-.68045877.15636516.0509537.3027379.13164735.4320069.23816056.18400295.16160896-.29600473.85057346-.3440055.94413654-.04800076.09356308 1.53602456.39976952 1.72802763.43379246.19200307.03402294.06400103.416781.10400167.68045877.00946644.03966096.00268496.08172931-.01866312.11577523-.02134808.0340459-.05526383.05688149-.09333867.0628452-.08978572.01901977-.18221864.01901977-.27200435 0-.57371604-.06747238-1.15090218-.09588276-1.72802763-.08505735-.34554701.2027556-.67947262.42713434-1.000016.67195303-.32054337.24481868.84801357.11908028.92801484 0 .54105598.0496001 1.07666218.15210226 1.60002559.30620644l.80001279.28919498c.12974848.1791805.24483685.36983749.3440055.56988421.1440023.15310322-.01600026.31471218-.1440023.416781z"/>
      <path fill="rgb(34,34,34)" fill-rule="evenodd" d="M31.20043492 59.68435499c-.69905806-.00814662-1.3967431-.06782996-2.08803338-.17862043-1.15201842-.1956319-1.376022 0-1.60002559.55287275-.23811678.47464538-.5053656.932109-.80001279 1.36942326l-1.44802315.14459749-.4560073.85057346-.46400741-.1956319s.36000575-1.92229601-.62400998-2.37309994c-.98401574-.45080393-.89601433.17862042-1.04001663.37425232l-.4320069.62942436c-.19544647-.16618756-.3678205-.36090986-.5120082-.57838995-.03643632-.67706985-.03643632-1.35580071 0-2.03287056.16970139-1.69925092.52407139-3.37186415 1.05601689-4.98436046.55200883-1.5735609 3.87206191-2.55172037 5.79209261-2.13493937 1.89894857.55088378 3.45385131 2.0001544 4.21606742 3.92964937.30905582 1.3295758.30905582 2.71915384 0 4.04872965l-.3440055.4678154-1.25602009.11057455z"/>
      <g opacity=".39">
        <path fill="rgb(29,29,27)" fill-rule="evenodd" d="M14.20816322 76.28754885c-.25012594.57994828-.47176116 1.1733132-.66401061 1.77769852.02333216.47599815.02333216.95296526 0 1.4289634 0 .1445975-.44000704 1.39494048-.44000704 1.39494048-.73189196.01267124-1.45973469.11832499-2.16803466.31471218-.26402362.09799378-.50829634.24804885-.72001152.4422982l1.5200243-.37425233 1.8320293.18712616c.7936387-.29206389 1.5408663-.71080046 2.21603543-1.24183724.53600857-.57838995 1.50402405-3.68298307.58400934-4.49953359-.9200147-.81655051-2.16003454.56988422-2.16003454.56988422z"/>
      </g>
      <path fill="rgb(250,211,190)" fill-rule="evenodd" d="M26.24035561 78.62662585l-1.0880174.50183834 1.08001728-.9101136c.30941859-.06362425.60507669-.18763137.87201394-.36574658l.16000256-.20413763c.18400294.16160896-.29600474.85057346-.3440055.94413654l-.68001088.03402293z"/>
      <path fill="rgb(250,211,190)" fill-rule="evenodd" d="M27.27237211 83.9767329v-.45080394l.2000032.45930967-.67201074.77402184h-.61600985l-1.25602009.20413763c-.382888.2329918-.78446982.4293942-1.20001918.58689569-.5384826.00633889-1.07571445-.05649144-1.60002559-.18712616-.3440055-.08505735-5.80809287 1.48850354-6.72810758 1.64160677-.9200147.15310322-5.60008954-.32321792-6.40010233-1.19930858-.8000128-.87609066-1.000016-3.87861496-.93601497-4.11677552.06400103-.23816057.6560105-5.72435936.6560105-5.72435936l.88001406.12758601c-.11200179.65494157-.51200818 2.9259727-.5440087 3.28321354-.0320005.35724086-.6320101 3.25769634-.59200946 3.59792572.0702471.76909692.27081495 1.51833152.59200946 2.21149099.58416994.3442768 1.22040545.57743461 1.88003007.6889645.65962461.11152989 3.440055.11908028 3.90406242.20413763 1.22604637-.06026684 2.44578338-.22236986 3.64805833-.48482687.88774795-.22408766 1.788361-.38604405 2.6960431-.48482687.43002044.06229193.8660003.06229193 1.29602073 0 .02280374-.0629571.02280374-.1326748 0-.1956319l.98401574.29770071 1.31202097-.51034407c.46008987-.1032258.92995433-.14889985 1.40002239-.13609175.2446987.02661501.49131307.02661501.73601177 0l.36000575-.58689569z"/>
      <path fill="rgb(250,211,190)" fill-rule="evenodd" d="M27.81638081 83.44087161c-.1763183.0431231-.3555311.07156175-.53600857.08505735h-1.62402597l1.13601817-.34873512 1.02401637.26367777z"/>
      <path fill="rgb(250,211,190)" fill-rule="evenodd" d="M26.59236124 79.41765917l1.06401701.17862042s.53600858.18712616.97601561.29770071c-.08978571.01901978-.18221863.01901978-.27200435 0-.57371603-.06747237-1.15090217-.09588275-1.72802763-.08505734-.345547.2027556-.67947262.42713434-1.00001599.67195303h-.49600793c.17184178-.19725345.35343478-.38464457.5440087-.56137848l.91201458-.50183834z"/>
      <path fill="rgb(250,211,190)" fill-rule="evenodd" d="M29.1044014 82.06294262l-.1440023.10206881-.96001534-.16160896-1.28002047-.04252867.64801036.10206882H25.1763386l.99201586-.4422982h1.08001727l1.48002367.2466663.376006.1956319z"/>
      <path fill="rgb(32,162,106)" fill-rule="evenodd" d="M14.6001695 77.79306387c-.98109303.09441557-1.96922461.06586717-2.94404708-.08505735-1.10040485-.30265045-2.15205218-.77856447-3.12004989-1.41195194l.26400422-3.18114472 1.09601753-5.83493391c.12291242-.44193083.27530111-.87398319.45600729-1.29287165.48558107-.39891557.99026482-.77083059 1.51202417-1.11425123.52175935-.34342065 4.13606614.01701147 4.36006972 3.13861605.22400358 3.12160459-1.20001919 7.24688585-1.20001919 7.24688585l-.42400678 2.5347089z"/>
      <path fill="rgb(250,211,190)" fill-rule="evenodd" d="M42.86462402 69.48303223l.02685547.02209472c.04292298.164917.09268189.32788086.1491394.48815918.07104493.22814942.12718201.46118164.16799927.69750977.04800415.17016601.1360016.51037598.20001221.68896484.04246521.28173828.04246521.56884766 0 .85058594-.09420776.26635742-.20100403.52758789-.32000732.7824707l-.32800293.39978028-1.7760315.76550293c.06088257.07019043.15435791.09667968.2400055.06811523.65431213-.19750977 1.29351806-.4477539 1.91203308-.74853516.20593261-.36022949.38772583-.73535156.54400634-1.12280273.01046753-.40222168-.02174377-.80456543-.0960083-1.19921875-.08799743-.21264648-.19999694-.58691406-.19999694-.58691406l-.12800599-.78259278-.36514282-.30102539c-.00927734-.03564453-.018219-.07141113-.02685547-.10717773v.085083z"/>
      <path fill="rgb(53,53,53)" fill-rule="evenodd" d="M41.66460224 88.42523207c-.03881056-.13122486-.02236674-.2738814.04509981-.39125847.06746656-.11737707.17936733-.19801207.30690582-.22115442.27527777-.0879202.5705324.04406665.70401125.31471218 1.88003007 5.03539486 9.8561576 26.58892624 11.72818753 31.6243211-.02830862.22797977-.1569358.42804486-.34645125.5388659-.18951545.11082103-.4173138.1191793-.6135641.02251258L41.66460224 88.42523207z"/>
      <path fill="rgb(53,53,53)" fill-rule="evenodd" d="M35.55250451 88.42523207c.0360247-.13239048.01735183-.2748252-.05135044-.39169598-.06870226-.11687078-.18094042-.19713137-.30865532-.22071691-.27527777-.0879202-.5705324.04406665-.70401125.31471218-1.87202994 5.0439006-9.84815747 26.59743197-11.72818753 31.63282683.03147773.22617242.16060959.423688.34903486.53387155.18842528.11018355.41446873.12036024.61098049.02750693l11.83218919-31.8965046z"/>
      <path fill="rgb(53,53,53)" fill-rule="evenodd" d="M39.89657397 89.27580552c-.0389058-.13145406-.02131807-.2744589.04807036-.3908575.06938842-.1163986.18351767-.19434806.3119354-.21304965.27319124-.09056195.56786105.04267755.69601112.31471218 1.88003007 5.02688912 9.8561576 26.58892624 11.73618766 31.6243211-.03147773.22617242-.16060959.423688-.34903486.53387155-.18842528.11018354-.41446873.12036024-.61098049.02750693l-11.83218919-31.8965046z"/>
      <path fill="rgb(53,53,53)" fill-rule="evenodd" d="M37.32053278 89.27580552c.03605774-.13135802.01723847-.27285898-.05166123-.38843775-.0688997-.11557878-.18122413-.19407044-.30834453-.2154694-.27545028-.09156402-.57286076.04138656-.70401125.31471218-1.85602968 4.98436045-9.8561576 26.54639756-11.72818753 31.58179242.03147773.22617243.16060959.423688.34903486.53387155.18842528.11018355.41446873.12036024.61098049.02750693l11.83218919-31.85397593z"/>
      <path fill="rgb(88,89,91)" fill-rule="evenodd" d="M38.88055772 92.20177821c2.21603544 0 4.00006396-1.25884871 4.00006396-2.81539814 0-1.55654942-1.8080289-2.81539814-4.00006396-2.81539814-2.19203505 0-4.00006396 1.26735445-4.00006396 2.81539814 0 1.5480437 1.79202866 2.81539814 4.00006396 2.81539814z"/>
      <path fill="rgb(53,53,53)" fill-rule="evenodd" d="M49.7367313 113.02381642c-.03605773-.13135803-.01723846-.27285898.05166124-.38843776.0688997-.11557877.18122412-.19407044.30834453-.2154694.27346032-.09292138.57021486.03615064.70401125.30620645l5.60008955 15.10618458 2.91204656 9.35630801-3.77606038-8.6418263-5.80009274-15.52296558z"/>
      <path fill="rgb(53,53,53)" fill-rule="evenodd" d="M27.47237531 113.02381642c.0389058-.13145406.02131807-.2744589-.04807035-.3908575-.06938843-.1163986-.18351768-.19434806-.3119354-.21304966-.27118802-.09189543-.56518803.03744833-.69601113.30620645l-5.6160898 15.10618458-2.91204656 9.35630801 3.79206063-8.6418263 5.79209261-15.52296558z"/>
      <path fill="rgb(230,230,230)" fill-rule="evenodd" d="M56.68884247 128.65735654l2.65604247 8.54826323-3.52005628-7.99539048.86401381-.55287275z"/>
      <path fill="rgb(230,230,230)" fill-rule="evenodd" d="M20.52026415 128.65735654l-2.65604247 8.54826323 3.52005629-7.99539048-.86401382-.55287275z"/>
      <path fill="rgb(53,53,53)" fill-rule="evenodd" d="M37.6965388 120.0580589c0-.2721835.49600792-.48482687 1.09601752-.48482687.6000096 0 1.09601752.21264336 1.09601752.48482687l.17600282 17.86204258-.93601497 11.26159256-1.24801996-11.18504095-.18400294-17.9385942z"/>
      <path fill="rgb(230,230,230)" fill-rule="evenodd" d="M39.9045741 139.85940896l-.77601241 9.28826214-1.04001663-9.28826214h1.81602904z"/>
      <path fill="rgb(53,53,53)" fill-rule="evenodd" d="M36.33651705 91.59787106c.05498967-.27989625.28706868-.48042744.55600889-.48042744.2689402 0 .5010192.20053119.55600889.48042744l.15200243 35.95373999c-.05498968.27989625-.28706869.48042744-.5560089.48042744-.2689402 0-.5010192-.2005312-.55600888-.48042744l-.15200243-35.95374z"/>
      <path fill="rgb(53,53,53)" fill-rule="evenodd" d="M39.9045741 91.59787106c.05498968-.27989625.28706868-.48042744.55600889-.48042744.2689402 0 .50101921.20053119.55600889.48042744l.16800268 35.95373999c-.05498967.27989625-.28706868.48042744-.55600889.48042744-.2689402 0-.5010192-.2005312-.55600889-.48042744l-.16800268-35.95374z"/>
      <rect width="4.688" height="1.267" x="36.489" y="124.09" fill="rgb(230,230,230)" rx="0" ry="0"/>
      <path fill="rgb(230,230,230)" fill-rule="evenodd" d="M50.56074448 117.9911654l2.64004222-1.59057236.44000703 1.19080284-2.6080417 1.59057236-.47200755-1.19080284z"/>
      <path fill="rgb(230,230,230)" fill-rule="evenodd" d="M26.64836214 117.9911654l-2.64004222-1.59057236-.44000703 1.19080284 2.6080417 1.59057236.47200755-1.19080284z"/>
      <path fill="rgb(147,149,152)" fill-rule="evenodd" d="M39.53656821 84.9378809c2.752044.1956319 4.6960751 1.70114691 4.33606934 3.40229382-.36000576 1.70114691-2.88804618 2.85792681-5.64009019 2.63677772-2.752044-.2211491-4.69607509-1.70114692-4.33606933-3.40229383.36000576-1.70114691 2.90404644-2.8324096 5.64009018-2.63677771z"/>
      <path fill="rgb(88,89,91)" fill-rule="evenodd" d="M39.53656821 84.25742213c2.752044.1956319 4.6960751 1.70114691 4.33606934 3.40229383-.36000576 1.7011469-2.88804618 2.87493828-5.64009019 2.67930638-2.752044-.1956319-4.69607509-1.7011469-4.33606933-3.40229382.36000576-1.70114691 2.90404644-2.87493828 5.64009018-2.67930639z"/>
      <path fill="rgb(204,65,18)" fill-rule="evenodd" d="M39.58456898 83.43236588c2.94404707.20413763 5.0160802 1.82873293 4.63207407 3.62344292-.38400614 1.79471-3.08804938 3.07057018-6.03209645 2.86643255-2.94404708-.20413763-5.02408034-1.83723866-4.6400742-3.63194866.38400614-1.79470999 3.08804938-3.07057017 6.04009658-2.85792681z"/>
      <path fill="rgb(249,115,57)" fill-rule="evenodd" d="M39.58456898 82.7008727c2.94404707.21264337 5.0160802 1.83723867 4.63207407 3.62344293-.38400614 1.78620426-3.08804938 3.07907591-6.03209645 2.86643255-2.94404708-.21264337-5.02408034-1.82873293-4.6400742-3.62344292.38400614-1.79471 3.08804938-3.09608738 6.04009658-2.86643255z"/>
      <path fill="rgb(249,115,57)" fill-rule="evenodd" d="M40.24057947 88.91005894l-6.1040976-3.77654615.66401062-3.80206335v-9.98573237c2.3396807.59338722 4.46288985 1.9069962 6.1040976 3.77654614v9.95170944l-.66401062 3.83608629z"/>
      <path fill="rgb(179,50,7)" fill-rule="evenodd" d="M40.24057947 88.91005894l3.34405347-1.97333042V73.48065644l-2.68004285 1.64160677v9.97722664l-.66401062 3.81056909z"/>
      <path fill="rgb(249,146,110)" fill-rule="evenodd" d="M34.80049249 71.34571707c2.33790997.59808598 4.45992235 1.91095452 6.1040976 3.77654614l2.68004285-1.64160677c-1.76002814-1.87976733-3.6400582-3.48735117-6.11209773-3.75953467l-2.67204272 1.6245953z"/>
      <path fill="rgb(88,89,91)" fill-rule="evenodd" d="M37.96854314 75.99835387c-1.00001599-.62091862-1.8640298-.0510344-1.93603095 1.26735445-.03532832 1.3934432.5936054 2.71161102 1.67202673 3.50436264.99201586.62091863 1.85602968.05103441 1.92803083-1.26735445.0341999-1.39114452-.59090456-2.70758544-1.6640266-3.50436264z"/>
      <path fill="rgb(34,34,34)" fill-rule="evenodd" d="M37.80854058 76.10042269c-1.00001599-.62091862-1.8640298-.05954014-1.93603095 1.25884871-.03658635 1.39607406.5923261 2.71739662 1.67202673 3.51286838 1.000016.62091862 1.8640298.05954014 1.93603096-1.25884872.03365476-1.39537423-.59459268-2.71529964-1.67202674-3.51286837z"/>
      <path fill="rgb(81,81,81)" fill-rule="evenodd" d="M37.74453956 77.20616818c-.53600857-.34022938-1.00001599 0-1.04001663.68045877-.01485095.74858236.32089737 1.45614305.89601433 1.88827307.52800844.33172365 1.00001599 0 1.04001663-.68045877.01771625-.7492702-.31867438-1.45818452-.89601433-1.88827307z"/>
      <path fill="rgb(60,60,59)" fill-rule="evenodd" d="M37.74453956 77.20616818c-.21792028-.15480626-.50209124-.15480626-.72001151 0-.10809096.16848762-.16911124.36606684-.17600282.56988422-.01591058.7508632.32364078 1.46010595.90401446 1.88827307.21122468.16357166.493045.18021784.72001151.04252867.10693297-.16909189.16784174-.36631003.17600281-.56988421.02964395-.76575283-.3114851-1.49433916-.90401445-1.93080175z"/>
      <path fill="rgb(88,89,91)" fill-rule="evenodd" d="M37.01652792 77.17214524c-.0993808.1459407-.15260596.32166439-.15200243.50183834.03289542.66056579.32271024 1.27682792.80001279 1.70114691.28000448.1701147.4880078.18712617.64001023 0 .6560105-.60390715-.48000767-2.7813752-1.2880206-2.20298525z"/>
      <path fill="rgb(249,146,110)" fill-rule="evenodd" d="M40.24057947 88.9015532l-6.13609811-3.79355761.69601113-3.78505188 6.1040976 3.77654614-.66401062 3.80206335z"/>
      <path fill="rgb(204,65,18)" fill-rule="evenodd" d="M39.7925723 88.05948548l-5.03208045-3.11309885.45600729-2.66229492 5.00808007 3.09608738-.4320069 2.6793064z"/>
      <path fill="rgb(60,132,118)" fill-rule="evenodd" d="M39.82457282 87.86385359l-4.8400774-2.99401857.43200692-2.46666302 4.80807687 2.9770071-.4000064 2.48367449z"/>
      <path fill="rgb(255,203,166)" fill-rule="evenodd" d="M43.68063447 72.37491095c-.15628493.38738425-.33807215.76256734-.5440087 1.12275696-.61851759.30082297-1.257715.55105026-1.91203057.74850464-.08564595.02859536-.17912194.00209306-.24000383-.06804587-.07321765-.05812286-.13561547-.13023303-.18400295-.21264337l-.33600537.16160896s-.52000831-.40827526-.50400806-.5188498c.0793261-.24286568.17010926-.48132845.27200435-.71448171-.11594119-.17631899-.1723354-.389171-.16000256-.60390715.04800077-.28919498.88001407-1.01218242.88001407-1.01218242l-.12800204-.14459748-.3440055-.37425233s.24800396-.4678154.33600537-.62091862c.0880014-.15310322.8000128-.85057345.8000128-.85057345l-1.12801804.79103331-1.12801804.04252867.85601369-.7655161s1.10401765-.95264228 1.60002558-.85057346c.28994873-.0105307.56583647.1329429.73601177.38275805.130786.17810944.2359373.37590388.31200499.58689569v.08505734l.39200627.32321792.12800204.78252757s.1120018.37425233.2000032.58689569c.06904335.36962224.1012219.7459568.09600153 1.12275696z"/>
      <path fill="rgb(250,211,190)" fill-rule="evenodd" d="M40.80059814 73.96557617l1.82402039-1.0546875.57601929-.74853515c-.06401062.0595703-.5920105.53588867-.61601258.58691406-.02400207.05102539-1.86402893 1.10571289-1.86402893 1.10571289-.13760376-.0366211-.26957702-.09399414-.39201355-.17016602-.01899719-.12670898-.01899719-.25598144 0-.38269043l.47201538-.30627441 1.84002686-1.42895508.41600037-.54431152-.63200379.51037597-1.71203613 1.23327637s-.17599487.17858887-.27999878-.1956787c-.1040039-.37414552-.03999329-.64636231.41600037-.98657228.4560089-.34033203 1.19203186-.85058593 1.19203186-.85058593l.58181762-1.00842285c-.05838012.0941162-.74264526.80493164-.79782104.84680175l-.80001831.56140137h-.19999695l.12799072.14453125s-.83200073.72302246-.88000488 1.01220703c-.01234436.21472168.04406738.4276123.16000366.60388184-.1018982.2331543-.19267273.47167969-.27200317.71447754-.01600647.1105957.5039978.5189209.5039978.5189209l.3360138-.1616211z"/>
    </g>
    <g>
      <g opacity=".4">
        <path fill="rgb(32,162,106)" fill-rule="evenodd" d="M98.15101124 125.46598515c-4.89335483 2.44414257-14.81389983 1.16504129-22.11629088-2.94111823-7.30239105-4.10615951-9.20118002-9.45883173-4.3161899-11.9600043 4.88499012-2.50117256 14.84735866-1.19762985 22.12465559 2.90852966 7.27729692 4.10615952 9.22627414 9.45883174 4.30782519 11.99259287z"/>
      </g>
      <path fill="rgb(34,34,34)" fill-rule="evenodd" d="M79.72355707 112.14540815s-5.28649615 2.8596468-5.44542562 3.30773961c-.32622366.9124799-.40987075 1.44204412.04182354 2.11010975.4516943.66806564 1.96570664.38291567 2.50941273.35847424.5437061-.02444142 4.71769594-2.63152683 4.71769594-2.63152683s2.25010675-.22811997 2.8440011-.90433275c.59389434-.67621277-1.4721888-2.77002824-1.4721888-2.77002824l-3.19531889.52956422z"/>
      <path fill="rgb(34,34,34)" fill-rule="evenodd" d="M90.25472584 117.35957896s-2.5679657 3.33218104-2.9360129 3.91062811c-.297064.3433344-.38898997.81262109-.24257656 1.23836557.12547064.4073571.43496487 1.39316126 2.40067151 1.34427841 1.48624485-.01325762 2.88239414-.69618373 3.78084852-1.8494012.38016026-.78235535.71526803-1.58473463 1.0037651-2.40340687 0-.08961856.8364709-1.15689414.8364709-1.15689414s.67754144-2.3708183-.25094127-2.90852966c-.92848271-.53771136-4.5922253 1.82495978-4.5922253 1.82495978z"/>
      <path fill="rgb(252,199,170)" fill-rule="evenodd" d="M71.83563639 63.4010582c.02754252.12373129.0914876.23697105.1840236.32588568.66081202.8147142 2.95274231 2.38711258 3.34588364 1.89828407l.32622366-.34217996c.15892947-.2118257.32622365-.4480928.49351783-.68435992.30949424-.43179852.59389435-.8554499.76118853-1.03468702.30949424-.33403282 1.22961224-2.15084546 1.53074177-2.34637687.13383534-.08147142 0-.72509563-.29276482-1.44204411-.24449748-.72881658-.5669134-1.43060499-.96194155-2.09381547-.2760354-.26070854-2.300295.20367855-2.300295.20367855s-1.15432986 2.08566832-1.53910648 2.65596825c-.15892947.23626712-.45169429.67621278-.7360944 1.15689415-.25185396.40304284-.47542336.82221993-.66917673 1.25465985-.07073722.14136823-.1186994.29250395-.14220005.4480928z"/>
      <path fill="rgb(252,199,170)" fill-rule="evenodd" d="M72.15349533 66.80656352c.36118997 1.0154747.8590476 1.9798121 1.48055351 2.86779395.48515313.81471419 2.81890697 1.8086655 3.01966 1.77607693.20075301-.03258857-.04182355-1.94716691-.19238832-2.37896543-.15056476-.43179852-.12547063-3.78842098-.21748243-4.20392522-.01605572-.07967492-.04424963-.15656457-.0836471-.22811997-.3387072-.5958218-.78010644-1.1304639-1.30489462-1.58054553l-.21748243-.14664855c-.44615048-.23223257-.91748298-.41531529-1.40527113-.54585851-.40260358-.09921156-.82715377.04503527-1.07904748.36662138-.07798802.07635842-.14293749.1643725-.1923883.26070854-.05500072.09966887-.09446823.20675436-.11710593.31773854-.15864219 1.17310833-.0530294 2.36579544.30949423 3.49512387z"/>
      <path fill="rgb(250,211,190)" fill-rule="evenodd" d="M72.15349533 66.80656352c.36118997 1.0154747.8590476 1.9798121 1.48055351 2.86779395.48515313.81471419 2.81890697 1.8086655 3.01966 1.77607693.20075301-.03258857-.04182355-1.94716691-.19238832-2.37896543-.15056476-.43179852-.12547063-3.78842098-.21748243-4.20392522-.01605572-.07967492-.04424963-.15656457-.0836471-.22811997.30949424-.43179852.59389435-.8554499.76118853-1.03468702.30949424-.33403282 1.22961224-2.15084546 1.53074177-2.34637687.13383535-.08147142 0-.72509563-.29276482-1.44204411l-.40150604-.0977657c-.17274598.79863736-.45404808 1.57127618-.8364709 2.297494-.29593783.57890047-.6283733 1.13940876-.99540039 1.67831124l-1.32998875-.74138992c.07528238.08147142 1.02049451 1.09171702 1.02049451 1.49907411v.87174419c0 1.13245272 0 2.94111822.07528239 3.09591391.07528238.1547957.05855296 1.62942838.05855296 1.62942838s-1.4638241-.07332427-1.94897722-.81471419c-.48515313-.7413899-1.40527113-2.44414256-1.40527113-2.44414256l-.42660017-1.39316127v-2.1589926c.02612868-.17864565.08869842-.3503921.1840236-.5051228.15892948-.3910628.40987075-.86359704.47678842-.9939513-.25185396.40304283-.47542336.82221992-.66917673 1.25465984-.05500071.09966887-.09446822.20675436-.11710592.31773854-.15864219 1.17310833-.0530294 2.36579544.30949423 3.49512387z"/>
      <path fill="rgb(32,162,106)" fill-rule="evenodd" d="M74.55416685 57.95876742c.28159273.52796216.6683134.9960201 1.13760044 1.37686698.86751445.66776013 1.79403971 1.25938094 2.7687187 1.7679298.974679.50854885 3.13676592-9.01073894 3.08657767-9.27959462-.5830686-.72905278-1.23258021-1.40529932-1.94061251-2.02049119-.65240486.6440737-1.2694629 1.32122783-1.84860072 2.02863833-.47678841.6599185-2.2919303 4.42389805-2.2919303 4.42389805l-.91175328 1.70275265z"/>
      <path fill="rgb(34,34,34)" fill-rule="evenodd" d="M79.72355707 111.55881394s-5.28649615 2.85149966-5.44542562 3.25885675c-.32622366.9124799-.40987075 1.44204412.04182354 2.11010975.4516943.66806564 1.96570664.38291567 2.50941273.35847425.5437061-.02444143 4.71769594-2.59079112 4.71769594-2.59079112s2.25010675-.22811998 2.8440011-.90433275c.59389434-.67621278-1.43872997-2.77817539-1.43872997-2.77817539l-3.22877772.5458585z"/>
      <path fill="rgb(27,76,54)" fill-rule="evenodd" d="M77.99206229 106.95567877c.19516537 1.8704106.28730922 3.74966198.2760354 5.62967505.77658303.50325937 1.67174257.80603314 2.60142453.87989132.92233314.01548408 1.8425369-.0914104 2.73525988-.31773853l.44332958-.11406c.37641191-.0977657 1.36344759-1.68645836 1.36344759-1.68645836l-.25094128-6.03703215s.0920118-6.5177135.51861197-8.0330819c.42660016-1.5153684.42660016-6.64806779.44332958-6.83545205 0-.05703.30112953-1.08356987.5437061-2.44414257.47678841-2.68040968.72772968-6.7295392-1.84860072-7.79681479-2.68784562-1.0009192-5.57198316-1.40182443-8.43999149-1.17318843-.32831405 2.18709403-.45986108 4.39794005-.39314133 6.60733207.1756589 2.96555965-.21748243 8.9048261.41823546 12.62806994.6357179 3.72324384 1.33835346 7.51981196 1.58929473 8.6930004z"/>
      <path fill="rgb(108,145,196)" fill-rule="evenodd" d="M83.22000548 111.2003397c.04182355.13035426.22584715 1.02653987.41823546 1.9471669l.44332958-.11405998c.3764119-.0977657 1.36344758-1.68645837 1.36344758-1.68645837l-.25094127-6.03703215s.0920118-6.5177135.51861196-8.0330819c.42660017-1.5153684.42660017-6.64806779.44332959-6.83545205 0-.05703.30112952-1.08356987.54370609-2.44414257-1.304505-1.42268839-2.75027105-2.71623207-4.3161899-3.86174525l-.83647091 1.0509813 1.25470637 4.7823723c.15505912 1.01768082.25001533 2.04319163.2844001 3.07147248-.0920118.41550424-.24257656 4.23651379-.20075301 4.32613235.04182354.08961856.12547063 4.07357095.12547063 4.44019233 0 .36662139.25094128 5.08381654.23421186 5.30378937-.01672942.21997283-.14220006 3.82100955-.02509413 4.08986523z"/>
      <path fill="rgb(34,34,34)" fill-rule="evenodd" d="M90.25472584 116.7648376s-1.25470637 2.11010976-1.62275357 2.68855683c-.3680472.57844708-1.67294182 2.05307976-1.5558359 2.44414257.11710594.3910628.43496488 1.39316126 2.40067152 1.34427841 1.48716827-.00952816 2.88491405-.6932352 3.78084852-1.8494012.38160914-.79564.71673217-1.61165608 1.0037651-2.44414258 0-.08961856.8364709-1.15689415.8364709-1.15689415s.67754144-2.37081829-.25094127-2.90852965c-.92848271-.53771137-4.5922253 1.88198978-4.5922253 1.88198978z"/>
      <path fill="rgb(27,76,54)" fill-rule="evenodd" d="M81.6725343 87.05221112c.06691767.76583134 1.67294182 3.82100955 2.64324807 4.38316234.97030626.5621528 2.13300083 6.6317735 2.15809495 6.90877633.02509413.27700282.3596825 7.2753977.43496488 8.14714189.07528238.87174418 1.32998874 8.383409 1.32998874 8.383409l.77791795 2.25675831s.42660017.8147142 2.14136553.88803847c1.16611294.00236956 2.3218471-.21336145 3.4044366-.63547707l.41823546-.52141708.5437061-.67621278s0-3.50327101-.10874122-4.88828513c-.10874122-1.38501413-.53534139-10.59128446-.70263557-12.41624425-.21337375-1.44847572-.27782245-2.91407425-.1923883-4.3750152.17565888-.51326993.60225905-5.80076502.7444591-7.6257248.14220006-1.82495979.11710593-5.20602368-.12547063-5.45858507-.54321053-.18686571-1.10335329-.32325906-1.67294182-.4073571-3.3877072-.68435992-10.77374533-1.8494012-11.4847456-1.0509813-.9033886 1.02653988-.38477663 6.33032925-.30949424 7.08801344z"/>
      <path fill="rgb(108,145,196)" fill-rule="evenodd" d="M94.9975159 116.83816188l.5437061-.67621277s0-3.50327102-.10874122-4.88828514c-.10874122-1.38501412-.53534139-10.59128446-.70263557-12.41624424-.21337375-1.44847572-.27782245-2.91407426-.1923883-4.3750152.17565888-.51326994.60225905-5.80076503.7444591-7.62572481.14220006-1.82495979.11710593-5.20602367-.12547063-5.45858507-.54321053-.18686571-1.10335329-.32325905-1.67294183-.4073571.31785895 1.62942838.76955324 3.95136382.83647091 4.7253423.0836471 1.18948272-.460059 5.57264506-.42660016 5.99629644.03345884.42365137-.68590615 4.07357094-.50188255 5.1164051.1840236 1.04283417.92848271 7.25910343.92848271 7.25910343s.42660017 6.29774068.32622366 7.9353162c.0117616 1.61063425.12910628 3.21889344.35131778 4.81496086z"/>
      <path fill="rgb(69,196,138)" fill-rule="evenodd" d="M76.11000274 78.84803924c.76516523 1.528265 2.1710307 2.6599414 3.8561309 3.10406106 2.91091877.81471419 7.160191 1.62942838 8.95023874 1.29539556 1.14596515-.21182569 3.52990724-.52956422 5.16102552-.92062703.93684742-.22811998 1.63111828-.48068138 1.67294182-.74953706.00855396-.68408416-.09017172-1.36543093-.29276482-2.02049119-.00298742-.03524433-.00298742-.07066851 0-.10591284-.05018825-.22811998-.10874122-.47253423-.17565889-.70880135-.06691767-.23626711-.15056476-.66806563-.22584714-1.00209845l-.12547064-.46438709c-.06691767-.32588567-.13383535-.63547707-.1756589-.92062703-.04652808-.26944764-.074473-.5416283-.08364708-.8147142v-10.5424016s3.0363894-8.65226469 3.25387184-9.89063026c.00333838-.03795047.00333838-.0761095 0-.11405998-.05018826-.57844708-2.8440011-3.48697673-4.61731943-5.00234513-.20630641-.17336473-.4338903-.321141-.67754143-.43994566-2.09117728-1.08356987-5.91384934-1.12430558-6.80887322-1.03468702-.1741819.01464536-.3473439.03912798-.51861196.07332428-.99540039.16294284-2.8440011.57029993-4.18235456.81471419-.8364709.17923712-1.4721888.32588567-1.55583589.33403281-.25094127 0-1.7398595 10.06986738-1.54747118 11.83779717.03656405.66759103.03656405 1.33660589 0 2.00419691 0 .97765703-.0920118 2.1589926-.15892948 3.3240339-.06691767.91247988-.12547063 1.82495978-.17565889 2.62337968-.06691767.9532156-.12547063 1.73534123-.15892947 2.17528689v.33403282c0 .05702999-.05018826.56215279-.10874122 1.02653987-.16729418 1.3035427-.460059 3.25885676-.460059 3.25885676s-.25094127.5051228-.49351784 1.06727559c-.19333473.46564604-.3118316.95753274-.35131778 1.4583384z"/>
      <g opacity=".39">
        <path fill="rgb(29,29,27)" fill-rule="evenodd" d="M77.3647091 69.0796161l.3680472.52141709 1.76495363 2.50117256 1.84860071-.6028885 1.07068277-.34217996-.83647091-1.01839274c-.2760354-.33403281-.57716493-.69250706-.83647091-1.01024559-.25930599-.31773853-.62735319-.77397848-.70263557-.88803847-.07528238-.11405998-.34295307-.70880134-.66081202-1.42574983-.31785895-.71694848-.77791795-1.82495978-1.04558864-2.44414257-.10874122-.2932971-.20911773-.52141708-.25094127-.61918278v.23626712c.00416471.06511402.00416471.13041738 0 .1955314-.03956055.65608358-.13751647 1.3075844-.29276482 1.94716691-.00366209.0243113-.00366209.04901299 0 .07332428-.15892947.81471419-.11710593 1.71904694-.29276482 2.44414257-.02509413.12220713-.05855296.27700282-.13383534.43179852z"/>
      </g>
      <path fill="rgb(255,203,166)" fill-rule="evenodd" d="M85.72941821 52.19059096c.21898494.22502122.5185478.35923597.83647091.37476853.67822456.07371956 1.36276447.07371956 2.04098903 0 1.51394295-.30888513 2.94094919-.93433546 4.18235455-1.83310692.17565889-.12220713.26767069-.2118257.26767069-.23626712-.20006006-.71821293-.35647265-1.44728913-.46842371-2.18343403.09982514-.64165218.27380031-1.27025721.51861196-1.87384263.0920118-.31773854.40150604-.8147142.66081202-1.3605727l.06691768-.10591284c.07528238-.04888285.12547063-.10591285.25930598-.3503271.07894212-.08048638.1464601-.17090889.20075302-.26885569.13689985-.35662624.20221197-.73554047.1923883-1.11615844-.00982365-.38061796.71100028-1.4583384-2.65161278-1.42574983h-.29276482c-.42722323.13354738-.83278618.32556817-1.20451811.57029994-1.72313008.98580416-4.55876646 2.89223537-4.55876646 2.89223537s.23421185 1.62942838.25094127 2.2160226c-.09046963.73577515-.28177248 1.4564224-.56880022 2.14269831-.1118944.86146188-.02034386 1.73643569.2676707 2.55820255z"/>
      <g opacity=".39">
        <path fill="rgb(29,29,27)" fill-rule="evenodd" d="M76.5282382 77.49561368l2.50941273-.91247989s4.82643715-.21997283 6.08114352-.33403282c1.21288282-.0977657 6.08114352 0 6.87579088.26070854.31416362.13181207.598446.3228649.83647091.5621528.1669464.15147232.31567732.320934.44332959.5051228.44648365 1.55323993.69648827 3.15378657.7444591 4.766078.93684743-.22811997 1.63111828-.48068137 1.67294183-.74953705.05883352-.68634842-.04121256-1.37680786-.29276482-2.0204912-.00298742-.03524432-.00298742-.07066851 0-.10591284-.00378698-.04065221-.00378698-.08155491 0-.12220713 0-.1955314-.0920118-.3910628-.14220006-.58659421-.06691767-.33403282-.15056476-.66806564-.22584714-1.00209846-.05862104-.1490055-.09523318-.30536026-.10874122-.46438708-.06691767-.32588568-.13383535-.63547707-.1756589-.92062704-.0542194-.39989121-.08494004-.80247271-.0920118-1.205777v-2.34637686c.02314216-.55540813.1302472-1.10445669.31785895-1.62942838.21748244-.8147142-.04182354-.99395131-.04182354-.99395131h-.22584715V68.729289l-.21748243-.14664856c-.20720805-.20695231-.37690527-.44661321-.50188255-.70880134-.4516943-.69250706-.9117533-1.38501412-1.380177-2.06937404-.31785895-.47253423-.6440826-.94506846-.95357684-1.4176027-.05018825-.05702999-.3596825-.39920994-.3596825-.49697565-.05855296.2118257-1.04558863 3.95951096-1.07904747 4.07357095-.03345883.11405999-.39314132 1.28724842-.39314132 1.28724842l-.70263557.16294284-5.63781394 1.3035427-2.43413035.55400565-3.56336608 1.8656955c-.16729418 1.3035427-.460059 3.25885675-.460059 3.25885675s-.25094127.53771136-.49351783 1.09986415z"/>
      </g>
      <path fill="rgb(250,211,190)" fill-rule="evenodd" d="M92.58011497 46.64238734c-.2165233.75111732-.37863953 1.51611352-.48515313 2.28934687-.1065136.77323335.42660017 1.0102456.69427086 1.78422407.17565889-.12220713.26767069-.21182569.26767069-.23626711-.20006006-.71821293-.35647265-1.44728913-.46842371-2.18343403.10105056-.63611501.2750078-1.25918965.51861196-1.85754835.0920118-.31773854.42660017-.8147142.68590615-1.4013084-.10874122.16294283-1.06231806 1.4013084-1.21288282 1.60498695z"/>
      <path fill="rgb(250,211,190)" fill-rule="evenodd" d="M85.72941821 52.19059096c.21898494.22502122.5185478.35923597.83647091.37476853v-.30959139c.08603388-.93535315.27676633-1.85874664.56880022-2.75373396.06691768-.39920995.0836471-1.3605727.0836471-1.3605727s1.80677716-.47253423 2.81890696-.6436242c1.0121298-.17108999 1.54747119-1.39316127 1.54747119-1.39316127l.98703567-2.92482394c.52127798-.01498286 1.0427338.02324562 1.5558359.11405999.1840236.06517713.1003765.43994566-.04182355.81471419.22584715-.49697566.40150604-.86359704.40150604-.86359704-.82293868-.5756088-1.713017-1.0541964-2.65161279-1.42574983-.460059.17923712-.97030626.35847424-1.49728293.53771136-1.72313008.98580417-4.55876646 2.89223537-4.55876646 2.89223537s.23421185 1.62942838.25094127 2.2160226c-.09046963.73577515-.28177248 1.4564224-.56880022 2.14269831-.1157876.86947643-.02419165 1.753248.2676707 2.58264398z"/>
      <path fill="rgb(250,211,190)" fill-rule="evenodd" d="M96.60354005 63.09146682c-.24967994-.297508-.59927574-.49950116-.98703567-.57029994-1.13760044-.08961856-4.18235456 1.7679298-4.18235456 1.7679298s-.41823545 2.04493261-.61898847 3.37291674c-.12799261.6906475-.15894691 1.39504177-.0920118 2.09381547l-.31785895.05702999c.2823107.00760733.56286916.04586389.83647091.11405998 0-.07332427-.05855296-1.31983698-.05855296-1.31983698s-.22584715-3.17738534.61062376-4.35057377c.83647092-1.17318843 4.80970774-1.1650413 4.80970774-1.1650413z"/>
      <path fill="rgb(32,162,106)" fill-rule="evenodd" d="M86.95903045 51.32699392s3.34588364-.43994566 3.56336608-.52141708c.21748244-.08147142 2.18318908-1.1080113 2.18318908-1.1080113l-.0836471-1.05912844c.2072175.01260781.38897324.13905656.46842372.32588568.0920118.30144425.2844001 1.04283416.2844001 1.04283416s.33458837.92877417-2.72689516 2.07752118c-1.23884633.39353672-2.50155133.71188592-3.78084852.9532156l-.70263556 1.08356987-.05018826-1.67831123.84483562-1.11615844z"/>
      <path fill="rgb(32,162,106)" fill-rule="evenodd" d="M85.98035949 47.87260576c-.34706477.28218828-.67665443.5841619-.98703568.90433275-.37824569.57383303-.63162051 1.21713648-.7444591 1.89013692.08944099.39588616.21542378.78309164.3764119 1.15689415.16098812.37380251.51861197.4073571.5437061.61103564.02509412.20367855.5604355 1.83310693.5604355 1.83310693v-2.07752119l-.25094127-1.08356987.14220005-1.4583384.30949424-1.09986415.05018826-.67621278z"/>
      <path fill="rgb(255,203,166)" fill-rule="evenodd" d="M84.44125301 46.21873596c.458782.4123547.98818373.7432415 1.5642006.97765702 1.56224325-.11449625 3.11736575-.30756954 4.65914298-.57844707 1.03722392-.16294284 3.27896596-1.91457834 3.53827195-2.15084546.50023178-1.83525483.80023412-3.71679949.89502387-5.61338076-.37116405-.90622369-.8724662-1.75656974-1.48891822-2.52561399-.50188255-.4480928-3.42116602-1.12430558-4.71769594-.6599185-1.03760435.49701825-1.89534477 1.28982472-2.45922447 2.2730526-.23667511.82782844-.51584977 1.64356831-.83647091 2.44414256-.47467887.96964025-.82311866 1.99324455-1.03722393 3.04703107-.22024415.91311744-.25998703 1.85872695-.11710593 2.78632253z"/>
      <path fill="rgb(34,34,34)" fill-rule="evenodd" d="M92.63866793 42.13701787l-.25094127.45623995.34295307.52956422s1.40527113-.89618561 1.67294183-.57844708c.26767069.31773854-.21748244 1.92272549-.21748244 1.92272549l-.71936498.99395131-.3596825.97765703s1.97407135-2.23231688 2.70180105-3.20182677c.8070698-1.1641282 1.28062676-2.51691045 1.37181229-3.91877525-.26234484-1.80877854-1.33863633-3.40959676-2.9360129-4.36686805-1.34926157-.71454827-2.94862213-.83026765-4.39147228-.31773853-.88386393.39929689-1.69700539.93279119-2.40903622 1.58054552-.38493028.31982264-.62775451.77240033-.67754144 1.262807l2.18318908-1.18133558 3.34588364 1.0102456s.71936498.81471419.66081202 1.02653988l-.7277297 2.49302541.40987075 1.31168985z"/>
      <path fill="rgb(108,145,196)" fill-rule="evenodd" d="M89.69429033 84.73027568s1.2798005 2.68040969 1.97407135 3.0714725c.46581542.2438183.97850318.39084993 1.50564764.43179852l-1.06231806-1.7516355-2.41740093-1.75163552z"/>
      <path fill="rgb(60,60,59)" fill-rule="evenodd" d="M75.95107327 56.98925754v63.27070394l-.95357684.53771136-3.05311882-2.79446967-.95357684-62.72484543.95357684-.53771136 4.00669566 2.24861116z"/>
      <path fill="rgb(255,255,255)" fill-rule="evenodd" d="M74.99749643 57.5269689v63.27070394l-4.00669566-2.2567583v-63.2625568l4.00669566 2.24861116z"/>
      <path fill="rgb(230,51,42)" fill-rule="evenodd" d="M74.57926097 120.0888715l-3.17022475-1.78422408V55.9871591l3.17022475 1.77607693v62.32563548z"/>
      <path fill="rgb(255,255,255)" fill-rule="evenodd" d="M73.35801344 118.19058744l-2.00753018-1.12430558v.4073571l2.00753018 1.13245271v-.41550423z"/>
      <path fill="rgb(255,255,255)" fill-rule="evenodd" d="M73.35801344 115.31464635l-2.00753018-1.13245272v.41550423l2.00753018 1.12430558v-.4073571z"/>
      <path fill="rgb(255,255,255)" fill-rule="evenodd" d="M73.35801344 112.43055812l-2.00753018-1.12430558v.4073571l2.00753018 1.12430557v-.4073571z"/>
      <path fill="rgb(255,255,255)" fill-rule="evenodd" d="M73.35801344 109.54646989l-2.00753018-1.12430558v.4073571l2.00753018 1.13245272v-.41550424z"/>
      <path fill="rgb(255,255,255)" fill-rule="evenodd" d="M73.35801344 106.6705288l-2.00753018-1.13245272v.41550423l2.00753018 1.12430559v-.4073571z"/>
      <path fill="rgb(255,255,255)" fill-rule="evenodd" d="M73.35801344 103.78644057l-2.00753018-1.12430558v.4073571l2.00753018 1.12430558v-.4073571z"/>
      <path fill="rgb(255,255,255)" fill-rule="evenodd" d="M73.35801344 100.90235234l-2.00753018-1.12430558v.4073571l2.00753018 1.13245272v-.41550424z"/>
      <path fill="rgb(255,255,255)" fill-rule="evenodd" d="M73.35801344 98.02641125l-2.00753018-1.13245272v.41550424l2.00753018 1.12430558v-.4073571z"/>
      <path fill="rgb(255,255,255)" fill-rule="evenodd" d="M73.35801344 95.14232302l-2.00753018-1.12430558v.4073571l2.00753018 1.12430558v-.4073571z"/>
      <path fill="rgb(255,255,255)" fill-rule="evenodd" d="M73.35801344 92.2582348l-2.00753018-1.12430559v.4073571l2.00753018 1.13245272v-.41550424z"/>
      <path fill="rgb(255,255,255)" fill-rule="evenodd" d="M73.35801344 89.3822937l-2.00753018-1.13245272v.41550424l2.00753018 1.12430558v-.4073571z"/>
      <path fill="rgb(255,255,255)" fill-rule="evenodd" d="M73.35801344 86.49820547l-2.00753018-1.12430558v.4073571l2.00753018 1.12430558v-.4073571z"/>
      <path fill="rgb(255,255,255)" fill-rule="evenodd" d="M73.35801344 83.62226439l-2.00753018-1.13245273v.4073571l2.00753018 1.13245272v-.4073571z"/>
      <path fill="rgb(255,255,255)" fill-rule="evenodd" d="M73.35801344 80.73817616l-2.00753018-1.12430558v.40735709l2.00753018 1.12430558v-.4073571z"/>
      <path fill="rgb(255,255,255)" fill-rule="evenodd" d="M73.35801344 77.85408793l-2.00753018-1.12430558v.40735709l2.00753018 1.12430558v-.4073571z"/>
      <path fill="rgb(255,255,255)" fill-rule="evenodd" d="M73.35801344 74.97814684l-2.00753018-1.13245272v.40735709l2.00753018 1.13245272v-.4073571z"/>
      <path fill="rgb(255,255,255)" fill-rule="evenodd" d="M73.35801344 72.0940586l-2.00753018-1.12430557v.4073571l2.00753018 1.12430557v-.4073571z"/>
      <path fill="rgb(255,255,255)" fill-rule="evenodd" d="M73.35801344 69.20997038l-2.00753018-1.12430558v.4073571l2.00753018 1.12430557v-.4073571z"/>
      <path fill="rgb(255,255,255)" fill-rule="evenodd" d="M73.35801344 66.33402929l-2.00753018-1.13245272v.4073571l2.00753018 1.13245271v-.40735709z"/>
      <path fill="rgb(255,255,255)" fill-rule="evenodd" d="M73.35801344 63.44994106l-2.00753018-1.12430558v.4073571l2.00753018 1.12430557v-.40735709z"/>
      <path fill="rgb(255,255,255)" fill-rule="evenodd" d="M73.35801344 60.56585283l-2.00753018-1.12430558v.4073571l2.00753018 1.12430557v-.40735709z"/>
      <path fill="rgb(255,255,255)" fill-rule="evenodd" d="M73.35801344 57.68991174l-2.00753018-1.13245272v.4073571l2.00753018 1.13245272v-.4073571z"/>
      <path fill="rgb(255,255,255)" fill-rule="evenodd" d="M72.5800955 116.39006908l-1.22961224-.69250706v.4073571l1.22961224.69250705v-.4073571z"/>
      <path fill="rgb(255,255,255)" fill-rule="evenodd" d="M72.5800955 113.50598085l-1.22961224-.69250706v.41550423l1.22961224.68435992v-.4073571z"/>
      <path fill="rgb(255,255,255)" fill-rule="evenodd" d="M72.5800955 110.63003976l-1.22961224-.69250706v.4073571l1.22961224.69250706v-.4073571z"/>
      <path fill="rgb(255,255,255)" fill-rule="evenodd" d="M72.5800955 107.74595153l-1.22961224-.69250706v.4073571l1.22961224.69250706v-.4073571z"/>
      <path fill="rgb(255,255,255)" fill-rule="evenodd" d="M72.5800955 104.8618633l-1.22961224-.69250706v.41550424l1.22961224.69250706v-.41550424z"/>
      <path fill="rgb(255,255,255)" fill-rule="evenodd" d="M72.5800955 101.98592221l-1.22961224-.69250706v.4073571l1.22961224.69250706v-.4073571z"/>
      <path fill="rgb(255,255,255)" fill-rule="evenodd" d="M72.5800955 99.10183398l-1.22961224-.69250706v.4073571l1.22961224.69250706v-.4073571z"/>
      <path fill="rgb(255,255,255)" fill-rule="evenodd" d="M72.5800955 96.21774575l-1.22961224-.69250706v.41550424l1.22961224.69250706v-.41550424z"/>
      <path fill="rgb(255,255,255)" fill-rule="evenodd" d="M72.5800955 93.34180466l-1.22961224-.69250706v.4073571l1.22961224.69250706v-.4073571z"/>
      <path fill="rgb(255,255,255)" fill-rule="evenodd" d="M72.5800955 90.45771643l-1.22961224-.69250706v.4073571l1.22961224.69250706v-.4073571z"/>
      <path fill="rgb(255,255,255)" fill-rule="evenodd" d="M72.5800955 87.5736282l-1.22961224-.69250706v.41550424l1.22961224.69250706v-.41550424z"/>
      <path fill="rgb(255,255,255)" fill-rule="evenodd" d="M72.5800955 84.69768712l-1.22961224-.69250706v.40735709l1.22961224.69250706v-.4073571z"/>
      <path fill="rgb(255,255,255)" fill-rule="evenodd" d="M72.5800955 81.81359889l-1.22961224-.69250706v.40735709l1.22961224.69250706v-.4073571z"/>
      <path fill="rgb(255,255,255)" fill-rule="evenodd" d="M72.5800955 78.92951066l-1.22961224-.69250706v.41550423l1.22961224.69250706v-.41550423z"/>
      <path fill="rgb(255,255,255)" fill-rule="evenodd" d="M72.5800955 76.05356957l-1.22961224-.69250706v.4073571l1.22961224.69250705v-.4073571z"/>
      <path fill="rgb(255,255,255)" fill-rule="evenodd" d="M72.5800955 73.16948134l-1.22961224-.69250706v.41550423l1.22961224.68435992v-.4073571z"/>
      <path fill="rgb(255,255,255)" fill-rule="evenodd" d="M72.5800955 70.2853931l-1.22961224-.69250705v.41550423l1.22961224.69250706v-.41550423z"/>
      <path fill="rgb(255,255,255)" fill-rule="evenodd" d="M72.5800955 67.40945202l-1.22961224-.69250706v.4073571l1.22961224.69250705v-.40735709z"/>
      <path fill="rgb(255,255,255)" fill-rule="evenodd" d="M72.5800955 64.52536379l-1.22961224-.69250706v.41550424l1.22961224.68435991v-.40735709z"/>
      <path fill="rgb(255,255,255)" fill-rule="evenodd" d="M72.5800955 61.64127556l-1.22961224-.69250706v.41550424l1.22961224.69250706v-.41550424z"/>
      <path fill="rgb(255,255,255)" fill-rule="evenodd" d="M72.5800955 58.76533447l-1.22961224-.69250706v.4073571l1.22961224.69250706v-.4073571z"/>
      <path fill="rgb(60,60,59)" fill-rule="evenodd" d="M75.95107327 2.2567583v63.2625568l-.95357684.53771137-3.05311882-2.78632253L70.99080077.53771136 71.9443776 0l4.00669566 2.2567583z"/>
      <path fill="rgb(255,255,255)" fill-rule="evenodd" d="M70.99080077.53771136l4.00669566 2.2567583v63.54770677l-4.00669566-3.32403389V.53771136z"/>
      <path fill="rgb(230,51,42)" fill-rule="evenodd" d="M74.57926097 66.19552788l-3.17022475-2.6233797V1.24651272l3.17022475 1.78422407v63.1647911z"/>
      <path fill="rgb(255,255,255)" fill-rule="evenodd" d="M73.35801344 63.4580882l-2.00753018-1.13245272v.41550424l2.00753018 1.12430558v-.4073571z"/>
      <path fill="rgb(255,255,255)" fill-rule="evenodd" d="M73.35801344 60.57399997l-2.00753018-1.12430558v.4073571l2.00753018 1.12430558v-.4073571z"/>
      <path fill="rgb(255,255,255)" fill-rule="evenodd" d="M73.35801344 57.68991174l-2.00753018-1.12430558v.4073571l2.00753018 1.13245272v-.41550424z"/>
      <path fill="rgb(255,255,255)" fill-rule="evenodd" d="M73.35801344 54.81397065l-2.00753018-1.13245272v.41550424l2.00753018 1.12430558v-.4073571z"/>
      <path fill="rgb(255,255,255)" fill-rule="evenodd" d="M73.35801344 51.92988242l-2.00753018-1.12430558v.4073571l2.00753018 1.12430558v-.4073571z"/>
      <path fill="rgb(255,255,255)" fill-rule="evenodd" d="M73.35801344 49.0457942l-2.00753018-1.12430559v.4073571l2.00753018 1.13245272v-.41550424z"/>
      <path fill="rgb(255,255,255)" fill-rule="evenodd" d="M73.35801344 46.1698531l-2.00753018-1.13245272v.41550424l2.00753018 1.12430558v-.4073571z"/>
      <path fill="rgb(255,255,255)" fill-rule="evenodd" d="M73.35801344 43.28576488l-2.00753018-1.12430559v.4073571l2.00753018 1.12430558v-.4073571z"/>
      <path fill="rgb(255,255,255)" fill-rule="evenodd" d="M73.35801344 40.40167665l-2.00753018-1.12430559v.4073571l2.00753018 1.13245272v-.41550423z"/>
      <path fill="rgb(255,255,255)" fill-rule="evenodd" d="M73.35801344 37.52573556l-2.00753018-1.13245273v.41550424l2.00753018 1.12430558v-.4073571z"/>
      <path fill="rgb(255,255,255)" fill-rule="evenodd" d="M73.35801344 34.64164733l-2.00753018-1.12430558v.4073571l2.00753018 1.12430557v-.4073571z"/>
      <path fill="rgb(255,255,255)" fill-rule="evenodd" d="M73.35801344 31.7575591l-2.00753018-1.12430558v.4073571l2.00753018 1.13245271v-.41550423z"/>
      <path fill="rgb(255,255,255)" fill-rule="evenodd" d="M73.35801344 28.88161801l-2.00753018-1.13245272v.41550423l2.00753018 1.12430558v-.40735709z"/>
      <path fill="rgb(255,255,255)" fill-rule="evenodd" d="M73.35801344 25.99752978l-2.00753018-1.12430558v.4073571l2.00753018 1.12430557v-.40735709z"/>
      <path fill="rgb(255,255,255)" fill-rule="evenodd" d="M73.35801344 23.1215887l-2.00753018-1.13245273v.41550423l2.00753018 1.12430559v-.4073571z"/>
      <path fill="rgb(255,255,255)" fill-rule="evenodd" d="M73.35801344 20.23750046l-2.00753018-1.13245272v.41550423l2.00753018 1.12430559v-.4073571z"/>
      <path fill="rgb(255,255,255)" fill-rule="evenodd" d="M73.35801344 17.35341223l-2.00753018-1.12430558v.4073571l2.00753018 1.12430558v-.4073571z"/>
      <path fill="rgb(255,255,255)" fill-rule="evenodd" d="M73.35801344 14.47747114l-2.00753018-1.13245272v.41550424l2.00753018 1.12430558v-.4073571z"/>
      <path fill="rgb(255,255,255)" fill-rule="evenodd" d="M73.35801344 11.59338291l-2.00753018-1.12430558v.4073571L73.35801344 12.00074v-.4073571z"/>
      <path fill="rgb(255,255,255)" fill-rule="evenodd" d="M73.35801344 8.70929468L71.35048326 7.5849891v.4073571l2.00753018 1.13245272v-.41550424z"/>
      <path fill="rgb(255,255,255)" fill-rule="evenodd" d="M73.35801344 5.8333536l-2.00753018-1.13245273v.41550424l2.00753018 1.12430558v-.4073571z"/>
      <path fill="rgb(255,255,255)" fill-rule="evenodd" d="M73.35801344 2.94926537l-2.00753018-1.12430559v.4073571l2.00753018 1.12430558v-.4073571z"/>
      <path fill="rgb(255,255,255)" fill-rule="evenodd" d="M72.5800955 61.6494227l-1.22961224-.69250706v.41550424l1.22961224.68435992v-.4073571z"/>
      <path fill="rgb(255,255,255)" fill-rule="evenodd" d="M72.5800955 58.77348161l-1.22961224-.69250706v.4073571l1.22961224.69250706v-.4073571z"/>
      <path fill="rgb(255,255,255)" fill-rule="evenodd" d="M72.5800955 55.88939338l-1.22961224-.69250706v.4073571l1.22961224.69250706v-.4073571z"/>
      <path fill="rgb(255,255,255)" fill-rule="evenodd" d="M72.5800955 53.00530515l-1.22961224-.69250706v.41550424l1.22961224.69250706v-.41550424z"/>
      <path fill="rgb(255,255,255)" fill-rule="evenodd" d="M72.5800955 50.12936407l-1.22961224-.69250707v.4073571l1.22961224.69250706v-.4073571z"/>
      <path fill="rgb(255,255,255)" fill-rule="evenodd" d="M72.5800955 47.24527584l-1.22961224-.69250707v.4073571l1.22961224.69250706v-.4073571z"/>
      <path fill="rgb(255,255,255)" fill-rule="evenodd" d="M72.5800955 44.3611876l-1.22961224-.69250706v.41550424l1.22961224.69250706v-.41550423z"/>
      <path fill="rgb(255,255,255)" fill-rule="evenodd" d="M72.5800955 41.48524652l-1.22961224-.69250706v.4073571l1.22961224.69250705v-.4073571z"/>
      <path fill="rgb(255,255,255)" fill-rule="evenodd" d="M72.5800955 38.60115829l-1.22961224-.69250706v.4073571l1.22961224.69250705v-.4073571z"/>
      <path fill="rgb(255,255,255)" fill-rule="evenodd" d="M72.5800955 35.71707006l-1.22961224-.69250706v.41550423l1.22961224.69250706v-.41550423z"/>
      <path fill="rgb(255,255,255)" fill-rule="evenodd" d="M72.5800955 32.84112897l-1.22961224-.69250706v.4073571l1.22961224.69250705v-.4073571z"/>
      <path fill="rgb(255,255,255)" fill-rule="evenodd" d="M72.5800955 29.95704074l-1.22961224-.69250706v.4073571l1.22961224.69250705v-.4073571z"/>
      <path fill="rgb(255,255,255)" fill-rule="evenodd" d="M72.5800955 27.0729525l-1.22961224-.69250705v.41550424l1.22961224.69250706v-.41550424z"/>
      <path fill="rgb(255,255,255)" fill-rule="evenodd" d="M72.5800955 24.19701142l-1.22961224-.69250706v.4073571l1.22961224.69250706v-.4073571z"/>
      <path fill="rgb(255,255,255)" fill-rule="evenodd" d="M72.5800955 21.3129232l-1.22961224-.69250707v.41550424l1.22961224.68435992v-.4073571z"/>
      <path fill="rgb(255,255,255)" fill-rule="evenodd" d="M72.5800955 18.42883496l-1.22961224-.69250706v.41550424l1.22961224.69250706v-.41550424z"/>
      <path fill="rgb(255,255,255)" fill-rule="evenodd" d="M72.5800955 15.55289387l-1.22961224-.69250706v.4073571l1.22961224.69250706v-.4073571z"/>
      <path fill="rgb(255,255,255)" fill-rule="evenodd" d="M72.5800955 12.66880564l-1.22961224-.69250706v.41550424l1.22961224.68435992v-.4073571z"/>
      <path fill="rgb(255,255,255)" fill-rule="evenodd" d="M72.5800955 9.79286456l-1.22961224-.69250707v.4073571l1.22961224.69250706v-.4073571z"/>
      <path fill="rgb(255,255,255)" fill-rule="evenodd" d="M72.5800955 6.90877633l-1.22961224-.69250707v.4073571l1.22961224.69250706v-.4073571z"/>
      <path fill="rgb(255,255,255)" fill-rule="evenodd" d="M72.5800955 4.0246881l-1.22961224-.69250707v.41550424l1.22961224.69250706V4.0246881z"/>
      <path fill="rgb(252,199,170)" fill-rule="evenodd" d="M71.19155379 70.6927502l.25930598.05703.08364709.58659421.23421185.12220713s.20075302.7006542.33458837.76583134c.14640877.02769441.29692081.02769441.44332958 0 .19459687.26066716.42543987.49373171.68590615.69250706.25094127.13035427 1.3718123.22811997 1.67294182.32588568.48947422.17834652 1.00166854.29072979 1.52237706.33403281h2.07444785c1.23797695 0 4.60059001.99395131 6.84233205 1.17318844 2.61854431.14672725 5.24567586.02383933 7.83773244-.36662139.8364709-.27700282 2.50941273-4.33427949 2.92764818-5.20602367.41823546-.87174418 1.25470637-3.0714725 1.4638241-3.78027384-.01766299-.85935901-.36362633-1.6814369-.97030626-2.30564115-.24967994-.297508-.59927574-.49950116-.98703567-.57029994-1.13760044-.08961856-4.18235456 1.7679298-4.18235456 1.7679298s-.41823545 2.04493261-.61898847 3.37291674c-.12799261.6906475-.15894691 1.39504177-.0920118 2.09381547l-.31785895.05702999c-1.9142605.36762791-3.85030817.61796493-5.7967434.74953705-2.26276967.01636052-4.52472555-.08971573-6.77541438-.31773853-.77207846-.69260778-1.59697351-1.32718875-2.46758919-1.89828406-1.01328355-.03306808-2.02699942.05171812-3.01965999.2525614-.38484406.19998427-.72136968.4777576-.98703567.81471419-.0764042.07958564-.12854048.17832493-.15056477.28514996-.02509412.2118257-.01672941.99395131-.01672941.99395131z"/>
      <path fill="rgb(250,211,190)" fill-rule="evenodd" d="M71.19155379 70.6927502l.25930598.05703.08364709.58659421.23421185.12220713s.20075302.7006542.33458837.76583134c.14640877.02769441.29692081.02769441.44332958 0 .19459687.26066716.42543987.49373171.68590615.69250706.25094127.13035427 1.3718123.22811997 1.67294182.32588568.48947422.17834652 1.00166854.29072979 1.52237706.33403281h2.07444785c1.23797695 0 4.60059001.99395131 6.84233205 1.17318844 2.61854431.14672725 5.24567586.02383933 7.83773244-.36662139.8364709-.27700282 2.50941273-4.33427949 2.92764818-5.20602367.41823546-.87174418 1.25470637-3.0714725 1.4638241-3.78027384-.01766299-.85935901-.36362633-1.6814369-.97030626-2.30564115l.59389435 1.80051836s-.58552964 1.81681264-1.5558359 4.29354377c-.55699674 1.67722323-1.33588837 3.2766507-2.31702442 4.75793087-.40987075.36662138-4.39983699 0-5.6127198 0-1.21288283 0-7.75408535-.61918279-9.71142728-.5621528-1.0002128.040044-1.99982357-.092345-2.95274232-.3910628l-1.72313007-.1955314-.66081202-.49697566.6440826-.30144425.71100027-.12220713-1.00376509-.17923712-.7360944.27700282-.28440011-.62732993v-.28514996l1.67294182-.39106281-1.51401235.06517713-.460059.14664856-.1840236-.58659422.29276482-.42365138.66917673-.30144425 1.57256531-.07332428-1.86533013-.12220712-.83647091.7413899s-.30112953-.46438708-.06691767-.71694848c-.0764042.07958564-.12854048.17832493-.15056477.28514997.05855297.22811997.06691768 1.0102456.06691768 1.0102456z"/>
      <path fill="rgb(32,162,106)" fill-rule="evenodd" d="M91.0410085 64.59868807s1.78168303.14664855 2.96947173.38291567l3.69720142.71694848s1.23797695-4.28539663 1.17942399-6.2814464c-.01091032-1.63019151-.36387828-3.24100095-1.03722393-4.73348944-.41823546-.55400564-2.55960099.28514997-2.89418935.43994567-.33458837.1547957-1.8318713 4.39945662-2.18318908 5.05122797-.35131778.65177135-1.73149478 4.42389805-1.73149478 4.42389805z"/>
    </g>
  </g>
</svg>
