<svg xmlns="http://www.w3.org/2000/svg" xmlns:xlink="http://www.w3.org/1999/xlink" width="93" height="114" viewBox="0 0 93 114">
  <defs>
    <rect id="rect-2" width="76.32" height="111.05" x="9" y="0"/>
    <mask id="mask-3" maskContentUnits="userSpaceOnUse" maskUnits="userSpaceOnUse">
      <rect width="93" height="114" x="0" y="0" fill="black"/>
      <use fill="white" xlink:href="#rect-2"/>
    </mask>
  </defs>
  <g>
    <ellipse cx="46.5" cy="67.5" fill="rgb(213,227,220)" rx="46.5" ry="46.5"/>
    <g>
      <use fill="none" xlink:href="#rect-2"/>
      <g mask="url(#mask-3)">
        <g opacity=".4">
          <path fill="rgb(32,162,106)" fill-rule="evenodd" d="M22.23396149 71.9826034c-8.32617607.54847664-14.19189822 4.81734304-13.12242091 9.5223475 1.0694773 4.70500447 8.7264099 8.08177031 17.05914718 7.53329367 8.33273727-.54847664 14.19189821-4.81734305 13.1224209-9.52895567-1.0694773-4.71161261-8.73953232-8.0817703-17.05914717-7.5266855z"/>
        </g>
        <g opacity=".4">
          <path fill="rgb(32,162,106)" fill-rule="evenodd" d="M68.14275103 93.93488545c-8.32617606.54847664-14.19189821 4.81734305-13.1224209 9.52234752 1.0694773 4.70500446 8.7264099 8.0817703 17.05914717 7.53329366 8.33273728-.54847664 14.19189822-4.81734305 13.12242091-9.52895567-1.0694773-4.71161261-8.73953232-8.0817703-17.05914718-7.5266855z"/>
        </g>
        <path fill="rgb(255,178,148)" fill-rule="evenodd" d="M59.2982483 54.86083984l.78079223 1.49353028s.4322815 2.46936035.55465698 2.6394043l-1.52572632-1.91918946-.05249023-1.14318848-.22964478-.77978515c-.18371582-.42944336.10498047-.95153809.47241211-.29077149z"/>
        <path fill="rgb(255,178,148)" fill-rule="evenodd" d="M61.79149931 61.33026183c-.50829582-.24171368-1.00329116-.5108353-1.48283356-.80619459l-1.7518432-.8590598-1.53532324-1.10356144-.9382531-.58812556-.89232461-.24450164c-.53145805-.20485272-.42647868-.60795001-.05248969-.5815174l.97762036.11894674.8201513.23789348-.97762035-.7202886-1.27287483-.46917882c-.39367263-.1519875-.45928473-.66081523 0-.57490925l2.10614856.56169295-.65612105-.56169295-1.35160935-.50882773c-.38711142-.13216305-.46584594-.66081523.13778542-.54847664l1.03011004.25110979 1.22694635.56169294-.373989-.36344837-1.0694773-.7070723c-.43303989-.36344838-.24276478-.73350491.32149932-.46917882l.98418156.5550848c.3970385.20478463.76184646.46754414 1.08259973.77976197l.61675378.66081524.57738652.54847664c.60551257.71893972 1.05276443 1.55903215 1.3122421 2.46484082l1.15477303 2.33267778.00656121.03304076z"/>
        <path fill="rgb(255,255,255)" fill-rule="evenodd" d="M80.20225585 49.82546861l.65612104 4.02436477c.1542972.9261007-.12410193 1.87211528-.7545392 2.5639631-.9448143 1.03747993-2.55231087 1.44718537-3.7070839 1.7908093-.2925457.07776843-.57967597.1748991-.85951858.2907587l-1.5090784-4.37459685.89232462-9.51573936c2.64416781-.14537936 4.31727648 1.68507884 5.28177442 5.22044034z"/>
        <g opacity=".3">
          <path fill="rgb(60,60,59)" fill-rule="evenodd" d="M80.12352132 56.41379649c-.9448143 1.03747992-2.55231087 1.44718536-3.7070839 1.79080928l-.65612105-2.53092234 2.72946355-5.18079143 1.6337414 5.92090449z"/>
        </g>
        <path fill="rgb(255,178,148)" fill-rule="evenodd" d="M68.54954608 52.42908063l-1.96836314-.11233859-2.54574965-1.59256471-1.88962861-.46917882h-1.20070152c-.0870584.0023536-.1723943.02497109-.249326.06608153l-.22964236.1387712-.30181568.0396489c-.1975312.02704283-.3600899.16997449-.41335626.36344839l-.30837689.20485272c-.06451621.0711656-.08422058.17263703-.05107856.26303885.03314203.09040183.11359259.1546284.20854761.16649105l.41335626-.05286522.74141678.1255549 1.20726272.48239512.76766163 1.11677774s-.11154058.2775424-.15746905.29736686c-.40258303.1250192-.8192411.19828952-1.24006878.21806902h-.41991747c-.36086657.14537936-.52489683.46257067-.15746905.58151741l.57738652.1652038 2.23081155.32379947 2.23081156-.28415055 2.34235213.32379947.41335626-2.36571854z"/>
        <path fill="rgb(34,34,34)" fill-rule="evenodd" d="M72.55188446 94.12652187c-1.91587346.39648914-2.22425035 1.90314787-1.49595599 3.20495388l2.15863824 3.11243975c.8135901 1.42075275 1.90275103 2.08817614 3.3265337 1.8436745 1.3122421-.52865218 1.45002751-1.38110384 1.09572215-2.37893484l-.53145805-1.63882178-.83327373-4.44728652-3.72020632.303975z"/>
        <path fill="rgb(34,34,34)" fill-rule="evenodd" d="M77.43342503 98.296266c-.59707015 2.04852722-3.88423658 1.77098482-4.146685-.96479025l-.39367263-7.81083606-.65612105-4.2292175-1.56156808-8.2205415.86607978-3.30407617-.65612105-6.43634037 8.04404402-.37666469s-1.65342504 16.30891997-1.65342504 16.96312705c1.121967 3.5485778.41335626 9.69415948.15746905 14.37933948z"/>
        <path fill="rgb(34,34,34)" fill-rule="evenodd" d="M72.49283356 101.10473073c.65612105 1.15642666.36742779 3.09922345 0 3.9648914-1.1941403.44935437-2.19144429.53526035-2.8869326.05947338-2.25049518-.1387712-3.51024759.1652038-4.67158184-.16520381-1.16133425-.33040762-2.0733425-.72689676-2.7032187-1.9824457-.13002102-.37960918-.0816281-.79816523.13151955-1.1375279.21314765-.33936269.56792825-.5627187.96420259-.60702432 1.86994498-.07268967 3.54961485-.23128533 4.46818432-.693856l1.5681293-2.92741148 2.90005502 2.30624517.22964236 1.18285926z"/>
        <path fill="rgb(53,53,53)" fill-rule="evenodd" d="M71.79734525 80.67232371c-.11154057 1.73133592-.4396011 3.30407617-.373989 4.62570664 1.7518432 5.43850937 1.17445668 11.64356441 1.54188447 16.73844986-1.3778542 2.20712288-5.13086658 1.28858971-5.48517194-.76654567l-.38055021-6.96499256v-.34362392l-.36086658-2.46484082-.21651994-1.36127938-.72829436-4.62570664c-.65612105-4.92968164-.36086658-13.74495686-.08529574-18.12616185v-.46917882l7.92594223-.93835763c-.00656768.0349331-.00656768.07079733 0 .10573044.15746905 1.10356144 5.0783769 1.50005058 5.13086658 2.64326093.124663 2.59700387-1.7518432 8.10820292-6.42342504 8.59059804h-.124663c-.15746905 1.71151145-.3149381 1.8304582-.41991747 3.35694138z"/>
        <path fill="rgb(34,34,34)" fill-rule="evenodd" d="M78.80471802 68.72478429c.124663 2.59700387-1.7518432 8.10820292-6.42342504 8.59059804h-.124663c-2.2636176.82601904-4.23854195 1.92958048-5.14398899 3.9648914-.26900963 4.41424576-.45928473 7.0839393-.58394773 8.83509967l-.72829436-4.62570663c-.65612105-4.92968165-.36086658-13.74495686-.08529574-18.12616186v-.46917882l7.92594223-.93835763c-.00656768.03493311-.00656768.07079733 0 .10573044.1902751 1.12999405 5.11118295 1.52648319 5.16367263 2.66308539z"/>
        <path fill="rgb(255,178,148)" fill-rule="evenodd" d="M68.89729023 50.2417822l-1.28599725-5.88786372 3.24123797-2.689518 2.17832187 4.50675989-4.13356259 4.07062184z"/>
        <path fill="rgb(255,255,255)" fill-rule="evenodd" d="M78.48977992 59.74430527c.09841815 1.38771199.4396011 7.17645343.4396011 7.17645343-2.02085282 3.4098066-6.30532325 4.34155609-10.11082531 3.70056531-1.3294425-.22367762-2.51262565-.97918256-3.28060523-2.09478429-1.018971-3.65156786-1.44221344-7.4455985-1.2531912-11.23385897.05396695-1.42503702.37684134-2.82669384.95137552-4.13009521l4.50099037-5.14114252c1.43470403-1.20768867 2.97150516-2.28672368 4.59284732-3.22477834 2.62448418-.93174948 4.75031637 2.42519191 4.520674 6.46277299-.01312242-.02643261-.45272352 7.10376376-.36086657 8.4848676z"/>
        <path fill="rgb(255,178,148)" fill-rule="evenodd" d="M68.5626685 47.22846474l-1.12196699-.17181196c-.78201278-.11985291-1.4713584-.58189822-1.8830674-1.2621571-.73485557-1.22911633-1.73215956-3.30407616-1.43690509-5.04862838.45928474-2.72916691 1.80433288-3.66752454 4.40913343-3.43623921 2.60480055.23128533 3.93672627 1.79741743 3.93672627 4.62570663 0 2.8282892-.79390646 2.64326094-.79390646 2.64326094l-3.11001376 2.64986908z"/>
        <path fill="rgb(34,34,34)" fill-rule="evenodd" d="M64.07480055 41.63135971l1.65342503 1.32163047.76110042 1.32163047.55770289.48239512.40679504.80619458c.3229498.6405962 1.05750272.95326988 1.73872077.74011307 1.11905287-.3388331 2.1096907-1.01166402 2.84100413-1.92958049.73131344-.91791646.78078404-.8722761.52489684-3.38998214-.07118146-1.68628208-1.15084973-3.16053565-2.72946355-3.72699792-.74141678-.19163642-4.59284732-.94496579-6.00350757 1.1366022-1.55500687 2.29302886.249326 3.23799464.249326 3.23799464z"/>
        <path fill="rgb(255,178,148)" fill-rule="evenodd" d="M66.53525447 43.19088367c.130856-.02027446.26415414.01568585.36742779.09912228.0982024.08600168.18040813.1889346.24276478.303975.26224059.43633583.4132582.93122203.4396011 1.44057722.01331292.13130435-.00008205.26396386-.03936726.38988099-.04421151.1252966-.14354953.22290511-.26900963.26432609-.12596127.02637452-.256934-.00782431-.35430536-.09251413-.0944838-.08364821-.17240143-.18454475-.22964237-.29736686-.22308115-.36344838-1.05635488-1.91636418-.15746905-2.1080006z"/>
        <g opacity=".3">
          <path fill="rgb(60,60,59)" fill-rule="evenodd" d="M70.34075653 57.04157096c1.73215956 8.39235347-3.56929848 7.66545671-1.52220082 13.57975305-1.3294425-.22367762-2.51262565-.97918256-3.28060523-2.09478429-1.018971-3.65156786-1.44221344-7.4455985-1.2531912-11.23385897l6.05599725-.25110979z"/>
        </g>
        <path fill="rgb(255,255,255)" fill-rule="evenodd" d="M64.11416781 59.07688188l-2.15863824-1.2489408c-2.02085282-.76654566-3.7070839 1.5264832-2.62448418 3.72038977l5.24896837 3.91202619c.70875035.57227483 1.619041.82773824 2.5195048.7070723 2.5063824-.85245165 2.84100414-5.06845284 3.28060524-9.12585838-.30181568-4.07062184-3.93672628-5.78874144-5.56390647-3.09922344l-.70204952 5.13453436z"/>
        <path fill="rgb(212,238,255)" fill-rule="evenodd" d="M41.28771664 38.6378667c.47240716-.0396489.60363137-.90531686.53801926-2.24677179l-1.74528198.2511098c-.36742779 1.0242636.28869326 1.55291579 1.20726272 1.995662z"/>
        <path fill="rgb(255,203,166)" fill-rule="evenodd" d="M45.0866575 36.88670634l-.65612105 1.19607557-.48552957.8590598c-.69422383.11608047-1.40675723.03837518-2.06022008-.22467718l-1.03011005.07929783h-.1902751l-1.35160935.03964892.32806052-1.89653972 1.65998624-.7070723c.09076009-.37867963.23201594-.74323743.41991747-1.08373699.31818829-.4144388.49121771-.92329948.49209079-1.44718536 0-.89210056-.0656121-1.20929188.124663-1.20929188 1.06291609 0 .62331499 2.60361202.62331499 2.60361202.79390646-.05947337 1.91587345-.1784201 2.0142916.23789349l.11154059 1.5529158z"/>
        <g opacity=".4">
          <path fill="rgb(255,178,148)" fill-rule="evenodd" d="M44.430542 38.08276367l.14433288-2.55078125c-.18730164.06347656-.45025635.05383301-.7337494.04333496-.74926757-.02758789-1.64204406-.06054687-1.66108703 1.23864746-.01904297.84606934-.50704956 1.60961914-1.26293945 1.97766114l-.0624237.00476074h.05249023l.00993347-.00476074.96768188-.0744629c.6534729.26306153 1.36599732.34069825 2.06022644.22460938l.48553467-.85900879z"/>
        </g>
        <path fill="rgb(255,203,166)" fill-rule="evenodd" d="M44.97511692 35.30735793c-.4836071.32498668-1.05236943.4975263-1.6337414.49561142-.95137552 0-.83327373.77976198-.47240716.8590598-.3149381.1123386-.5708253.19824458-.52489683.52204404.04592847.32379947.34774415.43613806.65612104.40970545-.36086657.11894674-.34118294.83923534.51177442.75993752 0 0-.45272352.19163641-.13122421.52865218.13778542.14537935.52489683.17181196 1.0694773-.05286522l.3083769-.10573043c.82671251-.8458435.21651994-3.41641476.21651994-3.41641476z"/>
        <path fill="rgb(255,255,255)" fill-rule="evenodd" d="M41.28771664 36.24571556l-8.08341128-.97800654c-.65612104-2.3723267-.97105914-4.46050283-2.53262723-8.20071705l-3.93672627 4.92307349c1.1941403 2.5375305 2.46045392 5.75570068 4.44850068 7.26896757 1.20726273.75332936 9.45470427-.15859566 10.287978-.51543589-.71540492-.64878685-.79639784-1.75001394-.1837139-2.49788158z"/>
        <path fill="rgb(34,34,34)" fill-rule="evenodd" d="M16.2173315 78.99385302c-.3197225.72577014-.41572364 1.53150332-.27557084 2.31285332.20100035.40924981.37631028.83079679.52489684 1.2621571.21651994.75993751.18371389 2.02870276 1.31224209 2.78864028 1.31224209 1.06391253 3.93672627 1.11677774 4.74375516 0-.10883605-.98985045-.46059302-1.93685105-1.02354884-2.75559952l-1.31224209-2.46484083.08529574-2.30624516-3.77269601-.8326272-.28213205 1.99566201z"/>
        <path fill="rgb(34,34,34)" fill-rule="evenodd" d="M23.434663 73.42978875c-.35430537.48239512-.33462173 1.58595656-.22964237 2.83489736.36086658 1.25554894 1.54844567 1.1366022 2.55887208 1.2753734 1.96836314.2775424 2.96566712 1.73794406 5.56390646 1.691687 1.54844567-.03304077 2.5719945-.38327284 2.8803714-1.3744957-.01957819-.56140813-.31458398-1.07640987-.78734526-1.37449568-3.5824209-1.5396995-3.5824209-1.5396995-3.66771664-1.59917286-.60341241-.4048301-1.18186318-.8461856-1.73215956-1.32163047-.03280606-.1255549-.65612105-2.84811366-.65612105-2.84811366l-3.81862448.06608153-.11154058 2.64986908z"/>
        <path fill="rgb(34,34,34)" fill-rule="evenodd" d="M22.1224209 44.17549836l2.74914719 15.19875038c-.41335626 4.62570663-2.00116919 9.18533174-1.57469051 13.65244272.33462173 1.85028265 4.13356259 1.57274026 4.86185695.21146088-.249326-3.47588813 1.77152682-8.59059804 2.53262723-14.31986612.17059147-5.63014579.10497937-11.43210354-1.03667125-15.89921452l-7.5322696 1.15642666z"/>
        <path fill="rgb(34,34,34)" fill-rule="evenodd" d="M30.25176066 46.03238917c-.12762612.51480753-.28314081 1.0221918-.46584594 1.51987504 0 .05286522-.03936726.09251413-.05248969.13216304-.41953031 1.25156607-1.30357708 2.29112232-2.46701513 2.90097888-.26900962.14537935-.55770288.2775424-.87264099.4163136-1.86304783.70915408-3.86768379.95841063-5.84603851.72689675h-.07217332c-.27557084 0-.53801925-.04625706-.79390646-.07929782-.65612105-.07929783-1.22038515-.16520381-1.78464924-.27093425-.0590509-.22467718-.11154058-.43613805-.15746906-.66081523-.30226648-1.59616433-.27770696-3.23768406.07217332-4.8239512 0-.18502827.05248968-.3766647.08529574-.57490926l-.03280606-.1255549c4.0810729 1.48022613 9.67122421.29736686 12.22353508-3.3965903-.03008327 1.41398055.0246933 2.82850003.16403026 4.23582565z"/>
        <path fill="rgb(53,53,53)" fill-rule="evenodd" d="M29.73342503 47.68442725c-1.03667125 4.44728653-3.93672627 4.62570664-3.93672627 5.68301101-.23453263 3.80526899-.6725823 7.5950368-1.31224209 11.35280572-1.7584044 5.47155013-3.36590096 10.70520678-3.73988996 14.16127045-.65612104.82601904-2.62448418 1.12999405-3.79237964.66081523-.16086475-.06123253-.31306846-.14343293-.45272352-.24450163-.31584995-.22653445-.5020022-.5941019-.498652-.9846147.10071208-4.51007267.79121146-8.9871035 2.05365888-13.31542696l-.32806053-14.26039274-.04592847-1.9824457 4.10075653-.80619458 7.69629987-1.50665874c.05248968.54847665.42647868.47578697.2558872 1.24233264z"/>
        <g opacity=".5">
          <path fill="rgb(22,43,53)" fill-rule="evenodd" d="M22.1224209 47.21524844c-.1429078.2159991-.25344757.45202002-.32806051.70046415-.22964237 1.22911633.87264099 3.85916096-.29525448 5.0882773-2.70977991 2.8547218-1.81089408 7.05089854-1.36473177 11.8946742-2.69009629 3.83272835-3.54305364 8.78223445-3.16906465 14.67009818-.16086474-.06123253-.31306845-.14343293-.45272352-.24450163-.31584995-.22653445-.5020022-.5941019-.498652-.9846147.10071208-4.51007268.79121146-8.9871035 2.05365888-13.31542696l-.32806053-14.26039274c-.30226648-1.59616432-.27770696-3.23768405.07217332-4.8239512l4.31071527 1.2753734z"/>
        </g>
        <path fill="rgb(255,255,255)" fill-rule="evenodd" d="M30.33049519 30.5560964s-.2427648 6.60815234-.2427648 11.23385897c-.1968363 3.80629575-4.42225584 5.66318655-7.96530948 5.42529307-1.80433288-.1255549-3.43151307-.78637013-4.25822559-1.9824457l-.65612104-2.9670604-.65612105-2.90758703-.07873452-.74011306-.0590509-.5418685v-.28415054l-.8135901-6.98481702c.3149381-.36344838.65612105-.7202886.97762036-1.07712883.32149932-.35684023.71517194-.74011306 1.08916094-1.09695329 1.42404988-1.35445917 2.96060832-2.58365737 4.59284732-3.6741327h5.68200825c1.28599725 1.23572449 2.00116919 3.20495388 2.3882806 5.59710503z"/>
        <path fill="rgb(255,255,255)" fill-rule="evenodd" d="M27.16143054 24.58232669l2.62448418 8.20071705s1.8896286-3.04635823.86607978-5.68961916c-.77422284-2.1344332-3.49056396-2.5110979-3.49056396-2.5110979z"/>
        <g opacity=".3">
          <path fill="rgb(60,60,59)" fill-rule="evenodd" d="M22.1224209 47.21524844c-1.81089408-.1255549-3.43807427-.78637013-4.26478679-1.9824457l-.65612104-2.9670604-.65612105-2.90758703-.07873452-.74011306.24276478-1.36127938 3.11657497-1.67186254c-.3805502 4.84377566.14434663 8.94743826 2.29642366 11.6303481z"/>
        </g>
        <path fill="rgb(255,200,179)" fill-rule="evenodd" d="M20.61990371 48.43114847l-3.5758597-5.43190122c-1.35055789.48721952-2.38903894 1.59451009-2.79507565 2.9802767 1.73872077 1.5264832 3.36590097 2.8018566 5.019326 4.30851532 1.16133425-.68724784 1.45658872-1.38771199 1.35160935-1.8568908z"/>
        <path fill="rgb(34,34,34)" fill-rule="evenodd" d="M20.62646492 47.57869682c-.57992824 1.2880536-1.33757551 2.48716019-2.25049518 3.5617941l.70204952.89870872c.88131166-1.21696125 1.68977578-2.48577627 2.42108665-3.79968759l-.87264099-.66081523z"/>
        <path fill="rgb(255,255,255)" fill-rule="evenodd" d="M20.40338377 48.107349l-4.80280605-7.26896757 4.2057359-5.28652186-4.2057359-4.74465338s-4.81592848 8.21393335-4.81592848 10.05760785c0 1.67186254 1.1941403 3.9648914 8.37210454 9.32410295.51631212-.62734216.93650827-1.32896723 1.24662999-2.08156799z"/>
        <path fill="rgb(255,203,166)" fill-rule="evenodd" d="M25.61298487 29.32698007c-.19321708.2951405-.46971573.52528666-.79390647.66081523-2.23737276.66081523-3.67427785-1.69829515-3.81206327-3.41641476-.11810179-1.51987504-.22308115-2.7159506-.22308115-2.7159506l5.12430536 1.25554894s.04592847.40309729.07217331.9846147c.10362468 1.09115895-.02155565 2.19207193-.36742778 3.23138649z"/>
        <g opacity=".5">
          <path fill="rgb(255,178,148)" fill-rule="evenodd" d="M26.3806465 29.35341267c-1.67310867.4163136-2.99191197-2.64326093-2.99191197-2.64326093l3.42495185-.66081523c.66268226 2.29302886.26244842 3.12565605-.43303989 3.30407616z"/>
        </g>
        <path fill="rgb(255,203,166)" fill-rule="evenodd" d="M21.38100413 24.205662c.6329025.92940931 1.3301217 1.8126891 2.08646492 2.64326094.59840505.59959915 1.39457839.95703073 2.23737277 1.00443915.40782282.0121493.80550324-.12921268 1.11540577-.39648914.96449794-.5815174.85295736-4.01114846.85295736-4.01114846.03002568-.75512957-.05404237-1.51047068-.249326-2.24016365-.23620357-1.1366022-1.31224209-3.30407616-4.59284731-2.82168104-1.39860452.07708218-2.53939722 1.15631851-2.70321871 2.55735495-.02950092 1.00694198.11707876 2.01126234.43303989 2.9670604l.8201513.29736686z"/>
        <path fill="rgb(34,34,34)" fill-rule="evenodd" d="M20.69207703 25.34887236c.86607978 1.45379351 2.3817194 1.32163047 2.53262723 0 .03280606-.27093425.80046768-.18502827 1.10884457-.2643261l-.24276479-.9846147c-.11810178-.7467212.40679505-.7202886.83983494-.81941088 1.60093535-.36344838 2.46045392-1.04408807 2.67041266-1.8568908.53145804-2.03531093-2.13895461-3.5353615-4.15324622-3.46927998-1.87856206-.06448692-3.52152774 1.26434611-3.86455296 3.12565605-.27557084 1.52648319 1.10884457 4.2688664 1.10884457 4.2688664z"/>
        <path fill="rgb(255,203,166)" fill-rule="evenodd" d="M23.06723521 24.10653972c-.21434174-.1280066-.4885026-.08658826-.65612104.09912229-.08070208.11250637-.11157696.25363336-.08529574.38988098.02722002.13381432.0736351.2629255.13778542.38327284.10497937.21146087.21651995.4163136.34118295.62116632.0875685.17212187.23457442.30607881.41335625.37666468.1902751.04625707.41991747.17842011.52489684 0 .08994517-.26121116.10808188-.542058.05248968-.81280274-.08034796-.44158286-.3457448-.82687382-.72829436-1.05730437z"/>
        <path fill="rgb(255,203,166)" fill-rule="evenodd" d="M28.22434663 25.11097888c0 .36344837-.60363136.42292174-.91200825.303975h-.124663c-.01169189-.02971392-.01169189-.06280021 0-.09251413-.03607685-.32498974-.03607685-.6530168 0-.97800655 0-.1519875.03280605-.91853317.20995873-.92514132.43675275.4683534.72463124 1.057434.82671252 1.691687z"/>
        <path fill="rgb(69,196,138)" fill-rule="evenodd" d="M33.43394773 14.18770306l-1.6337414 3.59483488 3.81206327-2.35250224 16.40302614 9.55538828c1.23350756.71368045 2.23737276.2907587 2.23737276-.95157394v-9.3307111c-.14450284-1.47511151-.97451075-2.79399433-2.23737276-3.55518595L33.43394773.35023207c-1.24006878-.7202886-2.23737276-.2907587-2.23737276.9713984v9.31088664c.1434835 1.47546483.97375846 2.79477196 2.23737276 3.55518595z"/>
        <path fill="rgb(255,255,255)" fill-rule="evenodd" d="M34.05070151 4.03758108l17.32815681 10.07082416v-1.01104731L34.05070152 3.02653377v1.0110473z"/>
        <path fill="rgb(255,255,255)" fill-rule="evenodd" d="M34.05070151 6.766748l17.32815681 10.0774323V15.833133L34.05070152 5.75570068V6.766748z"/>
        <path fill="rgb(255,255,255)" fill-rule="evenodd" d="M42.04881706 14.14805415l9.33004126 5.42529307v-1.00443916L42.04881706 13.143615v1.00443915z"/>
        <path fill="rgb(255,255,255)" fill-rule="evenodd" d="M37.54126547 14.26039274l13.83759285 8.04872955v-1.01104731l-13.83759285-8.04872955v1.01104731z"/>
        <path fill="rgb(238,152,21)" fill-rule="evenodd" d="M78.88345254 13.11057423c0-1.19607557-.373989-2.11460874-1.1350894-2.51770604h.07217331l-2.2570564-1.32163046c-.8135901-.46917882-2.09302613-.33701577-3.897359.7070723-1.62980328.99398526-3.0751976 2.26635609-4.27134801 3.76003868l.89232462 2.74238322 2.2570564 1.32163046c.56779165-.7712191 1.24670255-1.45275997 2.0142916-2.02209461-.347475 1.03329372-.78666381 2.0329617-1.31224208 2.98688485-1.15477304 2.28642071-1.58781293 4.0904463-1.5090784 5.57067242v.75993752l1.24006877.72689676c-1.16705108.90708397-1.86602457 2.29561251-1.90275103 3.77986313-.07044448.60576813.17833555 1.20460634.65612104 1.57934841l2.2570564 1.32163047c.54285008.2387692 1.17179725.16022178 1.64030261-.20485272 1.39960959-.87226163 2.26431155-2.40004878 2.29642366-4.05740554 0-.89870872-.32806052-1.46700982-.84639615-1.65203808.0590509 0 .124663.03964891.17715268.06608152l-1.84370013-1.07712883 1.96836313-1.15642666v-.53526034c.0312635-1.58897543.48436507-3.14054252 1.3122421-4.49354358.99074277-1.8172419 2.1980055-4.01775663 2.19144428-6.28435288z"/>
        <path fill="rgb(255,197,38)" fill-rule="evenodd" d="M73.60823934 26.87535555c1.39097662-.80619459 2.29642366-.19824457 2.3226685 1.36788753-.03494927 1.65995073-.9049119 3.1882992-2.30954608 4.05740554-1.36473177.79958643-2.29642366.17181196-2.30298487-1.37449569.03528956-1.65303476.89648294-3.1764974 2.28986245-4.05079738z"/>
        <path fill="rgb(255,198,65)" fill-rule="evenodd" d="M73.9559835 11.33298126c3.40526822-1.9824457 4.95371389-.70046415 4.9602751 1.77759297 0 2.26659625-1.20070152 4.46711098-2.17176066 6.28435288-.82787702 1.35300106-1.2809786 2.90456815-1.3122421 4.49354358v.56169295l-3.44463548 1.9824457v-.75993752c-.07873453-1.48022612.35430536-3.30407616 1.5090784-5.57067242.8201513-1.61238916 1.48939478-2.95384409 1.48939478-3.9648914 0-1.0110473-.59707016-1.38771199-1.88962862-.70046414-.9886418.62590593-1.85211672 1.4328001-2.54574965 2.37893484l-.89232462-2.74238322c1.20568236-1.48894672 2.66001148-2.75465584 4.29759284-3.74021422z"/>
      </g>
    </g>
  </g>
</svg>
