<svg xmlns="http://www.w3.org/2000/svg" xmlns:xlink="http://www.w3.org/1999/xlink" width="93" height="93" viewBox="0 0 93 93">
  <defs>
    <rect id="rect-2" width="60.01" height="84" x="17" y="0"/>
    <mask id="mask-3" maskContentUnits="userSpaceOnUse" maskUnits="userSpaceOnUse">
      <rect width="93" height="93" x="0" y="0" fill="black"/>
      <use fill="white" xlink:href="#rect-2"/>
    </mask>
  </defs>
  <g>
    <ellipse cx="46.5" cy="46.5" fill="rgb(213,227,220)" rx="46.5" ry="46.5"/>
    <g>
      <use fill="none" xlink:href="#rect-2"/>
      <g mask="url(#mask-3)">
        <g opacity=".4">
          <ellipse cx="28.259" cy="77.367" fill="rgb(32,162,106)" rx="6.497" ry="11.487" transform="rotate(-89.690032 28.25886775 77.3672525)"/>
        </g>
        <g opacity=".4">
          <path fill="rgb(32,162,106)" fill-rule="evenodd" d="M70.91518885 72.6497735c-4.38173803 2.58635334-11.50788911 2.56851642-15.91876104 0-4.41087193-2.56851642-4.42835227-6.79586637-.04661424-9.37627407 4.38173804-2.5804077 11.50788912-2.56851642 15.91876105 0 4.41087193 2.56851643 4.42835227 6.79586637.04661423 9.37627407z"/>
        </g>
        <path fill="rgb(34,34,34)" fill-rule="evenodd" d="M62.32068939 69.81370328c.22423376.29368702.53788246.50286795.89149723.594564.21214616.07576907.43391778.11982661.65842606.13080407.13317796.00117173.26606992-.01278738.396221-.04161948.65580262-.20689184 1.23872143-.6034317 1.67811243-1.14156286.2326557-.22920948.44157793-.482241.62346539-.75509626.23130288-.34699143.40457509-.73074253.51275657-1.13561721 0-.05351076.20976406-.77887882.20976406-.80860702h.14566948c.31360985-.36349998.58535722-.76247948.80992232-1.18912798.18063016-.43997735 0-.59456398.04661424-1.04643261.09867973-.38998117.09867973-.79914681 0-1.18912798-.15187398-.35739145-.47767186-.60615895-.85653656-.65402038-.14159095-.03576001-.28959071-.03576001-.43118167 0-.20393727.06540204-.36126031.22593431-.58267793.27944507-.24924952.0245689-.50079875-.0017055-.74000097-.07729331-.26220507-.04161948-.96724536-.10702152-1.16535586.148641-.02631561.04004882-.04600064.0842393-.05826779.13080407-.10099603.60561191-.24907543 1.20205958-.44283523 1.78369196-.03893586.0844047-.08372144.16586842-.13401592.24377123l-.96724536 1.5815402c-.20179523.3256769-.3809239.66541433-.5360637 1.01670442l-.14566948.30322764c-.25838677.58773175-.22590519 1.2660824.08740169 1.82531143z"/>
        <path fill="rgb(34,34,34)" fill-rule="evenodd" d="M57.7874551 65.8776897c.06992134.73725934.23307116 1.05237825.96141858 1.18912797.71265238.14744058 1.45027254.10858006 2.14425478-.11296716.42535489-.16053228 1.47417516-.36862967 1.74803379-.76698754l.32629964-.45781427.58267793-.21998868.0582678.33295584c.40237132-.1075946.79286657-.25701746 1.16535585-.445923 1.01968638-.43997734 1.22945043-.95724801 1.22945043-.95724801-.02709945-.3641417-.02709945-.72985604 0-1.09399774-.00291418-.42881399-.09423716-.85220201-.26803184-1.24263873l-3.9971706-.1783692c-.11653559.24971688-.21559084.5053794-.3379532.74915063 0 .03567384 0 .07134768-.04661424.10107588-.28551218.59456398-.83905622.71942242-1.33433246 1.02265005-.49527624.30322763-1.97527818 1.02265006-2.18504223 1.78369196-.03525098.09481132-.05111449.19598073-.04661424.297282z"/>
        <path fill="rgb(34,34,34)" fill-rule="evenodd" d="M67.01124672 53.6177803c-.15732304 3.4603624-1.8296087 8.63306908-1.8296087 8.63306908-.43559367.44775448-1.05608846.65363966-1.66645888.5529445h-.15149626c-.75406614-.1149229-1.4339353-.52689643-1.89370327-1.14750849v-.16647792l.19228372-4.12627406c-.03175406-.94542943-.11540236-1.88830042-.25055151-2.82417894-.11653559-.4637599-.41952811-4.87542469-.39039422-5.4283692-.01985868-.3914869-.07842378-.77992545-.17480338-1.15939977-.1689766-.79671574-.47196912-1.86693091-.82740266-3.00849377-.58891561-2.27453295-.86155737-4.62224923-.80992232-6.97423556v-.10702152c.10488203-1.71234428.7341742-6.23103057.7341742-6.23103057l5.41890474 2.17610419s.6759064 6.02887882 1.16535586 11.50481313c-.08740169.65996603-.15732304 1.31993205-.21559083 1.98584372-.18115386 1.52114589-.12807158 3.0618422.15732304 4.56625141.13383796.59864881.31506284 1.18522835.54189047 1.75396376z"/>
        <path fill="rgb(53,53,53)" fill-rule="evenodd" d="M70.02369162 50.57361268c-.15149626 1.14156286.2272444 3.18686297.12236237 5.0716308-.10488203 1.88476785-1.46834839 6.6947905-1.46834839 6.6947905-.19489932.85869213-.85340102 1.52831756-1.69559277 1.72423556-.496152.13631918-1.01881063.13631918-1.51496262 0-.46653141-.11117969-.90769753-.31304761-1.29937178-.594564-.04304418-.32553533-.04304418-.65549522 0-.98103057.08740168-.4043035.46031556-1.62315968.47196912-1.78369196.01165356-.16053227.19228372-1.29614949.22141761-1.6409966.0291339-.34484711.30299253-3.6090034.23307117-5.01812005-.06992135-1.40911664-.46031556-3.76359003-.46031556-3.76359003s0-3.50792752-.09322847-5.05379388c-.09322847-1.54586637-1.27606467-2.97281994-1.74803379-3.56738392-.39380731-.70019588-.51250874-1.52680598-.33212642-2.3128539 0-.148641.07574813-.43997736.12818915-.80860703.20393727-1.34966025.51858335-3.75169876.51858335-3.75169876s9.8530838-1.18912797 10.40080105-.65996602c.54771726.52916195-.72834741 7.40826727-.90315079 8.6806342-.17480338 1.27236693-2.45307408 6.61749717-2.58126323 7.76500566z"/>
        <path fill="rgb(31,31,31)" fill-rule="evenodd" d="M62.93250121 61.95951302c-.22388369-.14271236-.4622223-.26032571-.71086707-.35079275-.15732304-.08323896-.41952811-.27944507-.6176386-.21404303-.04695925.01764146-.09039229.04382998-.12818915.07729331l.06409457-1.37938844c.1981105.71942242.9555918 1.33776897 1.39260025 1.86693091z"/>
        <path fill="rgb(252,199,170)" fill-rule="evenodd"/>
        <path fill="rgb(255,203,166)" fill-rule="evenodd" d="M48.92492378 34.00311438s-.77496165 1.84314836-1.0429935 2.2058324c-.26803184.36268402-1.81212836 1.78369195-1.87622293 1.82531143-.06409457.04161948-1.45086805 1.12967157-1.45086805 1.12967157s-.48944946 0-.54189047-.07134767c-.05244101-.07134768 0-.11296716-.05244101-.09513024-.05244102.01783692-.49527624.45186863-.58267793.44592299-.0874017-.00594564-.36126032-.14269536-.34377998-.21998868.01748034-.07729331-.19228372-.11296715-.23889795-.10107587-.16534917-.09389353-.22524761-.3064859-.13401593-.4756512.07058166-.11395772.12363808-.23827625.15732304-.36862966.03368497-.13035342-.34960675-.31511892-.21559083-.54699887.13401592-.23187996.3088193-.7313137.94393825-1.78369196.45686644-.91703826 1.14978026-1.6898588 2.00441207-2.2355606.56395213-.3415678 1.09294654-.73993338 1.5790572-1.18912796.48611065-.44919459 1.87039615.48159683 1.79464802 1.48046432z"/>
        <path fill="rgb(253,211,199)" fill-rule="evenodd" d="M47.40413438 35.1090034c.05319953-.02875581.0975656-.07196914.12818915-.12485844.1085971-.39605725-.01351739-.820639-.31464609-1.09399773-.32629964-.2080974-.844883-.04161948-1.16535586 0-.42695274.10953963-.80737057.35789006-1.08378094.70753114-.08006517.0933574-.15036704.19498334-.20976406.30322763-.154358.36143963-.27908965.73531306-.37291387 1.1177803-.01648747.0521884-.01648747.10834387 0 .16053227.03523277.0655324.1101279.09758072.18063015.07729332.06652834-.01924697.12685281-.05617999.17480338-.10702152.2654095-.23610268.51279329-.49250813.74000097-.76698754.15732304-.18431483.34960676-.45781427.58267793-.40430351.23307118.05351076.3670871.36268403.66425284.38052095.22874841-.01131778.44850547-.0943696.62929217-.2378256l.04661423-.01189127z"/>
        <path fill="rgb(255,255,255)" fill-rule="evenodd" d="M58.37013302 24.97168743c-.05244101.3567384-1.81795514 2.14043035-2.06267987 2.31879955-.24472473.1783692-1.40425381 2.02746319-2.91338965 3.60305775-.71489913.79705407-1.4945817 1.53098338-2.33071172 2.19394111-.19125154.17891965-.36315276.37824672-.51275658.59456399-.3319364.48528246-.76338876.89104612-1.2644111 1.18912797-.37069722.19539682-.69643268.46900243-.9555918.80266138v-.5529445c.02184766-.64409512-.08726805-1.28582743-.32047287-1.88476784-.37291388-.59456399-1.51496262-.29133635-1.5499233-.27944507l.63511895-.8502265c.221584-.28080618.38064319-.60744267.46614234-.95724802.18063016-.63023783.55354404-.7313137.55354404-.7313137.43045392-.402363.78753626-.87946165 1.05464705-1.40911665.1119879-.3449657.33340905-.64203223.62929216-.84428086.13893143-.21733875.25605805-.44840282.34960676-.68969423.08157491-.24971687.68173318-1.1475085.75748131-1.42100793.1855017-.31215772.4197123-.59131208.69338674-.82644394.11402694-.37752196.28505883-.73458745.5069298-1.0583239.26859943-.50265446.72097592-.8766396 1.25858432-1.04048697.53760841-.16384736.37291388-.51132503.65259929-.9988675.2796854-.48754246 1.61984464-3.9538505 1.61984464-3.9538505s.04078746-.46375991.07574813-.83833523v-.42214043c0-.23187995 1.5207894-3.21659116 1.5207894-3.21659116L58.6556452 15.304077s-.2272444 9.28114383-.28551219 9.66761042z"/>
        <path fill="rgb(211,211,211)" fill-rule="evenodd" d="M58.37013302 24.97168743c-.05244101.3567384-1.81795514 2.14043035-2.06267987 2.31879955-.24472473.1783692-1.40425381 2.02746319-2.91338965 3.60305775-.71489913.79705407-1.4945817 1.53098338-2.33071172 2.19394111-.19125154.17891965-.36315276.37824672-.51275658.59456399-.3319364.48528246-.76338876.89104612-1.2644111 1.18912797-.37069722.19539682-.69643268.46900243-.9555918.80266138v-.5529445l.77496164-.83238958c.12540911-.14601487.26608768-.27760078.4195281-.39241223.22141762-.15458664.50110303-.26160816.63511895-.49943375.04544319-.1315847.1019804-.25890168.1689766-.38052095.19228372-.24971688.67007962-.23187996.93811147-.42808607.40519665-.2821092.7801753-.6069443 1.11874162-.9691393 1.06630061-1.1475085 1.7480338-2.65175538 2.91338965-3.72197056.4253549-.39241223.9555918-.8204983.92645791-1.403171.21314389.00518015.41204164-.10883955.51858336-.297282.08998441-.18617354.1453055-.38777917.16314982-.59456399.07574813-.59456398.15149626-1.18912797.23307117-1.78369195.08927046-.94855957.06775474-1.90458343-.06409457-2.8479615-.0705679-1.00488203-.36768996-1.97954432-.86819012-2.8479615-.1689766-.27349943-.33212642-.51132502-.47196912-.75509626v-.42214043c0-.23187995 1.5207894-3.21659116 1.5207894-3.21659116l1.42173415 1.60532276s-.25055151 9.25141563-.3088193 9.63788222z"/>
        <path fill="rgb(255,203,166)" fill-rule="evenodd" d="M46.87972425 32.98046433c-.15770707-.0165723-.30884099.06884013-.37874066.21404303-.12236236.25566252-.448662 1.24858437-.448662 1.27831257 0 .0297282 0 .42808607.16314981.52321631.16314983.09513024.6759064.4934881.76913487-.04161948.0204731-.33667046.11614105-.66410246.2796854-.95724802.07574814-.04756512.13401593.73725935.43700846.31511892.30299252-.42214043.40787455-.76698755.29133896-.89184598-.11653558-.12485844-.1107088-.61240091-1.11291484-.43997735z"/>
        <path fill="rgb(255,255,255)" fill-rule="evenodd" d="M74.46952423 30.25141563c-.58267793 2.57446206-1.25275755 5.13703284-1.25275755 5.13703284s-.31464609.45186863-1.92866395.91562854c-.396221.11296716-.86236334.22593432-1.42756093.33295583-1.99426547.36495408-4.04344557.26741559-5.9957559-.28539071-.2302822-.0534839-.45333673-.1353417-.66425284-.24377124-1.04361048-.59544493-2.02050897-1.30518523-2.91338965-2.11664779-.89288067-.81146256-1.45669482-2.3128539-1.49748228-2.47933182-.0688121-.18983707-.094706-.39308407-.07574813-.59456399.02783615-1.5255047-.1685718-3.04665063-.58267793-4.51274065-.21559083-.78482447-.40204777-1.551812-.58267793-2.33069083-.3379532-1.63505096-.58267793-3.32955832-.80409554-5.38674972-.12831946-1.00452806-.12831946-2.02180263 0-3.02633069.07846495-.67240478.24099443-1.3317882.48362268-1.96206115.4323534-.38717101.96028896-.64624285 1.52661618-.74915063.66576206-.18597781 1.34326539-.32503719 2.0277192-.41619479.88615667-.61905596 1.90943598-1.00320626 2.97748421-1.1177803h.26803185c1.50136139.07513793 2.99518206.26393565 4.46913972.5648358.71669386.1189128 2.33071172 1.07021517 2.94835033 1.42695356.6176386.3567384 2.21417613 1.56370329 3.13480726 2.0869196.92063113.5232163.09322847 1.63505096.09322847 1.66477916 0 .0297282 0 6.92667044.47196912 8.03255945.25055151.52321631-.1689766 2.79445074-.6759064 5.05973953z"/>
        <g opacity=".3">
          <path fill="rgb(60,60,59)" fill-rule="evenodd" d="M74.46952423 30.25141563c-.58267793 2.57446206-1.25275755 5.13703284-1.25275755 5.13703284s-.31464609.45186863-1.92866395.91562854c.08316482-1.36475484.30181763-2.71737808.65259928-4.03708947.1398427-.52916195.28551219-1.18912797-.0582678-1.57559456-.11653558-.14269536-.27385862-.2378256-.39622099-.37457531-.2565926-.33476472-.36433586-.76375065-.29716574-1.18318234.04078746-.42214043.1689766-.83833522.19228372-1.26047565-.01818166-.72078195-.13587584-1.43534733-.34960676-2.12259343-.24705868-1.20320468-.21914521-2.44831342.0815749-3.6387316.13401593-.54105322.71669386-2.93714609 1.68393923-2.3128539.20350907.1866367.31104993.45877848.29133896.73725934.04661424.92157418-.1981105 1.78369196-.0815749 2.71715742.18082024 1.0091144.43598013 2.00287356.76330808 2.97281993.37562649 1.31184298.6100807 2.66153756.69921352 4.02519819z"/>
        </g>
        <path fill="rgb(255,203,166)" fill-rule="evenodd" d="M70.6762909 40.5671008c-.35562755.27965059-.68881203.5878206-.99637926.92157417-.2728975.30147726-.50421662.6395314-.68755996 1.00481314-.15149626.45781427-.35543353 1.04048697-.41370133 1.18912797-.05826779.148641-.3088193.46375991-.23889795.6421291.06992135.1783692.36126032.06540205.51858336 0 .33465323-.41355662.64034441-.85065176.91480435-1.30804076.0582678 0 .15149626.2675538.07574813.68374858-.07719296.37234547-.19850474.73372195-.36126031 1.07616082-.04661424.05351076-.23307118.30322763-.23307118.30322763s-.40787455.14269536-.48362268.32106455c-.07574813.1783692-.1398427.30322764.14566948.40430351.16302772.064704.34390209.064704.5069298 0 .0582678-.03567384.69338674-.22593431.69338674-.22593431.08282736.11166574.19073875.20138718.31464608.26160815.16673782.04152251.34281263.01371697.48944946-.07729332.08157491-.08323895.33212642-.38646659.33212642-.38646659.15449275.02552815.31294009.0027272.45448879-.06540204.32034235-.35188186.60172456-.73869917.83905622-1.15345413.21235525-.1752762.37191125-.40815745.46031556-.6718573.10244427-.57594782.17054848-1.15770745.20393728-1.74207248 0-.03567384-2.534649-1.1772367-2.534649-1.1772367z"/>
        <path fill="rgb(255,255,255)" fill-rule="evenodd" d="M76.7827556 33.20639864c-.10948459 1.7161179-.50352847 3.40084145-1.16535585 4.9824462-.38528538.40876971-.73069167.85481095-1.03133994 1.33182334-.14326025.39651912-.36772531.75731397-.65842606 1.0583239-.29515785.53195951-.54469605 1.08895944-.74582775 1.66477915-.52991487.24601975-1.14339939.21726362-1.64897854-.07729331-.28315715-.12186312-.54798808-.28400306-.7866152-.48159683-.24611057-.20984145-.4448731-.4714755-.58267794-.76698755-.13780483-.29551204.19228372-.32701019.27968541-.52916194.08740169-.20215176.92063113-1.551812.96141858-1.65288789.04078746-.10107587.37291388-3.00254813.65842607-3.45441676.28551218-.45186863.4777959-3.76953567.5069298-4.1619479-.01108906-1.61397536-.25854802-3.21719361-.7341742-4.7565119-.4585664-1.60865175-.63414191-3.28749455-.51858336-4.95866364.05446452-.33526129.14232147-.6639748.26220507-.98103058.362677-.96376046.84017498-1.87833103 1.42173415-2.72310305 1.26441111-1.86098528 1.9694514-1.82531144 1.9694514-1.82531144 1.04882028.04756512 1.32850569 3.12740657 1.32850569 3.12740657.054459.95618614.17125293 1.9076111.34960675 2.8479615.27494296 2.3673574.3878676 4.75138868.3379532 7.13476783-.16756154 1.40028343-.2357182 2.81109367-.20393727 4.2214043z"/>
        <path fill="rgb(255,203,166)" fill-rule="evenodd" d="M66.67329352 13.3182333c-.76765554.71038981-1.64338305 1.2887142-2.59291678 1.71234428-.0528109.02101108-.1074321.03693548-.16314982.04756512-.4777959.04161947-1.25858433-.54105323-1.6606321-1.30209513-.20976406-.39241224.18645693-1.2961495.6176386-2.07502832.43118167-.77887882.82157588-1.3437146.82157588-1.3437146l3.6883513-2.4139298c-.18714123.90666647-.23042163 1.83811026-.12818915 2.7587769.21679383.91702756.00125386 1.88474936-.58267793 2.61608155z"/>
        <path fill="rgb(234,234,234)" fill-rule="evenodd" d="M62.10509855 13.63929785c.43026371.42794715.91421578.7958162 1.43921449 1.09399773-.32310706.23512962-.5656556.56789773-.69338674.95130238-.12859071.31569997-.29285177.6150068-.48944946.89184598-.19659769.27683919-.82740266-1.78369196-1.07212739-2.2533975-.1797727-.36992352-.1017475-.8162603.19228372-1.09994338.1398427-.01783692.62346538.41619479.62346538.41619479z"/>
        <g opacity=".3">
          <path fill="rgb(60,60,59)" fill-rule="evenodd" d="M61.73801146 16.55860702c-.10488203-.22593431-.21559084-.4637599-.3088193-.68969422-.08394485-.30936875-.1154746-.63109791-.09322847-.95130238.15711204.3263897.41229802.59303062.7283474.7610419.15149627.0594564.1981105-.14269536.27968541-.24971687.10410568-.14392089.22770021-.27203847.3670871-.38052095.093272-.08233106.21502008-.12302763.3379532-.11296716.3670871.07134768.31464608.6421291.25637829.92157418.1107088-.16647792.1981105-.38052095.31464608-.53510759.11653559-.15458664.27385863-.0594564.3670871.0891846.08400504.12418067.18619241.23446825.30299252.32701019.09905525.09513024.21559083.11296716.31464608.2080974.47925948.47909405 1.05065428.85159865 1.67811244 1.09399773-.73964512.36387143-1.52341466.62579206-2.33071172.77887882-.02518524.39595945-.02518524.79316853 0 1.18912798 0 1.05237825-.40204777 12.48584371-.3379532 13.26472253-.4792305.78627308-1.00663192 1.54088843-1.57905719 2.25934315l-.8740169-2.20583239c.04078746-.51132503.35543354-1.98584371.396221-2.49716874.10488203-1.18912797.20976405-2.41987543.33212642-3.63278596.1398427-1.4328992.29716574-2.86579841.48362268-4.29275198.03496068-.2675538.07574813-.53510759.1107088-.80266138.03175168-.13042032.04933792-.26401074.05244102-.39835787-.01778976-.098405-.04113576-.19567915-.06992135-.29133636-.10670751-.5177252-.14976905-1.04700183-.12818914-1.57559456.0379141-.33382055.0379141-.6709926 0-1.00481314-.1235638-.43482342-.29972317-.85224946-.52441014-1.24263873l-.07574813-.0297282z"/>
        </g>
        <path fill="rgb(181,181,181)" fill-rule="evenodd" d="M62.14005923 23.8479615c.47043265.1992865.95556598.36032022 1.45086804.48159682l.49527624.08323896v.40430351c-.46573552-.072338-.92405558-.18776278-1.36929313-.3448471l-.51858336-.2080974-.0582678-.4161948z"/>
        <path fill="rgb(34,34,34)" fill-rule="evenodd" d="M61.33596369 32.44535674c.14802111.41824744.34358166.81734703.58267793 1.18912797.23909626.37178095 1.42756092-1.3437146 1.42173414-1.39127973 0-.24377123.29716575-14.21007927.27968541-14.62032842 0-.70753115-.03496067-1.13561722-.03496067-1.13561722-.35543354-.95724801-.71086708-.47565119-1.03716672.77887883-.09905525.39835787-1.8004748 11.75453-1.2119701 15.17921857z"/>
        <path fill="rgb(34,34,34)" fill-rule="evenodd" d="M64.15612487 15.98187995c.14566948.39241224-.54189048 1.59343149-.54189048 1.59343149l-.96724536-.2080974s-.48362268-1.4626274-.18063016-1.78369196c.30299252-.32106455 1.52661618-.0297282 1.689766.39835787z"/>
        <path fill="rgb(255,255,255)" fill-rule="evenodd" d="M62.00021653 23.9966025c.47043265.1992865.95556598.36032022 1.45086804.48159682l.48944946.08323896v.41024915c-.46377615-.07262602-.92013643-.1880484-1.36346635-.34484711l-.52441014-.2080974-.05244101-.42214043z"/>
        <path fill="rgb(211,211,211)" fill-rule="evenodd" d="M64.67470822 21.58861835l-.19228371 4.26302378 2.21417613.90373726 2.16173512-.95130238.65259928-3.9835787s-3.2921303-.07134769-4.83622682-.23187996z"/>
        <path fill="rgb(255,203,166)" fill-rule="evenodd" d="M67.4424284 6.47480181c-.12818915.63618347-.792442 3.85277463-1.70141956 5.22621744-.78698825 1.04110265-1.86007525 1.81938492-3.08236625 2.2355606-.58102005.2706997-1.24858865.2706997-1.8296087 0-.09102364-.04835872-.17693458-.1061369-.2563783-.17242356-.58267792-.4756512-1.16535585-4.0251982-1.16535585-4.95271801.0607124-.4790396-.0204604-.9656579-.23307117-1.39722537-.14359382-.98552366-.14359382-1.98729627 0-2.97281993-.01991815-.79899859.44284091-1.52854588 1.16535586-1.83720272l1.04882027-.06540204c1.31102534-.07729332 3.49606758-.20215175 4.32929702-.16647791 1.30519856.04756511 1.8587426 3.46630804 1.72472667 4.1024915z"/>
        <path fill="rgb(34,34,34)" fill-rule="evenodd" d="M63.47439169 4.7565119c-.68937587.22817328-1.41573097.31703314-2.138428.26160815-.63156294-.13170515-1.2513276-.31665444-1.85291582-.55294451-.60158823-.23629007-.76330809-.45186863-.76913487-.59456399-.00582678-.14269536-.04078745-1.24858437 2.33071172-3.06795017 2.37149918-1.8193658 4.99354986.09513024 4.99354986.09513024s1.74803379.48159683 2.3656724 1.62315968c.6176386 1.14156286.58267793 1.46857305.29716574 2.8776897-.28551219 1.40911664-1.00803282 3.38306908-1.00803282 3.38306908L66.52762404 7.7709513s-.48944946.5053794-.48362268.59456399c-.00690674.11338055-.02845793.22533378-.06409457.33295583l-.65259928.21998868s-.30299253-.8799547-.63511895-1.07616082c-.3288075-.26641691-.58220448-.61732794-.73417419-1.01670442.00582678-.10702151.00582678-2.06908267-.48362268-2.06908267z"/>
        <path fill="rgb(255,203,166)" fill-rule="evenodd" d="M66.80148267 7.72933182s.51858336-.44592299.79826876-.10702151c.28780222.46896833.25992839 1.07099984-.06992135 1.51019252-.3379532.59456399-.5069298 1.08210646-.62346538 1.25453001-.11653559.17242356-.58267793.17242356-.64094573 0-.05826779-.17242355.14566949-.9096829.14566949-1.13561721 0-.22593432-.0291339-1.31398641.3903942-1.5220838z"/>
        <path fill="rgb(255,255,255)" fill-rule="evenodd" d="M67.28510535 10.20866365l.7574813 1.33776897c.1826641.2864967.23969937.63784462.15732305.9691393-.26233869.8323557-.68865065 1.6012076-1.25275755 2.25934314-.75165453.87400906-1.81795514 2.11070215-1.84708904 2.15232163-.26377082-.2364336-.5056332-.49716177-.72252063-.77887882-.20393728-.24971687-.83322944-1.41506229-.83322944-1.41506229s.3670871.0594564 1.34598602-.5529445c.7479818-.46430203 1.40251777-1.06963845 1.92866395-1.78369196.41997202-.64336223.58645056-1.4247851.46614234-2.18799547z"/>
        <path fill="rgb(255,203,166)" fill-rule="evenodd" d="M47.74208758 36.50622877c.00513426.2831299-.0464165.56435015-.15149626.82644394-.1689766.3745753-.47196912 1.403171-1.293545 1.5220838-.05404263.00878386-.1091072.00878386-.16314983 0-.76913486-.10702152-1.48582872-1.65288788-1.48582872-1.65288788-.00474895-.42571442.05822143-.84939526.18645694-1.25453001.0582678-.07729332 0-.21404304 0-.30917327.02045222-.11999404.02045222-.24269 0-.36268404-.05244101-.2080974-.22141761-.45781427-.13401592-.65402038.02763753-.05967591.07232564-.10942105.12818914-.14269536.20393728-.13674971.4253549 0 .58267793.16647792.13215973.17232308.2166638.37762754.24472473.59456398.0310403.17699072.10972165.3416807.2272444.4756512.08320822.05271373.173501.09277229.26803184.1189128.09058277.03351054.18430502.05741906.2796854.07134767.2004523.04441963.40998687.00593404.58267794-.10702152.16891027-.13444295.35517853-.24448229.55354403-.3270102.1983655-.0825279.40204777.20215176.3670871.3270102-.03496068.12485844-.19228372.70753115-.19228372.70753115z"/>
        <path fill="rgb(252,189,171)" fill-rule="evenodd" d="M46.332007 38.09966025c.00821463.15808266-.00750818.31651261-.04661424.46970555-.03050177.1066372-.08205714.20578125-.15149627.29133635-.76913486-.10702152-1.48582872-1.65288788-1.48582872-1.65288788-.00474895-.42571442.05822143-.84939527.18645694-1.25453001.0582678-.07729332 0-.21404304 0-.30917327.02045222-.11999404.02045222-.24269 0-.36268404-.05244101-.2080974-.22141761-.45781427-.13401592-.65402038.0291339.07134768.07574813.14269536.1107088.21404303.1562718.4872843.1863806 1.00752688.0874017 1.51019253-.00894093.05112505-.00894093.10346158 0 .15458664.0223076.0527293.0561993.09951813.09905524.13674971.21559084.21404304.50110302.34484711.74000097.54105323.15443863.1357797.294999.28717558.41952811.45186863.05070342.05838448.0920046.12461028.12236237.19620612.03231653.0854771.05005308.17596887.05244101.26755379z"/>
        <path fill="rgb(255,255,255)" fill-rule="evenodd" d="M20.79323332 31.51189128c-.23585209.99864402-.39559453 2.01441871-.4777959 3.03822197-.0291339 1.08210646-.71086707 3.21659117-.58267793 3.98952435.12818915.77293318.18063016 3.02038505.18063016 3.549547.50345555 1.42211719 1.12733591 2.79679023 1.86456938 4.10843714.22724439.30917328 2.87260219-3.10956964 2.91338964-6.48074745.04078746-3.3711778 1.7480338-13.41930917 1.00803282-13.71064552-.77040574-.44304197-1.4780686-.99111673-2.10346732-1.62910533-.71279305.6049684-1.2757429 1.3729167-1.64315177 2.24150623-.48001338 1.60652958-.86718906 3.24042724-1.15952908 4.89326161z"/>
        <g opacity=".3">
          <path fill="rgb(60,60,59)" fill-rule="evenodd" d="M22.7685115 45.03227633c.8730181-2.15613819 1.42869073-4.43218367 1.64897855-6.75424688.11262791-1.18552269.13794832-2.37799603.07574813-3.56738392-.05244102-1.1177803-.33212642-2.21772367-.37291388-3.32361269.01707998-.2506986-.04411547-.50047374-.17480338-.71347678-.03932257-.05259242-.09159318-.0936208-.15149626-.1189128-.04425399-.00881853-.08976193-.00881853-.13401592 0-1.27606467.07134768-1.7480338 1.4328992-1.90535683 2.53878822-.09322847.79671575-.04078746 1.65883353-.09322847 2.48527747-.0582678.63023782-.18645694 1.24858437-.18645694 1.8788222.05257405.5814379.05257405 1.16658021 0 1.74801811-.1479981.47914766-.2647884.96775572-.34960676 1.46262741.05895838.4472312.07457194.89930344.04661424 1.34966025-.09434308.24602818-.17221242.4983067-.23307117.75509626.01724683.45697482.21731406.88676095.55354403 1.18912798l.9264579 1.08805209c.06409458.07729332.16314983.16647792.25055152.12485844.05000316-.03255161.08555213-.08376215.09905525-.14269536z"/>
        </g>
        <path fill="rgb(34,34,34)" fill-rule="evenodd" d="M23.1938664 76.79983012s.15149626 1.61721405.35543353 1.73612684c.20393728.1189128 1.6314982.37457532 2.20252258 0 .6143898-.3429275 1.25559035-.63327685 1.91701039-.86806342.66142003-.23478656 1.84708903-.68969422 1.56157685-1.24263873-.28551219-.5529445-6.03654336.37457531-6.03654336.37457531z"/>
        <path fill="rgb(34,34,34)" fill-rule="evenodd" d="M29.64993786 76.18742922c.03496067-.07134768 2.94252354-1.03454134 3.41449267-.89184598.41268297.15184096.7410048.47812945.90065323.89507538.15964844.41694594.13506994.8839289-.0674238 1.2810288-.4515256.87982708-1.22699788 1.54066212-2.15590833 1.83720273-.65259929.25566251-2.40063307.65402038-2.69779882.85617214-.55242247.2608516-1.12307542.47946015-1.70724633.65402038-.58417092.17456023-1.16535586-.3448471-.75165453-1.78369196.41370133-1.43884484 3.0648859-2.8479615 3.0648859-2.8479615z"/>
        <path fill="rgb(34,34,34)" fill-rule="evenodd" d="M28.2573376 64.70639864L26.794816 76.66308041c-.59057048.52786885-1.26956722.94277178-2.00441208 1.22480181h-.06992135c-.31241177.16140197-.67593217.18536743-1.0061005.06632821-.33016833-.11903921-.59824084-.3707198-.74193329-.69656604l-.14566948-.55889014c-.18063016-.72536807-.49527624-1.997735-.72252063-3.06795017-.32744238-1.89003745-.48735397-3.8063326-.4777959-5.7256512 0-.29133635.06409457-.83238957.13401592-1.48640996.06992135-.65402038.15732304-1.45668176.2505515-2.20583239l.26803185-2.2533975c.18063016-1.4150623-.53023691-4.9646093-.68173317-5.76132503-.15149626-.79671575-1.1012613-4.0549264-1.1012613-5.66024916v-.38646659c.13401593-1.5220838.844883-3.14524348.89149724-3.56738391.04661424-.42214044.4777959-2.7290487.4777959-2.7290487l5.3489834 1.33182333.85653656 15.70243488.18645694 3.8171008z"/>
        <path fill="rgb(53,53,53)" fill-rule="evenodd" d="M33.02946985 61.4184598c-1.1245684 2.72310305-1.39260025 4.1619479-1.44504126 4.75651189-.05244102.59456398-.83905622 8.7400906-.85653656 9.04926387-.01748034.30917327-.13401593 2.57446206-.13401593 2.57446206-.27597705.65057081-.75271261 1.19131446-1.35763957 1.53992073-.58267793.32106455-.88567046.59456398-1.16535586.70753114-.21769617.111986-.46553087.14751604-.7050403.10107588-.36028038-.05329765-.66725657-.29442346-.80992232-.63618347-.14266575-.34176.03496068-3.4603624 0-3.8943941-.03496068-.43403172-.448662-6.73640997-.448662-6.89099661 0-.15458664-.12236237-5.83861835 0-6.54020385-.00281166-.03363088-.00281166-.067445 0-.10107588.04835303-.62897446.06002717-1.26032548.03496067-1.89071348v-.71942242c0-.23187995-.03496068-.4637599-.0582678-.69563986l-.03496067-.28539072c-.02175584-.20081472-.05877018-.39960097-.1107088-.59456398-.02164974-.08849723-.05291979-.17424978-.09322847-.25566252-.12655001-.21057754-.27082165-.40951623-.43118167-.59456398-.58267793-.68374859-1.48000194-1.62910533-1.70724634-2.51500567-.3349683-1.10093805-.39703213-2.26947643-.18063016-3.400906.07574814-.4637599.18063016-.99292186.32629965-1.60532276.68755995-2.88363534 1.06047383-5.35107588 1.06047383-5.35107588l9.73072143 3.69224236s-.0291339 2.89552661 0 4.86947904c-.04021837 2.96719746-.58637852 5.90459775-1.61401787 8.6806342z"/>
        <path fill="rgb(255,203,166)" fill-rule="evenodd" d="M39.59042334 17.49801812c-.30299252 1.05237826-.71086707 1.18912797-.74000097 1.92638732-.16161943 1.11088178-.51473496 2.1837862-1.0429935 3.16902604-.5069298.94535674-.72252063 1.06426954-1.04299349 1.18912798-.30969094.09850626-.62490567.17792473-.94393824.2378256l-.17480338.87400905-4.14284008-2.27123443-.77496165-.42214043c.25059593-.411184.4078748-.87436227.46031556-1.35560589-.03496067-.51727066.06992135-2.22961495.06992135-2.22961495l1.16535586-.56483578c1.55575008-.73725935 4.1370133-1.95611552 4.46331295-2.07502832.47196912-.17242355 2.70945237-.4637599 2.70945237-.4637599.17762364.64982207.175607 1.33711858-.00582678 1.98584371z"/>
        <path fill="rgb(255,203,166)" fill-rule="evenodd" d="M38.21530343 18.72876557s-.07574813-.51727067-.58267793 0c-.32516427.28825794-.55004259.67626344-.64094573 1.10588902-.08727514.31684911-.11689846.64733759-.08740168.97508493.052441.36862968-.06409458.594564.09322846.54699887.15732305-.04756512.46614235-.54105323.48944947-.65402038.02330711-.11296716.2505515-.59456399.29133896-.71942243.04078746-.12485843.55937081-1.26642129.43700845-1.25453z"/>
        <path fill="rgb(255,255,255)" fill-rule="evenodd" d="M40.38286533 30.0373726c-.17480338.95724801-1.9170104 7.13476783-2.19086902 7.72933182-.27385863.59456398-2.29575104 7.90175538-2.29575104 7.90175538s-.53023692 2.83012457-.58267793 2.97281993c-.05244102.14269535-1.4916555.74320498-5.50047966 0-2.53230178-.39748156-4.93859872-1.3930722-7.02709584-2.9074179-.47043198-.34226422-.86705844-.77935884-1.16535586-1.2842582-.29829741-.50489937.03496068-.3270102.09322847-.77293319.07096105-.77405255.20940952-1.54010864.41370133-2.28907135.26997062-1.10928312.3721486-2.25416355.30299253-3.39496036-.07574813-.90373726-.27968541-8.02661381-.09905525-9.6497735.1107088-1.01670441.06409457-2.02151755.48944946-2.92525481.31518181-.63719266.81043593-1.16326082 1.42173415-1.51019253 1.16535586-.59456398 3.379532-.4043035 3.61260316-.4043035.88764618-.0144638 1.76266889-.21692918 2.56960967-.594564.7633081-.48754246 5.24410137 1.95611552 5.24410137 1.95611552-.07297622.50784322.05258588 1.02460775.34960676 1.43884485.99852756.74532 2.04159999 1.42642462 3.1231537 2.03935447 1.08155372.61292985 1.42173415.74320499 1.241104 1.69450736z"/>
        <g opacity=".3">
          <path fill="rgb(60,60,59)" fill-rule="evenodd" d="M38.7863278 35.53708947c.10488203-.90373726-.69338674-1.01670442-1.16535586-.37457531-.07574813.10107587-.88567045 1.403171-.85070978 1.42100792l-.91480435-.43997735c.3448659.29883211.555311.72830805.58267793 1.18912798.00987857.45643026-.03909764.91220478-.14566948 1.35560589.26108815-.07529737.54099718.01600703.71086707.23187995.12818915.148641.4253549 1.36749717.66425284.72536806.53198793-1.31910917.90756528-2.69836948 1.11874163-4.10843714z"/>
        </g>
        <path fill="rgb(255,255,255)" fill-rule="evenodd" d="M46.58838528 38.00453001c-.05007977.44221594-.12596263.88099044-.2272444 1.31398641-.06130446.24863565-.15746712.4869375-.28551218.70753115-.18020672.3370908-.41013764.64390325-.68173318.9096829-.80992232.79671574-1.31102534 1.30209512-2.52299543 1.00481313-1.21292564-.23011028-2.30462373-.89680304-3.07653947-1.8788222-.36128703-.55100306-.83917652-1.0122273-1.39842703-1.34966024-.55925051-.33743295-1.24693077-.7610419-1.41590737-1.60532277-.09115373-.88704598.0164374-1.78363079.31464608-2.62202718-.00110848-.0138501-.00110848-.02776937 0-.04161948.18645694-.2378256 1.51496262-3.41279728 1.51496262-3.41279728l1.39842703-1.68856172c.56973319 1.13916347 1.0246136 2.33442404 1.35763957 3.56738392.31844313 1.25499618.74547515 2.47865819 1.27606467 3.65656851.30777578.162541.59534063.36215384.85653656.594564.08740169.15458663.76913487-.06540205.89732401-.24377124.21559537-.39075984.67554372-.56644519 1.08960773-.4161948.65404824.16430562 1.05675726.83503946.90315079 1.5042469z"/>
        <path fill="rgb(252,199,170)" fill-rule="evenodd" d="M32.52254005 19.70979615c-.00664742.18159816-.05030496.35979062-.12818914.5232163-.15732304.29133636-.43118167.30322764-.63511895.51132504-.21330589.29154967-.32599526.64696751-.32047286 1.01075877-.01272316.2900189.00093109.5806169.04078746.86806342l-.77496165-.42214043c.25059594-.411184.40787481-.87436227.46031557-1.35560589-.03496068-.51727066.06992135-2.22961495.06992135-2.22961495l1.16535586-.56483578v.04756512c.09585316.5312509.13686473 1.07129152.12236236 1.6112684z"/>
        <path fill="rgb(34,34,34)" fill-rule="evenodd" d="M40.19058161 14.86409966c-.02727728.18246235-.07822296.36041074-.15149626.52916195-.16941047.6549465-.29785849 1.32021705-.38456744 1.99178935 0 .10107588-.38456743.42808607-.58267793.51727067-.1981105.0891846-.52441013 1.18912797-.52441013 1.18912797l-.72252064.19026048v-.5529445c-.29883133-.08759506-.61136134-.1158525-.92063112-.08323897-.28551219.08323896-1.61401787 1.83720272-1.9170104 2.146376-.51376933.42332904-1.17456081.61444406-1.8296087.52916194h-.07574812c-.16521868-.02333551-.3274083-.06520854-.48362269-.12485843l-.32629964-.13080408c-.40910313-.19381927-.79929728-.4267392-1.16535586-.69563987-.17024083-.98359276-.28695521-1.97605308-.34960676-2.97281993 0-.38052095-.052441-.7015855-.06409457-.98697622-.09281846-.9444614.08960531-1.89586938.52441014-2.73499433.58267793-1.3556059 1.37511991-1.1177803 2.33071172-1.78369196.9555918-.66591167 2.62205068-.54699887 2.62205068-.54699887 1.00764237.22704126 1.9694938.629284 2.8434683 1.18912797.8658124.41369042 1.34932566 1.37113383 1.17700942 2.33069083z"/>
        <path fill="rgb(211,211,211)" fill-rule="evenodd" d="M46.0756287 40.02604757c-.18020672.3370908-.41013764.64390325-.68173318.9096829-.80992232.79671574-1.31102534 1.30209512-2.52299543 1.00481313-1.21292564-.23011028-2.30462373-.89680304-3.07653947-1.8788222-.36128703-.55100306-.83917652-1.0122273-1.39842703-1.34966024-.55925051-.33743295-1.24693077-.7610419-1.41590737-1.60532277-.09115373-.88704598.0164374-1.78363079.31464608-2.62202718.45448878 1.58748585 1.00803282 3.05011325 2.49386154 4.0430351.16689505.09780448.3231503.21340043.46614234.34484712.19588945.23543674.35866302.4975851.48362268.77887882.49465434.98520269 1.48480002 1.60836251 2.56960967 1.61721405.674896-.01501061 1.33247053-.22083528 1.89953006-.59456399.29716574-.24377123.57102437-.45781427.86819011-.64807474z"/>
        <path fill="rgb(255,255,255)" fill-rule="evenodd" d="M35.9719934 24.25821065s-.1689766.98103057-.18645694 1.31993205c-.0091799.14254163-.0091799.28554443 0 .42808607.0091799.14254163-.82157588-1.09399774-1.39260025-1.23074746-.57102437-.13674971-2.05102632-.59456398-2.91338965-.94535673-.86236334-.35079276-1.71307312-.77293319-1.71307312-.77293319s.67007962-.95724802.82157589-1.12967157c.15149626-.17242356.3670871-.13674972.67007961 0 .30299253.13674972 2.22000292.78482446 2.91338965 1.06426953.64522313.35120198 1.24925474.77606685 1.8004748 1.2664213z"/>
      </g>
    </g>
  </g>
</svg>
