<svg xmlns="http://www.w3.org/2000/svg" xmlns:xlink="http://www.w3.org/1999/xlink" width="93" height="93" viewBox="0 0 93 93">
  <defs>
    <rect id="rect-2" width="83.7" height="82.73" x="5" y="9"/>
    <mask id="mask-3" maskContentUnits="userSpaceOnUse" maskUnits="userSpaceOnUse">
      <rect width="93" height="93" x="0" y="0" fill="black"/>
      <use fill="white" xlink:href="#rect-2"/>
    </mask>
  </defs>
  <g>
    <ellipse cx="46.5" cy="46.5" fill="rgb(213,227,220)" rx="46.5" ry="46.5"/>
    <g>
      <use fill="none" xlink:href="#rect-2"/>
      <g mask="url(#mask-3)">
        <g opacity=".4">
          <path fill="rgb(32,162,106)" fill-rule="evenodd" d="M17.26019608 56.66602827c-7.71352941.5062519-13.14764706 4.39354338-12.13862745 8.69065782 1.0090196 4.29711445 8.08431372 7.37078677 15.80392157 6.87056167 7.71960784-.5002251 13.14764705-4.39354338 12.15686274-8.69065783-.99078431-4.29711444-8.11470588-7.37078677-15.82215686-6.87056166z"/>
        </g>
        <path fill="rgb(34,34,34)" fill-rule="evenodd" d="M24.4509804 57.78098783l-.17019609 2.50715233c.72333334.60268085 1.41627451 1.11495957 1.94509804 1.08482553C27.32 63.33770525 29.1192157 64.66962993 30.73607843 64.95891673c1.72627451.05424128 2.35235294-.60268084 2.2672549-1.59107744-.39509804-2.3504553-3.5254902-3.38706636-4.06647058-5.01430465l-4.48588236-.5725468z"/>
        <g opacity=".4">
          <path fill="rgb(32,162,106)" fill-rule="evenodd" d="M75.09647059 75.49980476c8.27882353-.54241276 14.11411765-4.71899104 13.03215686-9.32949952-1.08196078-4.61050849-8.68-7.91319954-16.95882353-7.37078677-8.27882353.54241276-14.11411765 4.71899104-13.02607843 9.32949952 1.08803922 4.6105085 8.67392157 7.91319954 16.9527451 7.37078677z"/>
          <path fill="rgb(32,162,106)" fill-rule="evenodd" d="M82.06235294 83.78666642L43.3245098 62.0841291l-13.76764705 7.9553872 38.76215686 21.6844569 13.74333333-7.93730677z"/>
        </g>
        <path fill="rgb(3,4,3)" fill-rule="evenodd" d="M66.2827451 61.63814526c.00246287.30767635-.18256875.5864174-.46855556.70585595-.2859868.11943856-.61639845.05596547-.83670139-.1607329-.22030294-.21669835-.28695039-.54378772-.16877135-.82828839.11817905-.28450066.3978244-.47017603.70814595-.47018572.20256363-.0016068.39738796.07705399.5411962.21850925.14380823.14145526.22469263.33399208.22468615.53484181z"/>
        <path fill="rgb(3,4,3)" fill-rule="evenodd" d="M64.48352941 69.30424565c-.00000977.30768603-.18727555.58495642-.47421312.7021318-.28693757.11717537-.61682863.05109394-.83538313-.16733801-.2185545-.21843195-.28257127-.54603747-.16210966-.82959545s.40159023-.46701816.71190199-.46457621c.42060945.00330992.75981717.34232744.75980392.75937787z"/>
        <path fill="rgb(3,4,3)" fill-rule="evenodd" d="M76.78019608 72.8239018c-.00000978.30768604-.18727555.58495642-.47421312.7021318-.28693757.11717537-.61682863.05109394-.83538314-.167338-.2185545-.21843196-.28257127-.54603748-.16210965-.82959546.1204616-.28355798.40159022-.46701816.71190199-.4645762.42060944.00330991.75981717.34232743.75980392.75937786z"/>
        <path fill="rgb(3,4,3)" fill-rule="evenodd" d="M86.0072549 67.38772055c-.0000133.41860537-.34168277.7582527-.76387227.75935134-.4221895.00109864-.76565236-.3367658-.76788176-.75536533-.0022294-.41859954.33761559-.76004161.75979325-.76336388.20417575-.00160673.40054612.07768905.54549427.22027455.14494814.1425855.22647294.33665521.22646651.53910332z"/>
        <path fill="rgb(3,4,3)" fill-rule="evenodd" d="M80.37254902 60.01693378c.00246287.30767635-.18256875.5864174-.46855556.70585595-.2859868.11943856-.61639845.05596547-.83670138-.1607329-.22030294-.21669836-.2869504-.54378772-.16877135-.82828839.11817904-.28450067.3978244-.47017603.70814594-.47018572.4206227-.00001313.76254407.33631376.76588235.75335106z"/>
        <path fill="rgb(109,110,113)" fill-rule="evenodd" d="M80.39686275 59.42630655v-1.04263787l-1.41627451.6328149-5.31862746 4.9118489-7.7135294-3.73059445-1.12450981-.39776936v1.04263787l6.52215686 4.4116238-8.5827451 2.00692723v1.04263787l.7172549.80759234 9.34862746-2.18170467 2.41313725 5.6109587 1.5682353-.14464341v-1.03661106l-.74156863-4.72501785 10.07196078.4218766.24921569-.89799447v-1.04263787l-9.8045098-.33147446 3.81117647-5.35783274z"/>
        <path fill="rgb(188,190,192)" fill-rule="evenodd" d="M80.39686275 58.38366868l-1.41627451-.40982297-5.31862746 4.9118489-7.7135294-3.73059444-1.12450981.6448685 6.52215686 4.41162381-8.5827451 3.0495651.7172549.80759233 9.34862746-2.18170467 2.41313725 5.6109587 1.5682353-.1386166-.74156863-5.76765572 10.07196078.4218766.24921569-.89799447-9.8045098-1.37411233 3.81117647-5.35783274z"/>
        <path fill="rgb(3,4,3)" fill-rule="evenodd" d="M75.12686275 63.84395716c.33570249 0 .60784313.26982941.60784313.60268085 0 .33285144-.27214064.60268085-.60784313.60268085-.65472911.33160985-1.43017286.33160985-2.08490197 0-.3357025 0-.60784313-.2698294-.60784313-.60268085 0-.33285144.27214064-.60268085.60784313-.60268085.6547291-.33160984 1.43017286-.33160984 2.08490197 0z"/>
        <rect width="2.948" height="9.414" x="72.61" y="55.033" fill="rgb(3,4,3)" rx="0" ry="0"/>
        <path fill="rgb(132,157,170)" fill-rule="evenodd" d="M73.97196078 46.18540832l-11.6645098 6.6777038c-.53490196.30736723-.97254902.06026808-.97254902-.5604932.07715553-1.58172947.91321457-3.03128673 2.2490196-3.89934508l10.38803922-5.94845997c.5409804-.30736723.97862746-.05424128.97862746.56049319v1.4946485c-.0361532.68183084-.40016101 1.30502806-.97862746 1.67545276z"/>
        <path fill="rgb(132,157,170)" fill-rule="evenodd" d="M78.0445098 21.49357398l-.60784313 3.93550594L75.06 41.09878196c-.0840484.49280778-.37009086.9291357-.79019608 1.2053617l-1.61078431.9221017c-.1586547.10755019-.35926279.13436876-.5409804.0723217-.23009204-.15818451-.33081217-.44560009-.24921568-.7111634l.27352941-1.75982808 2.61980392-16.87506374.20058824-1.31384425c.08826784-.53673932.42598796-1.00106733.9117647-1.25357616l1.49529412-.60268085c.1454533-.08048848.32258592-.08048848.46803922 0 .20982607.17236423.2918233.45452599.20666666.7111634z"/>
        <path fill="rgb(132,157,170)" fill-rule="evenodd" d="M72.22137255 58.99840315L61.52941176 52.8631121l13.09294118-10.49267356 10.7345098 6.15337146-13.1354902 10.47459314z"/>
        <path fill="rgb(132,157,170)" fill-rule="evenodd" d="M88.37784314 26.85743353L77.84392157 20.8065178 72.09980392 43.2563794l10.58862745 6.06296933 5.68941177-22.4619152z"/>
        <path fill="rgb(100,120,131)" fill-rule="evenodd" d="M84.62745098 52.2785117l-11.6827451 6.67770379c-.53490196.31339404-.97254902.06026808-.97254902-.55446638.07715554-1.58172948.91321457-3.03128674 2.24901961-3.89934509l10.40627451-5.94845997c.5409804-.30736723.97862745-.06026808.97862745.55446638v1.47656808c-.03038693.68832755-.39508592 1.31944599-.97862745 1.69353318z"/>
        <path fill="rgb(100,120,131)" fill-rule="evenodd" d="M82.5182353 48.6563998l3.09392156-19.88846799c.08644032-.5374891.42469343-1.00254991.9117647-1.25357616l1.49529413-.60268085c.44980392-.17477744.75372549.1386166.66862745.69910979l-2.97843138 19.58712755c-.0790595.49472267-.3663005.93287887-.79019607 1.2053617l-1.61686275.9281285c-.49843137.25915277-.88137255-.05424127-.78411765-.67500254z"/>
        <path fill="rgb(34,34,34)" fill-rule="evenodd" d="M60.16784314 67.46004225c.60784313.6388417.72941176 1.86831063.51666666 3.08572594-.3058927.62818648-.8712276 1.09419876-1.55 1.2776834-.66669501.2400468-1.3113538.53645065-1.92686274.88594085-1.86 1.91049829-3.58019608 2.14554382-4.21235294 1.91049829-2.13960785-.7834851.15803921-2.60358127.77803921-3.0495651.18235294-.13258978 2.56509804-2.41072339 2.56509804-2.41072339l.55921569-.88594084-.06686275-1.93460552 3.1-.91004809.23705883 2.03103446z"/>
        <path fill="rgb(53,53,53)" fill-rule="evenodd" d="M53.77333333 53.39347126c.4072549 4.82144678 1.92686275 8.43753187 3.12431373 14.88019014.74183448.5621438 1.69670653.76959293 2.60764706.56652.52584971-.17334827.91483712-.61676919 1.01509804-1.15714723.18843137-5.50850295.14588235-9.76945655-1.39196079-13.32527355 4.66215687-2.03706127 10.8317647-2.68192978 14.63078432-5.83395061 1.48313725-1.26562978 2.5954902-2.4107234 2.94803921-3.57992424.18210124-.56234863.14965679-1.17141335-.09117647-1.7116136-.15411467-.33076614-.35918017-.63575202-.60784314-.90402128l-1.21568627-.86183361-5.23352941-.74129744c-.66862745.34955489-1.41019608.75335106-2.19431373 1.2053617C61.73 45.11866321 53.74294118 50.42828148 53.77333333 53.39347125z"/>
        <g opacity=".5">
          <path fill="rgb(60,60,59)" fill-rule="evenodd" d="M59.1345098 68.71361842l.37078432.12656297c.52584971-.17334826.91483712-.61676918 1.01509804-1.15714722.18843137-5.50850295.14588235-9.76945655-1.39196079-13.32527355 4.66215687-2.03706127 10.8317647-2.68192978 14.63078432-5.83395061 1.48313725-1.26562978 2.5954902-2.4107234 2.94803921-3.57992424l-.09117647-1.7116136c-.15411467-.33076614-.35918017-.63575202-.60784314-.90402128l-1.21568627-.86183361-5.23352941-.74129744c-.66862745.34955489-1.41019608.75335106-2.19431373 1.2053617-.40117647 4.88171486-5.19098039 8.3230225-10.5035294 11.5895527 2.01196077 4.5502404 2.58333332 9.72124208 2.27333332 15.19358418z"/>
        </g>
        <path fill="rgb(34,34,34)" fill-rule="evenodd" d="M68.6290196 72.16697968c.60784315.60268084.6564706 1.80804254.5227451 3.07969913-.47221407.67202293-1.17402905 1.15162734-1.97549019 1.3500051-.80146114.19837776-2.96019608 2.79643913-5.78666667 2.41072339-2.82647059-.38571574 0-2.4107234 0-2.4107234l3.25196079-2.79643913.60784313-.86183361v-1.80804254l3.1-.91004808.27960785 1.94665914z"/>
        <path fill="rgb(53,53,53)" fill-rule="evenodd" d="M60.92156863 56.94326146c.4072549 4.82144678 3.17294117 9.49222335 4.37647059 15.94693523 1.08803921.82567276 2.0545098.97031617 2.82039215.10245575.25049414-.28029482.45555337-.59747043.60784314-.94018213.1945098-5.50247614-.18843137-10.36008377-1.72019608-13.92192758 4.66215686-2.03103446 8.34568628-4.0439885 12.15686275-7.23217018 2.35945498-2.09711425 2.62776855-5.66730184.60784313-8.08797698l-.5227451-.0783485h-.0972549l-8.55235294 1.75982807-1.4162745 1.58505063-1.8964706 2.12746339c-3.16686274 3.53170977-5.97509803 6.85850805-6.36411764 8.7388723z"/>
        <g opacity=".5">
          <path fill="rgb(60,60,59)" fill-rule="evenodd" d="M67.55313725 73.19153712l.5409804-.19888468c.25049413-.28029482.45555336-.59747043.60784313-.94018213.1945098-5.50247614-.18843137-10.36008377-1.72019607-13.92192758 4.66215686-2.03103446 8.34568627-4.0439885 12.15686274-7.23217018 2.35945498-2.09711425 2.62776856-5.66730184.60784314-8.08797698l-.5227451-.0783485-10.06588235 3.32679827-1.8964706 2.1274634c1.09411766.16875063 3.50117648.2229919 8.50980393.16272382-1.7809804 3.73059445-5.96294118 6.90672252-11.07490196 9.094454 2.34019608 4.02590806 2.91156863 9.5946791 2.85686274 15.74805056z"/>
        </g>
        <path fill="rgb(67,82,90)" fill-rule="evenodd" d="M63.99725342 89.62670898c0 1.07873536.6138916 1.8079834 1.51959228 1.8079834.3852539-.01159668.76062012-.12390136 1.08807373-.32543945l14.38763428-8.23266602c1.28234863-.81872558 2.08624268-2.20178222 2.15783692-3.71252441V58.85974121c0-1.07873535-.60784913-1.8079834-1.51959229-1.8079834-.38446045.01147461-.75933838.12145996-1.08807373.31945801l-14.38153076 8.23864746c-1.2869873.81518555-2.09399414 2.1998291-2.16394043 3.71252442v20.30432128zm16.98925781-31.4901123c.19403076-.12072754.41558838-.19128418.64428711-.20495605.56530762 0 .63214111.65698242.61395264.9342041v20.30432129c-.0758667 1.1953125-.71264649 2.28625488-1.72021485 2.94702148l-14.3815918 8.23266602c-.19360351.1217041-.41540527.19226074-.6442871.20495605-.5470581 0-.60784912-.65100098-.60784912-.9342041V69.32226562c.07537841-1.19555664.70935058-2.2878418 1.71411132-2.953125l14.3815918-8.23254394z"/>
        <path fill="rgb(67,82,90)" fill-rule="evenodd" d="M31.04608154 70.72058105c0 1.07873536.60784912 1.8079834 1.5135498 1.8079834.3847046-.00976562.75994874-.11987304 1.0880127-.319458l14.3815918-8.23864747c1.28466797-.8173828 2.09094238-2.20068359 2.1638794-3.71252441V39.95361328c0-1.07873535-.6077881-1.8079834-1.51348878-1.8079834-.38519287.00683594-.76123046.1171875-1.08807373.31945801l-14.38763427 8.23254395c-1.28234864.81884765-2.08624268 2.2019043-2.15783692 3.71252441v20.3104248zm16.98919678-31.4901123c.19366455-.1217041.4154663-.19226074.64434814-.20495605.56530762 0 .6260376.6508789.6260376.9342041v20.32836914c-.07537842 1.1956787-.70928955 2.2878418-1.71411133 2.953125l-14.40588378 8.20251465c-.19360352.1217041-.41540528.19226074-.64428711.20495605-.54705811 0-.60784913-.65698242-.60784913-.9342041V50.41015625c.07348633-1.19458008.70812989-2.2857666 1.71411133-2.94714355l14.38763428-8.23254395z"/>
        <path fill="rgb(100,120,131)" fill-rule="evenodd" d="M84.3782353 57.93165805L65.15215685 68.93058352 30.60235294 49.13251767v-.97031617l19.22607843-10.03463612 34.54980392 18.8277497v.97634297z"/>
        <path fill="rgb(132,157,170)" fill-rule="evenodd" d="M84.3782353 56.95531507L65.15215685 67.96026736 30.60235294 48.1622015l19.22607843-11.0109791L84.3782353 56.95531508z"/>
        <g opacity=".5">
          <path fill="rgb(178,178,178)" fill-rule="evenodd" d="M61.2072549 51.38654404l3.79294118-2.1997851 4.31568627-.83772638-2.52254902-1.87433743-3.1972549 1.18125446-2.38882353 3.73059445z"/>
        </g>
        <g opacity=".5">
          <path fill="rgb(178,178,178)" fill-rule="evenodd" d="M54.83705882 47.0954564l.72333334-.7171902-.27352941-.46406426 1.77490196-1.14509361.4254902-.82567277 2.74137254-.83169957-2.74137255-1.5669702-2.27941176 1.41027318-1.32509804 1.12701319-.10941177 1.53080935-.12156862.75335106 1.18529411.72924383z"/>
        </g>
        <path fill="rgb(32,162,106)" fill-rule="evenodd" d="M66.93921569 24.33220077c-2.43137255-.3616085-3.2337255.76540468-3.78078432 3.39911998l-2.23686274 7.92525316c-.8327451.69910978-1.34333334 1.71764041-2.15784314 2.71809062l2.50431373 2.04911488c1.14882353-.90402127 2.27941176-1.88639105 3.41607843-2.94710934l1.3190196-4.53215998 1.64117648-5.65314635.94215686-1.72366723-1.6472549-1.23549574z"/>
        <g opacity=".5">
          <path fill="rgb(63,118,171)" fill-rule="evenodd" d="M66.00313725 32.94451009l-1.96333333-3.81496977c-.4862745 3.17010126-1.82352941 5.42412763-1.9390196 8.25070081l-1.87215687 2.22991914 1.03941177.81361914c1.14882353-.90402127 2.27941176-1.88639105 3.41607843-2.94710934l1.3190196-4.53215998z"/>
        </g>
        <path fill="rgb(249,115,57)" fill-rule="evenodd" d="M72.42196078 20.82459824c4.8627451 1.5609434 3.8172549 6.10515699 2.50431373 9.64289356l-3.42215686-3.19420849.91784313-6.44868507z"/>
        <path fill="rgb(69,196,138)" fill-rule="evenodd" d="M63.15843137 35.95188752c-.00300656.03006032-.00300656.06034181 0 .09040213.1154902 2.76630509 3.92058824 2.50715233 3.92058824 2.50715233l1.53784314 3.30871785c.3890196 4.82144678 8.7590196 6.02680848 11.11137254.98236978-1.69588235-2.38058935-1.69588235-2.38058935-1.8235294-4.01385444.13372548-.43393021.24921568-.86183362.34647058-1.2716566.7692845-2.83597093.41023305-5.85659477-1.00294118-8.43753186-1.37372549-1.76585489-4.46156862-3.53170977-6.40666666-4.21876594l-5.66509804-.15067021-1.15490196 4.09220295c.30392157 5.12881402-.89960785 4.95403658-.86313726 7.11163401z"/>
        <path fill="rgb(252,199,170)" fill-rule="evenodd" d="M71.77764706 23.9223778c.31 1.05469148 1.13666667 2.67590296 1.34333333 3.68237998.2309804 1.23549573-2.06666666 3.15202083-3.61058823 3.04353828-1.08803922-.2109383-1.36156863-1.59710425-1.52568628-2.87478765l3.79294118-3.85113061z"/>
        <g opacity=".3">
          <path fill="rgb(252,175,117)" fill-rule="evenodd" d="M70.98745098 24.72394332s.90568627 7.394894-2.6745098 6.78618635c-2.33411765-.39776936-1.82352942-4.21876593-1.82352942-4.21876593l4.49803922-2.56742042z"/>
        </g>
        <path fill="rgb(252,199,170)" fill-rule="evenodd" d="M68.73235294 17.9558374c-3.59235294.4941983-4.69862745 2.58550084-4.34 5.42412763.04254902 2.37456254 2.03627451 5.52055657 3.4282353 5.46028848 1.98156862.10848256 2.96019607-2.18773147 4.65607843-4.64666933 1.30686274-4.0439885-.4072549-6.69578422-3.74431373-6.23774678z"/>
        <path fill="rgb(249,115,57)" fill-rule="evenodd" d="M64.4409804 23.46434035c.73549019.7774583 1.95117646 1.2053617 3.43431372 1.5669702 1.2582353.51830554 2.47392157.46406426 2.96019608 1.16317404l1.45882353-.60268085c1.46490196-1.67545275 1.6107843-6.45471188-.89960785-7.4672157-4.03607843-1.61518467-8.82588235 2.40469658-6.95372549 5.33975231z"/>
        <path fill="rgb(252,199,170)" fill-rule="evenodd" d="M70.89019608 25.45921396c.22490196-.86786042.8327451-1.44040723 1.3554902-.94018212.24313725.23504553.22490196.66294893 0 1.2053617-.112681.35211729-.41614958.61102374-.78411765.66897573-.49235294.08437532-.74156863-.25915276-.57137255-.93415531z"/>
        <g opacity=".5">
          <path fill="rgb(63,118,171)" fill-rule="evenodd" d="M63.1645098 36.04228965c.1154902 2.76630509 3.92058824 2.50715233 3.92058824 2.50715233l1.53784314 3.30871785c.3890196 4.82144678 8.7590196 6.02680848 11.11137255.98236978-1.69588236-2.38058935-1.69588236-2.38058935-1.82352942-4.01385444.1337255-.43393021.24921569-.86183362.3464706-1.2716566l-3.37960785-3.61608508-1.95117647 4.34532891c-1.58039216 3.38103956-5.29431373 1.93460552-5.5982353-.7834851-.55313725.89196766-3.36745098.68705617-4.16372549-1.45848765z"/>
        </g>
        <g opacity=".5">
          <path fill="rgb(252,175,117)" fill-rule="evenodd" d="M59.4627451 51.06109638l-.45588235.19285787c-.39509804.10848255-.57745099-.0783485-.31607844-.46406425-.01823529.39776936.28568628.39776936.77196079.27120638z"/>
        </g>
        <path fill="rgb(255,255,255)" fill-rule="evenodd" d="M48.48509804 39.47154367l6.24862745 3.57992424-8.90490196 5.09867997-6.24862745-3.57992423 8.90490196-5.09867998z"/>
        <path fill="rgb(29,29,27)" fill-rule="evenodd" d="M41.41588235 44.54611641l4.51627451 2.58550084-.26745098.15669702-4.5162745-2.58550084.26745097-.15669702z"/>
        <path fill="rgb(29,29,27)" fill-rule="evenodd" d="M42.15745098 44.12423982l4.51627451 2.58550084-.16411765.09642893-4.52235294-2.58550083.17019608-.09642894z"/>
        <path fill="rgb(29,29,27)" fill-rule="evenodd" d="M42.60117647 43.86508705l4.51627451 2.58550084-.16411765.09642894-4.5162745-2.58550084.16411764-.09642894z"/>
        <path fill="rgb(29,29,27)" fill-rule="evenodd" d="M43.0509804 43.6119611l4.5162745 2.58550084-.16411765.09642893-4.52235294-2.58550084.17019608-.09642893z"/>
        <path fill="rgb(29,29,27)" fill-rule="evenodd" d="M43.9445098 43.09968238l4.51627451 2.58550084-.17019607.09642893-4.51627451-2.58550084.17019607-.09642893z"/>
        <path fill="rgb(29,29,27)" fill-rule="evenodd" d="M44.3882353 42.84655642l4.5162745 2.58550084-.16411764.09040213-4.51627451-2.58550084.16411764-.09040213z"/>
        <path fill="rgb(29,29,27)" fill-rule="evenodd" d="M47.62196078 44.1845079l1.73235295.9883966-.17019608.09642893-1.72627451-.98839659.16411764-.09642894z"/>
        <path fill="rgb(29,29,27)" fill-rule="evenodd" d="M45.2817647 42.3342777l4.51627452 2.58550084-.16411765.09642893-4.51627451-2.58550083.16411765-.09642894z"/>
        <path fill="rgb(29,29,27)" fill-rule="evenodd" d="M45.73156863 42.07512494l4.5162745 2.58550083-.17019607.09642894-4.51627451-2.58550084.17019608-.09642893z"/>
        <path fill="rgb(29,29,27)" fill-rule="evenodd" d="M47.23294118 42.42467983l3.45862745 1.98281999-.16411765.09642893-3.45862745-1.98281999.16411765-.09642893z"/>
        <path fill="rgb(29,29,27)" fill-rule="evenodd" d="M50.01686275 42.48494791l2.01803921 1.15714723-.17019608.09040213-2.01196078-1.15112042.16411765-.09642894z"/>
        <path fill="rgb(29,29,27)" fill-rule="evenodd" d="M50.46666667 42.23182196l2.01196078 1.15112042-.16411765.09642893-2.01803921-1.15112042.17019608-.09642893z"/>
        <path fill="rgb(255,255,255)" fill-rule="evenodd" d="M53.35392157 45.817773l6.24862745 3.57389743-8.90490196 5.09867997-6.25470588-3.57389742 8.91098039-5.09867998z"/>
        <path fill="rgb(29,29,27)" fill-rule="evenodd" d="M46.28470588 50.88631893l4.51627451 2.58550084-.27352941.15669702-4.5162745-2.58550084.2735294-.15669702z"/>
        <path fill="rgb(29,29,27)" fill-rule="evenodd" d="M47.02019608 50.46444234l4.5162745 2.58550084-.16411764.09642893-4.5162745-2.58550083.16411764-.09642894z"/>
        <path fill="rgb(29,29,27)" fill-rule="evenodd" d="M47.47 50.20528958l4.51627451 2.59152764-.16411765.09040213-4.52235294-2.58550084L47.47 50.20528958z"/>
        <path fill="rgb(29,29,27)" fill-rule="evenodd" d="M47.91372549 49.95216362L52.43 52.53766446l-.16411765.09642893-4.5162745-2.58550084.16411764-.09642893z"/>
        <path fill="rgb(29,29,27)" fill-rule="evenodd" d="M48.8072549 49.4398849l4.51627451 2.58550084-.16411765.09642893-4.5162745-2.58550084.16411764-.09642893z"/>
        <path fill="rgb(29,29,27)" fill-rule="evenodd" d="M49.25705882 49.18675894l4.51627451 2.58550084-.16411764.09642894-4.52235294-2.59152765.17019607-.09040213z"/>
        <path fill="rgb(29,29,27)" fill-rule="evenodd" d="M52.49078431 50.52471042l1.72627451.9883966-.16411764.09642893-1.72627451-.98839659.16411764-.09642894z"/>
        <path fill="rgb(29,29,27)" fill-rule="evenodd" d="M50.15058824 48.67448022l4.5162745 2.58550084-.16411764.09642893-4.52235294-2.58550083.17019608-.09642894z"/>
        <path fill="rgb(29,29,27)" fill-rule="evenodd" d="M50.59431373 48.42135427l4.5162745 2.57947402-.16411764.09642894-4.51627451-2.58550084.16411765-.09040212z"/>
        <path fill="rgb(29,29,27)" fill-rule="evenodd" d="M52.1017647 48.76488235l3.45862746 1.98281999-.16411765.09642893-3.46470588-1.98281999.17019608-.09642893z"/>
        <path fill="rgb(29,29,27)" fill-rule="evenodd" d="M54.88568627 48.82515043l2.01196079 1.15714723-.16411765.09642894-2.01196078-1.15714723.16411764-.09642894z"/>
        <path fill="rgb(29,29,27)" fill-rule="evenodd" d="M55.32941176 48.57202448l2.01803922 1.15112042-.17019608.09642893-2.01196078-1.15112042.16411764-.09642893z"/>
        <path fill="rgb(29,113,184)" fill-rule="evenodd" d="M52.73999023 48.24658203c.55010987.27709961 1.2005005.27709961 1.75061036 0 .21856689-.07202148.36602783-.27478027.36602783-.50317383 0-.22839355-.14746094-.43115234-.36602783-.5032959-.55010987-.27697753-1.2005005-.27697753-1.75061036 0-.21856689.07214356-.36602783.27490235-.36602783.5032959 0 .22839356.14746094.43115235.36602783.50317383zm-.28088378-.5032959c0-.21069336.13476562-.39819336.33557128-.46704101.51452637-.25585938 1.12060547-.25585938 1.63513184 0 .20080566.06884765.33557129.25634765.33557129.46704101s-.13476563.39831543-.33557129.46716309c-.51452637.25585937-1.12060547.25585937-1.63513184 0-.20080566-.06884766-.33557128-.25646973-.33557128-.46716309z"/>
        <path fill="rgb(29,113,184)" fill-rule="evenodd" d="M52.86767578 48.1743164c.47021485.2352295 1.02508545.2352295 1.4953003 0 .18322753-.06555175.30535888-.23791503.30535888-.43103027 0-.19299316-.12213135-.36535644-.30535889-.4309082-.47021484-.2352295-1.02508545-.2352295-1.49530029 0-.18322754.06555176-.30535889.23791504-.30535889.4309082 0 .19311524.12213135.36547852.3053589.43103028zm-.2612915-.4309082c0-.18518066.12017822-.34936523.29772949-.40686035.44519043-.22338867.97106934-.22338867 1.41625977 0 .1776123.05749512.29779052.22167969.29779052.40686035 0 .18518067-.12017822.34936524-.29779052.40673828-.44519043.22338868-.97106934.22338868-1.41625977 0-.17755127-.05737304-.2977295-.22155761-.2977295-.40673828z"/>
        <path fill="rgb(29,113,184)" fill-rule="evenodd" d="M53.17156982 47.99951172c.27929688.13867187.6081543.13867187.88745118 0 .24920654-.14465332.24920654-.37365723 0-.5123291-.27929688-.13867188-.6081543-.13867188-.88745118 0-.24920654.13867187-.24920654.36767578 0 .5123291zm-.1270752-.25610352c0-.10375976.06530763-.19641113.1635132-.23205566.25640868-.12695313.55810546-.12695313.81451415 0 .09820557.03564453.16351319.1282959.16351319.23205566 0 .1036377-.06530762.19628907-.16351319.2319336-.25640869.12695312-.55810547.12695312-.81451416 0-.09820556-.03564453-.16351318-.1282959-.16351318-.2319336z"/>
        <path fill="rgb(29,113,184)" fill-rule="evenodd" d="M53.26882353 47.3787164l-.15196078-.04821447s.08509803.07834851.06686274.08437532c-.0182353.0060268-.10333333-.09642894-.0790196-.10245574l.14588235.04821446s-.08509804-.0783485-.06686275-.08437532l.10333333.10245575h-.0182353z"/>
        <path fill="rgb(29,113,184)" fill-rule="evenodd" d="M53.38903809 47.27612305c-.00134278-.00402832-.00286866-.00805664-.00469971-.0119629l-.01593018.00512696c-.02789306-.00598145-.05792236.00036621-.08135986.0189209h.012146c.00628662.00427246.01293945.00769043.01983642.01037597-.01983642.01965332-.01983642.0378418-.01983642.0378418.085083.02416992.085083.01818848.085083.01818848.00848389-.01831055.01153565-.03845215.00921631-.0579834.00524903-.00219727.01031494-.00500488.01513672-.00830078-.00610351-.00488281-.01269531-.00891113-.01959228-.01208496.00219726.00671386.0036621.0135498.0045166.02050781-.02368164.01037598-.05053711.01098633-.07452393.00183105.0102539-.0102539.02575684-.02075195.04937744-.02929687.00708008.00146484.01397705.00378418.02062989.00683594z"/>
        <path fill="rgb(29,113,184)" fill-rule="evenodd" d="M53.53019608 47.22804619h-.04254902v.0060268h-.04862745s.09117647-.01808042.09117647-.0060268z"/>
        <path fill="rgb(29,113,184)" fill-rule="evenodd" d="M53.63964844 47.21594238c.01818847 0 .06072998.11450196 0 .0904541-.00634766-.00256347-.01226807-.0045166-.01782227-.00610351h.04211426l-.03649902-.07226563-.03411866.06762696c-.00689697-.00024414-.01300048.0003662-.01837158.0012207.02124024-.03381348.05297852-.08093262.06469727-.08093262zm-.04632569.07983399l-.00231933.00463867h.03088379c-.01086426-.00305176-.02032471-.00439453-.02856446-.00463867zm-.05096435.01062011c.00634765 0 .01605224-.0065918.03259277-.00939941-.01184082.01879883-.02044678.03356934-.02044678.03356934l-.012146-.02416993z"/>
        <path fill="rgb(29,113,184)" fill-rule="evenodd" d="M53.77331543 47.29431152s0 .04821778-.0425415.04821778c.00952148-.04089356.02172851-.08117676.03649902-.1204834v.04223633c.01416016.00061035.02764893-.00366211.03851318-.01147461.00366211.01013183.00549317.02355957.00402832.0415039h-.03649902zm.03649902 0v.05419922s-.00610351.0180664 0-.05419922zm-.00402832-.0415039c.01031494-.0074463.01824951-.0180664.02227783-.03076172h-.06079101s.02746582 0 .03851318.03076172z"/>
        <path fill="rgb(29,113,184)" fill-rule="evenodd" d="M53.92529412 47.32447512v-.0060268c.03264117-.01661592.06740372-.02877802.10333333-.03616086l-.10333333.04821447s0 .03616085-.04862745.03616085l.04862745-.04218766z"/>
        <path fill="rgb(29,113,184)" fill-rule="evenodd" d="M54.12591553 47.39074707c-.0565796.05187988-.05706787.04797363-.05950928.02832031-.00091553-.0078125-.00219727-.0180664-.00738525-.02832031.03533935-.02575684.07183837-.04992676.10943603-.07226562l-.05474853.04223632.05718994-.0189209c-.00671387.01062012-.0201416.02624512-.04498291.0489502zm.0449829-.0489502c.00836182-.01330566.0064087-.01904296.00317384-.02148437l.03082275.0102539-.03399658.01123047z"/>
        <path fill="rgb(29,113,184)" fill-rule="evenodd" d="M54.18060303 47.44506836c.04083252-.01879883.0836792-.03295899.1276245-.04223633 0 0-.0574951.02697754-.0848999.05773926-.01464843-.00366211-.02893066-.00878906-.0427246-.01550293zm.1227417.01989746c-.02661133.00354004-.05383301.0020752-.0800171-.00439453-.0114746.01281738-.01770019.02624512-.0123291.03869629h.024292s.03417968-.01855469.0680542-.03430176zm0-.00012207c.03009033-.01391602.05993652-.0255127.06567382-.01989746-.02093505.0102539-.04309082.01696777-.06567382.01989746z"/>
        <path fill="rgb(29,113,184)" fill-rule="evenodd" d="M54.22918701 47.51135254h.07904053l-.00482178.00793457c.0111084-.00024414.012146.0045166-.01239013.02050781l.0123291-.02050781c-.01434327.00048828-.0456543.00939941-.0602417.01367187.00640869.00817872.01379394.01574707.02191162.02233887l-.02972412.01623535v-.0361328l.0078125-.00231935c-.00531006-.00683593-.00994873-.01403808-.01391602-.02172851zm.04730225.05236816l-.01147461-.00842285c.01080322-.00610351.01934814-.01123047.02606201-.015625l-.0145874.02404785zm.00006103 0c.0043335.00280762.00878907.00549317.01348877.0078125h-.0182495l.00476073-.0078125z"/>
        <path fill="rgb(29,113,184)" fill-rule="evenodd" d="M54.29607843 47.60773512c.06479364-.0033095.12971616-.0033095.1945098 0h-.18235294v.04821447s-.01823529-.04218766-.01215686-.04821447z"/>
        <path fill="rgb(29,113,184)" fill-rule="evenodd" d="M54.5209804 47.6680032c-.06469408.00602829-.12981574.00602829-.19450981 0h.1945098z"/>
        <path fill="rgb(29,113,184)" fill-rule="evenodd" d="M54.50882353 47.72224448h-.12156863s.09117647 0 .09117647.06026809c0 .06026808.00607843-.01808043.03039216-.06026809z"/>
        <path fill="rgb(29,113,184)" fill-rule="evenodd" d="M54.00431373 48.0898798l.15196078.05424128s-.09117647-.07834851-.07294118-.08437532c.0182353-.00602681.10941177.09040212.08509804.09642893l-.15196078-.04821447s.09117647.07834851.07294117.08437532L53.98 48.09590661l.02431373-.00602681z"/>
        <path fill="rgb(29,113,184)" fill-rule="evenodd" d="M53.96435547 48.180542c.02294922-.02124024.00958252-.04248048.00958252-.04248048l-.07904053-.0180664c-.00671387.01843261-.0092163.03796386-.00744629.05725097-.00585937.00244141-.0114746.0053711-.0168457.0090332.00640869.00476075.01324463.00854493.0203247.01135255.00109864.00427246.00244141.00866699.0039673.01281738.00994872-.00219727.01867675-.0045166.02642821-.00708008.01849366.00012207.03692627-.0057373.05212403-.01733398-.00292969-.00195313-.00598145-.00378418-.00909424-.0053711-.00848389.00793457-.02197266.01586914-.04302979.02270508-.0102539 0-.02056884-.00195312-.0303955-.0057373-.00164795-.00671387-.00286866-.0135498-.003479-.02038575.02471923-.01013183.0529785-.0090332.07690429.0032959z"/>
        <path fill="rgb(29,113,184)" fill-rule="evenodd" d="M53.7490196 48.25863044h.04862746s-.03647059-.10848256 0-.10848256v.10848256h.04862745s-.09117647.01205361-.0972549 0z"/>
        <path fill="rgb(29,113,184)" fill-rule="evenodd" d="M53.6395874 48.28881836c.02435303 0 .08514405-.11450195.08514405-.11450195l-.00610352-.03015137c-.01019287.02539062-.03759766.02941894-.0713501.0300293h.0409546l-.03039552.06628418-.0303955-.06628418c-.0425415.00012207-.012146.11462402.012146.11462402z"/>
        <path fill="rgb(29,113,184)" fill-rule="evenodd" d="M53.47546387 48.15014648v.05419922c-.00128174.01538086-.00012207.02746582.00256347.0369873l.00372315-.00317382c.01031494-.00793457.02337646-.01135254.03625488-.00976563v.04821778c.01428223-.03894043.0244751-.0793457.0303955-.1204834-.03643798 0-.03643798.04821777-.03643798.04821777h-.03649902c.00610351-.07226562 0-.05419922 0-.05419922zm.00256347.0913086c.0074463.0267334.02648926.03320312.03533936.03479004l-.05004883-.00549317c.00134277-.01123047.00653076-.02160644.01470947-.02929687z"/>
        <path fill="rgb(29,113,184)" fill-rule="evenodd" d="M53.36 48.17425512s-.09117647.04821447-.10333333.04218766l.0972549-.05424128s0-.04218766.04862745-.04218766L53.36 48.17425512z"/>
        <path fill="rgb(29,113,184)" fill-rule="evenodd" d="M53.1116333 48.16113281c-.00158691.01306153.0112915.01306153.0112915.01306153l-.0112915-.01306153zm.01519775-.0291748h.05084229c.02770996-.02050781.053833-.04284668.0789795-.06628418-.01818848-.00598145-.06079102.03015137-.06079102.03015137h-.036438c-.0147705.01464843-.02526855.02648925-.03259277.0361328zm-.01519775.0291748c.00079346-.00622558.00482178-.01538086.01519775-.02905273h-.04034423l.02514648.02905273z"/>
        <path fill="rgb(29,113,184)" fill-rule="evenodd" d="M53.0378418 48.04162598h.03649902c.00500488.01159668.00079346.02514648-.00793457.03857422-.03515625-.00842286-.07189941-.00830079-.10699463.00024414.02709961-.01086426.05334473-.02380371.07843018-.03881836zm.02850341.03857422c.01519776.0036621.03009034.00891113.0444336.01574707-.038208.02270507-.07904053.04089355-.12158203.05419921 0 0 .05413818-.03479003.07714843-.06994628z"/>
        <path fill="rgb(29,113,184)" fill-rule="evenodd" d="M52.94665527 48.02355957l.03039551-.06030273.01593018.01977539c-.02502442.01965332-.0357666.03271484-.0378418.04052734h-.00848389zm.0522461 0h-.04376221c-.00390625.01489258.02349854.01123047.0437622 0zm0 0c.00665283-.0036621.0125122-.00805664.01629638-.01293945l.01043702.01293945h-.0267334zm-.00592041-.04052734c.00750732-.00598145.01635742-.01257325.02661133-.0197754v.03613282c0 .00390625-.00158692.00756836-.00439454.0111084l-.0222168-.02746582z"/>
        <path fill="rgb(29,113,184)" fill-rule="evenodd" d="M52.9709804 47.92715597c-.06326478.02042473-.12842238.03455691-.19450981.04218766l.1762745-.04821447v-.04218766s.02431373.04218766.0182353.04821447z"/>
        <path fill="rgb(29,113,184)" fill-rule="evenodd" d="M52.72784314 47.89702193c.06574175-.01635818.1329099-.02644875.20058823-.03013404-.06629994.01343403-.1332504.02349189-.20058823.03013404z"/>
        <path fill="rgb(29,113,184)" fill-rule="evenodd" d="M52.72784314 47.84278065h.12764706s-.09117647 0-.10941177-.04218766l-.0182353.04218766z"/>
        <path fill="rgb(29,113,184)" fill-rule="evenodd" d="M53.25061035 47.95117188c.2277832.12109375.50158692.12109375.72943115 0 .20666504-.11450196.20666504-.30126954 0-.41577149-.22784423-.12109375-.50164795-.12109375-.72943115 0-.20666504.11450195-.20666504.30126953 0 .41577149zm.03649902.00012207c-.18237304-.10852051-.18237304-.27124024 0-.37976075.20666504-.10217285.44976807-.10217285.65643311 0 .0779419.03137207.12890625.10644532.12890625.18981934 0 .0834961-.05096435.15856934-.12890625.1899414-.20666504.10217286-.44976807.10217286-.6564331 0z"/>
        <path fill="rgb(29,113,184)" fill-rule="evenodd" d="M53.01960784 47.57157427h-.08509804v.0060268h-.01215686s-.06078431-.03013403-.03647059-.04821446l.05470589.03616085s.03647058-.04218766.07294117-.03616085l-.04254902.04218766s.04862745-.04218766.04862745 0z"/>
        <path fill="rgb(29,113,184)" fill-rule="evenodd" d="M54.43588235 47.98139725h-.0972549s-.06686274-.03616085-.04254902-.04821447l.06078432.03616085s.03647058-.04821447.06686274-.03616085l-.03647059.04218766s.05470588-.01808043.04862745.0060268z"/>
        <path fill="rgb(252,199,170)" fill-rule="evenodd" d="M59.51137255 40.82757558l-2.04843137 1.54286297-.30392157.89799447c-.20196375.49082725-.48778628.94344388-.84490196 1.33795148l-.15803922-.04821447-.95431372-.24709915c.00438754-.03401338.00438754-.06844236 0-.10245574-.16411765-.26517958-.76588236-.18683106-1.3372549-.13258979l-.08509805.23504553c.18800286-.01486793.36701536.08216113.45588236.24709915l-.10941177.18683106-.43764706.75937787-.05470588.08437532-.29784314-.18080425h-.12156862c-.11185233-.008349-.2172277-.05525859-.29784314-.1325898l-.60784314-.43995701c-.1411305-.11496376-.20069256-.30158139-.15196078-.47611787-.07195504-.07810781-.09733264-.18790596-.06686275-.2892868v-.04821447c-.042722-.10851311-.042722-.22898817 0-.33750128l.2127451-.56652.04254902-.16272383c.05423942-.21427987.24532786-.36683656.46803922-.37366212l2.19431372-.60268085c.33927003-.10995608.69468892-.16291799 1.05156863-.15669702l2.22470588-2.22991914 1.22784314 1.23549574z"/>
        <g opacity=".5">
          <path fill="rgb(252,175,117)" fill-rule="evenodd" d="M55.20784314 44.29299046c.00337078-.02600925.00337078-.05233927 0-.07834851-.16411765-.26517958-.76588236-.18683107-1.3372549-.13258979l-.08509804.23504553c.18453436-.0135577.360162.08056991.44980392.24107234l-.10941177.18683106-.60784313-.2109383c.17327577-.27312773.27945803-.58277619.31-.90402127.45778749.20247299.9776687.21763375 1.44666666.04218766.03847468.20898685.01525683.42454405-.06686274.62076128z"/>
        </g>
        <g opacity=".5">
          <path fill="rgb(252,175,117)" fill-rule="evenodd" d="M53.72470588 45.0342879v.4941983L53.67 45.6128615l-.29784314-.18080425h-.12156862c-.11185233-.008349-.2172277-.05525859-.29784314-.13258979l-.60784314-.43995702c-.1411305-.11496375-.20069256-.30158138-.15196078-.47611787-.07195504-.0781078-.09733264-.18790596-.06686275-.2892868v-.04821447c-.042722-.1085131-.042722-.22898817 0-.33750128l.06078432.11450937.25529411-.60268085-.2735294.73527063.08509803.15669702c.14504023-.36041803.25495322-.7337738.3282353-1.11495957.04300068-.1403418.16368205-.24357481.31-.26517957-.12305542.06557733-.20510112.18760069-.21882354.32544766-.05923012.39995492-.16952695.79081602-.32823529 1.16317404-.0744838.1627549-.04070416.35414214.08509804.48214467.13980392.1446434.34647059.23504553.47411765.08437532-.1096039-.11751657-.13607743-.28932615-.06686275-.4339302.17300787-.30562872.27672395-.64498503.30392157-.9944234.04254902-.32544767.2127451-.37968894.43764706-.37968894-.1954856.0319236-.34779738.18537761-.37686275.37968893-.00251872.35527738-.085616.70544151-.24313725 1.02455744-.07458389.14291363-.03030551.31852294.10333333.40982298.17888795.16587885.4179084.25284784.66254902.24107234z"/>
        </g>
        <path fill="rgb(29,29,27)" fill-rule="evenodd" d="M54.84313725 47.08340278c-.04862745.23504553-.60784313.31942085-1.21568627.19285787-.60784314-.12656297-1.10019608-.4279034-1.05156863-.66294893.04862745-.23504553.60784314-.31942085 1.21568628-.18683106.60784313.13258979 1.10019608.4218766 1.05156862.65692212z"/>
        <path fill="rgb(29,29,27)" fill-rule="evenodd" d="M54.92215686 46.70371385l-2.27333333-.46406425-.08509804.37366212 2.27333333.48214468.08509804-.39174255z"/>
        <path fill="rgb(41,41,40)" fill-rule="evenodd" d="M54.92215686 46.70371385c-.04862745.23504553-.60784313.31942085-1.21568627.19285787s-1.09411765-.4218766-1.0454902-.65692212c.04862745-.23504554.60784314-.31942085 1.21568628-.19285788.60784313.12656298 1.09411764.4218766 1.0454902.65692213z"/>
        <path fill="rgb(60,60,59)" fill-rule="evenodd" d="M54.87960784 46.61933853c-.04862745.23504553-.60784313.32544766-1.21568627.19888468-.60784314-.12656298-1.05764706-.40982298-1.0090196-.6448685.04862744-.23504554.60784313-.32544767 1.21568627-.19888469.60784313.12656298 1.05764705.39174255 1.0090196.64486851z"/>
        <path fill="rgb(29,29,27)" fill-rule="evenodd" d="M54.50882353 46.5289364c-.03647059.15669702-.38294118.2169651-.77196078.1386166-.38901961-.07834851-.68078432-.28326-.65039216-.44598383s.38294117-.2169651.77803921-.13258979c.39509804.08437532.68078432.2772332.64431373.43995702z"/>
        <path fill="rgb(29,29,27)" fill-rule="evenodd" d="M54.4054902 45.32960152l-.69901961-.16875064c-.06786265.39381749-.27206201.7518611-.57745098 1.01250382l1.3554902.25915277c-.16400302-.34503513-.19218265-.73834865-.07901961-1.10290595z"/>
        <path fill="rgb(60,60,59)" fill-rule="evenodd" d="M54.77019608 45.07647556c-.04254902.2169651-.31607843.34352808-.7354902.25915276-.41941176-.08437531-.60784313-.27723319-.57137255-.52433233.0364706-.24709915.37078432-.33147447.7354902-.25915277.36470588.0723217.64431372.30736723.57137255.52433234z"/>
        <path fill="rgb(82,82,80)" fill-rule="evenodd" d="M54.6790196 44.88361769c0 .10848255-.27960784.1446434-.57137254.0783485-.2917647-.06629489-.51666667-.19888467-.49235294-.30736722.02431372-.10848256.27960784-.1386166.60784313-.07834851.3282353.06026808.48019608.19888468.45588236.30736723z"/>
        <path fill="rgb(252,199,170)" fill-rule="evenodd" d="M56.31411765 44.6063845l-.41941177.33750127c-.24782879.2176433-.50976138.41896737-.78411764.60268085-.3464706.22901872-.71117648.68102936-.92392157.46406425-.38294118-.2892868.60784313-1.04866467.60784313-1.04866467.1659734-.17314507.29425247-.3782896.37686275-.60268085.34461863-.06711363.70196433.0067917.99078431.20491149l.15196079.04218766z"/>
        <path fill="rgb(32,162,106)" fill-rule="evenodd" d="M55.89470588 41.79789175c.77196079-.03013405.9482353.68705616 1.26431373 1.47054127.0972549-.04821447 0-.06026809.0790196-.11450937.33431373 0 3.76862746-2.52523275 4.03-2.73014424-.60784313-1.15714723-1.3007843-2.0611685-2.50431372-2.04911488-.88137255 1.23549574-1.64117647 1.88036425-2.8690196 3.42322722z"/>
        <g opacity=".5">
          <path fill="rgb(63,118,171)" fill-rule="evenodd" d="M57.23803922 43.15392365c1.4097241-.809753 2.756771-1.72231686 4.03-2.73014424-.19347528-.42079037-.44287867-.81401447-.74156863-1.16920084l-3.28843137 3.89934508z"/>
        </g>
        <path fill="rgb(252,199,170)" fill-rule="evenodd" d="M66.00313725 47.60773512l-1.37980392.72924383c-.02568455.08006485-.05613003.15855082-.09117647.23504553-.35136998.71840378-.91543337 1.3134197-1.61686274 1.7055868l-1.70803922 1.10893276c-.51058823.1506702-.54705882-.0662949-.39509804-.4279034l-.70509804.48214467c-.47411764.28928681-.86313725 0-.64431372-.37968893l-.45588235.19285787c-.39509804.10848255-.57745099-.0783485-.31607844-.46406425.03307426-.05409128.07178304-.10459131.1154902-.15067021l.27960784-.26517958c-.40117647.19888468-.80843137 0-.28568627-.52433234.82454931-.9315631 1.73859806-1.7813323 2.72921568-2.53728636.69070816-.34232254 1.44239737-.54707674 2.21254902-.60268085l1.49529412-.5002251.76588235 1.39821956z"/>
        <path fill="rgb(32,162,106)" fill-rule="evenodd" d="M77.24215686 29.12954032c1.64117647 1.35603191 2.08490196 2.71809063 1.78705883 5.59890508-.35046968 3.81525288-1.5148957 7.51305752-3.41607844 10.84825526-2.84470588 1.54888978-6.80784313 2.4107234-11.08098039 3.01340424.12509179-.7717165-.3106021-1.52519375-1.0454902-1.80804254 3.82941177-1.80804255 8.09039216-4.32122168 9.6464706-4.21876594.11284627-3.0416532.5757823-6.06056765 1.37980392-8.99802506.54705882-2.11540977 1.3554902-3.7727821 2.72921568-4.43573104z"/>
        <g opacity=".5">
          <path fill="rgb(252,175,117)" fill-rule="evenodd" d="M64.52607843 48.57805129c-.34883248.716631-.91107138 1.30985675-1.61078431 1.69955999l-1.70803922 1.10893276c-.51058823.1506702-.54705882-.0662949-.39509804-.4279034l-.70509804.48214467c-.47411764.28928681-.86313725 0-.64431372-.37968893.22490196.55446638.75980392.08437532 1.50745098-.37968893-.35254902.67500254.36470588.48817148.74156863.10245574 1.04628956-.58833992 1.99542031-1.33225269 2.81431372-2.2058119z"/>
        </g>
        <path fill="rgb(252,199,170)" fill-rule="evenodd" d="M6.78705882 35.54809135l-.99078431 1.7779085-.6990196 1.67545276L5 40.43583303c-.04842686.3241097.24074235.55855858.29115078.16760554l-.19389588 1.54400807c-.09117647.4339302.31.60268085.45588235.24107234l.51666667-1.89241787v2.9109485c0 .43393021.43156863.67500255.55313726.1446434l.45588235-2.96518977.14588235 1.80804255.3464706 1.32589786c.1762745.47611787.69294117.5002251.6807843 0l-.2127451-1.75982807s.12156863-1.2053617.21882354-1.75982808c.2070496-.32175925.4323102-.63163364.67470588-.9281285l1.4527451 1.87433743c.43764705.40379617.85705882.05424128.54705882-.4941983l-1.1609804-2.57947402-.88137254-1.30781744-.07294118-.10848256.12764706-1.0004502-1.88431372-.7111634-.27352942.60268084z"/>
        <path fill="rgb(252,199,170)" fill-rule="evenodd" d="M41.85960784 43.8289262c.12764706.37968894-.3282353.68102936-.54705882.36763532l-.10333333-.09040213c.06686274.26517958-.38901961.60268085-.60784314.2772332L40.34 44.00370364c-.10333333.32544766-.26137255.47009106-.5409804.17477745L39.1 42.78026153l-.95431373-1.10893276-.15196078.65089531.21882353.71719021c.10333333.46406426-.34039216.72321702-.52882353.28928681l-.21882353-.51830553-.12764706-.29531361-.07294117-.79553872c.14605908-.55993402.36899203-1.09732393.66254902-1.59710425l-.31607844-.38571574 1.34333334-.54241277.51058823.47009106c.75406155.42182461 1.38294644 1.03289764 1.82352941 1.7718817l.60784314 1.5609434c.20666667.4339302.13980392.79553871-.16411765.60268084l.12764706.22901872z"/>
        <path fill="rgb(255,255,255)" fill-rule="evenodd" d="M38.06666667 29.2561033l-2.72921569-7.4672157c-.44372549-2.94710935-1.99980392-4.29108764-3.47078431-4.78528594l-1.21568628 5.9725672 1.00294118 2.03706127 3.06960784 6.21966635c.43156863.95223574.24313726 1.53080936.52882353 2.57947403l3.42215686-1.72969403c-.0870776-.96302265-.29117048-1.91208895-.60784313-2.82657318z"/>
        <g opacity=".3">
          <path fill="rgb(60,60,59)" fill-rule="evenodd" d="M34.96058824 28.98489692l-1.14882353-7.19600933-2.16392157 3.22434254 3.07568627 6.21966635c.43156863.95223574.24313726 1.53080936.52882353 2.57947403L36 33.43268158c-.39509804-1.75380127-.60784314-3.03148467-1.03941176-4.44778466z"/>
        </g>
        <path fill="rgb(53,53,53)" fill-rule="evenodd" d="M29.31372549 58.31134698c-.96117628.52810264-2.03780992.81566293-3.13647059.83772638-.74606828-.00893437-1.44337363-.36916967-1.8782353-.97031617-.02765205-1.52162779-.15761358-3.03973368-.3890196-4.54421359-.74176983-2.95381016-.9475914-6.0149137-.60784314-9.04021272l-2.56509804-8.5339608.29784314-1.10893277L22.98 27.7614548l4.30960784.7834851c1.34941177 4.92390253 2.29764706 9.76342974 1.11235294 14.69335907l-.12156862 2.95916297c.13980392 4.65269614.34039215 10.0949042 1.03333333 12.11388504z"/>
        <g opacity=".5">
          <path fill="rgb(60,60,59)" fill-rule="evenodd" d="M26.1590196 59.14907336c-.74606828-.00893437-1.44337362-.36916967-1.87823529-.97031617-.02765205-1.52162779-.15761359-3.03973368-.3890196-4.54421359-.74176983-2.95381016-.9475914-6.0149137-.60784314-9.04021272l-2.54686275-8.5339608.29784314-1.10893277 3.22156863-1.67545275c-.68686275 3.51362934-.60784314 6.93082975.75372549 10.17927952-.95431373 4.81541997-.26137255 10.14311867 1.14882353 15.69380928z"/>
        </g>
        <path fill="rgb(34,34,34)" fill-rule="evenodd" d="M12.70745098 64.07297589l-.26137255 3.09175275c.33416993.63845333.85546979 1.16162922 1.49529412 1.5006753 1.02117647 1.97076638 2.43137255 3.01340425 4.2062745 3.15804765 1.56215687.1386166 2.5347059-.39776936 2.65019609-1.3500051-.15196079-2.1274634-3.48294118-3.40514679-3.82333334-5.12881401l-4.26705882-1.2716566z"/>
        <path fill="rgb(53,53,53)" fill-rule="evenodd" d="M26.9309804 29.09337947l-.60784315 1.50067531-.44980392 1.10290595c-.69294117 1.9225519-1.91470588 2.9772434-3.64705882 3.24844977-.4254902 4.82144679-.88137255 9.57659868-2.5954902 12.70451228-.1762745 1.64531871-1.0272549 2.65179573-1.46490196 4.21876594-.85222008 4.4372078-1.2594335 8.94715163-1.21568627 13.46389014-1.00739892.68626843-2.29453617.82656056-3.4282353.37366212l-.25529411-.12656297c-.43511393-.2260584-.73049277-.64959383-.79019608-1.13304.14588235-7.1779289-1.51960784-11.00495228 1.82352941-17.26077948-.2917647-5.52658338.0972549-7.64801996.70509804-12.9395578-.70509804-3.17612808-.20058824-5.42412764 1.18529412-6.9609638.14588235-.15669702.29784313-.31339404.45588235-.45803745l1.71411765.37366213 8.57058823 1.89241786z"/>
        <path fill="rgb(255,255,255)" fill-rule="evenodd" d="M31.88490196 25.71233991c-1.2091965 1.7310697-2.81804648 3.15062025-4.69254902 4.14041743-.27041608.2685367-.56098834.51634684-.86921569.74129744-3.19117647 2.4107234-7.12392156 1.80804255-9.0690196-.1506702-.76415112-.7248291-1.20224193-1.72388056-1.21568628-2.77233191l.12764706-.3616085c.35254902-.97031617.66862745-1.90447149.97254902-2.79643914 1.0454902-3.07969914 1.92686275-5.63506593 3.39784314-7.16587529 1.36764706-1.01853063 4.25490196-1.68147956 5.76843137-1.01853063 2.68666667-1.4946485 5.44019608-.09642893 7.57980392 1.44040723 1.19745098 4.122337-.83882353 5.2674306-1.99980392 7.94333357z"/>
        <g opacity=".5">
          <path fill="rgb(60,60,59)" fill-rule="evenodd" d="M21.66705882 23.066571c-1.25369447 1.25778245-2.35897372 2.65292214-3.2945098 4.15849784-.59550857.9810524-.96690294 2.07960135-1.08803922 3.21831573-1.21568627 1.03661106-1.42235294 2.4107234-.60784313 4.06809572-.7354902 5.22524296-1.89039216 11.25205144-.30392157 13.01187951-3.55588235 2.49509871-2.74745098 10.56499527-2.82647059 18.1949348l-.25529412-.12656298c-.44777109-.22237605-.75353561-.65224074-.8145098-1.1450936.14588235-7.1779289-1.51960784-11.0049523 1.82352941-17.2607795-.2917647-5.52658337.0972549-7.64801995.70509804-12.9395578-.70509804-3.17612807-.20058824-5.42412763 1.18529412-6.9609638.35254902-.97031616.66862745-1.90447147.97254902-2.79643913l4.50411764-1.4223268z"/>
        </g>
        <path fill="rgb(255,255,255)" fill-rule="evenodd" d="M20.54254902 17.34712974c-3.11215686 1.25357617-6.33980392 3.66429956-9.63431373 6.71989146-1.8235294 2.92902892-3.07568627 7.12971443-4.21843137 11.63174036.44980392.56652 1.21568628.64486851 2.16392157.6328149 1.37372549-3.10380637 3.59843137-5.87011146 4.72294118-9.04021272 2.10921568-.26517958 5.13019608-2.46496467 8.09039215-4.21876594 2.17607843-3.35090551 2.45568628-5.21318933-1.1245098-5.72546806z"/>
        <path fill="rgb(34,34,34)" fill-rule="evenodd" d="M29.61156863 19.950711l.40117647 1.26562979.7354902-.26517957V19.5228076l-.7354902-.4941983-.40117647.9221017z"/>
        <path fill="rgb(34,34,34)" fill-rule="evenodd" d="M30.0127451 21.21634079c.20669352 3.49254512.20669352 6.99410163 0 10.48664675l1.21568627 1.13304.82058824-1.8502302c-.20481314-3.36917414-.63325716-6.72131095-1.28254902-10.03463612l-.7537255.26517957z"/>
        <path fill="rgb(252,199,170)" fill-rule="evenodd" d="M27.97647059 13.82144678c-.08509804 0-1.49529412 1.72969404-1.49529412 1.72969404-1.8782353 1.05469148.53490196 4.98417061 3.1 4.58037444l2.12745098-1.46451446-3.73215686-4.84555402z"/>
        <path fill="rgb(255,255,255)" fill-rule="evenodd" d="M26.9127451 15.02680848c-.51905625.34919248-1.01449514.7317086-1.48313726 1.14509361-.4686421.413385 1.0272549 4.7672055 4.18196079 5.03238508.13971953-.511133.32903453-1.00764877.56529412-1.48259488-1.95117648-.28326-3.26411765-3.21831573-3.26411765-4.69488381z"/>
        <path fill="rgb(255,255,255)" fill-rule="evenodd" d="M30.17686275 19.7337459l1.15490196 1.09687915s1.11235294-4.48394551.13980392-5.42412764c-.97254902-.94018212-1.29470588 4.3272485-1.29470588 4.3272485z"/>
        <path fill="rgb(252,199,170)" fill-rule="evenodd" d="M31.1372549 9.11450936c-2.32803921.01808043-3.64705882 1.09085234-3.73215686 3.50157573.06686274 2.50112552.1945098 4.01385445 1.41019608 5.71944124.672626.96985157 1.77923592 1.55443157 2.9662745 1.56697021 1.39803922-.0662949 3.47078432-3.39309317 3.64705883-5.80381657.35862745-2.45893786-1.73235294-4.32122168-4.29137255-4.9841706z"/>
        <path fill="rgb(34,34,34)" fill-rule="evenodd" d="M35.16117647 15.83440082c-.51666667 1.2053617-3.57411765.9944234-4.91137255-.5002251l-.15196078.89799446-1.21568628-1.01250383-1.06980392 1.38616595-.3890196-.54843957c-.97862746-1.94665914-.93-5.14689444 1.8235294-6.7500255 3.71392157-1.51272893 8.34568628 2.80849275 5.91431373 6.52703359z"/>
        <path fill="rgb(252,199,170)" fill-rule="evenodd" d="M28.52352941 16.26230422c-.16098465-.24104075-.26488517-.51506893-.30392157-.80156553-.0416094-.28486816.05798525-.5721374.26745098-.77143149.22928568-.21152096.5794849-.22683971.82666667-.03616085.15050535.13550412.23469933.32882377.2309804.53035915-.006448.20512828-.0433137.4081984-.10941177.60268085-.04862745.16875064-.0972549.33750127-.15196079.51227872-.01811135.1219496-.08631969.23102873-.18843137.30134042-.10889076.04699943-.23502993.03078693-.3282353-.04218766-.1031692-.07828556-.18643406-.17941875-.24313725-.29531361z"/>
        <path fill="rgb(255,255,255)" fill-rule="evenodd" d="M35.25235294 33.81237051c.63397732 2.3205101 1.43639746 4.59251724 2.4009804 6.79823997l.4862745-.37366213c.36678602-.37130853.87416728-.5725374 1.39803922-.55446638.06078431-2.21786552-.43156863-4.89376849-.86313726-7.5998055l-3.42215686 1.72969404z"/>
        <g opacity=".3">
          <path fill="rgb(60,60,59)" fill-rule="evenodd" d="M35.25235294 33.81237051c.63397732 2.3205101 1.43639746 4.59251724 2.4009804 6.79823997l.4862745-.37366213C37.25377151 38.02581175 36.53851367 35.75118689 36 33.43268158l-.74764706.37968893z"/>
        </g>
      </g>
    </g>
  </g>
</svg>
