<svg xmlns="http://www.w3.org/2000/svg" xmlns:xlink="http://www.w3.org/1999/xlink" width="93" height="101" viewBox="0 0 93 101">
  <defs>
    <rect id="rect-2" width="66.89" height="99.46" x="6.5" y="0"/>
    <mask id="mask-3" maskContentUnits="userSpaceOnUse" maskUnits="userSpaceOnUse">
      <rect width="93" height="101" x="0" y="0" fill="black"/>
      <use fill="white" xlink:href="#rect-2"/>
    </mask>
    <path id="path-5" fill-rule="evenodd" d="M32.56463623 84.26171875c-3.33709717-1.93603516-5.00567627-4.41796875-5.00567627-6.90002441v-3.59069825c.00836182 2.49853516 1.6685791 4.99719239 5.0557251 6.90002442 6.67425537 3.83886719 17.5199585 3.83886719 24.19421387 0 3.33709716-1.92773438 5.00567627-4.46765137 5.00567627-6.99926758v3.59887695c0 2.53173828-1.71862793 5.0633545-5.0557251 6.99108887-6.67425537 3.83874512-17.5199585 3.83874512-24.19421387 0z"/>
    <mask id="mask-6" maskContentUnits="userSpaceOnUse" maskUnits="userSpaceOnUse">
      <rect width="93" height="101" x="0" y="0" fill="black"/>
      <use fill="white" xlink:href="#path-5"/>
    </mask>
    <path id="path-15" fill-rule="evenodd" d="M34.96740723 79.7196045c-2.64471436-1.52233888-3.97955323-3.52441407-3.97955323-5.51831055v-2.87084961c.00836182 1.99389648 1.33483887 3.98779296 3.97955323 5.51831054 5.32269287 3.06945801 13.99090576 3.06945801 19.35534668 0 2.69470214-1.54711914 4.03790283-3.57409668 4.03790283-5.60107422v2.87084961c0 2.02697754-1.34320069 4.05395508-4.03790283 5.60107422-5.36444092 3.06945801-14.03265381 3.06945801-19.35534668 0z"/>
    <mask id="mask-16" maskContentUnits="userSpaceOnUse" maskUnits="userSpaceOnUse">
      <rect width="93" height="101" x="0" y="0" fill="black"/>
      <use fill="white" xlink:href="#path-15"/>
    </mask>
    <path id="path-31" fill-rule="evenodd" d="M51.50457764 71.47485352l-9.9130249 5.71313476c-.11621094.06958008-.26245118.06628418-.37542725-.00830078l9.9196167-5.70861816c.11346435.0670166.2543335.0682373.36883545.00378418z"/>
    <mask id="mask-32" maskContentUnits="userSpaceOnUse" maskUnits="userSpaceOnUse">
      <rect width="93" height="101" x="0" y="0" fill="black"/>
      <use fill="white" xlink:href="#path-31"/>
    </mask>
    <path id="path-44" fill-rule="evenodd" d="M50.77703857 68.34375c.11871338.06799316.26501465.06799316.38378907 0l-9.9196167 5.71691895c-.11773682.0715332-.26605225.0715332-.38378907 0l9.9196167-5.71691895z"/>
    <mask id="mask-45" maskContentUnits="userSpaceOnUse" maskUnits="userSpaceOnUse">
      <rect width="93" height="101" x="0" y="0" fill="black"/>
      <use fill="white" xlink:href="#path-44"/>
    </mask>
    <path id="path-93" fill-rule="evenodd" d="M30.50396729 33.21496582l.09179687.04968262c-.05786133-.02819824-.12567139-.02819824-.18353271 0l-.08343506-.04968262c.05371093-.03283691.121521-.03283691.1751709 0z"/>
    <mask id="mask-94" maskContentUnits="userSpaceOnUse" maskUnits="userSpaceOnUse">
      <rect width="93" height="101" x="0" y="0" fill="black"/>
      <use fill="white" xlink:href="#path-93"/>
    </mask>
    <path id="path-99" fill-rule="evenodd" d="M30.16192627 33.68652344l-.09179688-.04968262c.0230713-.16589355.11737061-.3137207.25860596-.4053955l.08343506.04968261c-.13726807.09411621-.22814941.241333-.25024414.4053955z"/>
    <mask id="mask-100" maskContentUnits="userSpaceOnUse" maskUnits="userSpaceOnUse">
      <rect width="93" height="101" x="0" y="0" fill="black"/>
      <use fill="white" xlink:href="#path-99"/>
    </mask>
    <path id="path-106" fill-rule="evenodd" d="M30.15307617 36.23876953l.08392334-.04541015c.05371094-.03283692.121521-.03283692.17523194 0l-.08343506.04968261c-.05419922-.03100586-.12042237-.0324707-.17572022-.00427246z"/>
    <mask id="mask-107" maskContentUnits="userSpaceOnUse" maskUnits="userSpaceOnUse">
      <rect width="93" height="101" x="0" y="0" fill="black"/>
      <use fill="white" xlink:href="#path-106"/>
    </mask>
    <path id="path-112" fill-rule="evenodd" d="M30.41223145 36.20996094c.1428833.09008789.23773193.23876953.25860595.4053955l-.09173584.04968262c-.02008056-.16479492-.11138916-.3128662-.25030517-.4053955l.08343506-.04968262z"/>
    <mask id="mask-113" maskContentUnits="userSpaceOnUse" maskUnits="userSpaceOnUse">
      <rect width="93" height="101" x="0" y="0" fill="black"/>
      <use fill="white" xlink:href="#path-112"/>
    </mask>
    <path id="path-119" fill-rule="evenodd" d="M35.30108643 33.21496582l-.08343506.04968262c-.05786133-.02819824-.12561035-.02819824-.18353272 0l.09179688-.04968262c.0536499-.03283691.12145996-.03283691.1751709 0z"/>
    <mask id="mask-120" maskContentUnits="userSpaceOnUse" maskUnits="userSpaceOnUse">
      <rect width="93" height="101" x="0" y="0" fill="black"/>
      <use fill="white" xlink:href="#path-119"/>
    </mask>
    <path id="path-125" fill-rule="evenodd" d="M35.30108643 33.23144531c.14123535.0916748.23553466.23950196.25860595.40539551l-.09173584.04968262c-.02215576-.1640625-.11297607-.3112793-.25030517-.40539551l.08343506-.04968262z"/>
    <mask id="mask-126" maskContentUnits="userSpaceOnUse" maskUnits="userSpaceOnUse">
      <rect width="93" height="101" x="0" y="0" fill="black"/>
      <use fill="white" xlink:href="#path-125"/>
    </mask>
    <path id="path-132" fill-rule="evenodd" d="M35.47680664 36.23876953l-.08398437-.04541015c-.0536499-.03283692-.12145997-.03283692-.1751709 0l.08343506.04968261c.05419921-.03100586.12042236-.0324707.17572021-.00427246z"/>
    <mask id="mask-133" maskContentUnits="userSpaceOnUse" maskUnits="userSpaceOnUse">
      <rect width="93" height="101" x="0" y="0" fill="black"/>
      <use fill="white" xlink:href="#path-132"/>
    </mask>
    <path id="path-138" fill-rule="evenodd" d="M35.05084229 36.66503906l-.09179688-.04968261c.02087402-.16662598.11572266-.31530762.25860596-.40539551l.08343506.04968261c-.13885498.0925293-.23022461.2406006-.25024414.40539551z"/>
    <mask id="mask-139" maskContentUnits="userSpaceOnUse" maskUnits="userSpaceOnUse">
      <rect width="93" height="101" x="0" y="0" fill="black"/>
      <use fill="white" xlink:href="#path-138"/>
    </mask>
    <path id="path-145" fill-rule="evenodd" d="M12.42504883 11.55529785l-.3170166.19030762c-.04187012.03845215-.065979.09228516-.06677246.14892578-.0057373.01879883-.01800538.0349121-.03448487.04553223l.30981446-.17797852c.00512695-.01611328.00512695-.03344726 0-.04956055.01361084-.06469726.05267334-.12121582.10845947-.15722656z"/>
    <mask id="mask-146" maskContentUnits="userSpaceOnUse" maskUnits="userSpaceOnUse">
      <rect width="93" height="101" x="0" y="0" fill="black"/>
      <use fill="white" xlink:href="#path-145"/>
    </mask>
    <path id="path-153" fill-rule="evenodd" d="M11.9411621 11.40625l.31701661-.18200684c.16015625-.07800293.35119629-.05871582.49224854.04968262l-.3170166.18200684c-.14105225-.10839844-.3320923-.12768555-.49224854-.04968262z"/>
    <mask id="mask-154" maskContentUnits="userSpaceOnUse" maskUnits="userSpaceOnUse">
      <rect width="93" height="101" x="0" y="0" fill="black"/>
      <use fill="white" xlink:href="#path-153"/>
    </mask>
    <path id="path-157" fill-rule="evenodd" d="M12.43341064 11.45593262l.3170166-.18200684c.2796631.17175293.49389649.43078613.6090088.73632813l-.3170166.18200683c-.11517335-.30554199-.32934571-.5645752-.6090088-.73632812z"/>
    <mask id="mask-158" maskContentUnits="userSpaceOnUse" maskUnits="userSpaceOnUse">
      <rect width="93" height="101" x="0" y="0" fill="black"/>
      <use fill="white" xlink:href="#path-157"/>
    </mask>
    <path id="path-168" fill-rule="evenodd" d="M24.53051758 19.56384277l-1.57678223.91015625c.13116455-.08654785.20959473-.23266601.20855713-.38891601l1.58514404-.91833496c-.0010376.1599121-.08239746.30883789-.21691894.39709472z"/>
    <mask id="mask-169" maskContentUnits="userSpaceOnUse" maskUnits="userSpaceOnUse">
      <rect width="93" height="101" x="0" y="0" fill="black"/>
      <use fill="white" xlink:href="#path-168"/>
    </mask>
    <path id="path-173" fill-rule="evenodd" d="M20.78460693 15.67541504l1.58514405-.91003418c.16601562-.07714844.36120605-.05810547.50891113.04956055l-1.59350586.91015625c-.14575195-.10461426-.336792-.12353516-.50054932-.04968262z"/>
    <mask id="mask-174" maskContentUnits="userSpaceOnUse" maskUnits="userSpaceOnUse">
      <rect width="93" height="101" x="0" y="0" fill="black"/>
      <use fill="white" xlink:href="#path-173"/>
    </mask>
    <path id="path-181" fill-rule="evenodd" d="M22.61999512 16.48620605l1.58514404-.91003417c.44281006.28210449.71014404.76867675.70910645 1.2906494l-1.57678223.93493653c.00305176-.53125-.26745606-1.02734375-.71746826-1.31555176z"/>
    <mask id="mask-182" maskContentUnits="userSpaceOnUse" maskUnits="userSpaceOnUse">
      <rect width="93" height="101" x="0" y="0" fill="black"/>
      <use fill="white" xlink:href="#path-181"/>
    </mask>
    <path id="path-193" fill-rule="evenodd" d="M32.43115234 23.28686523l.3170166-.18200683c-.08831787.05810547-.13659667.16027832-.12512206.2647705-.0076294.06042481-.0076294.12158204 0 .18200684.01818847.02148438.01818847.05285645 0 .0744629l-.3170166.18200683v-.0744629c-.0076294-.0604248-.0076294-.12158202 0-.18200683-.01147462-.10449219.0368042-.20666504.12512206-.2647705z"/>
    <mask id="mask-194" maskContentUnits="userSpaceOnUse" maskUnits="userSpaceOnUse">
      <rect width="93" height="101" x="0" y="0" fill="black"/>
      <use fill="white" xlink:href="#path-193"/>
    </mask>
    <path id="path-203" fill-rule="evenodd" d="M32.23095703 22.94763184l.3170166-.18200684c.16308594-.07751465.35620117-.0583496.50061035.04968262l-.31707763.18200683c-.1463623-.10290527-.33654785-.12182617-.50054932-.04968261z"/>
    <mask id="mask-204" maskContentUnits="userSpaceOnUse" maskUnits="userSpaceOnUse">
      <rect width="93" height="101" x="0" y="0" fill="black"/>
      <use fill="white" xlink:href="#path-203"/>
    </mask>
    <path id="path-207" fill-rule="evenodd" d="M33.68255615 23.9239502l-.3170166.18200683c.02929688-.03625488.02929688-.08789062 0-.1241455-.07904053-.40417481-.31982422-.75927735-.66741943-.98449708l.3170166-.18200683c.34759521.22521972.5883789.58032226.66741943.98449707.02929688.03625488.02929688.08789062 0 .1241455z"/>
    <mask id="mask-208" maskContentUnits="userSpaceOnUse" maskUnits="userSpaceOnUse">
      <rect width="93" height="101" x="0" y="0" fill="black"/>
      <use fill="white" xlink:href="#path-207"/>
    </mask>
    <path id="path-226" fill-rule="evenodd" d="M10.21069336 21.85351563l-.07989502-.04760743c-.0567627-.0324707-.12677002-.0324707-.18353272 0l.09179688.04968262c.05249023-.0321045.11853027-.03283691.17163086-.0020752z"/>
    <mask id="mask-227" maskContentUnits="userSpaceOnUse" maskUnits="userSpaceOnUse">
      <rect width="93" height="101" x="0" y="0" fill="black"/>
      <use fill="white" xlink:href="#path-226"/>
    </mask>
    <path id="path-232" fill-rule="evenodd" d="M9.7803955 22.2775879l-.08343505-.04968263c.01416016-.16674804.1069336-.31713867.25030517-.4053955l.09173584.04968261c-.14123535.0916748-.23553466.23950196-.25860595.40539551z"/>
    <mask id="mask-233" maskContentUnits="userSpaceOnUse" maskUnits="userSpaceOnUse">
      <rect width="93" height="101" x="0" y="0" fill="black"/>
      <use fill="white" xlink:href="#path-232"/>
    </mask>
    <path id="path-239" fill-rule="evenodd" d="M9.77557373 24.83190918l.07989502-.04748535c.05566406-.03637696.12786865-.03637696.18353271 0l-.09173583.04968262c-.05255127-.03222657-.11859131-.03283692-.1716919-.00219727z"/>
    <mask id="mask-240" maskContentUnits="userSpaceOnUse" maskUnits="userSpaceOnUse">
      <rect width="93" height="101" x="0" y="0" fill="black"/>
      <use fill="white" xlink:href="#path-239"/>
    </mask>
    <path id="path-245" fill-rule="evenodd" d="M10.0390625 24.84228516c.14056396.09094238.23248291.23986816.25024414.4053955h-.09173584c-.02838135-.14855957-.1194458-.27807617-.25030517-.35571289l.09179687-.04968261z"/>
    <mask id="mask-246" maskContentUnits="userSpaceOnUse" maskUnits="userSpaceOnUse">
      <rect width="93" height="101" x="0" y="0" fill="black"/>
      <use fill="white" xlink:href="#path-245"/>
    </mask>
    <path id="path-252" fill-rule="evenodd" d="M14.66448975 21.85351563l.07989502-.04760743c.0567627-.0324707.12677002-.0324707.18353271 0l-.09173584.04968262c-.05255127-.0321045-.1185913-.03283691-.1716919-.0020752z"/>
    <mask id="mask-253" maskContentUnits="userSpaceOnUse" maskUnits="userSpaceOnUse">
      <rect width="93" height="101" x="0" y="0" fill="black"/>
      <use fill="white" xlink:href="#path-252"/>
    </mask>
    <path id="path-258" fill-rule="evenodd" d="M14.92791748 21.82250977c.14056397.09094238.23248291.23986816.25024414.4053955l-.09173584.04968262c-.0166626-.16601562-.10882568-.31530762-.25030517-.4053955l.09179687-.04968262z"/>
    <mask id="mask-259" maskContentUnits="userSpaceOnUse" maskUnits="userSpaceOnUse">
      <rect width="93" height="101" x="0" y="0" fill="black"/>
      <use fill="white" xlink:href="#path-258"/>
    </mask>
    <path id="path-265" fill-rule="evenodd" d="M15.09954834 24.83190918l-.07989502-.04748535c-.05566406-.03637696-.12786865-.03637696-.18353271 0l.09179687.04968262c.05249023-.03222657.11853027-.03283692.17163086-.00219727z"/>
    <mask id="mask-266" maskContentUnits="userSpaceOnUse" maskUnits="userSpaceOnUse">
      <rect width="93" height="101" x="0" y="0" fill="black"/>
      <use fill="white" xlink:href="#path-265"/>
    </mask>
    <path id="path-271" fill-rule="evenodd" d="M14.66931152 25.24768066h-.05841064c.01416016-.16674804.1069336-.31713867.25030517-.4053955l.09173584.04968261c-.14068603.07385254-.2435913.20288086-.28363037.3557129z"/>
    <mask id="mask-272" maskContentUnits="userSpaceOnUse" maskUnits="userSpaceOnUse">
      <rect width="93" height="101" x="0" y="0" fill="black"/>
      <use fill="white" xlink:href="#path-271"/>
    </mask>
    <path id="path-280" fill-rule="evenodd" d="M23.85473633 3.47216797l-.1585083 1.80358887c-.01452637.1455078-.10699463.27197265-.24194336.33093261-.35870362.1826172-.78424072.1826172-1.14294434 0-.1361084-.05749511-.22912597-.18481445-.24194336-.33093261l-.16687011-1.81188965c.01861572.17663574.1295166.33068847.29199218.4053955.4331665.2154541.94342041.2154541 1.37658692 0 .15905761-.07287597.26708984-.22412109.28363037-.39709472z"/>
    <mask id="mask-281" maskContentUnits="userSpaceOnUse" maskUnits="userSpaceOnUse">
      <rect width="93" height="101" x="0" y="0" fill="black"/>
      <use fill="white" xlink:href="#path-280"/>
    </mask>
  </defs>
  <g>
    <ellipse cx="46.5" cy="54.5" fill="rgb(213,227,220)" rx="46.5" ry="46.5"/>
    <g>
      <use fill="none" xlink:href="#rect-2"/>
      <g mask="url(#mask-3)">
        <g opacity=".4">
          <path fill="rgb(32,162,106)" fill-rule="evenodd" d="M33.57412809 69.65089237c-7.8839666 4.51726184-7.9256807 11.83919723-.09177104 16.35645906 7.83390966 4.51726184 20.59008417 4.5255352 28.48239359 0 7.8923094-4.5255352 7.93402352-11.83919722.09177104-16.35645906-7.84225249-4.51726183-20.59008418-4.51726183-28.4823936 0z"/>
        </g>
        <g>
          <g>
            <use fill="none" xlink:href="#path-5"/>
            <g mask="url(#mask-6)">
              <path fill="rgb(20,57,41)" fill-rule="evenodd" d="M27.55895996 74.0270996c-.00463867-.08520507-.00738525-.17065429-.00836182-.2561035h.00836182v.2561035zm0 0v3.33459474c.00042725.60388183.09613037 1.20410156.28363037 1.77868652v-3.59057617c-.16040039-.49365235-.25567627-1.00549317-.28363037-1.52270508z"/>
              <path fill="rgb(27,76,54)" fill-rule="evenodd" d="M27.85095234 75.54980755v3.59064402c.554774 1.54545371 1.55216673 2.8968268 2.8699307 3.88848546v-3.59064402c-1.32022356-.98925894-2.31820694-2.34143231-2.8699307-3.88848546z"/>
              <path fill="rgb(32,89,59)" fill-rule="evenodd" d="M30.72088303 79.44656639v3.58237064c.56888868.46265531 1.17744747.87513261 1.81873515 1.23273263 1.08408295.6254753 2.23033661 1.13838308 3.42055694 1.53057407V82.2015997c-1.19056239-.3946399-2.3390686-.9045279-3.42889976-1.52230069-.63374577-.36536044-1.23891738-.77743234-1.81039233-1.23273262z"/>
              <path fill="rgb(32,89,59)" fill-rule="evenodd" d="M35.96014404 82.20983887l-.02502441-.00817871h.02502441v.0081787zm.00006104 0c2.26885986.74523926 4.62908935 1.1821289 7.01629638 1.2989502v3.59069823c-2.38745117-.12023925-4.74761962-.55993652-7.01629638-1.30725097v-3.58239746z"/>
              <path fill="rgb(27,76,54)" fill-rule="evenodd" d="M42.97648824 83.50879269v3.59064402c1.85483336.09827112 3.7148565.02626206 5.55631931-.2151077v-3.5989174c-1.84084274.24823508-3.7012548.32302935-5.5563193.22338108z"/>
              <path fill="rgb(20,57,41)" fill-rule="evenodd" d="M48.55783602 83.2854116v3.5989174c2.86977846-.34584442 5.64559896-1.23626302 8.17596535-2.62265934 3.33712872-1.92769598 5.05575-4.45934822 5.05575-6.99100046v-3.5989174c0 2.53165224-1.66856435 5.07157785-5.00569307 6.99927384-2.5309685 1.38351085-5.30675832 2.27111074-8.17596535 2.61438597h-.05005693z"/>
            </g>
          </g>
          <path fill="rgb(69,196,138)" fill-rule="evenodd" d="M32.61470358 66.77175845c-6.67425743 3.83884523-6.741 10.06042197-.08342822 13.89926719 6.6575718 3.83884522 17.51992576 3.83884522 24.1941832 0 6.67425742-3.83884522 6.741-10.06042196.07508539-13.89926719-6.66591461-3.83884522-17.48655447-3.83884522-24.18584037 0z"/>
        </g>
        <g>
          <g>
            <path fill="rgb(248,185,38)" fill-rule="evenodd" d="M30.98785333 71.33038716v2.87086054c0 1.99388297 1.33485149 3.99603931 3.979526 5.51834 5.3227203 3.0694215 13.99091214 3.0694215 19.35534655 0 2.69473143-1.5471208 4.03792574-3.57409727 4.03792574-5.60107373v-2.87086055c0 2.02697647-1.3431943 4.05395293-4.03792574 5.60107374-5.36443441 3.0694215-14.03262625 3.0694215-19.35534655 0-2.64467451-1.53057406-3.97118318-3.52445703-3.979526-5.51834z"/>
            <g>
              <use fill="none" xlink:href="#path-15"/>
              <g mask="url(#mask-16)">
                <path fill="rgb(244,167,23)" fill-rule="evenodd" d="M30.987854 71.6003418c-.0055542-.08984375-.00836181-.17980957-.00836181-.26989746h.00836181v.26989746zm0-.00012207c.02398682.3894043.09960938.77429199.22528077 1.14489746v2.8708496c-.14862061-.45715331-.22460938-.93444824-.22528077-1.41479492v-2.60095214z"/>
                <path fill="rgb(244,167,23)" fill-rule="evenodd" d="M31.22145234 72.745134v2.87086054c.44799676 1.23822714 1.24768965 2.3214683 2.30261882 3.11906174v-2.87913392c-1.0564848-.79073922-1.85449644-1.8727561-2.294276-3.11078837h-.00834282z"/>
                <path fill="rgb(248,185,38)" fill-rule="evenodd" d="M33.51572833 75.85592236v2.87913392c.45670686.36594462.942131.69516654 1.451651.98453143.86983384.495412 1.7863214.90550665 2.73644554 1.22445925v-2.87913392c-.94987014-.31615757-1.86636193-.72348318-2.73644554-1.21618588-.5097714-.29207202-.99519917-.62406299-1.451651-.9928048z"/>
                <path fill="rgb(244,167,23)" fill-rule="evenodd" d="M37.70382487 78.06491304v2.87913392c1.82128426.59717963 3.71552145.94782717 5.63140471 1.04244504v-2.87086055c-1.91674324-.09331123-3.81152933-.4468441-5.6314047-1.0507184z"/>
                <path fill="rgb(244,167,23)" fill-rule="evenodd" d="M43.33522958 79.11563145V81.986492c1.48443413.08315708 2.97348889.02497726 4.44672401-.17374084V78.9418906c-1.47395169.19046416-2.96223039.24861366-4.44672401.17374084z"/>
                <path fill="rgb(238,152,21)" fill-rule="evenodd" d="M47.7819536 78.94189061v2.87086055c2.29547987-.27513406 4.51611786-.98577771 6.54077228-2.09316345 2.69473143-1.54712082 4.03792574-3.57409728 4.03792574-5.60107374v-2.87086055c0 2.02697647-1.3431943 4.05395293-4.03792574 5.60107374-2.02621395 1.10380462-4.24613793 1.81421977-6.54077229 2.09316345z"/>
              </g>
            </g>
          </g>
          <path fill="rgb(255,198,65)" fill-rule="evenodd" d="M35.02577908 65.72931342c-5.3560916 3.0694215-5.38946288 8.04999224-.05839975 11.11941374 5.33106312 3.0694215 13.99091214 3.0694215 19.35534655 0 5.3644344-3.0694215 5.38946287-8.04999224.05839975-11.11941374-5.33106312-3.0694215-13.99091214-3.0694215-19.35534655 0z"/>
        </g>
        <path fill="rgb(249,176,39)" fill-rule="evenodd" d="M51.06068256 70.5692368l-.30034159.17374085-.24194183.13237397 1.23473763-.7115101-.69245421.40539529z"/>
        <path fill="rgb(217,136,14)" fill-rule="evenodd" d="M39.54758849 41.32286211c-.4588552 1.88632912-.94273886 5.4604264-1.75199258 7.23092829-.3837698.82733733-.61736881.19856096-.65908292 1.09208527-.0417141.89352432 0 2.02697647 0 3.04460139.08267097 2.2077045.49599096 4.39093954 1.2263948 6.47805131.10330232.322546.25217196.62894871.44216956.91007107.18689317.30420452.48629017.52391401.83428218.61222962.35282125.04670311.7115454-.01692482 1.02616708-.18201421.70913985-.33093494 1.30982302-.88525095 2.03564851-1.18309239.89287634-.43001391 1.93534026-.43001391 2.82821659 0 .77632961.55333725 1.4822612 1.1978325 2.1023911 1.91942261.26801085.29434822.5985436.52605568.96776732.67841662.38096934.14885979.81299874.08585493 1.13462376-.16546747.22902101-.2622891.36910857-.58933328.40045545-.93489119.20117615-1.27898904.31822289-2.56960362.35039851-3.86366534.19501046-2.06681729.1474159-4.14909776-.14182797-6.20503-.3688973-1.66579839-.85110275-3.30491689-1.44330817-4.90611037-.24842824-.58184188-.32369793-1.22205018-.21691336-1.84496225-2.12506587-1.22406315-4.35924432-2.25153856-6.67425743-3.0694215-.09925339.17918298-.31946682.25436308-.50891213.17374083l-1.9522203.21510771z"/>
        <path fill="rgb(244,167,23)" fill-rule="evenodd" d="M55.75769122 14.22756448c.13348515.47985565-.09177104 1.14999889-.60068316 1.14172551.26583567.84600207.317411 1.74391955.15017079 2.61438597.18354208 0 .2669703.2482012.31702723.43021542.15402517.44663806.21919095.9186671.1918849 1.38992672-.04245662.48930384-.36826884.90933473-.83428218 1.07553853-.4439132.09016322-.90011539-.08433877-1.16799505-.44676216-.15156405-.21044153-.26415043-.44427188-.33404659-.69056193-.09594245.06885929-.21184927.10857976-.33337916.1114258-.45938913.0223712-.90468725-.16071028-1.21335497-.4988596-.24318491-.26641089-.38136707-.60695948-.39577512-.96006706-.62626226-.24057315-1.145678-.7032119-1.4526855-1.3043883l.55062624-.20683434c-1.07050918-.6935817-1.51391347-2.02989697-1.0678812-3.21834222.09915444-.3072069.31470793-.56319335.59974878-.7149932-.88619122-.46364811-1.51990362-1.32640376-1.66762996-2.34615493 1.09290965-.33920831 5.1725495-2.37445815 4.83049381.16546746 1.36822278.11582723.7675396 1.241006 1.12628095 1.99388297.27531311.55431602 1.08456683.68668999 1.3014802 1.46438708v.00000828z"/>
        <path fill="rgb(251,191,52)" fill-rule="evenodd" d="M40.79901176 16.46964865l-5.76488986-.16546747c-.7119812-.08790461-1.43455391.0238784-2.08570545.32266156-.67631174.40100772-1.04950865 1.16066674-.95108168 1.93596936.04072593.57088239.29691128 1.10557487.71748267 1.49748057.67054769.35256009 1.39968745.58237308 2.15244802.67841661 1.41658483.28941943 2.85858068.43906977 4.30489605.44676216 1.05119554 0 2.10239109.05791361 3.15358663.06618699.71574212.09957228 1.44473684-.03398037 2.07736263-.38057518.55963759-.41670275 1.02323922-.94695786 1.35987995-1.55539418.31702723-.54604264 1.00113862-1.7705019.6924542-2.41582501-.3086844-.64532312-1.5350792-.47158228-2.16079083-.43021541-1.16799505.06618698-2.3359901.03309349-3.49564233 0z"/>
        <path fill="rgb(251,191,52)" fill-rule="evenodd" d="M37.97079517 18.48007836c-.35039852-1.29064623-10.20327105-5.71690096-11.40463739-6.4780513-1.39325124-.88525095-2.94501609-2.18417057-3.7542698-.70323674-.80925372 1.48093382 6.10694555 7.51222298 10.35344184 8.98488343.60499303.2147014 1.2429134.32386862 1.88547772.32266156 1.67272648-.0602335 3.05442867-1.31479042 3.26204332-2.96186765l-.3420557.8356107z"/>
        <g>
          <path fill="rgb(248,185,38)" fill-rule="evenodd" d="M41.21615285 77.1465686l9.9196151-5.7086276-6.84945669-3.92985232-9.9196151 5.71690097 6.84945669 3.92157895z"/>
          <g>
            <path fill="rgb(248,185,38)" fill-rule="evenodd" d="M51.50457764 71.47485352l-9.9130249 5.71313476c-.11621094.06958008-.26245118.06628418-.37542725-.00830078l9.9196167-5.70861816c.11346435.0670166.2543335.0682373.36883545.00378418z"/>
            <g>
              <use fill="none" xlink:href="#path-31"/>
              <g mask="url(#mask-32)">
                <path fill="rgb(248,185,38)" fill-rule="evenodd" d="M51.50457764 71.47485352l-9.9130249 5.71313476v-.00830078c-.114563.07214355-.26086426.07214355-.37542725 0l9.9196167-5.70861816c.11346435.0670166.2543335.0682373.36883545.00378418z"/>
              </g>
            </g>
          </g>
          <path fill="rgb(217,136,14)" fill-rule="evenodd" d="M41.21615285 77.1465686l-6.8494567-3.92157895v.19856096l6.8494567 3.92157895v-.19856096z"/>
        </g>
        <g>
          <path fill="rgb(244,167,23)" fill-rule="evenodd" d="M35.09252165 71.48758125V73.29945l6.72431436 3.88021209v-1.81186876l-6.72431436-3.8802121z"/>
          <path fill="rgb(248,185,38)" fill-rule="evenodd" d="M41.81683601 75.36779334v1.81186876l8.45127848-4.83165003-.00834282-1.81186875-8.44293566 4.83165002z"/>
          <path fill="rgb(248,185,38)" fill-rule="evenodd" d="M35.09252165 71.48758125l6.72431436 3.88021209 8.44293566-4.83165002-6.72431437-3.88848547-8.44293565 4.8399234z"/>
        </g>
        <path fill="rgb(217,136,14)" fill-rule="evenodd" d="M41.75009344 76.84872716v-.55431601c-.01377287-.37487455-.21368445-.71870996-.5339406-.91834444l-6.84945668-3.92157895v-.19856096l6.84945669 3.92157895c.41676422.26776885.68008739.71630005.70913985 1.2079125v.55431602c0 .44676216-.31702723.62877637-.70079703.4053953v-.19856097c.28365594.17374084.52559777.0330935.52559777-.29784144z"/>
        <path fill="rgb(251,191,52)" fill-rule="evenodd" d="M41.21615285 75.17750575l9.9196151-5.71690097-6.84945669-3.92157895-9.9196151 5.71690097 6.84945669 3.92157895z"/>
        <path fill="rgb(248,185,38)" fill-rule="evenodd" d="M44.28631126 66.31672292l-8.5764208 4.964024 5.50626239 3.15215523 8.5764208-4.964024-5.50626239-3.15215523z"/>
        <path fill="rgb(247,181,37)" fill-rule="evenodd" d="M41.9252927 76.38541826v.554316c.01313188.17700036-.06546004.34846327-.20857055.45503554l8.25939357-4.76546303.35874134-.20683434.27531312-.15719409.37542698-.2151077.6507401-.3723018c.14392887-.1053098.22025832-.27877536.20022772-.45503554v-.55431601c-.02763931-.48983619-.29163914-.93643994-.70913985-1.19963913l-.83428218.48812902-.28365594.16546747-.39211262.22338108-.29199877.16546747-8.10087995 4.66618255c.41358616.26960514.67363482.71783197.70079703 1.2079125z"/>
        <g>
          <path fill="rgb(248,185,38)" fill-rule="evenodd" d="M40.8574115 74.03578023l9.91961512-5.7086276-6.8494567-3.92157895-9.9196151 5.7086276 6.84945669 3.92157895z"/>
          <g>
            <path fill="rgb(248,185,38)" fill-rule="evenodd" d="M41.24118131 74.06060035l9.9196151-5.71690096c-.11873878.0679832-.265031.0679832-.3837698 0l-9.9196151 5.71690096c.11773774.07159227.26603206.07159227.3837698 0z"/>
            <g>
              <use fill="none" xlink:href="#path-44"/>
              <g mask="url(#mask-45)">
                <path fill="rgb(248,185,38)" fill-rule="evenodd" d="M41.24118131 74.06060035l9.9196151-5.71690096c-.11873878.0679832-.265031.0679832-.3837698 0l-9.9196151 5.71690096c.11773774.07159227.26603206.07159227.3837698 0z"/>
              </g>
            </g>
          </g>
          <path fill="rgb(217,136,14)" fill-rule="evenodd" d="M40.8574115 74.03578023l-6.84945668-3.92157895v.19856096l6.84945669 3.92157895v-.19856096z"/>
        </g>
        <g>
          <path fill="rgb(244,167,23)" fill-rule="evenodd" d="M34.73378032 68.37679288l.00834282 1.81186876 6.72431436 3.88021209-.00834282-1.81186876-6.72431436-3.8802121z"/>
          <path fill="rgb(248,185,38)" fill-rule="evenodd" d="M41.45809468 72.25700497l.00834282 1.81186876 8.44293565-4.83165003v-1.81186875l-8.45127847 4.83165002z"/>
          <path fill="rgb(248,185,38)" fill-rule="evenodd" d="M34.73378032 68.37679288l6.72431436 3.88021209 8.45127847-4.83165002-6.73265718-3.88848547-8.44293565 4.8399234z"/>
        </g>
        <path fill="rgb(217,136,14)" fill-rule="evenodd" d="M41.39969492 73.7379388v-.55431602c-.02068434-.37287137-.21889532-.71378187-.53394059-.91834444l-6.84945669-3.92157895v-.19856096l6.84945669 3.92985232c.4153445.26409443.67638921.71095629.70079703 1.19963914v.554316c0 .44676217-.31702723.62877638-.70913985.4053953v-.17374084c.30034158.14892072.54228341 0 .54228341-.32266156z"/>
        <path fill="rgb(251,191,52)" fill-rule="evenodd" d="M40.86575433 72.06671738l9.9196151-5.7086276-6.84945668-3.92157895-9.9196151 5.71690097 6.84945668 3.91330558z"/>
        <path fill="rgb(248,185,38)" fill-rule="evenodd" d="M35.05080754 68.14513843l8.8433911-5.09639797 5.83997525 3.30934933-8.8433911 5.09639797h-.0417141l-5.79826115-3.30934933z"/>
        <path fill="rgb(247,181,37)" fill-rule="evenodd" d="M41.56655136 73.27462989v.554316c.02000047.17815004-.06007023.3528392-.20857054.45503554l8.29276485-4.76546303.35874134-.20683434.27531312-.15719409.37542698-.2151077.64239728-.3723018c.14433935-.10183346.22365757-.27173461.20857054-.44676216v-.55431602c-.0217543-.491656-.28311936-.94215181-.70079703-1.2079125l-.83428218.48812902-.29199876.16546747-.39211262.22338108-.28365594.17374084-8.14259407 4.66618255c.4153445.26409443.67638921.71095629.70079703 1.19963914z"/>
        <path fill="rgb(244,167,23)" fill-rule="evenodd" d="M37.20325556 51.78867936c.3837698.53776927 2.57793194-.0910071 3.07015842.60395626.73561457-.3991873 1.40986851-.90066822 2.00227723-1.4892072 1.46833664-1.46438708 5.59803342-8.08308574 5.68146164-10.68919833.01539852-1.12422394-.38869156-2.2144352-1.13462376-3.06114813-.21289952-.23620733-.44751078-.45224715-.70079703-.64532312-.62571164-.47985566-.06674258-2.42409839-.47554084-3.11078837-.28580977-.42232342-.75913317-.68240603-1.2717517-.69880446-.51261852-.01639843-1.00186066.21289216-1.31452306.61607072-.92605322 1.47266045-2.0690198 4.964024-2.81987376 6.56905842-.40045545.82733733-2.37770421 5.9568288-2.99507303 7.95071177-.233599.7446036-1.12628094 2.45719187-.0417141 3.95467244z"/>
        <path fill="rgb(238,152,21)" fill-rule="evenodd" d="M46.82252909 37.15308196c-.21289952-.23620733-.44751078-.45224715-.70079703-.64532312-.62571164-.47985566-.06674258-2.42409839-.47554084-3.11078837-.28580977-.42232342-.75913317-.68240603-1.2717517-.69880446-.51261852-.01639843-1.00186066.21289216-1.31452306.61607072-.92605322 1.47266045-2.0690198 4.964024-2.81987376 6.56905842-.2669703.57086276-1.26810892 3.102515-2.07736263 5.3032323 1.82707797-1.18309238 3.72924134.61222963 4.37163862 2.10143683.31199874.82394575.52210254 1.68236763.62571163 2.55647235 1.8020495-2.42409838 4.73037996-7.44603599 4.79712253-9.63020654.01539852-1.12422394-.38869156-2.2144352-1.13462376-3.06114813z"/>
        <path fill="rgb(251,191,52)" fill-rule="evenodd" d="M55.28215038 21.7894277c.0991631-.34100097.13589602-.69686603.10845669-1.05071842-.16685644-1.80359538-2.20250496-3.24316234-4.4050099-3.99603931-1.02616709-.29784144-1.08456684-.82733734-2.81987377-.7446036H46.405388c-.67532505.09367771-1.33480348.27735114-1.96056312.54604264-.59710249.27676153-1.1053089.71201347-1.46833664 1.25755274-.19962719.46449411-.31540584.96015831-.34205569 1.46438708-.13728622.56565228-.32145448 1.1190922-.55062624 1.65467466-.25862747.61222963-.67576856 1.19963914-.8843391 1.8284155-.23273162.68065166-.30967972 1.40416043-.2252562 2.11798358.24743916 1.08241758.59370395 2.14025681 1.0345099 3.1604286.46925863 1.76262655.55739534 3.60372909.25862748 5.40251279-.1624905.64891363-.2048915 1.32168201-.12514233 1.9856096.22973567.6334343.65995537 1.17616478 1.2263948 1.5471208.76210553.4418754 1.47035088.96933169 2.11073392 1.57194094.40045545.4633089.6507401 1.03417167 1.0345099 1.50575395.83499548.97917053 2.15350252 1.41075178 3.41221411 1.1169054.46980479-.12532345.91334081-.3326384 1.30982302-.61222963.63784183-.45617003 1.15574468-1.0577249 1.51005075-1.75395515.1463514-.27204184.23707771-.570071.2669703-.87697757-.00852612-.47820928-.1194324-.94916239-.32537005-1.38165334-.81747437-2.08432056-1.0341215-4.35306995-.62571164-6.55251168.50891213-2.89568066 2.42776114-5.36114591 3.22032921-8.19063959z"/>
        <path fill="rgb(243,169,132)" fill-rule="evenodd" d="M52.25370607 35.59768777c3.1786151 3.52445704 1.82707797 10.79675219.83428218 15.05753945-.26935634 1.08809751-.45895531 2.19410688-.56731188 3.30934933-.09177104 1.22445925-.1918849 2.44064513-.28365594 3.66510438-.0123891.3840169-.08558067.7637151-.21691337 1.12517877-.74251114 1.72913503-3.28707178.25647458-3.93781188-.82733733-.50819465-.94024406-.8176299-1.97342292-.90936758-3.036328-.40045544-2.70539309-.64239727-6.67661228-.83428218-9.40682548-.20660998-1.32996958-.25978712-2.67895137-.15851361-4.02085943.23451672-1.0448195.77083502-1.99927721 1.54342203-2.74675995 1.20969247-1.181628 2.82724048-1.86088022 4.52266872-1.90141147l.00748351-1.21765027z"/>
        <path fill="rgb(244,167,23)" fill-rule="evenodd" d="M47.56504023 54.01421679c0 3.83884522.90936757 8.4636609.9177104 12.3107795-.00375173 1.68347998-.12921572 3.36452683-.37542699 5.03021099-.12514232.54604263 1.14296659 2.01042971 1.66856436 1.76222851.35039852-.18201421.83428218-1.65467466.83428218-2.0766167.23359901-2.19244393 1.39325124-4.13668666 1.93553466-6.32085722.55963096-2.49116412.45031524-5.0843435-.31702723-7.52049635-.15851362-.43021541-.39211263-.91007107-.83428218-1.03417167l-3.8293552-2.15107706z"/>
        <path fill="rgb(244,167,23)" fill-rule="evenodd" d="M52.22033479 57.19946552c-.15851362-.43021541-.39211263-.91007107-.83428218-1.03417167l-3.81266956-2.15107706c0 3.25143572.64239728 7.05718744.83428218 10.482364 1.40159406 0 2.81987376-.10755385 4.22981064-.22338108.43688668-2.356851.29378922-4.78344823-.41714108-7.0737342z"/>
        <path fill="rgb(238,152,21)" fill-rule="evenodd" d="M48.41600805 64.49658079c0 .620503.05839975 1.23273263.06674257 1.8284155 0 .47158228 0 1.34028648-.08342821 2.24208418.53448857-.20843789 1.14344155-.05912595 1.51839356.3723018.35301327.91549931.52028714 1.89110704.49222649 2.87086054.0816052-.25182808.14571694-.50890455.1918849-.76942372.233599-2.19244393 1.39325124-4.13668666 1.93553465-6.32085722 0-.14064735.0750854-.28956807.10845669-.44676216-1.40993689.11582723-2.82821659.19028759-4.22981065.22338108z"/>
        <path fill="rgb(244,167,23)" fill-rule="evenodd" d="M48.1323521 71.17319306c-.11955603 1.09635698-.5802515 2.12863035-1.31816583 2.95359428-.75979755.70257233-1.42695371 1.49760731-1.98559159 2.36618477-.0914091.1652919-.14281909.3493937-.1501708.53776927 0 .67014323.609026.39712191 1.04285273.4302154.18354208 0 .36708416.05791362.55896906.08273374.6281338.08532009 1.26645588-.05241786 1.8020495-.38884854.57830226-.45726829 1.10426612-.97607945 1.5684505-1.54712082.45051238-.50467577 1.11793812-1.0507184 1.1095953-1.77877526 0-.57086276-.40045544-1.07553853-.4588552-1.65467467-.05839975-.57913613.2669703-1.35683322-.1167995-1.86978237-.23519647-.26913196-.60133683-.38697776-.95108169-.30611481-.34660447.08629695-.64578318.30287937-.83428217.60395625l-.2669703.57086276z"/>
        <path fill="rgb(244,167,23)" fill-rule="evenodd" d="M37.20325556 51.78867936c.83428218 1.34028648 3.14524382 5.36114592 3.99621164 6.7014324.85096782 1.34028648 1.51839357 2.89568066 2.34433292 4.30215413.38028075.87949024 1.14567347 1.53791839 2.07736263 1.78704863.17856854.05058512.37082107.0070348.50953012-.11542216.13870904-.12245695.2045809-.3067874.17458127-.48853409-.03035458-1.0142155-.25398363-2.01357279-.65908292-2.9453209-.29616027-1.00799028-.49725203-2.04108525-.60068317-3.08596825-.05839976-.52122252-.1167995-1.05071841-.16685644-1.57194093-.02437382-.44922577-.07451183-.89671163-.1501708-1.34028648v-.08273374c-.28739547-1.3952795-.78521325-2.73963407-1.47667945-3.98776594-.67576856-1.17481901-1.59347896-2.482012-3.08684406-2.6061126-.82706987-.06779874-1.60568384.39481514-1.93553466 1.1499989l-1.02616708 2.28345103z"/>
        <path fill="rgb(244,167,23)" fill-rule="evenodd" d="M47.07281374 64.73650862c-.00561323.17709546-.05426824.35022775-.14182797.50467577-.16883836.27220977-.4383035.46817259-.75085396.54604264-.29199876.07446036-.62571163-.1241006-.9177104-.19856096-.6662606-.23610857-1.39441638-.23610857-2.06067698 0-.51725495.23165445-.83428218.64532312-1.45999381.64532312-.28365594 0-.56731188-.04964024-.83428218 0s-.54228342.09928048-.83428218.14064734c-.27846261.07095507-.57307005.04466112-.83428218-.07446036-.25399525-.12010489-.3919481-.39713397-.33371287-.67014323.09533186-.21223561.26824105-.38074907.48388366-.47158228l2.39438986-1.38165335c.32030072-.16937272.61983954-.37480595.89268193-.61222963.20319707-.24311988.3846445-.50333647.54228341-.77769709.19133436-.20299205.4103716-.37843404.6507401-.52122252.40520732-.27613516.89547258-.40207442 1.38490842-.35575505.5005693.08273373.97611015.94316456 1.2263948 1.34855985.32555728.49526648.51797703 1.06487239.55896906 1.65467467.01602007.07365973.0271676.14827917.0333713.22338108z"/>
        <path fill="rgb(251,191,52)" fill-rule="evenodd" d="M58.36065162 42.7541557c.23359901.09928048 1.02616708-.39712192 1.01782426-.9928048-.09177104-4.33524763-.09177104-7.26402178-.32537005-8.82768934-.04175306-.28278046-.11448772-.56020043-.21691337-.82733733-.27644074-.66570522-.94320537-1.08888234-1.66856435-1.05899179-1.13462377.08273374-1.54342203.05791362-1.50170793 1.00107817.0750854 1.53057407 1.7186213 7.37157564 1.56010768 10.33344329-.01668564.82733733.6507401.1820142 1.13462376.3723018z"/>
        <path fill="rgb(251,191,52)" fill-rule="evenodd" d="M58.22716647 40.0239425l-.49222648.11582723c-.14357246.01844889-.2762515.08569812-.37542698.19028758-.03736744.06686442-.06277153.1396431-.0750854.2151077-.03330234.36327941-.03330234.72880588 0 1.09208529v.61222962c-.01165478.20155546-.04522059.40127385-.10011386.59568288-.15851361.50467577-.62571163.82733733-.83428218 1.34855985-.08849792.29487625-.12241648.60320811-.10011386.91007107-.00400137.16141365.0128206.32267246.05005693.47985565.10629399.31333621.28648847.59697825.52559777.82733733.22424978-.17096983.30027777-.47255026.18354208-.72805685-.04203363-.10257853-.06465847-.21195647-.06674257-.32266156 0-.11582722.1167995-.22338108.22525619-.19028758.03568512.01149278.06943138.02822545.10011386.04964024.43071572.29150011.69924154.76592575.7258255 1.28237286 0 .14064735-.06674258.29784144-.20022773.32266156s-.29199876-.1241006-.45051238-.13237397c-.15851361-.00827338-.30034158.23165445-.25028465.40539529.06923869.17124897.20430376.30816618.37542698.38057517.16691357.11083479.37528869.1412231.56731188.08273374.1167995-.05791362.20857055-.17374084.3420557-.17374084.13348514 0 .31702722.22338108.5005693.19856096s.2252562-.48812903.46719802-.57086276c.0555186.00468264.11133785.00468264.16685644 0 .16685644-.08273374.0750854-.38057518.21691337-.50467578s.13348514-.0579136.20022772-.09928048c.104366-.086799.16779677-.2126045.17519926-.34748168.11440798-.44080532.17601384-.89344912.18354208-1.34855985 0-1.28237286-.83428218-2.39927826-1.17633788-3.64855763-.04295587-.24768125-.11578287-.48934303-.21691336-.71978348-.10759237-.2338801-.3340351-.39201935-.59234035-.41366867l-.0750854.0910071z"/>
        <path fill="rgb(251,191,52)" fill-rule="evenodd" d="M52.7626182 23.93223138c0 .23165446.05005693.43021542.0750854.58740951.31146012 1.51291394.792781 2.98648277 1.43496535 4.39316123.48388366 1.1499989 1.3765656 4.40970799 1.96890594 5.51834001.28365594.52122252.18354208-.9928048.55062624-.52122252.37633973.37823526.96287917.45646981 1.42662252.19028759.47554084-.25647457.92605322.68668998.96776733.17374084-.0635593-1.69549373-.2813568-3.38183415-.6507401-5.03848436-.4588552-2.482012-1.01782426-4.96402399-1.66856436-7.44603599-.24157169-.88973934-.8462674-1.63931687-1.66856436-2.06834333-2.34433292-1.04244504-2.58627475 2.42409839-2.43610396 4.21114702z"/>
        <path fill="rgb(217,169,64)" fill-rule="evenodd" d="M57.15928528 63.58650972c-.0547378-.2484235-.13007948-.49193745-.22525618-.72805685-.09177104-.30611481-.18354208-.620503-.25862748-.93489118-.35735674-1.58154484-.58612844-3.18898283-.68411139-4.8068299L54.9400947 44.50811084c-.10011386-1.19136576.15851361-5.47697314-2.66970297-9.34063848-.34989072-1.34967142-.46277814-2.74901772-.33371288-4.13668666.17519926-1.76222852.23359901-3.30934933-.83428217-4.84819677-.76498909-1.0142439-1.80737154-1.78952288-3.00341585-2.2338108-.3086844-.11582723-.64239728-.2151077-.96776733-.3392083-.59740757-.17100228-1.13668202-.49988097-1.56010767-.95143794-.44086217-.68281516-.6646699-1.4812395-.64239728-2.2917244-.08342822-1.16654565-.49222648-2.77158007-.1918849-3.88848547-.08867565.02294309-.17520227.0533905-.25862748.0910071-.60279874.27022807-1.1214099.69594927-1.50170792 1.23273263-.19962719.46449411-.31540584.96015831-.34205569 1.46438708-.13728622.56565228-.32145448 1.1190922-.55062624 1.65467466-.25862747.61222963-.67576856 1.19963914-.8843391 1.8284155-.23273162.68065166-.30967972 1.40416043-.2252562 2.11798358.24743916 1.08241758.59370395 2.14025681 1.0345099 3.1604286.46925863 1.76262655.55739534 3.60372909.25862748 5.40251279-.09702593.50862557-.16388333 1.02245717-.20022772 1.53884744-1.23473763 3.18524873-3.02844431 6.37877083-3.7125557 9.72948703 1.07892463-.7359992 2.53019758-.6221063 3.47895669.27302132 1.0037944.98240786 1.69179435 2.23755953 1.97724876 3.60719077.3420557 1.34855985.5005693 2.73848657.94273886 4.0622263.44216956 1.32373973 1.15965223 2.56474573 1.66856436 3.88021209.50161065 1.29932352.78349408 2.67184987.83428218 4.0622263.05005693 1.91114924-.33371287 3.83884522 0 5.7086276.09177104.42194203.18354208.82733732.3086844 1.24927936.06674258.23992783.09177105.42194204.3420557.51294915.80597962.27231738 1.67223111.31813287 2.50284654.13237397.98853313-.35545235 1.87381254-.94640798 2.57793193-1.72086165.03906113-.04535738.0916501-.07722756.1501708-.0910071.05774129-.01229899.11745796-.01229899.17519925 0 .61815734.09001618 1.24840315-.04202595 1.77702104-.3723018.3420557-.17374084.67576857-.35575506 1.00948144-.54604264.20042924-.10432731.3856603-.23513624.55062624-.38884855.35477003-.41071525.53694742-.9408513.50891212-1.48093383z"/>
        <path fill="rgb(244,167,23)" fill-rule="evenodd" d="M45.9882469 30.29445547c9.06030447 5.79136133 6.15700249 17.50645795 7.0830557 26.71472246.3901516 3.03036339 1.23370623 5.98611188 2.50284654 8.76977573l.55896906-.30611482c.20042925-.1043273.38566031-.23513624.55062624-.38884854.34687387-.41990532.51719275-.95624035.47554084-1.49748058-.0547378-.2484235-.13007948-.49193745-.22525618-.72805685-.09177104-.30611481-.18354208-.620503-.25862748-.93489118-.35735674-1.58154484-.58612844-3.18898283-.68411139-4.8068299L54.9400947 44.50811084c-.10011386-1.19136576.15851361-5.47697314-2.66970297-9.34063848-.34989072-1.34967142-.46277814-2.74901772-.33371288-4.13668666.10200661-.7956855.12157528-1.5996388.05839976-2.39927827-.12347502.56405833-.35270678 1.1000929-.67576857 1.5802143-1.0345099 1.58021431-3.58741337.89352433-5.33106312.08273374z"/>
        <path fill="rgb(248,185,38)" fill-rule="evenodd" d="M55.54077786 65.78722703l-.45051238.23992782c-.4454609.25481431-.94623314.3995388-1.45999381.42194204-.10761503-.00035653-.21453675-.01709837-.31702723-.04964024-.0577413-.01229898-.11745796-.01229898-.17519926 0-.04941609.02254183-.09456605.05332404-.13348515.09100711-.72291066.78352057-1.63210214 1.37512183-2.6446745 1.72086165-.83061543.1857589-1.69686693.1399434-2.50284654-.13237397-.25028465-.0910071-.27531312-.27302132-.3420557-.51294915-.12514232-.41366866-.21691336-.82733733-.3086844-1.24927937-.36708416-1.86978237 0-3.79747835 0-5.7086276-.0507881-1.39037642-.33267153-2.76290277-.83428218-4.0622263-.5005693-1.31546635-1.21805198-2.54819898-1.66856436-3.88021208-.45051237-1.3320131-.59234034-2.73848657-.89268193-4.08704642-.2691518-1.37371948-.94267063-2.63757062-1.93553465-3.6320109-.9487591-.89512761-2.40003207-1.00902051-3.47895669-.27302131.68411139-3.30934933 2.50284654-6.53596493 3.7125557-9.72948703.03634439-.51639027.10320178-1.03022187.20022772-1.53884744 0-.1241006 0-.2482012.0417141-.36402843.09872801-.8456433.13497687-1.69731324.1084567-2.54819898 0-.3392083 0-.67841661-.08342823-1.01762492 0-.16546747-.05005693-.33093493-.08342821-.48812903-.05993163-.33284546-.14073572-.66166072-.24194184-.98453142-.4371045-1.02154703-.78326048-2.07905387-1.0345099-3.16042861-.09164947-.69720919-.02901622-1.4058492.18354208-2.0766167.20857055-.62877638.62571164-1.21618588.88433911-1.8284155.22917176-.53558247.41334002-1.0890224.55062624-1.65467467.0247002-.50983478.14051742-1.01126668.3420557-1.48093383.09922795-.13955441.2079368-.27223617.32537004-.39712192-.00292894-.013636-.00292894-.02773087 0-.04136686.16057175-.14088363.33059978-.2707983.50891213-.38884855.19946827-.1474597.41493966-.2723363.64239728-.3723018.08164599-.04376894.16854402-.07712688.25862748-.09928048-.30034159 1.1169054.10845668 2.72193982.1918849 3.88848546-.02227262.81048491.2015351 1.60890925.64239727 2.29172441.43947584.44354992.99370157.7584319 1.60182179.91007107.31702723.1241006.6507401.22338108.9594245.3392083 1.19604431.44428793 2.23842677 1.21956691 3.00341585 2.2338108.52948386.72899134.8495431 1.58681554.92605322 2.482012-.1382107.5612134-.38160006 1.09165136-.71748268 1.56366756-1.05119554 1.60503442-3.60409901.91834444-5.34774876.11582722 9.06030446 5.79136133 6.15700248 17.49818458 7.0830557 26.7064491.38646446 3.02385192 1.2243537 5.97387677 2.48616089 8.75322897z"/>
        <path fill="rgb(244,167,23)" fill-rule="evenodd" d="M49.86765904 38.48509506c-.79256807 1.56366756-3.1035297 1.01762492-4.41335273.52122252-1.56010767-.5874095-2.16079084-1.9856096-3.02010148-3.30934933h-.05839976c.39434962.83331002.8752735 1.62355622 1.43496535 2.3579114.51697883.59856181 1.19806034 1.03542402 1.96056312 1.25755274 1.36822278.42194204 3.47895669.82733734 4.27986758-.7115101.06674257-.11582723-.1167995-.2151077-.18354208-.11582723z"/>
        <path fill="rgb(244,167,23)" fill-rule="evenodd" d="M43.91088428 34.27394804c-.59299212-.75947668-.98065862-1.65650202-1.12628094-2.6061126-.01421851-.75193034-.16689774-1.49495243-.45051237-2.19244393 0-.16546747-.05005694-.33093493-.08342822-.48812903.35240839.31967561.57740177.75417335.63405445 1.22445926.02918811.70457202.10443147 1.4065246.2252562 2.10143682.2335786.66062677.51231943 1.30468655.83428217 1.92769599l-.03337129.03309349z"/>
        <path fill="rgb(244,167,23)" fill-rule="evenodd" d="M43.85248453 35.84588897c-.6879067-.72528701-1.19380256-1.6011093-1.47667946-2.55647236 0-.08273373-.05005693-.16546746-.06674257-.2482012.098728-.8456433.13497686-1.69731324.10845668-2.54819898.15851362.82733733-.05005693 1.77877526.17519926 2.63920609.35051339.92558967.80678023 1.80832006 1.35987995 2.63093272.03337129.06618698-.05005693.13237397-.10011386.08273373z"/>
        <path fill="rgb(244,167,23)" fill-rule="evenodd" d="M53.63027167 66.44082352c-.10761503-.00035653-.21453675-.01709837-.31702723-.04964024-.0577413-.01229898-.11745796-.01229898-.17519926 0-.02077845-.37286664-.07098908-.74354529-.15017079-1.10863202-.16314536-.7779281-.380582-1.54367904-.6507401-2.29172441-.5005693-1.43956696-1.09290965-2.84604043-1.66856436-4.27733401-1.05119554-2.75503332-1.51005074-5.584527-.39211262-8.4057473.0417141-.10755385.21691337-.05791361.17519926.04964024-.55784568 1.5467456-.7351816 3.20323061-.51725495 4.83165002.27706048 1.461786.73375918 2.8843827 1.35987995 4.23596714.65303582 1.4315048 1.23221983 2.89502512 1.73530693 4.38488786.31999556.84579248.52208826 1.73093847.60068317 2.63093272z"/>
        <path fill="rgb(244,167,23)" fill-rule="evenodd" d="M44.08605957 46.0883789c1.01782227 2.43237305 1.00115967 5.24523926 2.36102295 7.5452881.00415039.00830077-.00006104.01660155-.00463867.02575683-1.11431885-1.77697754-1.48114014-3.78466797-2.03100586-5.78405762-.25390625-1.03442383-.67059326-2.02282715-1.23474121-2.92871094-.55895996-.86047363-1.74365235-2.3083496-2.90332032-1.7705078-.05004882.01647948-.05004882-.0579834-.05004882-.0579834.78424072-.61218262 1.543396-.09094239 2.19415283.48815917.72644043.70141602 1.29504394 1.54736328 1.6685791 2.48205567zm2.35644531 7.57104493c-.0020752.0045166-.00231933.00732422.00457764.00732422l-.00457764-.00732422z"/>
        <path fill="rgb(244,167,23)" fill-rule="evenodd" d="M47.14789914 53.55090788c-.12537314-1.59071776-.05815173-3.19060185.20022772-4.76546303.22525619-1.57194093.6507401-3.102515.87599629-4.66618256.15851361-1.1169054.25028465-2.482012-.609026-3.30934933 0 0-.08342821 0-.05839974.05791362 1.00948143 1.241006.4254839 3.30934933.1167995 4.73236954-.34146736 1.43486796-.60051166 2.88780397-.77588243 4.35179437-.27531312 2.68057295-.17519925 5.79136132 1.3014802 8.14099935 0 .05791361.13348515 0 .10845669-.04136687-.60269067-1.43716321-.99326028-2.95299914-1.15965223-4.50071509z"/>
        <path fill="rgb(244,167,23)" fill-rule="evenodd" d="M46.53887315 42.45631426c-1.02247502-.74366312-1.92299129-1.63947387-2.66970298-2.65575284-.73940513-1.02035192-1.27466626-2.1718346-1.57679331-3.39208306h-.06674258c.1044871.653248.277856 1.29380992.51725495 1.91114923.2969007.65118897.67530399 1.26271292 1.12628094 1.82014214.62540334 1.04059198 1.5409726 1.87958167 2.63633169 2.415825.05005693.00827338.0750854-.07446035.03337129-.09928047z"/>
        <path fill="rgb(190,147,53)" fill-rule="evenodd" d="M43.47705755 20.62288205c.02282594.09786676.05067153.19451505.08342822.28956807 0 0 0-.14064735-.0750854-.29784144 0 0-.00834282 0-.00834282.00827337z"/>
        <path fill="rgb(244,167,23)" fill-rule="evenodd" d="M44.21956869 22.3437437c-.2859295-.44428193-.507774-.92604924-.65908292-1.43129358.13373095.51160264.35679612.9960208.65908292 1.43129359z"/>
        <path fill="rgb(244,167,23)" fill-rule="evenodd" d="M50.85211201 27.00992626c-.32616105-.56354842-.80239817-1.02723441-1.3765656-1.34028648-.75085395-.41366866-1.61850742-.51294914-2.3777042-.93489118-1.13415236-.56376087-2.1197783-1.38252824-2.87827352-2.3910049.5338715.80252052 1.22639147 1.48927572 2.03564852 2.0187031.72240244.476319 1.50876704.84951791 2.3359901 1.10863202.86809804.31746106 1.6304847.86730855 2.20250495 1.58848768.57202025.72117913.08342822-.00827337.05839975-.04964024z"/>
        <path fill="rgb(244,167,23)" fill-rule="evenodd" d="M45.17065037 22.93942659c-.69605372-.76541118-1.1386561-1.72410052-1.2681089-2.74675995-.13263273-1.06752782-.16335935-2.14508758-.09177105-3.21834222 0 1.00935154.05839975 2.03524984.20022772 3.04460138.07040485.57481206.23675118 1.13400393.49222649 1.65467467.21691337.43021541.52559777.82733733.75919678 1.22445925.02502847.02482012-.05005693.08273373-.09177104.04136687z"/>
        <path fill="rgb(244,167,23)" fill-rule="evenodd" d="M44.01098633 24.9498291c-.8791504-.92663574-1.3659668-2.15283203-1.35986328-3.4251709-.00048828-.69213867.04968261-1.38342285.15020752-2.06835937.1074829-.69702149.41986084-1.3696289.49847412-2.07421875-.02026367.5159912-.10931397 1.02697754-.26489258 1.51989746-.152771.69091797-.23937988 1.39453125-.25860596 2.10144043-.08026123.69421387-.02069092 1.3972168.1751709 2.06835937.31402588.62976075.67956543 1.23303223 1.0928955 1.80358887.06677247.0579834 0 .11584473-.03338622.0744629zm-.71118164-7.5678711l.00091552-.0250244.00115967.00622558-.0020752.01879883z"/>
        <path fill="rgb(251,191,52)" fill-rule="evenodd" d="M24.121711 13.78080232c.22212834.29162781.531723.50596078.8843391.61222962.41448258.03609304.80991714-.17958551 1.00113862-.54604264.18161636-.35888943.2704867-.75689843.25862748-1.15827226.04842915-.33171065-.02564245-.66960367-.20857055-.95143793-.20022772-.2482012-.52559777-.36402843-.7258255-.61222963-.16277292-.24794462-.26029519-.53238715-.28365593-.82733733-.06748853-.36315182-.17376288-.71814866-.31702723-1.05899179-.07560983-.24221887-.22769127-.45394057-.43382673-.60395625-.19177482-.10324156-.40757574-.15460265-.62571164-.14892072-.55731194-.02719186-1.11596778-.00226162-1.66856436.07446036-.29199876 0-.52559777.41366866-.64239727.6535965-.13322788.28512721-.20158534.59582416-.20022773.91007106v.05791361c.02476134.44969509.11756996.89314152.27531312 1.31546636.06674258.18201421.0750854.32266156.25862748.39712192.18224065.08338023.35793089.18017342.52559777.28956806.69350703.45841402 1.33172885.99416597 1.90216337 1.59676106z"/>
        <path fill="rgb(238,152,21)" fill-rule="evenodd" d="M29.15243254 35.29984633c0 1.59676105 1.66856436 2.75503332 3.67084159 2.75503332 2.00227722 0 3.65415594-1.15827227 3.67084158-2.75503332v-.36402843h-7.34168317v.36402843z"/>
        <g>
          <path fill="rgb(248,185,38)" fill-rule="evenodd" d="M35.40954888 33.52107107c1.43496535.82733733 1.44330817 2.15935043 0 2.98668777-1.63100721.81965766-3.55822794.81965766-5.18923515 0-1.42662253-.84388408-1.42662253-2.15935044 0-2.98668777 1.63100721-.81965767 3.55822794-.81965767 5.18923515 0z"/>
          <path fill="rgb(238,152,21)" fill-rule="evenodd" d="M36.16874566 35.53150078c-.20416939.35769937-.51236533.64602995-.8843391.82733734-1.54399058.77817776-3.36993147.77817776-4.91392204 0-.38259543-.19560483-.69666174-.50128912-.90102475-.87697758-.31702723-.66186986 0-1.39820009.8843391-1.91114923 1.54399058-.77817776 3.36993147-.77817776 4.91392204 0 .92605322.554316 1.2263948 1.2989196.90102475 1.96078947z"/>
          <path fill="rgb(244,167,23)" fill-rule="evenodd" d="M36.16874566 35.53150078c-.20416939.35769937-.51236533.64602995-.8843391.82733734-1.54399058.77817776-3.36993147.77817776-4.91392204 0-.38259543-.19560483-.69666174-.50128912-.90102475-.87697758.2084857-.3543216.51551444-.64156023.8843391-.82733733 1.5462192-.76889601 3.36770285-.76889601 4.91392204 0 .38613495.19071456.70152604.49768827.90102475.87697757z"/>
        </g>
        <rect width="13.432" height=".108" x="24.875" y="29.842" fill="rgb(251,191,52)" rx="0" ry="0" transform="rotate(-79.120028 31.5910453 29.89565688)"/>
        <rect width=".108" height="13.064" x="34.007" y="23.486" fill="rgb(251,191,52)" rx="0" ry="0" transform="rotate(-10.750004 34.06171917 30.01772034)"/>
        <rect width="10.679" height=".108" x="26.263" y="28.255" fill="rgb(251,191,52)" rx="0" ry="0" transform="rotate(-76.820027 31.60281166 28.30865017)"/>
        <rect width=".108" height="10.54" x="33.985" y="23.044" fill="rgb(251,191,52)" rx="0" ry="0" transform="rotate(-13.180005 34.03897959 28.31381325)"/>
        <g>
          <g>
            <path fill="rgb(248,185,38)" fill-rule="evenodd" d="M30.50396967 33.21495625l.09177104.04964024c-.05789272-.02813008-.12564936-.02813008-.18354208 0l-.08342822-.04964024c.05370223-.03285031.12149703-.03285031.17519926 0z"/>
            <g>
              <use fill="none" xlink:href="#path-93"/>
              <g mask="url(#mask-94)">
                <path fill="rgb(248,185,38)" fill-rule="evenodd" d="M30.41219863 33.28114324l-.08342822-.04964024h.0750854l.09177104.04964024h-.08342822z"/>
                <path fill="rgb(248,185,38)" fill-rule="evenodd" d="M30.46225556 33.25632312l-.09177104-.04964024c.03226179-.01206838.06785207-.01206838.10011386 0l.08342822.04964024c-.0293091-.01241675-.06246194-.01241675-.09177104 0z"/>
                <path fill="rgb(248,185,38)" fill-rule="evenodd" d="M30.58739789 33.2645965l-.08342822-.04964025.09177104.04964024h-.00834282z"/>
              </g>
            </g>
          </g>
          <g>
            <path fill="rgb(248,185,38)" fill-rule="evenodd" d="M30.16191397 33.68653853l-.09177104-.04964024c.0230672-.16585119.1173816-.31368782.25862748-.40539529l.08342822.04964024c-.13729883.09412631-.22817961.24132926-.25028466.4053953z"/>
            <g>
              <use fill="none" xlink:href="#path-99"/>
              <g mask="url(#mask-100)">
                <path fill="rgb(248,185,38)" fill-rule="evenodd" d="M30.16191397 33.68653853l-.09177104-.04964024c.00904191-.05449696.02589827-.1074311.05005694-.15719409l.08342821.04964024c-.02161826.05008066-.03567404.10304803-.0417141.1571941z"/>
                <path fill="rgb(248,185,38)" fill-rule="evenodd" d="M30.20362808 33.52107107l-.08342821-.04964024c.0196545-.05119251.04785789-.09873916.08342821-.14064735l.08342822.04964024c-.032415.04404166-.06036028.09115319-.08342822.14064735z"/>
                <path fill="rgb(248,185,38)" fill-rule="evenodd" d="M30.2870563 33.3886971l-.08342822-.04964025c.03351733-.04427727.07618279-.0809462.12514233-.10755385l.08342822.04964024-.12514233.10755385z"/>
              </g>
            </g>
          </g>
          <path fill="rgb(244,167,23)" fill-rule="evenodd" d="M30.41219863 33.28114324c.13348515-.07446036.24194183 0 .25862747.11582723l-.50891213.28956806c.02210505-.16406603.11298583-.31126898.25028466-.40539529z"/>
        </g>
        <g>
          <g>
            <path fill="rgb(248,185,38)" fill-rule="evenodd" d="M30.15307617 36.23876953l.08392334-.04541015c.05371094-.03283692.121521-.03283692.17523194 0l-.08343506.04968261c-.05419922-.03100586-.12042237-.0324707-.17572022-.00427246z"/>
            <g>
              <use fill="none" xlink:href="#path-106"/>
              <g mask="url(#mask-107)">
                <path fill="rgb(248,185,38)" fill-rule="evenodd" d="M30.32877041 36.25955764l.08342822-.04964024h-.0750854l-.09177104.05791361c.02731051-.00738754.0561177-.00738754.08342822 0v-.00827337z"/>
                <path fill="rgb(248,185,38)" fill-rule="evenodd" d="M30.2453422 36.23473752l.09177103-.05791362c-.03226179-.01206838-.06785207-.01206838-.10011386 0l-.08342822.04964024c.0293091-.01241675.06246194-.01241675.09177104 0v.00827338z"/>
                <path fill="rgb(248,185,38)" fill-rule="evenodd" d="M30.15357115 36.24301089l.08342822-.04964024-.09177104.04964024h.00834282z"/>
              </g>
            </g>
          </g>
          <g>
            <path fill="rgb(248,185,38)" fill-rule="evenodd" d="M30.57905506 36.66495293l.09177104-.04964024c-.02088172-.16663548-.11573087-.31531032-.25862747-.4053953l-.08342822.04964025c.13889119.09262284.23025396.2406065.25028465.40539529z"/>
            <g>
              <use fill="none" xlink:href="#path-112"/>
              <g mask="url(#mask-113)">
                <path fill="rgb(248,185,38)" fill-rule="evenodd" d="M30.57905506 36.66495293l.09177104-.04964024c-.0090419-.05449697-.02589826-.1074311-.05005693-.1571941l-.08342822.04964025c.02161827.05008066.03567405.10304803.04171411.15719409z"/>
                <path fill="rgb(248,185,38)" fill-rule="evenodd" d="M30.53734095 36.50775884l.08342822-.04964024c-.0196545-.05119251-.0478579-.09873916-.08342822-.14064735l-.08342821.04964024c.032415.04404166.06036028.09115319.08342821.14064735z"/>
                <path fill="rgb(248,185,38)" fill-rule="evenodd" d="M30.46225556 36.36711149l.08342822-.04964024c-.03351733-.04427727-.07618279-.0809462-.12514233-.10755385l-.08342822.04964024c.04571516.0309994.08770247.0670855.12514233.10755385z"/>
              </g>
            </g>
          </g>
          <path fill="rgb(244,167,23)" fill-rule="evenodd" d="M30.32877041 36.25955764c-.13348515-.07446036-.24194183 0-.25862748.11582722l.50891213.28956807c-.02003069-.1647888-.11139346-.31277245-.25028465-.4053953z"/>
        </g>
        <g>
          <g>
            <path fill="rgb(248,185,38)" fill-rule="evenodd" d="M35.12589294 33.21495625l-.09177104.04964024c.05789272-.02813008.12564936-.02813008.18354208 0l.08342822-.04964024c-.05370223-.03285031-.12149703-.03285031-.17519926 0z"/>
            <g>
              <use fill="none" xlink:href="#path-119"/>
              <g mask="url(#mask-120)">
                <path fill="rgb(248,185,38)" fill-rule="evenodd" d="M35.21766398 33.28114324l.08342822-.04964024h-.0750854l-.09177104.04964024h.08342822z"/>
                <path fill="rgb(248,185,38)" fill-rule="evenodd" d="M35.13423576 33.25632312l.09177104-.04964024c-.03226179-.01206838-.06785207-.01206838-.10011386 0l-.08342822.04964024c.0293091-.01241675.06246194-.01241675.09177104 0z"/>
                <path fill="rgb(248,185,38)" fill-rule="evenodd" d="M35.04246472 33.2645965l.08342822-.04964025-.09177104.04964024h.00834282z"/>
              </g>
            </g>
          </g>
          <g>
            <path fill="rgb(248,185,38)" fill-rule="evenodd" d="M35.46794863 33.68653853l.09177104-.04964024c-.0230672-.16585119-.1173816-.31368782-.25862747-.40539529l-.08342822.04964024c.13729883.09412631.2281796.24132926.25028465.4053953z"/>
            <g>
              <use fill="none" xlink:href="#path-125"/>
              <g mask="url(#mask-126)">
                <path fill="rgb(248,185,38)" fill-rule="evenodd" d="M35.50964355 33.47973633c.02416993.04980469.04101563.10266113.05010987.15722656l-.05175781.0279541c-.00671387-.04943847-.02020264-.09790039-.04003907-.14379883l.04168701-.04138183zm-.00164794.18518066l-.04003907.02172852.04168701-.00830078-.00164794-.01342774z"/>
                <path fill="rgb(248,185,38)" fill-rule="evenodd" d="M35.46794863 33.52107107l.08342822-.04964024c-.0196545-.05119251-.0478579-.09873916-.08342822-.14064735l-.08342822.04964024c.032415.04404166.0603603.09115319.08342822.14064735z"/>
                <path fill="rgb(248,185,38)" fill-rule="evenodd" d="M35.3428063 33.3886971l.08342822-.04964025c-.03351732-.04427727-.07618278-.0809462-.12514232-.10755385l-.08342822.04964024.12514233.10755385z"/>
              </g>
            </g>
          </g>
          <path fill="rgb(244,167,23)" fill-rule="evenodd" d="M35.21766398 33.28114324c-.13348515-.07446036-.24194183 0-.25862748.11582723l.50891213.28956806c-.02210504-.16406603-.11298582-.31126898-.25028465-.40539529z"/>
        </g>
        <g>
          <g>
            <path fill="rgb(248,185,38)" fill-rule="evenodd" d="M35.47680664 36.23876953l-.08398437-.04541015c-.0536499-.03283692-.12145997-.03283692-.1751709 0l.08343506.04968261c.05419921-.03100586.12042236-.0324707.17572021-.00427246z"/>
            <g>
              <use fill="none" xlink:href="#path-132"/>
              <g mask="url(#mask-133)">
                <path fill="rgb(248,185,38)" fill-rule="evenodd" d="M35.3010922 36.25955764l-.08342822-.04964024h.0750854l.09177103.05791361c-.0273105-.00738754-.0561177-.00738754-.08342821 0v-.00827337z"/>
                <path fill="rgb(248,185,38)" fill-rule="evenodd" d="M35.38452041 36.23473752l-.09177104-.05791362c.0322618-.01206838.06785208-.01206838.10011387 0l.08342821.04964024c-.0293091-.01241675-.06246193-.01241675-.09177104 0v.00827338z"/>
                <path fill="rgb(248,185,38)" fill-rule="evenodd" d="M35.47629145 36.24301089l-.08342821-.04964024.09177104.04964024h-.00834283z"/>
              </g>
            </g>
          </g>
          <g>
            <path fill="rgb(248,185,38)" fill-rule="evenodd" d="M35.05080754 36.66495293l-.09177104-.04964024c.02088173-.16663548.11573088-.31531032.25862748-.4053953l.08342822.04964025c-.1388912.09262284-.23025396.2406065-.25028466.40539529z"/>
            <g>
              <use fill="none" xlink:href="#path-138"/>
              <g mask="url(#mask-139)">
                <path fill="rgb(248,185,38)" fill-rule="evenodd" d="M35.05080754 36.66495293l-.09177104-.04964024c.00904191-.05449697.02589827-.1074311.05005693-.1571941l.08342822.04964025c-.0254102.0487116-.03965436.10238879-.0417141.15719409z"/>
                <path fill="rgb(248,185,38)" fill-rule="evenodd" d="M35.09252165 36.50775884l-.08342822-.04964024c.0196545-.05119251.0478579-.09873916.08342822-.14064735l.08342822.04964024c-.032415.04404166-.06036029.09115319-.08342822.14064735z"/>
                <path fill="rgb(248,185,38)" fill-rule="evenodd" d="M35.17594987 36.36711149l-.08342822-.04964024c.03351733-.04427727.07618279-.0809462.12514233-.10755385l.08342822.04964024c-.04571516.0309994-.08770247.0670855-.12514233.10755385z"/>
              </g>
            </g>
          </g>
          <path fill="rgb(244,167,23)" fill-rule="evenodd" d="M35.3010922 36.25955764c.13348515-.07446036.24194183 0 .25862747.11582722l-.50891213.28956807c.0200307-.1647888.11139347-.31277245.25028466-.4053953z"/>
        </g>
        <g>
          <path fill="rgb(248,185,38)" fill-rule="evenodd" d="M12.42504883 11.55529785l-.3170166.19030762c-.04187012.03845215-.065979.09228516-.06677246.14892578-.0057373.01879883-.01800538.0349121-.03448487.04553223l.30981446-.17797852c.00512695-.01611328.00512695-.03344726 0-.04956055.01361084-.06469726.05267334-.12121582.10845947-.15722656z"/>
          <g>
            <use fill="none" xlink:href="#path-145"/>
            <g mask="url(#mask-146)">
              <path fill="rgb(248,185,38)" fill-rule="evenodd" d="M12.10804762 11.74555248l.31702723-.19028759-.05839975.04964024-.25862748.18201421c-.00194061-.0137218-.00194061-.02764505 0-.04136686z"/>
              <path fill="rgb(248,185,38)" fill-rule="evenodd" d="M12.10804762 11.78691934l.31702723-.1820142c-.02152276.02746197-.03842651.05819422-.05005693.0910071l-.31702723.18201421.05005693-.0910071z"/>
              <path fill="rgb(248,185,38)" fill-rule="evenodd" d="M12.03296223 11.87792645l.31702722-.18201421-.3086844.18201421h-.00834282z"/>
              <path fill="rgb(248,185,38)" fill-rule="evenodd" d="M12.03296223 11.90274657l.3086844-.18201421-.31702723.18201421h.00834283z"/>
              <path fill="rgb(248,185,38)" fill-rule="evenodd" d="M12.01627658 11.9275667l.31702723-.18201422-.31702723.18201421z"/>
            </g>
          </g>
          <path fill="rgb(248,185,38)" fill-rule="evenodd" d="M11.94119119 11.40634417l.31702722-.18201421c.16016992-.07803727.35117696-.05877452.49222649.04964024l-.31702723.18201421c-.14104953-.10841476-.33205657-.1276775-.49222648-.04964024z"/>
          <g>
            <use fill="none" xlink:href="#path-153"/>
            <g mask="url(#mask-154)">
              <path fill="rgb(248,185,38)" fill-rule="evenodd" d="M11.94119119 11.40634417l.31702722-.18201421c.16016992-.07803727.35117696-.05877452.49222649.04964024l-.31702723.18201421c-.14104953-.10841476-.33205657-.1276775-.49222648-.04964024z"/>
            </g>
          </g>
          <path fill="rgb(248,185,38)" fill-rule="evenodd" d="M12.43341767 11.45598441l.31702723-.18201421c.279642.1717785.4938566.43077021.609026.73633022l-.31702724.18201422c-.11516938-.30556001-.32938399-.56455173-.60902599-.73633023z"/>
          <g>
            <use fill="none" xlink:href="#path-157"/>
            <g mask="url(#mask-158)">
              <path fill="rgb(248,185,38)" fill-rule="evenodd" d="M12.43341767 11.45598441l.31702723-.18201421-.31702723.18201421z"/>
              <path fill="rgb(248,185,38)" fill-rule="evenodd" d="M12.46678896 11.47253116l.31702723-.18201421c.06231112.03878719.12095055.08309294.17519925.13237397l-.31702722.18201421c-.0542487-.04928103-.11288814-.09358678-.17519926-.13237397z"/>
              <path fill="rgb(248,185,38)" fill-rule="evenodd" d="M12.64198822 11.60490513l.30034158-.18201421c.05990556.05666629.11566542.11749156.16685644.18201421l-.31702723.18201421c-.05119101-.06452265-.10695088-.12534792-.16685644-.1820142h.01668565z"/>
              <path fill="rgb(248,185,38)" fill-rule="evenodd" d="M13.35949707 12.0102539c-.05523682-.1467285-.13415527-.2836914-.23364258-.4053955l-.30389404.17443848-.01312256-.01721192v.02478027l.01312256-.00744628c.09399414.12573242.16833496.26489257.22045898.4128418l.31707764-.18200684z"/>
            </g>
          </g>
          <path fill="rgb(248,185,38)" fill-rule="evenodd" d="M21.41029392 16.69302973l.31702723-.18201422v1.37337997l-.31702723.18201422v-1.37337997z"/>
          <path fill="rgb(248,185,38)" fill-rule="evenodd" d="M13.04244366 12.21713476l.31702723-.18201422 8.36785026 4.47589497-.31702723.18201422-8.36785026-4.47589497z"/>
          <path fill="rgb(238,152,21)" fill-rule="evenodd" d="M12.43341767 11.45598441c.2839963.17808311.49869735.44641284.609026.76115035l8.34282178 4.47589497v1.37337997l-8.34282179-5.17085833-.1918849-.11582723c-.05058497-.02762912-.07751711-.08438352-.06674257-.14064734.0093686-.0519862.0093686-.1052079 0-.1571941-.01678429-.28953425-.17171665-.55379962-.4171411-.7115101-.1918849-.10755385-.35874133-.05791361-.40045544.1241006-.00763725.02694347-.028493.0482313-.05543094.05657933-.02693794.00834803-.05630564.00262438-.0780542-.01521247-.09459388-.05795583-.14915947-.16299556-.14182798-.27302131.1501708-.29784144.4171411-.39712192.74251114-.20683434z"/>
        </g>
        <path fill="rgb(230,164,57)" fill-rule="evenodd" d="M23.2040006 16.30418118c.25862748.14892072.25862748.38884855 0 .5294959-.29047697.14868985-.63557624.14868985-.92605322 0-.11266105-.04011257-.18780421-.14604203-.18780421-.26474795 0-.11870593.07514316-.22463538.18780421-.26474795.29047698-.14868986.63557625-.14868986.92605322 0z"/>
        <g>
          <path fill="rgb(238,152,21)" fill-rule="evenodd" d="M24.53050927 19.56389027l-1.57679332.91007106c.13117627-.0864636.20958964-.2326536.20857054-.38884854l1.58513614-.91834444c-.00104105.15995234-.082384.30887384-.21691336.39712192z"/>
          <g>
            <use fill="none" xlink:href="#path-168"/>
            <g mask="url(#mask-169)">
              <path fill="rgb(238,152,21)" fill-rule="evenodd" d="M23.15394367 20.08511279l1.58513614-.91834444c.00473677.0218123.00473677.04437469 0 .06618699l-1.58513614.91007106c.00405122-.01909551.00405122-.0388181 0-.05791361z"/>
              <path fill="rgb(238,152,21)" fill-rule="evenodd" d="M23.14560085 20.1430264l1.58513614-.91007106c-.01030567.13547601-.08453637.25816397-.20022772.33093493l-1.57679332.91007106c.11569136-.07277096.18992205-.19545891.20022772-.33093493h-.00834282z"/>
            </g>
          </g>
          <path fill="rgb(248,185,38)" fill-rule="evenodd" d="M20.78458228 15.6754048l1.58513614-.91007106c.16600604-.07711084.36123758-.0580676.50891213.04964024l-1.59347896.91007107c-.14574476-.10453006-.3368378-.1234803-.5005693-.04964024z"/>
          <g>
            <use fill="none" xlink:href="#path-173"/>
            <g mask="url(#mask-174)">
              <path fill="rgb(255,198,65)" fill-rule="evenodd" d="M22.62835693 14.72399902c-.08843994-.01672363-.17999267-.0020752-.25866699.04138184l-1.47607422.8474121c-.03692627.00195313-.0736084.00903321-.10900879.02124024v.04138184l.1090088-.06262207c.05041503-.00256348.10125732.0045166.14959716.02124023l1.58514404-.91003418z"/>
              <path fill="rgb(255,198,65)" fill-rule="evenodd" d="M21.04320976 15.63403794l1.58513614-.91007107c.06425567.0079281.12648097.02756225.18354208.05791362l-1.58513614.91007106c-.0570611-.03035137-.11928641-.04998551-.18354208-.05791361z"/>
              <path fill="rgb(255,198,65)" fill-rule="evenodd" d="M21.22675184 15.69195155l1.58513614-.91007106c.02202048-.0044575.04472209-.0044575.06674257 0l-1.59347896.94316456h-.06674257l.00834282-.0330935z"/>
            </g>
          </g>
          <path fill="rgb(238,152,21)" fill-rule="evenodd" d="M23.33748575 17.77684163l1.57679332-.91007106-.17519926 2.29999778-1.58513614.91834444.18354208-2.30827116z"/>
          <path fill="rgb(255,198,65)" fill-rule="evenodd" d="M21.29349441 15.72504505l1.58513614-.91007107 1.32650867.75287697-1.58513614.91834444-1.32650867-.76115034z"/>
          <path fill="rgb(244,167,23)" fill-rule="evenodd" d="M22.62000308 16.4861954l1.58513614-.91007107c.44284322.28215364.71015263.76866117.70913985 1.29064624l-1.57679332.93489118c.00306023-.5312219-.26748607-1.02725418-.71748267-1.31546636z"/>
          <g>
            <use fill="none" xlink:href="#path-181"/>
            <g mask="url(#mask-182)">
              <path fill="rgb(255,198,65)" fill-rule="evenodd" d="M22.62000308 16.4861954l1.58513614-.91007107c.0453868.02167963.0875059.0495253.12514232.08273373l-1.58513614.91007107-.12514232-.08273374z"/>
              <path fill="rgb(248,185,38)" fill-rule="evenodd" d="M22.7451454 16.56892913l1.58513614-.91007107c.26140379.21466777.4505787.50328339.54228342.82733733l-1.58513614.91007107c-.09170472-.32405395-.28087963-.61266957-.54228342-.82733733z"/>
              <path fill="rgb(244,167,23)" fill-rule="evenodd" d="M23.28742882 17.39626646l1.58513614-.91007107c.02593007.07460687.04000292.15275879.0417141.23165446l-1.58513613.91007106c-.00270338-.07879472-.01675014-.15680174-.04171411-.23165445z"/>
              <path fill="rgb(244,167,23)" fill-rule="evenodd" d="M23.32914293 17.62792091l1.58513614-.91007106c.00840158.04929064.00840158.09963007 0 .14892072l-1.57679332.93489118c.00414021-.04955534.00414021-.09936538 0-.14892072l-.00834282-.02482012z"/>
            </g>
          </g>
          <path fill="rgb(244,167,23)" fill-rule="evenodd" d="M22.62000308 16.4861954c.4499966.28821217.7205429.78424444.71748267 1.31546635l-.18354208 2.30827116c0 .4053953-.3420557.55431601-.71748267.3392083l-.97611015-.56258938c-.40121666-.26081745-.66426161-.68546558-.71748268-1.15827227l-.16685643-2.482012c0-.4964024.30034158-.71978347.71748267-.47985565l1.32650867.71978348z"/>
          <path fill="rgb(244,167,23)" fill-rule="evenodd" d="M21.2851516 15.72504505c-.4171411-.23992783-.75085397 0-.71748268.47985565l.0750854 1.05899179 1.21805197-1.20791251-.5756547-.33093493z"/>
          <path fill="rgb(251,191,52)" fill-rule="evenodd" d="M21.86914912 16.05597998l-1.21805199 1.2079125.05005694.80251722 1.71862128-1.69604153-.55062623-.31438819z"/>
          <path fill="rgb(238,152,21)" fill-rule="evenodd" d="M23.33748575 17.80166175c.00755388-.24326637-.05309482-.48384174-.17519926-.69496336l-2.22753341 2.21726405c.1181533.23295858.30037335.42800328.52559777.56258939l.35874134.20683433 1.45165099-1.46438708.06674257-.82733733z"/>
        </g>
        <g>
          <path fill="rgb(248,185,38)" fill-rule="evenodd" d="M23.75462684 17.95885584l.31702723-.1820142 8.35950743 5.09639796-.31702723.18201421-8.35950743-5.09639797z"/>
          <path fill="rgb(248,185,38)" fill-rule="evenodd" d="M32.4311615 23.28690826l.31702723-.1820142c-.08832068.05812878-.13658841.16024277-.12514233.26474794-.00759076.06043791-.00759076.1215763 0 .18201421.0182218.02153116.0182218.0529292 0 .07446036l-.31702723.18201421v-.07446036c-.00759075-.06043791-.00759075-.1215763 0-.1820142-.01144608-.10450517.03682165-.20661917.12514233-.26474796z"/>
          <g>
            <use fill="none" xlink:href="#path-193"/>
            <g mask="url(#mask-194)">
              <path fill="rgb(248,185,38)" fill-rule="evenodd" d="M32.71038818 23.12658691l-.27923584.16027832c-.02496338.00891114-.04571533.02661133-.05841064.04968262l.3170166-.19030762c.00628662-.00720214.0131836-.01379394.02062988-.01965332z"/>
              <path fill="rgb(248,185,38)" fill-rule="evenodd" d="M32.37276175 23.3365485l.31702723-.19028758c-.01883944.02786403-.03293202.05860961-.04171411.0910071l-.31702723.18201422c.00683107-.03056057.02115907-.05897803.0417141-.08273374z"/>
              <path fill="rgb(248,185,38)" fill-rule="evenodd" d="M32.33104764 23.41928224l.31702723-.18201422c-.00471982.03569852-.00471982.07185534 0 .10755386l-.31702723.19028758c-.00559055-.03841005-.00559055-.07741717 0-.11582722z"/>
              <path fill="rgb(248,185,38)" fill-rule="evenodd" d="M32.30601917 23.53510946l.31702723-.19028758c-.00759076.06043791-.00759076.1215763 0 .18201421l-.31702723.18201421c-.00759075-.06043791-.00759075-.1215763 0-.1820142v.00827336z"/>
              <path fill="rgb(248,185,38)" fill-rule="evenodd" d="M32.33939046 23.76676392l.31702723-.18201422-.31702723.18201422z"/>
              <path fill="rgb(248,185,38)" fill-rule="evenodd" d="M32.33939046 23.78331066l.31702723-.1820142-.31702723.1820142z"/>
              <path fill="rgb(248,185,38)" fill-rule="evenodd" d="M32.33104764 23.79985741l.31702723-.18201421-.31702723.18201421z"/>
            </g>
          </g>
          <path fill="rgb(248,185,38)" fill-rule="evenodd" d="M32.23093378 22.94769996l.31702723-.18201421c.16309861-.07752681.35618107-.0583793.5005693.04964024l-.31702722.1820142c-.146368-.10289074-.33655426-.12175105-.50056931-.04964023z"/>
          <g>
            <use fill="none" xlink:href="#path-203"/>
            <g mask="url(#mask-204)">
              <path fill="rgb(248,185,38)" fill-rule="evenodd" d="M32.23093378 22.94769996l.31702723-.18201421c.16309861-.07752681.35618107-.0583793.5005693.04964024l-.31702722.1820142c-.146368-.10289074-.33655426-.12175105-.50056931-.04964023z"/>
            </g>
          </g>
          <path fill="rgb(248,185,38)" fill-rule="evenodd" d="M33.68258477 23.92395801l-.31702723.18201421c.02928334-.03627041.02928334-.08783018 0-.1241006-.07906866-.40417729-.31985112-.75935972-.66742574-.98453142l.31702723-.18201421c.34757462.2251717.58835708.58035413.66742574.98453142.02928334.03627042.02928334.08783019 0 .1241006z"/>
          <g>
            <use fill="none" xlink:href="#path-207"/>
            <g mask="url(#mask-208)">
              <path fill="rgb(248,185,38)" fill-rule="evenodd" d="M32.73150309 22.9973402l.31702722-.18201421-.31702722.1820142z"/>
              <path fill="rgb(248,185,38)" fill-rule="evenodd" d="M32.75653155 23.01388695l.31702723-.18201422c.06637706.03656535.12801226.08101781.18354208.13237398l-.31702723.19028758c-.05537794-.05389124-.11698616-.1011013-.18354208-.14064734z"/>
              <path fill="rgb(248,185,38)" fill-rule="evenodd" d="M32.9651021 23.1545343l.31702722-.1902876c.05721995.05677817.11019772.11761021.15851362.18201422l-.31702723.18201421c-.04840598-.06174339-.101391-.11981828-.15851361-.17374084z"/>
              <path fill="rgb(248,185,38)" fill-rule="evenodd" d="M33.09858724 23.32827513l.31702723-.18201421c.14716381.1934298.2496929.41655124.30034159.6535965.00320205.01360613.00320205.02776071 0 .04136686l-.31702723.18201421c.00320206-.01360614.00320206-.02776072 0-.04136687-.0506487-.23704524-.15317778-.4601667-.30034159-.65359649z"/>
              <path fill="rgb(248,185,38)" fill-rule="evenodd" d="M33.40727165 24.0232385l.31702723-.18201422v.04136686l-.31702723.18201422c.00393995-.01351218.00393995-.02785469 0-.04136687z"/>
              <path fill="rgb(248,185,38)" fill-rule="evenodd" d="M33.39892883 24.06460536l.31702723-.18201422-.31702723.18201422z"/>
              <path fill="rgb(248,185,38)" fill-rule="evenodd" d="M33.38224319 24.08942548l.31702722-.18201422-.31702722.18201422z"/>
            </g>
          </g>
          <path fill="rgb(244,167,23)" fill-rule="evenodd" d="M32.73150309 22.9973402c.34757462.2251717.58835708.58035413.66742574.98453142 0 .10755386-.04171411.16546747-.13348515.11582723-.06974967-.04555412-.11790902-.11719179-.13348515-.19856096-.05297828-.23931741-.19625143-.44947815-.40045544-.5874095-.23359901-.13237398-.42548392 0-.42548392.23992782-.00759075.06043792-.00759075.1215763 0 .18201421 0 .05791362 0 .09928048-.05839975.066187l-.20022772-.10755386-8.25939357-4.36006774v-1.37337998l8.34282179 5.09639797c.10845668-.17374084.33371287-.20683433.60068317-.05791361z"/>
        </g>
        <path fill="rgb(238,152,21)" fill-rule="evenodd" d="M8.7709189 23.88259114c0 1.60503443 1.66856436 2.75503332 3.6708416 2.75503332 2.00227722 0 3.65415594-1.1499989 3.67084158-2.75503332v-.35575505H8.77091891v.35575505z"/>
        <g>
          <path fill="rgb(248,185,38)" fill-rule="evenodd" d="M15.02803525 22.0955425c1.44330817.82733734 1.45165099 2.15935044 0 2.9784144-1.6319648.82785586-3.56561317.82785586-5.19757798 0-1.43496534-.82733733-1.44330817-2.15107706 0-2.9784144 1.63130085-.83058431 3.56627713-.83058431 5.19757798 0z"/>
          <path fill="rgb(238,152,21)" fill-rule="evenodd" d="M15.79557485 24.12251897c-.2084857.3543216-.51551444.64156023-.8843391.82733733-1.5462192.76889602-3.36770285.76889602-4.91392204 0-.38117193-.18204339-.69598923-.47689578-.90102475-.84388408-.32537005-.66186986 0-1.39820009.8843391-1.9194226 1.5462192-.76889602 3.36770285-.76889602 4.91392204 0 .9177104.52949589 1.21805198 1.26582611.90102475 1.93596935z"/>
          <path fill="rgb(244,167,23)" fill-rule="evenodd" d="M15.79557485 24.12251897c-.2084857.3543216-.51551444.64156023-.8843391.82733733-1.5462192.76889602-3.36770285.76889602-4.91392204 0-.38117193-.18204339-.69598923-.47689578-.90102475-.84388408.20416939-.35769936.51236533-.64602994.8843391-.82733733 1.54399058-.77817776 3.36993147-.77817776 4.91392204 0 .37784949.18679552.69139473.48045652.90102475.84388408z"/>
        </g>
        <rect width="13.432" height=".108" x="4.499" y="18.437" fill="rgb(251,191,52)" rx="0" ry="0" transform="rotate(-79.130028 11.21517981 18.49051404)"/>
        <rect width=".108" height="13.064" x="13.623" y="12.076" fill="rgb(251,191,52)" rx="0" ry="0" transform="rotate(-10.750004 13.67734423 18.60773845)"/>
        <rect width="10.679" height=".108" x="5.887" y="16.838" fill="rgb(251,191,52)" rx="0" ry="0" transform="rotate(-76.860027 11.22622127 16.8918162)"/>
        <rect width=".108" height="10.54" x="13.609" y="11.619" fill="rgb(251,191,52)" rx="0" ry="0" transform="rotate(-13.180005 13.66306078 16.88955954)"/>
        <g>
          <g>
            <path fill="rgb(248,185,38)" fill-rule="evenodd" d="M10.21069336 21.85351563l-.07989502-.04760743c-.0567627-.0324707-.12677002-.0324707-.18353272 0l.09179688.04968262c.05249023-.0321045.11853027-.03283691.17163086-.0020752z"/>
            <g>
              <use fill="none" xlink:href="#path-226"/>
              <g mask="url(#mask-227)">
                <path fill="rgb(248,185,38)" fill-rule="evenodd" d="M10.03902782 21.87216143l-.09177104-.04964024h.0750854l.09177103.04964024h-.0750854z"/>
                <path fill="rgb(248,185,38)" fill-rule="evenodd" d="M10.11411321 21.83906793l-.09177104-.04964024c.03210754-.01288002.06800633-.01288002.10011387 0l.09177104.04964024c-.0322618-.01206838-.06785207-.01206838-.10011387 0z"/>
                <path fill="rgb(248,185,38)" fill-rule="evenodd" d="M10.21422708 21.85561468l-.09177104-.04964024h.00834282l.08342822.04964024z"/>
              </g>
            </g>
          </g>
          <g>
            <path fill="rgb(248,185,38)" fill-rule="evenodd" d="M9.78040034 22.27755672l-.08342821-.04964024c.01413907-.16676154.10694273-.31707905.25028465-.4053953l.09177104.04964025c-.14124587.09170747-.23556027.2395441-.25862748.40539529z"/>
            <g>
              <use fill="none" xlink:href="#path-232"/>
              <g mask="url(#mask-233)">
                <path fill="rgb(248,185,38)" fill-rule="evenodd" d="M9.69696045 22.07067871c-.0112915.05175781-.0112915.10534668 0 .15722656l.0458374.02722168c.00964356-.04663086.02508545-.09191894.04589844-.13476562l-.09173584-.04968262zm.04589844.18457031l-.0041504.02233887h.04168702l-.03753662-.02233887z"/>
                <path fill="rgb(248,185,38)" fill-rule="evenodd" d="M9.83045727 22.12036263l-.09177104-.04964024c.02306794-.04949416.05101323-.0966057.08342822-.14064735l.09177104.04964024c-.03557032.0419082-.06377371.08945484-.08342822.14064735z"/>
                <path fill="rgb(248,185,38)" fill-rule="evenodd" d="M9.9138855 21.97971528l-.09177105-.04136687c.03743986-.04046835.07942717-.07655444.12514233-.10755385l.09177104.04964024c-.04895954.02660765-.091625.06327658-.12514233.10755385v-.00827337z"/>
              </g>
            </g>
          </g>
          <path fill="rgb(244,167,23)" fill-rule="evenodd" d="M10.03902782 21.87216143c.13348515-.07446036.233599 0 .25028465.11582722l-.50891213.28956807c.0230672-.1658512.1173816-.31368782.25862748-.4053953z"/>
        </g>
        <g>
          <g>
            <path fill="rgb(248,185,38)" fill-rule="evenodd" d="M9.77557373 24.83190918l.07989502-.04748535c.05566406-.03637696.12786865-.03637696.18353271 0l-.09173583.04968262c-.05255127-.03222657-.11859131-.03283692-.1716919-.00219727z"/>
            <g>
              <use fill="none" xlink:href="#path-239"/>
              <g mask="url(#mask-240)">
                <path fill="rgb(248,185,38)" fill-rule="evenodd" d="M9.94725678 24.85057582l.09177104-.04964024h-.0750854l-.09177104.04964024h.0750854z"/>
                <path fill="rgb(248,185,38)" fill-rule="evenodd" d="M9.87217138 24.81748233l.09177104-.04964024c-.03278335-.00878518-.0673305-.00878518-.10011386 0l-.09177104.05791361c.03210754-.01288002.06800632-.01288002.10011386 0v-.00827337z"/>
                <path fill="rgb(248,185,38)" fill-rule="evenodd" d="M9.77205752 24.83402908l.09177104-.05791362-.00834282.00827338-.08342822.04964024z"/>
              </g>
            </g>
          </g>
          <g>
            <path fill="rgb(248,185,38)" fill-rule="evenodd" d="M10.19754143 25.24769774h.09177104c-.0178043-.1655481-.10969915-.3143936-.25028465-.40539529l-.09177104.04964024c.1308298.07769979.22191408.20716713.25028465.35575505z"/>
            <g>
              <use fill="none" xlink:href="#path-245"/>
              <g mask="url(#mask-246)">
                <path fill="rgb(248,185,38)" fill-rule="evenodd" d="M10.19754143 25.24769774h.09177104c-.00191487-.05746524-.01613423-.11386922-.0417141-.16546746l-.09177105.0579136c.02541021.0487116.03965436.1023888.04171411.1571941v-.04964024z"/>
                <path fill="rgb(248,185,38)" fill-rule="evenodd" d="M10.15582732 25.09877702l.09177104-.05791361c-.02282947-.0470255-.05080721-.09141725-.08342821-.13237397l-.09177104.04964024c.03557032.0419082.0637737.08945484.08342821.14064734z"/>
                <path fill="rgb(248,185,38)" fill-rule="evenodd" d="M10.0723991 24.95812968l.09177105-.04964024c-.03517203-.04271605-.07750595-.07910004-.12514233-.10755386l-.09177104.04964024c.04895954.02660766.091625.06327658.12514233.10755386z"/>
              </g>
            </g>
          </g>
          <path fill="rgb(244,167,23)" fill-rule="evenodd" d="M9.94725678 24.85057582c-.13348515-.07446036-.24194183 0-.25028465.11582723l.5005693.28956807c-.01413907-.16676155-.10694273-.31707905-.25028465-.4053953z"/>
        </g>
        <g>
          <g>
            <path fill="rgb(248,185,38)" fill-rule="evenodd" d="M14.66448975 21.85351563l.07989502-.04760743c.0567627-.0324707.12677002-.0324707.18353271 0l-.09173584.04968262c-.05255127-.0321045-.1185913-.03283691-.1716919-.0020752z"/>
            <g>
              <use fill="none" xlink:href="#path-252"/>
              <g mask="url(#mask-253)">
                <path fill="rgb(248,185,38)" fill-rule="evenodd" d="M14.83615035 21.87216143l.09177104-.04964024h-.0750854l-.09177104.04964024h.0750854z"/>
                <path fill="rgb(248,185,38)" fill-rule="evenodd" d="M14.76106495 21.83906793l.09177104-.04964024c-.03210754-.01288002-.06800632-.01288002-.10011386 0l-.09177104.04964024c.03210754-.01288002.06800632-.01288002.10011386 0z"/>
                <path fill="rgb(248,185,38)" fill-rule="evenodd" d="M14.66095109 21.85561468l.09177104-.04964024h-.00834282l-.09177104.04964024h.00834282z"/>
              </g>
            </g>
          </g>
          <g>
            <path fill="rgb(248,185,38)" fill-rule="evenodd" d="M15.086435 22.27755672l.09177104-.04964024c-.0178043-.1655481-.10969916-.3143936-.25028465-.4053953l-.09177104.04964025c.14147416.09014246.23365612.239453.25028465.40539529z"/>
            <g>
              <use fill="none" xlink:href="#path-258"/>
              <g mask="url(#mask-259)">
                <path fill="rgb(248,185,38)" fill-rule="evenodd" d="M15.17822266 22.07067871c.01123047.05175781.01123047.10534668 0 .15722656l-.05151368.02783203c-.00463867-.0472412-.0182495-.09313964-.0402832-.13537597l.09179688-.04968262zm-.05151368.1850586l-.0402832.02172851h.04168701c-.00024414-.00720215-.00073242-.01452637-.0014038-.02172852z"/>
                <path fill="rgb(248,185,38)" fill-rule="evenodd" d="M15.0447209 22.12036263l.09177103-.04964024c-.02306793-.04949416-.05101322-.0966057-.08342822-.14064735l-.09177104.04964024c.03557033.0419082.06377372.08945484.08342822.14064735z"/>
                <path fill="rgb(248,185,38)" fill-rule="evenodd" d="M14.96129267 21.97971528l.09177104-.04136687c-.03743985-.04046835-.07942717-.07655444-.12514232-.10755385l-.09177104.04964024c.04895954.02660765.091625.06327658.12514232.10755385v-.00827337z"/>
              </g>
            </g>
          </g>
          <path fill="rgb(244,167,23)" fill-rule="evenodd" d="M14.83615035 21.87216143c-.13348515-.07446036-.24194183 0-.25028466.11582722l.50056931.28956807c-.01662853-.16594229-.1088105-.31525283-.25028465-.4053953z"/>
        </g>
        <g>
          <g>
            <path fill="rgb(248,185,38)" fill-rule="evenodd" d="M15.09954834 24.83190918l-.07989502-.04748535c-.05566406-.03637696-.12786865-.03637696-.18353271 0l.09179687.04968262c.05249023-.03222657.11853027-.03283692.17163086-.00219727z"/>
            <g>
              <use fill="none" xlink:href="#path-265"/>
              <g mask="url(#mask-266)">
                <path fill="rgb(248,185,38)" fill-rule="evenodd" d="M14.92792139 24.85057582l-.09177104-.04964024h.0750854l.09177103.04964024h-.0750854z"/>
                <path fill="rgb(248,185,38)" fill-rule="evenodd" d="M15.00300678 24.81748233l-.09177104-.04964024c.03278336-.00878518.06733051-.00878518.10011386 0l.09177104.05791361c-.03226179-.01206838-.06785207-.01206838-.10011386 0v-.00827337z"/>
                <path fill="rgb(248,185,38)" fill-rule="evenodd" d="M15.10312064 24.83402908l-.09177104-.05791362.00834283.00827338.08342821.04964024z"/>
              </g>
            </g>
          </g>
          <g>
            <path fill="rgb(248,185,38)" fill-rule="evenodd" d="M14.66929391 25.24769774h-.05839975c.01413908-.16676154.10694273-.31707905.25028465-.40539529l.09177104.04964024c-.14069841.07386417-.24362672.20295459-.28365594.35575505z"/>
            <g>
              <use fill="none" xlink:href="#path-271"/>
              <g mask="url(#mask-272)">
                <path fill="rgb(248,185,38)" fill-rule="evenodd" d="M14.61090088 25.0822754c-.01147461.05456542-.01147461.11083983 0 .16552733h.05218506c-.00421143.01623536-.00775147.03283692-.01049805.04956055l.0166626-.04968262h-.00616455c.00958252-.0369873.02282715-.07299804.03961181-.10754394l-.09179687-.05786133z"/>
                <path fill="rgb(248,185,38)" fill-rule="evenodd" d="M14.69433594 24.90844727c-.03265381.04089355-.06060791.08532714-.08343506.13232421l.09466553.05065918-.0029297.00732422h.0166626l-.01379394-.00732422c.01953125-.04846191.04675293-.09350586.0805664-.13330078l-.09173583-.04968261z"/>
                <path fill="rgb(248,185,38)" fill-rule="evenodd" d="M14.80277906 24.95812968l-.09177104-.04964024c.03517202-.04271605.07750595-.07910004.12514233-.10755386l.09177104.04964024c-.04895954.02660766-.091625.06327658-.12514233.10755386z"/>
              </g>
            </g>
          </g>
          <path fill="rgb(244,167,23)" fill-rule="evenodd" d="M14.92792139 24.85057582c.13348515-.07446036.233599 0 .25028465.11582723l-.50891213.2812947c.02322193-.16361338.11779636-.3088322.25862748-.39712193z"/>
        </g>
        <path fill="rgb(244,167,23)" fill-rule="evenodd" d="M23.2039795 15.80773926c.10546874-.04821778.17590331-.14978028.1835327-.26477051l.08337403-11.10766602c-.00280762.11279297-.06201172.21704102-.15844727.27783204-.29174804.14343261-.63427734.14343261-.92602539 0l-.11682128-.09094239c-.04693604-.0493164-.07373047-.11425781-.07507325-.18200683l-.08343506 11.12768554c.00634766.10205078.0666504.1932373.1585083.23986817.17089844.0916748.3659668.12915039.55895997.10754394.13140869-.00915527.25933837-.04589843.37542724-.10754394z"/>
        <path fill="rgb(248,185,38)" fill-rule="evenodd" d="M22.82857362 3.83620758v12.07912505c-.19302674.02159746-.3880938-.01593631-.55896906-.10755385V3.63764662c.03382027.03406321.07333834.06205543.1167995.08273373.13474705.07603011.28713801.11594924.44216956.11582723z"/>
        <g>
          <g>
            <path fill="rgb(248,185,38)" fill-rule="evenodd" d="M23.8547407 3.47217915l-.15851361 1.80359539c-.01456114.1455092-.10701222.27196642-.24194183.33093493-.35873765.1826134-.78422894.1826134-1.14296659 0-.1360994-.0575229-.2291299-.18477268-.24194183-.33093493l-.16685644-1.81186876c.01860512.17667594.12950408.33064205.29199877.4053953.43313599.2154598.9434296.2154598 1.3765656 0 .15909581-.0728628.26713036-.22411253.28365593-.39712193z"/>
            <g>
              <use fill="none" xlink:href="#path-280"/>
              <g mask="url(#mask-281)">
                <path fill="rgb(248,185,38)" fill-rule="evenodd" d="M23.8547407 3.47217915l-.15851361 1.80359539c-.01456114.1455092-.10701222.27196642-.24194183.33093493-.35873765.1826134-.78422894.1826134-1.14296659 0-.1360994-.0575229-.2291299-.18477268-.24194183-.33093493l-.16685644-1.81186876c.01860512.17667594.12950408.33064205.29199877.4053953.43313599.2154598.9434296.2154598 1.3765656 0 .15909581-.0728628.26713036-.22411253.28365593-.39712193z"/>
              </g>
            </g>
          </g>
          <path fill="rgb(255,198,65)" fill-rule="evenodd" d="M23.57108476 3.07505724c.19869287.03960432.3416396.212689.3416396.41366866 0 .20097966-.14294673.37406434-.3416396.41366867-.433136.2154598-.9434296.2154598-1.3765656 0-.3837698-.22338108-.3837698-.57913614 0-.82733733.4318358-.22083876.9447298-.22083876 1.3765656 0z"/>
        </g>
        <path fill="rgb(251,191,52)" fill-rule="evenodd" d="M23.30411446 8.8250517c.08323696-.00792262.1670477-.00792262.25028466 0 .22917608.0742581.4147517.24320443.50891213.4633089.09636378.21556826.13652805.4517029.1167995.68668999-.04495737.28941337-.0307715.58483679.04171411.8687042.05436331.13387318.14719937.24895226.2669703.33093493.11040326.08745947.25208097.12632071.39211262.10755385.40879827-.06618698.32537005-.61222962.3420557-.91007106V9.08979964c0-1.09208528-1.19302352-1.37337997-2.0690198-1.03417166-.20857767.07835478-.37683249.23627036-.46719803.43848878-.00835105.04373608-.00835105.0886379 0 .13237398.02691951.04302182.06827928.07524826.1167995.0910071.15788627.06880405.32812488.10538204.50056931.10755386z"/>
        <path fill="rgb(251,191,52)" fill-rule="evenodd" d="M22.5115464 9.14771325h.05005692c.18354208.07446036.55062624.14064735.60068317.3723018.05005693.23165446-.15017079.3723018-.28365594.51294915-.13348515.14064735.31702723.35575505.4171411.47985565.08154273.09023769.12002817.21088002.10565349.33120796-.01436634.12032794-.0802079.2287174-.1807389.29756842-.12236416.07067115-.25671696.1180693-.39615889.14000202.10432699.01770502.18541087.1651448.13753142.27366664-.07556094.12352974-.19943515.21042498-.3420557.23992783-.42761132.15266028-.88906114.1869865-1.33485148.09928048-.22931914-.03531903-.4261263-.1809304-.52559777-.38884855-.0750854-.2151077.1167995-.50467577.33371287-.45503553-.26839692-.07865496-.44986164-.32651695-.44216956-.60395625.01513388-.27590046.21240825-.50863872.48388367-.57086276-.20022772.04136686-.35874134-.14064735-.48388367-.25647458-.03759275-.02543235-.0713061-.05607692-.10011386-.0910071-.01278954-.04602478-.01278954-.09462257 0-.14064735-.00681608-.20378973.11698305-.38959315.3086844-.4633089h.27531313c-.83428218-.14892072-.83428218-1.28237287.06674257-1.17481902.30034159 0 1.451651.26474795 1.44330817.68668999-.02654686.11461931-.08765803.21850806-.17519926.29784144-.0890179.07527942-.13043167.19215737-.10845668.30611481.0369587.05106326.08966865.08881466.1501708.10755385z"/>
        <path fill="rgb(248,185,38)" fill-rule="evenodd" d="M51.25256746 17.37144634c.08342822 2.77158006-4.7887797 2.8212203-4.72203713.2151077.10011386-3.63201088.3086844-4.04567955 1.91050618-4.60826894.43494812-.16615274.89421963-.26115425 1.35987996-.28129469 1.66856435 0 1.04285272.88525095.97611015 1.5223007-.1918849 1.92769598.44216955 2.15935043.47554084 3.15215523z"/>
        <path fill="rgb(238,152,21)" fill-rule="evenodd" d="M51.25256746 17.37144634c0-.9928048-.66742575-1.25755275-.47554084-3.15215524.06674257-.63704974.71748267-1.55539418-.97611015-1.52230069-.46566033.02014044-.92493184.11514195-1.35987996.2812947-1.57679331.554316-1.8020495.96798467-1.90216336 4.45934822 1.3431943-.14064735 2.50284653-1.72086166 3.91278342-.7776971.34932644.2899659.61908762.66278018.78422524 1.0838119.00834283-.11582722.01668565-.23992782.01668565-.3723018z"/>
        <path fill="rgb(251,191,52)" fill-rule="evenodd" d="M50.95222587 13.7228887c-.36593593.5460381-.80361467 1.04128356-1.3014802 1.47266045l-.41714109.36402843c-.87492425.72174528-1.86072897 1.299925-2.91998762 1.71258828-.78422525.30611481-1.40993688.25647457-1.85210644-.52122252-.16322408-.32417523-.28915817-.66552969-.37542698-1.01762492-.09177104-.32266156-.15851361-.6535965-.2669703-.96798468-.10845668-.31438818-.24194183-.3392083-.37542698-.54604264-.10850131-.23942587-.10850131-.5134511 0-.75287697.08342822-.23165445.20857055-.44676216.3086844-.67014324-.0036175-.0163523-.0036175-.03328793 0-.04964024.1564895-.48459464.17668119-1.00234789.05839976-1.49748057-.16453964-.62064962-.20142433-1.26779264-.10845668-1.90287587.06679371-.2496874.16785186-.48909443.30034158-.7115101.1032352-.20748101.23521709-.39962874.39211263-.57086276.2408391-.24540095.52321012-.44701569.83428218-.59568288.37042221-.18090627.75914685-.3223446 1.15965222-.42194204 1.49033303-.4024338 3.08375457.02104837 4.1714109 1.10863203 1.35369434 1.5675226 1.51295969 3.82908276.39211262 5.56798024z"/>
        <path fill="rgb(244,167,23)" fill-rule="evenodd" d="M51.01062563 12.95346498c-2.19416213.76942372-4.37998144.7115101-7.28328343-.11582722-.0036175-.0163523-.0036175-.03328794 0-.04964024.17260088-.4950756.2015081-1.02827394.08342822-1.53884744 2.11321207.6682984 4.39039186.62173708 6.47402971-.13237397.37542698.3723018.35874134 1.46438707.7258255 1.83668887z"/>
        <path fill="rgb(244,167,23)" fill-rule="evenodd" d="M52.62079023 10.26461865c-.0750854-2.2007173-.78422525-2.52337886-1.57679332-3.30934933-.83445292-.67948348-1.90207739-1.01163633-2.97838738-.9266178-1.09349497.0642101-2.15014986.41539988-3.0618156 1.01762491h-.10845668c-.44313927.25648065-.81565944.61737478-1.08456683 1.05071841-.1918849.34748168-.55062624 1.07553853-.29199876 1.43956696.0705752.10599998.18716986.1730688.31499451.18119447.12782465.00812568.25210028-.04363126.33574559-.1398276.1152389.2433921.35509875.40513905.62571163.42194204.27637624.01392144.53849888-.1223889.68411139-.35575506.00386825.20305643.12818063.38472863.31702723.46330891.18093348.05502425.37771995.0109585.51725495-.11582723-.0678754.22660295-.00364109.47184644.16685643.63704975.1668287.1627881.36181634.29450015.5756547.38884855-.006806.17760373.05961653.35029734.1839639.47829236.12434738.127995.29589523.20025245.47511903.20012425-.08342822.35575505.33371287.62877637.42548391.97625805.01174224.06731699.02847324.13368386.05005693.19856096.0621087.1009503.17275002.1625374.29199876.1625374.11924874 0 .22989008-.0615871.29199877-.1625374-.01688413.036167-.01844508.07753625-.00433369.1148534.0141114.03731715.0427175.06746792.07941908.08370756.07045048.03288927.14738985.04984458.2252562.04964024h.79256806c.37542698 0 .64239728-.38057517.93439604.08273373.06674258.10755386 0 .22338108 0 .35575506 0 .13237397-.0417141.82733733-.0417141.82733733.07674014-.0080255.15231106-.02467925.22525618-.04964024.26231102-.18961592.48123082-.43208838.64239728-.7115101.68162746-.98698719 1.02929394-2.16326945.9927958-3.35898958z"/>
        <path fill="rgb(251,191,52)" fill-rule="evenodd" d="M50.61017018 12.25850162c.75085396-.04964024.94273886.87697758.42548391 1.60503443-.1854591.20835094-.39237313.3969054-.61736881.56258939-1.35987995 1.14172551-1.66856436-.09928048-1.26810891-.48812903 1.00113861-.9017977.5005693-1.6133078 1.45999381-1.67949479z"/>
      </g>
    </g>
  </g>
</svg>
